<svg xmlns="http://www.w3.org/2000/svg" xmlns:xlink="http://www.w3.org/1999/xlink" width="105" height="105" viewBox="0 0 105 105">
  <defs>
    <clipPath id="clip-path">
      <rect id="Rectángulo_42393" data-name="Rectángulo 42393" width="54.055" height="69.189" fill="none"/>
    </clipPath>
  </defs>
  <g id="_10" data-name="10" transform="translate(0.451)">
    <circle id="Elipse_4889" data-name="Elipse 4889" cx="52.5" cy="52.5" r="52.5" transform="translate(-0.451)" fill="#ffdfe0"/>
    <g id="Grupo_169155" data-name="Grupo 169155" transform="translate(25 18)">
      <g id="Grupo_169154" data-name="Grupo 169154" clip-path="url(#clip-path)">
        <path id="Trazado_159285" data-name="Trazado 159285" d="M5.262,36.778c-1.079-.055-1.093-.055-1.076-1.167a52.945,52.945,0,0,1,.241-7.272A21.647,21.647,0,0,1,10.2,16.494a1.549,1.549,0,0,0,.475-1.176c-.019-4.183.023-8.366-.031-12.548A2.612,2.612,0,0,1,12.29,0H24.316a2.233,2.233,0,0,1,1.809,2.269c.085.791.088.789.9.788,1.368,0,2.736-.03,4.1.013.573.019.838-.15.836-.734A2.984,2.984,0,0,1,32.338.988,1.96,1.96,0,0,1,33.774,0H45.8a2.633,2.633,0,0,1,1.641,2.773c-.053,4.205-.015,8.411-.026,12.617A1.317,1.317,0,0,0,47.8,16.4a21.583,21.583,0,0,1,6.1,15.037c.04,2.945-.018,5.893.026,8.839.01.68-.159.938-.83.811a1.051,1.051,0,0,0-.268.019c-.913.362-1.274.143-1.28-.825-.016-2.495-.037-4.99,0-7.483a21.978,21.978,0,0,0-2.431-10.729,16.422,16.422,0,0,0-14.882-8.889q-5.187.026-10.37,0a15.957,15.957,0,0,0-9.52,2.835,16.475,16.475,0,0,0-5.366,6.024A21.657,21.657,0,0,0,6.54,32.71c.02,1.079.014,2.159,0,3.239-.014.978-.352,1.191-1.277.829" transform="translate(-2.021)"/>
        <path id="Trazado_159286" data-name="Trazado 159286" d="M50.807,59.22c.675.007,1.35.009,2.025.023a1.09,1.09,0,0,1,1.213,1.21c0,6.508.028,13.015-.015,19.522a5.355,5.355,0,0,1-5.19,5.206c-.225.008-.45.005-.675.005H5.881C2.234,85.187,0,82.951,0,79.3q0-9.288,0-18.577c0-1.149.333-1.477,1.486-1.481.585,0,1.17-.014,1.754-.021a1.77,1.77,0,0,1,1.108-.179c.793-.021.849-.06.851-.843.007-2.65-.012-5.3.008-7.951a31.261,31.261,0,0,1,.206-5.31A14.838,14.838,0,0,1,7.66,39.354a14.458,14.458,0,0,1,10.68-6.222,8.721,8.721,0,0,1,.877-.026c5.2,0,10.4-.05,15.6.017a13.506,13.506,0,0,1,9.558,3.948,16.524,16.524,0,0,1,2.005,2.279,14.574,14.574,0,0,1,2.465,8.132c-.015,3.527-.005,7.054,0,10.581,0,.954.016.961.987.978a1.5,1.5,0,0,1,.973.179" transform="translate(0 -15.999)"/>
        <path id="Trazado_159287" data-name="Trazado 159287" d="M10.884,43.855a14.55,14.55,0,0,0-2.368,6.576c-.044.492-.072.986-.073,1.479-.006,3.729-.014,7.459.009,11.188,0,.5-.119.677-.629.626s-1.031-.024-1.548-.032V61.575c.039-.055.084-.122.147-.126.685-.039.706-.478.772-1.04.092-.786-.509-.79-.918-1.04V57.251C7.358,57.2,7.351,57.2,7.36,56.076a38.914,38.914,0,0,1,.4-7.842,18.579,18.579,0,0,1,2.151-5.893,15.266,15.266,0,0,1,.969,1.514" transform="translate(-3.034 -20.473)" fill="#dc923c"/>
        <path id="Trazado_159288" data-name="Trazado 159288" d="M94.057,63.691c-.693-.006-1.573.243-2.024-.09-.433-.32-.13-1.256-.133-1.92-.015-2.808-.076-5.618.011-8.424a15.667,15.667,0,0,0-2.463-9.4,12.137,12.137,0,0,1,.972-1.519A18.341,18.341,0,0,1,92.7,49.03c.512,3.281.187,6.589.271,9.883a18.229,18.229,0,0,1-.01,1.952c-.045.562.129.787.694.689a1.853,1.853,0,0,1,.4.018v2.119" transform="translate(-43.25 -20.47)" fill="#dc923c"/>
        <path id="Trazado_159289" data-name="Trazado 159289" d="M5.265,75.312c1.083.055,1.083.055,1.083,1.17,0,.98,0,.98-1.083,1.036-1.079-.055-1.079-.055-1.079-1.136,0-1.014,0-1.014,1.079-1.07" transform="translate(-2.024 -36.415)"/>
        <path id="Trazado_159290" data-name="Trazado 159290" d="M53.61,34.032a2.476,2.476,0,0,1-.971,1.519,14.391,14.391,0,0,0-7.49-5.465,14.223,14.223,0,0,0-4.186-.623c-4.976,0-9.952-.022-14.927.008A13.885,13.885,0,0,0,14.508,35.3c-.067.088-.145.167-.218.251-.612-.32-.742-.948-.969-1.514a16.349,16.349,0,0,1,7.518-7.253,15.861,15.861,0,0,1,7.219-1.617c0,.316-.281.443-.451.64a1.384,1.384,0,0,0,.729,2.324,3.513,3.513,0,0,0,.873.063q4.256,0,8.511,0a3.517,3.517,0,0,0,.874-.063,1.384,1.384,0,0,0,.728-2.324c-.17-.2-.446-.325-.452-.64a16.359,16.359,0,0,1,13.307,6.6,10.4,10.4,0,0,1,1.433,2.265" transform="translate(-6.441 -12.167)" fill="#f1a042"/>
        <path id="Trazado_159291" data-name="Trazado 159291" d="M63.039,6.753a1.861,1.861,0,0,1-.668-2.362c.089-.248.262-.207.429-.207,2.6,0,5.208,0,7.811-.008.334,0,.428.112.39.434q-.482,4.039-.946,8.079c-.213.175-.433.068-.637,0a16.093,16.093,0,0,0-3.007-.718c-.789-.113-.848-.186-.839-1a4.753,4.753,0,0,0-.888-2.842,6.421,6.421,0,0,0-1.646-1.37" transform="translate(-30.077 -2.019)" fill="#303030"/>
        <path id="Trazado_159292" data-name="Trazado 159292" d="M26.352,12.69q-.47-4.042-.945-8.082c-.04-.33.061-.432.39-.431q3.907.015,7.814,0c.318,0,.452.1.438.42a1.347,1.347,0,0,0,.056.4,1.305,1.305,0,0,1-.738,1.759,4.556,4.556,0,0,0-2.535,4.41c.016.4-.1.707-.57.765a16.119,16.119,0,0,0-3.4.8.462.462,0,0,1-.508-.036" transform="translate(-12.281 -2.02)" fill="#303030"/>
        <path id="Trazado_159293" data-name="Trazado 159293" d="M51.651,25.166a2.681,2.681,0,0,1,.932.948,1.609,1.609,0,0,1-1.508,2.263c-3.22.022-6.44.011-9.66,0A1.584,1.584,0,0,1,39.9,27.352a1.419,1.419,0,0,1,.426-1.759c.167-.148.344-.285.516-.427H51.651" transform="translate(-19.221 -12.168)" fill="#febd4f"/>
        <path id="Trazado_159294" data-name="Trazado 159294" d="M51.6,14.107a2.345,2.345,0,0,0-2.768-2.578,20.2,20.2,0,0,1-3.168,0A2.336,2.336,0,0,0,42.9,14.107c-.242.7-.419.812-1.033.673a3.936,3.936,0,0,1,.854-3.279,3.218,3.218,0,0,1,2.4-1.037c1.4,0,2.789-.006,4.184,0a3.241,3.241,0,0,1,3.346,3.372c0,.315-.013.629-.02.944-.614.139-.79.024-1.033-.673" transform="translate(-20.229 -5.058)" fill="#dc923c"/>
        <path id="Trazado_159295" data-name="Trazado 159295" d="M27.23,15.1a16.673,16.673,0,0,1,3.907-.932c.468-.036.405-.332.4-.614a4.745,4.745,0,0,1,.892-3.1,3.3,3.3,0,0,1,1.822-1.291,6.4,6.4,0,0,0-1.618,5.349c.061.689-.193.931-.848,1a15.079,15.079,0,0,0-3.945,1.052c-.395.155-.516.084-.5-.333A8.108,8.108,0,0,1,27.23,15.1" transform="translate(-13.159 -4.433)" fill="#121212"/>
        <path id="Trazado_159296" data-name="Trazado 159296" d="M63.821,9.165a4.088,4.088,0,0,1,2.709,3.788c.024,1.251.024,1.242,1.263,1.345a16.989,16.989,0,0,1,3.044.8c-.046.511-.092,1.023-.144,1.593a29.247,29.247,0,0,0-3.85-1.11c-1.4-.261-1.446-.289-1.381-1.725a6.171,6.171,0,0,0-1.642-4.7" transform="translate(-30.859 -4.431)" fill="#121212"/>
        <path id="Trazado_159297" data-name="Trazado 159297" d="M20.971,7.413v-3l.092-.007q.28,2.421.56,4.843c.214,1.888.405,3.779.647,5.663.061.478-.082.725-.513.853a5.038,5.038,0,0,1-.332-1.9c-.249-2.143-.32-4.3-.455-6.451" transform="translate(-10.14 -2.13)" fill="#234274"/>
        <path id="Trazado_159298" data-name="Trazado 159298" d="M81.671,15.773c-.479-.138-.561-.432-.5-.918.24-1.817.424-3.641.628-5.462.186-1.659.372-3.318.655-4.97v3c-.139,1.655-.131,3.32-.316,4.973-.107.961-.161,1.927-.281,2.888a.7.7,0,0,1-.19.49" transform="translate(-39.24 -2.138)" fill="#234173"/>
        <path id="Trazado_159299" data-name="Trazado 159299" d="M82.154,18.582c.048-1.447.219-2.882.374-4.319.124-1.15.2-2.306.3-3.459.017-.195-.06-.409.114-.572v8.79c-.333-.037-.537-.285-.787-.44" transform="translate(-39.723 -4.947)" fill="#355486"/>
        <path id="Trazado_159300" data-name="Trazado 159300" d="M20.971,10.23a3.089,3.089,0,0,1,.2,1.366c.246,2.323.4,4.656.585,6.985l-.786.537Z" transform="translate(-10.14 -4.946)" fill="#355486"/>
        <path id="Trazado_159301" data-name="Trazado 159301" d="M60.71,17.52a1.17,1.17,0,0,0,1.033.673c.007.178,0,.357.024.532.059.429-.1.57-.546.572s-.579-.16-.543-.579c.035-.4.023-.8.032-1.2" transform="translate(-29.336 -8.471)" fill="#af582a"/>
        <path id="Trazado_159302" data-name="Trazado 159302" d="M41.873,18.194a1.169,1.169,0,0,0,1.033-.673c.009.333.028.666.024,1-.005.368.156.785-.535.786s-.535-.4-.541-.779c0-.111.012-.222.02-.333" transform="translate(-20.232 -8.472)" fill="#af582a"/>
        <path id="Trazado_159303" data-name="Trazado 159303" d="M31.648,39.568q.011,2.054.022,4.108c.007.922.351,1.284,1.245,1.29q1.987.012,3.974,0c.871-.006,1.257-.4,1.264-1.29.012-1.369.016-2.738.023-4.108a.649.649,0,0,1,.491-.188,38.131,38.131,0,0,1,5.394.116A10.95,10.95,0,0,1,53.485,50.55q0,5.033,0,10.066a2.43,2.43,0,0,1-2.6,2.432,6,6,0,0,0-2.874-.579q-12.994.026-25.987,0a6.148,6.148,0,0,0-3.072.587,3.263,3.263,0,0,1-2.429-1.248,1.07,1.07,0,0,1-.179-.773c-.007-3.755-.072-7.511.015-11.263a11,11,0,0,1,8.482-10.115,30.3,30.3,0,0,1,6.383-.271.578.578,0,0,1,.424.182" transform="translate(-7.889 -19.022)" fill="#303030"/>
        <path id="Trazado_159304" data-name="Trazado 159304" d="M50.169,62.132a4.7,4.7,0,0,0,2.07-1.058.751.751,0,0,0,.232-.67c0-3.849.076-7.7-.032-11.546a10.063,10.063,0,0,0-2.559-6.293,10.562,10.562,0,0,0-7.261-3.774c-1.738-.174-3.507-.032-5.263-.033-.006-.067-.017-.134-.018-.2-.02-.885-.019-.9.838-.882a34.777,34.777,0,0,1,5.988.257,11.985,11.985,0,0,1,9.271,10.054,18.679,18.679,0,0,1,.114,2.153q0,17.16.012,34.319c0,.586-.106.8-.758.8q-18.712-.033-37.423,0c-.565,0-.762-.1-.761-.725q.033-17.564.02-35.13A11.9,11.9,0,0,1,24.885,37.8c1.841-.241,3.687-.058,5.529-.126.308-.012.469.081.438.415-.021.224-.017.449-.023.674-1.643,0-3.292-.09-4.927.015a10.533,10.533,0,0,0-6.317,2.514,10.813,10.813,0,0,0-3.653,6.11,8.394,8.394,0,0,0-.206,1.727c-.019,3.624.01,7.247-.027,10.871a1.414,1.414,0,0,0,.734,1.436,4.2,4.2,0,0,0,1.582.7c.064.313-.165.5-.327.7a3.127,3.127,0,0,0-.684,2q0,7.444,0,14.889a3.055,3.055,0,0,0,.744,2.043,2.157,2.157,0,0,1,.414.61,2.1,2.1,0,0,0,2.049,1.561c.225.019.45.011.676.011H47.3a7.056,7.056,0,0,0,.81-.021,2.02,2.02,0,0,0,1.913-1.54,2,2,0,0,1,.41-.613,3.116,3.116,0,0,0,.755-2.109q0-7.382,0-14.764a3.209,3.209,0,0,0-.728-2.12c-.153-.186-.348-.365-.287-.65" transform="translate(-7.069 -18.212)" fill="#121212"/>
        <path id="Trazado_159305" data-name="Trazado 159305" d="M96.078,100.409c.693-.02,1.574-.291,2.022.088.426.359.128,1.267.129,1.932.005,3.281-.011,6.562-.019,9.844a1.637,1.637,0,0,1-2.275-1.157,3.751,3.751,0,0,1-.074-.936q0-4.373,0-8.746a1.345,1.345,0,0,1,.214-1.024" transform="translate(-46.349 -48.495)" fill="#dc923c"/>
        <path id="Trazado_159306" data-name="Trazado 159306" d="M4.206,112.35q-.012-5.731-.03-11.462c0-.311.075-.445.411-.429.583.029,1.168.021,1.751.028a1.057,1.057,0,0,1,.214.822c.006,3.072.014,6.144,0,9.216a1.863,1.863,0,0,1-1.455,1.99.934.934,0,0,1-.887-.164" transform="translate(-2.019 -48.573)" fill="#dc923c"/>
        <path id="Trazado_159307" data-name="Trazado 159307" d="M95.258,100.5c0,3.257.05,6.515-.03,9.77-.034,1.362.7,2.285,2.162,2.093a3.234,3.234,0,0,1-2.642,3.208c-.437.091-.59,0-.586-.484.023-2.229.01-4.458.01-6.687v-6.89c0-1.066,0-1.066,1.086-1.011" transform="translate(-45.529 -48.583)" fill="#bc731c"/>
        <path id="Trazado_159308" data-name="Trazado 159308" d="M4.234,112.354c1.353.208,2.192-.615,2.159-2.093-.073-3.255-.025-6.513-.027-9.77a1.311,1.311,0,0,1,.134-.018c.952-.027.952-.027.952.894q0,6.754,0,13.509c0,.834,0,.836-.834.605a3.168,3.168,0,0,1-2.384-3.127" transform="translate(-2.047 -48.577)" fill="#bc731c"/>
        <path id="Trazado_159309" data-name="Trazado 159309" d="M50.176,39.745c0-.247-.014-.5,0-.743.032-.442-.213-1.109.1-1.277.528-.285,1.224-.08,1.85-.09.236,0,.208.189.209.341,0,1.215,0,2.431,0,3.646,0,.215-.054.351-.3.328a.911.911,0,0,0-.135,0c-1.729.086-1.729.086-1.729-1.6v-.608" transform="translate(-24.233 -18.167)" fill="#dc923c"/>
        <path id="Trazado_159310" data-name="Trazado 159310" d="M6.315,87.931c.044,0,.089-.012.134-.014.957-.027.957-.027.957.9,0,.986-.011,1.972.006,2.958.006.347-.109.479-.463.468a19.015,19.015,0,0,0-2.016.006c-.608.046-.881-.138-.771-.767a3,3,0,0,0,.022-.335.885.885,0,0,1,.285-.173,2.079,2.079,0,0,0,1.679-2.34.985.985,0,0,1,.168-.7" transform="translate(-2.001 -42.506)" fill="#0d0d0d"/>
        <path id="Trazado_159311" data-name="Trazado 159311" d="M97.39,91.122c0,.044.013.089.014.134.028.957.028.957-.9.957-.628,0-1.256-.016-1.882.005-.354.012-.468-.121-.463-.468.016-1.031.041-2.063-.008-3.092-.029-.607.139-.882.769-.771a2.885,2.885,0,0,0,.335.021,1.079,1.079,0,0,1,.167.769,2.054,2.054,0,0,0,1.616,2.251.946.946,0,0,1,.349.195" transform="translate(-45.524 -42.484)" fill="#0d0d0d"/>
        <path id="Trazado_159312" data-name="Trazado 159312" d="M6.334,87.927c0,.889.157,1.805-.579,2.538a2.073,2.073,0,0,1-1.553.676c-.007-.937,0-1.875-.025-2.812-.007-.314.092-.441.418-.427.579.024,1.159.018,1.74.024" transform="translate(-2.019 -42.502)" fill="#303030"/>
        <path id="Trazado_159313" data-name="Trazado 159313" d="M98.417,91.063a2.114,2.114,0,0,1-2.14-2.2c0-.337.005-.675.008-1.012.688-.013,1.559-.287,2.011.091.433.364.105,1.258.137,1.919.019.4-.009.8-.016,1.2" transform="translate(-46.551 -42.425)" fill="#303030"/>
        <path id="Trazado_159314" data-name="Trazado 159314" d="M20.037,104.662a4,4,0,0,1-1.233-3.215q.062-6.921,0-13.842a4,4,0,0,1,1.234-3.213,4.359,4.359,0,0,1,2.551-.687q13.594.026,27.188,0a4.14,4.14,0,0,1,2.415.686A3.987,3.987,0,0,1,53.427,87.6q-.062,6.921,0,13.842a4,4,0,0,1-1.233,3.215,1.306,1.306,0,0,1-.815.657,4.506,4.506,0,0,1-1.592.237q-13.666,0-27.333,0a4.3,4.3,0,0,1-1.527-.214,1.551,1.551,0,0,1-.89-.679" transform="translate(-9.092 -40.474)"/>
        <path id="Trazado_159315" data-name="Trazado 159315" d="M21.192,124.28a4.457,4.457,0,0,0,2.616.688q13.632-.029,27.263,0a3.892,3.892,0,0,0,2.277-.684,2.019,2.019,0,0,1-2.194,1.755c-1.846.01-3.693,0-5.539,0q-11.045,0-22.089,0a2.113,2.113,0,0,1-2.334-1.757" transform="translate(-10.247 -60.092)" fill="#303030"/>
        <path id="Trazado_159316" data-name="Trazado 159316" d="M35.963,98.157c.057,1.08.057,1.08,1.192,1.08,5.148,0,10.3.01,15.443-.014.569,0,.7.152.7.707-.037,2.742-.028,5.484-.035,8.227a1.311,1.311,0,0,1-.767.715,4.323,4.323,0,0,1-1.848.311q-12.5-.005-24.993,0a4.321,4.321,0,0,1-1.848-.311,1.313,1.313,0,0,1-.767-.716c-.007-2.832-.005-5.664-.03-8.5,0-.465.254-.421.556-.428.318-.006.559-.009.543.442-.032.875-.016,1.753-.007,2.629a1.1,1.1,0,0,0,1.233,1.255c.989.011,1.978.013,2.967,0a1.089,1.089,0,0,0,1.2-1.221c.017-1.393.018-2.786.025-4.18a3,3,0,0,1,2.085-.093.347.347,0,0,1,.184.265c.013.642.4.732.941.727.526,0,.941-.052.957-.708a.378.378,0,0,1,.176-.276,2.929,2.929,0,0,1,2.1.084" transform="translate(-11.124 -47.346)" fill="#c46532"/>
        <path id="Trazado_159317" data-name="Trazado 159317" d="M24.919,87.934c.855-.007,1.71-.02,2.565-.021q12.358,0,24.717,0c.27,0,.539.013.809.021a2.424,2.424,0,0,1-1.73,3.379,6.169,6.169,0,0,1-1.009.055q-11.306,0-22.611,0a6.175,6.175,0,0,1-1.01-.055,2.424,2.424,0,0,1-1.73-3.379" transform="translate(-11.94 -42.507)" fill="#f1a042"/>
        <path id="Trazado_159318" data-name="Trazado 159318" d="M24.1,87.954c0,.912-.152,1.851.63,2.587a2.129,2.129,0,0,0,1.508.633q11.907,0,23.815,0A2.113,2.113,0,0,0,52.2,89.033c.008-.359,0-.719-.005-1.079.774.121,1.073.433,1.085,1.18.013.832-.027,1.666.014,2.5.025.5-.111.647-.626.64-2.293-.03-4.586-.013-6.878-.013H37.153c-1.134,0-1.134,0-1.192,1.081H33.844c-.055-.038-.122-.083-.126-.146-.04-.684-.479-.7-1.04-.771-.785-.092-.791.509-1.04.917H29.52c-.23-.855-.5-1.078-1.364-1.08-1.53,0-3.061-.018-4.591.009-.445.007-.579-.125-.562-.566.033-.854,0-1.711.013-2.565.011-.748.309-1.06,1.085-1.182" transform="translate(-11.122 -42.528)" fill="#bc731c"/>
        <path id="Trazado_159319" data-name="Trazado 159319" d="M23.051,117.741a3.771,3.771,0,0,0,2.492.82q12.619-.026,25.239,0a3.777,3.777,0,0,0,2.492-.82c.007.224.025.449.02.673a1.09,1.09,0,0,1-1.205,1.214c-.854.013-1.709,0-2.563,0H24.842c-1.633,0-1.875-.256-1.792-1.891" transform="translate(-11.139 -56.93)" fill="#af582a"/>
        <path id="Trazado_159320" data-name="Trazado 159320" d="M30.369,101.565c0,.157-.012.314,0,.469.037.387-.026.6-.519.6s-.613-.181-.571-.624a5.217,5.217,0,0,0,0-1c-.043-.438.114-.578.557-.567.389.01.594.085.535.519a4.509,4.509,0,0,0,0,.6" transform="translate(-14.154 -48.566)" fill="#303030"/>
        <path id="Trazado_159321" data-name="Trazado 159321" d="M39.722,97.367c.058-1.082.058-1.082,1.17-1.082.979,0,.979,0,1.037,1.082-.057,1.08-.057,1.08-1.17,1.08-.979,0-.979,0-1.037-1.08" transform="translate(-19.206 -46.556)"/>
      </g>
    </g>
  </g>
</svg>
