<svg xmlns="http://www.w3.org/2000/svg" xmlns:xlink="http://www.w3.org/1999/xlink" width="105" height="105" viewBox="0 0 105 105">
  <defs>
    <clipPath id="clip-path">
      <rect id="Rectángulo_41962" data-name="Rectángulo 41962" width="66.259" height="66.012" fill="none"/>
    </clipPath>
  </defs>
  <g id="_100" data-name="100" transform="translate(-6913 4890)">
    <g id="Grupo_167983" data-name="Grupo 167983" transform="translate(993)">
      <circle id="Elipse_4900" data-name="Elipse 4900" cx="52.5" cy="52.5" r="52.5" transform="translate(5920 -4890)" fill="#a6bbff"/>
      <g id="Grupo_167972" data-name="Grupo 167972" transform="translate(5939 -4871)" clip-path="url(#clip-path)">
        <path id="Trazado_157531" data-name="Trazado 157531" d="M66.259,24.631v40.6c-.148.651-.588.785-1.2.784Q33.192,66,1.329,66C.262,66,0,65.742,0,64.666Q0,53.873,0,43.08q0-8.887,0-17.774c0-1.606.558-2.168,2.184-2.172,3.468-.008,6.937,0,10.406,0,.94,0,.965-.031.97-.988,0-.194-.011-.389,0-.582a.771.771,0,0,0-.631-.9,1.977,1.977,0,0,1-1.492-1.835,22.589,22.589,0,0,1,0-4.515,1.96,1.96,0,0,1,2.184-1.906c2.089-.019,4.179,0,6.269-.006.216,0,.431,0,.646-.008a.462.462,0,0,0,.514-.519c0-.194.007-.387.007-.582q0-4.362,0-8.725c0-.259-.006-.517.015-.775a1.81,1.81,0,0,1,1.9-1.784c2.65-.011,5.3,0,7.95,0Q37,0,43.079,0c1.489,0,2.17.667,2.177,2.172.015,3.059,0,6.119.005,9.178,0,1.029.018,1.045,1.047,1.047,2.068,0,4.137-.005,6.2,0a2.118,2.118,0,0,1,2.416,2.248,35.814,35.814,0,0,1,0,3.811,2.2,2.2,0,0,1-1.678,2.257.539.539,0,0,0-.463.474,8.621,8.621,0,0,0,0,1.548.373.373,0,0,0,.376.366,6.133,6.133,0,0,0,.71.023h9.759c.237,0,.474,0,.71,0,1.186.029,1.635.381,1.913,1.5" transform="translate(0 0)"/>
        <path id="Trazado_157532" data-name="Trazado 157532" d="M62.633,83.343c-1.076.01-2.152,0-3.227.04-.4.013-.509-.114-.5-.51.021-1.637.009-3.274.009-4.91q0-4.588,0-9.175a1.913,1.913,0,0,0-2.18-2.178q-8.949-.009-17.9,0a1.927,1.927,0,0,0-2.219,2.2c0,4.631-.01,9.261.012,13.892,0,.528-.117.693-.664.682-1.679-.036-3.36-.033-5.039,0-.491.009-.6-.128-.6-.609.019-4.673,0-9.347.021-14.021a1.145,1.145,0,0,0-.939-1.319,3.567,3.567,0,0,1,0-2.571c.722-.147.936-.613.935-1.315-.013-7.621,0-15.242-.024-22.862,0-.612.178-.732.75-.729,4.865.022,9.73.008,14.6.017.6,0,1.118-.092,1.354-.736a2.068,2.068,0,0,1,2.659,0c.223.607.7.736,1.288.735q5.483-.015,10.966,0c.235,0,.47.025.7.038a1.636,1.636,0,0,1,.209,1.118q.006,7.237,0,14.474,0,13.278,0,26.557a1.684,1.684,0,0,1-.209,1.18" transform="translate(-14.604 -19.408)" fill="#ecf3fe"/>
        <path id="Trazado_157533" data-name="Trazado 157533" d="M13.562,94.971q-4.617.016-9.234.036c-.245,0-.363-.066-.336-.326a3.712,3.712,0,0,0,0-.387q0-15.793-.015-31.587c0-.6.157-.73.733-.723,2.949.037,5.9.029,8.848.037a.86.86,0,0,1,.2.658c.011,1.158.014,2.316,0,3.474a.783.783,0,0,1-.217.648,34.4,34.4,0,0,0-5.776-.207,1.967,1.967,0,0,0-.828.1.722.722,0,0,0-.508.8.678.678,0,0,0,.641.618,3.913,3.913,0,0,0,.708.031c1.91-.033,3.823.092,5.731-.107a.764.764,0,0,1,.25.694q.023,1.861,0,3.721a.811.811,0,0,1-.234.7c-1.927-.182-3.859-.066-5.789-.1a2.932,2.932,0,0,0-.77.05.632.632,0,0,0-.545.557.708.708,0,0,0,.372.758,1.607,1.607,0,0,0,.81.18c1.527.009,3.054,0,4.58.008.463,0,.856-.3,1.32-.24a.61.61,0,0,1,.247.56c.023,1.407.033,2.814,0,4.221a.778.778,0,0,1-.106.365.23.23,0,0,1-.28.087c-2.039-.453-4.1-.126-6.156-.192a.678.678,0,0,0-.779.682c-.023.5.3.724.745.814a3.246,3.246,0,0,0,.642.035q1.514,0,3.028,0a8.448,8.448,0,0,0,2.675-.222.763.763,0,0,1,.244.7c.014,1.268.012,2.535,0,3.8a.851.851,0,0,1-.22.713,34.159,34.159,0,0,0-5.782-.208,1.815,1.815,0,0,0-.887.124.711.711,0,0,0-.441.783.671.671,0,0,0,.588.6,2.465,2.465,0,0,0,.514.04c1.594,0,3.188-.007,4.782.007.411,0,.8-.211,1.212-.105a.966.966,0,0,1,.24.833q.013,3.086,0,6.171a1.091,1.091,0,0,1-.206.788" transform="translate(-1.993 -31.037)" fill="#c2dcfe"/>
        <path id="Trazado_157534" data-name="Trazado 157534" d="M114.535,94.968c-2.994.011-5.988.018-8.981.038-.3,0-.378-.117-.351-.381a3.166,3.166,0,0,0,0-.323q0-15.8-.012-31.609c0-.535.081-.724.682-.714,2.886.046,5.773.032,8.659.04a.932.932,0,0,1,.2.718c.009,1.024.011,2.048,0,3.072a.893.893,0,0,1-.24.764,5.529,5.529,0,0,1-1.535.009c-1.376.025-2.753,0-4.129.013-.81.009-1.268.324-1.247.82.02.48.417.723,1.246.721,1.741,0,3.484.034,5.225-.022.192-.006.39-.043.545.121a1.626,1.626,0,0,1,.139.882c0,.991.012,1.982,0,2.972,0,.337.033.708-.362.895a9.964,9.964,0,0,1-1.99.067c-1.288.017-2.577-.012-3.865.013-.575.011-.957.285-.941.674.022.522.4.718.853.818a2.958,2.958,0,0,0,.706.046c1.653-.029,3.307.072,4.958-.062a.714.714,0,0,1,.377.062.767.767,0,0,1,.26.695q.024,1.709,0,3.419a.77.77,0,0,1-.228.646c-.9.1-1.8,0-2.7.023-.99.022-1.98,0-2.97.006a2.276,2.276,0,0,0-.7.07.7.7,0,0,0-.54.651.727.727,0,0,0,.514.741,2.17,2.17,0,0,0,.83.084c1.742-.021,3.486.056,5.228-.045a.682.682,0,0,1,.316.054.773.773,0,0,1,.256.7c.016,1.119.014,2.238,0,3.356a.831.831,0,0,1-.238.707,4.433,4.433,0,0,1-1.407.01c-1.421.022-2.842,0-4.263.012-.81.009-1.267.328-1.241.826.024.48.419.718,1.253.715,1.743-.005,3.487.035,5.23-.023.192-.006.392-.041.54.134a1.415,1.415,0,0,1,.134.751q.007,2.99,0,5.981a1.173,1.173,0,0,1-.208.853" transform="translate(-52.673 -31.034)" fill="#c2dcfe"/>
        <path id="Trazado_157535" data-name="Trazado 157535" d="M58.334,21.931c-.119-.112-.206-.255-.411-.251q-.918.017-1.836,0c-.205,0-.293.138-.412.25-.033-.934-.306-1.2-1.269-1.206-2.453-.006-4.906-.018-7.359.011-.5.006-.592-.147-.591-.614q.026-7.682.006-15.364c0-.351-.014-.576.483-.574,5.444.021,10.888.013,16.332.015a2.114,2.114,0,0,1,.255.03,1.182,1.182,0,0,1,.208.857q.006,7.364,0,14.729c0,.862-.053.889-.921.9-1.269.014-2.539-.046-3.807.034a1.048,1.048,0,0,0-.678,1.184" transform="translate(-23.262 -2.095)" fill="#f9f4db"/>
        <path id="Trazado_157536" data-name="Trazado 157536" d="M56.2,105.8c0,2.3-.01,4.608.009,6.912,0,.413-.1.546-.53.542q-3.617-.032-7.235,0c-.408,0-.5-.115-.495-.505q.02-6.912,0-13.823c0-.451.157-.52.552-.517q3.617.024,7.235,0c.368,0,.491.046.484.479-.035,2.3-.016,4.607-.016,6.911Z" transform="translate(-24.007 -49.274)" fill="#f8f6f7"/>
        <path id="Trazado_157537" data-name="Trazado 157537" d="M68.33,105.73c0-2.325.011-4.65-.013-6.975,0-.326.11-.346.357-.346,2.5,0,4.995.015,7.492-.008.515,0,.409.3.409.584q0,5.425,0,10.851c0,.991-.013,1.981.007,2.971.007.332-.078.441-.426.439-2.454-.014-4.909-.02-7.363,0-.461,0-.461-.209-.459-.545.008-2.325,0-4.65,0-6.975H68.33" transform="translate(-34.208 -49.272)" fill="#f8f6f7"/>
        <path id="Trazado_157538" data-name="Trazado 157538" d="M96.2,84.559q0-21.665,0-43.33c.731-.012,1.462-.019,2.192-.041.276-.008.4.094.371.375-.012.128,0,.259,0,.388q0,20.943.015,41.885c0,.627-.147.833-.773.766-.6-.064-1.2-.033-1.8-.043" transform="translate(-48.169 -20.623)" fill="#dae9fe"/>
        <path id="Trazado_157539" data-name="Trazado 157539" d="M123.5,85.68c.039-.049.111-.1.113-.148.041-1.474.075-2.949-.016-4.423,0-.033-.053-.064-.081-.1a2.241,2.241,0,0,0,.022-1.683,3.044,3.044,0,0,0,.1-1.384c.026-.877.012-1.756,0-2.634,0-.225.081-.48-.158-.652a1.607,1.607,0,0,0-.092-1.789c.314-.052.252-.3.252-.5q0-2.092-.009-4.184a2.568,2.568,0,0,0-.136-1.637c.228-.179.143-.434.144-.659.007-1.286,0-2.572,0-3.859.688-.007,1.377,0,2.065-.029.307-.012.44.081.4.4a2.315,2.315,0,0,0,0,.323q0,15.789.014,31.578c0,.59-.145.785-.732.726s-1.159-.032-1.739-.043q-.006-3.831-.012-7.662a2.567,2.567,0,0,0-.133-1.636" transform="translate(-61.788 -31.044)" fill="#a3cbfe"/>
        <path id="Trazado_157540" data-name="Trazado 157540" d="M23.031,94.971c0-2.345,0-4.691,0-7.036,0-.245.1-.522-.136-.729.024-.428.018-.857.039-1.285a1.662,1.662,0,0,0,.093-1,35.694,35.694,0,0,0-.08-4.166,2.472,2.472,0,0,1,.068-1.117q.01-2.4.019-4.8a.485.485,0,0,0-.114-.415,9.436,9.436,0,0,0-.015-1.291c.043-.094.122-.187.122-.281q.01-2.248,0-4.5c0-.092-.085-.184-.13-.276.021-.428.02-.857.036-1.285a2.649,2.649,0,0,0,.1-1.252c.018-1.171.005-2.342,0-3.513.558-.008,1.118.014,1.673-.032.461-.038.562.124.56.568-.02,3.2-.01,6.4-.01,9.6,0,1.01,0,2.019,0,3.029,0,.848.2,1.095,1.012,1.31q0,1.286,0,2.571c-.843.254-1.009.476-1.01,1.386,0,4.64-.008,9.281.01,13.921,0,.49-.1.693-.625.639s-1.071-.031-1.607-.042" transform="translate(-11.462 -31.036)" fill="#a3cbfe"/>
        <path id="Trazado_157541" data-name="Trazado 157541" d="M71.6,20.756a6.117,6.117,0,0,1,1.907-.1,17.487,17.487,0,0,1,1.935,0c.531.035.7-.133.692-.678-.022-4.087-.012-8.173-.012-12.259V4.238c.837-.01,1.676-.015,2.513-.036.247-.006.362.069.333.327a2.894,2.894,0,0,0,0,.323c0,5.076-.009,10.152.013,15.228,0,.542-.136.672-.671.666-2.236-.024-4.473,0-6.709.011" transform="translate(-35.853 -2.104)" fill="#f4eacc"/>
        <path id="Trazado_157542" data-name="Trazado 157542" d="M4.025,54.235c-.007-1.077,0-2.154-.027-3.23-.007-.309.083-.4.4-.4,3.059.018,6.118.021,9.177.029a.584.584,0,0,1,.182.4,26.4,26.4,0,0,1,0,2.768.46.46,0,0,1-.529.5c-3.007-.011-6.014,0-9.021-.007a.446.446,0,0,1-.18-.062" transform="translate(-2.002 -25.34)" fill="#dfdee0"/>
        <path id="Trazado_157543" data-name="Trazado 157543" d="M105.238,54.239c-.009-1.094-.009-2.189-.034-3.283-.007-.306.127-.346.383-.345q4.476.021,8.953.027a.641.641,0,0,1,.192.466q.053,1.321,0,2.644c-.013.332-.125.561-.539.559-2.925-.012-5.849,0-8.773-.008a.456.456,0,0,1-.181-.06" transform="translate(-52.678 -25.342)" fill="#dfdee0"/>
        <path id="Trazado_157544" data-name="Trazado 157544" d="M30.974,33.176c-1.118,0-2.237-.012-3.355.007-.36.006-.491-.1-.484-.472q.032-1.613,0-3.226c-.006-.354.132-.43.454-.428q3.42.016,6.84,0c.339,0,.438.092.432.432-.02,1.075-.022,2.151,0,3.226.008.367-.1.478-.468.471-1.14-.022-2.28-.008-3.42-.008" transform="translate(-13.587 -14.548)" fill="#dfdee0"/>
        <path id="Trazado_157545" data-name="Trazado 157545" d="M94.034,29.1c1.183-.011,2.367-.014,3.55-.037.3-.006.416.093.412.405-.014,1.1-.012,2.2,0,3.3,0,.294-.079.425-.4.424-2.369-.008-4.738,0-7.107,0-.053,0-.107-.052-.161-.079.244-.239.557-.19.852-.2.6-.012,1.2,0,1.8,0,.808-.006.843-.039.85-.825.007-.729,0-1.459,0-2.188a1.11,1.11,0,0,1,.2-.791" transform="translate(-45.229 -14.551)" fill="#d1cdd0"/>
        <path id="Trazado_157546" data-name="Trazado 157546" d="M93.987,29.1v3.149c0,.846,0,.845-.816.847L90.28,33.1c-.014-1.242-.022-2.484-.047-3.726,0-.271.114-.318.346-.315,1.136.018,2.272.025,3.408.035" transform="translate(-45.182 -14.552)" fill="#dfdee0"/>
        <path id="Trazado_157547" data-name="Trazado 157547" d="M105.273,54.236c2.883,0,5.765-.009,8.648.01.49,0,.689-.109.667-.642-.042-.988-.013-1.979-.013-2.968.689-.008,1.378,0,2.066-.029.31-.012.405.086.4.4-.018.991-.011,1.982,0,2.972,0,.248-.024.392-.339.392q-5.621-.013-11.242,0c-.093,0-.166-.023-.182-.129" transform="translate(-52.713 -25.339)" fill="#d2ced1"/>
        <path id="Trazado_157548" data-name="Trazado 157548" d="M4.053,54.235c2.966,0,5.931-.009,8.9.012.5,0,.683-.121.662-.647-.041-.987-.012-1.976-.013-2.965.623-.007,1.246,0,1.868-.028.29-.011.362.1.359.372-.012,1.01-.009,2.021,0,3.031,0,.225-.032.356-.311.355q-5.675-.012-11.349-.013c-.036,0-.073-.077-.11-.118" transform="translate(-2.029 -25.34)" fill="#d2ced1"/>
        <path id="Trazado_157549" data-name="Trazado 157549" d="M80.885,67.425c.71,0,1.421-.008,2.131,0a1.373,1.373,0,0,1,1.489,1.488c.015,1.292.017,2.584,0,3.875a1.361,1.361,0,0,1-1.4,1.457q-2.227.052-4.456,0a1.34,1.34,0,0,1-1.38-1.464c-.012-1.313-.015-2.627,0-3.939a1.344,1.344,0,0,1,1.419-1.417c.043,0,.086,0,.129,0h2.067" transform="translate(-38.685 -33.76)"/>
        <path id="Trazado_157550" data-name="Trazado 157550" d="M44.652,56.438c-.711,0-1.422.011-2.132,0a1.381,1.381,0,0,1-1.468-1.452q-.028-1.97,0-3.941A1.377,1.377,0,0,1,42.529,49.6q2.132-.021,4.264,0a1.367,1.367,0,0,1,1.493,1.484q.018,1.938,0,3.877a1.372,1.372,0,0,1-1.5,1.476c-.711.011-1.421,0-2.132,0" transform="translate(-20.548 -24.83)"/>
        <path id="Trazado_157551" data-name="Trazado 157551" d="M62.765,56.439c-.689,0-1.379.007-2.068,0a1.39,1.39,0,0,1-1.534-1.513q-.014-1.906,0-3.812A1.386,1.386,0,0,1,60.7,49.6q2.1-.015,4.2,0a1.377,1.377,0,0,1,1.5,1.48q.019,1.938,0,3.877a1.382,1.382,0,0,1-1.5,1.481c-.711.011-1.421,0-2.132,0" transform="translate(-29.621 -24.831)"/>
        <path id="Trazado_157552" data-name="Trazado 157552" d="M44.672,74.258c-.689,0-1.378.012-2.067,0a1.42,1.42,0,0,1-1.553-1.573c-.009-1.249-.012-2.5,0-3.746a1.378,1.378,0,0,1,1.53-1.511q2.1-.013,4.2,0a1.359,1.359,0,0,1,1.51,1.521q.015,1.873,0,3.747a1.405,1.405,0,0,1-1.553,1.562c-.689.014-1.378,0-2.067,0" transform="translate(-20.552 -33.758)"/>
        <path id="Trazado_157553" data-name="Trazado 157553" d="M80.9,49.6c.71,0,1.421-.011,2.132,0A1.384,1.384,0,0,1,84.5,51.047q.03,1.97,0,3.941a1.379,1.379,0,0,1-1.472,1.448q-2.132.021-4.264,0a1.366,1.366,0,0,1-1.5-1.479q-.019-1.938,0-3.876a1.371,1.371,0,0,1,1.5-1.483c.71-.012,1.421,0,2.132,0" transform="translate(-38.686 -24.832)"/>
        <path id="Trazado_157554" data-name="Trazado 157554" d="M62.761,74.257c-.668,0-1.335.009-2,0a1.422,1.422,0,0,1-1.6-1.589c-.005-1.249-.008-2.5,0-3.746a1.355,1.355,0,0,1,1.474-1.5q2.164-.017,4.328,0A1.34,1.34,0,0,1,66.4,68.831q.028,2,0,4a1.388,1.388,0,0,1-1.44,1.42c-.043,0-.086,0-.129,0H62.761" transform="translate(-29.622 -33.757)"/>
        <path id="Trazado_157555" data-name="Trazado 157555" d="M15.717,96.886A1.21,1.21,0,0,1,15.648,98a1.349,1.349,0,0,1-1.053.388c-1.68-.012-3.361,0-5.041-.006-.8,0-1.243-.363-1.233-.992.01-.609.428-.943,1.2-.945,1.681,0,3.361.01,5.041-.008a1.392,1.392,0,0,1,1.15.447" transform="translate(-4.167 -48.289)"/>
        <path id="Trazado_157556" data-name="Trazado 157556" d="M15.634,71.233a1.117,1.117,0,0,1-.036,1.286,1.44,1.44,0,0,1-.958.294c-1.721-.011-3.442,0-5.163-.007-.736,0-1.135-.331-1.153-.923-.018-.616.4-1.007,1.148-1.011,1.721-.01,3.442,0,5.163-.007a1.422,1.422,0,0,1,1,.368" transform="translate(-4.168 -35.484)" fill="#000101"/>
        <path id="Trazado_157557" data-name="Trazado 157557" d="M15.608,84a1.12,1.12,0,0,1,.014,1.291,1.4,1.4,0,0,1-.942.346c-1.741-.005-3.483.006-5.224-.007-.719,0-1.122-.369-1.132-.961a.892.892,0,0,1,.913-.959c1.892-.021,3.784-.006,5.676-.007a1.224,1.224,0,0,1,.695.3" transform="translate(-4.168 -41.908)" fill="#010101"/>
        <path id="Trazado_157558" data-name="Trazado 157558" d="M15.636,109.558a1.118,1.118,0,0,1-.039,1.285,1.472,1.472,0,0,1-.959.295c-1.721-.011-3.442,0-5.163-.007-.734,0-1.134-.337-1.15-.928-.017-.616.408-1,1.15-1.007,1.721-.008,3.442,0,5.163-.007a1.407,1.407,0,0,1,1,.369" transform="translate(-4.168 -54.673)" fill="#000101"/>
        <path id="Trazado_157559" data-name="Trazado 157559" d="M116.569,96.58c.564.66.559,1.037-.022,1.683a2.485,2.485,0,0,1-.755.131c-1.7-.008-3.4,0-5.1-.005-.75,0-1.2-.364-1.219-.953-.015-.611.448-.982,1.243-.984,1.68,0,3.359,0,5.039,0a2.08,2.08,0,0,1,.818.132" transform="translate(-54.814 -48.294)"/>
        <path id="Trazado_157560" data-name="Trazado 157560" d="M116.529,70.987a1.063,1.063,0,0,1,.136,1.637,1.846,1.846,0,0,1-.867.189c-1.717-.008-3.435,0-5.152-.006-.738,0-1.192-.388-1.177-.975a1.02,1.02,0,0,1,1.149-.959q2.608-.016,5.216,0a4.446,4.446,0,0,1,.693.112" transform="translate(-54.814 -35.484)" fill="#000101"/>
        <path id="Trazado_157561" data-name="Trazado 157561" d="M116.424,83.735c.731.616.756,1.1.092,1.789a6.448,6.448,0,0,1-1.8.1q-2,.013-4,0c-.786,0-1.259-.387-1.25-.991.008-.585.455-.947,1.213-.944,1.914.007,3.827.027,5.74.041" transform="translate(-54.815 -41.908)" fill="#010101"/>
        <path id="Trazado_157562" data-name="Trazado 157562" d="M116.531,109.311a1.062,1.062,0,0,1,.133,1.636,1.847,1.847,0,0,1-.866.191c-1.718-.007-3.436,0-5.153-.005-.737,0-1.191-.392-1.175-.98.016-.569.456-.951,1.151-.955q2.608-.013,5.217,0a4.438,4.438,0,0,1,.692.11" transform="translate(-54.814 -54.675)" fill="#000101"/>
        <path id="Trazado_157563" data-name="Trazado 157563" d="M60.076,8.139h.71a2.2,2.2,0,0,1,2.391,2.353c.009.847.009.847.841.857a2.213,2.213,0,0,1,2.377,2.374q.008.71,0,1.42a2.181,2.181,0,0,1-2.376,2.366c-.71-.021-.888.161-.862.866a2.147,2.147,0,0,1-2.3,2.355q-.774.013-1.549,0A2.148,2.148,0,0,1,57,18.377c.024-.7-.143-.89-.859-.869a2.177,2.177,0,0,1-2.375-2.364c-.005-.495-.008-.99,0-1.485a2.2,2.2,0,0,1,2.309-2.31c.9-.017.9-.017.905-.856a2.2,2.2,0,0,1,2.389-2.355h.71" transform="translate(-26.918 -4.075)"/>
        <path id="Trazado_157564" data-name="Trazado 157564" d="M57.765,112.376c0,.43.016.86,0,1.289a.959.959,0,0,1-1.916.051c-.037-.9-.038-1.806,0-2.707a.96.96,0,0,1,1.919.077c.016.429,0,.859,0,1.289" transform="translate(-27.948 -55.125)" fill="#010101"/>
        <path id="Trazado_157565" data-name="Trazado 157565" d="M73.108,112.269c0-.43-.01-.86,0-1.29a.956.956,0,0,1,1.906-.091,27.827,27.827,0,0,1,0,2.835.955.955,0,0,1-1.9-.1c-.013-.451,0-.9,0-1.355" transform="translate(-36.605 -55.093)" fill="#010101"/>
        <path id="Trazado_157566" data-name="Trazado 157566" d="M82.777,71.233c.532.024,1.231-.147,1.552.126.34.29.094,1.01.1,1.541.016,1.314,0,1.318-1.35,1.312-.642,0-1.5.221-1.87-.1-.428-.372-.119-1.25-.136-1.907-.023-.945-.006-.946.927-.946h.775v-.023" transform="translate(-40.55 -35.652)" fill="#f7f5f6"/>
        <path id="Trazado_157567" data-name="Trazado 157567" d="M46.588,56.4c-.554,0-1.279.213-1.614-.058-.355-.288-.1-1.044-.107-1.594-.016-1.267-.005-1.267,1.251-1.267.558,0,1.117.015,1.675-.006.318-.012.458.057.444.416-.028.729-.018,1.46,0,2.19.005.271-.064.386-.356.37-.428-.022-.858-.005-1.288-.005V56.4" transform="translate(-22.425 -26.774)" fill="#f8f6f7"/>
        <path id="Trazado_157568" data-name="Trazado 157568" d="M64.638,56.4c-.532,0-1.252.21-1.549-.054-.353-.315-.1-1.047-.109-1.6-.016-1.271-.005-1.271,1.244-1.271.559,0,1.118.016,1.676-.006.315-.012.462.046.447.411-.03.708-.023,1.418,0,2.126.009.322-.059.468-.418.44-.427-.032-.859-.007-1.289-.007V56.4" transform="translate(-31.496 -26.774)" fill="#f8f6f7"/>
        <path id="Trazado_157569" data-name="Trazado 157569" d="M46.648,71.233c.532.025,1.233-.144,1.549.13.335.29.091,1.01.1,1.542.014,1.311,0,1.311-1.287,1.311-.56,0-1.12-.015-1.679.006-.313.011-.409-.1-.4-.407q.028-1.1,0-2.195c-.006-.282.082-.379.364-.366.451.019.9,0,1.356,0v-.025" transform="translate(-22.496 -35.654)" fill="#f7f5f6"/>
        <path id="Trazado_157570" data-name="Trazado 157570" d="M82.632,56.361c-.431-.056-1.132.236-1.44-.112-.26-.293-.086-.978-.088-1.489-.005-1.364,0-1.376,1.348-1.359.658.008,1.534-.284,1.909.123.326.353.1,1.22.106,1.86.007.977,0,.977-.964.977h-.87" transform="translate(-40.583 -26.692)" fill="#f8f6f7"/>
        <path id="Trazado_157571" data-name="Trazado 157571" d="M64.864,71.246c.432.051,1.156-.237,1.439.106.268.325.095,1.023.1,1.556.006,1.3,0,1.3-1.3,1.3-.538,0-1.077-.017-1.615.006-.325.014-.464-.063-.45-.422.026-.709.028-1.421,0-2.131-.014-.358.119-.436.443-.417.429.025.861.006,1.389.006" transform="translate(-31.561 -35.642)" fill="#f8f6f7"/>
        <path id="Trazado_157572" data-name="Trazado 157572" d="M62,20.733c-1.324-.007-1.128.111-1.133-1.134-.008-2.062,0-2.062-2.038-2.062-1.346,0-1.178.082-1.178-1.173,0-1.274-.14-1.128,1.14-1.131,2.024,0,2.067-.049,2.075-2.04.005-1.334-.175-1.169,1.157-1.169s1.157-.168,1.162,1.166c.007,2,.044,2.039,2.068,2.044,1.287,0,1.143-.142,1.152,1.122a3.677,3.677,0,0,0,0,.451c.074.561-.15.788-.723.739a12.248,12.248,0,0,0-1.354,0c-.808.021-1.129.345-1.141,1.141a11,11,0,0,0,.006,1.29c.061.587-.135.855-.745.764a3.163,3.163,0,0,0-.451,0" transform="translate(-28.862 -6.017)" fill="#f27b7b"/>
      </g>
    </g>
  </g>
</svg>
