<svg xmlns="http://www.w3.org/2000/svg" xmlns:xlink="http://www.w3.org/1999/xlink" width="105" height="105" viewBox="0 0 105 105">
  <defs>
    <clipPath id="clip-path">
      <rect id="Rectángulo_41963" data-name="Rectángulo 41963" width="72.275" height="72.279" fill="none"/>
    </clipPath>
  </defs>
  <g id="_101" data-name="101" transform="translate(-7239 4890)">
    <g id="Grupo_167984" data-name="Grupo 167984" transform="translate(982)">
      <circle id="Elipse_4901" data-name="Elipse 4901" cx="52.5" cy="52.5" r="52.5" transform="translate(6257 -4890)" fill="#a6bbff"/>
      <g id="Grupo_167976" data-name="Grupo 167976" transform="translate(6273 -4874)">
        <g id="Grupo_167975" data-name="Grupo 167975" transform="translate(0 0)" clip-path="url(#clip-path)">
          <path id="Trazado_157573" data-name="Trazado 157573" d="M.048,51.242V.776A.943.943,0,0,1,1.132,0c.188.006.376,0,.564,0H70.549c.211,0,.423-.008.634,0,.765.039,1.055.324,1.1,1.08.011.187,0,.376,0,.564V50.42c0,1.414-.316,1.744-1.739,1.75q-3.981.017-7.963,0c-1.4-.007-1.891-.479-1.859-1.868a33.437,33.437,0,0,1,.34-3.857c.138-1,.111-1.035-.908-1.036q-11.453,0-22.9,0H12.3c-1.259,0-1.251,0-1.092,1.249a30.89,30.89,0,0,1,.33,3.717c.007,1.3-.485,1.787-1.795,1.794-2.725.015-5.45.008-8.175,0-.7,0-1.325-.115-1.525-.93" transform="translate(-0.015 0)"/>
          <path id="Trazado_157574" data-name="Trazado 157574" d="M71.512,93.042H.753a.875.875,0,0,1-.7-.7V83.879a2.625,2.625,0,0,1,2.5-2.27c.552-.074.682-.325.7-.827a5.857,5.857,0,0,1,6.18-5.988c.512,0,1.108.194,1.514-.119s.158-.93.216-1.408a5.88,5.88,0,0,1,5.858-5.231c2.16-.013,4.32.014,6.48-.008a5.917,5.917,0,0,1,4.23,1.62c.4.37.639.376,1.041,0a5.97,5.97,0,0,1,4.3-1.626q3.1.046,6.2,0a5.949,5.949,0,0,1,4.236,1.607c.387.355.63.411,1.044.026a5.964,5.964,0,0,1,4.3-1.633c2.113.028,4.226,0,6.339.008a5.851,5.851,0,0,1,5.968,5.849c.019.881.045.923.917.912a7.506,7.506,0,0,1,3.769.656,5.771,5.771,0,0,1,3.2,5.106c.051.894.026.9.9,1.073a2.7,2.7,0,0,1,2.358,2.795c.019,2.489,0,4.978.01,7.466,0,.579-.157,1.012-.778,1.151" transform="translate(-0.015 -20.796)"/>
          <path id="Trazado_157575" data-name="Trazado 157575" d="M.033,103.042l.7.7q-.895.19-.7-.7" transform="translate(0 -31.501)" fill="#f7f7f7"/>
          <path id="Trazado_157576" data-name="Trazado 157576" d="M63.391,46.321c-.187.008-.375.024-.562.024H16.316c-.187,0-.375-.016-.562-.024a4.388,4.388,0,0,1-.662-1.31,11.715,11.715,0,0,0-2.4-3.364,4.7,4.7,0,0,1-.884-5.454,5.151,5.151,0,0,1,.938-1.135,35.617,35.617,0,0,0,4.886-5.531,34.888,34.888,0,0,0,5.119-13.244,14.818,14.818,0,0,1,.412-1.855A4.521,4.521,0,0,1,27.556,11.2c4.321-.014,8.642,0,12.963,0q5.389,0,10.779,0a4.577,4.577,0,0,1,4.845,3.844c.41,1.808.7,3.642,1.222,5.427a31,31,0,0,0,5.981,11.472,29.856,29.856,0,0,0,3.12,3.152,4.516,4.516,0,0,1,.218,6.286,13.885,13.885,0,0,0-3.078,4.668.813.813,0,0,1-.215.276" transform="translate(-3.454 -3.422)" fill="#97dde9"/>
          <path id="Trazado_157577" data-name="Trazado 157577" d="M61.531,45.3a10.2,10.2,0,0,1,2.424-4.293,14.067,14.067,0,0,0,1.161-1.315,4.479,4.479,0,0,0-.57-5.422,29.458,29.458,0,0,1-5.615-6.53,35.054,35.054,0,0,1-4.3-11c-.21-.98-.355-1.975-.59-2.949a4.379,4.379,0,0,0-4.4-3.429c-7.842,0-15.685.035-23.527-.021a4.6,4.6,0,0,0-4.884,4.063,39.218,39.218,0,0,1-2.28,8.44,29.946,29.946,0,0,1-4.542,7.8,31.859,31.859,0,0,1-3.534,3.623,4.4,4.4,0,0,0,0,6.131,12.184,12.184,0,0,1,2.679,3.836,2.875,2.875,0,0,1,.335,1.064,5.281,5.281,0,0,1-1.947-.033c-.548-.231-.521-1.073-.78-1.632a13,13,0,0,0-5.951-6.259A2.48,2.48,0,0,1,6,36.78c5.961-4.1,9.616-9.821,11.684-16.649A45.748,45.748,0,0,0,19.518,9.84c.038-.581.283-.609.738-.608q12.5.016,25,.007c.973,0,1.249-.212,1.5-1.123a2.5,2.5,0,0,1,2.215,0c.24.889.525,1.119,1.426,1.122,1.6,0,3.193.028,4.788-.013.564-.015.682.171.724.7A42.026,42.026,0,0,0,60.3,26.448a28.119,28.119,0,0,0,9.6,10.644c.1.063.187.134.344.249a16.7,16.7,0,0,0-2.287,1.493,12.694,12.694,0,0,0-4.143,5.988c-.122.368-.255.548-.67.514-.537-.045-1.078-.026-1.617-.034" transform="translate(-1.594 -2.402)" fill="#81cfd7"/>
          <path id="Trazado_157578" data-name="Trazado 157578" d="M94.859,11.373q.011,4.9.022,9.792.006,5.812,0,11.636c-.241,0-.219-.2-.281-.323a27.164,27.164,0,0,1-2.68-10.491c-.1-1.262-.272-2.519-.415-3.778-.091-.8-.594-1.273-1.27-1.189a1.135,1.135,0,0,0-.972,1.387c.528,4.014.6,8.1,1.961,11.981.08.144.088.291-.109.308-.169.015-.3-.118-.422-.229a27.576,27.576,0,0,1-8-12.213c-.027-.085,0-.186-.078-.259a30.507,30.507,0,0,1-1.008-6.156c-.149-.43.066-.61.458-.667a4.357,4.357,0,0,1,.631-.031q5.546,0,11.091,0a1.394,1.394,0,0,1,1.067.229" transform="translate(-24.935 -3.405)" fill="#f86464"/>
          <path id="Trazado_157579" data-name="Trazado 157579" d="M48.373,6.732H46.158C45.914,5.8,45.647,5.6,44.6,5.6q-20.217,0-40.435.019c-.761,0-.922-.221-.893-.927.056-1.346.016-1.348,1.367-1.348q32.721,0,65.442-.015c.687,0,.922.128.886.864C70.9,5.6,70.947,5.6,69.514,5.6q-9.827,0-19.654,0c-.972,0-1.252.219-1.487,1.132" transform="translate(-0.999 -1.018)" fill="#8d959a"/>
          <path id="Trazado_157580" data-name="Trazado 157580" d="M16.959,11.833A36.746,36.746,0,0,1,13,26.172a19.024,19.024,0,0,1-4.552,4.485,2.029,2.029,0,0,1-.9.371c-.162.023-.4.089-.354-.235,1.5-3.983,1.569-8.213,2.112-12.36a1.142,1.142,0,0,0-1.014-1.416c-.673-.056-1.121.414-1.231,1.235-.39,2.926-.51,5.885-1.122,8.781A11,11,0,0,1,5.11,29.7c-.408-.053-.414-.4-.476-.683a4.557,4.557,0,0,1-.047-.983q0-7.68,0-15.358c0-.141,0-.282,0-.423.028-.939.18-1.106,1.128-1.109,3.452-.012,6.9-.016,10.356.008.414,0,1.047-.133.886.682" transform="translate(-1.401 -3.404)" fill="#f86464"/>
          <path id="Trazado_157581" data-name="Trazado 157581" d="M16.56,11.432c0-.355-.173-.471-.528-.471q-5.555.017-11.11,0c-.417,0-.509.179-.508.552q.01,8.439.006,16.877a1.3,1.3,0,0,0,.291.908A14.185,14.185,0,0,1,3.29,32.4v-.528c0-7.11.008-14.22-.015-21.329,0-.6.164-.726.738-.721,3.965.026,7.931.034,11.9,0,.713-.007.916.2.772.856-.054.248.022.519-.121.755" transform="translate(-1.001 -3.002)" fill="#e95050"/>
          <path id="Trazado_157582" data-name="Trazado 157582" d="M83.082,21.014c.673,1.357,1.157,2.8,1.846,4.15a29.22,29.22,0,0,0,6.408,8.258c.1.092.254.4.351-.015l2.2,5.043a16.985,16.985,0,0,1-2.427-1.962,29.868,29.868,0,0,1-8.377-15.264.919.919,0,0,1,0-.21" transform="translate(-25.397 -6.424)" fill="#e95050"/>
          <path id="Trazado_157583" data-name="Trazado 157583" d="M9.9,66.21c.131,1.13.131,1.13-1.021,1.13q-2.532,0-5.063,0c-.237,0-.528.1-.528-.34.009-3.085,0-6.169.062-9.268A9.232,9.232,0,0,1,4.53,60.3a7.156,7.156,0,0,0,.754,3.773c.08.314.169.626.238.942.258,1.188.905,1.479,1.981.884a7.6,7.6,0,0,1,2.4.31" transform="translate(-1.006 -17.648)" fill="#e95050"/>
          <path id="Trazado_157584" data-name="Trazado 157584" d="M10.628,65.315a4.806,4.806,0,0,1-2.4-.31,1.656,1.656,0,0,0,.21-1.4c-.287-1.277-.523-2.566-.765-3.853A13.628,13.628,0,0,0,6.248,55.96c-.191-.365-.372-.735-.585-1.157,2.413.629,4.972,6.135,4.965,10.512" transform="translate(-1.731 -16.754)" fill="#f86363"/>
          <path id="Trazado_157585" data-name="Trazado 157585" d="M97.777,66.693a.6.6,0,0,1,.01.069c.042,1.061.042,1.061-.986,1.061-1.618,0-3.236-.031-4.852.015-.674.019-.9-.076-.825-.855a21.736,21.736,0,0,1,1.464-6.692,3.18,3.18,0,0,1,.534-.978c.217.2.133.442.066.652a5.926,5.926,0,0,0,.238,4.616,2.926,2.926,0,0,1-.055.484,1.164,1.164,0,0,0,2,1.162,17.4,17.4,0,0,1,2.407.467" transform="translate(-27.854 -18.133)" fill="#e95050"/>
          <path id="Trazado_157586" data-name="Trazado 157586" d="M94.79,10.978l-12.512,0c-.344,0-.746-.09-.736.469-.375-1.584-.366-1.6,1.212-1.6H93.742c1.107,0,1.107,0,1.048,1.13" transform="translate(-24.866 -3.011)" fill="#e95050"/>
          <path id="Trazado_157587" data-name="Trazado 157587" d="M99.653,66.127a3.8,3.8,0,0,1-2.407-.467c.455-1.555.681-3.158,1.007-4.74a12.567,12.567,0,0,1,1.4-3.46Z" transform="translate(-29.729 -17.567)" fill="#f86464"/>
          <path id="Trazado_157588" data-name="Trazado 157588" d="M7.439,37.414c.6.254,1-.166,1.409-.456a32.011,32.011,0,0,0,4.4-4.164A25.013,25.013,0,0,1,7.3,40.56a11.263,11.263,0,0,1-1.907,1.476l2.05-4.621" transform="translate(-1.647 -10.026)" fill="#e95050"/>
          <path id="Trazado_157589" data-name="Trazado 157589" d="M94.087,63.167a3.48,3.48,0,0,1-.777-2.9c.091-.8.31-1.579.472-2.368a8.973,8.973,0,0,1,2.838-3.213l.169.117c-.147.3-.271.619-.444.905-1.287,2.131-1.648,4.541-2.113,6.921-.035.182-.1.359-.145.538" transform="translate(-28.514 -16.718)" fill="#f76363"/>
          <path id="Trazado_157590" data-name="Trazado 157590" d="M5.769,65.206c-.583-.217-.589-.782-.713-1.249a5.144,5.144,0,0,1-.041-2.524,37.512,37.512,0,0,1,.754,3.773" transform="translate(-1.491 -18.781)" fill="#f26161"/>
          <path id="Trazado_157591" data-name="Trazado 157591" d="M79.516,81.56a2.462,2.462,0,0,1,1.289-.244c2.156,0,4.313-.007,6.469,0a3.369,3.369,0,0,1,3.532,3.539c0,2.578-.013,5.156-.02,7.734a1.027,1.027,0,0,1-.792.213c-1.994.006-3.988.037-5.981-.008a4.686,4.686,0,0,1-4.683-4.661c-.047-1.922-.012-3.846-.01-5.77a1.306,1.306,0,0,1,.2-.806" transform="translate(-24.245 -24.858)" fill="#f86464"/>
          <path id="Trazado_157592" data-name="Trazado 157592" d="M56.777,81.56a2.462,2.462,0,0,1,1.289-.244c2.156,0,4.313-.007,6.469,0a3.369,3.369,0,0,1,3.532,3.539c0,2.578-.012,5.156-.02,7.734a1.027,1.027,0,0,1-.792.213c-1.994.006-3.988.037-5.981-.008a4.686,4.686,0,0,1-4.683-4.661c-.047-1.922-.012-3.846-.01-5.77a1.306,1.306,0,0,1,.2-.806" transform="translate(-17.293 -24.858)" fill="#f86464"/>
          <path id="Trazado_157593" data-name="Trazado 157593" d="M34.039,81.56a2.462,2.462,0,0,1,1.289-.244c2.156,0,4.313-.007,6.469,0a3.369,3.369,0,0,1,3.532,3.539c0,2.578-.012,5.156-.02,7.734a1.027,1.027,0,0,1-.792.213c-1.993.006-3.988.037-5.981-.008a4.686,4.686,0,0,1-4.683-4.661c-.047-1.922-.012-3.846-.01-5.77a1.306,1.306,0,0,1,.2-.806" transform="translate(-10.342 -24.858)" fill="#f86464"/>
          <path id="Trazado_157594" data-name="Trazado 157594" d="M11.3,81.56a2.462,2.462,0,0,1,1.289-.244c2.156,0,4.314-.007,6.469,0a3.368,3.368,0,0,1,3.532,3.539c0,2.578-.012,5.156-.02,7.734a1.027,1.027,0,0,1-.792.213c-1.994.006-3.988.037-5.981-.008a4.686,4.686,0,0,1-4.683-4.661c-.047-1.922-.012-3.846-.01-5.77a1.306,1.306,0,0,1,.2-.806" transform="translate(-3.39 -24.858)" fill="#f86464"/>
          <path id="Trazado_157595" data-name="Trazado 157595" d="M78.617,81.668q.008,3.127.017,6.255A4.517,4.517,0,0,0,83.421,92.7l6.466,0c.024.723.3,1.641-.088,2.112-.371.451-1.319.137-2.011.14-3.587.015-7.173,0-10.76.019-.518,0-.667-.115-.662-.651.028-3.165.006-6.33.018-9.494a3.251,3.251,0,0,1,2.234-3.156" transform="translate(-23.346 -24.967)" fill="#e95050"/>
          <path id="Trazado_157596" data-name="Trazado 157596" d="M55.878,81.668q.008,3.127.017,6.255A4.517,4.517,0,0,0,60.682,92.7l6.466,0c.024.723.3,1.641-.088,2.112-.371.451-1.319.137-2.011.14-3.587.015-7.173,0-10.76.019-.518,0-.667-.115-.662-.651.028-3.165.006-6.33.018-9.494a3.251,3.251,0,0,1,2.234-3.156" transform="translate(-16.394 -24.967)" fill="#e95050"/>
          <path id="Trazado_157597" data-name="Trazado 157597" d="M33.14,81.668q.008,3.127.017,6.255A4.517,4.517,0,0,0,37.944,92.7l6.466,0c.024.723.3,1.641-.088,2.112-.371.451-1.319.137-2.011.14-3.587.015-7.173,0-10.76.019-.517,0-.667-.115-.662-.651.028-3.165.006-6.33.018-9.494a3.251,3.251,0,0,1,2.234-3.156" transform="translate(-9.443 -24.967)" fill="#e95050"/>
          <path id="Trazado_157598" data-name="Trazado 157598" d="M10.4,81.668q.008,3.127.017,6.255A4.517,4.517,0,0,0,15.206,92.7l6.465,0c.024.723.3,1.641-.087,2.112-.371.451-1.32.137-2.012.14-3.587.015-7.173,0-10.76.019-.517,0-.667-.115-.662-.651.028-3.165.006-6.33.018-9.494A3.251,3.251,0,0,1,10.4,81.668" transform="translate(-2.491 -24.967)" fill="#e95050"/>
          <path id="Trazado_157599" data-name="Trazado 157599" d="M65.05,74.944a3.307,3.307,0,0,1,3.185-3.365q3.555-.068,7.112,0a3.307,3.307,0,0,1,3.185,3.365,1.319,1.319,0,0,1-1.073.193,5.911,5.911,0,0,0-4.328,1.271,2.064,2.064,0,0,1-2.679,0,5.909,5.909,0,0,0-4.327-1.271,1.324,1.324,0,0,1-1.074-.193" transform="translate(-19.887 -21.872)" fill="#f86464"/>
          <path id="Trazado_157600" data-name="Trazado 157600" d="M19.573,74.944a3.307,3.307,0,0,1,3.185-3.365q3.555-.068,7.112,0a3.307,3.307,0,0,1,3.185,3.365,1.319,1.319,0,0,1-1.073.193,5.911,5.911,0,0,0-4.328,1.271,2.064,2.064,0,0,1-2.679,0,5.909,5.909,0,0,0-4.327-1.271,1.324,1.324,0,0,1-1.074-.193" transform="translate(-5.984 -21.872)" fill="#f86464"/>
          <path id="Trazado_157601" data-name="Trazado 157601" d="M42.312,74.944A3.307,3.307,0,0,1,45.5,71.579q3.555-.068,7.112,0a3.307,3.307,0,0,1,3.185,3.365,1.319,1.319,0,0,1-1.073.193,5.911,5.911,0,0,0-4.328,1.271,2.064,2.064,0,0,1-2.679,0,5.909,5.909,0,0,0-4.327-1.271,1.324,1.324,0,0,1-1.074-.193" transform="translate(-12.935 -21.872)" fill="#f86464"/>
          <path id="Trazado_157602" data-name="Trazado 157602" d="M19.564,76.428c1.007.019,2.022-.028,3.022.074a4.651,4.651,0,0,1,2.358,1.165,2.08,2.08,0,0,0,2.608.081,5.516,5.516,0,0,1,4.228-1.323c.42.035.845,0,1.268,0,.008.069.021.14.022.21.022.921.019.949-.928.914A6.677,6.677,0,0,0,27.3,78.824c-.351.3-.667.828-1.03.857-.292.024-.611-.576-.953-.855a5.52,5.52,0,0,0-3.5-1.264c-.4-.006-.8,0-1.2,0-1.109,0-1.109,0-1.048-1.13" transform="translate(-5.974 -23.357)" fill="#e95050"/>
          <path id="Trazado_157603" data-name="Trazado 157603" d="M42.3,76.428c1.007.019,2.022-.028,3.022.074a4.651,4.651,0,0,1,2.358,1.165,2.08,2.08,0,0,0,2.608.081,5.516,5.516,0,0,1,4.228-1.323c.42.035.845,0,1.268,0,.008.069.021.14.022.21.022.921.019.949-.928.914a6.677,6.677,0,0,0-4.844,1.271c-.351.3-.667.828-1.03.857-.292.024-.611-.576-.953-.855a5.52,5.52,0,0,0-3.5-1.264c-.4-.006-.8,0-1.2,0-1.109,0-1.109,0-1.048-1.13" transform="translate(-12.926 -23.357)" fill="#e95050"/>
          <path id="Trazado_157604" data-name="Trazado 157604" d="M65.041,76.428c1.007.019,2.022-.028,3.022.074a4.651,4.651,0,0,1,2.358,1.165,2.08,2.08,0,0,0,2.608.081,5.516,5.516,0,0,1,4.228-1.323c.42.035.845,0,1.268,0,.008.069.021.14.022.21.022.921.019.949-.928.914a6.677,6.677,0,0,0-4.844,1.271c-.351.3-.667.828-1.03.857-.292.024-.611-.576-.953-.855a5.52,5.52,0,0,0-3.5-1.264c-.4-.006-.8,0-1.2,0-1.109,0-1.109,0-1.048-1.13" transform="translate(-19.877 -23.357)" fill="#e95050"/>
          <path id="Trazado_157605" data-name="Trazado 157605" d="M4.419,94.666c0,.914-.026,1.829.01,2.741.019.5-.276.428-.58.434-.319.006-.576.036-.569-.446.026-1.874.013-3.748.009-5.623,0-.379.133-.667.537-.681.446-.016.6.281.594.693-.006.961,0,1.921,0,2.882" transform="translate(-1.003 -27.847)" fill="#f86464"/>
          <path id="Trazado_157606" data-name="Trazado 157606" d="M100.246,94.606c0,.89-.028,1.782.011,2.67.021.474-.144.569-.589.582-.5.015-.563-.187-.558-.61.019-1.757.011-3.514.006-5.271,0-.417-.007-.869.545-.88.606-.012.589.471.586.908,0,.867,0,1.734,0,2.6" transform="translate(-30.299 -27.849)" fill="#f86464"/>
          <path id="Trazado_157607" data-name="Trazado 157607" d="M51.065,30.443a1.356,1.356,0,0,1-.465.964q-7.192,7.19-14.384,14.38a1.142,1.142,0,1,1-1.607-1.58q7.185-7.2,14.377-14.387a1.168,1.168,0,0,1,1.386-.379,1.1,1.1,0,0,1,.693,1" transform="translate(-10.438 -8.97)"/>
          <path id="Trazado_157608" data-name="Trazado 157608" d="M63.913,35.319a1.358,1.358,0,0,1-.445.954Q57.937,41.8,52.405,47.326a1.131,1.131,0,1,1-1.6-1.575q5.546-5.563,11.105-11.111a1.1,1.1,0,0,1,1.275-.324,1.143,1.143,0,0,1,.731,1" transform="translate(-15.402 -10.464)"/>
          <path id="Trazado_157609" data-name="Trazado 157609" d="M61.26,24.746a1.074,1.074,0,0,1-1.04-.694,1.1,1.1,0,0,1,.292-1.282q1.836-1.841,3.677-3.678c.265-.265.517-.546.8-.789a1.093,1.093,0,0,1,1.577.035,1.05,1.05,0,0,1,.022,1.522c-1.52,1.559-3.072,3.088-4.62,4.621a.926.926,0,0,1-.708.264" transform="translate(-18.381 -5.498)"/>
        </g>
      </g>
    </g>
  </g>
</svg>
