<svg xmlns="http://www.w3.org/2000/svg" xmlns:xlink="http://www.w3.org/1999/xlink" width="105" height="105" viewBox="0 0 105 105">
  <defs>
    <clipPath id="clip-path">
      <rect id="Rectángulo_41964" data-name="Rectángulo 41964" width="63.651" height="66.893" fill="none"/>
    </clipPath>
  </defs>
  <g id="_102" data-name="102" transform="translate(-7553 4890)">
    <g id="Grupo_167987" data-name="Grupo 167987" transform="translate(993)">
      <circle id="Elipse_4902" data-name="Elipse 4902" cx="52.5" cy="52.5" r="52.5" transform="translate(6560 -4890)" fill="#a6bbff"/>
      <g id="Grupo_167986" data-name="Grupo 167986" transform="translate(6581 -4871)">
        <g id="Grupo_167985" data-name="Grupo 167985" clip-path="url(#clip-path)">
          <path id="Trazado_157610" data-name="Trazado 157610" d="M61.619,64.746c-.559-.02-1.119-.006-1.679-.006-.966,0-.966,0-.966-.937q0-17.5,0-34.992c0-.377.1-.849-.238-1.07-.576-.372-.47-.894-.475-1.413s.018-1.031-.008-1.544A2.11,2.11,0,0,0,56.1,22.674c-.805-.021-1.612-.018-2.418,0-.319.007-.47-.081-.541-.421-.221-1.052-.4-2.107-.514-3.175a.6.6,0,0,1,.418-.7,9.08,9.08,0,0,0,4.037-3.9,1.112,1.112,0,0,1,.675-.583A8.875,8.875,0,0,0,63.646,4.91a1.083,1.083,0,0,0-1.24-1.172c-1.186-.011-2.374-.031-3.559.009-.522.017-.656-.16-.627-.65.037-.624.023-1.254,0-1.88A1.1,1.1,0,0,0,56.95,0Q48.924,0,40.9,0a1.112,1.112,0,0,0-1.252,1.241c-.015.649-.034,1.3.006,1.947.028.464-.154.56-.576.552-1.208-.024-2.418-.016-3.627-.005-.808.008-1.174.382-1.209,1.193a8.822,8.822,0,0,0,5.9,8.967,1.067,1.067,0,0,1,.63.537,9.013,9.013,0,0,0,4.084,3.937.6.6,0,0,1,.4.717c-.137,1.02-.288,2.035-.491,3.044-.084.417-.233.563-.655.543-.692-.033-1.387-.013-2.081-.008a2.154,2.154,0,0,0-2.406,2.4c0,.627.005,1.254,0,1.88,0,.165.077.363-.137.478-.571.307-.582.838-.581,1.394.008,3.313-.012,6.627.019,9.94.006.6-.148.738-.739.735-5.261-.025-10.523-.015-15.784-.014-1.105,0-1.447.338-1.448,1.432,0,3.291-.016,6.582.013,9.873.005.567-.147.693-.7.69-5.238-.022-10.477-.014-15.716-.013-1.2,0-1.523.321-1.524,1.5,0,3.381.005,6.761-.007,10.142,0,.53.243,1.232-.118,1.542-.3.259-.982.085-1.494.09-.911.01-1.407.386-1.4,1.073s.51,1.072,1.409,1.077H61.051c.2,0,.4.012.6-.006a1.088,1.088,0,0,0,1.055-1.091,1.068,1.068,0,0,0-1.091-1.046m-3.4-58.435c0-.309.083-.441.415-.434.827.018,1.656.005,2.484.007.183,0,.354-.011.317.282a6.638,6.638,0,0,1-3.3,5.238c.13-1.785.078-3.439.081-5.093m-21.788-.1c-.046-.31.119-.325.341-.325.826,0,1.652.02,2.476-.007.427-.014.386.239.39.515.027,1.625-.079,3.253.1,5a6.656,6.656,0,0,1-3.3-5.179M20.953,64.154c0,.373,0,.6-.513.6-4.918-.021-9.837-.01-14.755-.015-.161,0-.366.093-.474-.128h0c-.052-3.628-.08-7.256.014-10.884.144-.22.367-.116.55-.116,4.851-.006,9.7.005,14.554-.013.5,0,.635.125.631.629-.023,3.308-.016,6.617-.007,9.926m17.966-.032c0,.5-.13.633-.634.631q-7.282-.03-14.565,0c-.492,0-.638-.109-.634-.622.024-3.669.013-7.339.013-11.008,0-3.625.01-7.249-.012-10.873,0-.5.115-.635.624-.633q7.282.031,14.565,0c.487,0,.647.1.646.622q-.028,10.941,0,21.882m2.882-54c-.043-2.483,0-4.968-.02-7.451,0-.4.1-.579.524-.531.31.035.625.021.938.029h11.42c1.428-.078,1.438-.078,1.425,1.33-.021,2.365.116,4.735-.067,7.095a6.9,6.9,0,0,1-4.206,5.979,1.724,1.724,0,0,1-.383.084,6.286,6.286,0,0,1-4.979.057h0a7.072,7.072,0,0,1-4.651-6.59m7.871,12.508a5.841,5.841,0,0,1-1.446,0h0c-1.373.121-1.366.122-1.124-1.23.094-.527.172-1.059.218-1.592.04-.47.183-.7.7-.522a3.122,3.122,0,0,0,.73.074h.393c1.324-.116,1.317-.115,1.5,1.25a13.633,13.633,0,0,0,.28,1.574c.1.392.011.53-.391.489-.286-.03-.576-.029-.864-.041M42.715,24.82c.223,0,.445.018.668.028H54.529c1.585-.111,1.585-.111,1.585,1.441a3.988,3.988,0,0,0,0,.469c.049.4-.1.576-.519.536-.354-.034-.712-.024-1.069-.033H43.382c-1.611.107-1.611.107-1.611-1.474,0-.969,0-.97.943-.966M56.835,64.127c0,.508-.135.644-.634.626-1.184-.044-2.371-.028-3.556-.035-3.711.008-7.423.011-11.135.03-.35,0-.5-.105-.455-.455a3.529,3.529,0,0,0,0-.4q0-16.8,0-33.609c0-.244.03-.488.046-.731.172-.225.415-.111.62-.111,4.812-.006,9.623.006,14.435-.012.519,0,.676.121.675.661q-.024,17.02,0,34.04" transform="translate(0 0)"/>
          <path id="Trazado_157611" data-name="Trazado 157611" d="M91.816,79.313h0a1.212,1.212,0,0,1-.807-1.3c.019-.62.017-1.24,0-1.86a1.168,1.168,0,0,1,.94-1.326,5.407,5.407,0,0,0,.135-1.848c-.88-.287-1.07-.537-1.071-1.447,0-2.841.006-5.683-.006-8.524a1.191,1.191,0,0,1,.941-1.344,14.356,14.356,0,0,0,.111-3.462c.006-.406-.406-.262-.642-.262q-5.237-.014-10.474-.007c-.134,0-.268,0-.4,0-.016.244-.046.488-.046.732q0,16.8,0,33.609a3.522,3.522,0,0,1,0,.4c-.04.351.105.457.455.455q5.568-.027,11.135-.029,0-6.508,0-13.016c0-.287.055-.592-.269-.765" transform="translate(-39.437 -28.375)" fill="#fee1e1"/>
          <path id="Trazado_157612" data-name="Trazado 157612" d="M60.454,81.6q-7.283.027-14.565,0c-.508,0-.626.136-.623.632.022,3.624.012,7.249.012,10.873,0,3.67.011,7.339-.013,11.008,0,.513.143.623.634.621q7.282-.028,14.565,0c.5,0,.635-.128.634-.63q-.025-10.941,0-21.882c0-.521-.158-.624-.645-.622" transform="translate(-22.179 -39.983)" fill="#fee1e1"/>
          <path id="Trazado_157613" data-name="Trazado 157613" d="M87.83,18.527A1.015,1.015,0,0,1,88,18.8h0a6.284,6.284,0,0,0,4.979-.057A16.33,16.33,0,0,0,94.9,16.556,8.152,8.152,0,0,0,96.2,12.149c.015-2.631,0-5.261,0-7.892H84.787q0,3.928,0,7.855a8,8,0,0,0,3.041,6.415" transform="translate(-41.545 -2.086)" fill="#f8d235"/>
          <path id="Trazado_157614" data-name="Trazado 157614" d="M95.652,57.681c-4.811.017-9.623.006-14.435.012-.206,0-.449-.114-.62.111a1.069,1.069,0,0,1,.591-.062q5.165,0,10.33,0c.734,0,.81.063.831.787.022.76.016,1.52,0,2.28a1.2,1.2,0,0,1-.21.752c.806.117,1.074.441,1.075,1.305q0,4.283,0,8.567c0,.9-.174,1.135-1.014,1.4a2.407,2.407,0,0,1-.066,1.889c.808.116,1.074.439,1.08,1.3,0,.6,0,1.2,0,1.8,0,.947-.281,1.288-1.129,1.353a1.2,1.2,0,0,1,.264.91q.013,6.034,0,12.067a1.041,1.041,0,0,1-.215.818c1.186.008,2.373-.009,3.557.035.5.018.634-.118.634-.626q-.023-17.02,0-34.04c0-.54-.156-.663-.675-.661" transform="translate(-39.492 -28.254)" fill="#fecece"/>
          <path id="Trazado_157615" data-name="Trazado 157615" d="M102.963,89.277c.047.005.086.013.131.02a2.41,2.41,0,0,0,.066-1.889l-.062.021a5.407,5.407,0,0,1-.135,1.848" transform="translate(-50.451 -42.829)" fill="#fecece"/>
          <path id="Trazado_157616" data-name="Trazado 157616" d="M103.181,100.757a1.2,1.2,0,0,0-.264-.91c-.071.006-.138.013-.217.014.323.173.269.478.269.766q0,6.507,0,13.016a1.041,1.041,0,0,0,.215-.818q.01-6.034,0-12.067" transform="translate(-50.322 -48.924)" fill="#fecece"/>
          <path id="Trazado_157617" data-name="Trazado 157617" d="M91.474,57.877c.236,0,.647-.144.642.262A14.361,14.361,0,0,1,92,61.6c.049.005.09.014.136.021a1.2,1.2,0,0,0,.21-.752c.016-.76.022-1.521,0-2.281-.021-.724-.1-.787-.832-.787q-5.165,0-10.329,0a1.066,1.066,0,0,0-.591.062c.135,0,.269,0,.4,0q5.237,0,10.474.007" transform="translate(-39.492 -28.318)" fill="#fecece"/>
          <path id="Trazado_157618" data-name="Trazado 157618" d="M25.335,105.082c-4.851.018-9.7.008-14.554.013-.183,0-.406-.1-.55.116,1.208,0,2.415.014,3.623,0,.4-.005.554.109.552.53q-.021,4.865,0,9.73c0,.463-.17.639-.632.632-1.185-.018-2.371,0-3.556,0,.109.221.314.128.475.128,4.918,0,9.837-.006,14.755.014.51,0,.514-.227.513-.6-.008-3.309-.016-6.618.008-9.926,0-.5-.13-.631-.631-.629" transform="translate(-5.006 -51.484)" fill="#fee1e1"/>
          <path id="Trazado_157619" data-name="Trazado 157619" d="M13.141,116.014c.943-.007,1-.052,1-.976.006-2.235,0-4.469,0-6.7,0-.671.009-1.341,0-2.011-.013-.7-.068-.75-.782-.76-.759-.01-1.52,0-2.279,0a1.259,1.259,0,0,1-.891-.212c-.094,3.628-.066,7.256-.014,10.884a1.2,1.2,0,0,1,.824-.213c.716-.006,1.431,0,2.146,0" transform="translate(-4.961 -51.618)" fill="#feeeed"/>
          <path id="Trazado_157620" data-name="Trazado 157620" d="M13.773,116.231c.462.007.634-.169.632-.632q-.018-4.865,0-9.729c0-.422-.157-.536-.552-.53-1.208.017-2.415,0-3.623,0a1.258,1.258,0,0,0,.89.212c.76.007,1.52-.006,2.279.005.714.01.769.063.782.76.012.67,0,1.34,0,2.011,0,2.235,0,4.469,0,6.7,0,.924-.055.969-1,.976-.716.005-1.431,0-2.146,0a1.2,1.2,0,0,0-.825.213c1.186,0,2.371-.014,3.556,0" transform="translate(-5.006 -51.615)" fill="#feeeed"/>
          <path id="Trazado_157621" data-name="Trazado 157621" d="M85.061,51.133H96.207q0-1.206,0-2.412H85.062Q85.061,49.927,85.061,51.133Z" transform="translate(-41.679 -23.873)" fill="#f8d235"/>
          <path id="Trazado_157622" data-name="Trazado 157622" d="M83.188,11.886c0-2.235,0-4.469,0-6.7a1.281,1.281,0,0,1,.191-.959c-.313-.008-.628.006-.938-.029-.423-.047-.527.126-.524.531.018,2.484-.022,4.968.02,7.451a7.07,7.07,0,0,0,4.651,6.59,7.859,7.859,0,0,1-3.4-6.881" transform="translate(-40.14 -2.052)" fill="#f8e17c"/>
          <path id="Trazado_157623" data-name="Trazado 157623" d="M84.407,5.217c-.006,2.235,0,4.469,0,6.7a7.859,7.859,0,0,0,3.4,6.881h0a1,1,0,0,0-.167-.275A8,8,0,0,1,84.6,12.113q0-3.928,0-7.855a1.284,1.284,0,0,0-.191.959" transform="translate(-41.355 -2.086)" fill="#f8e17c"/>
          <path id="Trazado_157624" data-name="Trazado 157624" d="M104.267,5.056c0,2.414.034,4.829-.007,7.243a8.407,8.407,0,0,1-2.527,5.825,5.312,5.312,0,0,1-.889.6,1.718,1.718,0,0,0,.383-.084,6.894,6.894,0,0,0,4.206-5.979c.183-2.36.046-4.73.068-7.095.012-1.408,0-1.408-1.425-1.33a1.077,1.077,0,0,1,.193.825" transform="translate(-49.412 -2.06)" fill="#f0c101"/>
          <path id="Trazado_157625" data-name="Trazado 157625" d="M104.07,12.149a8.161,8.161,0,0,1-1.307,4.408,16.3,16.3,0,0,1-1.92,2.188,5.316,5.316,0,0,0,.889-.6,8.412,8.412,0,0,0,2.527-5.825c.04-2.413.012-4.829.007-7.243a1.077,1.077,0,0,0-.193-.825c0,2.631.012,5.261,0,7.892" transform="translate(-49.412 -2.086)" fill="#f0c101"/>
          <path id="Trazado_157626" data-name="Trazado 157626" d="M93.887,37.836a3.122,3.122,0,0,1-.73-.074c-.522-.179-.665.052-.7.522-.046.533-.123,1.065-.218,1.593-.242,1.353-.249,1.351,1.124,1.23a16.441,16.441,0,0,0,.529-3.271" transform="translate(-45.133 -18.473)" fill="#f8e17c"/>
          <path id="Trazado_157627" data-name="Trazado 157627" d="M98.144,40.743a13.741,13.741,0,0,1-.28-1.574c-.183-1.364-.176-1.365-1.5-1.25a11.675,11.675,0,0,0,.525,3.272c.288.013.577.011.864.041.4.042.491-.1.391-.489" transform="translate(-47.217 -18.557)" fill="#f0c102"/>
          <path id="Trazado_157628" data-name="Trazado 157628" d="M83.514,51.105h0a3.034,3.034,0,0,1,0-2.412c-.223-.01-.445-.027-.668-.028-.944,0-.944,0-.944.966,0,1.581,0,1.581,1.611,1.474" transform="translate(-40.131 -23.845)" fill="#f8e17c"/>
          <path id="Trazado_157629" data-name="Trazado 157629" d="M84.821,51.133q0-1.206,0-2.412a3.034,3.034,0,0,0,0,2.412" transform="translate(-41.439 -23.873)" fill="#f8e17c"/>
          <path id="Trazado_157630" data-name="Trazado 157630" d="M106.916,51.093c.357.009.715,0,1.069.033.419.04.568-.135.519-.536a3.978,3.978,0,0,1,0-.468c0-1.552,0-1.552-1.585-1.441a3.092,3.092,0,0,1,0,2.412" transform="translate(-52.387 -23.833)" fill="#f0c101"/>
          <path id="Trazado_157631" data-name="Trazado 157631" d="M106.916,48.721v2.412a3.092,3.092,0,0,0,0-2.412" transform="translate(-52.387 -23.873)" fill="#f0c101"/>
          <path id="Trazado_157632" data-name="Trazado 157632" d="M95.711,40.9a12.048,12.048,0,0,1-.4-2.439.62.62,0,0,1,.166-.494h-.393a.574.574,0,0,1,.155.494,22.128,22.128,0,0,1-.378,2.376c-.042.175-.1.347-.3.4a5.84,5.84,0,0,0,1.446,0,.444.444,0,0,1-.293-.339" transform="translate(-46.332 -18.601)" fill="#f8d235"/>
          <path id="Trazado_157633" data-name="Trazado 157633" d="M94.862,40.835a21.993,21.993,0,0,0,.378-2.376.572.572,0,0,0-.155-.494,16.431,16.431,0,0,1-.529,3.27c.207-.053.263-.225.305-.4" transform="translate(-46.332 -18.602)" fill="#f8d235"/>
          <path id="Trazado_157634" data-name="Trazado 157634" d="M96.036,38.457a12.044,12.044,0,0,0,.4,2.439.444.444,0,0,0,.293.339,11.675,11.675,0,0,1-.525-3.272.621.621,0,0,0-.167.494" transform="translate(-47.056 -18.601)" fill="#f8d235"/>
          <path id="Trazado_157635" data-name="Trazado 157635" d="M101.487,67.2c.036,2.428.041,4.857,0,7.285a2.1,2.1,0,0,0,.937,2.107,2.334,2.334,0,0,0,.836-2.237q-.057-3.442,0-6.885c.016-.889-.059-1.669-.927-2.1a1.827,1.827,0,0,0-.846,1.834" transform="translate(-49.726 -32.027)"/>
          <path id="Trazado_157636" data-name="Trazado 157636" d="M101.305,74.432c.043-2.428.038-4.856,0-7.285a1.828,1.828,0,0,1,.846-1.834c-.033-.016-.059-.036-.095-.052a1.191,1.191,0,0,0-.942,1.344c.012,2.841,0,5.683.006,8.524,0,.91.19,1.16,1.071,1.447.019-.012.032-.026.049-.038a2.1,2.1,0,0,1-.937-2.107" transform="translate(-49.546 -31.977)"/>
          <path id="Trazado_157637" data-name="Trazado 157637" d="M103.149,65.333c.868.436.943,1.214.927,2.1q-.062,3.441,0,6.885a2.334,2.334,0,0,1-.836,2.237l.01.007,0,.011c.84-.267,1.013-.507,1.014-1.4q0-4.283,0-8.567c0-.864-.269-1.188-1.075-1.3l-.005.008c-.013.008-.023.016-.036.023" transform="translate(-50.542 -31.997)"/>
          <path id="Trazado_157638" data-name="Trazado 157638" d="M103.276,87.373c-.018.012-.031.027-.05.038.023-.007.04-.014.062-.021l0-.011-.01-.007" transform="translate(-50.579 -42.812)"/>
          <path id="Trazado_157639" data-name="Trazado 157639" d="M103.058,65.313c.013-.008.022-.016.036-.023l.005-.008c-.046-.007-.086-.016-.136-.021.036.016.062.035.095.052" transform="translate(-50.451 -31.977)"/>
          <path id="Trazado_157640" data-name="Trazado 157640" d="M101.457,92.966a4.675,4.675,0,0,1,0,.929,1.567,1.567,0,0,0,.79,1.65c1-.351,1.084-1.188,1-2.118a.966.966,0,0,1,0-.2c.1-.886-.03-1.665-.933-2.066a1.648,1.648,0,0,0-.852,1.8" transform="translate(-49.704 -44.668)"/>
          <path id="Trazado_157641" data-name="Trazado 157641" d="M101.3,93.852a4.677,4.677,0,0,0,0-.929,1.647,1.647,0,0,1,.852-1.8c-.032-.014-.058-.032-.092-.045a1.168,1.168,0,0,0-.94,1.325c.016.62.018,1.24,0,1.86a1.211,1.211,0,0,0,.806,1.3c.062-.017.109-.041.164-.061a1.566,1.566,0,0,1-.79-1.65" transform="translate(-49.546 -44.625)"/>
          <path id="Trazado_157642" data-name="Trazado 157642" d="M103.084,91.137c.9.4,1.028,1.18.932,2.066a.965.965,0,0,0,0,.2c.089.93.005,1.767-.995,2.118.012.007.021.015.034.022s.011.016.018.024c.848-.065,1.125-.406,1.129-1.353,0-.6,0-1.2,0-1.8-.006-.862-.272-1.184-1.08-1.3l0,0c-.014.007-.024.015-.037.022" transform="translate(-50.479 -44.644)"/>
          <path id="Trazado_157643" data-name="Trazado 157643" d="M103.055,91.118c.013-.007.023-.015.037-.022l0,0c-.044-.007-.083-.015-.131-.02.034.013.06.031.092.045" transform="translate(-50.451 -44.625)"/>
          <path id="Trazado_157644" data-name="Trazado 157644" d="M102.864,99.756c-.056.019-.1.044-.164.06.079,0,.146-.009.217-.014-.008-.008-.01-.016-.018-.024s-.022-.015-.034-.022" transform="translate(-50.322 -48.879)"/>
        </g>
      </g>
    </g>
  </g>
</svg>
