<svg xmlns="http://www.w3.org/2000/svg" xmlns:xlink="http://www.w3.org/1999/xlink" width="295" height="457" viewBox="0 0 295 457">
  <defs>
    <clipPath id="clip-path">
      <rect id="Rectángulo_41967" data-name="Rectángulo 41967" width="295" height="457" transform="translate(180 7527)" fill="#fff" stroke="#707070" stroke-width="1"/>
    </clipPath>
    <clipPath id="clip-path-2">
      <rect id="Rectángulo_41966" data-name="Rectángulo 41966" width="293.673" height="388.764" fill="none"/>
    </clipPath>
  </defs>
  <g id="Enmascarar_grupo_215" data-name="Enmascarar grupo 215" transform="translate(-180 -7527)" clip-path="url(#clip-path)">
    <g id="Grupo_167989" data-name="Grupo 167989">
      <path id="Trazado_157691" data-name="Trazado 157691" d="M374.408,89.176C371.559,45.09,337.743,3,291.944.386c-52.6-4.03-100.886,24.817-153.285,25.123C111.94,27.8,86.883,17.568,60.845,14.265c-58.81-2.159-67.77,66.951-56.8,111.5C50.3,335.771,377.611,307.2,374.408,89.176Z" transform="translate(448.907 7527.008) rotate(90)" fill="#a6bbff"/>
      <path id="Trazado_157692" data-name="Trazado 157692" d="M71.036,191.672c2.149,33.248,27.652,64.994,62.192,66.963,39.671,3.039,76.085-18.716,115.6-18.947,20.151-1.728,39.048,5.988,58.686,8.48,44.353,1.628,51.11-50.493,42.838-84.088C315.47,5.7,68.621,27.247,71.036,191.672Z" transform="matrix(0.719, -0.695, 0.695, 0.719, 59.917, 7714.093)" fill="#c4d1ff"/>
      <g id="Grupo_161797" data-name="Grupo 161797" transform="translate(256.153 7571.381)">
        <g id="Grupo_157493" data-name="Grupo 157493" transform="translate(0 0)">
          <g id="Grupo_167988" data-name="Grupo 167988" transform="translate(-74.826 15.237)">
            <g id="Grupo_167988-2" data-name="Grupo 167988" clip-path="url(#clip-path-2)">
              <path id="Trazado_157645" data-name="Trazado 157645" d="M38.438,167.707l-3.464,29.1a13.4,13.4,0,0,0,13.31,14.989h27.1l8.369-64.226Z" transform="translate(-9.739 -41.203)" fill="#4663ab"/>
              <path id="Trazado_157646" data-name="Trazado 157646" d="M107.229,516.221a2.946,2.946,0,0,1-2.947,2.96H65.65a4.467,4.467,0,0,1-4.358-5.492l1.159-11.047,3.741-35.558,26.552,8.049s-1.826,24.259-2.041,25.3L106.3,514.054a2.933,2.933,0,0,1,.932,2.167" transform="translate(-17.079 -130.417)" fill="#a66353"/>
              <path id="Trazado_157647" data-name="Trazado 157647" d="M226.326,520.391h-43.09a6.062,6.062,0,0,1-5.908-4.787l-1.751-13.956L172.2,474.694l27.547-3.275s1.562,26.577,1.637,26.766a2.236,2.236,0,0,0,.214.151h.013c.667.416,2.7,1.663,5.366,3.313,2.733,1.675,6.109,3.766,9.422,5.857.428.277.843.554,1.272.819.365.227.718.453,1.07.68,5.492,3.5,10.215,6.7,10.467,7.444.012.025.012.05.025.076a3.008,3.008,0,0,1-2.909,3.867" transform="translate(-48.082 -131.628)" fill="#a66353"/>
              <path id="Trazado_157648" data-name="Trazado 157648" d="M177.024,259.1l8.817,166.473H148.684S135.248,334.462,134.2,324.176s-6.508-33.379-10.916-45.555-4.829-19.523-4.829-19.523Z" transform="translate(-33.074 -72.344)" fill="#2f3f4f"/>
              <path id="Trazado_157649" data-name="Trazado 157649" d="M121.2,255.112c-.2.844-3.351,33.593-3.351,33.593L94.964,421.589H56.132L65.15,300.972l.567-7.494,3.64-48.657s24.977,9.875,26.866,10.291,25.191-.844,24.977,0" transform="translate(-15.673 -68.358)" fill="#2f3f4f"/>
              <path id="Trazado_157650" data-name="Trazado 157650" d="M137.883,307.98h-.025a.631.631,0,0,1-.6-.654l1.933-49.589a.657.657,0,0,1,.654-.6.63.63,0,0,1,.6.654l-1.933,49.588a.629.629,0,0,1-.629.605" transform="translate(-38.323 -71.795)" fill="#0f0a1c"/>
              <path id="Trazado_157651" data-name="Trazado 157651" d="M138.485,296.384a.63.63,0,0,1-.015-1.259c.059,0,6.007-.2,7.553-3.572,1.377-3,2.245-26.526,2.462-35.336a.648.648,0,0,1,.645-.614.631.631,0,0,1,.615.646c-.033,1.3-.812,31.978-2.577,35.829-1.874,4.09-8.391,4.3-8.667,4.307Z" transform="translate(-38.492 -71.368)" fill="#0f0a1c"/>
              <path id="Trazado_157652" data-name="Trazado 157652" d="M97.212,262.611C91.783,275.66,82.589,293.017,68.645,305.4l.567-7.494C80.3,286.53,87.878,271.931,92.564,260.671Z" transform="translate(-19.167 -72.783)" fill="#f57c64"/>
              <path id="Trazado_157653" data-name="Trazado 157653" d="M214.468,62.8l33.1-3.725S271.85,57.5,285.7,57.5s1.352,28.632,1.352,28.632l-59.765,9.155s-14.718-19.951-14.84-20.729S214.468,62.8,214.468,62.8" transform="translate(-59.319 -16.055)" fill="#a66353"/>
              <path id="Trazado_157654" data-name="Trazado 157654" d="M148.018,19.869a15.635,15.635,0,0,1-15.9,12.284,15.306,15.306,0,0,1-2.691-.345,15.663,15.663,0,0,1-5.57-2.42c-.21-.143-.405-.281-.6-.435a6.939,6.939,0,0,1-.548-.441c-3.267-2.861-6.488-9.424-5.21-15.291a15.62,15.62,0,0,1,29.479-3.148l0,.015a15.542,15.542,0,0,1,1.385,5.755.416.416,0,0,1,.007.114,15.88,15.88,0,0,1-.354,3.912" transform="translate(-32.729 -0.257)" fill="#a66353"/>
              <path id="Trazado_157655" data-name="Trazado 157655" d="M123.436,30.437s3.023,7.822,10.316,11.726,15.694,3.149,16.879-5.076c.063-.492.125-1.008.164-1.537.025-.189.037-.378.05-.58.025-.4.037-.819.05-1.247.012-.327.012-.655.012-1A99.722,99.722,0,0,0,149.849,19.1s-9.875,3.7-11.613,3.829-14.8,7.507-14.8,7.507" transform="translate(-34.465 -5.333)" fill="#a66353"/>
              <path id="Trazado_157656" data-name="Trazado 157656" d="M139.674,59.5,129.6,65.83l-11.466-6.359,4.975-21,.063-.315.138-.529.151-.629,2.557.831,5.643,1.788,6.134,1.966.3,2.9.29,2.771.213,2.054.215,1.977.176,1.726Z" transform="translate(-32.985 -10.331)" fill="#a66353"/>
              <path id="Trazado_157657" data-name="Trazado 157657" d="M146.671,9.481c-.189-.352-.365-.68-.554-1a4.05,4.05,0,0,1-.239-.39c-.037-.063-.088-.126-.126-.189-.063-.1-.125-.2-.2-.3a4.284,4.284,0,0,0-.353-.453,8.31,8.31,0,0,0-.6-.743,15.289,15.289,0,0,0-8.54-5.126,15.622,15.622,0,0,0-18.579,11.941,16.053,16.053,0,0,0-.315,4.434,3.046,3.046,0,0,0,.063.58,3.165,3.165,0,0,0,.063.58c.025.138.05.29.088.441a15.185,15.185,0,0,0,.365,1.7c.05.2.113.4.189.617.063.177.138.365.214.554a11.118,11.118,0,0,0,.567,1.171,40.931,40.931,0,0,0,3.93,5.844,24.943,24.943,0,0,0,3.388-.352,11.351,11.351,0,0,0,6.928-4.27A15.911,15.911,0,0,0,135.234,20c.151-.429.34-1.147.529-1.94.113-.5.239-1.033.352-1.562a4.554,4.554,0,0,1,3.653-3.4h.012a22.81,22.81,0,0,0,5.164-1.713,8.735,8.735,0,0,0,2-1.3l.012-.013c-.1-.2-.189-.415-.29-.592" transform="translate(-32.702 -0.257)" fill="#2f3f4f"/>
              <path id="Trazado_157658" data-name="Trazado 157658" d="M159.413,23.508s4.547,5.28,4.641,5.77-4.294,2.482-4.294,2.482Z" transform="translate(-44.511 -6.564)" fill="#a66353"/>
              <path id="Trazado_157659" data-name="Trazado 157659" d="M141.788,29.3a5.1,5.1,0,1,1-9.935-2.165,5.1,5.1,0,1,1,9.935,2.165" transform="translate(-36.776 -6.335)" fill="#a66353"/>
              <path id="Trazado_157660" data-name="Trazado 157660" d="M144.366,56.845a7.145,7.145,0,0,1-.731-.252c-3.615-1.411-6.109-5.592-6.26-5.856l6.6,2.405.214,1.978Z" transform="translate(-38.357 -14.166)" fill="#2f3f4f"/>
              <path id="Trazado_157661" data-name="Trazado 157661" d="M155.188,38.008a6.319,6.319,0,0,0,4.471,2.821c.025-.189.038-.378.05-.579.025-.4.038-.819.05-1.247.013-.328.013-.655.013-1Z" transform="translate(-43.331 -10.612)" fill="#fff"/>
              <path id="Trazado_157662" data-name="Trazado 157662" d="M110.927,5.2a5.2,5.2,0,1,1,5.2,5.2,5.2,5.2,0,0,1-5.2-5.2" transform="translate(-30.973)" fill="#2f3f4f"/>
              <path id="Trazado_157663" data-name="Trazado 157663" d="M167.439,210.171H59.33l3.023-31.515L63.5,166.729l2.9-30.2L72.871,69.1s.528-.063,1.473-.189c1.2-.138,3.086-.378,5.441-.655,3.779-.453,8.754-1.045,14.031-1.637,6.085-.668,12.785-.756,18.3-1.235,5.743-.5,14.308-1.486,23.1-1.8,15.127-.529,30.331-.781,30.331-.781Z" transform="translate(-16.566 -17.535)" fill="#ffe7cf"/>
              <rect id="Rectángulo_41965" data-name="Rectángulo 41965" width="47.847" height="28.561" transform="translate(78.29 75.877)" fill="#fff"/>
              <path id="Trazado_157664" data-name="Trazado 157664" d="M148.579,63.885c-4.5,4.106-13.376,10.857-22.773,10.341a31.584,31.584,0,0,1-18.629-7.305c1.335-.151,2.683-.29,4.043-.441,4.837-.517,9.749-1.008,14.057-1.385,4.61-.4,11.173-.731,18.138-1.008,1.7-.076,3.439-.139,5.164-.2" transform="translate(-29.926 -17.838)" fill="#a66353"/>
              <path id="Trazado_157665" data-name="Trazado 157665" d="M148.579,63.885c-4.5,4.106-13.376,10.857-22.773,10.341a31.584,31.584,0,0,1-18.629-7.305c1.335-.151,2.683-.29,4.043-.441,3.287,1.763,9.812,4.875,15,4.875,5.328,0,13.339-4.761,17.193-7.268,1.7-.076,3.439-.139,5.164-.2" transform="translate(-29.926 -17.838)" fill="#fff"/>
              <path id="Trazado_157666" data-name="Trazado 157666" d="M164.617,62.71l69.591-3.032-6.3,47.8L178.787,133.3Z" transform="translate(-45.964 -16.663)" fill="#ffe7cf"/>
              <path id="Trazado_157667" data-name="Trazado 157667" d="M334.014,55.714,341.62,72.19l-3.811,7.4s-34.306,7.358-42.678,7.562S282.812,76.117,283.274,72.8s8.543-15.395,11.032-15.333,39.708-1.754,39.708-1.754" transform="translate(-79.084 -15.556)" fill="#a66353"/>
              <path id="Trazado_157668" data-name="Trazado 157668" d="M340.241,52.99s3.543-6.4,7.321-8.5,17.87-7.137,20.6-7.033a2.773,2.773,0,0,1,2.572,3.989c-.682,1.312-8.8,5.233-9.639,8.014s1.824,10.25-3.558,12.559-6.851,3.569-8.583,2.676-8.712-11.7-8.712-11.7" transform="translate(-95.001 -10.458)" fill="#a66353"/>
              <path id="Trazado_157669" data-name="Trazado 157669" d="M364.089,53.137s21.807-2.756,25.034-2.756,3.857,4.094,2.2,5.747-11.336,3.779-11.336,3.779,1.829,9.525-4.635,13.619-18.433,4.643-18.433,4.643l-4.012-9.577Z" transform="translate(-98.538 -14.067)" fill="#a66353"/>
              <path id="Trazado_157670" data-name="Trazado 157670" d="M369.082,80a.629.629,0,0,1-.61-.476c-.11-.435-2.624-10.7,1.418-14.023,3.078-2.529,12.743-2.557,13.153-2.557a.63.63,0,1,1,0,1.26c-2.667,0-10.087.409-12.353,2.27-2.849,2.341-1.685,9.992-1,12.743a.629.629,0,0,1-.458.764.658.658,0,0,1-.154.019" transform="translate(-102.639 -17.574)" fill="#2f3f4f"/>
              <path id="Trazado_157671" data-name="Trazado 157671" d="M368.684,73.485a.63.63,0,0,1-.082-1.254l13.383-1.784a.63.63,0,1,1,.166,1.248l-13.383,1.784a.549.549,0,0,1-.084.006" transform="translate(-102.767 -19.668)" fill="#2f3f4f"/>
              <path id="Trazado_157672" data-name="Trazado 157672" d="M369.194,80.666a.63.63,0,0,1-.064-1.256l10.707-1.1a.63.63,0,1,1,.129,1.253l-10.706,1.1-.065,0" transform="translate(-102.909 -21.864)" fill="#2f3f4f"/>
              <path id="Trazado_157673" data-name="Trazado 157673" d="M350.046,67.126a.629.629,0,0,1-.267-1.2,47.249,47.249,0,0,0,4.612-3.241,58.112,58.112,0,0,0,8.266-8.391.63.63,0,0,1,.984.786,58.176,58.176,0,0,1-8.5,8.613,42.671,42.671,0,0,1-4.834,3.373.62.62,0,0,1-.265.059" transform="translate(-97.562 -15.094)" fill="#2f3f4f"/>
              <path id="Trazado_157674" data-name="Trazado 157674" d="M17.363,129.2q-4.435,5.893-8.562,12.018C4.556,147.5-.948,154.477.139,162.513c1.794,13.265,15.825,16.339,25.245,11.365,9.7-5.122,26.826-31.662,26.826-31.662Z" transform="translate(0 -36.075)" fill="#a66353"/>
              <path id="Trazado_157675" data-name="Trazado 157675" d="M59.209,71.539s-10.077.416-19.838,9.023S10.4,112.156,10.4,112.156l45.765,28.97s16.689-38.879,17-41.325-13.96-28.263-13.96-28.263" transform="translate(-2.904 -19.975)" fill="#ffe7cf"/>
              <path id="Trazado_157676" data-name="Trazado 157676" d="M87.491,106c.025,28.58-19.158,62.2-27,74.768-1.814,2.9-3.024,4.674-3.25,5.014a2.518,2.518,0,0,1-3.5.654,2.525,2.525,0,0,1-.655-3.5c.1-.151,3.8-5.618,8.553-14.094,8.64-15.443,20.745-40.911,20.821-62.576v-.252A65.221,65.221,0,0,0,79.606,87.36v-.013a75.241,75.241,0,0,0-7.129-16.324c1.2-.138,3.086-.378,5.441-.655A74.732,74.732,0,0,1,87.491,106" transform="translate(-14.698 -19.648)" fill="#2f3f4f"/>
              <path id="Trazado_157677" data-name="Trazado 157677" d="M53.239,117.259l14.953,11.556,10.629,1.734s-40.5,35.707-47.914,39.589c-9.473,4.955-11.94-8.908-13.173-12.02s-.159-17.606,2.037-18.779,33.467-22.08,33.467-22.08" transform="translate(-4.807 -32.741)" fill="#a66353"/>
              <path id="Trazado_157678" data-name="Trazado 157678" d="M100.48,111.475a13.92,13.92,0,0,1-3.464,8.817c-4.093,4.509-17.243,12.356-17.243,12.356s-10.265-4.282-10.58-4.6S59.33,116.1,59.33,116.1c6.651-5.265,13.616-10.556,21.136-14.5,3.867-2.041,8.767-2.771,12.835-1.26a12.475,12.475,0,0,1,1.5.693,10.832,10.832,0,0,1,3.048,2.456,6.479,6.479,0,0,1,.453.58,9.468,9.468,0,0,1,.693,1.045,11.9,11.9,0,0,1,1.461,4.913,11.033,11.033,0,0,1,.025,1.448" transform="translate(-16.566 -27.792)" fill="#a66353"/>
              <path id="Trazado_157679" data-name="Trazado 157679" d="M227.633,532.1h-43.09a6.041,6.041,0,0,1-5.618-3.842,5.844,5.844,0,0,1-.29-.945l-1.751-13.956h31.4c2.733,1.675,6.109,3.766,9.422,5.857a.012.012,0,0,1,.012.013c.428.264.831.541,1.26.806.365.227.718.453,1.07.68,5.492,3.5,10.215,6.7,10.467,7.444.012.025.012.05.025.076s0,.013.013.025a3.017,3.017,0,0,1-2.922,3.842" transform="translate(-49.389 -143.338)" fill="#2f3f4f"/>
              <path id="Trazado_157680" data-name="Trazado 157680" d="M224.836,517.933c.037.126-.025.189-.151.2-.554.088-22.269-5.038-22.269-5.038.479-.353.957-.693,1.448-1.021.6-.428,1.209-.831,1.826-1.234a12.766,12.766,0,0,1,4.346-2.079h.012c.668.416,2.7,1.663,5.366,3.313,2.733,1.675,6.109,3.766,9.421,5.857" transform="translate(-56.518 -142.055)" fill="#2f3f4f"/>
              <path id="Trazado_157681" data-name="Trazado 157681" d="M228.424,537.874h-43.09a6.041,6.041,0,0,1-5.618-3.842h51.63a3.017,3.017,0,0,1-2.922,3.842" transform="translate(-50.18 -149.11)" fill="#ffe7cf"/>
              <path id="Trazado_157682" data-name="Trazado 157682" d="M220.728,524.021a.617.617,0,0,1-.28-.066l-9.027-4.488a.629.629,0,1,1,.561-1.127l9.027,4.488a.629.629,0,0,1-.281,1.193" transform="translate(-58.935 -144.71)" fill="#ffe7cf"/>
              <path id="Trazado_157683" data-name="Trazado 157683" d="M107.229,527.835a2.946,2.946,0,0,1-2.947,2.96H65.651a4.475,4.475,0,0,1-4.434-3.842,4.324,4.324,0,0,1,.076-1.65l1.159-11.047H75.173s3.25-4.937,8.074-5.517a8.2,8.2,0,0,1,7.457,3.313L106.3,525.669a2.8,2.8,0,0,1,.794,1.285,2.94,2.94,0,0,1,.138.882" transform="translate(-17.08 -142.032)" fill="#2f3f4f"/>
              <path id="Trazado_157684" data-name="Trazado 157684" d="M107.247,534.913a2.946,2.946,0,0,1-2.947,2.96H65.669a4.475,4.475,0,0,1-4.434-3.842h45.874a2.94,2.94,0,0,1,.138.882" transform="translate(-17.098 -149.11)" fill="#ffe7cf"/>
              <path id="Trazado_157685" data-name="Trazado 157685" d="M88.967,525.262a.632.632,0,0,1-.383-.13l-7.163-5.51a.63.63,0,1,1,.767-1l7.164,5.51a.63.63,0,0,1-.384,1.129" transform="translate(-22.665 -144.771)" fill="#ffe7cf"/>
              <path id="Trazado_157686" data-name="Trazado 157686" d="M13.871,150.228a.63.63,0,0,1-.355-1.151l10.954-7.428a.63.63,0,1,1,.707,1.043L14.224,150.12a.626.626,0,0,1-.353.108" transform="translate(-3.697 -39.52)" fill="#2f3f4f"/>
              <path id="Trazado_157687" data-name="Trazado 157687" d="M103.573,101.345c-4.421,1.965-11.765,7.054-11.84,7.1a.59.59,0,0,1-.353.113.618.618,0,0,1-.516-.277.626.626,0,0,1,.151-.869,109.5,109.5,0,0,1,11.059-6.764,12.364,12.364,0,0,1,1.5.693" transform="translate(-25.339 -28.104)" fill="#2f3f4f"/>
              <path id="Trazado_157688" data-name="Trazado 157688" d="M109.119,106.87c-5.353,3.048-12.457,7.658-12.558,7.721a.566.566,0,0,1-.34.1.656.656,0,0,1-.529-.278.643.643,0,0,1,.189-.882c.391-.239,7.23-4.7,12.545-7.708a9.206,9.206,0,0,1,.693,1.045" transform="translate(-26.691 -29.548)" fill="#2f3f4f"/>
              <path id="Trazado_157689" data-name="Trazado 157689" d="M112.069,115.539c-5.013,2.985-10.177,6.323-10.265,6.373a.566.566,0,0,1-.34.1.639.639,0,0,1-.529-.29.631.631,0,0,1,.189-.869c.352-.226,5.807-3.741,10.921-6.763a11.033,11.033,0,0,1,.025,1.448" transform="translate(-28.155 -31.856)" fill="#2f3f4f"/>
              <path id="Trazado_157690" data-name="Trazado 157690" d="M207.541,135.973h-.024a.628.628,0,0,1-.606-.652l1.106-30.925a.616.616,0,0,1,.652-.607.629.629,0,0,1,.606.652l-1.106,30.925a.629.629,0,0,1-.629.607" transform="translate(-57.773 -28.979)" fill="#0f0a1c"/>
            </g>
          </g>
        </g>
      </g>
    </g>
  </g>
</svg>
