<svg xmlns="http://www.w3.org/2000/svg" xmlns:xlink="http://www.w3.org/1999/xlink" width="285" height="305" viewBox="0 0 285 305">
  <defs>
    <clipPath id="clip-path">
      <rect id="Rect치ngulo_42026" data-name="Rect치ngulo 42026" width="227.112" height="261.04" fill="none"/>
    </clipPath>
  </defs>
  <g id="_107" data-name="107" transform="translate(-6971 4092)">
    <rect id="Rect치ngulo_41594" data-name="Rect치ngulo 41594" width="285" height="305" rx="14" transform="translate(6971 -4092)" fill="#ffd947"/>
    <g id="Grupo_168115" data-name="Grupo 168115" transform="translate(7000 -4070)">
      <g id="Grupo_168114" data-name="Grupo 168114" clip-path="url(#clip-path)">
        <path id="Trazado_157850" data-name="Trazado 157850" d="M227.1,49.282a139.34,139.34,0,0,0-1.594-22.209c-.87-5.877-3.822-8.442-9.015-10.126A136.579,136.579,0,0,0,194.556,11.9C179.874,9.706,164.971,8.832,150.2,7.493c-20.444-1.854-40.727-1.956-60.993-5.6C69.084-1.723,47.661-.009,28.048,5.748c-4.387,1.288-9.619,2.484-10.314,8.058-.4,3.219.16,6.591-.012,9.842a56.452,56.452,0,0,1-2.281,13.178c-1.667,5.586-1.555,25.075-.6,29.593,2.928,13.891-.282,27.882-3.312,41.415a200.269,200.269,0,0,0-4.762,41.353q-.2,12.254-1.162,24.477-1.013,12.87-2.869,25.647c-.959,6.583-3.15,13.68-2.665,20.392.346,4.784,2.815,8.46,7.343,9.554,2.715.656,5.556.32,8.309.3a46.462,46.462,0,0,1,11.292,1.381c13.7,3.313,26.121,10.552,40.211,12.353,15.019,1.919,30.2-.151,45.26,1.119,15.513,1.308,30.729,4.927,46.088,7.409a189.926,189.926,0,0,0,20.9,2.365c3.458.171,6.922.2,10.382.06,2.444-.1,5.719.185,8-1.022,1.836-.97,2.513-2.915,3.243-4.815,1.51-3.936,2.965-7.913,4.191-11.959a81.686,81.686,0,0,0,3.352-22.367c.158-7.986-.015-15.939.631-23.909.67-8.273,1.861-16.487,3.232-24.659,2.578-15.365,5.8-30.624,7.525-46.136a182.607,182.607,0,0,0,1.17-23.61c-.158-8.548-.212-16.68,2.128-24.955,2.025-7.158,3.659-14,3.77-21.527" transform="translate(0 0)" fill="#f2e5dc"/>
        <path id="Trazado_157851" data-name="Trazado 157851" d="M263.154,71.317C249.132,74.406,235.092,79.5,226.2,91.4c-.558.747.7,1.469,1.251.731,8.656-11.579,22.487-16.421,36.092-19.417.909-.2.525-1.6-.385-1.4" transform="translate(-81.081 -25.573)" fill="#dbc7ba"/>
        <path id="Trazado_157852" data-name="Trazado 157852" d="M259.712,58.664a54.768,54.768,0,0,0-13.6,5.376c-.813.454-.084,1.705.731,1.25a53.31,53.31,0,0,1,13.258-5.23.725.725,0,0,0-.385-1.4" transform="translate(-88.145 -21.033)" fill="#dbc7ba"/>
        <path id="Trazado_157853" data-name="Trazado 157853" d="M126.1,57.88a38.016,38.016,0,0,0-23.285-18.1.724.724,0,0,0-.385,1.4,36.555,36.555,0,0,1,22.419,17.435.724.724,0,0,0,1.25-.73" transform="translate(-36.557 -14.258)" fill="#dbc7ba"/>
        <path id="Trazado_157854" data-name="Trazado 157854" d="M117.856,116.872A54.714,54.714,0,0,0,92.088,103c-.907-.207-1.294,1.188-.385,1.4a53.232,53.232,0,0,1,25.129,13.5c.673.644,1.7-.378,1.024-1.024" transform="translate(-32.705 -36.934)" fill="#dbc7ba"/>
        <path id="Trazado_157855" data-name="Trazado 157855" d="M269.356,257.878c-10.515-5.91-21.789-14.372-34.121-15.58-.927-.09-.92,1.358,0,1.448,6.357.623,12,3.4,17.513,6.462,5.308,2.944,10.586,5.945,15.877,8.92a.724.724,0,0,0,.731-1.25" transform="translate(-84.124 -86.905)" fill="#dbc7ba"/>
        <path id="Trazado_157856" data-name="Trazado 157856" d="M248.192,287.145a44.216,44.216,0,0,0-13.262-13.97c-.774-.523-1.5.731-.73,1.25a42.523,42.523,0,0,1,12.742,13.451.724.724,0,0,0,1.25-.73" transform="translate(-83.884 -97.936)" fill="#dbc7ba"/>
        <path id="Trazado_157857" data-name="Trazado 157857" d="M266.648,130.909q-7.586,2.585-14.9,5.854c-.849.379-.114,1.627.73,1.25q7.148-3.19,14.552-5.708c.877-.3.5-1.7-.385-1.4" transform="translate(-90.161 -46.939)" fill="#dbc7ba"/>
        <path id="Trazado_157858" data-name="Trazado 157858" d="M70.9,274.788A63.273,63.273,0,0,0,50.475,282c-.814.455-.085,1.706.73,1.251a62.135,62.135,0,0,1,20.081-7.067c.916-.156.528-1.551-.385-1.4" transform="translate(-17.977 -98.555)" fill="#dbc7ba"/>
        <path id="Trazado_157859" data-name="Trazado 157859" d="M76.737,286.366a78.886,78.886,0,0,0-11.05,9c-.668.652.357,1.675,1.024,1.024a76.807,76.807,0,0,1,10.757-8.771c.768-.518.045-1.773-.73-1.25" transform="translate(-23.482 -102.667)" fill="#dbc7ba"/>
        <path id="Trazado_157860" data-name="Trazado 157860" d="M107.376,214.837c-6.544-5.981-17.5-4.231-25.444-2.795-.916.165-.528,1.561.385,1.4,7.3-1.32,18-3.1,24.036,2.422.686.628,1.713-.394,1.024-1.024" transform="translate(-29.199 -75.553)" fill="#dbc7ba"/>
        <path id="Trazado_157861" data-name="Trazado 157861" d="M162.754,106.176l-.541,7.691-8.145,3.891s11.9,13.572,11.921,13.753a55.056,55.056,0,0,0,7.532,3.168,26.6,26.6,0,0,0,5.339-1.086c.995-.452,12.812-9.048,12.812-9.048L195,120.427l-7.45-5.444.271-6.877Z" transform="translate(-55.26 -38.083)" fill="#ffa98f"/>
        <path id="Trazado_157862" data-name="Trazado 157862" d="M143.957,60.365c1.714,10.7,7.734,18.522,14.7,22.341,12.653,6.933,29.382,2.483,35.041-8.328,3.534-6.753,5.349-11.274,5.217-18.411-.1-5.7,1.942-11.518-.368-17.529-2.59-6.738-7.225-12.571-13.971-15.453C171.854,17.55,155.6,19.6,146.63,32.327c-4.775,6.779-4.16,16.355-3.227,24.059.162,1.329.342,2.656.554,3.979" transform="translate(-51.202 -7.231)" fill="#ffa98f"/>
        <path id="Trazado_157863" data-name="Trazado 157863" d="M222.956,76.469c.467,1.574.677,3.859,2.9,3.893,1.891.03,3.5-2.241,4.263-3.516,2.276-3.809,6.47-13.516,1.712-17.136-2.476-1.883-4.045.1-4.939,2.622a.858.858,0,0,0-.608-.195c-6.609.315-4.344,10.892-3.325,14.332" transform="translate(-79.534 -21.149)" fill="#ffa98f"/>
        <path id="Trazado_157864" data-name="Trazado 157864" d="M140.648,62.23a.859.859,0,0,0-.609.192c-.886-2.5-2.451-4.48-4.931-2.617-4.77,3.584-.6,13.236,1.66,17.024.758,1.269,2.361,3.529,4.253,3.5,2.22-.029,2.437-2.3,2.908-3.86,1.03-3.414,3.327-13.914-3.282-14.243" transform="translate(-47.673 -21.187)" fill="#ffa98f"/>
        <path id="Trazado_157865" data-name="Trazado 157865" d="M204.8,59.021c.032-.032.066-.063.1-.093,2.1-1.751,7.831-.8,8.655,1.7a.837.837,0,0,1-.828,1c-1.331-.081-2.61-.4-3.931-.53-1.158-.114-2.909.377-3.879-.285a1.129,1.129,0,0,1-.119-1.793" transform="translate(-73.318 -20.815)" fill="#ab593f"/>
        <path id="Trazado_157866" data-name="Trazado 157866" d="M166.571,57.521c-.029-.033-.06-.066-.094-.1-1.942-1.857-7.6-1.216-8.577,1.228a.821.821,0,0,0,.743,1.043c1.306-.01,2.579-.26,3.88-.317,1.14-.051,2.82.532,3.812-.076a1.142,1.142,0,0,0,.235-1.78" transform="translate(-56.62 -20.211)" fill="#ab593f"/>
        <path id="Trazado_157867" data-name="Trazado 157867" d="M144.661,69.33c.523-.792,1.852-.12,1.324.68a5.254,5.254,0,0,0,.277,6.3c.6.75-.653,1.559-1.245.816a6.673,6.673,0,0,1-.356-7.793" transform="translate(-51.497 -24.74)" fill="#e87c5a"/>
        <path id="Trazado_157868" data-name="Trazado 157868" d="M227.35,79.163c1.117-1.2,1.919-3.812.925-5.243-.545-.786.627-1.7,1.174-.916,1.395,2.009.7,5.317-.915,7.062-.646.7-1.835-.2-1.184-.9" transform="translate(-81.477 -26.077)" fill="#e87c5a"/>
        <path id="Trazado_157869" data-name="Trazado 157869" d="M152.181,77.53a3.834,3.834,0,0,1,.947-.508,8.885,8.885,0,0,1,6.386.457c1.092.484,2.266,1.592,1.336,2.794a3.3,3.3,0,0,1-1.623,1,9.575,9.575,0,0,1-5.181.229,4.29,4.29,0,0,1-1.957-.924,2.071,2.071,0,0,1-.682-1.968,2,2,0,0,1,.775-1.077" transform="translate(-54.287 -27.48)" fill="#f79274"/>
        <path id="Trazado_157870" data-name="Trazado 157870" d="M218.438,79.469a3.856,3.856,0,0,0-.9-.587,8.885,8.885,0,0,0-6.4-.093c-1.129.389-2.395,1.392-1.57,2.669A3.293,3.293,0,0,0,211.1,82.59a9.576,9.576,0,0,0,5.142.673,4.3,4.3,0,0,0,2.029-.753,2.071,2.071,0,0,0,.849-1.9,2,2,0,0,0-.679-1.139" transform="translate(-75.071 -28.062)" fill="#f79274"/>
        <path id="Trazado_157871" data-name="Trazado 157871" d="M165.45,66.943a2.2,2.2,0,0,0-.21-.338c-.848-1.124-2.135-.689-2.888.289a4.137,4.137,0,0,0-.4,3.988A1.953,1.953,0,0,0,164.271,72a2.308,2.308,0,0,0,1.169-1.379,5.3,5.3,0,0,0,.326-2.553,3.379,3.379,0,0,0-.316-1.126" transform="translate(-57.969 -23.65)" fill="#422c25"/>
        <path id="Trazado_157872" data-name="Trazado 157872" d="M210.677,69.191a2.2,2.2,0,0,0-.21-.338c-.848-1.124-2.135-.689-2.888.289a4.137,4.137,0,0,0-.4,3.988,1.953,1.953,0,0,0,2.314,1.119,2.311,2.311,0,0,0,1.17-1.379,5.308,5.308,0,0,0,.325-2.553,3.382,3.382,0,0,0-.316-1.126" transform="translate(-74.19 -24.457)" fill="#422c25"/>
        <path id="Trazado_157873" data-name="Trazado 157873" d="M186.278,80.1c-2.091-1.016-.447-3.854.1-5.447.319-.932-1.156-1.332-1.473-.406-.812,2.368-2.447,5.69.6,7.172.881.428,1.656-.89.771-1.319" transform="translate(-65.9 -26.443)" fill="#e87c5a"/>
        <path id="Trazado_157874" data-name="Trazado 157874" d="M190.2,89.407c-.308-1.629-2.22-1.076-3.345-.844a15.685,15.685,0,0,1-7.134-.431,2.111,2.111,0,0,0-2.44.56,1.956,1.956,0,0,0,.258,2.3,8.451,8.451,0,0,0,6.8,2.239,8.157,8.157,0,0,0,3.411-.89c.947-.541,2.7-1.607,2.449-2.935" transform="translate(-63.49 -31.561)" fill="#d4562f"/>
        <path id="Trazado_157875" data-name="Trazado 157875" d="M197.164,35.665c-.355-4.546-6.454-11.165-8.179-12.464a6.568,6.568,0,0,0,1.777-.655.756.756,0,0,0,.254-.228.843.843,0,0,0-.531-1.369c-1.9-.242-3.549-1.986-5.25-2.771a28.916,28.916,0,0,0-7.089-1.963q-2.236-.4-4.5-.615a29.709,29.709,0,0,0-27.521,9.508.738.738,0,0,0-.084.144,28.572,28.572,0,0,1-8.263,5.5.768.768,0,0,0,.2,1.5A10.525,10.525,0,0,0,143.289,31a31.555,31.555,0,0,0-1.05,3.494c-.812,3.241-2.475,7.192-2.2,10.542a.774.774,0,0,0,1.3.54c1.575-1.617,1.691-5.183,2.452-7.286a48.75,48.75,0,0,1,5.188-10.168,32.39,32.39,0,0,1,8.037-5.558,21.065,21.065,0,0,1-2.418,2.649c-.539.5.021,1.551.743,1.277,2.982-1.132,7.128-2.98,9.266-5.846a11.219,11.219,0,0,0,3.214,5.248c1.834,1.829,4.477,5.084,7.334,4.651a.773.773,0,0,0,.534-.94,6.719,6.719,0,0,0-2.2-3.192c-.01-.011-.019-.023-.029-.033,2.873,1.03,6.164.935,9.735.635a19.876,19.876,0,0,1,6.373,3.7c1.118.949,3.784,2.543,4.226,4.017.055.183.044.382.094.566a2.013,2.013,0,0,0,.47.724c1.945,2.3,2.031,5.369,1.982,8.233-.017,1.01,1.408.945,1.528,0a20.48,20.48,0,0,0-.709-8.586" transform="translate(-49.225 -5.409)" fill="#ab593f"/>
        <path id="Trazado_157876" data-name="Trazado 157876" d="M187.391,119.144c-5.615.852-13.48,1.6-18.614-1.34-.834-.477-1.505.853-.675,1.327,5.324,3.045,13.569,2.38,19.376,1.5.939-.143.862-1.63-.087-1.487" transform="translate(-60.157 -42.217)" fill="#e87c5a"/>
        <path id="Trazado_157877" data-name="Trazado 157877" d="M110.38,164.22c-2.876-4.935-8.346-9.481-12.534-13.266-.69-.624-1.717.4-1.024,1.024.033.029.063.061.1.09-1.351,1.083-4.55,2.768-6,3.7-2.1-2.687-11-11.562-13-11.721-1.371-.108-2.549.993-3.65,1.669-3.725,2.289-4.043,3.486-2.845,7.891A38.411,38.411,0,0,0,78.4,167.093c2.742,3.382,6.624,6.115,11.118,6.221,5.561.132,11.842-2.905,17.088-4.519,2.915-.9,5.739-1.2,3.774-4.575" transform="translate(-25.392 -51.664)" fill="#ffa98f"/>
        <path id="Trazado_157878" data-name="Trazado 157878" d="M76.008,125.961a.718.718,0,0,0-.7-.186c-.969.222-1.146.68-1.415,1.639-.475,1.7-.129,3.47-.82,4.981-1.331-2.846-3.592-8.809-7.319-6.788a25.228,25.228,0,0,0-2.269,1.839,3.6,3.6,0,0,0-2.011,3.73c-.206,1.4-.94,1.978-1.388,3.185-1.257,3.379,3.958,7.6,6.481,8.855a6.131,6.131,0,0,0,5.238.325c1.723-.764,2.118-2.067,2.61-3.448a.724.724,0,0,0,1.258.051c2.328-3.9,3.425-10.316.342-14.182" transform="translate(-21.48 -44.905)" fill="#ffa98f"/>
        <path id="Trazado_157879" data-name="Trazado 157879" d="M282.232,172.834c-.623-2.2-1.227-5.614-3.016-6.79-1.666-1.1-4.147.206-5.733.732a50.5,50.5,0,0,1-11.241,2.813,21.905,21.905,0,0,0-5.756.878l-4.058-3.406a.774.774,0,0,0-1.242.44.714.714,0,0,0-.362.262,79.37,79.37,0,0,0-5.549,8.87c-.912,1.716-4.8,7.324-4.8,7.324s9.068,6.948,12.086,7.058c5.921.215,11.22-2.787,16.468-5.429,4.267-2.148,12.667-9.048,12.667-9.048s.935-3.646.538-3.7" transform="translate(-86.251 -59.403)" fill="#ffa98f"/>
        <path id="Trazado_157880" data-name="Trazado 157880" d="M311.788,158.507a2.508,2.508,0,0,0-2.039-1.624,37.225,37.225,0,0,0-5.409.861c.273-.408.55-.813.8-1.23a2.55,2.55,0,0,0,.5-2.281c-.545-1.4-2.4-1.378-3.451-.607a11.9,11.9,0,0,0-1.864,2.443,22.815,22.815,0,0,1-2.968,2.462c-1.419,1.251-2.209,3.038-1.333,4.822a.611.611,0,0,0,.385.337c.339,3.1.9,7.361,3.35,8.905,2.856,1.8,9-1.962,11.072-3.785,2.378-2.092,2.241-7.637.954-10.3" transform="translate(-106.045 -54.913)" fill="#ffa98f"/>
        <path id="Trazado_157881" data-name="Trazado 157881" d="M213.609,288.564a106.534,106.534,0,0,0-3.065-11.461c-.667-2.033-1.305-5.973-3.163-7.394-1.765-1.35-5.01-.555-7-.223a30.858,30.858,0,0,0-20.832,13.876.8.8,0,0,0-1.083.847c.037.26.1.5.142.748a.653.653,0,0,0,.117.615,48.274,48.274,0,0,0,5.623,14.529c1.331,2.294,5.209,9.6,6.445,11.355-2.085,2.649-2.712,5.633-3.187,9.034-.339,2.427-.979,11.357-1.663,13.419-2.592,3.21.478,6.495,3.634,7.8a17.16,17.16,0,0,0,4.905.861s15.26-16.583,19.013-22.5c1.466-2.31,2.908-4.807,3.011-7.617a236.937,236.937,0,0,0-2.9-23.9" transform="translate(-64.01 -96.466)" fill="#ffa98f"/>
        <path id="Trazado_157882" data-name="Trazado 157882" d="M199.56,382.094c-.534-2.236-.719-5.144-2.327-6.925-2.025-2.242-5.473-2.187-7.685-4.34a.657.657,0,0,0-.605-.186c.428-.575.836-1.145,1.173-1.71a.724.724,0,0,0-1.25-.73c-1.443,2.413-4.9,5.571-5.124,8.474-.182,2.343,1.973,4.043,3.049,5.879,1.725,2.943,4.061,11.974,9.433,10.2,1.7-.562,2.457-2.667,3.141-4.144,1.1-2.363.792-4.013.195-6.512" transform="translate(-65.9 -131.94)" fill="#ffa98f"/>
        <path id="Trazado_157883" data-name="Trazado 157883" d="M133.931,270.3c-1.764-7.319-8.153-17.805-16.412-18.712-.042-.235.65-.714.346-.789-11.833-2.957-25.679,2.98-26.625,16.142-.542,7.545,2.708,14.9,5.313,21.8q4.393,11.64,9.306,23.072a.6.6,0,0,0,.266.3.623.623,0,0,0,.42.121c2.9-.181,8.161-.333,10.364-2.438a3.746,3.746,0,0,0,.963-2.726c.291-2.779.305-5.63.456-8.421.3-5.549,1.48-12.388-.28-17.975a48.9,48.9,0,0,0,7.512-.347c2.066-.266,5.3-.453,7.168-1.528,2.7-1.55,1.813-5.957,1.2-8.494M117.52,251.587c-.042-.235.691-.535.387-.611-11.833-2.956-25.719,2.8-26.666,15.963Z" transform="translate(-32.704 -89.687)" fill="#ffa98f"/>
        <path id="Trazado_157884" data-name="Trazado 157884" d="M206.328,149.781c-1.469-4.185-10.688-15.28-13.354-18.412-2.425-2.85-5.774-6.429-9.508-7.36-3.981-.992-6.016-3.379-10.09-3.68-1.478-.1-4.516,2.224-6.035,2.7a27.792,27.792,0,0,1-8.29,1.278,32.961,32.961,0,0,1-8.618-1.117,19.272,19.272,0,0,1-4.364-1.674c-1.254-.7-2.156-2.017-3.627-2.159a18.149,18.149,0,0,0-5.905.232,34.33,34.33,0,0,0-7.722,3.468,52.523,52.523,0,0,0-7.425,5.731c-1.558,1.5-1.9,2.139-3.477,3.664-2.773,2.676-9.479,5.481-9.857,9.725-.164,1.833,2.025,6.769,2.617,8.426,1.022,2.864,4.115,9.8,4.85,11.174,1.469,2.755,6.476-.856,6.476-.856s-1.757,4.419-1.629,7.3c.089,2,.059,9.333.181,12.487s-1.179,7.869-1.623,11.039c-.46,3.294,0,9.229.9,11.627a24.257,24.257,0,0,1,10.887,9.165,39.149,39.149,0,0,1,4.46,10.319,53.853,53.853,0,0,1,1.206,5.442c.2,1.162.035,3.835.9,4.693.79.782,3.228.617,4.312.773,1.7.245,3.4.516,5.108.741,1.773.234,5.766,1.258,7.319-.105,6-5.27,8.272-9.61,15.481-13.067a33.266,33.266,0,0,1,8.029-2.191c3.1-.432,7.015,1.619,7.015,1.619s2.077-8.808,2.2-10.557c.578-8.376.986-13.138,1.669-21.534.494-6.073-.06-20.589-.06-20.589s2.315,1.959,3.5,2.229c2.592.591,4.294-2.681,5.585-4.369a127.84,127.84,0,0,0,7.32-10.91c1.389-2.264,2.505-2.594,1.571-5.254" transform="translate(-38.753 -42.765)" fill="#fff"/>
        <path id="Trazado_157885" data-name="Trazado 157885" d="M126.543,343.079c-1.125-2.089-1.562-6.572-1.437-9.01.045-.866-1.189-.914-1.4-.173a.706.706,0,0,0-1.174.535,12.6,12.6,0,0,0,.4,2.578,36.187,36.187,0,0,1-9.294,3.244.729.729,0,0,0-.532.7c.135,3.7.083,7.378-.132,11.064-.251,1.17-.5,2.343-.679,3.545a6.6,6.6,0,0,0,.652,4.663c1.452,2.427,5.277,5.635,8.328,4.664,3.823-1.218,3.78-6.574,4.253-9.724.689-4.6,3.363-7.732,1.019-12.084" transform="translate(-40.226 -119.574)" fill="#ffa98f"/>
        <path id="Trazado_157886" data-name="Trazado 157886" d="M76.369,138.044c-1.988,1.328-3.79,3.37-3.03,5.928a.724.724,0,0,0,1.4-.385c-.564-1.9.927-3.333,2.365-4.293.772-.515.047-1.769-.73-1.25" transform="translate(-26.241 -49.468)" fill="#e87c5a"/>
        <path id="Trazado_157887" data-name="Trazado 157887" d="M71.95,131.23,69.3,127.649c-.548-.741-1.8-.02-1.25.73l2.645,3.581c.548.741,1.8.021,1.25-.73" transform="translate(-24.36 -45.673)" fill="#e87c5a"/>
        <path id="Trazado_157888" data-name="Trazado 157888" d="M67.611,135.167q-1.248-1.134-2.424-2.342c-.651-.668-1.674.356-1.024,1.024q1.177,1.207,2.424,2.341c.688.625,1.715-.4,1.024-1.024" transform="translate(-22.939 -47.563)" fill="#e87c5a"/>
        <path id="Trazado_157889" data-name="Trazado 157889" d="M65.02,140.562l-1.787-1.831c-.652-.668-1.676.356-1.024,1.024L64,141.585c.652.668,1.675-.356,1.024-1.024" transform="translate(-22.238 -49.681)" fill="#e87c5a"/>
        <path id="Trazado_157890" data-name="Trazado 157890" d="M102.5,164.3c-.089-.919-1.538-.928-1.447,0q.2,2.075.308,4.157c.047.927,1.5.932,1.447,0q-.107-2.082-.308-4.157" transform="translate(-36.242 -58.681)" fill="#e87c5a"/>
        <path id="Trazado_157891" data-name="Trazado 157891" d="M306.6,162.326a11.191,11.191,0,0,1-1.5,2.935c-.539.763.716,1.487,1.25.731A12.483,12.483,0,0,0,308,162.711c.3-.886-1.1-1.266-1.4-.385" transform="translate(-109.384 -58.043)" fill="#e87c5a"/>
        <path id="Trazado_157892" data-name="Trazado 157892" d="M316.437,162.3a21.849,21.849,0,0,1-3.658,2.265c-.836.41-.1,1.659.731,1.25a21.868,21.868,0,0,0,3.658-2.265c.73-.558.01-1.816-.73-1.25" transform="translate(-112.053 -58.162)" fill="#e87c5a"/>
        <path id="Trazado_157893" data-name="Trazado 157893" d="M316.679,168.2a31.482,31.482,0,0,1-2.917,1.909.724.724,0,0,0,.73,1.25,31.067,31.067,0,0,0,2.917-1.909c.742-.547.021-1.8-.731-1.25" transform="translate(-112.412 -60.28)" fill="#e87c5a"/>
        <path id="Trazado_157894" data-name="Trazado 157894" d="M317.334,174.084a5.38,5.38,0,0,1-2.052.6c-.931-.06-.927,1.388,0,1.448a6.1,6.1,0,0,0,2.437-.652c.865-.322.491-1.722-.385-1.4" transform="translate(-112.834 -62.422)" fill="#e87c5a"/>
        <path id="Trazado_157895" data-name="Trazado 157895" d="M131.89,284c-.367-.854-1.615-.117-1.251.73a16.536,16.536,0,0,1,1.329,6.155.725.725,0,0,0,1.449,0A18.446,18.446,0,0,0,131.89,284" transform="translate(-46.833 -101.728)" fill="#e87c5a"/>
        <path id="Trazado_157896" data-name="Trazado 157896" d="M123.046,376.051a21.121,21.121,0,0,0-.321,2.723c-.047.931,1.4.929,1.448,0a18.026,18.026,0,0,1,.269-2.338c.167-.911-1.228-1.3-1.4-.385" transform="translate(-44.018 -134.692)" fill="#e87c5a"/>
        <path id="Trazado_157897" data-name="Trazado 157897" d="M118.812,375.624a6.1,6.1,0,0,0-.246,1.465c-.049.931,1.4.929,1.447,0a4.453,4.453,0,0,1,.195-1.081.725.725,0,0,0-1.4-.385" transform="translate(-42.526 -134.545)" fill="#e87c5a"/>
        <path id="Trazado_157898" data-name="Trazado 157898" d="M114.579,372.121a4.661,4.661,0,0,0-.308,1.547c-.037.932,1.411.93,1.447,0a3.482,3.482,0,0,1,.257-1.163c.339-.868-1.061-1.245-1.4-.385" transform="translate(-40.986 -133.296)" fill="#e87c5a"/>
        <path id="Trazado_157899" data-name="Trazado 157899" d="M200.317,400.572c-.786-.507-1.512.746-.73,1.25a2.6,2.6,0,0,1,1.169,1.923c.127.919,1.522.528,1.4-.385a3.962,3.962,0,0,0-1.835-2.788" transform="translate(-71.466 -143.632)" fill="#e87c5a"/>
        <path id="Trazado_157900" data-name="Trazado 157900" d="M204.667,399.762a2.668,2.668,0,0,0-.822-.877c-.761-.54-1.485.715-.73,1.25a.767.767,0,0,1,.3.358.724.724,0,0,0,1.25-.73" transform="translate(-72.738 -143.022)" fill="#e87c5a"/>
        <path id="Trazado_157901" data-name="Trazado 157901" d="M206.938,396.777l-.454-.723c-.494-.788-1.747-.062-1.25.731l.454.723c.494.788,1.747.062,1.25-.73" transform="translate(-73.571 -141.933)" fill="#e87c5a"/>
        <path id="Trazado_157902" data-name="Trazado 157902" d="M224.025,335.3c-.3-.875-1.7-.5-1.4.385a7.75,7.75,0,0,1,.364,3.6c-.119.922,1.33.913,1.448,0a8.7,8.7,0,0,0-.416-3.989" transform="translate(-79.836 -120.084)" fill="#e87c5a"/>
        <path id="Trazado_157903" data-name="Trazado 157903" d="M110.177,274.179a9.946,9.946,0,0,0-.264,3.271c.08.921,1.529.929,1.447,0a8.694,8.694,0,0,1,.213-2.887c.223-.9-1.173-1.29-1.4-.385" transform="translate(-39.409 -98.156)" fill="#e87c5a"/>
        <path id="Trazado_157904" data-name="Trazado 157904" d="M191.177,26.709a10.641,10.641,0,0,1-3.445-4.561c-.348-.881-1.787-.5-1.435.4A12.485,12.485,0,0,0,190.425,28c.762.58,1.5-.712.752-1.286" transform="translate(-66.8 -7.765)" fill="#943f24"/>
        <path id="Trazado_157905" data-name="Trazado 157905" d="M204.159,26.367a28.547,28.547,0,0,1-9.455-5.327c-.727-.616-1.785.432-1.053,1.052a30.536,30.536,0,0,0,10.112,5.71c.91.306,1.3-1.131.4-1.435" transform="translate(-69.369 -7.479)" fill="#943f24"/>
        <path id="Trazado_157906" data-name="Trazado 157906" d="M130.033,156.64a63.177,63.177,0,0,0-2.147,7.337c-.924-3.995-1.941-7.964-3.116-11.9a.725.725,0,0,0-1.4.385q2.147,7.189,3.738,14.517a.687.687,0,0,0,.109.247c-.185,1.052-.354,2.108-.49,3.175-.117.922,1.331.913,1.448,0a62.41,62.41,0,0,1,3.25-13.38c.317-.878-1.081-1.256-1.4-.385" transform="translate(-44.239 -54.366)" fill="#ebded3"/>
        <path id="Trazado_157907" data-name="Trazado 157907" d="M231.766,167.016a99.91,99.91,0,0,1-.882,14.459c-.123.92,1.326.911,1.448,0a99.913,99.913,0,0,0,.882-14.459.724.724,0,0,0-1.447,0" transform="translate(-82.809 -59.654)" fill="#ebded3"/>
        <path id="Trazado_157908" data-name="Trazado 157908" d="M141.248,255.036c-2.927-4.124-6.935-8.65-12.068-9.774-.911-.2-1.081,1.24-.178,1.437,5.068,1.109,9.043,6.087,11.777,10.2a37.671,37.671,0,0,1,5.7,14.8.724.724,0,0,0,1.432-.21,39.332,39.332,0,0,0-6.665-16.459" transform="translate(-46.055 -87.963)" fill="#ebded3"/>
        <path id="Trazado_157909" data-name="Trazado 157909" d="M203.474,266.353c-10.586,2.018-20.885,7.137-25.295,17.538-.359.848.888,1.587,1.25.73,4.275-10.084,14.176-14.918,24.429-16.873.914-.174.527-1.57-.385-1.4" transform="translate(-63.885 -95.528)" fill="#ebded3"/>
        <path id="Trazado_157910" data-name="Trazado 157910" d="M181.047,129.845c-.114-.912-1.564-.924-1.447,0,.952,7.6-1.1,14.9-2.141,22.374-.995,7.123.78,14.327-.635,21.351-.616,3.059-1.528,5.963-1.285,9.123.267,3.473,1.56,6.769,1.464,10.288-.11,4.038-1.256,8.191-1.973,12.156l-2.074,11.483c-.165.911,1.23,1.3,1.4.385,1.294-7.159,2.908-14.343,3.856-21.557.451-3.427-.087-6.354-.725-9.717-.891-4.7.181-8.461.994-13.045a37.2,37.2,0,0,0,.1-9.239,53.794,53.794,0,0,1,.468-12.136c1.088-7.17,2.915-14.161,2-21.465" transform="translate(-62.03 -46.325)" fill="#ebded3"/>
        <path id="Trazado_157911" data-name="Trazado 157911" d="M185.829,134.827a3.011,3.011,0,0,0-4.918-1.437c-.026.026-.043.061-.069.087a2.193,2.193,0,0,0-.9,1.2,4.063,4.063,0,0,0,.077,2.78,2.6,2.6,0,0,0,2.88,1.472,3.385,3.385,0,0,0,2.926-4.106" transform="translate(-64.468 -47.56)" fill="#ffbf87"/>
        <path id="Trazado_157912" data-name="Trazado 157912" d="M182.176,135.992a.724.724,0,0,0,0,1.447.724.724,0,0,0,0-1.447" transform="translate(-65.091 -48.777)" fill="#fff"/>
        <path id="Trazado_157913" data-name="Trazado 157913" d="M186.315,135.992a.724.724,0,0,0,0,1.447.724.724,0,0,0,0-1.447" transform="translate(-66.575 -48.777)" fill="#fff"/>
        <path id="Trazado_157914" data-name="Trazado 157914" d="M179.92,160.4a3.02,3.02,0,0,0-2.506,3.234,3.087,3.087,0,0,0,2.064,3.337c2.033.618,3.718-1.015,3.977-2.94a3.218,3.218,0,0,0-3.536-3.631" transform="translate(-63.628 -57.521)" fill="#ffbf87"/>
        <path id="Trazado_157915" data-name="Trazado 157915" d="M180.062,164.035a.724.724,0,0,0,0,1.447.724.724,0,0,0,0-1.447" transform="translate(-64.333 -58.835)" fill="#fff"/>
        <path id="Trazado_157916" data-name="Trazado 157916" d="M184.295,164.176a.724.724,0,0,0,0,1.447.724.724,0,0,0,0-1.447" transform="translate(-65.851 -58.886)" fill="#fff"/>
        <path id="Trazado_157917" data-name="Trazado 157917" d="M181.683,188.632c-1.295-1.049-3.616-1.081-4.581.481a3.9,3.9,0,0,0-.482,2.38,3.746,3.746,0,0,0,.732,2.035,3.007,3.007,0,0,0,3.849.578,3.718,3.718,0,0,0,1.621-3.882,3.517,3.517,0,0,0-1.138-1.592" transform="translate(-63.342 -67.39)" fill="#ffbf87"/>
        <path id="Trazado_157918" data-name="Trazado 157918" d="M178.814,191.9a.724.724,0,0,0,0,1.447.724.724,0,0,0,0-1.447" transform="translate(-63.885 -68.828)" fill="#fff"/>
        <path id="Trazado_157919" data-name="Trazado 157919" d="M183.47,191.755a.724.724,0,0,0,0,1.447.724.724,0,0,0,0-1.447" transform="translate(-65.555 -68.778)" fill="#fff"/>
        <path id="Trazado_157920" data-name="Trazado 157920" d="M181.483,217.42a3,3,0,0,0-1.238-1.454c-2.1-1.226-4.8.914-4.809,3.144a3.226,3.226,0,0,0,1.241,2.534,2.607,2.607,0,0,0,1.258.537,3.677,3.677,0,0,0,3.738-2.857,3.264,3.264,0,0,0-.19-1.9" transform="translate(-62.924 -77.333)" fill="#ffbf87"/>
        <path id="Trazado_157921" data-name="Trazado 157921" d="M177.065,219.924v.09a.724.724,0,0,0,1.447,0v-.09a.724.724,0,0,0-1.447,0" transform="translate(-63.509 -78.63)" fill="#fff"/>
        <path id="Trazado_157922" data-name="Trazado 157922" d="M182.317,219.751a.724.724,0,0,0,0,1.447.724.724,0,0,0,0-1.447" transform="translate(-65.142 -78.819)" fill="#fff"/>
        <path id="Trazado_157923" data-name="Trazado 157923" d="M178.444,243.225c-2.3-3.783-7.114-.121-4.959,3.442a3.118,3.118,0,0,0,3.144,1.5c1.576-.259,1.965-1.329,2.241-2.738a3.127,3.127,0,0,0-.425-2.2" transform="translate(-62.03 -86.665)" fill="#ffbf87"/>
        <path id="Trazado_157924" data-name="Trazado 157924" d="M175.686,245.429a.724.724,0,0,0,0,1.447.724.724,0,0,0,0-1.447" transform="translate(-62.763 -88.029)" fill="#fff"/>
        <path id="Trazado_157925" data-name="Trazado 157925" d="M178.617,246.449v.09a.724.724,0,0,0,1.447,0v-.09a.724.724,0,0,0-1.447,0" transform="translate(-64.065 -88.144)" fill="#fff"/>
      </g>
    </g>
  </g>
</svg>
