<svg id="Grupo_169119" data-name="Grupo 169119" xmlns="http://www.w3.org/2000/svg" xmlns:xlink="http://www.w3.org/1999/xlink" width="188.879" height="198.694" viewBox="0 0 188.879 198.694">
  <defs>
    <clipPath id="clip-path">
      <rect id="Rect치ngulo_42375" data-name="Rect치ngulo 42375" width="13.212" height="5.155" fill="none"/>
    </clipPath>
    <clipPath id="clip-path-2">
      <rect id="Rect치ngulo_42376" data-name="Rect치ngulo 42376" width="69.775" height="69.775" fill="none"/>
    </clipPath>
  </defs>
  <g id="Grupo_169200" data-name="Grupo 169200">
    <g id="Grupo_169117" data-name="Grupo 169117">
      <g id="Grupo_169201" data-name="Grupo 169201">
        <path id="Trazado_159097" data-name="Trazado 159097" d="M188.879,105.231a92.99,92.99,0,0,1-11.475,44.89q-1.523,2.787-3.24,5.453c-.609.969-1.249,1.918-1.9,2.857a94.629,94.629,0,0,1-24.707,24.434c-.143.111-.284.2-.426.293a93.92,93.92,0,0,1-38.68,14.943,1.951,1.951,0,0,1-.244.03,95.363,95.363,0,0,1-26.088.2,94.131,94.131,0,0,1-42.406-16.578c-.081-.061-.162-.111-.244-.172a96.449,96.449,0,0,1-8.886-7.189c-.68-.616-1.351-1.242-2.01-1.888a94.14,94.14,0,0,1-9.831-11.117c-.65-.868-1.289-1.746-1.909-2.646-1.188-1.686-2.315-3.423-3.392-5.189-.173-.273-.335-.555-.5-.839-1.492-2.534-2.884-5.149-4.143-7.845-.041-.08-.081-.161-.112-.242-.091-.182-.182-.374-.264-.555a92.606,92.606,0,0,1-7.88-28.7c-.01-.091-.021-.181-.03-.282A93.836,93.836,0,0,1,6.154,71.821c.081-.2.152-.394.233-.6A94.412,94.412,0,0,1,57.9,18.621c.092-.04.183-.08.274-.111a93.97,93.97,0,0,1,21.011-5.957c.162-.03.335-.06.507-.081a95.9,95.9,0,0,1,14.745-1.141,94.28,94.28,0,0,1,50.074,14.288c.162.091.325.192.487.293a93.964,93.964,0,0,1,16.776,13.5,1.156,1.156,0,0,1,.193.192,93.606,93.606,0,0,1,20.879,32.552,2.649,2.649,0,0,1,.1.252,92.841,92.841,0,0,1,4.926,19.1c.02.091.03.192.041.282a93.191,93.191,0,0,1,.964,13.439" transform="translate(0 -0.629)" fill="#ffca00"/>
        <path id="Trazado_159098" data-name="Trazado 159098" d="M7.547,72.242c.081-.2.151-.394.232-.6,8.532-8.754,17.69-17.023,26.726-25.181,5.412-4.887,11.006-9.935,16.336-14.973C54.5,28.029,58.385,23.97,59,19.042c.091-.041.181-.08.272-.111C58.7,24,54.739,28.149,51.024,31.673c-5.341,5.048-10.936,10.1-16.347,14.984C25.5,54.937,16.2,63.337,7.547,72.242" transform="translate(-0.419 -1.05)" fill="#ffece0"/>
        <path id="Trazado_159099" data-name="Trazado 159099" d="M1.644,115.445c-.01-.091-.02-.181-.03-.282a92.1,92.1,0,0,0,28.362-34.3c.5-1.06,1-2.16,1.484-3.221,2.06-4.564,4.18-9.279,7.694-12.9,2.878-2.979,6.553-5.089,10.106-7.119,3.534-2.019,7.179-4.11,10.036-7.057,4.584-4.736,6.695-11.2,8.734-17.447,1.7-5.169,3.443-10.521,6.593-14.973a27.506,27.506,0,0,1,5.21-5.523c.162-.031.333-.061.505-.081a27.488,27.488,0,0,0-5.513,5.745c-3.12,4.422-4.866,9.753-6.553,14.912-2.05,6.281-4.179,12.762-8.793,17.539-2.878,2.978-6.543,5.068-10.1,7.107-3.534,2.019-7.2,4.12-10.047,7.068-3.483,3.605-5.6,8.3-7.653,12.833C31.208,78.8,30.7,79.9,30.2,80.975a92.265,92.265,0,0,1-28.554,34.47" transform="translate(-0.09 -0.696)" fill="#ffece0"/>
        <path id="Trazado_159100" data-name="Trazado 159100" d="M146.546,46.913a13.964,13.964,0,0,1-9.037,7.26c-4.927,1.121-9.854-.616-14.61-2.292a63.628,63.628,0,0,0-6.674-2.069c-9.712-2.241-20.829.717-29.715,7.906-7.35,5.947-13.358,14.691-17.841,26-1.07,2.705-2.05,5.512-3,8.239-2.545,7.32-5.189,14.892-9.915,21.152-6.422,8.511-16.3,13.984-25,18.8-6.846,3.8-14.409,7.987-20.426,13.8-.041-.08-.08-.162-.111-.242,6.038-5.816,13.58-10,20.416-13.772,8.684-4.816,18.528-10.269,24.919-18.74,4.7-6.229,7.34-13.781,9.884-21.092.939-2.715,1.918-5.533,3-8.239,4.5-11.348,10.521-20.132,17.912-26.1,8.956-7.24,20.143-10.218,29.936-7.966a64.114,64.114,0,0,1,6.695,2.09c4.725,1.665,9.612,3.382,14.468,2.272a13.677,13.677,0,0,0,8.876-7.128,19.713,19.713,0,0,0,1.232-15.731,23.313,23.313,0,0,0-2.292-4.6c.162.092.323.193.485.293a24.23,24.23,0,0,1,2.04,4.221,19.926,19.926,0,0,1-1.242,15.943" transform="translate(-0.567 -1.468)" fill="#ffece0"/>
        <path id="Trazado_159101" data-name="Trazado 159101" d="M103.262,122.157c-.333.8-.667,1.606-1.01,2.393A113.065,113.065,0,0,1,42.863,183.4c-.08-.06-.162-.111-.242-.172a112.775,112.775,0,0,0,59.4-58.783c.344-.788.676-1.586,1.01-2.393,2.646-6.351,5.382-12.913,11.066-16.619a33.146,33.146,0,0,1,7.653-3.312c1.363-.454,2.777-.928,4.129-1.494,9.713-4.039,17.882-13.247,24.273-27.362,1.777-3.918,3.372-8.007,4.917-11.965,2.665-6.805,5.411-13.822,9.157-20.244a1.113,1.113,0,0,1,.192.192c-3.736,6.381-6.461,13.368-9.107,20.143-1.555,3.958-3.15,8.058-4.928,11.976-6.411,14.175-14.63,23.424-24.414,27.493-1.353.566-2.766,1.04-4.139,1.5a33.314,33.314,0,0,0-7.593,3.281c-5.624,3.665-8.34,10.188-10.975,16.508" transform="translate(-2.365 -2.278)" fill="#ffece0"/>
        <path id="Trazado_159102" data-name="Trazado 159102" d="M189.275,75.979c-25.132,25.969-44.568,51.857-59.268,78.906-7.178,13.217-11.45,23.667-13.852,33.895-.859,3.645-1.717,8.35-.949,12.894a1.939,1.939,0,0,1-.243.03c-.777-4.584.08-9.309.949-12.974,2.4-10.258,6.684-20.729,13.873-33.966,14.732-27.09,34.208-53.028,59.388-79.037.041.08.071.172.1.252" transform="translate(-6.361 -4.202)" fill="#ffece0"/>
        <path id="Trazado_159103" data-name="Trazado 159103" d="M196.5,96.5c-.3.172-.6.364-.889.555-7.764,5.18-12.248,13.822-15.276,20.779-4.645,10.642-7.976,22.122-11.208,33.218-3.584,12.318-7.24,24.909-12.753,36.521-.141.111-.282.2-.423.293,5.613-11.713,9.319-24.445,12.933-36.884,3.231-11.106,6.563-22.586,11.218-33.248,3.049-6.988,7.542-15.67,15.367-20.891.323-.212.656-.424.989-.625a2.636,2.636,0,0,1,.041.282" transform="translate(-8.653 -5.339)" fill="#ffece0"/>
        <path id="Trazado_159104" data-name="Trazado 159104" d="M82.687,206.047c-1.222-.161-2.443-.343-3.655-.555a3.815,3.815,0,0,1-.495-.091c-.363-.051-.726-.121-1.09-.192-.131-.021-.273-.051-.414-.081-.536-.1-1.081-.212-1.616-.323-1.191-.252-2.383-.525-3.554-.827-.424-.1-.838-.213-1.251-.324-.505-.131-1.01-.262-1.5-.414-1.12-.323-2.241-.656-3.342-1.019-.485-.152-.96-.314-1.434-.485q-2.621-.893-5.15-1.949c-.687-.282-1.373-.565-2.039-.868-.747-.323-1.494-.667-2.232-1.01-.827-.394-1.636-.788-2.443-1.2-.6-.3-1.2-.616-1.787-.929-.06-.03-.111-.06-.162-.091-.656-.353-1.3-.706-1.938-1.07-.081-.05-.162-.091-.243-.142-.626-.353-1.242-.717-1.858-1.09q-2.635-1.59-5.139-3.342c-.343-.232-.676-.465-1.01-.717a.609.609,0,0,1-.081-.051c-.646-.465-1.282-.928-1.918-1.413-.2-.152-.4-.314-.605-.465-.676-.525-1.343-1.05-2.009-1.6-.2-.161-.394-.323-.6-.485-.343-.283-.687-.576-1.03-.869-.1-.091-.213-.181-.314-.272-.788-.676-1.565-1.363-2.332-2.07-.273-.242-.536-.495-.808-.737-.4-.383-.8-.768-1.192-1.151-.171-.162-.332-.323-.494-.494-.818-.809-1.626-1.626-2.413-2.464a.794.794,0,0,1-.092-.1q-.56-.591-1.09-1.181-1.227-1.333-2.392-2.727c-.314-.373-.626-.747-.929-1.131-.808-.989-1.6-2-2.362-3.019-.647-.869-1.283-1.747-1.9-2.646-1.182-1.686-2.3-3.423-3.373-5.19-.08-.131-.162-.263-.231-.4-.092-.142-.182-.282-.263-.434,6.674-5.886,12.237-8.713,16.5-9.834a.08.08,0,0,0,.03-.009,18.829,18.829,0,0,1,3.261-.555c3.17-.243,5.26.586,6.119,1.5a2.116,2.116,0,0,1,.141.162c1.9,2.413,21.315,28.019,31.109,39.186a143.592,143.592,0,0,1,9.027,11.247c1.242,1.747,2.08,3.05,2.595,3.918" transform="translate(-0.772 -8.322)" fill="#7282ff"/>
        <path id="Trazado_159105" data-name="Trazado 159105" d="M177.454,152.265q-1.515,2.787-3.221,5.453c-.605.969-1.242,1.918-1.888,2.857L31.475,176.538a93.386,93.386,0,0,1-11.772-13c-.646-.869-1.283-1.746-1.9-2.646-1.182-1.686-2.3-3.423-3.372-5.189.393-5.169,2.806-10.249,5.553-14.762,5.432-8.936,12.7-17.215,22.324-21.344,3.13-1.342,6.594-2.311,8.915-4.816a9.253,9.253,0,0,0,1.7-9.6c-1.232-2.918-3.867-4.978-5.634-7.613A15.551,15.551,0,0,1,45.721,83.87a18.052,18.052,0,0,1,9.522-10.156c3.635-1.656,7.754-2.181,11.217-4.19A14.968,14.968,0,0,0,73.4,60.386c.889-3.463,6-6.734,9.117-8.472a44.05,44.05,0,0,1,32.522-3.886,20.652,20.652,0,0,1,8.007,3.837c6.866,5.836,6.6,17.185,13.307,23.2,5.231,4.706,13.328,4.867,18.841,9.249a15.218,15.218,0,0,1,5.643,11.712c-.009,4.008-1.6,7.814-2.7,11.662s-1.645,8.2.293,11.7c2.252,4.1,7.139,5.826,10.814,8.724,4.534,3.573,7.27,9.106,8.209,14.8a32.571,32.571,0,0,1,0,9.35" transform="translate(-0.801 -2.581)" fill="#502750"/>
        <path id="Trazado_159106" data-name="Trazado 159106" d="M174.543,161.025c-.605.969-1.242,1.918-1.888,2.857a93.91,93.91,0,0,1-152.643,2.958c.575-.808,1.221-1.7,1.918-2.645,8.027-11.117,22.627-30.906,30.573-39.337,10.773-11.43,37.247-9.047,40.72-9.38a.741.741,0,0,0,.353-.071c1.03-.687,2.06-9.107,2.06-9.107l12.379-.172,1.494,7.946.222,1.161s15.932-1.251,27.15,3.09c13.751,5.331,13.58,8.248,18.739,14.61,3.474,4.291,13.055,18.991,18.922,28.089" transform="translate(-1.11 -5.888)" fill="#ff8c9c"/>
        <g id="Grupo_169112" data-name="Grupo 169112" transform="translate(94.27 101.658)" opacity="0.39">
          <g id="Grupo_169111" data-name="Grupo 169111">
            <g id="Grupo_169110" data-name="Grupo 169110" clip-path="url(#clip-path)">
              <path id="Trazado_159107" data-name="Trazado 159107" d="M99.872,107.758s7.412,1.1,13.147-.129c0,0-1.61,5.156-6.7,5.156a6.9,6.9,0,0,1-6.509-4.769" transform="translate(-99.807 -107.63)" fill="#502750"/>
            </g>
          </g>
        </g>
        <path id="Trazado_159108" data-name="Trazado 159108" d="M69.454,78.985A6.937,6.937,0,0,0,67.5,85.777a7.966,7.966,0,0,0,4.84,5.271,9.365,9.365,0,0,0,7.225-.349c3.31-1.55,3.257-7.182,1.149-9.834-2.593-3.262-7.914-4.885-11.263-1.88" transform="translate(-3.733 -4.294)" fill="#ff8c9c"/>
        <path id="Trazado_159109" data-name="Trazado 159109" d="M71.448,80.973a12.481,12.481,0,0,1,7.433,7.819" transform="translate(-3.964 -4.493)" fill="none" stroke="#502750" stroke-linecap="round" stroke-linejoin="round" stroke-width="0.481"/>
        <path id="Trazado_159110" data-name="Trazado 159110" d="M70.358,86.6a17.013,17.013,0,0,1,4.459.086,6.307,6.307,0,0,1,3.823,2.133" transform="translate(-3.904 -4.799)" fill="none" stroke="#502750" stroke-linecap="round" stroke-linejoin="round" stroke-width="0.481"/>
        <path id="Trazado_159111" data-name="Trazado 159111" d="M139.679,77.52a6.938,6.938,0,0,1,2.23,6.705,7.96,7.96,0,0,1-4.615,5.468,9.362,9.362,0,0,1-7.233-.048c-3.371-1.41-3.553-7.039-1.558-9.778,2.455-3.367,7.7-5.211,11.176-2.347" transform="translate(-7.058 -4.223)" fill="#ff8c9c"/>
        <path id="Trazado_159112" data-name="Trazado 159112" d="M138.207,79.574a12.478,12.478,0,0,0-7.1,8.122" transform="translate(-7.274 -4.415)" fill="none" stroke="#502750" stroke-linecap="round" stroke-linejoin="round" stroke-width="0.481"/>
        <path id="Trazado_159113" data-name="Trazado 159113" d="M139.467,85.155a17,17,0,0,0-4.452.272,6.311,6.311,0,0,0-3.732,2.29" transform="translate(-7.284 -4.723)" fill="none" stroke="#502750" stroke-linecap="round" stroke-linejoin="round" stroke-width="0.481"/>
        <path id="Trazado_159114" data-name="Trazado 159114" d="M130.222,66.424l-.124,0a26.294,26.294,0,0,0-52.247,2.439c-.5,8.867-3.176,17.863.761,26.437,2.351,5.118,6.224,6.753,11.481,7.975a63.447,63.447,0,0,0,19.706,1.417c6.7-.571,17.97-1.877,19.563-10.086,2.235-11.515.859-28.185.859-28.185" transform="translate(-4.244 -2.446)" fill="#ff8c9c"/>
        <path id="Trazado_159115" data-name="Trazado 159115" d="M95.218,81.591a2.664,2.664,0,1,1-2.664-2.664,2.663,2.663,0,0,1,2.664,2.664" transform="translate(-4.987 -4.379)" fill="#502750"/>
        <path id="Trazado_159116" data-name="Trazado 159116" d="M121.147,81.591a2.664,2.664,0,1,1-2.664-2.664,2.663,2.663,0,0,1,2.664,2.664" transform="translate(-6.426 -4.379)" fill="#502750"/>
        <path id="Trazado_159117" data-name="Trazado 159117" d="M89.611,74.559a2.525,2.525,0,0,0-1.22.907,1.021,1.021,0,0,0,.222,1.371,1.427,1.427,0,0,0,.691.153,16.743,16.743,0,0,0,3.582-.259,3.517,3.517,0,0,0,1.42-.481c1.226-.844.376-2.353-.838-2.624-1.123-.252-2.866.5-3.856.932" transform="translate(-4.895 -4.082)" fill="#502750"/>
        <path id="Trazado_159118" data-name="Trazado 159118" d="M121.54,74.559a2.525,2.525,0,0,1,1.22.907,1.021,1.021,0,0,1-.222,1.371,1.428,1.428,0,0,1-.691.153,16.743,16.743,0,0,1-3.582-.259,3.517,3.517,0,0,1-1.42-.481c-1.226-.844-.376-2.353.838-2.624,1.123-.252,2.866.5,3.856.932" transform="translate(-6.45 -4.082)" fill="#502750"/>
        <path id="Trazado_159119" data-name="Trazado 159119" d="M107.185,77.916q.681,5.4,1.6,10.768a28.879,28.879,0,0,0-2.462-1.859" transform="translate(-5.899 -4.323)" fill="none" stroke="#502750" stroke-linecap="round" stroke-linejoin="round" stroke-width="0.535"/>
        <path id="Trazado_159120" data-name="Trazado 159120" d="M104.134,91.576a7.268,7.268,0,0,0,3.63,1.064,4.112,4.112,0,0,0,3.313-1.612" transform="translate(-5.778 -5.05)" fill="none" stroke="#502750" stroke-linecap="round" stroke-linejoin="round" stroke-width="0.535"/>
        <path id="Trazado_159121" data-name="Trazado 159121" d="M132.446,76.454a21.277,21.277,0,0,1-10.267-.484,12.99,12.99,0,0,1-3.917-1.577c-3.773-2.418-5.243-7.354-4.9-11.823a5.922,5.922,0,0,0-.191-2.924,4.066,4.066,0,0,0-3.419-1.983c-2.122-.22-4.239.325-6.361.545a15.41,15.41,0,0,1-9.836-2,10.111,10.111,0,0,1-4.853-8.491,49.436,49.436,0,0,1,23.75-4.737A24.762,24.762,0,0,1,118.382,44c5.913,1.915,10.362,7.107,12.59,12.909s1.851,13.339,1.474,19.543" transform="translate(-4.921 -2.379)" fill="#502750"/>
        <path id="Trazado_159122" data-name="Trazado 159122" d="M88,47.9c-9.1,5.54-14.6,15.611-15.138,26.255a7.254,7.254,0,0,1,3.874,4.522,28.872,28.872,0,0,0,5.295-1.7,12.506,12.506,0,0,0,4.034-2.772,6.038,6.038,0,0,0,1.675-4.486c-.134-1.424-.911-2.784-.74-4.2.237-1.972,2.152-3.246,3.909-4.17s3.731-1.979,4.288-3.885c.467-1.6-.241-3.3-1.132-4.712C92.8,50.76,89.938,49.253,88,47.9" transform="translate(-4.043 -2.658)" fill="#502750"/>
        <path id="Trazado_159123" data-name="Trazado 159123" d="M76.873,78.646l-.128,7.476,6.444-8.378Z" transform="translate(-4.258 -4.313)" fill="#502750"/>
        <path id="Trazado_159124" data-name="Trazado 159124" d="M134.624,76.556l-1.117,8.034L128.738,75.7Z" transform="translate(-7.143 -4.2)" fill="#502750"/>
        <path id="Trazado_159125" data-name="Trazado 159125" d="M174.543,161.492c-.605.969-1.242,1.918-1.888,2.857a94.431,94.431,0,0,1-20.224,21.3h-.009c-1.151.888-2.323,1.746-3.524,2.584a93.281,93.281,0,0,1-21.628,11.208,90.854,90.854,0,0,1-9.339,2.848c-1.02.252-2.039.485-3.07.706a94.088,94.088,0,0,1-19.587,2.05c-1.6,0-3.171-.041-4.745-.111h-.01c-1.423-.08-2.837-.181-4.25-.313-1.091-.1-2.171-.222-3.242-.374-1.232-.151-2.443-.332-3.655-.554-.171-.021-.343-.051-.515-.081h-.009c-.364-.06-.707-.121-1.061-.2-.131-.02-.272-.05-.414-.08-.536-.1-1.081-.212-1.616-.323-1.191-.253-2.382-.525-3.553-.828-.424-.1-.839-.212-1.252-.323-.5-.131-1.01-.263-1.5-.414-1.12-.323-2.241-.656-3.342-1.02-.485-.151-.96-.313-1.434-.485q-2.62-.894-5.15-1.949c-.687-.283-1.373-.566-2.039-.868-.747-.324-1.494-.667-2.232-1.01-.827-.394-1.635-.788-2.443-1.2-.6-.3-1.2-.616-1.787-.928-.06-.03-.111-.06-.162-.091-.656-.353-1.3-.707-1.938-1.07-.081-.051-.162-.092-.243-.142-.626-.353-1.242-.717-1.858-1.09q-2.635-1.591-5.139-3.343c-.343-.232-.676-.465-1.01-.717a.541.541,0,0,1-.08-.05c-.646-.465-1.283-.929-1.918-1.414-.2-.151-.4-.313-.606-.465-.676-.525-1.343-1.049-2.009-1.6-.2-.162-.394-.323-.6-.485-.343-.282-.687-.575-1.03-.868a4.015,4.015,0,0,1-.314-.263v-.01c-.787-.655-1.564-1.353-2.332-2.069-.272-.243-.535-.495-.808-.738-.4-.383-.8-.767-1.191-1.15-.172-.162-.333-.323-.495-.495-.818-.808-1.626-1.626-2.413-2.463a.713.713,0,0,1-.091-.1q-.561-.591-1.091-1.182-1.227-1.333-2.392-2.726c-.314-.374-.626-.747-.929-1.131-.808-.99-1.6-2-2.362-3.02.575-.808,1.221-1.7,1.918-2.645,3.251-4.493,7.572-10.42,12.106-16.428,6.644-8.844,13.731-17.891,18.467-22.909,5.25-5.574,14.236-7.865,22.475-8.784h.01a2.236,2.236,0,0,1,.263-.021c1.878-.212,3.705-.343,5.442-.424a.441.441,0,0,1,.111-.009c6.129-.3,11.057-.01,12.419-.142a13.341,13.341,0,0,0,7.633,2.1c.021.01.041,0,.051,0a12.229,12.229,0,0,0,6.644-2.069c.666-.454,1.292-.969,1.959-1.434l.222,1.161a88.25,88.25,0,0,1,16.4.516l.878.121c1.091.162,2.2.353,3.292.575.353.071.706.142,1.05.222,1.353.3,2.685.667,3.968,1.091h.01c.162.06.332.121.494.181h.01c.353.122.706.253,1.05.384,7.542,2.928,10.9,5.129,13.236,7.562a27.106,27.106,0,0,1,2.282,2.766l.01.01c.939,1.272,1.9,2.655,3.21,4.271.555.687,1.262,1.626,2.09,2.777v.009c.444.616.919,1.283,1.414,2,4.432,6.36,10.985,16.427,15.417,23.3" transform="translate(-1.11 -6.355)" fill="#7282ff"/>
        <path id="Trazado_159126" data-name="Trazado 159126" d="M54.957,127.951a7.548,7.548,0,1,1-7.074,11.022,7.545,7.545,0,0,0,7.074-11.022" transform="translate(-2.657 -7.099)" fill="#ffece0"/>
        <path id="Trazado_159127" data-name="Trazado 159127" d="M91.641,157.042a7.548,7.548,0,1,1-6.325-11.468,7.546,7.546,0,0,0,6.325,11.468" transform="translate(-4.308 -8.077)" fill="#ffece0"/>
        <path id="Trazado_159128" data-name="Trazado 159128" d="M77.808,116.615h.01l.8,5.6-5.745-2.837,4.463,4.594-6.311,1.09,6.311,1.091-4.463,4.594,5.745-2.837-.909,6.341,2.979-5.664,2.988,5.664-.919-6.341,5.745,2.837-4.463-4.594,6.31-1.091-6.31-1.09,4.463-4.594-5.745,2.837.878-6.058.041-.282-.151.293-2.837,5.371-2.6-4.947Z" transform="translate(-3.941 -6.429)" fill="#ffa861"/>
        <path id="Trazado_159129" data-name="Trazado 159129" d="M114.916,143.262l-6.311,1.09,4.465,4.592-5.747-2.831.917,6.341-2.987-5.67-2.986,5.67.917-6.341-5.748,2.831,4.466-4.592-6.311-1.09,6.311-1.09-4.465-4.592,5.747,2.831-.917-6.341,2.986,5.669,2.987-5.669-.917,6.341,5.747-2.831-4.465,4.592Z" transform="translate(-5.304 -7.439)" fill="#ffa861"/>
        <path id="Trazado_159130" data-name="Trazado 159130" d="M97.6,181.686l-6.311,1.09,4.465,4.592L90,184.537l.918,6.341-2.987-5.67-2.986,5.67.917-6.341-5.747,2.831,4.465-4.592-6.311-1.09,6.311-1.09L80.12,176l5.747,2.831-.917-6.341,2.986,5.67,2.987-5.67L90,178.834,95.753,176,91.288,180.6Z" transform="translate(-4.343 -9.57)" fill="#ffa861"/>
        <path id="Trazado_159131" data-name="Trazado 159131" d="M97.7,209l-3.837.667h-.01c-1.423-.081-2.837-.182-4.25-.314-1.091-.1-2.171-.222-3.242-.373-1.232-.152-2.443-.333-3.654-.555-.172-.021-.344-.051-.516-.081l.021-.009h.009l2.464-.424-4.463-4.594,3.544,1.746,2.2,1.081-.918-6.341,2.988,5.674L91.03,199.8l-.919,6.341,5.746-2.827-4.463,4.594Z" transform="translate(-4.451 -11.086)" fill="#ffa861"/>
        <path id="Trazado_159132" data-name="Trazado 159132" d="M166.53,138.883a7.058,7.058,0,0,1-1.414,1.182,7.544,7.544,0,1,1-8.158-12.691,4.518,4.518,0,0,1,.566-.324,27.306,27.306,0,0,1,2.281,2.766l.01.01A7.492,7.492,0,0,0,161,133.744a7.408,7.408,0,0,0,4.119,3.13v.009c.445.617.919,1.283,1.414,2" transform="translate(-8.516 -7.049)" fill="#ffece0"/>
        <path id="Trazado_159133" data-name="Trazado 159133" d="M123.984,155.222a7.548,7.548,0,1,0,6.325-11.467,7.545,7.545,0,0,1-6.325,11.467" transform="translate(-6.879 -7.976)" fill="#ffece0"/>
        <path id="Trazado_159134" data-name="Trazado 159134" d="M159.34,189.263h-.01c-1.15.889-2.322,1.746-3.523,2.585a7.53,7.53,0,0,0-11.259-4.534,7.547,7.547,0,1,1,14.792,1.949" transform="translate(-8.02 -9.965)" fill="#ffece0"/>
        <path id="Trazado_159135" data-name="Trazado 159135" d="M142.442,129.058l-5.745-2.837.91,6.341-2.979-5.664-2.988,5.664.919-6.341-5.756,2.837,4.473-4.594-6.31-1.09,6.31-1.091-4.473-4.594,5.756,2.827-.606-4.2.878.122,1.8,3.413,1.494-2.837c.353.071.706.142,1.05.222l-.475,3.281,4.443-2.19h.01c.162.06.332.121.495.181l-3.666,3.776,6.31,1.091-6.31,1.09Z" transform="translate(-6.933 -6.453)" fill="#ffa861"/>
        <path id="Trazado_159136" data-name="Trazado 159136" d="M117.713,179.866l6.311,1.09-4.465,4.592,5.747-2.831-.917,6.341,2.987-5.67,2.986,5.67-.917-6.341,5.747,2.831-4.465-4.592,6.311-1.09-6.311-1.09,4.465-4.592-5.747,2.831.917-6.341-2.986,5.67-2.987-5.67.917,6.341-5.747-2.831,4.465,4.592Z" transform="translate(-6.531 -9.469)" fill="#ffa861"/>
        <path id="Trazado_159137" data-name="Trazado 159137" d="M135.194,201.5l-2.5,2.575a90.616,90.616,0,0,1-9.339,2.847c-1.02.253-2.04.485-3.07.707l-2.564-.445,6.31-1.09-4.463-4.594,5.746,2.827-.919-6.341,2.988,5.675,2.979-5.675-.91,6.341Z" transform="translate(-6.531 -10.985)" fill="#ffa861"/>
        <path id="Trazado_159138" data-name="Trazado 159138" d="M149.9,160.815l6.311,1.09L151.75,166.5l5.748-2.831-.918,6.341,2.987-5.67,2.986,5.67-.917-6.341,5.748,2.831-4.466-4.592,6.311-1.09-6.311-1.09,4.465-4.592-5.747,2.831.917-6.341-2.986,5.67-2.987-5.67.917,6.341-5.747-2.831,4.465,4.592Z" transform="translate(-8.317 -8.412)" fill="#ffa861"/>
        <path id="Trazado_159139" data-name="Trazado 159139" d="M121.822,202.488a93.66,93.66,0,0,1-22.657,2.756q-4.559,0-9.006-.424c7.269-28.362,10.944-57.521,14.589-86.579a1.2,1.2,0,0,1,.021-.192c.01.06.02.131.03.192a668.8,668.8,0,0,0,17.023,84.247" transform="translate(-5.002 -6.55)" fill="#ffa8de"/>
        <path id="Trazado_159140" data-name="Trazado 159140" d="M95.875,127.431c-2.247,3.091-4.315,6.555-4.471,10.374.579.344,1.307-.031,1.859-.418a28.729,28.729,0,0,0,11.28-16.723c.134-.565.86-2.588-.065-2.845-.607-.168-2.3,2.059-2.717,2.506A73.27,73.27,0,0,0,95.875,127.431Z" transform="translate(-5.071 -6.536)" fill="none" stroke="#502750" stroke-linecap="round" stroke-linejoin="round" stroke-width="0.535"/>
        <path id="Trazado_159141" data-name="Trazado 159141" d="M114.74,127.431c2.247,3.091,4.315,6.555,4.471,10.374-.579.344-1.307-.031-1.859-.418a28.729,28.729,0,0,1-11.28-16.723c-.134-.565-.86-2.588.066-2.845.606-.168,2.3,2.059,2.716,2.506A73.269,73.269,0,0,1,114.74,127.431Z" transform="translate(-5.863 -6.536)" fill="none" stroke="#502750" stroke-linecap="round" stroke-linejoin="round" stroke-width="0.535"/>
        <path id="Trazado_159142" data-name="Trazado 159142" d="M128.809,50.474l-5.361.444-4.736.394h-.01l-4.119.344h-.01l-2.05.171-11.753.97-2.5.212h-.009l-1.05.081-2.333.192-.111.009-2.383.2-2.373.192H90l-2.17.182-9.491.788,7.4-18.407,3.615-9.016c.06-.142.121-.273.172-.414l2.443-6.069L100.306,0l4.816,8.532.009.01,6.422,11.369Z" transform="translate(-4.346)" fill="#7282ff"/>
        <path id="Trazado_159143" data-name="Trazado 159143" d="M96.117,34.145a8.364,8.364,0,0,1-9.947,3.322l3.615-9.016c.062-.142.122-.273.172-.414L92.4,21.968a7.982,7.982,0,0,1,1.2.626,8.366,8.366,0,0,1,2.515,11.551" transform="translate(-4.781 -1.219)" fill="#ffece0"/>
        <path id="Trazado_159144" data-name="Trazado 159144" d="M126.406,51.6a8.021,8.021,0,0,1-1.151,1.475l-4.735.394h-.01l-4.119.342h-.01l-2.05.173a8.146,8.146,0,0,1-2.383-2.706A8.357,8.357,0,0,1,119.4,38.891a8.365,8.365,0,0,0,7.007,12.71" transform="translate(-6.153 -2.158)" fill="#ffece0"/>
        <path id="Trazado_159145" data-name="Trazado 159145" d="M111.48,19.827l1.01,7.027-3.3-6.28-3.311,6.28,1.02-7.027-6.361,3.141,4.937-5.089-6.987-1.2,6.987-1.212-4.937-5.079,6.361,3.13-.646-4.473,6.421,11.369Z" transform="translate(-5.464 -0.502)" fill="#ffa861"/>
        <path id="Trazado_159146" data-name="Trazado 159146" d="M98.869,52.791l2.241,2.3-2.5.213H98.6l-1.141-.566.092.646-2.333.192-.05-.1-.06.111-2.383.2.151-1.05-2.524,1.242h-.01l-2.17.181,3.281-3.372-6.987-1.212,6.987-1.2-4.937-5.089,6.36,3.141L91.852,41.4l3.311,6.28,3.3-6.28-1.01,7.027,6.361-3.141-4.947,5.089,6.987,1.2Z" transform="translate(-4.686 -2.297)" fill="#ffa861"/>
        <path id="Trazado_159147" data-name="Trazado 159147" d="M59.506,195.208a7.547,7.547,0,1,1,11.508-6.254,7.546,7.546,0,0,0-11.508,6.254" transform="translate(-3.103 -10.056)" fill="#ffece0"/>
        <path id="Trazado_159148" data-name="Trazado 159148" d="M46.966,191.033l-4.493.777c-.343-.232-.676-.465-1.01-.717a.54.54,0,0,1-.08-.05c-.647-.465-1.283-.929-1.919-1.414-.2-.151-.4-.313-.605-.465-.676-.525-1.343-1.049-2.009-1.6-.2-.162-.394-.323-.6-.485-.343-.282-.687-.575-1.03-.868a4.011,4.011,0,0,1-.314-.263v-.01l-.6-4.1,2.988,5.664,2.988-5.664-.919,6.341,5.745-2.837-4.463,4.594Z" transform="translate(-1.904 -10.089)" fill="#ffa861"/>
        <path id="Trazado_159149" data-name="Trazado 159149" d="M65.408,162.452l-6.311,1.09,4.465,4.592L57.814,165.3l.918,6.341-2.987-5.67-2.986,5.67.917-6.341-5.747,2.831,4.465-4.592-6.311-1.09,6.311-1.09-4.465-4.592,5.747,2.831-.917-6.341,2.986,5.669,2.987-5.669-.918,6.341,5.748-2.831L59.1,161.362Z" transform="translate(-2.557 -8.503)" fill="#ffa861"/>
        <g id="Grupo_169115" data-name="Grupo 169115" transform="translate(64.624 74.461)" opacity="0.49">
          <g id="Grupo_169114" data-name="Grupo 169114">
            <g id="Grupo_169113" data-name="Grupo 169113" clip-path="url(#clip-path-2)">
              <path id="Trazado_159150" data-name="Trazado 159150" d="M138.2,113.723a34.888,34.888,0,1,1-34.888-34.888A34.887,34.887,0,0,1,138.2,113.723" transform="translate(-68.42 -78.835)" fill="#ffece0"/>
            </g>
          </g>
        </g>
        <path id="Trazado_159151" data-name="Trazado 159151" d="M123.11,114.368a17.7,17.7,0,1,1-17.7-17.7,17.7,17.7,0,0,1,17.7,17.7" transform="translate(-4.866 -5.363)" fill="#ffece0"/>
        <path id="Trazado_159152" data-name="Trazado 159152" d="M32.072,175.8c-1.141,1.716-2.181,3.272-3.059,4.564a92.966,92.966,0,0,1-9.279-10.622c-.646-.868-1.283-1.746-1.9-2.646-1.181-1.686-2.3-3.423-3.372-5.189-.081-.131-.162-.263-.232-.4L30.467,151.23a.074.074,0,0,0,.029-.01c.485-.182,6.452-2.262,8.926.08a1.811,1.811,0,0,1,.454.869c1.081,4.261-4.725,19-7.8,23.626" transform="translate(-0.79 -8.333)" fill="#993f8d"/>
        <path id="Trazado_159153" data-name="Trazado 159153" d="M36.9,119.6c-2.4,7.391-3.6,16.67-4.988,19.073s-2.575,3.787-1.888,8.421c.03.181.051.383.071.615.656,5.594,1.541,24.789,1.541,24.789a14.806,14.806,0,0,1-2.868,4.447,87.282,87.282,0,0,1-9.406-10.728c-.646-.868-1.283-1.746-1.9-2.646-1.182-1.686-2.3-3.423-3.372-5.189-.172-.273-.333-.555-.495-.838A94.467,94.467,0,0,1,9.105,148.9c-.01-.636-.03-1.242-.041-1.807-.353-13.58-2.413-35.914-1.04-39.873s10.491-15.983,11.52-17.356,1.888,2.232,1.716,4.473c0,0,4.473-8.078,5.847-7.563s-1.373,11.854-2.928,16.155a21.248,21.248,0,0,0-1.545,6.179s1.888-3.6,2.757-2.575.171,4.13-1.384,7.391-2.4,4.988,1.384,5.332,12.025-10.835,14.428-11.006S39.3,112.21,36.9,119.6" transform="translate(-0.419 -4.813)" fill="#ff8c9c"/>
        <path id="Trazado_159154" data-name="Trazado 159154" d="M7.594,114.43s-.774-5.242,1.461-9.022,10.139-16.5,11.171-15.725,1.546,3.179,1.03,5.327-6.273,11.085-6.788,12.718.086,9.151.086,9.151" transform="translate(-0.414 -4.974)" fill="none" stroke="#502750" stroke-linecap="round" stroke-linejoin="round" stroke-width="0.535"/>
        <path id="Trazado_159155" data-name="Trazado 159155" d="M9.717,122.733s6.636-6.189,8.958-8.571c2.513-2.578,5.8-7.089,7.025-5.929.936.882-.838,5.542-2.256,8.056s-9.152,12.438-9.281,13.4,11.149,1.676,13.6,2.063,2.9.966,2.643,1.74-7.605,1.676-10.311,2.32l-1.677,3.8" transform="translate(-0.539 -5.995)" fill="none" stroke="#502750" stroke-linecap="round" stroke-linejoin="round" stroke-width="0.535"/>
        <path id="Trazado_159156" data-name="Trazado 159156" d="M166.8,174.84c1.141,1.716,2.181,3.272,3.059,4.564a92.969,92.969,0,0,0,9.279-10.622c.646-.868,1.283-1.746,1.9-2.646,1.181-1.686,2.3-3.423,3.372-5.189.081-.131.162-.263.232-.4L168.4,150.275a.075.075,0,0,1-.03-.01c-.485-.182-6.452-2.262-8.926.08a1.819,1.819,0,0,0-.454.869c-1.081,4.261,4.725,19,7.8,23.626" transform="translate(-8.814 -8.28)" fill="#993f8d"/>
        <path id="Trazado_159157" data-name="Trazado 159157" d="M161.535,118.645c2.4,7.391,3.6,16.67,4.988,19.073s2.575,3.787,1.888,8.42c-.03.182-.051.384-.071.617-.656,5.593-1.541,24.788-1.541,24.788a14.806,14.806,0,0,0,2.868,4.447,87.283,87.283,0,0,0,9.406-10.728c.647-.868,1.283-1.746,1.9-2.646,1.182-1.686,2.3-3.423,3.372-5.189.172-.273.333-.555.495-.838a94.471,94.471,0,0,0,4.493-8.643c.01-.637.03-1.242.041-1.808.353-13.579,2.413-35.913,1.04-39.872s-10.491-15.983-11.52-17.356-1.888,2.232-1.716,4.473c0,0-4.473-8.078-5.847-7.563s1.373,11.854,2.928,16.155a21.248,21.248,0,0,1,1.545,6.179s-1.888-3.6-2.756-2.575-.172,4.129,1.383,7.391,2.4,4.988-1.383,5.332S161.02,107.468,158.617,107.3s.515,3.958,2.918,11.348" transform="translate(-8.75 -4.76)" fill="#ff8c9c"/>
        <path id="Trazado_159158" data-name="Trazado 159158" d="M191.968,113.475s.774-5.242-1.461-9.023-10.139-16.5-11.171-15.724-1.546,3.179-1.03,5.327,6.273,11.085,6.788,12.718-.086,9.151-.086,9.151" transform="translate(-9.882 -4.921)" fill="none" stroke="#502750" stroke-linecap="round" stroke-linejoin="round" stroke-width="0.535"/>
        <path id="Trazado_159159" data-name="Trazado 159159" d="M189.448,121.778s-6.636-6.189-8.958-8.571c-2.513-2.578-5.8-7.089-7.025-5.929-.936.882.838,5.542,2.256,8.056s9.151,12.438,9.281,13.4-11.149,1.676-13.6,2.063-2.9.966-2.643,1.74,7.605,1.676,10.311,2.32l1.676,3.8" transform="translate(-9.36 -5.942)" fill="none" stroke="#502750" stroke-linecap="round" stroke-linejoin="round" stroke-width="0.535"/>
      </g>
    </g>
  </g>
</svg>
