<svg xmlns="http://www.w3.org/2000/svg" xmlns:xlink="http://www.w3.org/1999/xlink" width="105" height="105" viewBox="0 0 105 105">
  <defs>
    <clipPath id="clip-path">
      <rect id="Rectángulo_42394" data-name="Rectángulo 42394" width="69" height="64.395" fill="none"/>
    </clipPath>
  </defs>
  <g id="_11" data-name="11" transform="translate(0.222)">
    <circle id="Elipse_4890" data-name="Elipse 4890" cx="52.5" cy="52.5" r="52.5" transform="translate(-0.222)" fill="#ffdfe0"/>
    <g id="Grupo_169158" data-name="Grupo 169158" transform="translate(18 20)">
      <g id="Grupo_169157" data-name="Grupo 169157" clip-path="url(#clip-path)">
        <path id="Trazado_159322" data-name="Trazado 159322" d="M69,54.346c0-1.039-.4-1.443-1.42-1.448-1.15,0-2.3,0-3.45,0H62.379a3.375,3.375,0,0,0,.651-3.42c-.171-.439.093-.471.344-.6a5.607,5.607,0,0,0,3.316-5.284c.029-4.551.021-9.1,0-13.653A5.684,5.684,0,0,0,61.549,24.2c-.6-.062-.61-.281-.607-.734.015-2.347.01-4.695.006-7.042,0-1.078-.393-1.47-1.469-1.471q-4.24,0-8.481,0c-1.181,0-1.548.364-1.548,1.535q0,3.557,0,7.115c0,.264.1.519-.376.577A5.713,5.713,0,0,0,43.7,30.291c0,4.288.024,8.576-.01,12.863a5.83,5.83,0,0,0,3.454,5.78c.209.1.373.163.251.463a3.412,3.412,0,0,0,.6,3.48c-.189.01-.3.019-.41.019-2.611,0-5.223-.016-7.833.015-.538.007-.666-.125-.662-.662.028-3.354.033-6.708,0-10.061-.007-.653.158-.838.81-.806,1.121.054,1.5-.367,1.507-1.491,0-1.341.006-2.683,0-4.024,0-.937-.425-1.36-1.357-1.366-1.293-.007-2.589-.041-3.88.016-.6.026-.8-.165-.928-.736-.755-3.479-1.551-6.95-2.335-10.422a5.751,5.751,0,0,0-2.665-3.834c-.3-.183-.4-.271-.152-.626a4.5,4.5,0,0,0-.168-5.811.645.645,0,0,1-.159-.637,3.365,3.365,0,0,0-1.3-3.747,2.145,2.145,0,0,1-.865-1.728,7.809,7.809,0,0,0-.137-1.21A7.037,7.037,0,0,0,20.117.022a6.9,6.9,0,0,0-6.306,6.814,2.327,2.327,0,0,1-.92,1.917,3.3,3.3,0,0,0-1.254,3.63.761.761,0,0,1-.2.762,4.525,4.525,0,0,0-.165,5.7c.231.321.287.448-.1.683a5.791,5.791,0,0,0-2.687,3.9c-.781,3.5-1.588,6.99-2.359,10.491-.1.456-.263.605-.743.591-1.34-.04-2.683-.02-4.024-.012C.426,34.507.009,34.93,0,35.87,0,37.187,0,38.5,0,39.822c0,1.221.356,1.61,1.581,1.56.6-.024.736.14.734.736-.024,6.9-.016,13.8-.015,20.7,0,1.224.356,1.581,1.576,1.581h63.6c1.13,0,1.516-.381,1.517-1.5q0-4.276,0-8.551M26.45,11.424c0-.407,0-.814,0-1.3,1.328.852,1.393,1.1.692,2.373A1.18,1.18,0,0,0,27.6,14.1a2.282,2.282,0,0,1,1.02,2.73,1.831,1.831,0,0,1-2.4,1.289,10.458,10.458,0,0,1-1.1-.307c-.334-.129-.886-.042-.937-.5-.062-.552-.191-1.123.391-1.63a5.439,5.439,0,0,0,1.873-4.263m-6.086,5.8a3.038,3.038,0,0,0,1.485-.1c-.048,1.208-.164,2.456,1.564,2.548a4.157,4.157,0,0,1-5.4.069c.139-.056.264-.114.395-.156.957-.312,1.165-.556,1.137-1.532-.017-.6-.031-1.061.822-.83M23,14.048a3.279,3.279,0,0,1-3.539.663,3.391,3.391,0,0,1-2.207-2.858c-.071-.451.052-.685.541-.793,1.545-.341,2.878-1.285,4.437-1.6.094-.019.183-.058.276-.077,1.638-.332,1.638-.332,1.638,1.5A3.583,3.583,0,0,1,23,14.048M16.237,5.816A4.569,4.569,0,0,1,21,2.309a4.863,4.863,0,0,1,4.244,4.208c.032.357-.118.411-.4.4A12.949,12.949,0,0,0,18.57,8.369a10.623,10.623,0,0,1-3.064.833c.759-1.086.471-2.285.73-3.385m-2.971,8.742a8.73,8.73,0,0,1,.718-.586,1.1,1.1,0,0,0,.268-1.48c-.679-1.281-.636-1.5.707-2.385a7.788,7.788,0,0,0,.56,3.865,4.616,4.616,0,0,0,1.323,1.757c.618.44.4,1.024.387,1.556-.014.486-.541.372-.841.5-.346.15-.738.192-1.1.321a1.729,1.729,0,0,1-2.314-.841,2.2,2.2,0,0,1,.288-2.708M8.789,32.522c.645-2.917,1.329-5.825,1.986-8.74a3.49,3.49,0,0,1,2.554-2.734,2.38,2.38,0,0,0,.347-.087,2.314,2.314,0,0,1,2.994.593,6.244,6.244,0,0,0,8.813-.685.751.751,0,0,1,.954-.305c.608.214,1.238.361,1.851.563a3.231,3.231,0,0,1,2.274,2.388c.859,3.626,1.658,7.266,2.484,10.917a.874.874,0,0,1-.149.055,5.952,5.952,0,0,1-2.27-.065c-.651-.294-.717-1.282-1.1-1.932-.085-.143-.139-.305-.217-.452a3.864,3.864,0,0,1-.6-2.9,3.621,3.621,0,0,0-.8-3.1,1.837,1.837,0,0,1-.291-1.363c.023-.389-.076-.589-.505-.531a4.37,4.37,0,0,1-.574,0c-1.259,0-1.257,0-1.228,1.234a3.323,3.323,0,0,0,.643,1.869,2.378,2.378,0,0,1-.007,2.988,4.651,4.651,0,0,0-.638,3.024c.012,1.233,0,1.233-1.226,1.233-2.4,0-4.791-.03-7.186.019-.69.014-.859-.211-.794-.835.047-.45,0-.91.012-1.365a3.376,3.376,0,0,0-.652-2.083,2.377,2.377,0,0,1-.024-2.931,4.187,4.187,0,0,0,.68-2.8c-.009-.288-.118-.378-.385-.36-.191.014-.383,0-.575,0-.407,0-.9-.129-1.2.052-.35.211-.1.745-.144,1.135a1.311,1.311,0,0,1-.283.645,4.456,4.456,0,0,0-.758,3.745,1.785,1.785,0,0,1-.16,1.3c-.522.994-1.008,2.008-1.473,3.03a.633.633,0,0,1-.7.452c-.667-.037-1.6.223-1.933-.118s.149-1.227.291-1.867M36.354,62.1a3.157,3.157,0,0,0-.359,0q-15.294,0-30.587.016c-.654,0-.824-.162-.821-.819.026-6.007.016-12.014.016-18.021,0-.239.014-.478.022-.717a1.435,1.435,0,0,1-.018-.143c-.03-1.013-.03-1.014.956-1.014H35.7c1.14,0,1.14,0,1.082,1.156l.022,16.87c0,.742-.014,1.484.006,2.225.009.344-.111.486-.452.447m1.183-23q-17.2,0-34.407.018c-.715,0-.869-.2-.844-.872C2.338,36.8,2.3,36.8,3.758,36.8H20.782c5.842,0,11.684.007,17.526-.012.584,0,.838.073.812.758C39.061,39.1,39.1,39.1,37.536,39.1M53.487,17.252c1.533,0,3.066.014,4.6-.009.418-.006.574.074.577.542.012,1.766.032,1.766-1.715,1.766H55.223c-.982,0-1.965-.016-2.946.008-.386.009-.531-.079-.539-.5-.037-1.8-.054-1.8,1.749-1.8m.054,4.6c1.533,0,3.066.014,4.6-.009.4-.005.518.092.522.506.022,1.8.037,1.8-1.731,1.8h-1.8c-.982,0-1.964-.014-2.946.007-.336.007-.435-.08-.449-.432-.075-1.875-.086-1.875,1.8-1.875M46,43.48Q46,36.8,46,30.119a3.462,3.462,0,0,1,3.7-3.668q5.5,0,10.991,0A3.47,3.47,0,0,1,64.4,30.188q0,3.3,0,6.609c0,2.227,0,4.454,0,6.681a3.461,3.461,0,0,1-3.63,3.668q-5.568.01-11.135,0A3.46,3.46,0,0,1,46,43.48m14.947,7.142a1.149,1.149,0,1,1-1.107-1.173,1.147,1.147,0,0,1,1.107,1.173m-7.079-1.149h2.661a3.542,3.542,0,0,0,.658,3.381H53.23a3.591,3.591,0,0,0,.638-3.381M51.748,50.6a1.149,1.149,0,1,1-1.129-1.151A1.147,1.147,0,0,1,51.748,50.6M66.7,61.517c0,.327.03.588-.459.588q-12.993-.032-25.986-.032c-.024,0-.047.008-.071.009-1.086.043-1.086.043-1.086-1.009V56.291c0-1.13,0-1.13,1.156-1.071q4.558-.011,9.116-.022c5.528,0,11.055.008,16.583-.014.582,0,.774.12.759.736-.044,1.865-.019,3.732-.014,5.6" transform="translate(0 0)"/>
        <path id="Trazado_159323" data-name="Trazado 159323" d="M38.965,79.512q-.01-8.435-.022-16.87H6.79c-.007.238-.022.478-.022.717,0,6.007.01,12.014-.017,18.021,0,.657.168.82.821.819q15.293-.032,30.587-.015a3.157,3.157,0,0,1,.359,0c.342.039.462-.1.452-.447-.02-.741,0-1.484-.006-2.225m-4.6-3.47c-.026.451-.33.389-.61.39-1.484,0-2.969.016-4.452-.008a1.382,1.382,0,0,0-1.071.443c-1.319,1.284-2.524,2.685-3.962,3.845a4.584,4.584,0,0,1-2.333.308c-.264-.157.022-.319.015-.476-.01-.226.523-.425.037-.669-.806,0-1.613.019-2.42,0a1.16,1.16,0,0,1-1.114-1.8c.228-.495.467-.983.7-1.475-.464-.36-1-.1-1.5-.171a4.126,4.126,0,0,0-.565,0c-1.359-.007-1.089.1-1.136-1.127-.717-.007-1.434-.009-2.151-.025A1.157,1.157,0,0,1,12.521,74q-.016-3.3,0-6.6a1.163,1.163,0,0,1,1.266-1.309c2.569-.092,2.586-.108,4.357,1.717a1.527,1.527,0,0,0,1.672.514c-.411-.825-.821-1.643-1.226-2.463-.66-1.336-.209-2.082,1.278-2.064,2.84.035,1.924-.363,3.966,1.634.855.836,1.7,1.679,2.531,2.542a1.062,1.062,0,0,0,1,.419A4.991,4.991,0,0,1,32.345,70.4a3.446,3.446,0,0,1,.889,2.581c1.244.7,1.2,1.869,1.134,3.06" transform="translate(-2.165 -20.088)" fill="#a87c50"/>
        <path id="Trazado_159324" data-name="Trazado 159324" d="M82.48,59.63a3.461,3.461,0,0,0,3.63-3.668c.005-2.227,0-4.454,0-6.681q0-3.3,0-6.609a3.469,3.469,0,0,0-3.705-3.737q-5.5,0-10.992,0a3.462,3.462,0,0,0-3.7,3.668q-.005,6.681,0,13.361a3.459,3.459,0,0,0,3.632,3.666q5.568.009,11.135,0M80.992,42.372c1.67.016,1.67,0,1.67,1.666,0,3.808-.009,7.617.01,11.425,0,.515-.058.753-.675.737-1.634-.041-1.634-.007-1.634-1.636V49.248c0-2.084.018-4.168-.013-6.251-.007-.518.151-.628.643-.624m-4.6,0c1.67.016,1.671,0,1.671,1.666,0,3.832-.013,7.665.014,11.5,0,.554-.156.669-.679.661-1.634-.026-1.635,0-1.635-1.631V49.248c0-2.084.018-4.168-.013-6.252-.007-.518.151-.629.642-.624m-5.243.66c0-.554.156-.669.679-.661,1.634.026,1.635,0,1.635,1.631V49.32c0,2.084-.018,4.168.013,6.251.007.518-.151.629-.642.624-1.671-.016-1.671,0-1.671-1.666,0-3.832.013-7.665-.014-11.5" transform="translate(-21.713 -12.485)" fill="#3d99e1"/>
        <path id="Trazado_159325" data-name="Trazado 159325" d="M14.387,44.183a.633.633,0,0,0,.7-.452c.466-1.022.952-2.036,1.473-3.03a1.781,1.781,0,0,0,.16-1.295,4.456,4.456,0,0,1,.759-3.745,1.324,1.324,0,0,0,.283-.645c.044-.39-.206-.925.144-1.135.3-.181.792-.048,1.2-.052.192,0,.384.011.575,0,.266-.018.376.072.385.36a4.189,4.189,0,0,1-.68,2.8,2.377,2.377,0,0,0,.024,2.931A3.375,3.375,0,0,1,20.058,42c-.012.454.036.914-.011,1.364-.065.625.1.849.794.836,2.394-.049,4.79-.019,7.185-.019,1.229,0,1.238,0,1.226-1.234a4.653,4.653,0,0,1,.639-3.024,2.378,2.378,0,0,0,.007-2.988,3.331,3.331,0,0,1-.644-1.87c-.029-1.234-.031-1.234,1.229-1.234a4.37,4.37,0,0,0,.574,0c.429-.058.529.143.5.531a1.842,1.842,0,0,0,.291,1.363,3.62,3.62,0,0,1,.8,3.1,3.864,3.864,0,0,0,.6,2.9c.079.147.132.309.217.452.385.65.452,1.638,1.1,1.931a5.942,5.942,0,0,0,2.27.065A.794.794,0,0,0,37,44.109c-.825-3.651-1.625-7.291-2.484-10.917A3.233,3.233,0,0,0,32.243,30.8c-.613-.2-1.244-.348-1.852-.562a.75.75,0,0,0-.953.3,6.244,6.244,0,0,1-8.813.685,2.315,2.315,0,0,0-3-.593,2.372,2.372,0,0,1-.346.088,3.488,3.488,0,0,0-2.554,2.733c-.657,2.914-1.34,5.823-1.986,8.74-.142.64-.641,1.512-.291,1.866s1.267.08,1.934.118" transform="translate(-3.954 -9.677)" fill="#3d99e1"/>
        <path id="Trazado_159326" data-name="Trazado 159326" d="M84.958,81.231c-5.528.022-11.055.011-16.583.014q-4.558,0-9.116.022v6.854q12.993.011,25.986.032c.488,0,.459-.26.459-.588-.005-1.866-.031-3.733.014-5.6.014-.616-.178-.738-.759-.736" transform="translate(-19.003 -26.049)" fill="#a87c50"/>
        <path id="Trazado_159327" data-name="Trazado 159327" d="M39.386,54.152c-5.842.02-11.684.012-17.526.012H4.836c-1.457,0-1.42,0-1.473,1.446-.024.673.129.874.845.872q17.2-.04,34.406-.018c1.569,0,1.526,0,1.584-1.554.026-.685-.228-.76-.812-.758" transform="translate(-1.078 -17.365)" fill="#a87c50"/>
        <path id="Trazado_159328" data-name="Trazado 159328" d="M32.166,8c.285.015.435-.039.4-.4a4.864,4.864,0,0,0-4.244-4.209A4.571,4.571,0,0,0,23.557,6.9c-.26,1.1.03,2.3-.73,3.385a10.591,10.591,0,0,0,3.063-.833A12.968,12.968,0,0,1,32.166,8" transform="translate(-7.32 -1.084)" fill="#57565c"/>
        <path id="Trazado_159329" data-name="Trazado 159329" d="M7.744,61.858q15.129-.008,30.257,0a1.214,1.214,0,0,1,.948.238c.058-1.156.058-1.156-1.081-1.156H7.734c-.985,0-.986,0-.955,1.014,0,.048.011.1.017.143a1.215,1.215,0,0,1,.948-.238" transform="translate(-2.171 -19.542)" fill="#8a5e3c"/>
        <path id="Trazado_159330" data-name="Trazado 159330" d="M38.013,62.29q-15.129-.008-30.257,0a1.214,1.214,0,0,0-.948.238H38.961a1.215,1.215,0,0,0-.948-.238" transform="translate(-2.183 -19.974)" fill="#8a5e3c"/>
        <path id="Trazado_159331" data-name="Trazado 159331" d="M32.289,15.232c0-1.833,0-1.834-1.638-1.5-.094.019-.183.058-.276.077-1.559.317-2.892,1.261-4.437,1.6-.488.108-.611.341-.541.793A3.392,3.392,0,0,0,27.6,19.06a3.279,3.279,0,0,0,3.539-.663,3.583,3.583,0,0,0,1.147-3.165" transform="translate(-8.138 -4.349)" fill="#fec376"/>
        <path id="Trazado_159332" data-name="Trazado 159332" d="M35.967,20.463c-.582.507-.454,1.078-.391,1.63.052.454.6.367.937.5a10.262,10.262,0,0,0,1.1.306,1.83,1.83,0,0,0,2.395-1.289,2.282,2.282,0,0,0-1.02-2.73,1.18,1.18,0,0,1-.46-1.609c.7-1.276.637-1.521-.692-2.373,0,.491,0,.9,0,1.3a5.437,5.437,0,0,1-1.873,4.263" transform="translate(-11.39 -4.777)" fill="#57565c"/>
        <path id="Trazado_159333" data-name="Trazado 159333" d="M21.256,22.878c.357-.129.749-.171,1.1-.321.3-.13.827-.016.842-.5.016-.533.231-1.116-.387-1.556a4.606,4.606,0,0,1-1.323-1.757,7.779,7.779,0,0,1-.56-3.865c-1.342.889-1.386,1.1-.707,2.385a1.1,1.1,0,0,1-.268,1.481,8.582,8.582,0,0,0-.717.586,2.195,2.195,0,0,0-.289,2.708,1.729,1.729,0,0,0,2.314.841" transform="translate(-5.965 -4.771)" fill="#57565c"/>
        <path id="Trazado_159334" data-name="Trazado 159334" d="M76.7,27.7c.982-.023,1.964-.007,2.946-.007h1.725c1.747,0,1.727,0,1.715-1.767,0-.467-.16-.548-.577-.542-1.533.022-3.066.009-4.6.009-1.8,0-1.787,0-1.749,1.8.009.425.153.514.539.5" transform="translate(-24.418 -8.139)" fill="#3d99e1"/>
        <path id="Trazado_159335" data-name="Trazado 159335" d="M26.907,27.668c-.13.042-.255.1-.394.157a4.158,4.158,0,0,0,5.4-.07c-1.729-.092-1.613-1.34-1.564-2.548a3.038,3.038,0,0,1-1.485.1c-.853-.23-.84.226-.823.83.028.976-.179,1.22-1.137,1.532" transform="translate(-8.502 -8.083)" fill="#fec376"/>
        <path id="Trazado_159336" data-name="Trazado 159336" d="M58.48,82.152a1.126,1.126,0,0,1,.234-.876c-1.156-.058-1.156-.058-1.156,1.071V87.13c0,1.052,0,1.052,1.086,1.009.024,0,.047-.006.071-.009a1.126,1.126,0,0,1-.234-.876q-.013-2.551,0-5.1" transform="translate(-18.457 -26.057)" fill="#8a5e3c"/>
        <path id="Trazado_159337" data-name="Trazado 159337" d="M58.912,82.161q-.013,2.551,0,5.1a1.126,1.126,0,0,0,.234.876V81.285a1.126,1.126,0,0,0-.234.876" transform="translate(-18.889 -26.066)" fill="#8a5e3c"/>
        <path id="Trazado_159338" data-name="Trazado 159338" d="M72.794,73.971a1.149,1.149,0,1,0,1.168-1.181,1.145,1.145,0,0,0-1.168,1.181" transform="translate(-23.343 -23.342)" fill="#56555b"/>
        <path id="Trazado_159339" data-name="Trazado 159339" d="M87.525,72.791a1.148,1.148,0,1,0,1.107,1.173,1.148,1.148,0,0,0-1.107-1.173" transform="translate(-27.685 -23.342)" fill="#56555b"/>
        <path id="Trazado_159340" data-name="Trazado 159340" d="M26.223,79.114c.938-.925,1.878-1.848,2.788-2.8a1.456,1.456,0,0,1,1.185-.5c1.412.033,2.826.014,4.239.011,1.124,0,1.495-.379,1.5-1.511,0-.264.012-.526.018-.789a3.446,3.446,0,0,0-.889-2.581,4.991,4.991,0,0,0-4.986-2.018,1.062,1.062,0,0,1-1-.419c-.828-.863-1.677-1.706-2.531-2.542-2.042-2-1.126-1.6-3.966-1.634-1.487-.018-1.939.728-1.278,2.064.4.82.815,1.638,1.226,2.463a1.525,1.525,0,0,1-1.672-.514c-1.772-1.825-1.787-1.81-4.357-1.717a1.163,1.163,0,0,0-1.266,1.309q-.014,3.3,0,6.6a1.157,1.157,0,0,0,1.288,1.286c.717.016,1.434.018,2.151.025h3.88l-.681,1.3h0c-.234.491-.473.98-.7,1.474a1.16,1.16,0,0,0,1.114,1.8c.806.015,1.613,0,2.42,0a5.638,5.638,0,0,0,1.512-1.3m-.2-10.207c-.99.035-1.219-.2-1.706-1.861l1.706,1.861m-7.894,4.624c-.463,0-.614-.112-.6-.59.035-1.147,0-2.3.019-3.444,0-.187-.145-.471.145-.552a.676.676,0,0,1,.723.171c.494.52,1.024,1.007,1.512,1.533a1.751,1.751,0,0,0,1.4.582c3.23-.017,6.459.017,9.688-.027a1.868,1.868,0,0,1,1.726.742c.331.457,1.179.745.838,1.411-.226.441-.957.148-1.456.154-2.177.026-4.354.012-6.53.012-2.488,0-4.975-.012-7.463.01m6.118,4.054a8.036,8.036,0,0,0,.509-1c.239-.67.646-.949,1.242-.747l-1.751,1.748" transform="translate(-4.885 -20.624)"/>
        <path id="Trazado_159341" data-name="Trazado 159341" d="M40.352,77.864a1.681,1.681,0,0,1,.177.831c0,1.121-.48,1.641-1.6,1.66q-2.044.036-4.089,0a1.765,1.765,0,0,0-1.4.571c-1.065,1.1-2.163,2.165-3.237,3.255a1.567,1.567,0,0,1-1.1.576c.486.245-.046.443-.037.67.007.156-.279.318-.015.475a4.584,4.584,0,0,0,2.333-.308c1.438-1.16,2.643-2.561,3.962-3.845a1.379,1.379,0,0,1,1.071-.442c1.484.024,2.968.01,4.452.007.28,0,.584.061.61-.39.069-1.191.11-2.36-1.134-3.06" transform="translate(-9.282 -24.969)" fill="#8a5e3c"/>
        <path id="Trazado_159342" data-name="Trazado 159342" d="M33.52,80.925a1.769,1.769,0,0,1,1.4-.571q2.044.035,4.089,0c1.117-.019,1.6-.539,1.6-1.66a1.682,1.682,0,0,0-.177-.831c-.006.263-.017.526-.018.789-.006,1.132-.377,1.509-1.5,1.511-1.413,0-2.827.022-4.239-.011a1.454,1.454,0,0,0-1.185.5c-.91.952-1.85,1.876-2.788,2.8a5.653,5.653,0,0,1-1.512,1.3,1.565,1.565,0,0,0,1.1-.577c1.075-1.09,2.173-2.156,3.238-3.255" transform="translate(-9.359 -24.969)" fill="#8a5e3c"/>
        <path id="Trazado_159343" data-name="Trazado 159343" d="M22.889,81.452a7.049,7.049,0,0,1-2.582-.167c.047,1.23-.223,1.12,1.136,1.127a4.237,4.237,0,0,1,.565,0c.5.071,1.035-.189,1.5.172h0c.041-.113,0-.234.031-.348.187-.777.185-.745-.647-.787" transform="translate(-6.512 -26.066)" fill="#8a5e3c"/>
        <path id="Trazado_159344" data-name="Trazado 159344" d="M20.307,81.285a7.049,7.049,0,0,0,2.582.167c.833.042.835.01.647.787-.028.115.011.235-.031.348l.681-1.3Z" transform="translate(-6.512 -26.066)" fill="#8a5e3c"/>
        <path id="Trazado_159345" data-name="Trazado 159345" d="M74.456,57.817c.491,0,.649-.107.642-.624-.031-2.083-.013-4.168-.013-6.251V45.625c0-1.628,0-1.606-1.635-1.631-.523-.008-.683.107-.679.661.027,3.832.014,7.664.014,11.5,0,1.67,0,1.649,1.671,1.666" transform="translate(-23.336 -14.108)"/>
        <path id="Trazado_159346" data-name="Trazado 159346" d="M79.557,50.87v5.317c0,1.628,0,1.606,1.634,1.631.524.008.683-.107.679-.661-.026-3.832-.014-7.664-.014-11.5,0-1.67,0-1.649-1.67-1.666-.491,0-.65.107-.642.624.031,2.083.013,4.167.013,6.251" transform="translate(-25.507 -14.108)"/>
        <path id="Trazado_159347" data-name="Trazado 159347" d="M86.328,50.87v5.317c0,1.628,0,1.594,1.634,1.636.617.016.678-.223.675-.737-.018-3.808-.01-7.617-.01-11.425,0-1.67,0-1.65-1.67-1.666-.49,0-.65.106-.642.624.031,2.083.013,4.168.013,6.251" transform="translate(-27.679 -14.108)"/>
        <path id="Trazado_159348" data-name="Trazado 159348" d="M33.192,75.677c.5-.006,1.23.287,1.456-.154.341-.666-.507-.954-.838-1.412a1.869,1.869,0,0,0-1.726-.741c-3.228.044-6.458.01-9.687.027a1.754,1.754,0,0,1-1.4-.582c-.487-.526-1.017-1.012-1.511-1.533a.675.675,0,0,0-.723-.171c-.291.082-.143.365-.146.552-.015,1.147.016,2.3-.019,3.444-.014.478.137.594.6.59,2.488-.022,4.975-.01,7.463-.01,2.177,0,4.354.015,6.53-.012" transform="translate(-5.959 -22.792)" fill="#3d99e1"/>
        <path id="Trazado_159349" data-name="Trazado 159349" d="M29,81.992a7.944,7.944,0,0,1-.509,1l1.751-1.748c-.6-.2-1,.075-1.242.747" transform="translate(-9.138 -26.032)" fill="#75b5e6"/>
        <path id="Trazado_159350" data-name="Trazado 159350" d="M30.3,70.2,28.6,68.335c.487,1.661.715,1.9,1.706,1.861" transform="translate(-9.171 -21.913)" fill="#75b5e6"/>
      </g>
    </g>
  </g>
</svg>
