<svg xmlns="http://www.w3.org/2000/svg" xmlns:xlink="http://www.w3.org/1999/xlink" width="105" height="105" viewBox="0 0 105 105">
  <defs>
    <clipPath id="clip-path">
      <rect id="Rectángulo_42396" data-name="Rectángulo 42396" width="71" height="66.217" fill="none"/>
    </clipPath>
  </defs>
  <g id="_13" data-name="13" transform="translate(4680 9022)">
    <circle id="Elipse_4889" data-name="Elipse 4889" cx="52.5" cy="52.5" r="52.5" transform="translate(-4680 -9022)" fill="#ffdfe0"/>
    <g id="Grupo_169164" data-name="Grupo 169164" transform="translate(-4663 -9003)">
      <g id="Grupo_169163" data-name="Grupo 169163" transform="translate(0 0)" clip-path="url(#clip-path)">
        <path id="Trazado_159374" data-name="Trazado 159374" d="M0,71.184a1.8,1.8,0,0,1,1.693-.711q17.717.017,35.437.02c.569,0,.777-.1.764-.73-.045-2.19-.017-4.381-.017-6.572,0-1.366.327-1.694,1.714-1.695,3.967,0,7.933-.01,11.9.01.5,0,.67-.1.656-.638-.041-1.466-.036-2.936,0-4.4.012-.481-.146-.581-.59-.563-.875.035-1.753,0-2.629.017-.305.006-.434-.073-.418-.4a12.573,12.573,0,0,0,0-1.446c-.025-.372.137-.429.457-.42.745.02,1.489.007,2.237.007.075-.255-.1-.429-.194-.608a37.7,37.7,0,0,0-2.165-4.073c-.672-.936-.183-1.9.124-2.758s.5-1.741.742-2.611c.257-.91.57-1.179,1.533-1.186.9-.006,1.8-.03,2.695.011.479.021.582-.146.569-.591-.031-1.116,0-2.235-.017-3.352-.007-.395.053-.616.528-.566.6.065,1.4-.245,1.774.116s.1,1.161.117,1.767c.021.678.032,1.36,0,2.037-.025.446.084.611.565.588.875-.041,1.753-.019,2.629-.01s1.121.257,1.448,1.05c.509,1.231.683,2.548,1.069,3.807a2.167,2.167,0,0,1-.2,1.758c-.7,1.318-1.518,2.576-2.121,3.947-.086.2-.178.389-.308.673.827,0,1.582.016,2.337-.007.34-.011.437.087.447.435.054,1.824.065,1.824-1.757,1.824-.417,0-.837.031-1.249-.009-.43-.042-.5.135-.495.519.021,1.512.024,3.023,0,4.535-.007.422.1.552.536.548,2.41-.022,4.821-.012,7.232-.01,1.234,0,1.607.376,1.608,1.6,0,2.256.014,4.514-.01,6.769,0,.47.077.7.6.624a2.911,2.911,0,0,1,.851.035,1.019,1.019,0,0,1,.913.966,1.045,1.045,0,0,1-.7,1.139,2.1,2.1,0,0,1-.84.114q-33.957,0-67.914.007A1.655,1.655,0,0,1,0,71.973Z" transform="translate(0 -6.534)"/>
        <path id="Trazado_159375" data-name="Trazado 159375" d="M21.575,41.228c.133-.516.564-.7,1-.862q3.54-1.36,7.086-2.706a1.513,1.513,0,0,0,.9-.851c1.07-2.28,2.1-4.582,3.225-6.831.913-1.825,1.671-3.712,2.666-5.67-1.249.484-2.355.906-3.455,1.34-2.089.825-4.174,1.661-6.265,2.483a2.943,2.943,0,0,1-1.215.21q-9.491-.4-18.982-.784a1.414,1.414,0,0,1-1.4-.967C3.992,23.816,2.7,21.111,1.552,18.338c-.367-.888-.823-1.754-1.2-2.649a1.227,1.227,0,0,1,.829-1.848c1.081-.4,2.18-.769,3.225-1.252a3.924,3.924,0,0,1,2.544-.224c3.536.708,7.083,1.367,10.618,2.079a2.755,2.755,0,0,0,1.618-.365c3.133-1.215,6.247-2.473,9.372-3.706q6.356-2.508,12.718-5C44.569,4.084,47.86,2.8,51.146,1.511A17.3,17.3,0,0,1,57.082,0a18.8,18.8,0,0,1,5.042.785c1.5.378,3.037.642,4.5,1.154A5.447,5.447,0,0,1,69.47,10.33a6.173,6.173,0,0,1-3.08,2.2c-2.153.776-4.258,1.684-6.389,2.522-2.191.861-4.389,1.705-6.585,2.553a1.43,1.43,0,0,0-.781.643c-1.1,1.877-2.187,3.759-3.332,5.6-.847,1.366-1.55,2.818-2.461,4.136-.942,1.364-1.6,2.892-2.538,4.243-.908,1.31-1.541,2.774-2.439,4.074-.992,1.436-1.753,3-2.654,4.484a2.04,2.04,0,0,1-1.045.826q-6.272,2.455-12.546,4.907c-.276.108-.383.07-.475-.2-.113-.329-.261-.647-.394-.97-.321-.778-.321-.778.515-1.14a5.547,5.547,0,0,0-1.278-.726c-.66-.333-1.322-.665-1.973-1.015a.83.83,0,0,1-.429-.555.632.632,0,0,1-.011-.693" transform="translate(-0.033 0)"/>
        <path id="Trazado_159376" data-name="Trazado 159376" d="M25.156,57.83c-.147.013-.17-.1-.21-.2-.082-.2-.165-.4-.249-.6-.56-1.35-.56-1.35.839-1.789.875-.275.875-.275,1.238.6.491,1.186.493,1.188-.7,1.665-.3.122-.614.22-.922.329" transform="translate(-4.201 -9.504)" fill="#010101"/>
        <path id="Trazado_159377" data-name="Trazado 159377" d="M19.964,59.912c-.119.011-.2-.06-.2-.137,0-.233-.236-.284-.328-.453-.7-1.3-.69-1.351.662-1.9.957-.389.957-.389,1.357.568.463,1.111.463,1.11-.656,1.572-.282.117-.563.237-.831.35" transform="translate(-3.274 -9.867)" fill="#010101"/>
        <path id="Trazado_159378" data-name="Trazado 159378" d="M25.975,49.826c0,.231.007.463.011.693-.392-.225-.381-.457-.011-.693" transform="translate(-4.434 -8.598)" fill="#707070"/>
        <path id="Trazado_159379" data-name="Trazado 159379" d="M54.6,75.884c-1.8,0-3.592-.016-5.387.011-.465.007-.587-.13-.581-.587q.037-2.791,0-5.583c0-.438.086-.6.567-.6q5.388.031,10.776,0c.429,0,.563.117.558.553-.022,1.882-.026,3.766,0,5.649.007.492-.185.569-.613.564-1.774-.02-3.548-.008-5.322-.008" transform="translate(-8.392 -11.928)" fill="#a7d5d9"/>
        <path id="Trazado_159380" data-name="Trazado 159380" d="M75.084,75.884c-.962,0-1.925-.014-2.887.007-.4.009-.583-.057-.576-.527.028-1.9.022-3.8,0-5.706,0-.386.081-.536.5-.532,1.99.022,3.98.017,5.97,0,.372,0,.543.058.538.495q-.037,2.886,0,5.772c0,.434-.16.5-.536.5-1.005-.022-2.011-.007-3.018-.007" transform="translate(-12.359 -11.929)" fill="#a7d5d9"/>
        <path id="Trazado_159381" data-name="Trazado 159381" d="M65.95,74.579a3.156,3.156,0,0,1-.063-.444q0-5.7,0-11.4a3.6,3.6,0,0,1,.039-.388,3.15,3.15,0,0,1,1.98-.145c.352.036.338.334.338.6,0,1.222,0,2.444,0,3.667q0,3.7,0,7.4a1.527,1.527,0,0,1-.057.709v0a8.069,8.069,0,0,1-2.232,0" transform="translate(-11.369 -10.719)" fill="#e9e9e9"/>
        <path id="Trazado_159382" data-name="Trazado 159382" d="M66.217,56.024c-1.135.391-1.768-.3-2.207-1.478a22.691,22.691,0,0,0-1.277-2.584c-.192-.365-.092-.445.284-.444q3.484.014,6.968,0c.468,0,.475.171.267.494a35,35,0,0,0-1.987,3.73.479.479,0,0,1-.52.287c-.438-.017-.876,0-1.527,0" transform="translate(-10.809 -8.89)" fill="#cacaca"/>
        <path id="Trazado_159383" data-name="Trazado 159383" d="M66.344,48.333c-1.247,0-2.5-.041-3.741.017-.683.031-.722-.213-.525-.74a5.473,5.473,0,0,0,.442-1.261c.031-.269.242-.263.447-.263l6.826,0a1.018,1.018,0,0,1,.322.034A8.15,8.15,0,0,1,70.7,48.23c-.122.182-.318.1-.48.1-1.291.007-2.582,0-3.872,0" transform="translate(-10.695 -7.953)" fill="#e9e9e9"/>
        <path id="Trazado_159384" data-name="Trazado 159384" d="M68.181,74.151q-.01-5.7-.02-11.4c0-.831,0-.83-.86-.831l-1.377,0c-.012-.634-.021-1.267-.041-1.9-.007-.237.051-.388.325-.358.043,0,.088,0,.132,0,.611.014,1.4-.2,1.786.1.414.323.128,1.148.131,1.75q.029,6.011.017,12.022c0,.2.1.437-.093.617" transform="translate(-11.369 -10.285)" fill="#cacaca"/>
        <path id="Trazado_159385" data-name="Trazado 159385" d="M65.964,77.178l2.232,0a4.914,4.914,0,0,1-2.232,0" transform="translate(-11.383 -13.318)" fill="#cacaca"/>
        <path id="Trazado_159386" data-name="Trazado 159386" d="M61.408,3.281c-1.662.652-3.32,1.316-4.989,1.949-.444.169-.671.355-.351.817a.621.621,0,0,1,.056.118c.593,1.425.592,1.421,2.04.839,2.269-.91,4.541-1.812,6.809-2.725a1.51,1.51,0,0,1,.951-.063,5.931,5.931,0,0,1,2.455,1.157c-.741.3-1.412.586-2.089.852q-7.884,3.105-15.77,6.2-4.991,1.964-9.984,3.925-5.054,1.985-10.11,3.968-2.467.968-4.932,1.943a8.922,8.922,0,0,1-2.725.328c-4.938.35-9.878.672-14.818,1A1.17,1.17,0,0,1,6.8,22.445c.007-.223.181-.231.3-.279,2.663-1.028,5.334-2.037,7.993-3.077,2.215-.866,4.412-1.778,6.624-2.652q7.82-3.089,15.647-6.159,4.87-1.914,9.742-3.824c2.558-1,5.105-2.034,7.674-3.009a9.613,9.613,0,0,1,6.619-.165" transform="translate(-1.174 -0.478)" fill="#d8d8d8"/>
        <path id="Trazado_159387" data-name="Trazado 159387" d="M59.961,15.624c-1.293,2.29-2.647,4.363-3.872,6.512-.348.609-.768,1.195-1.114,1.814-1.211,2.165-2.538,4.26-3.806,6.389-.832,1.4-1.57,2.856-2.491,4.193-.965,1.4-1.662,2.954-2.606,4.357-.557.828-1.053,1.686-1.546,2.549-.144.252-.258.263-.509.156-1.2-.51-2.409-1.008-3.624-1.484-.421-.165-.584-.332-.338-.8,1.12-2.11,2.011-4.332,3.089-6.46.775-1.53,1.387-3.133,2.191-4.641,1.074-2.016,1.912-4.138,2.923-6.178.333-.671.709-1.324,1-2.016.121-.285.37-.348.61-.441l10.091-3.955" transform="translate(-6.892 -2.696)" fill="#eaeaea"/>
        <path id="Trazado_159388" data-name="Trazado 159388" d="M41.063,22.276a16.861,16.861,0,0,0-1.378,2.686c-.1.229-.324.284-.524.362Q33.4,27.583,27.635,29.837a1.541,1.541,0,0,1-.642.093q-7.418-.313-14.838-.619a17.621,17.621,0,0,1-2.09-.2q3.236-.225,6.471-.448c3.1-.213,6.2-.4,9.3-.646a10.161,10.161,0,0,0,2.766-.979c3.912-1.507,7.8-3.074,11.7-4.619a1.558,1.558,0,0,1,.757-.146" transform="translate(-1.737 -3.843)" fill="#64a7b1"/>
        <path id="Trazado_159389" data-name="Trazado 159389" d="M14.69,19.094c-3.071,1.206-6.047,2.371-9.02,3.547-.25.1-.378.1-.5-.183-.494-1.129-1-2.254-1.531-3.366-.184-.385-.067-.525.3-.653.739-.26,1.469-.549,2.191-.853a1.675,1.675,0,0,1,1.025.035c2.479.468,4.953.964,7.536,1.473" transform="translate(-0.613 -3.022)" fill="#6fbac5"/>
        <path id="Trazado_159390" data-name="Trazado 159390" d="M66.231,16.117c.572-1.013,1.062-1.887,1.557-2.755a1.306,1.306,0,0,1,.707-.54c3.532-1.391,7.068-2.774,10.6-4.176.463-.184.428.066.391.354a3.129,3.129,0,0,1-2.009,2.685c-2.324.941-4.659,1.858-6.992,2.778-1.357.535-2.717,1.059-4.249,1.655" transform="translate(-11.429 -1.481)" fill="#64a7b1"/>
        <path id="Trazado_159391" data-name="Trazado 159391" d="M30.678,49.888c1.455-.552,2.783-1.033,4.094-1.559,2.488-1,2.483-1.01,4.932.082.132.059.261.126.482.233-1.116.441-2.141.856-3.175,1.252-1.057.406-2.122.792-3.181,1.192-.2.077-.393.189-.621.072-.8-.4-1.593-.8-2.529-1.273" transform="translate(-5.294 -8.211)" fill="#68afba"/>
        <path id="Trazado_159392" data-name="Trazado 159392" d="M52.692,74.1c-1.181,0-1.181,0-1.181-1.21,0-1.025,0-1.025,1.037-1.025,1.337,0,1.337,0,1.337,1.172,0,1.062,0,1.062-1.193,1.062" transform="translate(-8.889 -12.402)" fill="#010202"/>
        <path id="Trazado_159393" data-name="Trazado 159393" d="M58.439,74.1c-1.186,0-1.186,0-1.186-1.206a3.363,3.363,0,0,0,0-.457c-.063-.457.122-.621.58-.584a7.888,7.888,0,0,0,1.3,0c.424-.036.541.142.5.525a4.38,4.38,0,0,0,0,.521c0,1.2,0,1.2-1.187,1.2" transform="translate(-9.877 -12.399)" fill="#040606"/>
        <path id="Trazado_159394" data-name="Trazado 159394" d="M75.616,71.87c1.107,0,1.107,0,1.107,1.085,0,1.15,0,1.15-1.174,1.15-1.2,0-1.2,0-1.2-1.187,0-1.048,0-1.048,1.266-1.048" transform="translate(-12.83 -12.402)" fill="#010202"/>
        <path id="Trazado_159395" data-name="Trazado 159395" d="M63.729,8.966c.049.206-.046.252-.152.294s-.2.086-.3.126c-2.212.868-1.417.944-2.414-1.139-.117-.245-.012-.348.2-.426q.828-.307,1.652-.622c.1-.039.213-.116.276.026.262.6.513,1.2.742,1.743" transform="translate(-10.494 -1.232)" fill="#010101"/>
        <path id="Trazado_159396" data-name="Trazado 159396" d="M58.4,11.043c.121.319-.117.307-.223.357a9.76,9.76,0,0,0-1.014.439c-.582.368-.9.115-1.15-.4-.019-.039-.031-.081-.049-.121-.573-1.206-.573-1.206.64-1.695,1.044-.42,1.045-.421,1.486.643.116.281.226.564.31.774" transform="translate(-9.593 -1.616)" fill="#010101"/>
        <path id="Trazado_159397" data-name="Trazado 159397" d="M53.27,13.38c0,.045-.176.062-.308.113-.487.188-.987.344-1.462.557-.285.127-.42.108-.53-.2a13.027,13.027,0,0,0-.554-1.323c-.156-.325-.049-.476.263-.57.187-.056.36-.156.547-.213.376-.114.885-.582,1.085-.327a4.409,4.409,0,0,1,.959,1.966" transform="translate(-8.688 -1.957)" fill="#010101"/>
      </g>
    </g>
  </g>
</svg>
