<svg xmlns="http://www.w3.org/2000/svg" xmlns:xlink="http://www.w3.org/1999/xlink" width="105" height="105" viewBox="0 0 105 105">
  <defs>
    <clipPath id="clip-path">
      <rect id="Rectángulo_42397" data-name="Rectángulo 42397" width="74.899" height="75.007" fill="none"/>
    </clipPath>
  </defs>
  <g id="_14" data-name="14" transform="translate(4370 9022)">
    <circle id="Elipse_4890" data-name="Elipse 4890" cx="52.5" cy="52.5" r="52.5" transform="translate(-4370 -9022)" fill="#ffdfe0"/>
    <g id="Grupo_169167" data-name="Grupo 169167" transform="translate(-4355 -9007)">
      <g id="Grupo_169166" data-name="Grupo 169166" transform="translate(0 0)" clip-path="url(#clip-path)">
        <path id="Trazado_159398" data-name="Trazado 159398" d="M38.05,0h.585a3.647,3.647,0,0,0,1.61,0h1.316A3.643,3.643,0,0,0,43.17,0h.293c1.367.175,2.751.136,4.117.384A37.13,37.13,0,0,1,65.054,8.529a37.65,37.65,0,0,1,9.316,11.5,36.584,36.584,0,0,1,3.886,12.261c.1.786.036,1.592.172,2.38v.439a3.668,3.668,0,0,0,0,1.609v1.463a4.181,4.181,0,0,0,0,1.756v.439a42.941,42.941,0,0,1-.589,4.826,41.858,41.858,0,0,1-2.315,7.216c-.353.825-.326.864.525,1.091.376.1.751.2,1.126.308a1.548,1.548,0,0,1,1.253,1.335v.732a1.788,1.788,0,0,1-1.154,1.3c-2.9,1.481-5.777,3.02-8.688,4.488-.544.273-1.072.574-1.605.865a2.269,2.269,0,0,0-.914.906c-1.015,1.775-1.88,3.628-2.832,5.436-.85,1.614-1.712,3.223-2.527,4.856a2.039,2.039,0,0,1-.989,1.125,1.658,1.658,0,0,1-2.3-1.032c-.445-1.289-.738-2.623-1.12-3.931-1.27-4.512-2.5-9.035-3.764-13.548-.6-2.211-1.135-4.445-1.851-6.618-.664-2.017.64-3.137,2.539-2.575,4.768,1.409,9.575,2.687,14.37,4,1.2.33,2.391.68,3.594,1,.454.12.78.1,1-.411a.8.8,0,0,0-.271-1.127c-.764-.564-1.53-1.132-2.248-1.754a4.142,4.142,0,0,0-2.837-.973c-1.756,0-3.511-.02-5.266.007a3.772,3.772,0,0,1-2.338-.707A34.985,34.985,0,0,1,55.861,44.5a4.3,4.3,0,0,1-1.237-4.213,3.627,3.627,0,0,1,.212-.775,2.417,2.417,0,0,0-.384-2.642,4.193,4.193,0,0,1,.159-5.284c.842-1.046,1.873-1.917,2.8-2.882.564-.587.57-.658-.006-1.241-.961-.97-1.939-1.923-2.891-2.9a1.967,1.967,0,0,0-1.633-.663,4.846,4.846,0,0,1-4.2-1.792,13.73,13.73,0,0,1-2.324-2.7,5.4,5.4,0,0,1-.237-4.665c.82-2.033,1.82-3.989,2.761-5.97.543-1.145,1.071-2.3,1.618-3.44.324-.677.272-.759-.449-.959a36.278,36.278,0,0,0-6.689-1.129,34.133,34.133,0,0,0-13.742,1.8c-.533.177-1.04.42-1.574.592A1.708,1.708,0,0,1,25.8,4.826a1.708,1.708,0,0,1,1.1-2.29,31.641,31.641,0,0,1,9.793-2.4A4.72,4.72,0,0,0,38.05,0" transform="translate(-3.53 0)"/>
        <path id="Trazado_159399" data-name="Trazado 159399" d="M4.731,22.3a37.663,37.663,0,0,1-3.4-4.734A12.046,12.046,0,0,1,9.808.226c.239-.047.548.054.719-.226h2.634a10.932,10.932,0,0,1,3.912.931,12.634,12.634,0,0,1,4.9,4.007,11.857,11.857,0,0,1,2.311,7.032,11.15,11.15,0,0,1-.755,4.291c-.293.726-.239.8.53.8,1.753.008,3.506.019,5.259,0a6.01,6.01,0,0,1,5.033,2.348c.864,1.086,1.737,2.165,2.545,3.294A1.574,1.574,0,0,1,36.78,25a1.47,1.47,0,0,1-1.988.188,13.937,13.937,0,0,1-1.956-2.35c-2.176-2.884-2.069-2.432-4.891-2.453-2.02-.016-4.041.013-6.061-.013a1.529,1.529,0,0,0-1.351.675c-2.3,2.987-4.641,5.948-6.948,8.932-.946,1.224-2.06,1.262-3.029.053C8.7,27.711,6.9,25.35,5.064,23.017a1.536,1.536,0,0,1-.333-.72" transform="translate(-0.001 0)"/>
        <path id="Trazado_159400" data-name="Trazado 159400" d="M86.792,46.017a2.289,2.289,0,0,1,0-1.756Z" transform="translate(-11.893 -6.077)" fill="#494949"/>
        <path id="Trazado_159401" data-name="Trazado 159401" d="M45.695,0a1.873,1.873,0,0,1-1.61,0Z" transform="translate(-6.053 0)" fill="#343434"/>
        <path id="Trazado_159402" data-name="Trazado 159402" d="M42.3,0a1.874,1.874,0,0,1-1.609,0Z" transform="translate(-5.588 0)" fill="#3f3f3f"/>
        <path id="Trazado_159403" data-name="Trazado 159403" d="M86.791,42.31a1.908,1.908,0,0,1,0-1.609Z" transform="translate(-11.893 -5.589)" fill="#434343"/>
        <path id="Trazado_159404" data-name="Trazado 159404" d="M23.639,5.442l.606-.16a1.649,1.649,0,0,0,2.3.549A34.173,34.173,0,0,1,42.3,3.539a34.648,34.648,0,0,1,7.123,1.392C48.449,7,47.49,9.047,46.533,11.089c-.578,1.233-1.166,2.46-1.731,3.7a5.451,5.451,0,0,0,1.157,6.5c.324.33.677.636.977.986a5.032,5.032,0,0,0,4.508,1.919,1.8,1.8,0,0,1,1.492.625c1.091,1.115,2.183,2.23,3.314,3.3.379.36.288.544-.031.851-.914.877-1.8,1.781-2.694,2.683a4.16,4.16,0,0,0-.3,6.019,1.628,1.628,0,0,1,.319,1.691c-.158.46-.3.925-.418,1.4a3.928,3.928,0,0,0,1.212,4.116c1.04.917,2.157,1.747,3.257,2.594a4.1,4.1,0,0,0,2.617.745c1.78,0,3.559.012,5.338-.005a3.511,3.511,0,0,1,2.357.817c.866.71,1.748,1.4,2.653,2.064.377.275.468.492.251.938-.5,1.016-.467,1.027-1.6.712q-8.959-2.482-17.917-4.967a1.576,1.576,0,0,0-2.153,2.128c.65,2.316,1.285,4.638,1.926,6.957a.584.584,0,0,1-.56.278,10.859,10.859,0,0,1-2.471-.068.542.542,0,0,1-.311-.293c-.371-.93-1.137-1.1-2.023-1.107-2.713-.02-2.714-.028-4.658,1.917-.724.724-1.443,1.451-2.171,2.171a2.71,2.71,0,0,0-.855,2.1c.029,1.12,0,2.242.009,3.363a1.969,1.969,0,0,1-.443,1.277c-1.256,1.617-2.539,3.212-3.78,4.839a1.437,1.437,0,0,1-1.642.581A34.336,34.336,0,0,1,20.05,66.791c-.88-.589-.9-.673-.527-1.673.55-1.486,1.162-2.947,1.742-4.421a7.552,7.552,0,0,0,.562-2.92c-.029-1.73,0-3.46-.009-5.19a5.344,5.344,0,0,0-5.264-5.677,3.986,3.986,0,0,1-2.918-1.725,1.2,1.2,0,0,1-.165-1.245,3.92,3.92,0,0,1,.313-.66,8.957,8.957,0,0,0,1.161-4.763,2.074,2.074,0,0,1,2.218-2.251c2.241-.028,4.483-.008,6.726-.009,1.243,0,2.485.006,3.729,0,1.523-.009,2.021-.743,1.476-2.157a.62.62,0,0,1,.146-.609,16.548,16.548,0,0,1,2.3-2.4c1.391-.355,1.47-.449,1.591-1.893.194-.612.763-.923,1.132-1.4.519-.669,1.092-1.293,1.667-1.915a1.027,1.027,0,0,1,.649-.431c.91.462,1.511.4,2.033-.209a1.469,1.469,0,0,0-.1-2.046c-.807-1.066-1.628-2.122-2.449-3.178a5.68,5.68,0,0,0-4.733-2.292c-2.164.005-4.327,0-6.586,0a14.13,14.13,0,0,0,.937-2.873,12.173,12.173,0,0,0-2.039-9.416" transform="translate(-1.836 -0.467)" fill="#c8f2fe"/>
        <path id="Trazado_159405" data-name="Trazado 159405" d="M77.488,49.012c-.821-.638-1.6-1.215-2.347-1.83A6.47,6.47,0,0,0,70.819,45.7c-1.706.015-3.413-.009-5.118.01a2.132,2.132,0,0,1-1.474-.507C63.5,44.591,62.74,44.018,62,43.421c-.77-.62-.852-.919-.555-1.907.147-.489.333-.971.43-1.47a4.164,4.164,0,0,0-.883-3.628c-.837-1.007-.8-1.5.136-2.441Q62.963,32.137,64.8,30.3c1.007-1.012,1-1.713-.018-2.737-1.445-1.449-2.913-2.878-4.338-4.347a4.607,4.607,0,0,0-3.721-1.53,2.421,2.421,0,0,1-2.184-.9c-.356-.43-.79-.795-1.181-1.2a2.563,2.563,0,0,1-.556-3.082c1.516-3.264,3.058-6.516,4.573-9.78.172-.368.34-.35.66-.21A34.589,34.589,0,0,1,77.488,49.012" transform="translate(-7.211 -0.882)" fill="#9fe457"/>
        <path id="Trazado_159406" data-name="Trazado 159406" d="M51.61,65.466a20.692,20.692,0,0,0,3.127-.1q1.821,6.561,3.639,13.12c.038.138.053.283.078.425l-1.72.74c-.049.014-.116.035-.14.009-.8-.893-1.732-.649-2.682-.313a30.151,30.151,0,0,1-7.405,1.6,21.88,21.88,0,0,1-5.748.066c-.7-.122-.774-.271-.344-.832.874-1.14,1.732-2.294,2.669-3.382a4.173,4.173,0,0,0,1.153-3.26c-.081-.844-.008-1.7-.017-2.554a1.628,1.628,0,0,1,.517-1.239c.831-.821,1.662-1.644,2.478-2.481a1.679,1.679,0,0,1,1.369-.556c.1.006.2-.01.292,0a2.338,2.338,0,0,0,2.736-1.245" transform="translate(-5.513 -8.976)" fill="#9fe457"/>
        <path id="Trazado_159407" data-name="Trazado 159407" d="M64,64.148a1.581,1.581,0,0,0,.348,2.275c1.063,1.075,2.135,2.139,3.206,3.206.191.191.374.337.2.67-1.244,2.36-2.469,4.73-3.771,7.234-.468-1.677-.9-3.217-1.329-4.757q-1.865-6.71-3.727-13.421c-.047-.171-.193-.346.054-.481a5.029,5.029,0,0,1,1.279,1.073c.983.981,1.976,1.951,2.938,2.95.343.356.77.684.8,1.25" transform="translate(-8.079 -8.084)" fill="#fd8e8c"/>
        <path id="Trazado_159408" data-name="Trazado 159408" d="M64.018,64.148a59.626,59.626,0,0,0-4.377-4.58c-.217-.229-.429-.462-.644-.693q5.936,1.624,11.871,3.251,3.057.84,6.108,1.7c.136.038.267.1.513.185-.94.493-1.786.941-2.635,1.383-1.4.729-2.822,1.423-4.2,2.2a.835.835,0,0,1-1.219-.212c-.967-1.028-1.982-2.012-2.987-3a1.564,1.564,0,0,0-2.433-.223" transform="translate(-8.101 -8.084)" fill="#fe5d5d"/>
        <path id="Trazado_159409" data-name="Trazado 159409" d="M35.075,28.2l-3.327,3.72c-.226.014-.335-.166-.481-.286a1.982,1.982,0,0,0-1.987-.317,1.173,1.173,0,0,0-.873,1.2,1.241,1.241,0,0,0,.921,1.178c.219.082.5.023.649.267q-1.163,1.346-2.325,2.693c-3.979-.4-7.968-.077-11.951-.181a4.631,4.631,0,0,0-4.819,4.464,8.522,8.522,0,0,1-1.078,4.4,3.793,3.793,0,0,0,.839,4.725A6.864,6.864,0,0,0,15.08,52.19a2.761,2.761,0,0,1,2.7,2.828c.044,2,.019,4,.007,6a2.671,2.671,0,0,1-.177.929c-.556,1.483-1.1,2.97-1.727,4.426-.286.67-.5.721-1.092.248a26.813,26.813,0,0,1-4.319-4.547,34.628,34.628,0,0,1-7.235-17.7A30.1,30.1,0,0,1,3.3,36.789c.054-.388.027-.779.042-1.168a1.377,1.377,0,0,0-.675-1.361.508.508,0,0,1-.266-.333q.277-1.157.552-2.314c.144-.211.383-.175.588-.227a1.307,1.307,0,0,0,1.025-1.01,1.182,1.182,0,0,0-.5-1.266c-.129-.106-.384-.139-.312-.406a29.282,29.282,0,0,0,1.309-3.2q2.925,3.737,5.847,7.473c1.008,1.291,1.913,1.289,2.929-.012,2.353-3.015,4.713-6.024,7.046-9.054a1.207,1.207,0,0,1,1.091-.525q3.948.032,7.9,0a2.8,2.8,0,0,1,2.386,1.171c.93,1.219,1.879,2.423,2.82,3.634" transform="translate(-0.33 -3.212)" fill="#9fe457"/>
        <path id="Trazado_159410" data-name="Trazado 159410" d="M2.07,35.6c1.058.468,1.295.811,1.162,1.976a37.186,37.186,0,0,0,.095,9.981,34.562,34.562,0,0,0,11.352,20.7c.321.283.462.335.636-.122.56-1.479,1.155-2.943,1.73-4.416a3.255,3.255,0,0,0,.216-1.214c-.009-1.878,0-3.755-.005-5.633a2.592,2.592,0,0,0-2.672-2.833,6.606,6.606,0,0,1-4.994-2.8A3.833,3.833,0,0,1,9.1,47.3a.733.733,0,0,1,.066-.129,8.9,8.9,0,0,0,1.217-4.718,4.544,4.544,0,0,1,4.52-4.471c3.777-.082,7.557-.026,11.337-.03a1.991,1.991,0,0,1,1.084.383,1.475,1.475,0,0,1,.277,1.752,1.625,1.625,0,0,1-1.606.794q-5.227-.012-10.455,0c-1.562,0-2.344.712-2.288,2.244a8.507,8.507,0,0,1-1.2,4.805c-.577.967-.427,1.372.416,2.147a4.061,4.061,0,0,0,2.548,1.089,5.459,5.459,0,0,1,5.161,5.579c.028,1.95.005,3.9.006,5.849a6.687,6.687,0,0,1-.524,2.485c-.648,1.624-1.282,3.254-1.945,4.872-.159.386-.165.613.235.883a35.156,35.156,0,0,0,12.888,5.407.629.629,0,0,0,.726-.291q2.03-2.631,4.1-5.232a1.456,1.456,0,0,0,.327-1c-.019-1.243.009-2.486-.014-3.729a2.107,2.107,0,0,1,.656-1.636c1.266-1.25,2.518-2.514,3.777-3.771a2.886,2.886,0,0,1,.272-.242c.685-.529,4.021-.61,4.742-.129a1.734,1.734,0,0,1,.674,1.168c-.28,1.15-.669,1.564-1.813,1.445A4.226,4.226,0,0,0,40.8,64.243,4.871,4.871,0,0,0,38.9,68.986a4.721,4.721,0,0,1-1.414,4.165c-1,1.081-1.84,2.31-2.808,3.548a26.479,26.479,0,0,0,4.433.106,35.459,35.459,0,0,0,9.839-1.913c1.162-.4,1.536-.26,2.265.675.15,1.268-.131,1.669-1.355,2.1a36.751,36.751,0,0,1-13.707,2.093A36.677,36.677,0,0,1,10.739,68.574,36.568,36.568,0,0,1,.65,49.349,37.755,37.755,0,0,1,.342,37.271C.5,36.076.9,35.7,2.07,35.6" transform="translate(0 -4.889)"/>
        <path id="Trazado_159411" data-name="Trazado 159411" d="M3.668,29.548c.893.486,1.178,1,.993,1.794s-.724,1.117-1.792,1.116c-.927-.537-1.237-1.139-.992-1.917.219-.7.842-1.04,1.791-.993" transform="translate(-0.247 -4.057)" fill="#010101"/>
        <path id="Trazado_159412" data-name="Trazado 159412" d="M12.566,27.3a1.015,1.015,0,0,1-.221-.151C9.871,23.923,7.23,20.822,4.9,17.49c-3.7-5.3-.267-13.05,6.13-13.944A9.063,9.063,0,0,1,21.6,12.208a7.9,7.9,0,0,1-1.275,4.938c-2.4,3.523-5.2,6.739-7.756,10.153" transform="translate(-0.464 -0.473)" fill="#72d7fe"/>
        <path id="Trazado_159413" data-name="Trazado 159413" d="M34.081,35.176a1.593,1.593,0,0,1-1.671-.912,1.4,1.4,0,0,1,.272-1.554,2.232,2.232,0,0,1,2.9.081c.094.108.178.225.267.338.135,1.437-.307,1.948-1.77,2.046" transform="translate(-4.433 -4.423)" fill="#000100"/>
        <path id="Trazado_159414" data-name="Trazado 159414" d="M43.116,41.435c-.005,1.224-.646,1.893-1.682,1.755-.92-.122-1.427-1.066-1.221-2.274a1.425,1.425,0,0,1,1.77-1.259c.764.166,1.137.751,1.133,1.778" transform="translate(-5.515 -5.44)" fill="#000101"/>
        <path id="Trazado_159415" data-name="Trazado 159415" d="M43.116,49.075c-.007,1.22-.655,1.888-1.692,1.744-.916-.128-1.421-1.079-1.209-2.283a1.425,1.425,0,0,1,1.778-1.248c.76.169,1.129.756,1.123,1.787" transform="translate(-5.515 -6.487)" fill="#000101"/>
        <path id="Trazado_159416" data-name="Trazado 159416" d="M43.4,56.349c-1.108-.006-1.788-.573-1.774-1.478s.7-1.448,1.814-1.448c1.242,0,1.946.693,1.772,1.743-.13.783-.751,1.19-1.813,1.184" transform="translate(-5.715 -7.335)" fill="#000001"/>
        <path id="Trazado_159417" data-name="Trazado 159417" d="M51.056,56.345c-1.28,0-1.99-.742-1.737-1.809.2-.855,1.089-1.29,2.234-1.1a1.437,1.437,0,0,1,1.3,1.624c-.086.839-.711,1.284-1.8,1.282" transform="translate(-6.765 -7.331)"/>
        <path id="Trazado_159418" data-name="Trazado 159418" d="M43.081,33.928a1.479,1.479,0,0,1-1.493,1.687,1.979,1.979,0,0,1-1.674-1.9,1.521,1.521,0,0,1,1.576-1.481,1.54,1.54,0,0,1,1.591,1.694" transform="translate(-5.481 -4.426)" fill="#010101"/>
        <path id="Trazado_159419" data-name="Trazado 159419" d="M77.593,39.113c0,.428.027.869-.006,1.3a1.411,1.411,0,0,1-1.316,1.331,1.435,1.435,0,0,1-1.489-1.132,32.033,32.033,0,0,1-.256-3.419,27.445,27.445,0,0,0-4.932-12.95c-.267-.378-.553-.744-.8-1.133a1.457,1.457,0,1,1,2.365-1.691,29.769,29.769,0,0,1,2.692,4.082,30.467,30.467,0,0,1,3.746,13.606" transform="translate(-9.402 -2.847)"/>
        <path id="Trazado_159420" data-name="Trazado 159420" d="M67.51,18.078a1.519,1.519,0,0,1-1.475,1.428,1.49,1.49,0,0,1-1.43-1.536A1.42,1.42,0,0,1,66.1,16.6a1.489,1.489,0,0,1,1.411,1.475" transform="translate(-8.871 -2.28)" fill="#010100"/>
        <path id="Trazado_159421" data-name="Trazado 159421" d="M26.45,35.154c-1.266,0-1.984-.757-1.725-1.816.21-.857,1.1-1.287,2.239-1.085a1.431,1.431,0,0,1,1.292,1.629c-.092.836-.714,1.274-1.806,1.272" transform="translate(-3.388 -4.422)" fill="#000100"/>
        <path id="Trazado_159422" data-name="Trazado 159422" d="M18.793,35.158c-1.1-.005-1.785-.582-1.769-1.483s.707-1.445,1.821-1.443c1.238,0,1.946.7,1.767,1.749-.135.782-.753,1.183-1.819,1.178" transform="translate(-2.338 -4.426)" fill="#000100"/>
        <path id="Trazado_159423" data-name="Trazado 159423" d="M13.1,7.757a5.545,5.545,0,0,1-.059,11.091A5.545,5.545,0,1,1,13.1,7.757" transform="translate(-1.031 -1.065)"/>
        <path id="Trazado_159424" data-name="Trazado 159424" d="M13.543,11.145A2.593,2.593,0,0,1,16.15,13.8a2.628,2.628,0,0,1-2.618,2.59,2.667,2.667,0,0,1-2.629-2.6,2.63,2.63,0,0,1,2.64-2.644" transform="translate(-1.497 -1.53)" fill="#fefefe"/>
      </g>
    </g>
  </g>
</svg>
