<svg xmlns="http://www.w3.org/2000/svg" xmlns:xlink="http://www.w3.org/1999/xlink" width="105" height="105" viewBox="0 0 105 105">
  <defs>
    <clipPath id="clip-path">
      <rect id="Rectángulo_42398" data-name="Rectángulo 42398" width="68.891" height="54.399" fill="none"/>
    </clipPath>
  </defs>
  <g id="_15" data-name="15" transform="translate(4055 9022)">
    <circle id="Elipse_4891" data-name="Elipse 4891" cx="52.5" cy="52.5" r="52.5" transform="translate(-4055 -9022)" fill="#ffdfe0"/>
    <g id="Grupo_169170" data-name="Grupo 169170" transform="translate(-4037 -8997)">
      <g id="Grupo_169169" data-name="Grupo 169169" transform="translate(0 0)" clip-path="url(#clip-path)">
        <path id="Trazado_159425" data-name="Trazado 159425" d="M34.462,0h32.1c1.71,0,2.331.614,2.331,2.3V52.087c0,1.692-.624,2.312-2.325,2.312H2.293C.647,54.4,0,53.759,0,52.131V2.273C0,.636.64,0,2.288,0H34.462" transform="translate(0 0)" fill="#212a41"/>
        <path id="Trazado_159426" data-name="Trazado 159426" d="M36.847,53.356H6.791C5.537,53.356,5.5,53.32,5.5,52.1q0-24.736,0-49.473c0-1.2.047-1.254,1.217-1.254H67.129c1.168,0,1.218.052,1.218,1.254V52.1c0,1.218-.038,1.255-1.293,1.255H36.847" transform="translate(-0.664 -0.166)" fill="#6c696f"/>
        <path id="Trazado_159427" data-name="Trazado 159427" d="M3.795,27.364q0,12.766.013,25.532c0,.37-.051.471-.422.467-2.109-.025-2.016.217-2.015-1.9q.009-24.362,0-48.723c0-1.365,0-1.366,1.329-1.366h.076c1.014,0,1.013,0,1.013.986q0,12.5,0,25Z" transform="translate(-0.166 -0.166)" fill="#4e4b51"/>
        <path id="Trazado_159428" data-name="Trazado 159428" d="M37.672,52.886H13.586c-1.147,0-1.213-.064-1.213-1.182V28.67c0-1.09.078-1.17,1.15-1.17H62c1.062,0,1.138.079,1.138,1.182V51.716c0,1.088-.079,1.17-1.15,1.17H37.672" transform="translate(-1.495 -3.323)" fill="#212a41"/>
        <path id="Trazado_159429" data-name="Trazado 159429" d="M62.343,15.775c-.805,0-1.613.043-2.414-.014-.6-.043-.834.221-1,.749-.4,1.32-.879,2.618-1.282,3.939a.94.94,0,0,1-1.1.775c-.626-.041-1.257,0-1.886-.012-.593-.009-.8-.346-.71-.9.224-1.306.452-2.612.7-3.915.085-.455-.035-.639-.528-.633-1.584.022-3.169.011-4.755.007a2.992,2.992,0,0,1-3.144-3.108c0-1.107.007-2.215,0-3.322-.006-.567.249-.836.819-.825.528.011,1.057.014,1.584,0A1.932,1.932,0,0,1,50.05,9.1a2.636,2.636,0,0,1,.425.427,3.5,3.5,0,0,0,3.671,1.433c.5-.055.583-.227.5-.66q-.363-1.954-.692-3.916c-.094-.557.144-.876.73-.88.68,0,1.359.013,2.038-.006a.8.8,0,0,1,.873.65c.443,1.386.935,2.758,1.37,4.147a.788.788,0,0,0,.9.661c1.609-.037,3.22-.018,4.829-.011a2.419,2.419,0,1,1-.018,4.833c-.78.005-1.56,0-2.339,0" transform="translate(-5.585 -0.664)" fill="#212a41"/>
        <path id="Trazado_159430" data-name="Trazado 159430" d="M6.873,27.451q0-11.742,0-23.485a4.35,4.35,0,0,1,.017-.678A.591.591,0,0,1,8.066,3.3a3.625,3.625,0,0,1,.015.6q0,23.636,0,47.272a3.532,3.532,0,0,1-.017.6.591.591,0,0,1-1.175-.016,4.463,4.463,0,0,1-.016-.678V27.451" transform="translate(-0.83 -0.334)" fill="#89868c"/>
        <path id="Trazado_159431" data-name="Trazado 159431" d="M74.234,27.448q0-11.742,0-23.485a4.143,4.143,0,0,1,.018-.678.565.565,0,0,1,.559-.518.572.572,0,0,1,.615.538,3.628,3.628,0,0,1,.015.6q0,23.636,0,47.272a3.445,3.445,0,0,1-.018.6.591.591,0,0,1-1.175-.021,4.354,4.354,0,0,1-.016-.678V27.448" transform="translate(-8.969 -0.335)" fill="#4e4b51"/>
        <path id="Trazado_159432" data-name="Trazado 159432" d="M22.722,8.249h9.053c1.066,0,1.143.08,1.143,1.175,0,1.334-.01,2.667.005,4,.007.6-.237.875-.85.874q-9.429-.009-18.859,0c-.615,0-.853-.281-.847-.877.015-1.433.018-2.867,0-4.3-.009-.66.3-.879.926-.877,3.144.013,6.287.006,9.43.006" transform="translate(-1.494 -0.996)" fill="#212a41"/>
        <path id="Trazado_159433" data-name="Trazado 159433" d="M20.239,20.459H13.6c-.151,0-.3,0-.453,0-.437.008-.769-.16-.753-.633.015-.426.332-.577.737-.577q7.09,0,14.178,0c.438,0,.775.163.753.635s-.389.579-.812.578c-2.338-.006-4.675,0-7.013,0" transform="translate(-1.498 -2.326)" fill="#212a41"/>
        <path id="Trazado_159434" data-name="Trazado 159434" d="M37.937,28.873q11.67,0,23.339-.015c.643,0,.835.123.833.811q-.045,10.689,0,21.379c0,.689-.193.809-.834.808q-23.375-.028-46.752,0c-.614,0-.795-.127-.793-.772q.038-10.727,0-21.454c0-.646.182-.773.794-.771q11.708.032,23.414.014" transform="translate(-1.659 -3.487)" fill="#b6bfd6"/>
        <path id="Trazado_159435" data-name="Trazado 159435" d="M57.13,15.145q-3.7,0-7.4,0A1.869,1.869,0,0,1,47.6,13.017c0-.755.01-1.51-.005-2.266-.006-.31.075-.431.417-.453a1.855,1.855,0,0,1,1.856.715c1.009,1.471,2.4,1.825,4.153,1.757,3.569-.14,7.147-.045,10.722-.04.827,0,1.335.386,1.429,1.048.11.773-.486,1.363-1.413,1.365-2.543.007-5.085,0-7.628,0" transform="translate(-5.75 -1.243)" fill="#b6bfd6"/>
        <path id="Trazado_159436" data-name="Trazado 159436" d="M58.007,11.1c-.732.265-.9-.244-.988-.928-.114-.894-.3-1.779-.426-2.671-.031-.208-.246-.575.141-.6s.914-.3,1.119.266c.429,1.175.8,2.374,1.2,3.558.116.342-.053.387-.324.377-.2-.008-.4,0-.721,0" transform="translate(-6.827 -0.823)" fill="#b6bfd6"/>
        <path id="Trazado_159437" data-name="Trazado 159437" d="M59.161,17.187c-.455,1.379-.855,2.691-1.327,3.977-.186.506-.712.24-1.073.23-.427-.011-.2-.381-.173-.579.16-1.04.377-2.071.515-3.113.056-.425.218-.547.617-.521.447.029.9.007,1.44.007" transform="translate(-6.827 -2.076)" fill="#b6bfd6"/>
        <path id="Trazado_159438" data-name="Trazado 159438" d="M22.846,9.623c2.793,0,5.587.015,8.38-.013.539-.005.69.15.659.674a18.524,18.524,0,0,0,0,2.264c.035.553-.114.721-.7.717-3.548-.03-7.1-.015-10.645-.015-2.063,0-4.127-.017-6.19.011-.5.007-.645-.149-.621-.635a20.048,20.048,0,0,0,0-2.264c-.037-.578.121-.763.733-.755,2.792.036,5.586.016,8.379.016" transform="translate(-1.659 -1.161)" fill="#f8ab2f"/>
        <path id="Trazado_159439" data-name="Trazado 159439" d="M46.074,41.66a9.038,9.038,0,0,1-3.675-.027,1.592,1.592,0,0,1-1.15-1.606c-.032-.829-.032-1.662,0-2.491a1.784,1.784,0,0,1,1.785-1.779c.8-.03,1.611-.025,2.414,0a1.78,1.78,0,0,1,1.828,1.812q.037,3.623,0,7.246a1.778,1.778,0,0,1-1.832,1.809c-1.131.025-2.264,0-3.4.009-.43,0-.78-.114-.787-.6s.331-.62.767-.616c1.031.008,2.063-.018,3.094.01.662.018.982-.218.961-.917-.029-.954-.007-1.91-.007-2.85" transform="translate(-4.981 -4.318)" fill="#212a41"/>
        <path id="Trazado_159440" data-name="Trazado 159440" d="M54.323,41.661a9.037,9.037,0,0,1-3.675-.028,1.592,1.592,0,0,1-1.15-1.607c-.032-.829-.032-1.661,0-2.49a1.785,1.785,0,0,1,1.786-1.779c.8-.029,1.61-.025,2.414,0a1.78,1.78,0,0,1,1.827,1.813q.037,3.623,0,7.246a1.779,1.779,0,0,1-1.833,1.808c-1.132.025-2.264,0-3.4.01-.43,0-.779-.115-.786-.6s.331-.62.768-.616c1.031.008,2.063-.018,3.094.01.663.018.981-.219.96-.917-.029-.955-.007-1.91-.007-2.849" transform="translate(-5.978 -4.318)" fill="#212a41"/>
        <path id="Trazado_159441" data-name="Trazado 159441" d="M62.571,41.631a8.649,8.649,0,0,1-3.582.034,1.646,1.646,0,0,1-1.247-1.691c-.022-.8-.026-1.611,0-2.415a1.788,1.788,0,0,1,1.763-1.8c.828-.033,1.661-.032,2.49,0a1.764,1.764,0,0,1,1.774,1.786q.04,3.66,0,7.321a1.764,1.764,0,0,1-1.8,1.757c-1.157.028-2.315,0-3.472.009-.406,0-.718-.139-.735-.572-.019-.478.3-.642.743-.64,1.056.006,2.114-.015,3.169.008.637.014.923-.24.908-.891-.023-.979-.006-1.961-.006-2.9" transform="translate(-6.974 -4.318)" fill="#212a41"/>
        <path id="Trazado_159442" data-name="Trazado 159442" d="M25.8,46.623c-.407,0-.573-.259-.754-.5C24.2,45,23.34,43.88,22.521,42.736c-.31-.433-.481-.513-.828-.019-.81,1.151-1.677,2.261-2.521,3.387-.263.35-.543.751-1.037.389s-.212-.743.056-1.1c.936-1.246,1.855-2.506,2.817-3.731a.644.644,0,0,0-.01-.957c-.928-1.189-1.822-2.4-2.722-3.614-.28-.375-.715-.789-.129-1.212.539-.389.806.11,1.075.466.818,1.083,1.648,2.157,2.434,3.264.324.456.5.572.877.027.785-1.136,1.641-2.224,2.471-3.329.274-.366.557-.819,1.086-.4.477.375.166.755-.1,1.106-.936,1.247-1.857,2.5-2.816,3.733a.607.607,0,0,0,0,.9c.986,1.27,1.937,2.568,2.9,3.856.17.226.331.452.191.754a.618.618,0,0,1-.475.372" transform="translate(-2.157 -4.318)" fill="#212a41"/>
        <path id="Trazado_159443" data-name="Trazado 159443" d="M32.323,41.177c-.127-.176-.228-.319-.332-.459q-1.4-1.87-2.806-3.739c-.27-.36-.542-.744-.048-1.1s.774.047,1.036.4c.83,1.106,1.689,2.192,2.474,3.329.39.565.585.442.92-.027.8-1.124,1.651-2.217,2.477-3.326.269-.36.557-.733,1.039-.354s.178.753-.087,1.105c-.936,1.246-1.859,2.5-2.815,3.733a.605.605,0,0,0-.007.9c.959,1.227,1.88,2.486,2.816,3.732.264.352.574.736.1,1.108-.524.411-.813-.039-1.089-.405q-1.2-1.6-2.394-3.2c-.506-.674-.506-.674-1.035.03q-1.176,1.569-2.354,3.137c-.27.357-.536.847-1.078.46s-.183-.79.091-1.156q1.378-1.841,2.759-3.68c.117-.156.222-.322.333-.483" transform="translate(-3.487 -4.318)" fill="#212a41"/>
        <path id="Trazado_159444" data-name="Trazado 159444" d="M16.33,40.611q0,4.527,0,9.056a3.521,3.521,0,0,1-.017.6.591.591,0,0,1-1.175-.018,3.612,3.612,0,0,1-.015-.6q0-9.131,0-18.261a3.519,3.519,0,0,1,.017-.6.591.591,0,0,1,1.175.017,3.713,3.713,0,0,1,.016.6v9.207" transform="translate(-1.827 -3.657)" fill="#d4ddf4"/>
        <path id="Trazado_159445" data-name="Trazado 159445" d="M65.986,40.531q0-4.566,0-9.131a2.693,2.693,0,0,1,.031-.675.586.586,0,0,1,1.143-.008,2.871,2.871,0,0,1,.033.675q0,9.131,0,18.261c0,.151,0,.3,0,.453-.014.411-.206.695-.635.676-.384-.016-.565-.291-.569-.667-.005-.654,0-1.308,0-1.962V40.531" transform="translate(-7.972 -3.657)" fill="#98a1b8"/>
        <path id="Trazado_159446" data-name="Trazado 159446" d="M46.242,40.978a5.891,5.891,0,0,0-2.53-.218c-.993-.04-1.092-.106-1.095-1.076,0-.6,0-1.209,0-1.813a.654.654,0,0,1,.739-.746c.7,0,1.409.005,2.114,0,.538-.005.778.257.775.787-.007,1.006,0,2.012,0,3.068" transform="translate(-5.149 -4.486)" fill="#b6bfd6"/>
        <path id="Trazado_159447" data-name="Trazado 159447" d="M54.491,40.975a6.192,6.192,0,0,0-2.572-.215c-.94-.039-1.05-.118-1.053-1.041,0-.6.005-1.209,0-1.813a.677.677,0,0,1,.781-.782c.68.007,1.359.012,2.039,0,.578-.011.818.264.811.829-.013.981,0,1.962,0,3.023" transform="translate(-6.146 -4.485)" fill="#b6bfd6"/>
        <path id="Trazado_159448" data-name="Trazado 159448" d="M62.738,40.98a5.735,5.735,0,0,0-2.514-.22c-1.026-.04-1.11-.094-1.11-1.136,0-.554.011-1.108,0-1.662s.219-.849.8-.84q1.019.016,2.039,0c.531-.008.793.234.79.771-.005,1.007,0,2.012,0,3.086" transform="translate(-7.142 -4.486)" fill="#b6bfd6"/>
      </g>
    </g>
  </g>
</svg>
