<svg xmlns="http://www.w3.org/2000/svg" xmlns:xlink="http://www.w3.org/1999/xlink" width="105" height="105" viewBox="0 0 105 105">
  <defs>
    <clipPath id="clip-path">
      <rect id="Rectángulo_42400" data-name="Rectángulo 42400" width="77.168" height="77.197" fill="none"/>
    </clipPath>
  </defs>
  <g id="_17" data-name="17" transform="translate(5322 8600)">
    <circle id="Elipse_4890" data-name="Elipse 4890" cx="52.5" cy="52.5" r="52.5" transform="translate(-5322 -8600)" fill="#ffdfe0"/>
    <g id="Grupo_169176" data-name="Grupo 169176" transform="translate(-5308 -8586)">
      <g id="Grupo_169175" data-name="Grupo 169175" clip-path="url(#clip-path)">
        <path id="Trazado_159491" data-name="Trazado 159491" d="M71.954,78.672a17.17,17.17,0,0,0-3.4-.578c-.937-.172-1.894-.241-2.841-.356-.115-1.1-.885-1.23-1.79-1.3-.958-.077-1.917-.214-2.866-.383a1.7,1.7,0,0,1-1.6-2.212q1.3-10.16,2.663-20.312c.9-6.8,1.773-13.6,2.683-20.39.159-1.189.238-1.214,1.434-1.028,3.572.556,7.164.97,10.747,1.447q8.88,1.183,17.762,2.339c.876.116,1.756.2,2.629.335,1.092.166,1.186.262,1.048,1.339-.5,3.878-1.013,7.754-1.52,11.63-1.159,8.868-2.342,17.734-3.491,26.6-.151,1.168-.3,2.337-.474,3.5-.093.621-.458.947-1.056.791a1.3,1.3,0,0,0-1.756.854,18.958,18.958,0,0,0-2.7-.308c-.212-.325-.079-.68-.079-1.019-.005-3.08,0-6.16-.006-9.241,0-1.368-.41-1.688-1.786-1.515-3.107.392-6.217.766-9.322,1.171-.53.069-1.021.181-1.2.762-.194.615.151,1.009.589,1.371.661.546,1.371,1.03,2.015,1.6a.6.6,0,0,1,.03,1.021,28.877,28.877,0,0,1-5.244,3.828.477.477,0,0,1-.459.053" transform="translate(-24.538 -13.225)" fill="#51517a"/>
        <path id="Trazado_159492" data-name="Trazado 159492" d="M65.583,75.124c.131-1.369.161-1.432,1.618-1.1.733.167.907.012.992-.723.309-2.668.716-5.324,1.064-7.988.3-2.269.549-4.544.85-6.813.345-2.611.732-5.215,1.08-7.825s.661-5.228,1-7.839c.353-2.69.726-5.377,1.085-8.067.162-1.213.306-2.429.471-3.641.039-.291-.084-.371-.343-.4-2.032-.262-4.062-.536-6.093-.8q-3.324-.437-6.649-.868-2.809-.368-5.617-.741-3.322-.439-6.646-.88c-1.846-.244-3.691-.5-5.54-.717a7.969,7.969,0,0,1-1.645-.3c-.447-.153-.639-.025-.694.429-.375,3.037-.743,6.074-1.142,9.108s-.844,6.059-1.242,9.092c-.353,2.691-.656,5.389-1.009,8.08-.343,2.611-.73,5.216-1.083,7.826q-.507,3.757-.982,7.519a1.368,1.368,0,0,0,1.249,1.49c1.4.187,2.793.389,4.193.551.661.076,1,.292.672,1a1.038,1.038,0,0,0-.006.4c-.186,1.24-.187,1.247-1.385,1.1-1.3-.159-2.6-.312-3.9-.507a3.673,3.673,0,0,1-2.908-2.027A.818.818,0,0,0,32,69.951c-3.75.413-7.5.8-11.254,1.2s-7.5.835-11.255,1.192c-2.728.259-4.361-1.168-4.649-3.893q-1.434-13.57-2.882-27.14-.966-9.1-1.931-18.2a3.881,3.881,0,0,1,3.655-4.465c2.131-.2,4.259-.436,6.386-.67,1.354-.149,1.353-.16,1.534,1.135.561,1.112.409,1.445-.792,1.584-1.941.226-3.884.448-5.83.627-.106.01-.214.018-.32.031-1.718.207-1.913.482-1.732,2.226Q3.9,32.97,4.913,42.353c.671,6.31,1.323,12.623,2.021,18.931.094.851.187,1.7.257,2.558.045.555.265.763.886.689,4.361-.52,8.73-.955,13.1-1.415,3.674-.387,7.346-.8,11.023-1.162a1.022,1.022,0,0,0,1.054-1.043Q34.674,50.034,36.1,39.158c.166-1.248.255-2.513.507-3.742a24.054,24.054,0,0,0-.1-7.674c-.3-2.581-.548-5.166-.829-7.748-.109-1.005.441-1.378,1.461-1.031,1.263-.055,1.266-.056,1.412,1.266.038.342.059.685.092,1.07.1-.045.2-.056.222-.1a3.845,3.845,0,0,1,4.3-2.22q7.681,1.007,15.363,2.011,8.278,1.087,16.556,2.18c.292.038.584.075.874.129a1.277,1.277,0,0,1,1.194,1.58c-.431,3.371-.885,6.739-1.328,10.109Q74.726,43.3,73.632,51.622,72.541,59.9,71.446,68.177c-.291,2.2-.639,4.4-.844,6.609-.185,2-.944,2.333-2.451,1.961a10.993,10.993,0,0,0-1.989-.246c-.638-.036-.833-.3-.626-.9a2.051,2.051,0,0,0,.048-.477" transform="translate(0 -7.397)"/>
        <path id="Trazado_159493" data-name="Trazado 159493" d="M38.95,17.913a4.722,4.722,0,0,1-.479.046c-.719,0-.841.345-.758,1.02.34,2.787.617,5.58.916,8.372.108,1.01.2,2.023.325,3.031a19,19,0,0,1-.405,4.695c-.475,3.927-1.017,7.846-1.536,11.768-.563,4.267-1.114,8.535-1.7,12.8-.2,1.466-.252,1.408-1.751,1.553-3.327.321-6.648.7-9.971,1.055-2.739.291-5.479.56-8.216.871a58.48,58.48,0,0,0-6.044.739c-.413.09-.443-.077-.476-.386-.2-1.862-.412-3.721-.613-5.582Q7.618,52.152,7,46.41c-.345-3.245-.673-6.49-1.019-9.734q-.61-5.743-1.235-11.484c-.12-1.117-.249-2.233-.351-3.351-.1-1.059.3-1.547,1.36-1.668,2.311-.265,4.62-.559,6.938-.748.755-.062.945-.278.717-.959a1.264,1.264,0,0,1,0-.4l2.519-.295c.329.294.235.692.238,1.054.012,1.685,0,3.37.009,5.055.01,1.27.449,1.635,1.682,1.474,3.127-.409,6.261-.763,9.389-1.166.549-.071,1.08-.175,1.262-.8a1.4,1.4,0,0,0-.557-1.414q-.447-.46-.9-.912c-.445-.441-.413-.815.1-1.179a28.621,28.621,0,0,1,3.03-1.96A26.964,26.964,0,0,1,35.9,15.43c.329-.039.629.151.957.121.579.041,1.278-.4,1.689-.038s.2,1.111.277,1.69c.03.238.08.473.122.71" transform="translate(-1.811 -6.347)" fill="#5dc596"/>
        <path id="Trazado_159494" data-name="Trazado 159494" d="M57.5,104.366a36.873,36.873,0,0,0,5.326-3.8c.4-.338.812-.613.045-1.078-.724-.439-1.34-1.051-2.024-1.56a1.282,1.282,0,0,1-.55-1.469,1.3,1.3,0,0,1,1.254-.936c2.849-.344,5.695-.725,8.541-1.091.5-.065,1-.139,1.506-.178A1.262,1.262,0,0,1,73.1,95.6q.02,5.018,0,10.037a3.75,3.75,0,0,1-.135.7,1.252,1.252,0,0,1-2.119.329l-.956-.847a.956.956,0,0,0-1.127-.156c-.385-.061-.454.318-.653.5a38.662,38.662,0,0,1-42.445,6.218c-1.377-.645-1.552-1.156-.844-2.511.656-1.255,1.309-2.513,1.972-3.764.527-1,1.107-1.211,2.1-.741a30.676,30.676,0,0,0,16.549,2.857A31.123,31.123,0,0,0,57.5,104.366" transform="translate(-10.082 -38.918)"/>
        <path id="Trazado_159495" data-name="Trazado 159495" d="M44.165,9.208a33.163,33.163,0,0,0-8.681,4.427c-.506.363-.6.615-.077,1.036a11.821,11.821,0,0,1,1.14,1.129,1.251,1.251,0,0,1,.328,1.329,1.269,1.269,0,0,1-1.128.89c-3.363.423-6.725.858-10.089,1.268a1.293,1.293,0,0,1-1.575-1.444c-.019-2.14-.018-4.28-.026-6.42.007-1.125.031-2.25.016-3.374a1.347,1.347,0,0,1,2.454-.984c.541.557,1.122,1.078,1.638,1.657.346.39.571.45,1.015.083A37.206,37.206,0,0,1,43.45,1.4,38.2,38.2,0,0,1,70.5,3.876c1.038.493,1.237,1.108.7,2.143q-1.046,2.031-2.12,4.049a1.345,1.345,0,0,1-2.053.7A30.589,30.589,0,0,0,50.4,7.9a28.915,28.915,0,0,0-5.575,1.128.642.642,0,0,1-.66.175" transform="translate(-9.935 0)"/>
        <path id="Trazado_159496" data-name="Trazado 159496" d="M99.962,113.39c.5-.863.8-.257,1.127.156a2.03,2.03,0,0,1-1.127-.156" transform="translate(-41.28 -46.645)" fill="#5f5f84"/>
        <path id="Trazado_159497" data-name="Trazado 159497" d="M58.31,15.55c.231-.016.4-.263.66-.175l.16.17a.642.642,0,0,1-.821.005" transform="translate(-24.08 -6.341)" fill="#a8cac0"/>
        <path id="Trazado_159498" data-name="Trazado 159498" d="M97.509,56.689A12.828,12.828,0,0,1,84.68,69.566,12.833,12.833,0,1,1,84.675,43.9a12.826,12.826,0,0,1,12.834,12.79" transform="translate(-29.661 -18.129)"/>
        <path id="Trazado_159499" data-name="Trazado 159499" d="M75.244,92.6c-.074.639-.138,1.166-.195,1.694-.034.321-.2.36-.5.319-1.918-.262-3.84-.5-5.761-.744-.4-.05-.8-.038-1.189-.114-.265-.052-.717-.032-.7-.381a11.036,11.036,0,0,1,.315-1.957c.071-.318.4-.227.616-.2,1.816.225,3.633.45,5.441.724a14.994,14.994,0,0,1,1.5.184c.386.1.6.156.47.476" transform="translate(-27.627 -37.657)"/>
        <path id="Trazado_159500" data-name="Trazado 159500" d="M72.035,24.123c1.249.161,2.779.354,4.309.555q3.361.442,6.721.892,2.768.366,5.536.727,3.4.443,6.8.883,2.689.351,5.378.71c.659.087,1.316.2,1.978.245.487.036.681.227.582.716a11.416,11.416,0,0,0-.2,1.257c-.046.524-.322.673-.8.605-2.211-.312-4.422-.628-6.635-.922s-4.434-.555-6.649-.846c-2.293-.3-4.582-.63-6.876-.929-2.242-.292-4.487-.561-6.73-.84-1.347-.168-2.7-.3-4.036-.519-.637-.1-1.257-.327-1.311-1.166-.065-1.008.371-1.383,1.938-1.368" transform="translate(-28.945 -9.962)" fill="#4a4a75"/>
        <path id="Trazado_159501" data-name="Trazado 159501" d="M14.452,102.715c-1.167.026-1.731-.406-1.756-1.24-.022-.723.588-1.235,1.52-1.333q6.646-.7,13.289-1.419c3.422-.365,6.845-.719,10.266-1.091.338-.037.444.074.42.382-.008.107-.013.214-.028.319-.3,2.013-.3,1.95-2.355,2.139-3.373.309-6.737.713-10.106,1.07-2.733.289-5.467.567-8.2.851-1.061.11-2.122.225-3.05.323" transform="translate(-5.243 -40.315)" fill="#4bac7d"/>
        <path id="Trazado_159502" data-name="Trazado 159502" d="M39.973,50.128A12.863,12.863,0,1,1,27.1,37.264a12.888,12.888,0,0,1,12.87,12.864" transform="translate(-5.883 -15.389)"/>
        <path id="Trazado_159503" data-name="Trazado 159503" d="M21.865,86.282c-.079-.485.115-.642.608-.693,4.407-.453,8.81-.936,13.215-1.409,1.035-.112,2.072-.206,3.1-.335.427-.053.648.043.674.516.029.531.106,1.061.183,1.589.049.34-.141.417-.412.446q-3.146.328-6.292.659c-3.264.346-6.53.682-9.791,1.053-1.032.117-1.023.163-1.141-.877-.036-.318-.1-.632-.15-.949" transform="translate(-9.022 -34.619)"/>
        <path id="Trazado_159504" data-name="Trazado 159504" d="M67.072,99.657c1.907-.245,3.625-.456,5.34-.692.465-.064.384.237.385.49,0,1.66,0,3.319,0,5.069-.511-.307-.922-.746-1.537-.593a3.022,3.022,0,0,0-1.317,1.013,36.151,36.151,0,0,1-39.493,7.7c-.59-.244-.693-.456-.381-1.029.837-1.536.794-1.5,2.544-.9,13.333,4.568,25.163,2.014,35.484-7.561,1.216-1.128,1.146-1.761-.15-2.776-.249-.2-.49-.4-.875-.721" transform="translate(-12.347 -40.865)" fill="#f3c26e"/>
        <path id="Trazado_159505" data-name="Trazado 159505" d="M34.652,17.588c-1.751.221-3.384.441-5.021.628-1.151.131-1.153.11-1.153-1.041V12.7c.326.3.554.5.772.716.86.841,1.384.883,2.285.09A35.288,35.288,0,0,1,41.992,7.025a35.813,35.813,0,0,1,27.457.163c.617.249.829.447.441,1.127-.842,1.475-.784,1.454-2.348.9Q49.6,2.825,34.469,14.413c-1.341,1.028-1.335,1.54-.157,2.779.088.092.166.193.34.4" transform="translate(-11.76 -1.805)" fill="#f3c26e"/>
        <path id="Trazado_159506" data-name="Trazado 159506" d="M94.855,62.945a17.219,17.219,0,0,1-.535,3.212c-.12.437-.3.546-.8.467-1.839-.292-3.688-.516-5.539-.724-1.151-.13-1.191-.106-1.15-1.222a16.943,16.943,0,0,1,.532-3.549c.112-.44.3-.547.8-.466,1.812.292,3.635.517,5.459.721,1.236.139,1.24.1,1.236,1.562" transform="translate(-35.853 -25.041)" fill="#51517a"/>
        <path id="Trazado_159507" data-name="Trazado 159507" d="M76.115,62.9a9.474,9.474,0,0,1,.574-3.279.511.511,0,0,1,.638-.424c.839.117,1.68.222,2.522.319.505.058.756.253.579.813a10.369,10.369,0,0,0-.459,3.619c.029.619-.069.965-.855.747a10.469,10.469,0,0,0-2.129-.254c-.7-.045-.99-.365-.873-1.061a2.9,2.9,0,0,0,0-.48" transform="translate(-31.42 -24.442)" fill="#515179"/>
        <path id="Trazado_159508" data-name="Trazado 159508" d="M108.164,64.674a8.85,8.85,0,0,1-.564,3.289c-.113.321-.257.5-.628.446-.814-.121-1.634-.21-2.447-.335-.5-.077-.816-.23-.6-.9a17.057,17.057,0,0,0,.512-3.706c.055-.613.2-.688.768-.554a13.921,13.921,0,0,0,2.135.261c.656.051.958.338.829,1.015a2.626,2.626,0,0,0,0,.481" transform="translate(-42.888 -25.959)" fill="#515179"/>
        <path id="Trazado_159509" data-name="Trazado 159509" d="M88.4,73.875c1.527.179,2.951.334,4.371.521.434.057.737.173.35.744A15.225,15.225,0,0,1,90.4,78.35c-.444.374-.638.215-.861-.13A14.59,14.59,0,0,1,87.857,74.7c-.181-.571-.386-1.194.542-.82" transform="translate(-36.218 -30.461)" fill="#515179"/>
        <path id="Trazado_159510" data-name="Trazado 159510" d="M95.232,54.232c-1.454-.168-3.013-.341-4.571-.534-.525-.065-.729-.215-.346-.8a15.88,15.88,0,0,1,2.756-3.2c.234-.207.4-.424.675-.011a15.591,15.591,0,0,1,1.937,4.118c.084.274.117.571-.452.421" transform="translate(-37.215 -20.424)" fill="#515179"/>
        <path id="Trazado_159511" data-name="Trazado 159511" d="M77.521,72.535a18.12,18.12,0,0,1,2.742.328c.295.055.517.157.576.456a21.291,21.291,0,0,0,1.545,4.436,10.162,10.162,0,0,1-4.863-5.22" transform="translate(-32.013 -29.954)" fill="#515179"/>
        <path id="Trazado_159512" data-name="Trazado 159512" d="M85.743,48.839c-.21.6-.684.91-.957,1.363a12.586,12.586,0,0,0-1.034,1.614c-.36.885-.811,1.353-1.832,1.017A8.282,8.282,0,0,0,80.5,52.65c-.335-.047-.6-.139-.312-.563a9.733,9.733,0,0,1,5.557-3.248" transform="translate(-33.063 -20.169)" fill="#515179"/>
        <path id="Trazado_159513" data-name="Trazado 159513" d="M106.489,55.414a18.1,18.1,0,0,1-2.749-.329c-.292-.055-.524-.15-.578-.453a18.463,18.463,0,0,0-1.425-4.288,9.658,9.658,0,0,1,4.752,5.07" transform="translate(-42.013 -20.79)" fill="#515179"/>
        <path id="Trazado_159514" data-name="Trazado 159514" d="M103.512,76.187A10.56,10.56,0,0,1,97.7,79.9c.093-.619.568-.883.822-1.287.524-.835,1.056-1.667,1.562-2.513a.561.561,0,0,1,.7-.318c.875.15,1.775.149,2.731.4" transform="translate(-40.346 -31.288)" fill="#515179"/>
        <path id="Trazado_159515" data-name="Trazado 159515" d="M29.515,56.86c-.056-1.852-.06-1.886,1.454-2.075,1.7-.213,3.4-.343,5.1-.538.552-.063.811.079.927.667a16.925,16.925,0,0,1,.406,3.818c-.011.354-.062.609-.509.653q-3.071.3-6.138.65c-.572.066-.8-.132-.913-.693a12.17,12.17,0,0,1-.329-2.482" transform="translate(-12.182 -22.396)" fill="#5dc596"/>
        <path id="Trazado_159516" data-name="Trazado 159516" d="M18.628,57.9c0-.187.013-.376,0-.562-.059-.744.171-1.138,1.025-1.11A10.241,10.241,0,0,0,21.8,56c.5-.092.69,0,.662.538a13.31,13.31,0,0,0,.422,4.055c.116.445-.1.525-.42.559-.93.1-1.863.171-2.794.266-.4.041-.493-.215-.583-.517a9.943,9.943,0,0,1-.458-3" transform="translate(-7.688 -23.112)" fill="#5dc596"/>
        <path id="Trazado_159517" data-name="Trazado 159517" d="M50.712,56.47c0,1.614,0,1.62-1.463,1.837-.606.089-1.219.133-1.823.229-.389.062-.453-.122-.457-.444a18.69,18.69,0,0,0-.461-4.124c-.106-.444.042-.558.433-.593.929-.085,1.858-.171,2.783-.289.392-.05.429.2.515.459a8.23,8.23,0,0,1,.474,2.925" transform="translate(-19.192 -21.92)" fill="#5dc596"/>
        <path id="Trazado_159518" data-name="Trazado 159518" d="M37.986,67.721c-.1.293-.222.648-.354,1a14.381,14.381,0,0,1-1.657,3.11c-.191.276-.36.446-.688.149A14.5,14.5,0,0,1,32.458,68.4c-.219-.383.011-.472.321-.5,1.595-.168,3.189-.338,4.785-.491.161-.016.47-.151.422.313" transform="translate(-13.368 -27.824)" fill="#5dc596"/>
        <path id="Trazado_159519" data-name="Trazado 159519" d="M30.915,47.593c-.484.087-.529-.11-.392-.533a14.969,14.969,0,0,1,1.964-3.924c.23-.332.393-.346.68-.076a14.685,14.685,0,0,1,2.779,3.5c.149.264.287.5-.177.545q-2.427.246-4.855.486" transform="translate(-12.577 -17.704)" fill="#5dc596"/>
        <path id="Trazado_159520" data-name="Trazado 159520" d="M27.982,73.275a10.738,10.738,0,0,1-6.007-4c1.122-.1,2.088-.188,3.055-.269.227-.019.328.156.406.328a20.022,20.022,0,0,0,2.547,3.944" transform="translate(-9.075 -28.495)" fill="#5dc496"/>
        <path id="Trazado_159521" data-name="Trazado 159521" d="M24.979,43.667a27.184,27.184,0,0,0-1.526,4.355c-.047.195-.182.241-.35.261l-2.929.344a9.62,9.62,0,0,1,4.806-4.96" transform="translate(-8.331 -18.033)" fill="#5dc496"/>
        <path id="Trazado_159522" data-name="Trazado 159522" d="M40.722,42.513a7.74,7.74,0,0,1,3.855,1.825A13.563,13.563,0,0,1,46,45.753c.266.287.368.555-.214.587-.72.04-1.437.12-2.155.185-.276.025-.514.028-.66-.294a26.919,26.919,0,0,0-2.245-3.718" transform="translate(-16.817 -17.556)" fill="#5dc596"/>
        <path id="Trazado_159523" data-name="Trazado 159523" d="M43.9,71.11a16.853,16.853,0,0,0,1.526-3.965c.069-.27.092-.5.461-.535.8-.07,1.591-.193,2.388-.28.21-.023.5-.039.323.319a9.68,9.68,0,0,1-4.321,4.484c-.08.041-.207-.01-.377-.023" transform="translate(-18.127 -27.388)" fill="#5dc596"/>
      </g>
    </g>
  </g>
</svg>
