<svg xmlns="http://www.w3.org/2000/svg" xmlns:xlink="http://www.w3.org/1999/xlink" width="105" height="105" viewBox="0 0 105 105">
  <defs>
    <clipPath id="clip-path">
      <rect id="Rectángulo_42401" data-name="Rectángulo 42401" width="79.07" height="79.138" fill="none"/>
    </clipPath>
  </defs>
  <g id="_18" data-name="18" transform="translate(5007 8600)">
    <circle id="Elipse_4891" data-name="Elipse 4891" cx="52.5" cy="52.5" r="52.5" transform="translate(-5007 -8600)" fill="#ffdfe0"/>
    <g id="Grupo_169179" data-name="Grupo 169179" transform="translate(-4994 -8587)">
      <g id="Grupo_169178" data-name="Grupo 169178" transform="translate(0 0)" clip-path="url(#clip-path)">
        <path id="Trazado_159524" data-name="Trazado 159524" d="M12.477,66.767c-.868.508-1.25.472-1.89-.224A38.67,38.67,0,0,1,.261,44.2,39.178,39.178,0,0,1,22.249,4.017,39.506,39.506,0,0,1,77.994,30.4a36.263,36.263,0,0,1,.932,5.936c.009.121-.02.262.143.316v6.025a39.44,39.44,0,0,1-.7,5.4,39.228,39.228,0,0,1-8.309,16.94A40.118,40.118,0,0,1,59.8,73.8a38.845,38.845,0,0,1-14.679,5.14c-.883.122-1.784.048-2.666.2H36.581a16.586,16.586,0,0,0-3-.451A39.679,39.679,0,0,1,14.4,70.136c-.639-.519-.692-.964-.272-1.753a1.093,1.093,0,0,1,1.7-.293c.764.522,1.467,1.128,2.225,1.662A36.791,36.791,0,0,0,35.162,76.33,36.224,36.224,0,0,0,56.68,72.4,36.679,36.679,0,0,0,70.892,59.234a27.477,27.477,0,0,0,2.3-4.275,34.46,34.46,0,0,0,3.163-11.721A36.349,36.349,0,0,0,71,20.129,36.8,36.8,0,0,0,55.276,6.07,36.259,36.259,0,0,0,42.355,2.693,36.257,36.257,0,0,0,22.5,6.708,36.747,36.747,0,0,0,7.452,21.066,36.025,36.025,0,0,0,2.847,34.414,37.124,37.124,0,0,0,3.984,50,40.559,40.559,0,0,0,5.82,54.909a34.181,34.181,0,0,0,4.621,7.619c.651.826,1.349,1.615,2.056,2.4.634.7.61,1.28-.019,1.844" transform="translate(0 0)"/>
        <path id="Trazado_159525" data-name="Trazado 159525" d="M74.033,61.675A29.376,29.376,0,0,1,70.026,68.5,36.3,36.3,0,0,1,47.443,82.719c-11.157,2.129-21.271-.384-30.3-7.276q-.308-.234-.609-.475a1.18,1.18,0,0,0-1.722.054l-1.65-1.616a1.369,1.369,0,0,0-.282-1.915,36.436,36.436,0,0,1-6.29-9.249c-.087-.182-.145-.378-.218-.568.376-.054.474.254.607.488A38.41,38.41,0,0,0,26.372,78.971,38.067,38.067,0,0,0,36.4,81.379a38.144,38.144,0,0,0,26.71-7.47A39.071,39.071,0,0,0,73.353,62.3c.158-.269.229-.662.68-.625" transform="translate(-0.686 -6.639)" fill="#e5485d"/>
        <path id="Trazado_159526" data-name="Trazado 159526" d="M73.62,55.308A7.272,7.272,0,0,0,72.453,57.1a36.612,36.612,0,0,1-7,8.441,37.364,37.364,0,0,1-15.585,8.492,42.98,42.98,0,0,1-7.24,1.239,37.133,37.133,0,0,1-11.359-.837,38.143,38.143,0,0,1-21.1-13.09A38.628,38.628,0,0,1,6.232,55.57a1.288,1.288,0,0,0-.271-.262A33.656,33.656,0,0,1,2.9,44.857,35.683,35.683,0,0,1,4.569,27.822C8.718,16.281,16.583,8.336,28.243,4.518A35.679,35.679,0,0,1,60.063,8.676,36,36,0,0,1,76.421,33.335,36.351,36.351,0,0,1,73.837,54.9c-.062.139-.145.27-.217.405" transform="translate(-0.273 -0.272)" fill="#fe5876"/>
        <path id="Trazado_159527" data-name="Trazado 159527" d="M63.22,18.057c.452.616,1.137,1.038,1.474,1.751a3.641,3.641,0,0,0,1.026,2.614,30.167,30.167,0,0,1,5.727,14.858,30.529,30.529,0,0,1-2.594,16.083,2.588,2.588,0,0,1-.332.607c-.8.878-1.347,1.936-2.056,2.881A31.928,31.928,0,0,1,45.487,69.625,34.176,34.176,0,0,1,41.658,70c-.3.016-.767.175-.841-.389a2.7,2.7,0,0,0,.744-2.187c-.029-.565,0-1.131-.006-1.7a2.946,2.946,0,0,0-.078-.766c-.137-.5-.354-.933-.966-.923-.569.01-.783.415-.913.891a3.173,3.173,0,0,0-.088.841c0,.617.013,1.234,0,1.851a2.538,2.538,0,0,0,.717,1.968c.013.567-.444.421-.717.411a32.311,32.311,0,0,1-3.837-.357A32.2,32.2,0,0,1,13.82,55.755,11.961,11.961,0,0,0,12.568,54a24,24,0,0,1-2.274-6.211,28.982,28.982,0,0,1-.861-7.565,31.431,31.431,0,0,1,2.694-12.194A31.106,31.106,0,0,1,36.638,9.789a30.7,30.7,0,0,1,18.31,3.283,28.563,28.563,0,0,1,6.083,4.2,2.358,2.358,0,0,0,2.19.788" transform="translate(-1.015 -1.025)" fill="#e3edf8"/>
        <path id="Trazado_159528" data-name="Trazado 159528" d="M62.96,17.8a1.344,1.344,0,0,1-1.862-.219A29.834,29.834,0,0,0,44.8,9.829,30.1,30.1,0,0,0,20.372,16.8,29.911,29.911,0,0,0,9.756,35.731a29.557,29.557,0,0,0,2.7,17.916,38.369,38.369,0,0,0,6.5,8.764,30.661,30.661,0,0,0,17.28,8.346A30.64,30.64,0,0,0,66.314,56.54c.6-.958,1.2-1.915,1.768-2.894a28.251,28.251,0,0,0,2.806-9.47A30.416,30.416,0,0,0,67.37,25.551a28.412,28.412,0,0,0-2.807-4.237,1.329,1.329,0,0,1-.129-1.759c.868-.558,1.324-.49,1.966.335a32.21,32.21,0,0,1,6.958,18.064A33.049,33.049,0,0,1,53.288,70.9a31.124,31.124,0,0,1-16.975,2.382c-13-1.843-22.087-8.922-27-21.036a32.835,32.835,0,0,1,7.768-35.622A32.072,32.072,0,0,1,35.564,7.511a32.666,32.666,0,0,1,27.039,8.3c.816.723.868,1.07.357,2" transform="translate(-0.754 -0.773)"/>
        <path id="Trazado_159529" data-name="Trazado 159529" d="M30.508,35.966a1.19,1.19,0,0,1-1.72-.163c-2.129-1.9-4.275-3.79-6.394-5.706a3.484,3.484,0,1,1,4.648-5.182q6.581,5.843,13.145,11.707a2.168,2.168,0,0,0,2.792-.066c2.114-2.144,4.207-4.31,6.348-6.428a3.455,3.455,0,0,1,5.822,1.568,3.4,3.4,0,0,1-.946,3.4c-2.282,2.3-4.536,4.638-6.844,6.916-.692.684-.5,1.636-.92,2.389-.114.2.244.353.413.5q5.761,4.843,11.527,9.678a7.956,7.956,0,0,1,.637.561,1.149,1.149,0,0,1-1.511,1.731c-.251-.178-.478-.39-.715-.588q-5.7-4.79-11.4-9.589a.753.753,0,0,0-1.045-.107A5.082,5.082,0,0,1,36.832,43.4a1.779,1.779,0,0,0-.576-.958c-1.184-1.03-2.351-2.08-3.522-3.126-.779-.7-.84-1.014-.394-1.94A1.11,1.11,0,0,1,34,37.129c.782.505,1.362,1.25,2.114,1.791.318.224.505.832.933.646.445-.193.67-.743.96-1.16.1-.141-.01-.294-.114-.415-.167-.194-.361-.362-.543-.543q-3.263-2.882-6.506-5.788c-1.643-1.479-3.328-2.909-4.936-4.425a4.789,4.789,0,0,0-.646-.548.978.978,0,0,0-1.337.063.965.965,0,0,0,.062,1.392c.543.544,1.128,1.05,1.711,1.553,1.6,1.375,3.146,2.8,4.735,4.188.9.782.891,1.505.077,2.082" transform="translate(-2.272 -2.575)"/>
        <path id="Trazado_159530" data-name="Trazado 159530" d="M68.74,59.253A28.494,28.494,0,0,1,62.414,68.1a30.617,30.617,0,0,1-18.286,8.581,31.025,31.025,0,0,1-30.96-17.207,1,1,0,0,1-.051-.221,23.867,23.867,0,0,1,2,2.795,32.66,32.66,0,0,0,6.373,6.5A31.522,31.522,0,0,0,34.2,74.441a37.848,37.848,0,0,0,5.684.72c.245.015.519.083.731-.133a.4.4,0,0,1,.62,0,1.793,1.793,0,0,0,1.269.124,35.214,35.214,0,0,0,8.771-1.7,32.349,32.349,0,0,0,10.512-6.063,35.634,35.634,0,0,0,6.554-7.681c.111-.17.178-.376.394-.453" transform="translate(-1.412 -6.379)" fill="#d4dff1"/>
        <path id="Trazado_159531" data-name="Trazado 159531" d="M36.325,39.382c-.617-.532-1.25-1.047-1.849-1.6a1.315,1.315,0,0,0-1.854-.125c-.643-.428-1.057-1.154-1.832-1.411.609-.8.593-1.22-.178-1.911-2.006-1.8-4.029-3.584-6.051-5.367-.428-.379-.891-.743-.833-1.388a1.157,1.157,0,0,1,1.972-.716c1.087.9,2.122,1.863,3.177,2.8q4.285,3.817,8.566,7.638a4.324,4.324,0,0,1,.309.341,2.659,2.659,0,0,1-1.426,1.736" transform="translate(-2.554 -2.857)" fill="#405b6c"/>
        <path id="Trazado_159532" data-name="Trazado 159532" d="M44.453,76.22h-.62a1.236,1.236,0,0,1-.85-1.293c-.012-1.107-.021-2.215,0-3.321.018-.812.452-1.271,1.138-1.281.718-.012,1.162.46,1.179,1.32.021,1.081-.006,2.163.009,3.244a1.366,1.366,0,0,1-.858,1.332" transform="translate(-4.627 -7.571)" fill="#020202"/>
        <path id="Trazado_159533" data-name="Trazado 159533" d="M45.3,14.793c0,.589.03,1.181-.008,1.767A1.147,1.147,0,0,1,43,16.547q-.056-1.8,0-3.611a1.071,1.071,0,0,1,1.114-1.129A1.128,1.128,0,0,1,45.3,12.948a1.471,1.471,0,0,1,.006.153q0,.846,0,1.691H45.3" transform="translate(-4.626 -1.271)" fill="#020202"/>
        <path id="Trazado_159534" data-name="Trazado 159534" d="M14.744,43.059c.564,0,1.129-.029,1.69.007a1.125,1.125,0,0,1,1.179,1.153,1.111,1.111,0,0,1-1.173,1.156q-1.767.056-3.535,0a1.114,1.114,0,0,1-1.179-1.151A1.149,1.149,0,0,1,12.9,43.06a1.471,1.471,0,0,1,.153-.006h1.691v.005" transform="translate(-1.262 -4.635)" fill="#020202"/>
        <path id="Trazado_159535" data-name="Trazado 159535" d="M73.184,43.059c.589,0,1.181-.029,1.768.007a1.126,1.126,0,0,1,1.181,1.15,1.114,1.114,0,0,1-1.173,1.157c-1.177.038-2.358.037-3.535,0a1.111,1.111,0,0,1-1.181-1.148,1.123,1.123,0,0,1,1.171-1.159c.587-.037,1.179-.008,1.768-.008" transform="translate(-7.563 -4.635)" fill="#020202"/>
        <path id="Trazado_159536" data-name="Trazado 159536" d="M48.775,37.96c1.71-1.739,3.415-3.485,5.134-5.215a1.2,1.2,0,0,1,1.661-.1,1.174,1.174,0,0,1,.006,1.666c-1.783,1.811-3.592,3.6-5.391,5.391a3.533,3.533,0,0,1-1.41-1.746" transform="translate(-5.251 -3.484)" fill="#405b6b"/>
        <path id="Trazado_159537" data-name="Trazado 159537" d="M41.191,44.181a2.766,2.766,0,1,1,5.521,0,3.746,3.746,0,0,1-5.521,0" transform="translate(-4.435 -4.439)" fill="#fe5875"/>
        <path id="Trazado_159538" data-name="Trazado 159538" d="M41.191,44.536a7.122,7.122,0,0,0,2.051.95,3.952,3.952,0,0,0,3.069-.729,3.628,3.628,0,0,1,.4-.22,2.763,2.763,0,0,1-5.521,0" transform="translate(-4.435 -4.795)" fill="#e5485d"/>
        <path id="Trazado_159539" data-name="Trazado 159539" d="M37.846,40.723l1.426-1.736c.174.147.34.306.525.438.45.321.428.629,0,.952a1.616,1.616,0,0,0-.26.28c-.8,1.007-.8,1.008-1.7.065" transform="translate(-4.075 -4.197)" fill="#2d4355"/>
        <path id="Trazado_159540" data-name="Trazado 159540" d="M48.682,38.636a16.25,16.25,0,0,1,1.409,1.746c-.755.888-.755.888-1.5.085l-.053-.055c-.858-.909-.858-.909.142-1.776" transform="translate(-5.159 -4.16)" fill="#2d4355"/>
      </g>
    </g>
  </g>
</svg>
