<svg xmlns="http://www.w3.org/2000/svg" xmlns:xlink="http://www.w3.org/1999/xlink" width="105" height="105" viewBox="0 0 105 105">
  <defs>
    <clipPath id="clip-path">
      <rect id="Rectángulo_42402" data-name="Rectángulo 42402" width="71.943" height="66.674" fill="none"/>
    </clipPath>
  </defs>
  <g id="_19" data-name="19" transform="translate(4685 8600)">
    <circle id="Elipse_4889" data-name="Elipse 4889" cx="52.5" cy="52.5" r="52.5" transform="translate(-4685 -8600)" fill="#ffdfe0"/>
    <g id="Grupo_169182" data-name="Grupo 169182" transform="translate(-4668 -8581)">
      <g id="Grupo_169181" data-name="Grupo 169181" transform="translate(0 0)" clip-path="url(#clip-path)">
        <path id="Trazado_159541" data-name="Trazado 159541" d="M71.913,46.337q0-6.172,0-12.345c0-.917-.2-1.185-1.025-1.407-.026,0-.047.009-.073.012.011.048.02.1.034.144-.876.163-1.107.447-1.107,1.388q0,12.559,0,25.117a4.911,4.911,0,0,1-3.846,5.019,6.024,6.024,0,0,1-1.321.124c-2.175.012-4.35-.009-6.524.017-.5.007-.62-.152-.619-.633q.022-10.875,0-21.75c0-.469.112-.634.609-.67A4.842,4.842,0,0,0,62.6,36.564c.04-1.8.037-3.6,0-5.4a4.858,4.858,0,0,0-4.657-4.848c-.384-.026-.522-.123-.521-.524q.021-5.543,0-11.085c0-.388.144-.461.491-.459,2.385.013,4.771-.031,7.156.022a4.871,4.871,0,0,1,4.655,4.867c.03,3.274.023,6.548,0,9.822A1.267,1.267,0,0,0,70.743,30.4c0,.042,0,.084,0,.126.929-.142,1.164-.418,1.165-1.387q0-5.223,0-10.447a5.4,5.4,0,0,0-.231-1.727A7.073,7.073,0,0,0,66.4,12.127a11.966,11.966,0,0,0-2.93-.181c-.461,0-.7-.179-.686-.661.009-.233,0-.468,0-.7A2.428,2.428,0,0,0,61.4,8.306a5.665,5.665,0,0,0-4.8.046,1.519,1.519,0,0,0-.39.3,3.153,3.153,0,0,0-.986,2.458c0,.776-.068.832-.845.837-1.052.009-2.1.005-3.155,0-.872,0-.9-.02-.92-.905a3.035,3.035,0,0,0-1.551-2.8,1,1,0,0,1-.554-.97c0-.677.017-1.356-.006-2.033a5.772,5.772,0,0,0-5.12-5.2C41.457-.028,39.843.011,38.23.025a1.109,1.109,0,0,0-1.224.919c0,.035,0,.065,0,.1.042-.015.083-.021.125-.039.044.965.358,1.267,1.349,1.273,1.239.007,2.477-.012,3.716.007a3.523,3.523,0,0,1,3.736,3.732c.007.514-.017,1.029.009,1.543.019.368-.058.526-.485.536-1.633.036-1.632.054-1.634-1.562,0-.233.008-.468-.006-.7a1.356,1.356,0,0,0-1.413-1.424q-6.415-.026-12.831,0a1.347,1.347,0,0,0-1.411,1.424,11.2,11.2,0,0,1-.031,1.818c-.195.917-.979.266-1.475.417-.284.086-.661.116-.623-.438.048-.7-.012-1.4.035-2.1a3.444,3.444,0,0,1,3.292-3.221c1.33-.051,2.664-.017,4-.027.991-.009,1.3-.31,1.348-1.274.042.017.084.024.126.039,0-.03,0-.056,0-.088-.163-.748-.727-.916-1.377-.926C32.176.01,30.889.073,29.607.012a5.74,5.74,0,0,0-5.814,5.807c.023.513.005,1.027,0,1.541a.85.85,0,0,1-.447.813A3.071,3.071,0,0,0,21.7,11.2c.016.591-.244.774-.8.761-1.027-.025-2.056-.006-3.084-.007s-1.032,0-1.059-1.052A2.713,2.713,0,0,0,15.38,8.373a5.365,5.365,0,0,0-4.731-.1,2.609,2.609,0,0,0-1.455,2.732c.033.912-.021.927-.942.942a14.63,14.63,0,0,0-2.239.069C2.783,12.569.787,14.521,0,17.9V60.7c.187.482.122,1.012.311,1.5a7.223,7.223,0,0,0,6.5,4.47q29.109.008,58.217,0a6.475,6.475,0,0,0,1.255-.109,7.131,7.131,0,0,0,5.661-6.97c-.115-4.416-.027-8.837-.027-13.256M58.43,10.183c.465.027.933.007,1.4.005s.663.222.691.683c.077,1.273.088,1.273-1.2,1.273h-.77c-1.02,0-1,0-1.017-1.038-.012-.649.218-.964.895-.923m-4.941,4.065c.6.067,1.394-.256,1.74.137.294.334.095,1.11.1,1.691,0,3.2-.007,6.4.012,9.6,0,.474-.109.638-.613.636-1.8-.007-1.8.014-1.8-1.815v-4.2c0-1.822.015-3.643-.01-5.464-.007-.456.116-.63.58-.578m-10.77-4.068q2.166.04,4.332,0c.649-.011.973.221.922.893a2.4,2.4,0,0,0,0,.489c.058.436-.077.617-.56.594-.859-.041-1.722-.012-2.584-.012s-1.724-.014-2.585.007c-.338.008-.463-.1-.428-.436a3.355,3.355,0,0,0,0-.628c-.056-.664.241-.919.9-.908M30.269,6.8c-.013-.4.294-.281.5-.282,1.753-.007,3.506,0,5.259,0,1.706,0,3.412.015,5.118-.01.443-.006.609.092.588.568-.028.624.026,1.123-.755,1.477a2.474,2.474,0,0,0-1.268,2.54c.021,1.059,0,1.059-1.044,1.059-1.917,0-3.834-.02-5.75.014-.517.009-.7-.106-.649-.643a3.085,3.085,0,0,0-.649-2.5c-.173-.188-.359-.434-.581-.492-1.018-.262-.74-1.053-.763-1.728m-6.257,4.691a2.59,2.59,0,0,0,0-.349c.007-.8.142-.947.923-.949,1.444,0,2.888.018,4.332-.01.664-.012.954.252.9.912a3.3,3.3,0,0,0,0,.628c.037.339-.1.439-.432.432-.908-.02-1.817-.007-2.725-.007-.792,0-1.586-.041-2.374.014-.558.039-.7-.177-.625-.67M11.47,11.175c.006-.915.077-.984,1.013-.987h.7c1.235,0,1.227.027,1.274,1.244.022.581-.131.81-.721.719a5.1,5.1,0,0,0-.768-.007h-.56c-.943,0-.943,0-.937-.969m3.087,52.769c.005.4-.173.458-.508.456-2.408-.015-4.818.032-7.224-.036A4.812,4.812,0,0,1,2.115,59.5q-.026-20.166,0-40.332a4.887,4.887,0,0,1,4.969-4.914c2.268-.009,4.536.022,6.8-.018.588-.01.687.192.673.712-.03,1.122,0,2.244.009,3.366a1.2,1.2,0,0,0,1.005.744c.817-.192,1.071-.478,1.082-1.291.014-1.005.022-2.012-.005-3.016-.01-.4.116-.5.509-.509,1.906-.036,1.906-.048,1.906,1.842,0,3.157-.013,6.313.013,9.47,0,.553-.092.77-.708.757-1.71-.038-1.711-.008-1.711-1.707,0-.584,0-1.169,0-1.753-.007-.929-.2-1.185-1.084-1.45a1.22,1.22,0,0,0-1.038,1.4,21.148,21.148,0,0,1-.069,3.387c-.349.243-.76.094-1.139.179a4.941,4.941,0,0,0-3.951,4.784c-.031,1.632-.012,3.265-.009,4.9a4.963,4.963,0,0,0,4.25,5.315c.936.007.936.007.936.94q0,2.55,0,5.1c0,.368.023.738-.527.656-1.451.7-3.013,1.1-4.508,1.685-.39.152-.8.268-1.184.428a2.065,2.065,0,0,0-1.271,2.681q1.019,3.013,2.14,5.993a2.042,2.042,0,0,0,2.669,1.277c.734-.227,1.453-.5,2.172-.773.331-.125.517-.14.511.313q-.028,2.139,0,4.279m-.515-6.86q-1.241.462-2.482.925c-.26.1-.413.051-.519-.253q-.9-2.607-1.855-5.2c-.12-.33-.028-.455.279-.559,1.521-.517,3.036-1.05,4.553-1.577.348-.229.544-.209.541.281-.009,1.936-.012,3.873,0,5.809,0,.389-.15.562-.522.573m4.349,7.326c-1.731-.027-1.731,0-1.731-1.745q0-10.268-.012-20.537c0-.564.116-.761.72-.748,1.7.035,1.7.007,1.7,1.719V52.91c0,3.6-.011,7.2.012,10.794,0,.54-.122.713-.687.7m-.566-25.171h0c-1.261.007-2.523.065-3.78.007a2.705,2.705,0,0,1-2.554-2.672q-.048-2.734,0-5.468a2.721,2.721,0,0,1,2.549-2.679c1.259-.05,2.521,0,3.782.007,1.19-.01,2.38-.043,3.569-.025a2.785,2.785,0,0,1,2.844,2.769q.075,2.659,0,5.321a2.768,2.768,0,0,1-2.773,2.765c-1.211.033-2.424-.014-3.637-.024m3.34,9.124a.6.6,0,0,1,.479-.7c.845-.265,1.681-.56,2.507-.878.288-.111.409-.066.508.218.616,1.761,1.236,3.522,1.872,5.275.108.3.022.4-.252.5-1.564.543-3.127,1.092-4.68,1.666-.382.141-.434.017-.43-.32.012-.982,0-1.964,0-2.947,0-.936.02-1.872-.01-2.806M50.82,63.819c0,.448-.1.587-.573.587q-14.239-.021-28.478,0c-.418,0-.615-.05-.608-.553.031-2.174.026-4.349,0-6.523a.608.608,0,0,1,.5-.688q2.709-.935,5.4-1.913a2.148,2.148,0,0,0,1.476-3.081q-.951-2.7-1.913-5.4a2.166,2.166,0,0,0-3.151-1.459c-.742.262-1.485.522-2.3.808,0-1.335.008-2.592,0-3.848,0-.477.347-.349.591-.371a4.918,4.918,0,0,0,4.4-3.633,2.867,2.867,0,0,0,.118-.617A39.256,39.256,0,0,0,26.24,30.4a4.749,4.749,0,0,0-4.5-4.082c-.455-.025-.581-.143-.578-.6q.027-5.471,0-10.942c0-.443.122-.536.547-.536q14.273.019,28.547,0c.485,0,.563.16.561.592q-.024,5.436-.005,10.872c0,.352.016.583-.486.613a4.719,4.719,0,0,0-4.61,4.275,29.725,29.725,0,0,0,.012,6.577,4.734,4.734,0,0,0,4.476,4.181c.477.035.615.168.614.653q-.025,10.907,0,21.814m3.761.592c-1.661-.045-1.662-.012-1.662-1.682V52.917c0-3.622.011-7.243-.012-10.864,0-.519.12-.676.654-.672,1.765.013,1.765-.009,1.765,1.721,0,6.846-.009,13.691.015,20.537,0,.608-.13.79-.76.772m-.419-25.172c-1.282.006-2.567.062-3.847,0A2.739,2.739,0,0,1,47.749,36.5q-.067-2.659,0-5.322a2.786,2.786,0,0,1,2.843-2.769c1.19-.018,2.379.014,3.569.024,1.26-.006,2.523-.054,3.782-.006a2.693,2.693,0,0,1,2.537,2.538q.076,2.872,0,5.747a2.673,2.673,0,0,1-2.537,2.534c-1.258.058-2.52,0-3.78-.005" transform="translate(0 0)"/>
        <path id="Trazado_159542" data-name="Trazado 159542" d="M61.406,48.888a4.734,4.734,0,0,1-4.476-4.181,29.765,29.765,0,0,1-.012-6.577,4.719,4.719,0,0,1,4.61-4.275c.5-.031.487-.261.486-.613-.006-3.624-.01-7.248.005-10.872,0-.433-.076-.593-.56-.592q-14.274.024-28.548,0c-.424,0-.549.093-.547.535q.028,5.472,0,10.943c0,.455.123.574.578.6a4.749,4.749,0,0,1,4.5,4.082,39.256,39.256,0,0,1,.043,6.718,2.866,2.866,0,0,1-.118.617,4.917,4.917,0,0,1-4.4,3.633c-.244.022-.6-.107-.591.371.012,1.257,0,2.514,0,3.848l2.3-.808a2.166,2.166,0,0,1,3.151,1.458q.966,2.7,1.913,5.406a2.148,2.148,0,0,1-1.476,3.081q-2.7.975-5.4,1.913a.608.608,0,0,0-.5.688c.024,2.174.029,4.349,0,6.522-.007.5.19.554.608.553q14.239-.014,28.478,0c.469,0,.574-.139.574-.587Q62,60.448,62.02,49.54c0-.485-.137-.617-.614-.653M42.11,36.695a1.515,1.515,0,0,1-.265-1.75c1.117-2.839,2.218-5.683,3.334-8.523a1.5,1.5,0,0,1,1.511-1.127,1.593,1.593,0,0,1,.97.35q3.634,2.368,7.266,4.741a1.532,1.532,0,0,1-.335,2.851q-5.372,1.886-10.739,3.784a1.524,1.524,0,0,1-1.743-.326M52.874,67.37a6.251,6.251,0,1,1-.064-12.5,6.251,6.251,0,0,1,.064,12.5" transform="translate(-11.198 -7.536)" fill="#fcd69a"/>
        <path id="Trazado_159543" data-name="Trazado 159543" d="M100.015,36.663c-.027-1.543-.007-3.087-.009-4.63,0-1.637.01-3.274,0-4.91a4.74,4.74,0,0,0-5.037-5q-3.016-.006-6.033,0c-.77,0-.842.072-.844.846-.007,3.3,0,6.594-.01,9.891,0,.6.218.847.829.948A5.034,5.034,0,0,1,93.277,39q.009,2.6,0,5.191a5.12,5.12,0,0,1-4.294,4.985c-.875.134-.892.138-.893.993q-.009,10.382,0,20.764c0,.768.08.847.848.851q3.191.017,6.383,0A4.693,4.693,0,0,0,100,67.311c.016-.3.009-.608.009-.912V42.548a9.454,9.454,0,0,1,.021-.982,1.3,1.3,0,0,1,1.267-1.315,10.717,10.717,0,0,1-.067-2.068c-.029,0-.054.01-.085.014a1.341,1.341,0,0,1-1.127-1.534" transform="translate(-30.48 -7.654)" fill="#fcd69a"/>
        <path id="Trazado_159544" data-name="Trazado 159544" d="M100.117,36.494c.025-3.274.033-6.548,0-9.822a4.871,4.871,0,0,0-4.655-4.867c-2.384-.052-4.771-.008-7.156-.022-.347,0-.492.071-.491.459q.021,5.542,0,11.085c0,.4.137.5.52.524A4.858,4.858,0,0,1,93,38.7q.052,2.7,0,5.4a4.843,4.843,0,0,1-4.567,4.789c-.5.035-.61.2-.609.67q.021,10.875,0,21.75c0,.481.12.64.619.634,2.174-.027,4.35-.005,6.524-.018a6.033,6.033,0,0,0,1.322-.123,4.912,4.912,0,0,0,3.845-5.019q.008-12.559,0-25.118c0-.94.231-1.225,1.107-1.388-.014-.048-.022-.1-.033-.143a1.3,1.3,0,0,0-1.267,1.315,9.452,9.452,0,0,0-.02.982q0,11.925,0,23.851c0,.3.008.608-.008.912A4.693,4.693,0,0,1,95.23,71.67q-3.192.012-6.384,0c-.767,0-.847-.084-.848-.851q-.008-10.383,0-20.765c0-.855.018-.859.893-.993a5.119,5.119,0,0,0,4.294-4.985c.01-1.73.007-3.461,0-5.191a5.035,5.035,0,0,0-4.368-5.19c-.611-.1-.832-.343-.829-.948.014-3.3,0-6.594.01-9.891,0-.774.073-.843.844-.846q3.016-.013,6.033,0a4.739,4.739,0,0,1,5.037,5c.014,1.637,0,3.274,0,4.911,0,1.543-.018,3.087.008,4.63a1.341,1.341,0,0,0,1.127,1.534l.086-.014c0-.043,0-.085,0-.127a1.266,1.266,0,0,1-1.014-1.445" transform="translate(-30.389 -7.537)" fill="#fcd69a"/>
        <path id="Trazado_159545" data-name="Trazado 159545" d="M15.163,66.885c-.719.271-1.439.546-2.173.773a2.041,2.041,0,0,1-2.668-1.277Q9.2,63.4,8.181,60.388a2.065,2.065,0,0,1,1.271-2.681c.387-.16.793-.276,1.184-.428,1.495-.583,3.057-.984,4.508-1.685,0-1.98-.008-3.959.01-5.938,0-.362-.06-.628-.422-.759h0a4.964,4.964,0,0,1-4.251-5.315c0-1.632-.022-3.266.009-4.9A4.941,4.941,0,0,1,14.442,33.9c.379-.085.79.064,1.14-.179-.328.013-.443-.143-.441-.469.009-2.427,0-4.855.014-7.282a2.265,2.265,0,0,1,.319-1.153c.2.357-.055.744.209,1.03-.007-1.122-.04-2.244-.009-3.366.014-.521-.085-.722-.674-.712-2.267.039-4.535.009-6.8.018A4.886,4.886,0,0,0,3.228,26.7q-.025,20.166,0,40.332A4.813,4.813,0,0,0,7.939,71.9c2.406.068,4.816.021,7.224.036.335,0,.513-.057.508-.456q-.027-2.139,0-4.279c.006-.453-.18-.438-.511-.313" transform="translate(-1.113 -7.534)" fill="#fbcc7e"/>
        <path id="Trazado_159546" data-name="Trazado 159546" d="M47.286,3.064a18.5,18.5,0,0,1-2.943.005c-2.7-.264-4.451,1.4-4.136,4.186.024.208.007.42.012.63.016.557.417.538.8.532s.84.073.869-.534c.022-.49-.008-.982.02-1.472A1.532,1.532,0,0,1,43.55,4.788q6.346-.046,12.691,0a1.533,1.533,0,0,1,1.64,1.628c.026.467.012.934.014,1.4,0,.64.451.594.88.6s.806-.033.8-.61c-.007-.654.041-1.311-.02-1.962a3.224,3.224,0,0,0-3-2.754c-1.144-.035-2.29-.007-3.436-.01a7.835,7.835,0,0,1-.84-.024A1.309,1.309,0,0,1,50.912,1.6a3.045,3.045,0,0,1-2.178,0C48.713,2.558,48.3,3,47.286,3.064" transform="translate(-13.901 -0.552)" fill="#fac46c"/>
        <path id="Trazado_159547" data-name="Trazado 159547" d="M47.137,2.81c-1.332.011-2.665-.024-4,.027a3.445,3.445,0,0,0-3.291,3.221c-.048.7.012,1.4-.035,2.1-.038.555.339.524.623.438.5-.15,1.28.5,1.475-.417a11.2,11.2,0,0,0,.031-1.818,1.347,1.347,0,0,1,1.41-1.424q6.416-.025,12.832,0A1.357,1.357,0,0,1,57.6,6.363c.014.233.005.467.006.7,0,1.616,0,1.6,1.634,1.562.426-.01.5-.168.485-.536-.026-.513,0-1.028-.008-1.543a3.523,3.523,0,0,0-3.736-3.732c-1.239-.018-2.477,0-3.716-.007-.991-.006-1.3-.308-1.348-1.273-.042.017-.083.023-.125.039a1.308,1.308,0,0,0,1.369,1.467,7.664,7.664,0,0,0,.84.023c1.145,0,2.291-.024,3.435.01a3.224,3.224,0,0,1,3,2.753c.061.652.013,1.309.02,1.963.006.576-.367.619-.8.61s-.878.037-.88-.6c0-.467.013-.935-.013-1.4a1.532,1.532,0,0,0-1.64-1.628q-6.346-.047-12.691,0a1.533,1.533,0,0,0-1.645,1.623c-.027.49,0,.982-.02,1.472-.028.606-.48.527-.869.534s-.781.025-.8-.531c-.006-.211.011-.422-.012-.63-.315-2.79,1.44-4.45,4.136-4.187a18.423,18.423,0,0,0,2.943,0c1.014-.064,1.428-.507,1.448-1.469-.043-.016-.084-.022-.126-.039-.043.964-.356,1.266-1.348,1.274" transform="translate(-13.777 -0.532)" fill="#fac46c"/>
        <path id="Trazado_159548" data-name="Trazado 159548" d="M27.877,74.806V64.994c0-1.712,0-1.683-1.7-1.719-.6-.012-.721.184-.72.749q.028,10.268.012,20.537c0,1.743,0,1.718,1.732,1.745.566.009.691-.165.687-.7-.024-3.6-.012-7.2-.012-10.794" transform="translate(-8.81 -21.896)" fill="#fac46c"/>
        <path id="Trazado_159549" data-name="Trazado 159549" d="M83.322,65c0-1.73,0-1.708-1.765-1.721-.534,0-.657.152-.654.672.024,3.621.012,7.242.012,10.864v9.813c0,1.67,0,1.637,1.662,1.682.63.017.762-.164.76-.772-.024-6.846-.015-13.691-.015-20.537" transform="translate(-27.997 -21.898)" fill="#fac46c"/>
        <path id="Trazado_159550" data-name="Trazado 159550" d="M33.157,51.527q.074-2.659,0-5.321a2.785,2.785,0,0,0-2.844-2.769c-1.189-.018-2.379.014-3.569.025a5.764,5.764,0,0,0-.805,1.207c-.275.68-.229.751.494.753,1.021,0,2.042,0,3.062,0,.2,0,.421-.058.6.1h0a1.167,1.167,0,0,1,.967,1.322q-.013,2.022,0,4.043a1.207,1.207,0,0,1-.828,1.3,24.987,24.987,0,0,1-3.391.112c-.35.025-.856-.209-1.012.169-.137.333.143.744.386,1.065.18.24.352.487.527.73,1.212.011,2.426.057,3.637.025a2.768,2.768,0,0,0,2.773-2.765" transform="translate(-8.923 -15.03)" fill="#fdf38a"/>
        <path id="Trazado_159551" data-name="Trazado 159551" d="M88.607,51.742q.077-2.872,0-5.747a2.693,2.693,0,0,0-2.537-2.539c-1.258-.048-2.521,0-3.782.007a4.947,4.947,0,0,0-.932,1.445c-.145.361-.118.54.352.526,1.041-.029,2.083-.013,3.125-.006.225,0,.466-.067.672.092a1.1,1.1,0,0,1,1.023,1.255q-.023,2.093,0,4.188a1.131,1.131,0,0,1-.883,1.243,19.628,19.628,0,0,1-3.043.088c-.437.019-.876,0-1.324,0a3.318,3.318,0,0,0,1.01,1.974c1.26.006,2.523.063,3.78.005a2.674,2.674,0,0,0,2.538-2.534" transform="translate(-28.127 -15.031)" fill="#fdf38a"/>
        <path id="Trazado_159552" data-name="Trazado 159552" d="M78.357,53.028c-.173-.477-.162-.72.1-.833q-.993,0-1.985,0c-1.006,0-1.363-.345-1.37-1.327q-.014-2,0-3.991c.007-.985.362-1.323,1.371-1.328l2.048-.009a.648.648,0,0,1-.241-.226c-.207-.326.434-1.412.954-1.743.059-.037.122-.069.181-.105-1.19-.01-2.38-.041-3.569-.024A2.786,2.786,0,0,0,73,46.208q-.07,2.659,0,5.322a2.741,2.741,0,0,0,2.566,2.745c1.28.058,2.564,0,3.847,0a2.078,2.078,0,0,1-1.055-1.242" transform="translate(-25.25 -15.03)" fill="#fdef56"/>
        <path id="Trazado_159553" data-name="Trazado 159553" d="M82.02,43.582c-.52.331-1.161,1.417-.954,1.743a.643.643,0,0,0,.241.226l4.111-.016h0c-.205-.158-.446-.09-.671-.092-1.042-.007-2.084-.023-3.125.006-.47.013-.5-.165-.352-.526a4.93,4.93,0,0,1,.933-1.446c-.06.037-.122.068-.181.105" transform="translate(-28.039 -15.045)" fill="#fdef56"/>
        <path id="Trazado_159554" data-name="Trazado 159554" d="M81.193,56.932c.448,0,.887.016,1.324,0a19.626,19.626,0,0,0,3.043-.088l-4.315-.01c-.258.113-.27.356-.1.833A2.077,2.077,0,0,0,82.2,58.906a3.322,3.322,0,0,1-1.01-1.974" transform="translate(-28.041 -19.666)" fill="#fdef56"/>
        <path id="Trazado_159555" data-name="Trazado 159555" d="M22.873,53.008c-.153-.445-.1-.7.186-.817h-2.05c-1.016,0-1.346-.328-1.351-1.327q-.009-2.031,0-4.063c.006-.906.361-1.251,1.282-1.255q1.1-.006,2.2-.007c-.437-.14-.466-.489-.142-1.14a1.777,1.777,0,0,1,.888-.935c-1.261-.006-2.523-.056-3.782-.006a2.721,2.721,0,0,0-2.549,2.679q-.047,2.734,0,5.468a2.7,2.7,0,0,0,2.554,2.672c1.258.058,2.52,0,3.78-.007a2.013,2.013,0,0,1-1.02-1.261" transform="translate(-6.068 -15.031)" fill="#fdef56"/>
        <path id="Trazado_159556" data-name="Trazado 159556" d="M26.145,58.172c-.243-.322-.523-.732-.386-1.066.156-.378.662-.144,1.012-.169a24.986,24.986,0,0,0,3.391-.112H25.838c-.288.116-.339.372-.185.817a2.014,2.014,0,0,0,1.02,1.261c-.175-.244-.347-.49-.527-.73" transform="translate(-8.848 -19.664)" fill="#fdef56"/>
        <path id="Trazado_159557" data-name="Trazado 159557" d="M25.78,44.413c-.324.651-.295,1,.142,1.14l4.1-.013c-.18-.156-.4-.1-.6-.1-1.021-.005-2.042,0-3.063,0-.723,0-.769-.073-.494-.753a5.763,5.763,0,0,1,.806-1.208,1.776,1.776,0,0,0-.889.935" transform="translate(-8.846 -15.046)" fill="#fdef56"/>
        <path id="Trazado_159558" data-name="Trazado 159558" d="M24.9,30.384c0,.585,0,1.169,0,1.754,0,1.7,0,1.669,1.711,1.706.617.014.713-.2.708-.757-.026-3.157-.012-6.313-.012-9.47,0-1.891,0-1.878-1.906-1.842-.394.007-.52.109-.509.509.027,1.005.019,2.011.005,3.016-.011.813-.265,1.1-1.082,1.292q0,1.17,0,2.342c.883.266,1.077.521,1.084,1.45" transform="translate(-8.242 -7.532)" fill="#fac46c"/>
        <path id="Trazado_159559" data-name="Trazado 159559" d="M32.372,78.84c0,.337.047.462.43.32,1.553-.574,3.116-1.122,4.68-1.666.275-.1.36-.2.252-.5q-.954-2.632-1.872-5.276c-.1-.284-.22-.329-.508-.218-.827.318-1.663.613-2.508.878a.6.6,0,0,0-.479.7c.029.934.01,1.871.01,2.806,0,.982.007,1.964,0,2.947" transform="translate(-11.2 -24.725)" fill="#f37b7b"/>
        <path id="Trazado_159560" data-name="Trazado 159560" d="M80.916,27.8V32c0,1.828,0,1.809,1.8,1.815.5,0,.617-.162.613-.636-.019-3.2-.008-6.4-.012-9.6,0-.581.2-1.357-.1-1.69-.345-.392-1.144-.071-1.74-.137-.464-.052-.587.122-.58.578.026,1.821.01,3.643.01,5.464" transform="translate(-27.997 -7.507)" fill="#fac46c"/>
        <path id="Trazado_159561" data-name="Trazado 159561" d="M14.3,78.679c-.307.1-.4.23-.279.559q.95,2.592,1.855,5.2c.105.3.259.35.519.253q1.242-.461,2.482-.925-.011-3.331-.023-6.663c-1.517.527-3.033,1.06-4.553,1.577" transform="translate(-4.835 -26.681)" fill="#ed6161"/>
        <path id="Trazado_159562" data-name="Trazado 159562" d="M63.942,17.1c-.035.334.09.444.428.436.861-.021,1.723-.007,2.585-.007s1.724-.029,2.584.011c.482.023.617-.158.56-.594a2.39,2.39,0,0,1,0-.489c.052-.672-.273-.9-.921-.893q-2.166.039-4.332,0c-.661-.012-.958.244-.9.907a3.362,3.362,0,0,1,0,.628" transform="translate(-22.125 -5.387)" fill="#fcef55"/>
        <path id="Trazado_159563" data-name="Trazado 159563" d="M37.334,17.544c.788-.054,1.583-.014,2.374-.014.908,0,1.817-.013,2.725.007.333.007.468-.093.432-.432a3.307,3.307,0,0,1,0-.628c.056-.66-.233-.923-.9-.911-1.444.027-2.888.005-4.332.01-.781,0-.916.146-.923.949a2.382,2.382,0,0,1,0,.349c-.076.494.067.71.625.671" transform="translate(-12.697 -5.386)" fill="#fcef55"/>
        <path id="Trazado_159564" data-name="Trazado 159564" d="M21.941,26.617a2.563,2.563,0,0,0-.144,1.012c-.032,2.255-.009,4.51-.014,6.764a1.931,1.931,0,0,0,.222,1.007,21.145,21.145,0,0,0,.069-3.387,1.219,1.219,0,0,1,1.038-1.4,2.858,2.858,0,0,1,0-2.342,1.2,1.2,0,0,1-1-.744h0c-.49-.254-.189-.619-.165-.909" transform="translate(-7.537 -9.211)" fill="#fad499"/>
        <path id="Trazado_159565" data-name="Trazado 159565" d="M21.783,26.432a2.271,2.271,0,0,0-.319,1.153c-.016,2.427,0,4.856-.014,7.282,0,.326.114.482.441.469a1.926,1.926,0,0,1-.222-1.007c0-2.255-.018-4.509.014-6.764a2.559,2.559,0,0,1,.144-1.012c-.024.29-.324.655.165.909-.264-.285-.006-.673-.209-1.03" transform="translate(-7.423 -9.147)" fill="#fad499"/>
        <path id="Trazado_159566" data-name="Trazado 159566" d="M23.685,31.486q0-1.171,0-2.342a2.857,2.857,0,0,0,0,2.342" transform="translate(-8.109 -10.085)" fill="#fad499"/>
        <path id="Trazado_159567" data-name="Trazado 159567" d="M89,17.531h.77c1.286,0,1.275,0,1.2-1.273-.028-.462-.233-.685-.691-.683s-.934.022-1.4-.006c-.677-.04-.907.275-.895.923.02,1.038,0,1.038,1.017,1.038" transform="translate(-30.446 -5.387)" fill="#fcee55"/>
        <path id="Trazado_159568" data-name="Trazado 159568" d="M18.477,17.535h.56a5.1,5.1,0,0,1,.768.007c.59.091.743-.138.721-.719-.046-1.217-.039-1.244-1.274-1.244h-.7c-.936,0-1.007.072-1.013.987-.005.969-.005.969.937.969" transform="translate(-6.069 -5.391)" fill="#fcee55"/>
        <path id="Trazado_159569" data-name="Trazado 159569" d="M21.441,63.856c.039,1.862.035,3.725,0,5.587a.727.727,0,0,1-.2.507c.551.082.528-.288.527-.656q0-2.55,0-5.1c0-.933,0-.933-.936-.94a.56.56,0,0,1,.613.6" transform="translate(-7.208 -21.889)" fill="#ecc890"/>
        <path id="Trazado_159570" data-name="Trazado 159570" d="M21.248,64.013c-.018,1.979-.009,3.958-.01,5.938a.726.726,0,0,0,.2-.507c.034-1.862.038-3.724,0-5.587a.559.559,0,0,0-.613-.6c.362.131.424.4.421.759" transform="translate(-7.207 -21.889)" fill="#ecc890"/>
        <path id="Trazado_159571" data-name="Trazado 159571" d="M21.438,77.028a1.033,1.033,0,0,1,.237.845c.011,1.652.008,3.3,0,4.956a1.343,1.343,0,0,1-.216.863c.372-.01.524-.184.522-.573-.015-1.936-.012-3.873,0-5.808,0-.49-.194-.51-.541-.282" transform="translate(-7.419 -26.607)" fill="#e47474"/>
        <path id="Trazado_159572" data-name="Trazado 159572" d="M21.675,77.947a1.033,1.033,0,0,0-.237-.845q.012,3.331.023,6.663a1.343,1.343,0,0,0,.216-.863c.005-1.652.009-3.3,0-4.956" transform="translate(-7.419 -26.681)" fill="#e47474"/>
        <path id="Trazado_159573" data-name="Trazado 159573" d="M60.688,33.754a1.549,1.549,0,0,0-.825-1.507q-3.637-2.364-7.266-4.741a1.6,1.6,0,0,0-.97-.349,1.5,1.5,0,0,0-1.511,1.127C49,31.122,47.9,33.967,46.781,36.806a1.529,1.529,0,0,0,2.008,2.076q5.369-1.9,10.739-3.784a1.538,1.538,0,0,0,1.16-1.345m-11.522,2.76c.9-2.294,1.738-4.414,2.555-6.543.139-.36.278-.343.555-.16,1.811,1.195,3.631,2.378,5.56,3.638l-8.669,3.065" transform="translate(-16.133 -9.397)"/>
        <path id="Trazado_159574" data-name="Trazado 159574" d="M60.329,72.38a6.251,6.251,0,1,0,6.257,6.207,6.249,6.249,0,0,0-6.257-6.207M60.31,82.771A4.183,4.183,0,0,1,56.2,78.585a4.136,4.136,0,0,1,4.184-4.093,4.091,4.091,0,0,1,4.1,4.162,4.147,4.147,0,0,1-4.166,4.117" transform="translate(-18.717 -25.047)"/>
        <path id="Trazado_159575" data-name="Trazado 159575" d="M27.515,46.969c-1.658.012-3.317,0-4.975.008-1.156.007-1.387.245-1.392,1.413-.005,1.191-.013,2.383,0,3.574.012.919.243,1.153,1.178,1.163,1.775.019,3.55,0,5.325.011a1.621,1.621,0,0,1,.785.094.848.848,0,0,0,.114-.041,1.188,1.188,0,0,0,.722-1.172c.033-1.3.025-2.6,0-3.9a1.167,1.167,0,0,0-.854-1.212c-.046-.013-.092-.014-.137-.024a1.658,1.658,0,0,1-.772.082M25.483,51.28c-.49,0-.979-.022-1.469-.033-1,.078-1,.078-1-.87v-.561c0-1.009,0-1.009,1-.944.957-.009,1.915,0,2.871-.036.38-.012.457.135.469.488.064,1.958.074,1.96-1.872,1.956" transform="translate(-7.316 -16.225)"/>
        <path id="Trazado_159576" data-name="Trazado 159576" d="M32.2,46.822a1.167,1.167,0,0,1,.853,1.212c.021,1.3.029,2.6,0,3.9a1.187,1.187,0,0,1-.722,1.171.821.821,0,0,1-.114.042.64.64,0,0,1,.193.153A1.207,1.207,0,0,0,33.24,52q-.015-2.021,0-4.043a1.166,1.166,0,0,0-.967-1.321h0a.639.639,0,0,1-.2.166c.046.01.092.011.138.024" transform="translate(-11.097 -16.137)"/>
        <path id="Trazado_159577" data-name="Trazado 159577" d="M27.607,53.216a2.172,2.172,0,0,0,.7-.065,1.621,1.621,0,0,0-.785-.094c-1.775-.012-3.55.008-5.325-.011-.934-.01-1.165-.244-1.178-1.163-.016-1.191-.009-2.382,0-3.574.005-1.168.237-1.406,1.392-1.413,1.658-.009,3.317,0,4.975-.008a1.665,1.665,0,0,0,.772-.082,13.175,13.175,0,0,0-2.214-.075c-.37-.019-.742,0-1.112-.005a2.014,2.014,0,0,1-.568-.074q-1.1,0-2.2.007c-.921,0-1.276.349-1.281,1.255-.009,1.354-.007,2.709,0,4.063,0,1,.336,1.325,1.351,1.327h2.05a1.268,1.268,0,0,1,.436-.077c1-.031,1.994-.006,2.991-.011" transform="translate(-7.189 -16.144)"/>
        <path id="Trazado_159578" data-name="Trazado 159578" d="M26.68,46.719c.371.007.742-.014,1.112.005a13.185,13.185,0,0,1,2.214.075.656.656,0,0,0,.2-.167l-4.1.013a2.042,2.042,0,0,0,.568.074" transform="translate(-9.036 -16.137)"/>
        <path id="Trazado_159579" data-name="Trazado 159579" d="M29.409,56.655c-1,.005-1.995-.02-2.991.011a1.268,1.268,0,0,0-.436.077h4.324a.633.633,0,0,0-.193-.154,2.172,2.172,0,0,1-.7.065" transform="translate(-8.991 -19.583)"/>
        <path id="Trazado_159580" data-name="Trazado 159580" d="M82.878,46.967c-1.634.013-3.267,0-4.9.008-1.168.007-1.451.283-1.468,1.443q-.025,1.645,0,3.291c.018,1.159.293,1.418,1.475,1.422,1.681.006,3.361-.006,5.041.008a1.481,1.481,0,0,1,.786.1.848.848,0,0,0,.131-.047,1.007,1.007,0,0,0,.7-1.081c0-1.35,0-2.7,0-4.049a1.091,1.091,0,0,0-.825-1.148c-.058-.014-.116-.014-.175-.026a1.628,1.628,0,0,1-.769.082m-.114,3.861c.01.3-.041.472-.408.459-.951-.032-1.9-.028-2.857-.039-1.071.083-1.071.083-1.074-.666C78.417,48.8,78.417,48.8,79.5,48.87c.93-.009,1.86-.005,2.788-.034.353-.011.5.075.48.458-.032.509-.02,1.023,0,1.534" transform="translate(-26.471 -16.225)"/>
        <path id="Trazado_159581" data-name="Trazado 159581" d="M87.432,46.795c.058.011.116.012.174.026a1.091,1.091,0,0,1,.825,1.148c0,1.35,0,2.7,0,4.049a1.007,1.007,0,0,1-.7,1.081.832.832,0,0,1-.131.047.616.616,0,0,1,.18.163,1.131,1.131,0,0,0,.883-1.243q-.026-2.094,0-4.188a1.105,1.105,0,0,0-1.023-1.255.634.634,0,0,1-.2.171" transform="translate(-30.256 -16.134)"/>
        <path id="Trazado_159582" data-name="Trazado 159582" d="M83.024,53.216a2.286,2.286,0,0,0,.691-.062,1.487,1.487,0,0,0-.786-.1c-1.68-.013-3.361,0-5.041-.007-1.182,0-1.456-.264-1.475-1.423q-.026-1.645,0-3.291c.017-1.159.3-1.435,1.468-1.443,1.634-.01,3.268,0,4.9-.008a1.628,1.628,0,0,0,.769-.082,20.02,20.02,0,0,0-2.6-.078c-.046,0-.094.006-.139,0-.379-.06-.827.112-1.165-.075l-2.048.008c-1.008,0-1.363.342-1.371,1.328q-.014,2,0,3.991c.007.982.364,1.323,1.37,1.327l1.985.005a1.389,1.389,0,0,1,.513-.084c.977-.022,1.955,0,2.933-.007" transform="translate(-26.375 -16.143)"/>
        <path id="Trazado_159583" data-name="Trazado 159583" d="M85.493,56.6a2.305,2.305,0,0,1-.691.062c-.978,0-1.955-.015-2.933.007a1.388,1.388,0,0,0-.513.084l4.315.01a.623.623,0,0,0-.179-.163" transform="translate(-28.154 -19.585)"/>
        <path id="Trazado_159584" data-name="Trazado 159584" d="M82.619,46.717c.045.007.093,0,.139,0a20.02,20.02,0,0,1,2.6.077.633.633,0,0,0,.2-.17l-4.111.016c.338.188.786.016,1.165.076" transform="translate(-28.187 -16.135)"/>
        <path id="Trazado_159585" data-name="Trazado 159585" d="M53.068,31.308c-.817,2.129-1.656,4.249-2.555,6.543l8.669-3.064c-1.929-1.261-3.748-2.444-5.559-3.639-.277-.182-.417-.2-.555.16" transform="translate(-17.48 -10.735)" fill="#f37b7b"/>
        <path id="Trazado_159586" data-name="Trazado 159586" d="M61.5,75.61A4.136,4.136,0,0,0,57.312,79.7a4.14,4.14,0,1,0,8.28.069,4.091,4.091,0,0,0-4.1-4.161" transform="translate(-19.833 -26.165)" fill="#ace093"/>
        <path id="Trazado_159587" data-name="Trazado 159587" d="M28.407,49.868c-.957.031-1.914.026-2.871.036v2.374c.49.011.979.032,1.469.033,1.946,0,1.936,0,1.872-1.957-.012-.352-.089-.5-.469-.487" transform="translate(-8.836 -17.257)" fill="#fcef55"/>
        <path id="Trazado_159588" data-name="Trazado 159588" d="M25.006,49.91c-1-.065-1-.065-1,.944v.56c0,.948,0,.948,1,.87a2.868,2.868,0,0,1,0-2.374" transform="translate(-8.307 -17.263)" fill="#fde803"/>
        <path id="Trazado_159589" data-name="Trazado 159589" d="M25.4,52.3V49.923a2.866,2.866,0,0,0,0,2.374" transform="translate(-8.7 -17.276)" fill="#fde803"/>
        <path id="Trazado_159590" data-name="Trazado 159590" d="M83.877,49.868c-.929.029-1.859.025-2.788.034q0,1.189,0,2.378c.953.011,1.906.008,2.857.04.368.012.419-.157.409-.46-.017-.511-.029-1.024,0-1.534.024-.383-.127-.469-.479-.458" transform="translate(-28.061 -17.256)" fill="#fdef56"/>
        <path id="Trazado_159591" data-name="Trazado 159591" d="M80.52,49.91c-1.082-.071-1.082-.071-1.074,1.711,0,.749,0,.749,1.073.666a3.061,3.061,0,0,1,0-2.378" transform="translate(-27.492 -17.264)" fill="#f8e405"/>
        <path id="Trazado_159592" data-name="Trazado 159592" d="M80.962,49.921a3.061,3.061,0,0,0,0,2.378q0-1.189,0-2.378" transform="translate(-27.934 -17.275)" fill="#f8e405"/>
      </g>
    </g>
  </g>
</svg>
