<svg xmlns="http://www.w3.org/2000/svg" xmlns:xlink="http://www.w3.org/1999/xlink" width="105" height="105" viewBox="0 0 105 105">
  <defs>
    <clipPath id="clip-path">
      <rect id="Rectángulo_42403" data-name="Rectángulo 42403" width="67.071" height="67.066" fill="none"/>
    </clipPath>
  </defs>
  <g id="_20" data-name="20" transform="translate(4370 8600)">
    <circle id="Elipse_4890" data-name="Elipse 4890" cx="52.5" cy="52.5" r="52.5" transform="translate(-4370 -8600)" fill="#ffdfe0"/>
    <g id="Grupo_169185" data-name="Grupo 169185" transform="translate(-4351 -8581)">
      <g id="Grupo_169184" data-name="Grupo 169184" transform="translate(0 0)" clip-path="url(#clip-path)">
        <path id="Trazado_159593" data-name="Trazado 159593" d="M67.06,22.128a5.166,5.166,0,0,0-.928-3.2,5.652,5.652,0,0,0-4.66-2.363c-1.9-.038-3.794,0-5.691-.012-.744,0-.813-.061-.814-.761-.008-2.682,0-5.364-.009-8.046,0-.525.182-.732.721-.748a1.353,1.353,0,0,0,1.5-1.506c.028-.762.033-1.527,0-2.289A3.162,3.162,0,0,0,53.915.013q-5.822-.028-11.644,0a2.9,2.9,0,0,0-1.809.449,3.622,3.622,0,0,0-1.6,2.995c0,.632-.013,1.265,0,1.9a1.486,1.486,0,0,0,1.506,1.63c.589.044.723.3.72.83-.014,2.638,0,5.277-.008,7.916,0,.768-.053.819-.818.821-1.854.008-3.708-.032-5.561.012a5.807,5.807,0,0,0-5.058,3.042c-.409-2.7-.836-5.449-1.3-8.2-.19-1.132-.686-1.514-1.838-1.525-1.046-.009-2.093-.017-3.14,0-.528.01-.743-.183-.737-.724A19.942,19.942,0,0,0,22.515,6.1,4.754,4.754,0,0,0,17.847,2.04a4.805,4.805,0,0,0-4.635,4.029A21.442,21.442,0,0,0,13.081,9c-.008.831-.047.872-.9.876-.872.005-1.744,0-2.617,0-1.276.009-1.751.423-1.964,1.7-.122.73-.227,1.463-.348,2.193C6.7,17.125,6.174,20.482,5.63,23.835c-.358,2.214-.727,4.426-1.066,6.642a.949.949,0,0,1-.633.893A5.274,5.274,0,0,0,0,35.925V62.356a9.359,9.359,0,0,0,1.093,2.373,5.981,5.981,0,0,0,3.475,2.211c.1.023.219.005.273.127H42.265a6.165,6.165,0,0,0,3.493-2.091c.15-.192.353-.134.539-.134,3.372,0,6.743.006,10.115-.013.434,0,.56.121.531.543-.038.563-.018,1.13-.023,1.7h2.224c.346-.334.252-.768.265-1.175.023-.717.069-.77.8-.782.457-.008.916.009,1.373-.008a5.486,5.486,0,0,0,5.487-5.557q-.03-18.709-.01-37.417M42.924,2.3q5.23,0,10.462,0a1.405,1.405,0,0,1,1.307,2.052c-.122.287-.369.182-.564.182-2.048.009-4.1.005-6.147.005-2.026,0-4.054-.011-6.08.009-.448,0-.605-.123-.6-.587,0-1.231.4-1.66,1.626-1.66m.635,9.5c0-1.5.016-3.006-.01-4.509-.008-.433.122-.543.546-.539q3.921.029,7.841,0c.416,0,.553.093.55.533q-.03,4.508,0,9.017c0,.439-.131.531-.544.529-2.614-.018-5.227-.023-7.841,0-.486.005-.558-.162-.551-.592.025-1.481.009-2.962.009-4.443M15.651,6.726a2.217,2.217,0,0,1,4.434.008c.057,1,.009,2,.026,3,.006.318-.115.413-.421.4-.608-.018-1.218-.006-1.826-.006s-1.219-.015-1.827.006c-.318.011-.417-.106-.412-.413.016-1-.027-2,.026-3M10.76,12.385H25.244a7.177,7.177,0,0,1-.5,1.5c-.58,1.572-1.177,3.137-1.748,4.711a.59.59,0,0,1-.653.468c-2.9-.018-5.8-.011-8.7-.008-.272,0-.482,0-.605-.338-.746-2.043-1.519-4.076-2.28-6.114a.714.714,0,0,1,0-.214M7.071,30.875c.8-4.962,1.58-9.926,2.373-14.926.36.187.375.478.465.711q.7,1.828,1.37,3.669a1.305,1.305,0,0,0,1.38.955q5.332-.025,10.663,0a1.343,1.343,0,0,0,1.413-1.007c.473-1.31.963-2.613,1.461-3.913.073-.19.068-.438.328-.57.485,3.079.968,6.139,1.455,9.227a23.674,23.674,0,0,0-7.015-.32,5.588,5.588,0,0,0-5.316,5.773c.017.87-.009.871-.866.871-2.4,0-4.8,0-7.2,0-.336,0-.592.013-.514-.472M2.226,38.237c0-.391-.006-.783,0-1.175a3.463,3.463,0,0,1,3.41-3.486c.956-.027,1.915.015,2.87-.018.434-.015.438.16.368.5A8.121,8.121,0,0,1,2.693,40.1c-.4.071-.491-.055-.473-.423.024-.477.006-.956.006-1.435M8.458,64.849c-.5-.038-1-.008-1.6-.008a9.114,9.114,0,0,1-1.976-.118,3.432,3.432,0,0,1-2.651-3.37c-.012-.891.011-1.784-.009-2.676-.008-.351.081-.435.439-.375a8.119,8.119,0,0,1,6.21,6.011c.078.373.052.57-.411.535m8.74,0c-1.809-.036-3.619-.025-5.427,0-.394,0-.567-.091-.638-.5A10.291,10.291,0,0,0,2.778,56.07c-.425-.069-.563-.21-.561-.655q.028-6.213,0-12.426c0-.435.117-.591.557-.659a10.293,10.293,0,0,0,8.359-8.267c.06-.35.161-.512.57-.506,1.852.026,3.706.039,5.558,0,.57-.014.616.212.615.674q-.02,7.487-.008,14.976c0,4.991-.009,9.984.014,14.976,0,.553-.146.685-.685.674m9.616-5.581c0,1.676-.013,3.353.009,5.029.006.425-.117.555-.547.55-1.872-.022-3.745-.026-5.617,0-.481.007-.569-.172-.567-.6q.022-5,0-9.992c0-.45.124-.6.587-.6q2.776.034,5.552,0c.447-.005.6.119.595.584-.026,1.676-.01,3.352-.01,5.029M26.3,51.485q-2.84-.022-5.68,0c-.423,0-.579-.135-.572-.563q.03-1.7,0-3.395c-.009-.442.12-.625.591-.609.935.03,1.871.009,2.807.009.958,0,1.916.016,2.873-.008.406-.01.523.137.516.529-.02,1.175-.023,2.351,0,3.525.008.416-.155.513-.536.51m.519-12.327c0,1.657-.013,3.315.008,4.971.006.43-.075.62-.563.613-1.875-.026-3.751-.023-5.626,0-.449.006-.542-.17-.541-.574q.018-5.037,0-10.074c0-.454.171-.535.572-.531,1.876.016,3.751.021,5.626,0,.449-.006.539.154.535.563-.02,1.679-.008,3.358-.008,5.037m1.531-7.8c-1.654-.031-3.31-.011-4.965-.011s-3.311-.017-4.966.011c-.469.008-.577-.147-.579-.592a3.533,3.533,0,0,1,3.823-3.884c1.329-.006,2.657,0,3.985,0a3.471,3.471,0,0,1,1.814.447A2.028,2.028,0,0,1,28.629,29a12.42,12.42,0,0,0,.271,1.739c.105.5-.054.628-.555.619m7.114,33.489c-1.94-.011-3.881-.023-5.82.007-.484.008-.613-.108-.611-.6.021-5.014.013-10.028.013-15.042s.008-10.028-.012-15.042c0-.485.109-.616.6-.608,1.918.032,3.837.02,5.755.007.369,0,.557.034.625.5a10.042,10.042,0,0,0,8.15,8.281c.368.062.5.185.5.58q-.022,6.279,0,12.557c0,.393-.132.519-.5.587A10.023,10.023,0,0,0,36,64.4c-.061.385-.211.442-.543.44m8.107-33.168a12.112,12.112,0,0,0-3.941-.324c-.42.005-.571-.1-.543-.536.04-.606-.006-1.218.025-1.824a2.211,2.211,0,0,1,4.379-.314,21.987,21.987,0,0,1,.08,3m-1.9,1.912a3.135,3.135,0,0,1,2.954,2.876c.045.562.007,1.131.007,1.7h.036c0,.479-.026.96.007,1.437.035.512-.161.561-.613.457a7.813,7.813,0,0,1-5.8-6.077c-.06-.331.011-.419.336-.414,1.023.017,2.048-.025,3.07.023m2.9,28.927a3.24,3.24,0,0,1-3.074,2.313c-.958.043-1.918.005-2.877.016-.294,0-.423-.037-.361-.4a7.857,7.857,0,0,1,5.854-6.114c.438-.093.59.016.563.467-.03.521-.007,1.046-.007,1.679a8.623,8.623,0,0,1-.1,2.038m20.207-3.491a3.282,3.282,0,0,1-3.618,3.593c-4.492,0-8.984-.011-13.476.014-.6,0-.823-.1-.821-.768q.028-12.069,0-24.139c0-.567.014-1.135-.013-1.7a3.034,3.034,0,0,0-.814-2.144.981.981,0,0,1-.251-.771c-.043-1.524.086-3.048-.091-4.572a4.431,4.431,0,0,0-3.927-3.852A4.506,4.506,0,0,0,37.145,27.6a8.81,8.81,0,0,0-.241,3.106c0,.532-.17.657-.671.647-1.482-.03-2.965-.023-4.448,0-.4.006-.526-.115-.524-.517.016-2.878-.005-5.757.019-8.635a3.424,3.424,0,0,1,3.267-3.146c1.373-.029,2.747-.008,4.122-.008h22.57a3.257,3.257,0,0,1,3.534,3.54q0,9.126,0,18.251,0,9.093,0,18.186" transform="translate(0 0)"/>
        <path id="Trazado_159594" data-name="Trazado 159594" d="M81.675,103.3c.029-.421-.1-.545-.531-.543-3.371.019-6.743.009-10.115.013-.187,0-.389-.057-.539.135A6.168,6.168,0,0,1,67,105a4.846,4.846,0,0,0,3.534-1.7.944.944,0,0,1,.78-.25c3.116-.006,6.232,0,9.348-.009.53,0,.753.187.734.727-.015.425-.1.884.259,1.237,0-.565-.016-1.132.023-1.7" transform="translate(-24.73 -37.931)" fill="#fefefe"/>
        <path id="Trazado_159595" data-name="Trazado 159595" d="M4.569,103.424a5.973,5.973,0,0,1-3.475-2.211A9.357,9.357,0,0,1,0,98.841a7.079,7.079,0,0,0,.472,1.807,5.371,5.371,0,0,0,4.369,2.9c-.054-.122-.171-.1-.273-.127" transform="translate(0 -36.485)" fill="#fefefe"/>
        <path id="Trazado_159596" data-name="Trazado 159596" d="M79.53,30.184q-11.285,0-22.57,0c-1.373,0-2.747-.021-4.121.009a3.423,3.423,0,0,0-3.267,3.146c-.024,2.879,0,5.757-.019,8.635,0,.4.126.523.524.517,1.482-.02,2.966-.027,4.448,0,.5.01.674-.115.671-.647a8.81,8.81,0,0,1,.241-3.106,4.506,4.506,0,0,1,4.618-2.917,4.431,4.431,0,0,1,3.927,3.852c.177,1.524.048,3.048.091,4.571a.982.982,0,0,0,.251.772,3.033,3.033,0,0,1,.814,2.144c.026.566.013,1.134.013,1.7q.008,12.069,0,24.139c0,.663.222.771.821.767,4.492-.025,8.984-.013,13.477-.013a3.282,3.282,0,0,0,3.618-3.593q0-9.093,0-18.186,0-9.125,0-18.251a3.257,3.257,0,0,0-3.534-3.54m-2.089,21.2c0,3.686.007,7.371,0,11.056a4.428,4.428,0,0,1-8.792.862,14.569,14.569,0,0,1-.109-1.889q0-10.4,0-20.8a4.5,4.5,0,0,1,3.549-4.689,4.4,4.4,0,0,1,5.343,4.276c.026,3.728.007,7.458.008,11.187" transform="translate(-18.291 -11.139)" fill="#5ea6a3"/>
        <path id="Trazado_159597" data-name="Trazado 159597" d="M61.151,75.7c.366-.067.5-.194.5-.587q-.024-6.279,0-12.557c0-.394-.134-.517-.5-.58A10.042,10.042,0,0,1,53,53.692c-.068-.461-.256-.5-.625-.495-1.918.012-3.838.025-5.755-.008-.494-.008-.605.122-.6.608.02,5.014.012,10.028.012,15.042s.008,10.028-.013,15.042c0,.5.127.611.611.6,1.94-.03,3.881-.018,5.82-.007.332,0,.482-.055.543-.44a10.023,10.023,0,0,1,8.165-8.34m-2.723-7.974c1.11,0,1.11,0,1.11,1.118s0,1.11-1.115,1.11-1.117,0-1.117-1.116,0-1.112,1.122-1.112m-8.864,2.228c-1.184,0-1.184,0-1.184-1.175,0-1.054,0-1.054,1.045-1.054,1.185,0,1.185,0,1.185,1.176,0,1.052,0,1.052-1.046,1.052m4.354,0c-1.073,0-1.073,0-1.073-1.092,0-1.136,0-1.136,1.16-1.136,1.071,0,1.071,0,1.071,1.093,0,1.135,0,1.135-1.158,1.135" transform="translate(-16.984 -19.634)" fill="#fefefe"/>
        <path id="Trazado_159598" data-name="Trazado 159598" d="M19.167,68.834q0-7.488.008-14.976c0-.462-.044-.687-.614-.674-1.852.044-3.706.031-5.559,0-.408-.006-.509.156-.569.506a10.3,10.3,0,0,1-8.359,8.268c-.44.068-.559.224-.557.659q.025,6.212,0,12.425c0,.445.137.585.561.655a10.29,10.29,0,0,1,8.353,8.273c.071.413.245.508.638.5,1.809-.021,3.619-.032,5.427,0,.539.011.688-.121.684-.674-.023-4.992-.013-9.984-.013-14.976M6.924,69.95c-1.037,0-1.037,0-1.037-1.064,0-1.165,0-1.165,1.132-1.165h.066c1.033,0,1.033,0,1.033,1.064,0,1.164,0,1.164-1.194,1.164m4.544,0c-1.12,0-1.12,0-1.12-1.114s0-1.114,1.122-1.114,1.112,0,1.112,1.116,0,1.112-1.114,1.112m4.438,0c-1.08,0-1.08,0-1.08-1.091,0-1.138,0-1.138,1.165-1.138,1.078,0,1.078,0,1.078,1.093,0,1.136,0,1.136-1.163,1.136" transform="translate(-1.297 -19.632)" fill="#fefefe"/>
        <path id="Trazado_159599" data-name="Trazado 159599" d="M11.715,40.587c2.4-.006,4.8,0,7.2,0,.856,0,.883,0,.866-.871a5.588,5.588,0,0,1,5.316-5.773,23.716,23.716,0,0,1,7.015.32c-.487-3.088-.97-6.147-1.455-9.227-.26.132-.255.38-.328.57-.5,1.3-.989,2.6-1.461,3.914a1.343,1.343,0,0,1-1.413,1.007q-5.332-.028-10.663,0a1.305,1.305,0,0,1-1.379-.955q-.667-1.842-1.371-3.669c-.09-.233-.1-.524-.465-.711-.792,5-1.575,9.965-2.373,14.926-.078.485.178.473.514.472" transform="translate(-4.129 -9.241)" fill="#eaa939"/>
        <path id="Trazado_159600" data-name="Trazado 159600" d="M19.333,25.959c.122.335.333.338.6.338,2.9,0,5.8-.01,8.7.008a.59.59,0,0,0,.653-.468c.572-1.574,1.168-3.139,1.748-4.71a7.189,7.189,0,0,0,.5-1.5H17.051a.713.713,0,0,0,0,.213c.761,2.038,1.534,4.071,2.28,6.114m4.925-4.118c1.137,0,1.137,0,1.137,1.17,0,1.056,0,1.056-1.12,1.056s-1.105,0-1.105-1.137c0-1.089,0-1.089,1.088-1.089" transform="translate(-6.291 -7.246)" fill="#eaa939"/>
        <path id="Trazado_159601" data-name="Trazado 159601" d="M38.042,53.194c-1.875.025-3.751.02-5.626,0-.4,0-.574.077-.572.531q.026,5.036,0,10.074c0,.4.091.579.541.574q2.812-.033,5.626,0c.488.007.568-.184.563-.613-.021-1.657-.009-3.315-.009-4.971,0-1.679-.011-3.358.008-5.037,0-.409-.086-.568-.535-.563" transform="translate(-11.755 -19.635)" fill="#eaa939"/>
        <path id="Trazado_159602" data-name="Trazado 159602" d="M37.985,85.055q-2.776.031-5.552,0c-.462-.006-.589.147-.587.6q.024,5,0,9.992c0,.432.086.61.567.6,1.872-.027,3.745-.024,5.617,0,.431.005.553-.125.548-.55-.022-1.676-.009-3.352-.009-5.029s-.016-3.353.009-5.029c.008-.466-.148-.589-.594-.584" transform="translate(-11.756 -31.395)" fill="#eaa939"/>
        <path id="Trazado_159603" data-name="Trazado 159603" d="M39.066,44.723A2.028,2.028,0,0,0,37.9,43.048a3.471,3.471,0,0,0-1.814-.447c-1.329.007-2.657,0-3.985,0a3.533,3.533,0,0,0-3.823,3.884c0,.445.109.6.579.592,1.655-.028,3.31-.011,4.966-.011s3.31-.02,4.965.011c.5.009.661-.119.555-.619a12.237,12.237,0,0,1-.271-1.739" transform="translate(-10.436 -15.725)" fill="#e9a93a"/>
        <path id="Trazado_159604" data-name="Trazado 159604" d="M38.557,74.9c.007-.392-.11-.539-.516-.529-.958.025-1.915.008-2.873.008-.936,0-1.872.021-2.807-.009-.471-.015-.6.167-.591.609.022,1.132.02,2.264,0,3.4-.008.427.148.566.571.562q2.841-.025,5.681,0c.381,0,.544-.094.536-.51-.023-1.175-.021-2.351,0-3.525" transform="translate(-11.727 -27.452)" fill="#5ea6a3"/>
        <path id="Trazado_159605" data-name="Trazado 159605" d="M3.991,59.731a8.12,8.12,0,0,0,6.183-6.039c.07-.336.066-.51-.368-.5-.956.032-1.914-.01-2.87.018A3.462,3.462,0,0,0,3.526,56.7c-.006.391,0,.783,0,1.175,0,.478.018.958-.006,1.435-.019.368.074.493.473.422" transform="translate(-1.298 -19.636)" fill="#eaa939"/>
        <path id="Trazado_159606" data-name="Trazado 159606" d="M3.956,92.406c-.358-.06-.447.024-.439.375.021.891,0,1.784.01,2.676a3.431,3.431,0,0,0,2.65,3.37,9.116,9.116,0,0,0,1.976.118c.6,0,1.1-.03,1.6.008.462.035.489-.161.411-.535a8.12,8.12,0,0,0-6.211-6.011" transform="translate(-1.298 -34.103)" fill="#e9a939"/>
        <path id="Trazado_159607" data-name="Trazado 159607" d="M66.065,5.888c2.027-.02,4.054-.009,6.081-.009,2.048,0,4.1,0,6.146-.005.195,0,.442.1.564-.182A1.405,1.405,0,0,0,77.549,3.64q-5.231,0-10.462,0c-1.227,0-1.623.43-1.626,1.66,0,.464.156.592.6.587" transform="translate(-24.163 -1.343)" fill="#5ea6a3"/>
        <path id="Trazado_159608" data-name="Trazado 159608" d="M67.035,94.588c0-.633-.023-1.158.007-1.679.026-.451-.125-.56-.564-.467a7.859,7.859,0,0,0-5.854,6.114c-.062.361.068.4.362.4.959-.011,1.92.026,2.877-.016a3.241,3.241,0,0,0,3.075-2.313,8.623,8.623,0,0,0,.1-2.038" transform="translate(-22.372 -34.111)" fill="#eaa939"/>
        <path id="Trazado_159609" data-name="Trazado 159609" d="M60.635,53.616a7.812,7.812,0,0,0,5.8,6.076c.452.1.647.054.613-.457-.032-.477-.007-.958-.007-1.437H67c0-.566.038-1.135-.008-1.7a3.135,3.135,0,0,0-2.954-2.876c-1.021-.048-2.047-.007-3.07-.023-.325-.006-.395.083-.336.414" transform="translate(-22.375 -19.638)" fill="#eaa939"/>
        <path id="Trazado_159610" data-name="Trazado 159610" d="M66.351,44.409a2.21,2.21,0,0,0-4.378.314c-.031.608.015,1.219-.025,1.824-.029.435.122.541.543.536a12.108,12.108,0,0,1,3.94.324,21.987,21.987,0,0,0-.08-3" transform="translate(-22.865 -15.732)" fill="#fefefe"/>
        <path id="Trazado_159611" data-name="Trazado 159611" d="M83.2,39.221A4.5,4.5,0,0,0,79.65,43.91q-.009,10.4,0,20.8a14.555,14.555,0,0,0,.11,1.888,4.427,4.427,0,0,0,8.792-.862c.008-3.685,0-7.371,0-11.055,0-3.729.019-7.458-.008-11.187A4.4,4.4,0,0,0,83.2,39.221m3.137,11.03v4.513c0,3.662.008,7.324,0,10.987a2.226,2.226,0,1,1-4.448.12c-.025-.958-.008-1.918-.008-2.877q0-9.614,0-19.227a2.242,2.242,0,0,1,2.175-2.438,2.187,2.187,0,0,1,2.277,2.252c.018,2.223.006,4.447.006,6.67" transform="translate(-29.399 -14.442)"/>
        <path id="Trazado_159612" data-name="Trazado 159612" d="M50.81,76.227c-1.045,0-1.045,0-1.045,1.054,0,1.175,0,1.175,1.184,1.175C52,78.455,52,78.455,52,77.4c0-1.176,0-1.176-1.185-1.176" transform="translate(-18.37 -28.137)"/>
        <path id="Trazado_159613" data-name="Trazado 159613" d="M58,76.227c-1.16,0-1.16,0-1.16,1.136,0,1.092,0,1.092,1.073,1.092,1.157,0,1.157,0,1.157-1.135,0-1.093,0-1.093-1.07-1.093" transform="translate(-20.982 -28.137)"/>
        <path id="Trazado_159614" data-name="Trazado 159614" d="M65.03,78.455c1.116,0,1.116,0,1.116-1.11s0-1.118-1.11-1.118-1.123,0-1.123,1.112,0,1.117,1.117,1.117" transform="translate(-23.592 -28.137)" fill="#202933"/>
        <path id="Trazado_159615" data-name="Trazado 159615" d="M22.607,76.226c-1.165,0-1.165,0-1.165,1.139,0,1.091,0,1.091,1.079,1.091,1.163,0,1.163,0,1.163-1.136,0-1.093,0-1.093-1.078-1.093" transform="translate(-7.915 -28.137)" fill="#212b35"/>
        <path id="Trazado_159616" data-name="Trazado 159616" d="M8.471,76.227H8.406c-1.133,0-1.133,0-1.133,1.165,0,1.064,0,1.064,1.037,1.064,1.194,0,1.194,0,1.194-1.164,0-1.064,0-1.064-1.033-1.064" transform="translate(-2.685 -28.137)"/>
        <path id="Trazado_159617" data-name="Trazado 159617" d="M15.467,76.227c-1.122,0-1.122,0-1.122,1.114s0,1.114,1.12,1.114,1.114,0,1.114-1.112,0-1.116-1.112-1.116" transform="translate(-5.295 -28.137)" fill="#202a33"/>
        <path id="Trazado_159618" data-name="Trazado 159618" d="M27.86,25.36c1.12,0,1.12,0,1.12-1.056,0-1.17,0-1.17-1.137-1.17-1.088,0-1.088,0-1.088,1.09,0,1.136,0,1.136,1.105,1.136" transform="translate(-9.876 -8.539)"/>
        <path id="Trazado_159619" data-name="Trazado 159619" d="M85.354,42.618a2.242,2.242,0,0,0-2.175,2.438q-.007,9.614,0,19.227c0,.959-.018,1.918.008,2.877a2.226,2.226,0,1,0,4.448-.12c.011-3.662,0-7.324,0-10.987q0-2.256,0-4.513c0-2.223.013-4.447-.006-6.67a2.187,2.187,0,0,0-2.277-2.252" transform="translate(-30.701 -15.731)" fill="#fefefe"/>
      </g>
    </g>
  </g>
</svg>
