<svg xmlns="http://www.w3.org/2000/svg" xmlns:xlink="http://www.w3.org/1999/xlink" width="105" height="105" viewBox="0 0 105 105">
  <defs>
    <clipPath id="clip-path">
      <rect id="Rectángulo_42405" data-name="Rectángulo 42405" width="75.556" height="48.855" fill="none"/>
    </clipPath>
  </defs>
  <g id="_22" data-name="22" transform="translate(5637 8178)">
    <circle id="Elipse_4905" data-name="Elipse 4905" cx="52.5" cy="52.5" r="52.5" transform="translate(-5637 -8178)" fill="#ffdfe0"/>
    <g id="Grupo_169191" data-name="Grupo 169191" transform="translate(-5622 -8150)">
      <g id="Grupo_169190" data-name="Grupo 169190" transform="translate(0 0)" clip-path="url(#clip-path)">
        <path id="Trazado_159637" data-name="Trazado 159637" d="M0,4.519c.241-.154.192-.435.264-.654A5.5,5.5,0,0,1,5.113.056C5.43.032,5.751.031,6.07.031,27.206.03,48.343.061,69.479,0a5.853,5.853,0,0,1,6.077,6.073c-.078,12.338-.029,24.676-.034,37.014A5.524,5.524,0,0,1,71.237,48.7a8.3,8.3,0,0,1-1.979.159H6.292c-3.4,0-5.089-1.208-6.184-4.421C.095,44.4.037,44.376,0,44.347V4.519" transform="translate(0 0)"/>
        <path id="Trazado_159638" data-name="Trazado 159638" d="M7.266,48.461a3.232,3.232,0,0,1-3.195-3.037c-.016-.245-.009-.492-.009-.737,0-12.242.03-24.485-.029-36.727A3.629,3.629,0,0,1,7.907,4.1q30.827.073,61.653.029c.293,0,.587.028.88.042A2.3,2.3,0,0,1,71.6,5.434c.283.69.12.966-.611,1.016-.269.018-.539.008-.808.008q-8.862,0-17.722,0a1.929,1.929,0,0,0-1.075.153c-.606.315-.632.878-.632,1.456q0,5.915,0,11.83c0,.882,0,1.763,0,2.645a1.2,1.2,0,0,0,.666,1.209,2.132,2.132,0,0,0,1.085.136q8.919,0,17.839,0c.3,0,.59,0,.885.01a.7.7,0,0,1,.753.727c.014.172.021.343.021.515,0,2.949.007,5.9,0,8.846,0,1.1-.135,1.232-1.23,1.233q-9.141.007-18.282,0a2.05,2.05,0,0,0-1.08.145c-.391.222-.682.52-.553,1.006a1.045,1.045,0,0,0,.941.713,6.12,6.12,0,0,0,1.174.055q8.793,0,17.585,0a1.807,1.807,0,0,1,1.272.226,2.931,2.931,0,0,1,.131,1.66.616.616,0,0,1-.632.594c-.294.025-.588.019-.883.019q-8.979,0-17.959,0a2.029,2.029,0,0,0-1.078.146c-.391.224-.679.521-.549,1.008a1.047,1.047,0,0,0,.943.711,6.166,6.166,0,0,0,1.174.055q8.791,0,17.582,0a1.806,1.806,0,0,1,1.272.226,2.933,2.933,0,0,1,.131,1.66.615.615,0,0,1-.632.594c-.294.025-.588.019-.882.019q-8.979,0-17.959,0a2.025,2.025,0,0,0-1.078.145c-.392.224-.682.522-.55,1.01a1.049,1.049,0,0,0,.946.711A6.236,6.236,0,0,0,52.984,46q8.772,0,17.545,0a1.793,1.793,0,0,1,1.274.225,2.087,2.087,0,0,1-2.179,2.285q-30.813,0-61.627,0a2.052,2.052,0,0,1-.731-.047" transform="translate(-1.85 -1.879)" fill="#feb489"/>
        <path id="Trazado_159639" data-name="Trazado 159639" d="M54.009,39.585c.257-.221.565-.122.85-.123,6.24-.006,12.48-.016,18.72.011.718,0,1.061-.136.942-.919a8.206,8.206,0,0,1-.015-1.177c.037-.3.33-.335.509-.485a.788.788,0,0,0,.346-.83.8.8,0,0,0-.743-.612,7.31,7.31,0,0,0-.955-.03q-9.2,0-18.4-.007c-.426,0-.894.119-1.252-.253.257-.221.566-.123.85-.123,6.268-.006,12.537-.015,18.8.01.671,0,.872-.168.864-.855q-.055-4.646,0-9.291c.006-.621-.182-.78-.788-.778q-9.439.031-18.878.008c-.285,0-.594.1-.85-.126.357-.372.826-.259,1.253-.26q9.174-.013,18.349-.006c1.739,0,1.84-.1,1.84-1.834q0-6.742,0-13.485a5.7,5.7,0,0,0-.038-.956A.845.845,0,0,0,74.64,6.7a7.275,7.275,0,0,0-1.03-.037q-9.174,0-18.348-.006c-.428,0-.9.11-1.253-.261.257-.221.565-.123.849-.123q9.358-.009,18.716-.005c.91,0,.889,0,.521-.842-.217-.493-.662-.785-.915-1.232.416-.014.833-.044,1.248-.04A3.287,3.287,0,0,1,77.9,7.618q.008,18.723,0,37.447a3.27,3.27,0,0,1-3.186,3.451c-.758.057-1.522.042-2.283.042q-30.776,0-61.551,0A1.983,1.983,0,0,1,10,48.487c.343-.011.686-.03,1.03-.03q30.407,0,60.813.015c1.552,0,1.75-.242,2.457-1.687a5.369,5.369,0,0,0,.2-.552c.109-.272.389-.362.581-.546a.769.769,0,0,0,.274-.79.782.782,0,0,0-.682-.587,6.273,6.273,0,0,0-1.028-.041q-9.2,0-18.392-.006c-.426,0-.893.12-1.251-.253.257-.22.565-.122.85-.122,6.24-.006,12.48-.016,18.72.011.718,0,1.061-.136.942-.919a8.214,8.214,0,0,1-.015-1.178c.037-.3.33-.335.509-.485a.787.787,0,0,0,.346-.83.8.8,0,0,0-.743-.612,7.31,7.31,0,0,0-.955-.03q-9.2,0-18.4-.006c-.426,0-.894.12-1.252-.253" transform="translate(-4.589 -1.905)" fill="#fe996b"/>
        <path id="Trazado_159640" data-name="Trazado 159640" d="M10.477,25.479a2.157,2.157,0,0,1-.135-2.273,3.027,3.027,0,0,0,.691-2.386c-.027-2.482-.015-4.965-.006-7.447,0-1.232.143-1.377,1.342-1.378q16.112-.007,32.225,0a1.714,1.714,0,0,1,1.069.2,1.611,1.611,0,0,1,.208,1.061q.007,12.953,0,25.9a1.667,1.667,0,0,1-.2,1.063c-.483.152-.637-.267-.839-.529a7.55,7.55,0,0,0-3.743-2.614,6.482,6.482,0,0,0-2.029-.3q-8.949.012-17.9.005A7.49,7.49,0,0,0,14,42.306a7.961,7.961,0,0,0-.3,1.664,1.147,1.147,0,0,0,.743,1.295,2.778,2.778,0,0,0,1.1.093q13.969,0,27.939,0h.885c1.427,0,1.766.434,1.478,1.845a.677.677,0,0,1-.693.624c-.27.014-.54.013-.81.013q-15.923,0-31.846,0a2.261,2.261,0,0,1-1.226-.145,1.941,1.941,0,0,1-.232-1.346q-.01-9.212,0-18.423a3.658,3.658,0,0,0-.554-2.447" transform="translate(-4.626 -5.5)" fill="#fefefe"/>
        <path id="Trazado_159641" data-name="Trazado 159641" d="M44.751,10.493c-.244-.016-.487-.047-.731-.048q-16.441,0-32.882-.016c-.591,0-.778.105-.77.742.04,2.973.009,5.947.024,8.921a1.222,1.222,0,0,1-.927,1.389c-.983-.079-1.289-.4-1.29-1.391q-.006-5.235,0-10.47c0-1,.371-1.384,1.372-1.385q19.649,0,39.3,0c1,0,1.366.383,1.366,1.391q0,18.581,0,37.161c0,1-.37,1.38-1.362,1.419-.147.006-.3,0-.442,0H9.994c-1.578,0-1.821-.247-1.821-1.847q0-10.58,0-21.161c0-1.125.346-1.471,1.426-1.445a1.293,1.293,0,0,1,.792,1.418q-.015,9.971,0,19.942c0,.267.033.534.05.8a1.356,1.356,0,0,0,.723.068q16.41,0,32.82-.014c1.047,0,2.1-.19,3.152-.163.431.011.625-.211.623-.633,0-.221,0-.443,0-.664q0-16.19,0-32.379c0-1.382,0-1.368-1.372-1.391-.552-.009-1.14.15-1.637-.247" transform="translate(-3.748 -3.776)"/>
        <path id="Trazado_159642" data-name="Trazado 159642" d="M90.655,8.272l17.472-.023c.958,0,1.916-.006,2.875,0,.922,0,1.328.379,1.329,1.273q.01,7.557,0,15.114c0,.934-.414,1.286-1.478,1.287q-8.257.006-16.514,0c-1.228,0-2.456-.025-3.684-.038a1.3,1.3,0,0,1-.749-1.31q.017-7.5,0-14.992a1.3,1.3,0,0,1,.749-1.309" transform="translate(-41.235 -3.782)"/>
        <path id="Trazado_159643" data-name="Trazado 159643" d="M90.661,77.757l17.181-.023q1.475,0,2.949,0c.974,0,1.427.269,1.535.909s-.28,1.069-1.167,1.337c-.292-.015-.585-.042-.878-.042q-9.228,0-18.456,0c-.2,0-.392,0-.588,0a1.156,1.156,0,0,1-1.281-.872,1.11,1.11,0,0,1,.705-1.306" transform="translate(-41.241 -35.652)" fill="#010100"/>
        <path id="Trazado_159644" data-name="Trazado 159644" d="M90.661,61.407l17.18-.023q1.512,0,3.023,0c.9,0,1.356.283,1.461.909s-.287,1.079-1.168,1.331c-.856-.012-1.713-.035-2.57-.035q-8.382,0-16.764,0c-.2,0-.392,0-.588,0a1.156,1.156,0,0,1-1.281-.872,1.11,1.11,0,0,1,.705-1.306" transform="translate(-41.241 -28.153)" fill="#010100"/>
        <path id="Trazado_159645" data-name="Trazado 159645" d="M90.661,69.582l17.18-.023q1.512,0,3.023,0c.9,0,1.356.283,1.461.909s-.287,1.079-1.168,1.331c-.856-.012-1.713-.035-2.57-.035q-8.382,0-16.764,0c-.2,0-.392,0-.588,0a1.156,1.156,0,0,1-1.281-.872,1.11,1.11,0,0,1,.705-1.306" transform="translate(-41.241 -31.902)" fill="#010100"/>
        <path id="Trazado_159646" data-name="Trazado 159646" d="M17.1,66.2a1.3,1.3,0,0,1-.75-1.379,7.811,7.811,0,0,1,7.216-7.505c3.236-.13,6.478-.053,9.718-.06,2.529-.006,5.059.056,7.585-.016A8.194,8.194,0,0,1,48.39,61a.934.934,0,0,1,.466.453,7.688,7.688,0,0,1,.9,3.391c.021,1.054-.44,1.461-1.475,1.4-.221-.012-.442,0-.664,0q-14.855,0-29.711,0a2.774,2.774,0,0,1-.806-.04" transform="translate(-7.498 -26.253)"/>
        <path id="Trazado_159647" data-name="Trazado 159647" d="M38.6,36.3a9.947,9.947,0,1,1,9.921-10.02A9.96,9.96,0,0,1,38.6,36.3" transform="translate(-13.123 -7.524)"/>
        <path id="Trazado_159648" data-name="Trazado 159648" d="M15.27,45.6c.342.014.685.041,1.028.041q14.842,0,29.685,0c.148,0,.3,0,.442,0,.9-.04,1.293-.445,1.276-1.336a8.382,8.382,0,0,0-1.141-3.9c.2-.264.107-.57.107-.856q.009-13.589.006-27.179c.955-.016,1.912-.025,2.868-.053.279-.008.415.072.383.37a4.155,4.155,0,0,0,0,.442q0,16.954.015,33.909c0,.648-.128.852-.824.85q-17.987-.032-35.973-.014c-.259,0-.537.1-.78-.082,1.2-.006,2.407-.018,3.611-.018q14.889,0,29.778.016c.732,0,1.06-.16.929-.926a2.914,2.914,0,0,1,0-.663c.023-.356-.146-.487-.485-.464-.2.012-.393,0-.59,0q-14.7,0-29.409-.005c-.307,0-.642.109-.92-.129" transform="translate(-5.668 -5.646)" fill="#fef6cb"/>
        <path id="Trazado_159649" data-name="Trazado 159649" d="M98.421,18.934c0,2.016-.017,4.032.012,6.047.007.492-.135.626-.615.612-1.081-.034-2.163-.029-3.244,0-.433.011-.592-.083-.59-.561q.029-6.084,0-12.168c0-.463.13-.579.577-.567,1.105.031,2.213.037,3.318,0,.488-.017.555.168.551.592-.02,2.016-.009,4.031-.009,6.047" transform="translate(-43.106 -5.638)" fill="#fee78b"/>
        <path id="Trazado_159650" data-name="Trazado 159650" d="M123.489,19.008c0,1.991-.017,3.983.012,5.973.007.492-.136.627-.615.612-1.081-.033-2.163-.029-3.244,0-.434.011-.592-.084-.59-.561q.029-6.084,0-12.168c0-.463.131-.579.577-.566,1.105.031,2.214.037,3.318,0,.488-.018.555.169.551.592-.019,2.04-.009,4.081-.009,6.121" transform="translate(-54.603 -5.639)" fill="#fee78b"/>
        <path id="Trazado_159651" data-name="Trazado 159651" d="M108.746,20.418c.636.069,1.672-.341,2.109.159.383.436.122,1.447.124,2.2,0,.659.224,1.545-.111,1.92-.392.438-1.295.115-1.975.138-.735.024-1.472,0-2.209.01-.313.006-.431-.1-.427-.421q.022-1.8,0-3.608c0-.339.141-.411.438-.4.638.014,1.277,0,2.051,0" transform="translate(-48.734 -9.322)" fill="#febd3b"/>
        <path id="Trazado_159652" data-name="Trazado 159652" d="M108.642,12.31h.663c1.757,0,1.749,0,1.633,1.784-.019.3-.085.438-.415.435a31.493,31.493,0,0,1-3.9-.05c-.882-.121-.256-1.031-.4-1.565-.078-.289-.1-.644.43-.613.661.039,1.326.009,1.989.009" transform="translate(-48.682 -5.641)" fill="#fdd25d"/>
        <path id="Trazado_159653" data-name="Trazado 159653" d="M108.553,34.967h-.81c-1.654,0-1.867-.265-1.579-1.918.037-.214.1-.3.317-.3,1.351,0,2.7,0,4.053,0,.024,0,.057-.009.073,0,.612.488.14,1.154.277,1.723.073.3-.024.509-.416.493-.637-.026-1.277-.007-1.915-.007" transform="translate(-48.642 -15.021)" fill="#fdd25d"/>
        <path id="Trazado_159654" data-name="Trazado 159654" d="M20.78,65.851a5.532,5.532,0,0,1,4.7-4.423,6.953,6.953,0,0,1,.735-.048q8.255,0,16.51,0c.146,0,.292.028.438.042a5.611,5.611,0,0,1,2.862,3.895c.15.518-.13.624-.591.621-2.283-.014-4.567-.006-6.85-.006q-8.507,0-17.014,0a1.387,1.387,0,0,1-.79-.076" transform="translate(-9.531 -28.15)" fill="#5e6ff1"/>
        <path id="Trazado_159655" data-name="Trazado 159655" d="M20.78,65.87l24.292,0c.9,0,.869.009.636-.842a7.355,7.355,0,0,0-2.544-3.584,5.645,5.645,0,0,1,5.907,3.8c.207.6.083.744-.546.743-8.724-.011-17.448,0-26.173,0a3.264,3.264,0,0,1-1.572-.113" transform="translate(-9.531 -28.17)" fill="#4855ce"/>
        <path id="Trazado_159656" data-name="Trazado 159656" d="M43.029,35.459c-3.163,1.415-7.378-.106-9.274-3.347A7.733,7.733,0,0,1,42.7,20.826a2.564,2.564,0,0,1,.326.156,2.8,2.8,0,0,1,1.038,1.57,16.284,16.284,0,0,1-.152,11.671,2.347,2.347,0,0,1-.886,1.235" transform="translate(-14.999 -9.393)" fill="#5e70f1"/>
        <path id="Trazado_159657" data-name="Trazado 159657" d="M51.778,35.883a14.9,14.9,0,0,0,0-14.476,7.323,7.323,0,0,1,4.953,5.53,7.717,7.717,0,0,1-4.6,8.869,2.065,2.065,0,0,1-.355.077" transform="translate(-23.748 -9.818)" fill="#4856ce"/>
      </g>
    </g>
  </g>
</svg>
