<svg xmlns="http://www.w3.org/2000/svg" xmlns:xlink="http://www.w3.org/1999/xlink" width="157" height="357.734" viewBox="0 0 157 357.734">
  <defs>
    <clipPath id="clip-path">
      <rect id="Rect치ngulo_40959" data-name="Rect치ngulo 40959" width="148.2" height="310.129" fill="none"/>
    </clipPath>
    <clipPath id="clip-path-2">
      <rect id="Rect치ngulo_38703" data-name="Rect치ngulo 38703" width="1.596" height="0.747" fill="none"/>
    </clipPath>
  </defs>
  <g id="Grupo_167612" data-name="Grupo 167612" transform="translate(22.284 2.125)">
    <g id="Grupo_157493" data-name="Grupo 157493" transform="translate(-22.284 -9.52)">
      <path id="Trazado_114544" data-name="Trazado 114544" d="M122.353,318.619c-19.387-8.8-39.493-20.662-47.3-40.508-8.666-22.025.4-46.692.187-70.368-.173-18.756-6.235-36.869-11-55.005s-8.272-37.407-3.351-55.5A70.272,70.272,0,0,1,80.207,65.462c15.907-15.315,38.825-23.6,60.6-20.1S182.365,64.825,188.731,86c9.019,29.995-8.6,62.013-4.854,93.115,1.465,12.17,6.154,23.679,9.334,35.516a145.865,145.865,0,0,1,4.983,38.64c-.119,19.965-5.165,41.266-20.02,54.561C163.189,321.239,140.891,327.029,122.353,318.619Z" transform="translate(-41.195 -37.171)" fill="#6b8dfc"/>
      <g id="Grupo_165659" data-name="Grupo 165659" transform="translate(0 55)">
        <g id="Grupo_165659-2" data-name="Grupo 165659" clip-path="url(#clip-path)">
          <path id="Trazado_150964" data-name="Trazado 150964" d="M181.8,249.023H162.646V210.005H181.8a2.324,2.324,0,0,1,2.324,2.324V246.7a2.324,2.324,0,0,1-2.324,2.324" transform="translate(-66.804 -86.256)" fill="#ffcfa6"/>
          <path id="Trazado_150965" data-name="Trazado 150965" d="M197.083,495.166a2.494,2.494,0,0,1-.2.453,2.884,2.884,0,0,1-.278.412c-.062.062-.113.124-.175.186a2.608,2.608,0,0,1-1.853.772H157.592c-.154,0-.309-.01-.453-.021a2.969,2.969,0,0,1-.443-.062,2.662,2.662,0,0,1-.433-.092c-.144-.041-.278-.083-.412-.134a2.877,2.877,0,0,1-.412-.165,3.594,3.594,0,0,1-.35-.175,4.982,4.982,0,0,1-1.3-1.019,2.727,2.727,0,0,1-.216-.247,5.092,5.092,0,0,1-.6-.927,2.285,2.285,0,0,1-.165-.36.389.389,0,0,1-.041-.093,4.4,4.4,0,0,1-.247-.813l-1.5-11.976-2.9-23.149,23.653-2.811s1.339,22.819,1.4,22.984c0,.01.072.041.186.124h.01c.525.329,2,1.236,3.985,2.471.206.113.412.247.628.381.082.051.175.1.258.154.854.526,1.791,1.1,2.76,1.7.288.185.577.36.875.546,1.359.844,2.781,1.73,4.191,2.626a.01.01,0,0,1,.01.01c.371.227.711.464,1.081.69.319.2.618.391.916.587,4.716,3.007,8.774,5.746,8.99,6.385.01.021.01.051.021.072s0,.011.011.021a2.473,2.473,0,0,1-.011,1.473" transform="translate(-60.837 -186.86)" fill="#f9b3a2"/>
          <path id="Trazado_150966" data-name="Trazado 150966" d="M199.107,511.272a2.494,2.494,0,0,1-.2.453,2.6,2.6,0,0,1-.278.412c-.062.062-.113.124-.175.186a2.608,2.608,0,0,1-1.853.772H159.616c-.154,0-.309-.01-.453-.021a2.968,2.968,0,0,1-.443-.062,2.659,2.659,0,0,1-.433-.092c-.144-.041-.278-.082-.412-.134a2.881,2.881,0,0,1-.412-.165,3.6,3.6,0,0,1-.35-.175,4.985,4.985,0,0,1-1.3-1.019,2.713,2.713,0,0,1-.216-.247,5.092,5.092,0,0,1-.6-.927,2.285,2.285,0,0,1-.165-.36.389.389,0,0,1-.041-.093,4.4,4.4,0,0,1-.247-.813l-1.5-11.976h17.043c.514-.371,1.029-.721,1.565-1.061a11.1,11.1,0,0,1,3.728-1.791h.01c.525.329,2,1.236,3.985,2.471.206.113.412.247.628.381.082.051.175.1.257.154.854.526,1.791,1.1,2.76,1.7.288.185.577.36.875.546,1.359.844,2.781,1.73,4.191,2.626a.01.01,0,0,1,.01.01c.371.227.711.464,1.081.69.319.2.618.391.916.587,4.717,3.007,8.774,5.746,8.99,6.385.01.021.01.051.021.072s0,.011.011.021a2.4,2.4,0,0,1-.011,1.473" transform="translate(-62.861 -202.966)" fill="#2f3f4f"/>
          <path id="Trazado_150967" data-name="Trazado 150967" d="M69.154,457.754,66.261,480.9l-1.5,11.976c-.041.154-.082.3-.123.443-.041.123-.082.247-.134.371s-.1.247-.154.36-.1.2-.154.289a5.065,5.065,0,0,1-.494.731,2.566,2.566,0,0,1-.216.247,4.986,4.986,0,0,1-1.3,1.019,3.729,3.729,0,0,1-.35.175,2.853,2.853,0,0,1-.412.165c-.134.051-.268.092-.412.134a2.724,2.724,0,0,1-.433.092,3.12,3.12,0,0,1-.443.062c-.144.01-.3.021-.453.021H31.342a2.606,2.606,0,0,1-1.854-.773c-.062-.062-.113-.123-.175-.185a2.885,2.885,0,0,1-.278-.413,2.554,2.554,0,0,1-.2-.453,2.477,2.477,0,0,1-.01-1.473c.01-.011.01-.011.01-.021s.011-.052.031-.072c.1-.319,3.758-4.16,7.445-7.939.247-.258.494-.515.752-.762.7-.731,1.4-1.441,2.059-2.121.258-.267.515-.514.752-.762,2.162-2.193,3.841-3.851,4.026-3.965h.011a1.462,1.462,0,0,0,.185-.124c.062-.164,1.411-22.984,1.411-22.984Z" transform="translate(-11.797 -186.859)" fill="#f9b3a2"/>
          <path id="Trazado_150968" data-name="Trazado 150968" d="M66.257,497.01l-1.5,11.976c-.041.154-.082.3-.124.443-.041.123-.082.247-.134.371s-.1.247-.154.36-.1.2-.154.289a5.12,5.12,0,0,1-.494.731,2.734,2.734,0,0,1-.216.247,4.983,4.983,0,0,1-1.3,1.019,3.654,3.654,0,0,1-.35.175,2.9,2.9,0,0,1-.412.165c-.134.051-.268.092-.412.134a2.666,2.666,0,0,1-.433.092,3.068,3.068,0,0,1-.443.062c-.144.01-.3.021-.453.021H31.339a2.6,2.6,0,0,1-1.853-.773c-.062-.062-.114-.123-.175-.185a2.919,2.919,0,0,1-.278-.412,2.494,2.494,0,0,1-.2-.453,2.4,2.4,0,0,1-.011-1.473c.011-.011.011-.011.011-.021s.01-.051.031-.072c.1-.319,3.759-4.16,7.445-7.94.247-.258.494-.514.751-.762.7-.731,1.4-1.441,2.059-2.121.258-.268.515-.515.752-.762,2.163-2.193,3.841-3.851,4.026-3.965h.01a11.119,11.119,0,0,1,3.728,1.792c.536.34,1.051.69,1.576,1.061Z" transform="translate(-11.794 -202.966)" fill="#2f3f4f"/>
          <path id="Trazado_150969" data-name="Trazado 150969" d="M18.2,97.807l7.434-4.55L34.6,95.532,43.523,112.4l-12.886,6.308Z" transform="translate(-7.476 -38.304)" fill="#f9b3a2"/>
          <path id="Trazado_150970" data-name="Trazado 150970" d="M157.172,31.826a55.442,55.442,0,0,1-5.309-6.2c-2.488-3.432-3.519-9.782-2.4-10.211s8.753-2.575,11.327.686,5.663,8.924,6.007,10.64-9.623,5.088-9.623,5.088" transform="translate(-61.204 -5.882)" fill="#2f3f4f"/>
          <path id="Trazado_150971" data-name="Trazado 150971" d="M120.982,5.311s-4.752-.65-8.356,4.242c-2.687,3.646-1.952,7.809-2.724,9.353s-3.2,2.63-4.677,6.091a9.106,9.106,0,0,0-.514,3.115c-.045.916.187,2.414-.328,3.207a5.033,5.033,0,0,1-.666.747c-1.1,1.122-2.468,3.433-2.053,5.118h34.582a10.4,10.4,0,0,0-.643-4.532,10.113,10.113,0,0,1-.837-5.983c.29-3.711-2.2-8.621-2.2-8.621Z" transform="translate(-41.725 -2.17)" fill="#a66353"/>
          <path id="Trazado_150972" data-name="Trazado 150972" d="M208.357,73.454l11.335,2.032a9.235,9.235,0,0,1,7.463,10.584c-.853,5.33-3.207,11.316-9.328,13.012-11.713,3.244-20.1,1.4-20.1,1.4Z" transform="translate(-81.211 -30.17)" fill="#f9b3a2"/>
          <path id="Trazado_150973" data-name="Trazado 150973" d="M140.1,20.33a10.324,10.324,0,0,1-11.121,7.233,10.151,10.151,0,0,1-1.753-.371,10.352,10.352,0,0,1-3.536-1.891c-.131-.1-.252-.207-.369-.318a4.572,4.572,0,0,1-.336-.32c-2-2.057-3.765-6.549-2.61-10.342a10.314,10.314,0,0,1,19.569-.494l0,.01a10.269,10.269,0,0,1,.6,3.861.277.277,0,0,1,0,.075,10.463,10.463,0,0,1-.442,2.556" transform="translate(-49.292 -2.878)" fill="#f9b3a2"/>
          <path id="Trazado_150974" data-name="Trazado 150974" d="M142.2,23.1s.536,7.568-.45,11.884c-1.221,5.343-6.795,5.388-11.386,2.431a16.4,16.4,0,0,1-6.157-8.262S133.2,24.989,134.353,25s7.851-1.9,7.851-1.9" transform="translate(-51.017 -9.488)" fill="#f9b3a2"/>
          <path id="Trazado_150975" data-name="Trazado 150975" d="M120.005,52.317l7.639,1.544,6.583-1.77-.344-5.58-.2-3.143v-.009l-.207-3.431L129.405,38.7l-6.267-5.833Z" transform="translate(-49.29 -13.499)" fill="#f9b3a2"/>
          <path id="Trazado_150976" data-name="Trazado 150976" d="M134,47.439c.126.208,2.2,3.513,4.091,4.47a9.221,9.221,0,0,0,1.544.587l-.2-3.143v-.009s-2.276-.623-3.4-1.02A17.25,17.25,0,0,1,134,47.439" transform="translate(-55.036 -19.485)" fill="#2f3f4f"/>
          <path id="Trazado_150977" data-name="Trazado 150977" d="M148.172,38.875l-6.547-.137s.566,1.267,2.947,1.626a3.746,3.746,0,0,0,3.6-1.49" transform="translate(-58.17 -15.911)" fill="#fff"/>
          <path id="Trazado_150978" data-name="Trazado 150978" d="M137.386,10.549a8.827,8.827,0,0,1-3.843,3.684c-1.388.588-5,.952-6.3,1.727a6.164,6.164,0,0,0-2.31,3.506,8.678,8.678,0,0,0-.414,2.3c-.014.818-1.278,1.636-1.278,1.636l-1.517,3.322s-3.382-4.956-3.382-10.3a9.573,9.573,0,0,1,8.616-9.483,13.028,13.028,0,0,1,7.111,1.014,12.564,12.564,0,0,1,3.319,2.6" transform="translate(-48.606 -2.807)" fill="#a66353"/>
          <path id="Trazado_150979" data-name="Trazado 150979" d="M123.137,27.207a3.509,3.509,0,1,0,3.506-3.65,3.58,3.58,0,0,0-3.506,3.65" transform="translate(-50.576 -9.676)" fill="#f9b3a2"/>
          <path id="Trazado_150980" data-name="Trazado 150980" d="M140.613,66.863l-5.947,45.684-52.3,25.54s-5.991-69.862-2.022-71.224A48.519,48.519,0,0,1,91.2,64.733c1.384-.141,2.833-.238,4.315-.313,4.844-.27,10.164-.249,15.743-.119,6.088.13,13.31.746,19.063,1.362,1.568.151,3.028.313,4.315.476,3.611.411,5.979.725,5.979.725" transform="translate(-32.441 -26.372)" fill="#2f3f4f"/>
          <path id="Trazado_150981" data-name="Trazado 150981" d="M60.554,68.714a168.317,168.317,0,0,0-16.625,7.7c-10.137,5.272-13.111,6.758-13.111,6.758l16.8,28.628,24.023-6.732S68.8,83.852,68.393,81.825s-7.84-13.111-7.84-13.111" transform="translate(-12.658 -28.223)" fill="#2f3f4f"/>
          <path id="Trazado_150982" data-name="Trazado 150982" d="M74.519,110.442a.516.516,0,0,1-.5-.415L67.492,76.954a.515.515,0,1,1,1.011-.2l6.521,33.073a.516.516,0,0,1-.405.605.533.533,0,0,1-.1.009" transform="translate(-27.717 -31.355)" fill="#0f0a1c"/>
          <path id="Trazado_150983" data-name="Trazado 150983" d="M176.451,68.714l18.967,2.793-5.586,36.224H166.223Z" transform="translate(-68.273 -28.223)" fill="#2f3f4f"/>
          <path id="Trazado_150984" data-name="Trazado 150984" d="M173.065,113.727a.525.525,0,0,1-.12-.014.515.515,0,0,1-.382-.62l7.3-30.723a.515.515,0,1,1,1,.238l-7.295,30.723a.515.515,0,0,1-.5.4" transform="translate(-70.871 -33.669)" fill="#0f0a1c"/>
          <path id="Trazado_150985" data-name="Trazado 150985" d="M193.406,61.847,162.859,33.063l13.516-15.729s30.878,24.441,34.511,29.375a20.211,20.211,0,0,1,2.478,20.409,15.652,15.652,0,0,1-9.216,8.713Z" transform="translate(-66.891 -7.12)" fill="#f9b3a2"/>
          <path id="Trazado_150986" data-name="Trazado 150986" d="M150.746,25.944c-.369,0-.909-1.952-.976-2.167a11.173,11.173,0,0,1-.55-3,10.9,10.9,0,0,0-.764-4.227,11.515,11.515,0,0,0-1.944-2.984,18.348,18.348,0,0,0-4.859-3.727c-.7-.392-1.441-.731-2.134-1.143-1.633-.969-5.3-3.179-5.91-4.477S133.338.087,137.285,0s19.61,3.44,28.061,10.213S181.91,24.5,181.91,24.5l-31.163,1.444" transform="translate(-54.779 0)" fill="#f9b3a2"/>
          <path id="Trazado_150987" data-name="Trazado 150987" d="M151.286,19.8a.515.515,0,0,1-.3-.1l-3.6-2.6a.515.515,0,1,1,.6-.835l3.6,2.6a.515.515,0,0,1-.3.932" transform="translate(-60.449 -6.641)" fill="#2f3f4f"/>
          <path id="Trazado_150988" data-name="Trazado 150988" d="M137.081,8.313a.513.513,0,0,1-.515-.5c0-.094-.008-2.3,2.836-3.141,3.4-1,11.62,2.006,11.969,2.134a.515.515,0,0,1-.357.966c-.082-.031-8.25-3.021-11.32-2.114-2.067.61-2.1,2.08-2.1,2.141a.517.517,0,0,1-.511.516Z" transform="translate(-56.092 -1.834)" fill="#2f3f4f"/>
          <path id="Trazado_150989" data-name="Trazado 150989" d="M82.885,144.658l8.492-34.85H137.9l1.217,41.878L82.885,150.47Z" transform="translate(-34.044 -45.102)" fill="#44a38c"/>
          <path id="Trazado_150990" data-name="Trazado 150990" d="M162.221,339.383H129.512L115.455,238.012l4.023-69.819.065-1.081.227-3.871.065-1.081.844-14.705,31-14.057s.833,12.283,1.914,28.471c.022.357.054.714.076,1.081.086,1.276.173,2.563.259,3.871.021.357.043.714.075,1.081,1.049,15.711,3.247,33.909,4.111,47.945,1.893,31.087,4.107,123.537,4.107,123.537" transform="translate(-47.421 -54.79)" fill="#44a38c"/>
          <path id="Trazado_150991" data-name="Trazado 150991" d="M68.942,167.4S61.1,199.43,58.67,223.488s-9.732,127.593-9.732,127.593H80.16s15-83.26,19.6-108.4,6.217-52.713,6.217-59.2-1.957-18.312-1.957-18.312Z" transform="translate(-20.1 -67.84)" fill="#44a38c"/>
          <path id="Trazado_150992" data-name="Trazado 150992" d="M153.575,191.2l-34.526.292-4.628.043-.011-1.081,4.7-.044,34.386-.292c.021.357.043.714.075,1.081" transform="translate(-46.992 -78.087)" fill="#2f3f4f"/>
          <path id="Trazado_150993" data-name="Trazado 150993" d="M151.31,182.792l-33.9.292-7.688.065-.011-1.081,7.764-.065,33.757-.292c.022.357.054.714.076,1.081" transform="translate(-45.062 -74.634)" fill="#2f3f4f"/>
          <path id="Trazado_150994" data-name="Trazado 150994" d="M52.793,143.971l-13.17,16.023s-2.6-1.967-6.385-4.881c-1.473-1.133-3.141-2.42-4.9-3.79-9.4-7.311-21.614-17.032-23.859-19.946a20.229,20.229,0,0,1-2.925-20.348,20.745,20.745,0,0,1,9.176-10.05l10.894,14.89,21.357,19.256,4.593,4.14Z" transform="translate(0 -41.475)" fill="#f9b3a2"/>
          <path id="Trazado_150995" data-name="Trazado 150995" d="M92.035,180.113a8.625,8.625,0,0,1-.671,3.644,6.9,6.9,0,0,1-.466.995,7.894,7.894,0,0,1-2.832,3.19,6.94,6.94,0,0,1-1.039.584,13.5,13.5,0,0,1-2.985,1.081c-4.725,1.146-9.526-2.573-12.77-1.7s-5.341,1.027-7.254-.433S59.38,176.89,59.38,176.89l13.851-9s8.791,1.9,11.959,4c2.033,1.341,4.628,2.887,5.882,4.931a6.226,6.226,0,0,1,.757,1.849,5.839,5.839,0,0,1,.206,1.438" transform="translate(-24.389 -68.959)" fill="#f9b3a2"/>
          <path id="Trazado_150996" data-name="Trazado 150996" d="M105.719,184.584c-.53-.368-1.147-.778-1.828-1.233-3.839-2.53-10.651-3.481-10.726-3.493a.551.551,0,0,1-.466-.605.533.533,0,0,1,.616-.465c.282.043,7.125.995,11.17,3.665.368.238.7.465,1.027.692a5.839,5.839,0,0,1,.206,1.438" transform="translate(-38.073 -73.431)" fill="#2f3f4f"/>
          <path id="Trazado_150997" data-name="Trazado 150997" d="M103.7,191.315a6.9,6.9,0,0,1-.465.995,20.125,20.125,0,0,0-4.7-2.53,42.7,42.7,0,0,0-8.672-2.412.54.54,0,0,1-.433-.627.524.524,0,0,1,.628-.433,43.758,43.758,0,0,1,8.888,2.465,21.237,21.237,0,0,1,4.758,2.541" transform="translate(-36.728 -76.518)" fill="#2f3f4f"/>
          <path id="Trazado_150998" data-name="Trazado 150998" d="M99.838,199.064a6.906,6.906,0,0,1-1.038.584,19.742,19.742,0,0,0-10.25-3.59.542.542,0,1,1,.065-1.081,20.715,20.715,0,0,1,11.224,4.087" transform="translate(-36.161 -80.083)" fill="#2f3f4f"/>
          <path id="Trazado_150999" data-name="Trazado 150999" d="M123.562,288.859a.46.46,0,0,1-.064,0,.515.515,0,0,1-.448-.574q1.772-14.289,3.478-28.588l.531-4.417c1.533-12.719,3.118-25.87,3.594-38.835q.109-2.989.2-5.981c.078-2.388.157-4.777.249-7.164l.468-12.277a.528.528,0,0,1,.534-.5.514.514,0,0,1,.494.533l-.469,12.279c-.091,2.385-.169,4.772-.247,7.157q-.1,2.992-.2,5.985c-.477,13.006-2.065,26.18-3.6,38.92l-.53,4.416q-1.708,14.3-3.48,28.592a.514.514,0,0,1-.51.451" transform="translate(-50.539 -78.254)" fill="#2f3f4f"/>
          <path id="Trazado_151000" data-name="Trazado 151000" d="M135.406,231.223l-.361-.965c.05-.019,5.032-1.953,5.788-7.248.8-5.575.717-31.144.716-31.4l1.03,0c0,1.055.081,25.9-.726,31.55a10.572,10.572,0,0,1-6.447,8.068" transform="translate(-55.467 -78.698)" fill="#2f3f4f"/>
          <path id="Trazado_151001" data-name="Trazado 151001" d="M104.837,95.178l-4.315.108L99.712,64.88c1.384-.141,2.833-.238,4.315-.313Z" transform="translate(-40.955 -26.52)" fill="#44a38c"/>
          <path id="Trazado_151002" data-name="Trazado 151002" d="M169.963,67.153l-.638,34.288L165,101.355l.649-34.677c1.568.151,3.028.313,4.315.475" transform="translate(-67.771 -27.387)" fill="#44a38c"/>
          <path id="Trazado_151003" data-name="Trazado 151003" d="M105.1,113.575a1.892,1.892,0,1,0-1.892,1.892,1.892,1.892,0,0,0,1.892-1.892" transform="translate(-41.612 -45.872)" fill="#fff"/>
          <path id="Trazado_151004" data-name="Trazado 151004" d="M169.785,113.575a1.892,1.892,0,1,0-1.892,1.892,1.892,1.892,0,0,0,1.892-1.892" transform="translate(-68.181 -45.872)" fill="#fff"/>
          <path id="Trazado_151005" data-name="Trazado 151005" d="M196,498.887l-3.728,4.531a.511.511,0,0,1-.4.185.467.467,0,0,1-.319-.113.5.5,0,0,1-.072-.721l3.635-4.418c.206.113.412.247.628.381.083.051.175.1.258.154" transform="translate(-78.596 -204.688)" fill="#fff"/>
          <path id="Trazado_151006" data-name="Trazado 151006" d="M202.158,502.69l-3.738,4.541a.507.507,0,0,1-.731.072.507.507,0,0,1-.062-.721l3.656-4.438c.288.185.576.361.875.546" transform="translate(-81.122 -206.246)" fill="#fff"/>
          <path id="Trazado_151007" data-name="Trazado 151007" d="M54.7,505.726a.5.5,0,0,1-.453.268.456.456,0,0,1-.247-.072l-7.62-4.273c.258-.268.515-.515.752-.762l7.373,4.14a.52.52,0,0,1,.2.7" transform="translate(-19.049 -205.73)" fill="#fff"/>
          <path id="Trazado_151008" data-name="Trazado 151008" d="M49.681,510.484a.509.509,0,0,1-.443.258.588.588,0,0,1-.258-.062l-7.373-4.14c.247-.258.494-.515.751-.762l7.126,4.006a.509.509,0,0,1,.2.7" transform="translate(-17.09 -207.739)" fill="#fff"/>
          <path id="Trazado_151009" data-name="Trazado 151009" d="M154.808,154.29a1.027,1.027,0,0,1-.663-.242c-.238-.2-23.961-20.323-35.364-41.032-14.978-27.2-18.586-49.146-18.621-49.365a1.03,1.03,0,0,1,2.034-.324c.034.216,3.6,21.828,18.39,48.695,11.217,20.37,34.653,40.252,34.888,40.45a1.03,1.03,0,0,1-.664,1.817" transform="translate(-41.133 -25.654)" fill="#ffcfa6"/>
          <path id="Trazado_151010" data-name="Trazado 151010" d="M67.324,163.066,52.99,178.913c-1.473-1.133-3.141-2.42-4.9-3.79l14.643-16.2Z" transform="translate(-19.751 -65.276)" fill="#a66353"/>
          <path id="Trazado_151011" data-name="Trazado 151011" d="M67.7,170.58a4.441,4.441,0,1,0-4.441,4.441A4.441,4.441,0,0,0,67.7,170.58" transform="translate(-24.158 -68.239)" fill="#fff"/>
          <path id="Trazado_151096" data-name="Trazado 151096" d="M108.557,76.571a1.16,1.16,0,0,0,.3-.067c.048-.015.09-.036.136-.054a1.4,1.4,0,0,0,.128-.064,1.914,1.914,0,0,0,.451-.347l.094-.1-.038-.089c-.372-.878-.754-1.751-1.18-2.608.262.921.568,1.824.884,2.723l.056-.187a1.911,1.911,0,0,0-.474.315,1.368,1.368,0,0,0-.1.1c-.032.037-.066.07-.1.111a1.16,1.16,0,0,0-.16.264" transform="translate(-21.828 -56.613)" fill="#af593c"/>
          <g id="Grupo_165664" data-name="Grupo 165664" transform="translate(85.996 19.219)" opacity="0.5">
            <g id="Grupo_161778" data-name="Grupo 161778" transform="translate(0 0)">
              <g id="Grupo_161777" data-name="Grupo 161777" clip-path="url(#clip-path-2)">
                <path id="Trazado_142708" data-name="Trazado 142708" d="M111.507,88.532l-1.6.63.779.117Z" transform="translate(-109.911 -88.532)" fill="#af593c"/>
              </g>
            </g>
          </g>
          <path id="Trazado_151097" data-name="Trazado 151097" d="M97.446,71.813,97.4,72c-.017.057-.035.124-.063.2a2.573,2.573,0,0,1-.1.247,2.084,2.084,0,0,1-.151.267,1.524,1.524,0,0,1-.21.251.973.973,0,0,1-.269.186.617.617,0,0,1-.15.053c-.026,0-.051.012-.078.013l-.039,0h-.026l-.1-.006c-.033,0-.046-.01-.071-.013A.633.633,0,0,1,96,73.149a.992.992,0,0,1-.269-.187,1.543,1.543,0,0,1-.21-.251,2.456,2.456,0,0,1-.151-.267,2.614,2.614,0,0,1-.1-.247c-.028-.076-.045-.145-.063-.2l-.046-.183-.009.049a1.417,1.417,0,0,0-.021.14,1.54,1.54,0,0,0-.005.222,1.477,1.477,0,0,0,.036.29,1.453,1.453,0,0,0,.109.335,1.337,1.337,0,0,0,.214.344,1.123,1.123,0,0,0,.349.287.98.98,0,0,0,.229.089c.042.009.093.022.128.025l.1.009h.045l.031,0,.062-.005a1.187,1.187,0,0,0,.122-.025.991.991,0,0,0,.226-.088,1.134,1.134,0,0,0,.349-.287,1.343,1.343,0,0,0,.213-.343,1.462,1.462,0,0,0,.109-.335,1.492,1.492,0,0,0,.036-.29A1.562,1.562,0,0,0,97.476,72c0-.061-.017-.107-.021-.139l-.009-.049" transform="translate(-7.387 -55.424)" fill="#1b262c"/>
          <path id="Trazado_151098" data-name="Trazado 151098" d="M135.966,74.619l-.046.184c-.017.057-.035.124-.063.2a2.516,2.516,0,0,1-.1.247,2.073,2.073,0,0,1-.151.267,1.524,1.524,0,0,1-.21.251.973.973,0,0,1-.269.186.626.626,0,0,1-.15.053c-.026,0-.051.012-.078.013l-.039,0h-.026l-.1-.006c-.033,0-.046-.01-.071-.013a.633.633,0,0,1-.147-.052.993.993,0,0,1-.269-.187,1.537,1.537,0,0,1-.21-.251,1.323,1.323,0,0,1-.081-.134,1.364,1.364,0,0,1-.069-.132,2.592,2.592,0,0,1-.1-.247c-.028-.076-.045-.145-.063-.2l-.046-.183-.009.049a1.413,1.413,0,0,0-.021.14,1.541,1.541,0,0,0-.005.222,1.476,1.476,0,0,0,.036.29,1.448,1.448,0,0,0,.109.335A1.336,1.336,0,0,0,134,76a1.126,1.126,0,0,0,.349.287.975.975,0,0,0,.229.089,1.286,1.286,0,0,0,.128.025l.1.009h.045l.031,0,.062-.005a1.147,1.147,0,0,0,.122-.025.992.992,0,0,0,.226-.088,1.133,1.133,0,0,0,.349-.287,1.351,1.351,0,0,0,.214-.344,1.47,1.47,0,0,0,.109-.335,1.491,1.491,0,0,0,.036-.29,1.565,1.565,0,0,0-.005-.223c0-.061-.017-.107-.021-.139l-.009-.049" transform="translate(-52.429 -57.755)" fill="#1b262c"/>
        </g>
      </g>
    </g>
  </g>
</svg>
