<svg xmlns="http://www.w3.org/2000/svg" xmlns:xlink="http://www.w3.org/1999/xlink" width="793" height="206" viewBox="0 0 793 206">
  <defs>
    <clipPath id="clip-path">
      <path id="Trazado_159922" data-name="Trazado 159922" d="M0,0H793V206H0Z" transform="translate(561 4550)" fill="#ffe891"/>
    </clipPath>
    <clipPath id="clip-path-2">
      <rect id="Rectángulo_42428" data-name="Rectángulo 42428" width="785.692" height="458.422" fill="none"/>
    </clipPath>
  </defs>
  <g id="Grupo_169239" data-name="Grupo 169239" transform="translate(-561 -4550)">
    <path id="Trazado_156666" data-name="Trazado 156666" d="M0,0H793V206H0Z" transform="translate(561 4550)" fill="#ffd947"/>
    <g id="Grupo_216" data-name="Grupo 216" clip-path="url(#clip-path)">
      <g id="Grupo_169238" data-name="Grupo 169238" transform="translate(579.161 4400.25)">
        <g id="Grupo_169233" data-name="Grupo 169233">
          <g id="Grupo_169232" data-name="Grupo 169232" clip-path="url(#clip-path-2)">
            <path id="Trazado_160060" data-name="Trazado 160060" d="M390.075,127.591c-116.885,0-211.638,94.753-211.638,211.638a211.544,211.544,0,0,0,9.632,63.3H592.08a211.546,211.546,0,0,0,9.632-63.3c0-116.884-94.753-211.638-211.637-211.638" transform="translate(2.725 1.949)" fill="#ffe891"/>
          </g>
        </g>
        <g id="Grupo_169235" data-name="Grupo 169235">
          <g id="Grupo_169234" data-name="Grupo 169234" clip-path="url(#clip-path-2)">
            <path id="Trazado_160061" data-name="Trazado 160061" d="M594.35,183.447a8.871,8.871,0,0,0-4.926,1.488A9.791,9.791,0,0,0,577.36,178.6c0-.133.01-.265.01-.4a12.909,12.909,0,0,0-25.125-4.173,12.2,12.2,0,0,0-17.159,11.156,12.287,12.287,0,0,0,.205,2.218h66.47A8.909,8.909,0,0,0,594.35,183.447Z" transform="translate(8.173 2.525)" fill="none" stroke="#fff" stroke-miterlimit="10" stroke-width="0.75"/>
            <path id="Trazado_160062" data-name="Trazado 160062" d="M379.121,53.9a22.376,22.376,0,0,1,27.051-9.4c-.035-.43-.057-.865-.057-1.3A16.186,16.186,0,0,1,430.459,29.22a34.139,34.139,0,0,1,64.59-9.3,10.2,10.2,0,0,1,12.905,13.043A18.168,18.168,0,0,1,530.674,53.9Z" transform="translate(5.79 0.006)" fill="none" stroke="#fff" stroke-miterlimit="10" stroke-width="0.75"/>
            <path id="Trazado_160063" data-name="Trazado 160063" d="M363.1,135.038a18.551,18.551,0,0,1,22.424-7.789c-.028-.357-.048-.717-.048-1.081a13.417,13.417,0,0,1,20.181-11.59A28.3,28.3,0,0,1,459.2,106.87a8.453,8.453,0,0,1,10.7,10.813,15.059,15.059,0,0,1,18.833,17.355Z" transform="translate(5.546 1.385)" fill="#fff"/>
            <line id="Línea_552" data-name="Línea 552" x1="43.918" transform="translate(450.355 136.422)" fill="none" stroke="#000" stroke-miterlimit="10" stroke-width="0.75"/>
            <path id="Trazado_160064" data-name="Trazado 160064" d="M405.013,114.576a28.3,28.3,0,0,1,53.542-7.706,8.452,8.452,0,0,1,10.7,10.812" transform="translate(6.186 1.385)" fill="none" stroke="#000" stroke-miterlimit="10" stroke-width="0.75"/>
            <line id="Línea_553" data-name="Línea 553" x1="27.668" transform="translate(368.642 136.422)" fill="none" stroke="#000" stroke-miterlimit="10" stroke-width="0.75"/>
            <path id="Trazado_160065" data-name="Trazado 160065" d="M350.944,61.737A12.313,12.313,0,0,0,340.3,55.169a20.82,20.82,0,1,0-41.046-4.937c0,.058,0,.116,0,.174a16.262,16.262,0,0,0-19.811,11.332Z" transform="translate(4.268 0.449)" fill="#fff"/>
            <line id="Línea_554" data-name="Línea 554" x2="26.221" transform="translate(283.712 62.186)" fill="none" stroke="#000" stroke-miterlimit="10" stroke-width="0.75"/>
            <path id="Trazado_160066" data-name="Trazado 160066" d="M340.594,50.231a20.821,20.821,0,1,0-41.641,0c0,.058,0,.116,0,.174" transform="translate(4.566 0.449)" fill="none" stroke="#000" stroke-miterlimit="10" stroke-width="0.75"/>
            <path id="Trazado_160067" data-name="Trazado 160067" d="M96.371,364.834,70.016,387.661l-22.65-68.853,26.354-22.829Z" transform="translate(0.723 4.521)" fill="#c5f4eb"/>
            <path id="Trazado_160068" data-name="Trazado 160068" d="M95.974,364.834l34.768,2.748-22.651-68.854-34.767-2.749Z" transform="translate(1.12 4.521)" fill="#aae0d6"/>
            <path id="Trazado_160069" data-name="Trazado 160069" d="M156.572,345.057l-26.353,22.827-22.65-68.854L133.923,276.2Z" transform="translate(1.643 4.219)" fill="#c5f4eb"/>
            <path id="Trazado_160070" data-name="Trazado 160070" d="M156.176,345.057l34.768,2.748L168.29,278.953l-34.764-2.75Z" transform="translate(2.039 4.219)" fill="#aae0d6"/>
            <path id="Trazado_160071" data-name="Trazado 160071" d="M73.442,314.443c-.145,1.353-3.553,1.977-6.224,3.724s-1.519,5.15-2.712,5.975-7.541,1.831-8.912,2.431-2.6,1.729-2.655,2.918,1.7,3.91,4.364,3.267,3.92-2.629,5.653-2.413,6.15,1.748,7.576,4.639,5.8,2.988,8.031,3.8,2.236,1.377,5.187,1.4c1.687.013,3.289.076,4.5.012l-.537-1.634a.568.568,0,0,0-.159.038c-.614.276-3.4.815-4.21-.285a2.171,2.171,0,0,1,1.267-3.476,4.353,4.353,0,0,0,1.581-.9l-2.5-7.609c-1.9.1-5.579-.735-5.594-1.959-.025-1.373,1.426-2.352,2.073-2.922s.615-1.59.918-2.6a.952.952,0,0,1,.081-.189L78.283,309.9a4.15,4.15,0,0,0-.567.281c-2.125,1.316-4.132,2.9-4.274,4.264" transform="translate(0.809 4.733)" fill="#fff"/>
            <path id="Trazado_160072" data-name="Trazado 160072" d="M112.087,316.545a3.612,3.612,0,0,1-1.02,1.739c-.313.267.788.83.755,1.454,0,0-.023.374-.861.553s-1.711.437-1.353.833a6.776,6.776,0,0,1,.745,1.765s1.377-.211,1.47.117c0,0,1.286-1.014,1.211-1.61s.559-.552.57-1.226a1.528,1.528,0,0,1,.728-1.085l-1.243-3.777c-.373.373-.947.8-1,1.238" transform="translate(1.673 4.816)" fill="#c5f4eb"/>
            <path id="Trazado_160073" data-name="Trazado 160073" d="M111.637,313.106c.076.4.578.737,1.023,1.041l-.624-1.9a1.587,1.587,0,0,0-.4.858" transform="translate(1.705 4.769)" fill="#c5f4eb"/>
            <path id="Trazado_160074" data-name="Trazado 160074" d="M107.523,316.293c-.563.2-.485,1.513.138,1.817s1.229-2.283-.138-1.817" transform="translate(1.636 4.83)" fill="#c5f4eb"/>
            <path id="Trazado_160075" data-name="Trazado 160075" d="M110.937,317.09c1.176-.532.467-1.172-.293-1.374s-2.046-1.618-2.384-1.254c-.417.434-.775.472-.085.8s1.269.368,1.272,1.369.3.987,1.49.459" transform="translate(1.646 4.802)" fill="#c5f4eb"/>
            <path id="Trazado_160076" data-name="Trazado 160076" d="M111.838,323.36a3.218,3.218,0,0,0-.862,1.957c.018,1.029-1.012,1.9-.865,3.095a3.885,3.885,0,0,0,2.433,3.467,4.439,4.439,0,0,0,4.18-.036c.6-.3,1.121-.552,1.588-.733l-3.044-9.254a3.405,3.405,0,0,0-1.249.136c-.614.316-2.181,1.368-2.181,1.368" transform="translate(1.682 4.916)" fill="#c5f4eb"/>
            <path id="Trazado_160077" data-name="Trazado 160077" d="M106.944,338.8c-1.266-.47-3.718.092-4.884-.335a14.127,14.127,0,0,0-4.888-1.082c-1.407.139-2.349.047-3.828.218s-2.429,1.932-2.429,1.932c-.688.94-.007,3.177.833,4.547s4.062,2.2,5.025,2.9,2.036,4.485,2.441,5.8-.626,4.566,1.8,6.011,5.481-.36,3.478-.638-2.335-2.927-2.165-4.238,2.076-2.92,3.036-4.283-.252-3.022.839-4.083a4.547,4.547,0,0,0,1.456-4.162c-.388-1.461.548-2.123-.715-2.585" transform="translate(1.384 5.153)" fill="#c5f4eb"/>
            <path id="Trazado_160078" data-name="Trazado 160078" d="M88.752,329.094c.473-2.1,3.061-4.232,2.147-5.581a5.019,5.019,0,0,0-3.586-1.862c-1.042-.138-4.035-.624-4.114-.052s2.188,4.089.643,4.482a3.274,3.274,0,0,1-.612.081l2.5,7.609a9.785,9.785,0,0,0,3.019-4.678" transform="translate(1.271 4.908)" fill="#c5f4eb"/>
            <path id="Trazado_160079" data-name="Trazado 160079" d="M89.668,339.34c.378-.3-1.687-1.286-2.476-1.2l.538,1.634a3.83,3.83,0,0,0,1.938-.432" transform="translate(1.332 5.164)" fill="#c5f4eb"/>
            <path id="Trazado_160080" data-name="Trazado 160080" d="M83.376,318.516c.572.564.372,1.6,2.038,1.861a1.619,1.619,0,0,0,1.71-2.451c-.773-.843-2.977-1.4-4.378-1.608s-3.392-.568-2.908-1.559,2.817-1.1,4.5-1.547c1.689-.434,2.773-.39,4.137.867s2.828,3.864,4.693,4.4,1.82-1.455,2.38-2.609,2.8-2.206,3.765-3.364-.469-3.9-.335-4.718.951-3.3.6-3.807-5.791.888-7.366,1.215-5.538,2.667-7.119,3.553c-1.445.811-4.971.319-7.186,1.244l2.886,8.774a1.944,1.944,0,0,1,2.587-.248" transform="translate(1.19 4.641)" fill="#c5f4eb"/>
            <path id="Trazado_160081" data-name="Trazado 160081" d="M112.645,314.118l.4,1.207c.187-.187.324-.359.318-.512-.006-.212-.341-.441-.715-.7" transform="translate(1.72 4.798)" fill="#fff"/>
            <path id="Trazado_160082" data-name="Trazado 160082" d="M132.816,298.806c-1.834,2.552-3.414,2.163-4.418,3.234s-4.6,2.824-5.433,3.577a4.2,4.2,0,0,1-3.16.769c-.689-.175-3.63,1.25-4.246,2.08-.474.644-2.626,2.782-3.529,4.065l.624,1.9c.374.255.708.482.715.694.006.153-.131.326-.318.513l1.242,3.776a5.053,5.053,0,0,1,.747-.454c.6-.314,1.32-1.337,2.369-1.182s2.507,2.1,3.547,1.683.378-1.4.837-1.465.976,1.251,2.2.835,1.613.326,1.924,1.466,1.853,1.438,3.379,2.414,1.764,1.932,2.771,1.426,3.628-3.211,3.006-3.929-1.247-.191-1.515-.667-.389.652-.785.732-2.222-1.161-1.994-1.338,2.327.546,3.593.219,3.108-1.015,3.108-1.015a16.332,16.332,0,0,1,2.184,1.065c.535.388,3.238,3.082,3.752,3.266s-.278-2.747.1-3.3,1.427-1.936,1.873-2.453a1.271,1.271,0,0,1,1.774-.325l-7.443-22.626c-1.241.557-5.239,2.729-6.9,5.039" transform="translate(1.711 4.487)" fill="#fff"/>
            <path id="Trazado_160083" data-name="Trazado 160083" d="M119.737,330.874c.8.13,1.117,1,1.855,1.572s2.76,1.7,2.718,2.6.774,2.064,2.158,3.4,2.251,2.648,2.974,2.609a4.878,4.878,0,0,0,2.9-2.344,9.752,9.752,0,0,0,.594-3.568c-.009-1.144,1.725-2.513.578-3.88s-1.3-1.849-.455-3.295a2.154,2.154,0,0,0-.781-2.92c-.573-.464-2.9-1.175-3.712-1.774s-2.893-3.411-3.648-3.309-1.98.937-3.056,1-2.4,1.384-3.4,1.21a24.3,24.3,0,0,0-3.279-.29l3.044,9.254a2.939,2.939,0,0,1,1.5-.265" transform="translate(1.759 4.887)" fill="#fff"/>
            <path id="Trazado_160084" data-name="Trazado 160084" d="M146.947,316.687c.61.823,2.22,1.306,2.757,2.108s3.362-.586,3.538-1.733,0-2.535.971-3.543,2.318-3.125,1.864-4.728,1.19-3.472,2.017-4.946,1.2-3.005,2.585-4.2,3.791-2.7,4.1-4.358,3.652-2.762,4.212-4.143.613-1.97-.387-2.3-6.692,1.111-8.969,1.373a18.743,18.743,0,0,0-4.362.821c-.782.323-3.044,1.878-4.33,1.75s-5.725.926-6.523,1.2-4.139-.5-4.832-.261c-.064.021-.161.062-.288.118l7.444,22.626a1.311,1.311,0,0,1,.2.218" transform="translate(2.128 4.411)" fill="#c5f4eb"/>
            <path id="Trazado_160085" data-name="Trazado 160085" d="M169.535,277.742l-34.3-2.713A.865.865,0,0,0,134.5,275a.848.848,0,0,0-.671.5q-12.639,10.948-25.28,21.9a3.083,3.083,0,0,1-.548.394l-1.319-.1-8.557-.676-21.215-1.677c-1.631-.129-3.172-.647-4.457.467l-8.536,7.394L46.7,318.1a1.267,1.267,0,0,0-.433,1.407l22.122,67.25q.262.8.527,1.6a1.2,1.2,0,0,0,1.793.649l25.63-22.2a3.024,3.024,0,0,1,.548-.393q.658.05,1.318.1,4.279.337,8.558.676l21.214,1.676c.868.068,3.11.7,3.879.035l3.894-3.374q8.268-7.158,16.532-14.318l5.412-4.687.226-.2,1.871.147,20.512,1.621q6.029.478,12.058.953c.79.062,1.251-.917,1.024-1.608Q182.328,313.82,171.263,280.2l-.527-1.6a1.269,1.269,0,0,0-1.2-.851m-11.157,66.18a2.66,2.66,0,0,0-2.405.869L150,349.966l-16.358,14.169-2.306,2-.595.515-4.842-.383-21.809-1.723-7.139-.564c-1.117-.088-1.572.438-2.392,1.148q-7.514,6.51-15.029,13.018l-8.946,7.748Q59.8,353.122,49.024,320.354q-.131-.4-.264-.8l24.932-21.6a3.086,3.086,0,0,1,.548-.394l1.319.1,8.557.676,21.215,1.677c1.631.129,3.172.647,4.457-.467l8.536-7.393,16.951-14.683,33.49,2.649q10.913,33.172,21.828,66.341-16.109-1.272-32.216-2.546" transform="translate(0.706 4.199)" fill="#fff"/>
            <line id="Línea_555" data-name="Línea 555" x2="21.246" y2="64.586" transform="translate(109.605 304.444)" fill="none" stroke="#000" stroke-miterlimit="10" stroke-width="0.75"/>
            <path id="Trazado_160086" data-name="Trazado 160086" d="M63.918,302.765,46.7,317.676a1.267,1.267,0,0,0-.433,1.407l22.122,67.25.527,1.6" transform="translate(0.706 4.624)" fill="none" stroke="#000" stroke-miterlimit="10" stroke-width="0.75"/>
            <line id="Línea_556" data-name="Línea 556" x1="7.663" y1="23.296" transform="translate(150.203 324.918)" fill="none" stroke="#000" stroke-miterlimit="10" stroke-width="0.75"/>
            <line id="Línea_557" data-name="Línea 557" x2="18.801" y2="57.142" transform="translate(172.249 285.246)" fill="none" stroke="#000" stroke-miterlimit="10" stroke-width="0.75"/>
            <line id="Línea_558" data-name="Línea 558" x2="13.146" y2="40.226" transform="translate(74.946 301.763)" fill="none" stroke="#000" stroke-miterlimit="10" stroke-width="0.75"/>
            <path id="Trazado_160087" data-name="Trazado 160087" d="M168.606,277.742l-34.3-2.713a.862.862,0,0,0-.735-.029.846.846,0,0,0-.672.5l-25.279,21.9a3.083,3.083,0,0,1-.548.394" transform="translate(1.635 4.199)" fill="none" stroke="#000" stroke-miterlimit="10" stroke-width="0.75"/>
            <path id="Trazado_160088" data-name="Trazado 160088" d="M94.518,364.784Q87,371.295,79.489,377.8l-8.946,7.748q-10.778-32.768-21.557-65.536c-.087-.267-.176-.534-.263-.8l24.931-21.6a3.086,3.086,0,0,1,.548-.394l1.319.1,8.557.676,21.215,1.677" transform="translate(0.744 4.54)" fill="none" stroke="#000" stroke-miterlimit="10" stroke-width="0.75"/>
            <path id="Trazado_160089" data-name="Trazado 160089" d="M.324,104.428c10.094,17.351,30.5,28.134,50.526,26.7a17.366,17.366,0,0,0,8.159-2.194c2.4-1.527,4.171-4.347,3.709-7.156-1.394-2.228-5.072-1.818-6.757.2s-1.84,4.889-1.6,7.506c1.457,16.235,15.212,29.682,30.946,33.943s32.776.564,47.32-6.794" transform="translate(0.005 1.595)" fill="none" stroke="#000" stroke-miterlimit="10" stroke-width="0.75" stroke-dasharray="3.571 3.571"/>
            <path id="Trazado_160090" data-name="Trazado 160090" d="M775.285,258.758c-1.048,10.856-2.654,21.75-6.377,32s-9.7,19.9-18.287,26.617c-1.975,1.543-4.2,2.971-6.7,3.162s-5.277-1.258-5.8-3.709a2.574,2.574,0,0,1,.135-1.664c1-2.026,4.18-.714,5.469,1.139,4.564,6.559,2.056,16.12-3.584,21.78s-13.576,8.29-21.278,10.42c-13.543,3.745-27.575,6.62-39.755,13.626s-22.468,19.276-22.6,33.326c-.078,8.568,3.549,16.682,7.1,24.478" transform="translate(10.027 3.952)" fill="none" stroke="#000" stroke-miterlimit="10" stroke-width="0.75" stroke-dasharray="2.645 2.645"/>
            <path id="Trazado_160091" data-name="Trazado 160091" d="M701.035,399.922a17.187,17.187,0,0,0-20.776-7.217c.026-.331.044-.664.044-1a12.432,12.432,0,0,0-18.7-10.74A26.219,26.219,0,0,0,612,373.826a7.83,7.83,0,0,0-9.911,10.018,13.953,13.953,0,0,0-17.45,16.079Z" transform="translate(8.926 5.48)" fill="#22ca94"/>
            <path id="Trazado_160092" data-name="Trazado 160092" d="M661.347,380.965a26.218,26.218,0,0,0-49.605-7.139,7.831,7.831,0,0,0-9.912,10.017" transform="translate(9.185 5.48)" fill="none" stroke="#000" stroke-miterlimit="10" stroke-width="0.75"/>
            <path id="Trazado_160093" data-name="Trazado 160093" d="M317.768,142.669l-1.149,9.7,13.622,9.062,5.493-2.981L335,164.6l16.752,11.145,5.645-3.836-2.552,5.894,13.851,9.216c-1.429-17.489-11.049-34.619-27.48-45.551s-35.948-13.186-52.631-7.749l19.746,13.138Z" transform="translate(4.408 1.999)" fill="#22ca94"/>
            <path id="Trazado_160094" data-name="Trazado 160094" d="M390.033,361.432c29.866-103.979-26.417-172.55-26.417-172.55s78.952,47.19,74.008,172.4" transform="translate(5.554 2.885)" fill="none" stroke="#000" stroke-miterlimit="10" stroke-width="0.75"/>
            <line id="Línea_559" data-name="Línea 559" y1="5.577" x2="10.188" transform="translate(387.181 217.231)" fill="none" stroke="#000" stroke-miterlimit="10" stroke-width="0.75"/>
            <line id="Línea_560" data-name="Línea 560" y1="7.883" x2="18.752" transform="translate(397.477 243.931)" fill="none" stroke="#000" stroke-miterlimit="10" stroke-width="0.75"/>
            <line id="Línea_561" data-name="Línea 561" y1="4.86" x2="28.374" transform="translate(403.219 277.889)" fill="none" stroke="#000" stroke-miterlimit="10" stroke-width="0.75"/>
            <line id="Línea_562" data-name="Línea 562" y1="0.113" x2="36.458" transform="translate(404.13 312.641)" fill="none" stroke="#000" stroke-miterlimit="10" stroke-width="0.75"/>
            <line id="Línea_563" data-name="Línea 563" y1="0.131" x2="42.189" transform="translate(400.918 341.359)" fill="none" stroke="#000" stroke-miterlimit="10" stroke-width="0.75"/>
            <path id="Trazado_160095" data-name="Trazado 160095" d="M288.654,197.279,297,203.6l42.435-9.321,4.461-5.946s4.135,1.5,7.746,3.265l13.665-3c-16.234-13.288-38.959-19.231-62-14.169s-41.188,19.983-50.359,38.85l28.213-6.2Z" transform="translate(3.863 2.637)" fill="#22ca94"/>
            <path id="Trazado_160096" data-name="Trazado 160096" d="M395.147,185.163l5.53,5.656,32.747-2.241,4-3.946s2.923,1.585,5.425,3.3l10.545-.721a56.3,56.3,0,0,0-86.708,5.932l21.772-1.489Z" transform="translate(5.6 2.59)" fill="#22ca94"/>
            <path id="Trazado_160097" data-name="Trazado 160097" d="M315.341,250.788l7.775,3.3,10.893-15.79-5.529-6.555,9.058,1.44,27.014-39.16c-18.756,1.217-37.275,11.211-49.278,28.61s-14.77,38.261-9.247,56.226l13.1-18.99Z" transform="translate(4.632 2.963)" fill="#22ca94"/>
            <path id="Trazado_160098" data-name="Trazado 160098" d="M407.224,130.635l5.247,6.618-12.324,14.7-7.788-3.587,3.8,8.35-30.565,36.455c-3.814-18.4.893-38.913,14.475-55.112s32.955-24.413,51.742-23.868l-14.822,17.68Z" transform="translate(5.564 1.744)" fill="#22ca94"/>
            <path id="Trazado_160099" data-name="Trazado 160099" d="M373.362,204.8A14.019,14.019,0,1,1,359.3,190.823,14.019,14.019,0,0,1,373.362,204.8" transform="translate(5.274 2.915)" fill="#fa6403"/>
            <path id="Trazado_160100" data-name="Trazado 160100" d="M349.02,198.248s2.591.945,4.332-2.955" transform="translate(5.331 2.983)" fill="none" stroke="#000" stroke-miterlimit="10" stroke-width="0.75"/>
            <path id="Trazado_160101" data-name="Trazado 160101" d="M385.177,192.987A14.019,14.019,0,1,1,380.2,173.8a14.02,14.02,0,0,1,4.979,19.19" transform="translate(5.484 2.625)" fill="#fa6403"/>
            <path id="Trazado_160102" data-name="Trazado 160102" d="M367.456,174.993s1.747,2.133,5.234-.335" transform="translate(5.612 2.668)" fill="none" stroke="#000" stroke-miterlimit="10" stroke-width="0.75"/>
            <path id="Trazado_160103" data-name="Trazado 160103" d="M380.674,197.471a14.023,14.023,0,0,1-21.6-12.139" transform="translate(5.484 2.831)" fill="none" stroke="#000" stroke-miterlimit="10" stroke-width="0.75"/>
            <path id="Trazado_160104" data-name="Trazado 160104" d="M419.366,353.545h-4.933v-9.186a2.063,2.063,0,0,0-2.061-2.062H364.84a2.064,2.064,0,0,0-2.062,2.062v9.186h-4.933v-9.186a7,7,0,0,1,7-7h47.531a7,7,0,0,1,6.994,7Z" transform="translate(5.466 5.153)"/>
            <path id="Trazado_160105" data-name="Trazado 160105" d="M406.334,335.217H370.575a2.809,2.809,0,0,0-2.809,2.809v3.151a2.81,2.81,0,0,0,2.809,2.809h35.759a2.809,2.809,0,0,0,2.809-2.809v-3.151a2.809,2.809,0,0,0-2.809-2.809" transform="translate(5.617 5.12)" fill="#753335"/>
            <path id="Trazado_160106" data-name="Trazado 160106" d="M437.4,348.623H340.643a10,10,0,0,0-10,10V443.1a10,10,0,0,0,10,10H437.4a10,10,0,0,0,10-10V358.619a10,10,0,0,0-10-10" transform="translate(5.05 5.325)" fill="#753335"/>
            <path id="Trazado_160107" data-name="Trazado 160107" d="M345.995,348.623s1.918,16.43-15.347,16.43" transform="translate(5.05 5.325)" fill="none" stroke="#000" stroke-miterlimit="10" stroke-width="0.75"/>
            <path id="Trazado_160108" data-name="Trazado 160108" d="M430.523,348.623s-1.919,16.43,15.347,16.43" transform="translate(6.575 5.325)" fill="none" stroke="#000" stroke-miterlimit="10" stroke-width="0.75"/>
            <rect id="Rectángulo_42429" data-name="Rectángulo 42429" width="14.661" height="20.895" transform="matrix(0.558, -0.83, 0.83, 0.558, 365.913, 381.845)" fill="#fff"/>
            <path id="Trazado_160109" data-name="Trazado 160109" d="M404.348,364.388a7.114,7.114,0,1,1-7.113-7.113,7.113,7.113,0,0,1,7.113,7.113" transform="translate(5.959 5.457)" fill="#fff"/>
            <rect id="Rectángulo_42430" data-name="Rectángulo 42430" width="12.856" height="12.857" transform="translate(405.141 389.738) rotate(-25.031)" fill="#fff"/>
            <rect id="Rectángulo_42431" data-name="Rectángulo 42431" width="8.983" height="12.802" transform="translate(370.855 381.745) rotate(-56.106)" fill="#ccedff"/>
            <path id="Trazado_160110" data-name="Trazado 160110" d="M402.11,364.355a4.909,4.909,0,1,1-4.909-4.909,4.909,4.909,0,0,1,4.909,4.909" transform="translate(5.992 5.49)" fill="#fa9394"/>
            <rect id="Rectángulo_42432" data-name="Rectángulo 42432" width="8.734" height="8.734" transform="matrix(0.906, -0.423, 0.423, 0.906, 407.88, 390.734)" fill="#fdd851"/>
            <rect id="Rectángulo_42433" data-name="Rectángulo 42433" width="9.455" height="52.238" transform="translate(357.896 353.947)" fill="#d98662"/>
            <path id="Trazado_160111" data-name="Trazado 160111" d="M350.326,390.814v-5.751a2.892,2.892,0,0,1,2.888-2.889h8.117a2.893,2.893,0,0,1,2.889,2.889v5.751a2.893,2.893,0,0,1-2.889,2.889h-8.117a2.892,2.892,0,0,1-2.888-2.889m12.25-5.751a1.246,1.246,0,0,0-1.245-1.245h-8.117a1.246,1.246,0,0,0-1.245,1.245v5.751a1.246,1.246,0,0,0,1.245,1.246h8.117a1.246,1.246,0,0,0,1.245-1.246Z" transform="translate(5.351 5.837)"/>
            <rect id="Rectángulo_42434" data-name="Rectángulo 42434" width="9.455" height="52.238" transform="translate(422.022 353.947)" fill="#d98662"/>
            <path id="Trazado_160112" data-name="Trazado 160112" d="M413.487,390.814v-5.751a2.892,2.892,0,0,1,2.888-2.889h8.117a2.893,2.893,0,0,1,2.889,2.889v5.751a2.893,2.893,0,0,1-2.889,2.889h-8.117a2.892,2.892,0,0,1-2.888-2.889m12.25-5.751a1.246,1.246,0,0,0-1.245-1.245h-8.117a1.246,1.246,0,0,0-1.245,1.245v5.751a1.246,1.246,0,0,0,1.245,1.246h8.117a1.246,1.246,0,0,0,1.245-1.246Z" transform="translate(6.315 5.837)"/>
            <path id="Trazado_160113" data-name="Trazado 160113" d="M467.6,251.288s-27.364,13.4-47.256,27.085c0,0-30.238-38.353-35.33-44.242,0,0-9.549,2.546-11.3,4.774,0,0,2.864,40.582,22.28,74.32,19.88,34.546,59.36-7.638,59.36-7.638Z" transform="translate(5.708 3.576)" fill="#fda69d"/>
            <path id="Trazado_160114" data-name="Trazado 160114" d="M361.652,226.888c.318-.391,1.543-1.127,2.056-.572-.012-.013-.8-.88-.024-2.9.785-2.038,3.741-2.367,3.741-2.367s-14.737-12.061-10.1-14.458,14.629,9.293,14.629,9.293c-.394-5.38-.771-17.356,3.29-18.107s4.522,18.532,4.522,18.532a4.468,4.468,0,0,1,1.2-.279,3.561,3.561,0,0,1,1.247.113c1.823.494,3.008,2.3,3.741,3.933a32.019,32.019,0,0,1,2.424,6.779,11.45,11.45,0,0,1,.011,4.721,5.648,5.648,0,0,1-.908,2.077c-.1.145-1.193,1.425-1.11,1.549.669,1.007,1.28,2.068,1.919,3.1l-3.022,1.657q-2.166,1.188-4.335,2.372c-2.034,1.112,2.019,6.664-.143,7.557-.326.135-.914,21.535-1.222,21.364-.213-.117-6.253-26.154-6.361-26.373-.734-1.486-1.465-2.971-2.2-4.45-2.332-1.335-4.611-7.011-4.874-7.684a7.868,7.868,0,0,0-1.364-.463,5.71,5.71,0,0,1-1.977-1.4c-1.121-.976-2.233-2.637-1.134-3.991" transform="translate(5.444 3.02)" fill="#fda69d"/>
            <path id="Trazado_160115" data-name="Trazado 160115" d="M379.094,216.212s-4.568,7.232-2.807,10.492,7.267-2.821,8.811-7.843" transform="translate(5.741 3.302)" fill="none" stroke="#000" stroke-miterlimit="10" stroke-width="0.75"/>
            <path id="Trazado_160116" data-name="Trazado 160116" d="M367.259,220.7a87.93,87.93,0,0,1,8.412,4.436" transform="translate(5.609 3.371)" fill="none" stroke="#000" stroke-miterlimit="10" stroke-width="0.75"/>
            <path id="Trazado_160117" data-name="Trazado 160117" d="M363.6,225.887s11.227,7.739,14.169,1.582" transform="translate(5.553 3.45)" fill="none" stroke="#000" stroke-miterlimit="10" stroke-width="0.75"/>
            <path id="Trazado_160118" data-name="Trazado 160118" d="M362.257,229.973a13.263,13.263,0,0,0,4.561,2.508c1.514.494,3.579,1.233,4.933-.022a1.9,1.9,0,0,0,.621-.9,1.514,1.514,0,0,0,.011-.557,2.517,2.517,0,0,0-.787-1.487" transform="translate(5.533 3.505)" fill="none" stroke="#000" stroke-miterlimit="10" stroke-width="0.75"/>
            <path id="Trazado_160119" data-name="Trazado 160119" d="M554.1,370.775l4.775,30.874-116.812-2.865,2.546-35.648Z" transform="translate(6.752 5.546)" fill="#ff712d"/>
            <line id="Línea_564" data-name="Línea 564" x1="112.391" y1="3.815" transform="translate(450.254 384.124)" fill="none" stroke="#000" stroke-miterlimit="10" stroke-width="0.75"/>
            <line id="Línea_565" data-name="Línea 565" x1="0.852" y2="12.046" transform="translate(495.614 394.088)" fill="none" stroke="#000" stroke-miterlimit="10" stroke-width="0.75"/>
            <path id="Trazado_160120" data-name="Trazado 160120" d="M632,425.375c-5.052-27.664-24.974-72.637-32.62-93.986-7.634-21.316-19.012-41.752-34.149-58.663-7.39-8.257-14.446-15.153-25.336-18.073-1.306-.35-19.674-2.854-19.676-2.862l8.362,44.264s65.733,90.578,77.593,136.64Z" transform="translate(7.946 3.846)" fill="#fda69d"/>
            <path id="Trazado_160121" data-name="Trazado 160121" d="M516.245,247.953s13.812,2.626,20.982,6.154c0,0-3.361,40.052,16.054,75.063l9.442,50.4L439.865,376.7S451,276.122,467.238,250.022c0,0,17.505-4.456,27.691-3.819s21.317,1.75,21.317,1.75" transform="translate(6.718 3.759)" fill="#0a4dc8"/>
            <path id="Trazado_160122" data-name="Trazado 160122" d="M446.727,172.837c-3.891,9.678,21.162,28.861,55.958,42.849s66.154,17.482,70.045,7.8-21.162-28.861-55.958-42.849-66.154-17.482-70.045-7.8" transform="translate(6.817 2.556)"/>
            <path id="Trazado_160123" data-name="Trazado 160123" d="M524.551,202.118v-4.835s-25.7.623-33.676-16.564a16.2,16.2,0,0,1-13.534,7.159s2.434-33.258,32.959-30.394,32.435,28.446,30.207,48.279,13.049,27.155,6.684,45.615l-38.4-9.507Z" transform="translate(7.291 2.403)" fill="#8e6339"/>
            <path id="Trazado_160124" data-name="Trazado 160124" d="M496.732,187.318l2.055-5.76-19.429-3.327c-5.9,24.533-14.27,35.3-14.879,59.874l33.273,2.964Z" transform="translate(7.094 2.722)" fill="#8e6339"/>
            <path id="Trazado_160125" data-name="Trazado 160125" d="M478.849,183.49s-10.134,25.042-3.108,41.477,31.99,14.633,41.127,5.8l4.07-4.384,4.88-36.633L489.75,177.44Z" transform="translate(7.228 2.71)" fill="#fda69d"/>
            <path id="Trazado_160126" data-name="Trazado 160126" d="M520.215,202.225s8.926-3.335,11.421,3.406-8.357,16.039-13.345,11.039Z" transform="translate(7.916 3.076)" fill="#fda69d"/>
            <path id="Trazado_160127" data-name="Trazado 160127" d="M492.638,202.406a22.153,22.153,0,0,0-1.441,2.843c-.19.468-.645,1.342-.494,1.868.309,1.082,2.7,1.34,3.624,1.607" transform="translate(7.494 3.091)" fill="none" stroke="#000" stroke-miterlimit="10" stroke-width="0.75"/>
            <path id="Trazado_160128" data-name="Trazado 160128" d="M488.577,213.2a4.585,4.585,0,0,0,6.2.826" transform="translate(7.462 3.256)" fill="none" stroke="#000" stroke-miterlimit="10" stroke-width="0.75"/>
            <path id="Trazado_160129" data-name="Trazado 160129" d="M483.474,203.253A2.18,2.18,0,1,1,481.6,200.8a2.181,2.181,0,0,1,1.873,2.449" transform="translate(7.318 3.067)"/>
            <path id="Trazado_160130" data-name="Trazado 160130" d="M508.366,206.569a2.18,2.18,0,1,1-1.873-2.449,2.18,2.18,0,0,1,1.873,2.449" transform="translate(7.698 3.117)"/>
            <path id="Trazado_160131" data-name="Trazado 160131" d="M527.414,206.071A14.734,14.734,0,0,0,524,211.61" transform="translate(8.003 3.147)" fill="none" stroke="#000" stroke-miterlimit="10" stroke-width="0.75"/>
            <path id="Trazado_160132" data-name="Trazado 160132" d="M523.841,205.6a8.3,8.3,0,0,1,1.47,3.241" transform="translate(8.001 3.14)" fill="none" stroke="#000" stroke-miterlimit="10" stroke-width="0.75"/>
            <path id="Trazado_160133" data-name="Trazado 160133" d="M513.59,201.4a14.517,14.517,0,0,0-11.654-1.359l-.036-.068c3.627-2.1,8.926-1.653,11.69,1.427" transform="translate(7.666 3.035)"/>
            <path id="Trazado_160134" data-name="Trazado 160134" d="M486.513,197.759a12.539,12.539,0,0,0-6.646-1.386,22.134,22.134,0,0,1-2.416.266c2.792-1.636,7-1.292,9.062,1.12" transform="translate(7.292 2.988)"/>
            <path id="Trazado_160135" data-name="Trazado 160135" d="M517.415,218.366a7.562,7.562,0,1,1-6.5-8.495,7.562,7.562,0,0,1,6.5,8.495" transform="translate(7.673 3.204)" fill="#fd8072"/>
            <path id="Trazado_160136" data-name="Trazado 160136" d="M473.548,205.047a46.016,46.016,0,0,0,.748,15.1,7.559,7.559,0,0,0,.685-15.045,7.654,7.654,0,0,0-1.434-.051" transform="translate(7.228 3.132)" fill="#fd8072"/>
            <path id="Trazado_160137" data-name="Trazado 160137" d="M485.793,252.4l1.592-25.144,33.363-1.616L517.736,252.4s-15.143,9.774-20.922,15.716Z" transform="translate(7.42 3.446)" fill="#fda69d"/>
            <path id="Trazado_160138" data-name="Trazado 160138" d="M510.3,157.484c30.525,2.865,32.435,28.445,30.207,48.279l-10.291-2.322a8.279,8.279,0,0,0-5.809-1.31l-.253-.058.4-4.79s-25.7.622-33.676-16.565a16.2,16.2,0,0,1-13.534,7.16s2.434-33.258,32.959-30.394" transform="translate(7.291 2.403)" fill="#8e6339"/>
            <path id="Trazado_160139" data-name="Trazado 160139" d="M512.349,232.988c-2.69,3.943-9.661,10.618-26.006,10.479l.553-8.738c8.235,3.15,18.535,1.971,25.453-1.74" transform="translate(7.428 3.559)"/>
            <path id="Trazado_160140" data-name="Trazado 160140" d="M546.83,204.4s-35.079-22.352-73.569-26.6c0,0,8.154-20.746,30.575-23.916,13.332-1.884,26.6,3.422,35.6,13.438,7.356,8.187,13.493,20.632,7.4,37.074" transform="translate(7.228 2.345)"/>
            <path id="Trazado_160141" data-name="Trazado 160141" d="M518.17,203.472c-1.158,7.64-6.868,13.11-12.755,12.218s-9.718-7.808-8.561-15.448Z" transform="translate(7.586 3.058)" fill="#ff7b24"/>
            <path id="Trazado_160142" data-name="Trazado 160142" d="M515.343,204.813c-.812,5.361-5.112,9.155-9.6,8.473s-7.473-5.578-6.661-10.939Z" transform="translate(7.621 3.091)"/>
            <path id="Trazado_160143" data-name="Trazado 160143" d="M491.127,199.636c-1.083,7.144-6.423,12.26-11.927,11.426s-9.088-7.3-8.005-14.447Z" transform="translate(7.194 3.003)" fill="#ff7b24"/>
            <path id="Trazado_160144" data-name="Trazado 160144" d="M488.483,200.892c-.759,5.013-4.78,8.561-8.98,7.924s-6.989-5.217-6.23-10.23Z" transform="translate(7.227 3.033)"/>
            <path id="Trazado_160145" data-name="Trazado 160145" d="M489.422,199.639l9.5,1.172-.638,2.08-10.032-1.227Z" transform="translate(7.457 3.049)" fill="#ff7b24"/>
            <path id="Trazado_160146" data-name="Trazado 160146" d="M515.885,203.329l9.074-3.044.324,2.151-9.58,3.224Z" transform="translate(7.877 3.059)" fill="#ff7b24"/>
            <path id="Trazado_160147" data-name="Trazado 160147" d="M524.3,249.963a51.244,51.244,0,0,1,11.615,2.952s1.487,96.566,12.546,133.063l-12.081,2.971C523.341,335.9,524.3,249.963,524.3,249.963" transform="translate(8.008 3.818)"/>
            <path id="Trazado_160148" data-name="Trazado 160148" d="M605.949,430.763l4.81-1.363.481,1.363s-21.007,6.781-36.8,7.735-23.672-3.5-28.765-15.6-10.584-40.742-10.584-40.742l47.431-3.815c10.655,19.074,19.7,37.944,23.429,52.418" transform="translate(8.173 5.779)"/>
            <path id="Trazado_160149" data-name="Trazado 160149" d="M547.567,382.1c.541,4.045,1.261,8.075,2.165,12.055,1.144,5.04,2.017,11.857,7.15,14.545,5.378,2.816,12.332,2.012,17.971.5,6.9-1.847,13.853-3.451,20.833-5.059" transform="translate(8.363 5.836)" fill="none" stroke="#fff" stroke-miterlimit="10" stroke-width="0.75"/>
            <path id="Trazado_160150" data-name="Trazado 160150" d="M587.657,400.691a1.658,1.658,0,1,0,.611-2.581A1.915,1.915,0,0,0,587.657,400.691Z" transform="translate(8.972 6.079)" fill="none" stroke="#fff" stroke-miterlimit="10" stroke-width="0.75"/>
            <path id="Trazado_160151" data-name="Trazado 160151" d="M496.771,267.481s-7.973,69.952-8.194,110.047" transform="translate(7.462 4.085)" fill="none" stroke="#000" stroke-miterlimit="10" stroke-width="0.75"/>
            <path id="Trazado_160152" data-name="Trazado 160152" d="M497.518,276.435a1.735,1.735,0,1,0,1.735-1.735,1.735,1.735,0,0,0-1.735,1.735" transform="translate(7.599 4.196)"/>
            <path id="Trazado_160153" data-name="Trazado 160153" d="M495.81,294.213a1.735,1.735,0,1,0,1.734-1.735,1.734,1.734,0,0,0-1.734,1.735" transform="translate(7.573 4.467)"/>
            <path id="Trazado_160154" data-name="Trazado 160154" d="M494.1,315.543a1.735,1.735,0,1,0,1.735-1.735,1.735,1.735,0,0,0-1.735,1.735" transform="translate(7.547 4.793)"/>
            <path id="Trazado_160155" data-name="Trazado 160155" d="M493.231,335.284a1.735,1.735,0,1,0,1.735-1.735,1.735,1.735,0,0,0-1.735,1.735" transform="translate(7.533 5.094)"/>
            <path id="Trazado_160156" data-name="Trazado 160156" d="M492.392,356.745a1.735,1.735,0,1,0,1.735-1.735,1.735,1.735,0,0,0-1.735,1.735" transform="translate(7.521 5.422)"/>
            <path id="Trazado_160157" data-name="Trazado 160157" d="M486.543,246.562a30.827,30.827,0,0,0-13.281,9.624s22.021,6.48,23.743,11.615" transform="translate(7.228 3.766)" fill="none" stroke="#000" stroke-miterlimit="10" stroke-width="0.75"/>
            <path id="Trazado_160158" data-name="Trazado 160158" d="M517.975,248.453s7.487,5,9.4,11.8c0,0-24.09,1.839-30.722,7.52" transform="translate(7.586 3.795)" fill="none" stroke="#000" stroke-miterlimit="10" stroke-width="0.75"/>
            <path id="Trazado_160159" data-name="Trazado 160159" d="M484.1,162.839a209.45,209.45,0,0,1,36.325,11.125,220.258,220.258,0,0,1,28.648,13.883,33.647,33.647,0,0,1-.323,9.043,212.963,212.963,0,0,0-32.465-16.179,206.458,206.458,0,0,0-38.1-11.486,43.424,43.424,0,0,1,5.918-6.386" transform="translate(7.304 2.487)" fill="#ff7b24"/>
            <path id="Trazado_160160" data-name="Trazado 160160" d="M301.641,408.1H193.117l4.3-80.229-42.622-19.7c22.564-64.47,73.471-61.959,73.471-61.959l25.675,2.862s49.548-1.075,61.367,52.65l1.791,8.954-25.932,3.223Z" transform="translate(2.364 3.76)" fill="#0a4dc8"/>
            <path id="Trazado_160161" data-name="Trazado 160161" d="M232.954,162.3a2.312,2.312,0,0,0,.962-.82c3.454-5.372,10.513-5.8,16.264-5.66a38.141,38.141,0,0,1,16,3.634,14.3,14.3,0,0,1,5.926,5.36c1.324,2.245.9,5.473,3.159,7.052,2.111,1.48,5.617,2,8.045,2.907,2.65.993,8.314,2.7,6.746,6.617-2.865,7.164-33.549,12.178-33.549,12.178l-26.481,41.653c-1.269,2-8.3-1.632-9.647-2.67-14.24-11.013-11.569-42.149-5.725-56.836a21.861,21.861,0,0,1,7.243-9.9,17.3,17.3,0,0,1,5.7-2.65c1.477-.388,3.874-.14,5.364-.867" transform="translate(3.206 2.38)"/>
            <path id="Trazado_160162" data-name="Trazado 160162" d="M227.159,211.659v38.728s11.235,9.309,25.674.713V227.671Z" transform="translate(3.47 3.233)" fill="#e95628"/>
            <path id="Trazado_160163" data-name="Trazado 160163" d="M229.721,224.97s4.119,15.878,23.074,20.672V227.511l-10.61-5.353Z" transform="translate(3.509 3.393)"/>
            <path id="Trazado_160164" data-name="Trazado 160164" d="M281.54,183.926s7.584,29.438-2.7,46.727-37.857,11.569-46.735.354l-3.89-5.495V183.926l7.831-11.737,24.125,1.752Z" transform="translate(3.486 2.63)" fill="#e95628"/>
            <path id="Trazado_160165" data-name="Trazado 160165" d="M231.95,198.605s-9.461-5.046-13.245,2.1,6.938,19.132,13.245,14.3Z" transform="translate(3.328 3.007)" fill="#e95628"/>
            <path id="Trazado_160166" data-name="Trazado 160166" d="M262.515,202.893a25.03,25.03,0,0,1,1.185,3.385c.142.55.52,1.593.274,2.157-.506,1.16-3.21,1.094-4.28,1.254" transform="translate(3.966 3.099)" fill="none" stroke="#000" stroke-miterlimit="10" stroke-width="0.75"/>
            <path id="Trazado_160167" data-name="Trazado 160167" d="M265.471,215.533a5.16,5.16,0,0,1-7.04,0" transform="translate(3.947 3.292)" fill="none" stroke="#000" stroke-miterlimit="10" stroke-width="0.75"/>
            <path id="Trazado_160168" data-name="Trazado 160168" d="M272.613,205.2a2.453,2.453,0,1,0,2.453-2.453,2.453,2.453,0,0,0-2.453,2.453" transform="translate(4.164 3.097)"/>
            <path id="Trazado_160169" data-name="Trazado 160169" d="M244.355,205.2a2.453,2.453,0,1,0,2.453-2.453,2.453,2.453,0,0,0-2.453,2.453" transform="translate(3.732 3.097)"/>
            <path id="Trazado_160170" data-name="Trazado 160170" d="M223.161,201.817a16.59,16.59,0,0,1,2.985,6.686" transform="translate(3.408 3.082)" fill="none" stroke="#000" stroke-miterlimit="10" stroke-width="0.75"/>
            <path id="Trazado_160171" data-name="Trazado 160171" d="M227.191,201.817a9.325,9.325,0,0,0-2.121,3.4" transform="translate(3.438 3.082)" fill="none" stroke="#000" stroke-miterlimit="10" stroke-width="0.75"/>
            <path id="Trazado_160172" data-name="Trazado 160172" d="M239.372,198.61c3.4-3.7,9.953-3.534,13.3.213l-.045.062c-.5-.3-.987-.644-1.51-.912-3.672-2.087-8.375-1.5-11.744.637" transform="translate(3.656 2.992)"/>
            <path id="Trazado_160173" data-name="Trazado 160173" d="M270.07,198.57a6.915,6.915,0,0,1,10.321.165l-.044.062a9.141,9.141,0,0,0-10.278-.227" transform="translate(4.125 2.999)"/>
            <path id="Trazado_160174" data-name="Trazado 160174" d="M232.7,217.027a8.51,8.51,0,1,0,8.51-8.51,8.51,8.51,0,0,0-8.51,8.51" transform="translate(3.554 3.185)" fill="#ff8878"/>
            <path id="Trazado_160175" data-name="Trazado 160175" d="M283.5,208.673A51.753,51.753,0,0,1,280.42,225.4a8.5,8.5,0,1,1,3.077-16.727" transform="translate(4.175 3.185)" fill="#ff8878"/>
            <path id="Trazado_160176" data-name="Trazado 160176" d="M222.162,173.383c3-6.082,10.54-10.457,16.725-7.669-2.01-.907,6.048-6.765,6.728-7.046.092-.04-4.393.011-7.413.029a4.132,4.132,0,0,0-.108-1.214c24.53-10.451,60.765,3.034,62.172,25.739.323,5.208-1.257,10.909-5.507,13.938-4.952,3.528-11.861,2.4-17.412-.081a42.855,42.855,0,0,1-12.22-8.242c-6-5.774-13.939-16.452-23.717-13-8.2,2.895-10.652,7.635-13.063,21.808-2.265-.333-3.3-1.02-5.564-1.353a2.544,2.544,0,0,1-2.661-2.927c-.61-6.757-.967-13.9,2.038-19.981" transform="translate(3.356 2.35)"/>
            <path id="Trazado_160177" data-name="Trazado 160177" d="M156.692,308.03s-21.305,37.645-9.844,61.524,45.845,21.489,76.886-4.537c0,0,23.161-21.967,32.713-33.668l-17.67-8.358s-33.238,14.111-41.81,15.533l.621-11.592Z" transform="translate(2.191 4.705)" fill="#e95628"/>
            <line id="Línea_566" data-name="Línea 566" y1="35.948" x2="2.987" transform="translate(199.158 307.28)" fill="none" stroke="#000" stroke-miterlimit="10" stroke-width="0.75"/>
            <line id="Línea_567" data-name="Línea 567" x1="2.061" y1="14.685" transform="translate(291.469 302.982)" fill="none" stroke="#000" stroke-miterlimit="10" stroke-width="0.75"/>
            <path id="Trazado_160178" data-name="Trazado 160178" d="M314.146,309.824s4.6,25.647,5.067,30.387c4.03,40.911,2.549,49.56,1.644,62.624H299.111l-10-89.9Z" transform="translate(4.416 4.732)" fill="#e95628"/>
            <path id="Trazado_160179" data-name="Trazado 160179" d="M240.608,290.352l19.834-7.107a2.152,2.152,0,0,1,2.752,1.3l14.035,39.172a2.151,2.151,0,0,1-1.3,2.751L256.1,333.576a2.151,2.151,0,0,1-2.751-1.3L239.309,293.1a2.151,2.151,0,0,1,1.3-2.751" transform="translate(3.653 4.324)"/>
            <path id="Trazado_160180" data-name="Trazado 160180" d="M234.393,321.8c3.5-3.169,5.1-18.59,8.87-21.549s1.7,12.646,1.7,12.646q1.15-1.46,2.319-2.9,2.481-3.076,5.03-6.1c1.564-1.841,3.151-3.66,4.855-5.373a2.464,2.464,0,0,1,2.273-.724c1.021.159,2.616.792,2.989,1.866a2.1,2.1,0,0,1-.539,1.865s1.809-1.086,3.168,1.2-.351,3.33-.351,3.33a2.672,2.672,0,0,1,2.856,1.464c1.04,1.84.781,3.5-.961,4.412.335-.176,1.327.365,1.569.553,1.359,1.067.55,3.148-.03,4.407a19.511,19.511,0,0,1-3.51,4.8c-3.065,3.354-34.237,37.589-40.543,41.185l-4.056-32.547s10.862-5.364,14.36-8.532" transform="translate(3.361 4.548)" fill="#e95628"/>
            <path id="Trazado_160181" data-name="Trazado 160181" d="M251.461,311.907l9.952-10.385a1.777,1.777,0,0,0-.243-2.841" transform="translate(3.841 4.562)" fill="none" stroke="#000" stroke-miterlimit="10" stroke-width="0.75"/>
            <path id="Trazado_160182" data-name="Trazado 160182" d="M254.519,314.991l9.663-9.01s1.63-1.539.56-2.938" transform="translate(3.887 4.628)" fill="none" stroke="#000" stroke-miterlimit="10" stroke-width="0.75"/>
            <path id="Trazado_160183" data-name="Trazado 160183" d="M258.892,318.864l7.118-7.1s1.644-1.28,1.612-2.512" transform="translate(3.954 4.723)" fill="none" stroke="#000" stroke-miterlimit="10" stroke-width="0.75"/>
            <path id="Trazado_160184" data-name="Trazado 160184" d="M267.551,312.27s1.485.886-.03,4.407-6.836,8.6-6.836,8.6" transform="translate(3.982 4.769)" fill="none" stroke="#000" stroke-miterlimit="10" stroke-width="0.75"/>
            <path id="Trazado_160185" data-name="Trazado 160185" d="M258.563,249.433s-3.376,9.018-17.156,9.018-20.509-7.564-21.374-11.777" transform="translate(3.361 3.768)" fill="none" stroke="#000" stroke-miterlimit="10" stroke-width="0.75"/>
            <path id="Trazado_160186" data-name="Trazado 160186" d="M322.248,106.925l3.669-49.775s-.272-6.165,2.186-7.207,1.742-.878,1.742-.878l13.487,52.344Z" transform="translate(4.922 0.749)" fill="#fff"/>
            <path id="Trazado_160187" data-name="Trazado 160187" d="M363,89.521l2.21-11.007s.376-4.008,2.13-5.079,5.035-2.526,5.035-2.526l2.083,15.951Z" transform="translate(5.544 1.083)" fill="#fff"/>
            <path id="Trazado_160188" data-name="Trazado 160188" d="M325.1,82.1a36.452,36.452,0,0,0-5.771.7c-1.3.46.664,10.265,1.466,10.721s5.685-1.229,5.685-1.229Z" transform="translate(4.871 1.254)" fill="#fff"/>
            <path id="Trazado_160189" data-name="Trazado 160189" d="M297.9,128.762a2.275,2.275,0,0,1-1.306-2.6c.706-3.022,3.264-9.318,12.537-13.971,12.638-6.341,33.4-16.332,45.191-20.671s23.976-8.02,25.3-5.389-8.916,10.2-19.44,17.06-30.946,17.533-43.584,23.874c-9.272,4.653-15.848,2.942-18.694,1.7" transform="translate(4.529 1.302)" fill="#fff"/>
            <path id="Trazado_160190" data-name="Trazado 160190" d="M328.837,119.391l42.1,26.809s4.78,3.9,7.086,2.555,1.745-.871,1.745-.871l-33.9-42.1Z" transform="translate(5.022 1.616)" fill="#fff"/>
            <path id="Trazado_160191" data-name="Trazado 160191" d="M366.674,96.68l10.146,4.806s3.438,2.093,5.345,1.328,5.034-2.526,5.034-2.526l-11.542-11.2Z" transform="translate(5.6 1.361)" fill="#fff"/>
            <path id="Trazado_160192" data-name="Trazado 160192" d="M349.866,131.4a36.512,36.512,0,0,1-4.009,4.208c-1.144.764-7.834-6.668-7.721-7.584s4.384-3.824,4.384-3.824Z" transform="translate(5.164 1.897)" fill="#fff"/>
            <path id="Trazado_160193" data-name="Trazado 160193" d="M302.236,122.309a4.027,4.027,0,0,0,1.686,3.362,18.606,18.606,0,0,0,3.063,1.644,14.711,14.711,0,0,1-5.445-1.157,1.947,1.947,0,0,1-1.118-2.229,14.708,14.708,0,0,1,2.326-5.057,18.567,18.567,0,0,0-.513,3.438" transform="translate(4.588 1.816)"/>
            <path id="Trazado_160194" data-name="Trazado 160194" d="M296.591,126.064c.706-3.023,3.265-9.318,12.538-13.971,12.638-6.341,33.4-16.332,45.191-20.671" transform="translate(4.53 1.396)" fill="none" stroke="#000" stroke-miterlimit="10" stroke-width="0.75"/>
            <path id="Trazado_160195" data-name="Trazado 160195" d="M333.872,122.393l36.986,23.554s4.78,3.9,7.085,2.555" transform="translate(5.099 1.869)" fill="none" stroke="#000" stroke-miterlimit="10" stroke-width="0.75"/>
            <line id="Línea_568" data-name="Línea 568" x1="15.744" y2="7.516" transform="translate(366.778 88.701)" fill="none" stroke="#000" stroke-miterlimit="10" stroke-width="0.75"/>
            <line id="Línea_569" data-name="Línea 569" x2="10.047" y2="38.998" transform="translate(337.042 58.644)" fill="none" stroke="#000" stroke-miterlimit="10" stroke-width="0.75"/>
            <line id="Línea_570" data-name="Línea 570" y1="27.576" x2="2.08" transform="translate(327.782 71.156)" fill="none" stroke="#000" stroke-miterlimit="10" stroke-width="0.75"/>
            <path id="Trazado_160196" data-name="Trazado 160196" d="M103.363,178.734l-15.412-25.1a2.524,2.524,0,0,1-3.47-.829L25.114,189.263a2.523,2.523,0,0,1-.83,3.47L39.7,217.83a2.523,2.523,0,0,1,3.47.83L102.533,182.2a2.523,2.523,0,0,1,.829-3.47" transform="translate(0.371 2.334)" fill="#c5f4eb"/>
            <path id="Trazado_160197" data-name="Trazado 160197" d="M83.713,152.807,74.6,158.4,92.65,187.8l9.116-5.6a2.522,2.522,0,0,1,.829-3.47l-15.412-25.1a2.524,2.524,0,0,1-3.47-.829" transform="translate(1.139 2.334)" fill="#aae0d6"/>
            <path id="Trazado_160198" data-name="Trazado 160198" d="M75.878,160.4a.307.307,0,0,1-.423-.1l-.806-1.312a.308.308,0,0,1,.525-.322l.806,1.312a.307.307,0,0,1-.1.423" transform="translate(1.139 2.421)"/>
            <path id="Trazado_160199" data-name="Trazado 160199" d="M89.9,183.23a.308.308,0,0,1-.423-.1l-1.756-2.861a.308.308,0,0,1,.525-.322L90,182.807a.307.307,0,0,1-.1.423m-3.514-5.722a.307.307,0,0,1-.423-.1L84.2,174.545a.308.308,0,0,1,.525-.323l1.757,2.862a.308.308,0,0,1-.1.423m-3.514-5.723a.307.307,0,0,1-.423-.1l-1.757-2.86a.308.308,0,1,1,.525-.323l1.757,2.861a.308.308,0,0,1-.1.423m-3.514-5.722a.307.307,0,0,1-.423-.1L77.173,163.1a.308.308,0,1,1,.525-.322l1.757,2.861a.308.308,0,0,1-.1.423" transform="translate(1.178 2.484)"/>
            <path id="Trazado_160200" data-name="Trazado 160200" d="M92.247,187.059a.307.307,0,0,1-.423-.1l-.806-1.312a.308.308,0,0,1,.525-.323l.806,1.313a.307.307,0,0,1-.1.423" transform="translate(1.389 2.828)"/>
            <path id="Trazado_160201" data-name="Trazado 160201" d="M33.4,192.743l-.847.52-.279-.454,2.246-1.38.279.455-.856.526,1.546,2.519-.542.333Z" transform="translate(0.493 2.924)"/>
            <rect id="Rectángulo_42435" data-name="Rectángulo 42435" width="0.637" height="3.49" transform="translate(36.862 193.22) rotate(-31.558)"/>
            <path id="Trazado_160202" data-name="Trazado 160202" d="M42.827,190.3a2.2,2.2,0,0,1-.686.6,1.647,1.647,0,0,1-2.437-.564,1.755,1.755,0,0,1,.624-2.545,2.008,2.008,0,0,1,.8-.313l.147.506a1.691,1.691,0,0,0-.653.244,1.161,1.161,0,0,0-.37,1.733,1.146,1.146,0,0,0,1.7.436,1.771,1.771,0,0,0,.523-.473Z" transform="translate(0.602 2.863)"/>
            <path id="Trazado_160203" data-name="Trazado 160203" d="M42.961,186.247l.538-.331.841,1.369.013-.008c0-.158.009-.311.018-.455l.134-1.523.671-.412-.247,1.895,2.139,1.039-.636.391-1.68-.847-.07.48.643,1.046-.538.331Z" transform="translate(0.656 2.824)"/>
            <path id="Trazado_160204" data-name="Trazado 160204" d="M49.644,184.417l-1.121.688.536.873,1.254-.77.273.447-1.8,1.1-1.826-2.974,1.729-1.062.274.446-1.187.728.471.768,1.121-.688Z" transform="translate(0.717 2.791)"/>
            <path id="Trazado_160205" data-name="Trazado 160205" d="M51.574,181.585l-.847.52-.279-.454,2.245-1.38.279.455-.856.526,1.547,2.519-.542.333Z" transform="translate(0.771 2.753)"/>
            <path id="Trazado_160206" data-name="Trazado 160206" d="M93.614,178.7l.576.937-.338.208-1.4-2.282.338-.207.579.942,2.742-1.684.248.4Z" transform="translate(1.412 2.697)"/>
            <rect id="Rectángulo_42436" data-name="Rectángulo 42436" width="3.616" height="0.467" transform="translate(92.455 177.966) rotate(-31.557)"/>
            <path id="Trazado_160207" data-name="Trazado 160207" d="M91.382,169.152a2.306,2.306,0,0,1,.646.724,1.69,1.69,0,0,1-.623,2.48,1.8,1.8,0,0,1-2.607-.616,1.943,1.943,0,0,1-.312-.815l.384-.1a1.694,1.694,0,0,0,.254.7,1.345,1.345,0,0,0,2.009.422A1.315,1.315,0,0,0,91.644,170a1.867,1.867,0,0,0-.527-.571Z" transform="translate(1.351 2.584)"/>
            <path id="Trazado_160208" data-name="Trazado 160208" d="M87.182,169l-.245-.4,1.486-.913-.009-.013c-.169-.009-.329-.024-.477-.04L86.2,167.4l-.3-.493,1.993.313,1.036-2.291.288.471-.889,1.943.518.085,1.175-.722.245.4Z" transform="translate(1.312 2.519)"/>
            <path id="Trazado_160209" data-name="Trazado 160209" d="M85.4,162.421l.735,1.2,1.111-.682-.819-1.335.334-.205,1.064,1.733-3.081,1.891-1.021-1.664.333-.205.778,1.267.974-.6-.735-1.2Z" transform="translate(1.279 2.465)"/>
            <path id="Trazado_160210" data-name="Trazado 160210" d="M82.379,160.4l.576.937-.338.208-1.4-2.282.338-.207.579.942,2.742-1.684.248.4Z" transform="translate(1.24 2.418)"/>
            <rect id="Rectángulo_42437" data-name="Rectángulo 42437" width="48.661" height="0.614" transform="matrix(0.852, -0.523, 0.523, 0.852, 36.374, 201.681)"/>
            <rect id="Rectángulo_42438" data-name="Rectángulo 42438" width="31.305" height="1.303" transform="matrix(0.852, -0.523, 0.523, 0.852, 38.93, 205.842)"/>
            <rect id="Rectángulo_42439" data-name="Rectángulo 42439" width="31.305" height="1.303" transform="matrix(0.852, -0.523, 0.523, 0.852, 41.155, 209.467)"/>
            <rect id="Rectángulo_42440" data-name="Rectángulo 42440" width="47.583" height="1.303" transform="matrix(0.852, -0.523, 0.523, 0.852, 43.412, 213.141)"/>
            <path id="Trazado_160211" data-name="Trazado 160211" d="M60.489,178.271l3.288,1.559.156-.652-3.1-2.355q.132-.557.267-1.116c.176-.737.614-1.713.1-2.374a.4.4,0,0,0-.5-.12c-.756.357-.807,1.426-.983,2.164q-.134.557-.267,1.116l-3.83.7-.155.652,3.639.1c-.006.026-.013.053-.019.079l-.261,2.416-.914.2-.119.5,1.147.03.016.068-.129.539a.089.089,0,0,0,.173.041l.129-.538.046-.054,1.038.491.119-.5-.724-.592.86-2.273c.006-.027.013-.054.019-.08" transform="translate(0.847 2.645)"/>
            <path id="Trazado_160212" data-name="Trazado 160212" d="M84.482,152.807,25.114,189.263a2.522,2.522,0,0,1-.829,3.47" transform="translate(0.371 2.334)" fill="none" stroke="#000" stroke-miterlimit="10" stroke-width="0.75"/>
            <path id="Trazado_160213" data-name="Trazado 160213" d="M631.048,185.837l-35.573,13.68a2.474,2.474,0,0,0-1.421,3.2l19.731,51.308a2.473,2.473,0,0,0,3.2,1.42l35.573-13.679a4.673,4.673,0,0,0,2.684-6.039l-18.152-47.2a4.672,4.672,0,0,0-6.038-2.684" transform="translate(9.071 2.834)" fill="#753335"/>
            <path id="Trazado_160214" data-name="Trazado 160214" d="M602.231,196.747l-6.756,2.6a2.474,2.474,0,0,0-1.421,3.2l19.731,51.308a2.473,2.473,0,0,0,3.2,1.42l6.756-2.6Z" transform="translate(9.071 3.005)" fill="#d98662"/>
            <path id="Trazado_160215" data-name="Trazado 160215" d="M630.969,204.118a10.189,10.189,0,0,0-1-.589,10.363,10.363,0,0,0-7.937-.673,2.137,2.137,0,0,0-.343.09,2.321,2.321,0,0,0-.324.146,10.361,10.361,0,0,0-5.709,5.557,10.793,10.793,0,0,0-.4,1.088,10.362,10.362,0,0,0,4.168,11.643,10.023,10.023,0,0,0,1,.59,10.354,10.354,0,0,0,7.936.672,2.11,2.11,0,0,0,.343-.09,2.628,2.628,0,0,0,.322-.146,10.358,10.358,0,0,0,5.711-5.557,10.868,10.868,0,0,0,.4-1.088,10.365,10.365,0,0,0-4.166-11.643m2.725,4.98-4.449,1.59a22.461,22.461,0,0,0-1.854-3.784,15.793,15.793,0,0,0,2.663-1.864c.036-.029.068-.061.1-.091a9.209,9.209,0,0,1,3.537,4.149m-4.211,7a24.412,24.412,0,0,0-2.794.818,24.147,24.147,0,0,0-2.681,1.14,21.154,21.154,0,0,1-1.788-3.631l6.342-2.268a21.32,21.32,0,0,1,.921,3.94m-.961,5.28c-.069.027-.138.053-.21.078s-.143.049-.214.072c-.889.115-2.18-.8-3.447-2.522a24.245,24.245,0,0,1,4.938-1.767c.111,2.136-.3,3.661-1.067,4.138m-6.691-8.04a21.063,21.063,0,0,1-.921-3.94,23.824,23.824,0,0,0,2.794-.818,24.219,24.219,0,0,0,2.68-1.14,21.052,21.052,0,0,1,1.789,3.632Zm.038-9.221c.072-.025.143-.053.213-.078s.142-.049.214-.072c.891-.115,2.18.8,3.446,2.522a23.916,23.916,0,0,1-4.935,1.765c-.113-2.134.3-3.659,1.062-4.136m7.224.248a15.29,15.29,0,0,1-2.333,1.589,13.335,13.335,0,0,0-.854-1.075,8.292,8.292,0,0,0-1.483-1.348,9.268,9.268,0,0,1,4.67.835m-9.143.766a8.289,8.289,0,0,0-.292,1.983c-.017.439-.007.9.021,1.375a15.231,15.231,0,0,1-2.811.249,9.254,9.254,0,0,1,3.082-3.606m-3.536,4.73c.047,0,.091.006.137.007a15.842,15.842,0,0,0,3.241-.247,22.564,22.564,0,0,0,.967,4.1l-4.446,1.59a9.194,9.194,0,0,1,.1-5.452m.285,6.539,4.449-1.59A22.643,22.643,0,0,0,623,218.6a15.852,15.852,0,0,0-2.662,1.864l-.1.091A9.206,9.206,0,0,1,616.7,216.4m4.6,4.73a15.1,15.1,0,0,1,2.333-1.589c.279.386.564.747.854,1.076a8.307,8.307,0,0,0,1.483,1.348,9.286,9.286,0,0,1-4.67-.836m9.141-.766a8.356,8.356,0,0,0,.295-1.983c.016-.439.006-.9-.022-1.374a15.155,15.155,0,0,1,2.811-.25,9.264,9.264,0,0,1-3.083,3.606m3.537-4.732c-.047,0-.09,0-.137-.007a15.827,15.827,0,0,0-3.24.249,22.6,22.6,0,0,0-.969-4.1l4.447-1.59a9.186,9.186,0,0,1-.1,5.45" transform="translate(9.39 3.091)" fill="#fff"/>
            <path id="Trazado_160216" data-name="Trazado 160216" d="M621.8,230.834a1.238,1.238,0,0,1,0,1.025,1.472,1.472,0,0,1-.848.687l-.263.1.441,1.145-.933.358-1.328-3.453,1.195-.459a1.567,1.567,0,0,1,1.092-.093,1.1,1.1,0,0,1,.642.687m-1.4,1.054.171-.066a.5.5,0,0,0,.288-.247.46.46,0,0,0,0-.374q-.134-.349-.522-.2l-.242.092Z" transform="translate(9.452 3.514)" fill="#fff"/>
            <path id="Trazado_160217" data-name="Trazado 160217" d="M625.313,232.182l-.418-.582-1.123.432.074.715-1.024.394-.207-3.9,1.245-.479,2.474,3.03Zm-.907-1.272-.368-.51q-.125-.169-.314-.441t-.264-.392c.017.085.04.228.07.429s.075.6.14,1.195Z" transform="translate(9.509 3.494)" fill="#fff"/>
            <path id="Trazado_160218" data-name="Trazado 160218" d="M628.518,229.748a1.086,1.086,0,0,1,.056.634,1.143,1.143,0,0,1-.321.569,1.859,1.859,0,0,1-.667.414,3.049,3.049,0,0,1-.6.175,2.339,2.339,0,0,1-.552.018l-.32-.832a2.973,2.973,0,0,0,.638,0,2.276,2.276,0,0,0,.558-.126.549.549,0,0,0,.277-.19.234.234,0,0,0,.025-.222.222.222,0,0,0-.086-.11.484.484,0,0,0-.167-.059c-.072-.014-.253-.029-.545-.046a2.4,2.4,0,0,1-.621-.1.974.974,0,0,1-.377-.235,1.186,1.186,0,0,1-.252-.41.951.951,0,0,1,.061-.877,1.639,1.639,0,0,1,.852-.635,2.861,2.861,0,0,1,1.189-.173l-.008.83a2.21,2.21,0,0,0-.922.1.474.474,0,0,0-.241.166.207.207,0,0,0-.021.19.244.244,0,0,0,.175.141,4.3,4.3,0,0,0,.683.074,1.68,1.68,0,0,1,.786.193,1,1,0,0,1,.4.513" transform="translate(9.553 3.475)" fill="#fff"/>
            <path id="Trazado_160219" data-name="Trazado 160219" d="M631.268,228.69a1.084,1.084,0,0,1,.056.634,1.135,1.135,0,0,1-.321.568,1.846,1.846,0,0,1-.667.415,3.035,3.035,0,0,1-.6.174,2.236,2.236,0,0,1-.552.018l-.32-.831a3.042,3.042,0,0,0,.638,0,2.227,2.227,0,0,0,.558-.127.543.543,0,0,0,.277-.189.236.236,0,0,0,.025-.223.22.22,0,0,0-.086-.109.465.465,0,0,0-.167-.059c-.072-.014-.253-.029-.545-.046a2.394,2.394,0,0,1-.621-.1.973.973,0,0,1-.377-.235,1.183,1.183,0,0,1-.252-.41.953.953,0,0,1,.061-.878,1.644,1.644,0,0,1,.852-.634,2.862,2.862,0,0,1,1.189-.173l-.008.83a2.211,2.211,0,0,0-.922.1.473.473,0,0,0-.241.166.206.206,0,0,0-.021.19.246.246,0,0,0,.175.141,4.3,4.3,0,0,0,.683.074,1.681,1.681,0,0,1,.786.193,1,1,0,0,1,.4.513" transform="translate(9.595 3.459)" fill="#fff"/>
            <path id="Trazado_160220" data-name="Trazado 160220" d="M633.767,226.231a1.242,1.242,0,0,1,0,1.025,1.471,1.471,0,0,1-.848.687l-.263.1.441,1.145-.933.359-1.328-3.454,1.2-.459a1.566,1.566,0,0,1,1.092-.093,1.1,1.1,0,0,1,.641.687m-1.4,1.054.171-.065a.5.5,0,0,0,.288-.248.459.459,0,0,0,0-.374q-.134-.349-.522-.2l-.242.092Z" transform="translate(9.635 3.444)" fill="#fff"/>
            <path id="Trazado_160221" data-name="Trazado 160221" d="M637.737,225.421a2,2,0,0,1,.081,1.489,2.081,2.081,0,0,1-2.5.958,2.4,2.4,0,0,1-1.019-2.644,2.1,2.1,0,0,1,2.5-.966,2,2,0,0,1,.935,1.161m-2.377.914q.385,1,1.082.733a.641.641,0,0,0,.432-.445,1.428,1.428,0,0,0-.12-.824,1.45,1.45,0,0,0-.468-.7.635.635,0,0,0-.613-.047q-.7.27-.313,1.28" transform="translate(9.686 3.423)" fill="#fff"/>
            <path id="Trazado_160222" data-name="Trazado 160222" d="M639.424,225.316l.483,1.257-.933.358-1.328-3.453,1.131-.436q1.409-.541,1.8.479a1.092,1.092,0,0,1-.229,1.153l1.585,1.118-1.058.407-1.215-.976Zm-.27-.7.175-.067q.489-.189.323-.62-.137-.356-.616-.173l-.185.071Z" transform="translate(9.739 3.404)" fill="#fff"/>
            <path id="Trazado_160223" data-name="Trazado 160223" d="M643.725,225.11l-.933.358-1.034-2.689-.845.324-.293-.762,2.618-1.007.293.763-.842.323Z" transform="translate(9.784 3.381)" fill="#fff"/>
            <line id="Línea_571" data-name="Línea 571" x2="17.803" y2="46.295" transform="translate(611.301 199.752)" fill="none" stroke="#000" stroke-miterlimit="10" stroke-width="0.75"/>
            <path id="Trazado_160224" data-name="Trazado 160224" d="M652.554,241.762a4.673,4.673,0,0,0,2.684-6.038l-18.152-47.2a4.673,4.673,0,0,0-6.038-2.684l-35.573,13.68a2.474,2.474,0,0,0-1.421,3.2" transform="translate(9.071 2.834)" fill="none" stroke="#000" stroke-miterlimit="10" stroke-width="0.75"/>
            <rect id="Rectángulo_42441" data-name="Rectángulo 42441" width="4.423" height="8.449" transform="translate(741.846 231.167) rotate(-73.935)" fill="#0a4dc8"/>
            <path id="Trazado_160225" data-name="Trazado 160225" d="M736.924,270.016a2.755,2.755,0,0,1-3.41,1.884l-59.038-17.007a2.755,2.755,0,0,1-1.884-3.41l9.741-33.816a2.756,2.756,0,0,1,3.41-1.885l59.038,17.008a2.753,2.753,0,0,1,1.885,3.409Z" transform="translate(10.271 3.294)" fill="#0a4dc8"/>
            <path id="Trazado_160226" data-name="Trazado 160226" d="M744.15,234.556,685.112,217.55a2.755,2.755,0,0,0-3.41,1.884l-1.782,6.185,64.334,18.533,1.782-6.185a2.757,2.757,0,0,0-1.885-3.41" transform="translate(10.385 3.321)" fill="#0a4dc8"/>
            <path id="Rectángulo_42442" data-name="Rectángulo 42442" d="M1.989,0h5.3A1.988,1.988,0,0,1,9.275,1.988v11.1a1.988,1.988,0,0,1-1.988,1.988h-5.3A1.989,1.989,0,0,1,0,13.087V1.989A1.989,1.989,0,0,1,1.989,0Z" transform="translate(736.154 237.41) rotate(-73.926)" fill="#0a4dc8"/>
            <path id="Trazado_160227" data-name="Trazado 160227" d="M744.659,232.788l-59.038-17.007a2.755,2.755,0,0,0-3.41,1.884l-1.782,6.185,64.334,18.533,1.782-6.185a2.757,2.757,0,0,0-1.885-3.41" transform="translate(10.393 3.294)" fill="#fff"/>
            <path id="Trazado_160228" data-name="Trazado 160228" d="M723.119,247.623a14.715,14.715,0,1,1-10.066-18.213,14.714,14.714,0,0,1,10.066,18.213" transform="translate(10.604 3.495)" fill="#fa6403"/>
            <path id="Trazado_160229" data-name="Trazado 160229" d="M719.971,246.677a11.159,11.159,0,1,1-7.634-13.812,11.159,11.159,0,0,1,7.634,13.812" transform="translate(10.662 3.55)"/>
            <path id="Trazado_160230" data-name="Trazado 160230" d="M698.117,225.287a2.467,2.467,0,0,1-2.855,1.949l-8.235-2.373a2.711,2.711,0,0,1,1.474-5.118l8.235,2.372a2.467,2.467,0,0,1,1.381,3.17" transform="translate(10.47 3.355)"/>
            <path id="Trazado_160231" data-name="Trazado 160231" d="M729.218,233.455a2.8,2.8,0,1,1-1.86-3.639,2.892,2.892,0,0,1,1.86,3.639" transform="translate(11.054 3.509)" fill="#fa6403"/>
            <path id="Trazado_160232" data-name="Trazado 160232" d="M672.862,250.018l-.271.941a2.755,2.755,0,0,0,1.885,3.41l59.038,17.007a2.754,2.754,0,0,0,3.409-1.885l.271-.94Z" transform="translate(10.271 3.819)" fill="#fff"/>
            <path id="Trazado_160233" data-name="Trazado 160233" d="M746.545,236.2a2.755,2.755,0,0,0-1.885-3.41l-59.038-17.007a2.754,2.754,0,0,0-3.409,1.884l-1.782,6.186" transform="translate(10.393 3.294)" fill="none" stroke="#000" stroke-miterlimit="10" stroke-width="0.75"/>
            <path id="Trazado_160234" data-name="Trazado 160234" d="M672.856,250.069,737.189,268.6l6.33-21.975" transform="translate(10.277 3.767)" fill="none" stroke="#000" stroke-miterlimit="10" stroke-width="0.75"/>
            <path id="Trazado_160235" data-name="Trazado 160235" d="M694.831,239.476a14.714,14.714,0,0,1,18.213-10.066" transform="translate(10.612 3.495)" fill="none" stroke="#000" stroke-miterlimit="10" stroke-width="0.75"/>
            <path id="Trazado_160236" data-name="Trazado 160236" d="M727.058,226.993a2.018,2.018,0,0,1,2.5-1.381l10.607,3.055" transform="translate(11.105 3.445)" fill="none" stroke="#000" stroke-miterlimit="10" stroke-width="0.75"/>
            <path id="Trazado_160237" data-name="Trazado 160237" d="M60.468,281.16a2.062,2.062,0,0,0,2.644,1.342l3.562-1.3a2.186,2.186,0,0,0,1.257-2.764l-.28-.828a2.063,2.063,0,0,0-2.644-1.343l-3.562,1.3a2.186,2.186,0,0,0-1.256,2.766Z" transform="translate(0.917 4.218)" fill="#062e78"/>
            <path id="Trazado_160238" data-name="Trazado 160238" d="M51.331,307.79c3.883,11.5,15.882,17.594,26.8,13.612s16.616-16.533,12.735-28.03-15.882-17.592-26.8-13.612-16.616,16.53-12.734,28.03" transform="translate(0.765 4.254)" fill="#0a4dc8"/>
            <path id="Trazado_160239" data-name="Trazado 160239" d="M54.492,306.566c3.253,9.628,13.3,14.732,22.446,11.4S90.854,304.121,87.6,294.489s-13.3-14.733-22.445-11.4-13.919,13.841-10.665,23.474" transform="translate(0.817 4.308)" fill="#fff"/>
            <path id="Trazado_160240" data-name="Trazado 160240" d="M67.5,298.887l3.069,1.558,3.072,1.56,3.248-15.47Z" transform="translate(1.031 4.376)" fill="#d63b30"/>
            <path id="Trazado_160241" data-name="Trazado 160241" d="M70.621,300.26,67.552,298.7,64.3,314.17l9.389-12.351Z" transform="translate(0.982 4.562)" fill="#e8f7f2"/>
            <path id="Trazado_160242" data-name="Trazado 160242" d="M66.431,268.074a5.921,5.921,0,1,0-1.406,8.255A5.921,5.921,0,0,0,66.431,268.074Z" transform="translate(0.85 4.056)" fill="none" stroke="#000" stroke-miterlimit="10" stroke-width="0.75"/>
            <path id="Trazado_160243" data-name="Trazado 160243" d="M54.492,306.566c3.253,9.628,13.3,14.732,22.446,11.4S90.854,304.121,87.6,294.489s-13.3-14.733-22.445-11.4S51.238,296.933,54.492,306.566Z" transform="translate(0.817 4.308)" fill="none" stroke="#000" stroke-miterlimit="10" stroke-width="0.75"/>
            <line id="Línea_572" data-name="Línea 572" x1="9.389" y2="12.351" transform="translate(68.534 290.912)" fill="none" stroke="#000" stroke-miterlimit="10" stroke-width="0.75"/>
            <path id="Trazado_160244" data-name="Trazado 160244" d="M64.3,314.169l9.389-12.35-3.072-1.56L67.552,298.7" transform="translate(0.982 4.562)" fill="none" stroke="#000" stroke-miterlimit="10" stroke-width="0.75"/>
            <path id="Trazado_160245" data-name="Trazado 160245" d="M654.335,315.5a.983.983,0,0,1-.073-.114,2.342,2.342,0,0,1-.159-.324,3.473,3.473,0,0,1,.123-2.919,3.381,3.381,0,0,1,.67-.914,3.376,3.376,0,0,1,2.375-.983,3.34,3.34,0,0,1,1.154.2,3.349,3.349,0,0,1,1.468,1.022,2.967,2.967,0,0,1,.383.566,2.345,2.345,0,0,1,.222.483,3.078,3.078,0,0,1,.1.341c.02.081.027.129.027.129l-.109.153-.309-.19a8.89,8.89,0,0,0-.836-.449,5.614,5.614,0,0,0-.578-.244,4.347,4.347,0,0,0-.668-.173,2.959,2.959,0,0,0-.723-.032,2.421,2.421,0,0,0-.709.182,2.756,2.756,0,0,0-1.133.906,4.977,4.977,0,0,0-.643,1.149,7.193,7.193,0,0,0-.4,1.24Z" transform="translate(9.986 4.739)" fill="#fa6403"/>
            <path id="Trazado_160246" data-name="Trazado 160246" d="M626.376,325.738l-1.525.608a.945.945,0,0,0,.52,1.807l1.516-.277Z" transform="translate(9.535 4.975)" fill="#fa6403"/>
            <path id="Trazado_160247" data-name="Trazado 160247" d="M687.925,301.2l1.525-.608a.945.945,0,0,1,.866,1.669l-1.29.843Z" transform="translate(10.507 4.59)" fill="#fa6403"/>
            <path id="Trazado_160248" data-name="Trazado 160248" d="M679.573,297.563c-6.1,1.391-15.5,4.256-20.617,9.444-1.082,1.107-.116,3.391.245,4.632a20.36,20.36,0,0,0,3.126,6.81c3.417,4.373,10.18,5.6,15.418,4.67,4.914-.873,10.232-3.979,12.583-8.524,2.16-4.178,1.358-8.777-.909-12.742a9.024,9.024,0,0,0-9.846-4.291" transform="translate(10.057 4.541)" fill="#fa6403"/>
            <path id="Trazado_160249" data-name="Trazado 160249" d="M630.3,317.212c5.386-3.19,14.178-7.576,21.461-7.33,1.545.059,2.416,2.382,3.008,3.529a20.392,20.392,0,0,1,2.416,7.094c.528,5.524-3.536,11.068-7.976,14-4.167,2.747-10.163,4.151-15,2.47-4.442-1.544-7.024-5.435-8.106-9.871a9.024,9.024,0,0,1,4.194-9.888" transform="translate(9.559 4.733)" fill="#fa6403"/>
            <path id="Trazado_160250" data-name="Trazado 160250" d="M644.757,333.538a15.378,15.378,0,0,0,2.776-1.44c3.345-2.206,6.756-6.574,6.337-10.95a16.717,16.717,0,0,0-1.952-5.673c-.075-.146-.156-.313-.243-.492-.25-.52-.915-1.9-1.37-1.919a24.946,24.946,0,0,0-9.758,2.119,58.223,58.223,0,0,0-8.033,4.012,6.566,6.566,0,0,0-3.072,7.234c.547,2.245,2.084,6.225,6.223,7.664A13.327,13.327,0,0,0,644.757,333.538Z" transform="translate(9.611 4.781)"/>
            <path id="Trazado_160251" data-name="Trazado 160251" d="M680.257,319.381a15.463,15.463,0,0,1-3,.865c-3.946.7-9.426-.124-12.133-3.587a16.723,16.723,0,0,1-2.486-5.46c-.046-.158-.1-.335-.163-.525-.176-.549-.645-2.009-.326-2.335a24.95,24.95,0,0,1,8.539-5.175,58.328,58.328,0,0,1,8.59-2.614,6.565,6.565,0,0,1,7.206,3.136c1.147,2.005,2.77,5.952.756,9.844A13.33,13.33,0,0,1,680.257,319.381Z" transform="translate(10.111 4.588)"/>
            <path id="Trazado_160252" data-name="Trazado 160252" d="M658.955,306.862c-1.081,1.107-.115,3.391.245,4.632a20.383,20.383,0,0,0,3.126,6.81c3.417,4.373,10.181,5.6,15.418,4.67" transform="translate(10.057 4.687)" fill="none" stroke="#000" stroke-miterlimit="10" stroke-width="0.75"/>
            <path id="Trazado_160253" data-name="Trazado 160253" d="M634.214,336.972c-4.442-1.545-7.025-5.435-8.106-9.871a9.024,9.024,0,0,1,4.194-9.888c5.386-3.19,14.177-7.576,21.46-7.33" transform="translate(9.559 4.733)" fill="none" stroke="#000" stroke-miterlimit="10" stroke-width="0.75"/>
            <line id="Línea_573" data-name="Línea 573" x1="1.36" y2="17.471" transform="translate(646.943 320.752)" fill="none" stroke="#fff" stroke-miterlimit="10" stroke-width="0.75"/>
            <line id="Línea_574" data-name="Línea 574" x1="1.089" y2="15.217" transform="translate(649.796 319.722)" fill="none" stroke="#fff" stroke-miterlimit="10" stroke-width="0.75"/>
            <line id="Línea_575" data-name="Línea 575" x1="1.36" y2="17.471" transform="translate(681.811 306.852)" fill="none" stroke="#fff" stroke-miterlimit="10" stroke-width="0.75"/>
            <line id="Línea_576" data-name="Línea 576" x1="1.09" y2="15.217" transform="translate(684.663 305.822)" fill="none" stroke="#fff" stroke-miterlimit="10" stroke-width="0.75"/>
          </g>
        </g>
        <g id="Grupo_169237" data-name="Grupo 169237">
          <g id="Grupo_169236" data-name="Grupo 169236" clip-path="url(#clip-path-2)">
            <path id="Trazado_160254" data-name="Trazado 160254" d="M95.249,236.846a2.411,2.411,0,0,1,.61.078,2.9,2.9,0,0,0,.734.078,3.734,3.734,0,0,0,2.752-1.173,11.124,11.124,0,0,0,2.032-2.971,25.147,25.147,0,0,0,1.5-3.924q.624-2.126,1.156-4.033a10.263,10.263,0,0,1,1.094-2.783,8.856,8.856,0,0,1,1.156-1.533,2.841,2.841,0,0,1,1.314-.75,10.328,10.328,0,0,0-2.267-.735,15.2,15.2,0,0,0-3.423-.359,3.845,3.845,0,0,0-2.3.642,2.028,2.028,0,0,0-.89,1.735,2.758,2.758,0,0,0,.235,1.2,3.4,3.4,0,0,0,.531.812q.3.329.532.548a.586.586,0,0,1,.235.375q0,.594-.657.594a4.352,4.352,0,0,1-1.422-.281,5.781,5.781,0,0,1-1.517-.813,5.177,5.177,0,0,1-1.219-1.266,2.9,2.9,0,0,1-.5-1.673,3.1,3.1,0,0,1,.625-2,4.666,4.666,0,0,1,1.548-1.251,7.042,7.042,0,0,1,2-.656,11.563,11.563,0,0,1,1.985-.188,22.8,22.8,0,0,1,2.814.156q1.25.157,2.533.359t2.751.359a33.237,33.237,0,0,0,3.47.156,9.507,9.507,0,0,0,1.939-.156,4.878,4.878,0,0,0,1.125-.359,3.884,3.884,0,0,0,.61-.359.617.617,0,0,1,.359-.156.633.633,0,0,1,.469.188.6.6,0,0,1,.188.438,2.093,2.093,0,0,1-.359.813,6.5,6.5,0,0,1-.97,1.2,7.92,7.92,0,0,1-1.376,1.094,2.962,2.962,0,0,1-1.61.484,12,12,0,0,1-1.407-.077q-.656-.079-1.157-.173-.562-.125-1.063-.281a1.171,1.171,0,0,0-.313.281,3.5,3.5,0,0,0-.438.767,13.235,13.235,0,0,0-.547,1.5q-.3.953-.61,2.454-.28,1.252-.546,2.8t-.657,3.126a27.99,27.99,0,0,1-.953,3.08,11.777,11.777,0,0,1-1.392,2.673,6.585,6.585,0,0,1-2,1.876,5.272,5.272,0,0,1-2.767.7,7.42,7.42,0,0,1-1.767-.2,6.573,6.573,0,0,1-1.439-.517,3.518,3.518,0,0,1-.953-.672,1,1,0,0,1-.344-.641.521.521,0,0,1,.562-.594" transform="translate(1.446 3.307)"/>
            <path id="Trazado_160255" data-name="Trazado 160255" d="M116.4,236.163a1.1,1.1,0,0,0,.281.813,1.017,1.017,0,0,0,.75.281,2.212,2.212,0,0,0,1.236-.407,5.471,5.471,0,0,0,1.078-.937,6.989,6.989,0,0,0,1.033-1.345.6.6,0,0,1,.155-.218,1.075,1.075,0,0,1,.188-.141.521.521,0,0,1,.281-.078.656.656,0,0,1,.454.188.58.58,0,0,1,.2.438.587.587,0,0,1-.047.235q-.047.11-.11.235c-.042.083-.083.178-.125.281a11.022,11.022,0,0,1-1.532,1.938,8.838,8.838,0,0,1-1.7,1.314,4.073,4.073,0,0,1-2.141.594,4.942,4.942,0,0,1-1.626-.25,4.222,4.222,0,0,1-1.251-.672,2.928,2.928,0,0,1-.812-.986,2.682,2.682,0,0,1-.282-1.219,5.89,5.89,0,0,1,.314-1.938,15.646,15.646,0,0,1,.672-1.657q.358-.751.672-1.329a2.145,2.145,0,0,0,.313-.953.406.406,0,0,0-.3-.376,5.09,5.09,0,0,0-.641-.218,8.658,8.658,0,0,0-.938-.156,32.269,32.269,0,0,1-1.72,3.736q-.813,1.453-1.313,2.173a2.893,2.893,0,0,1-.235.281.584.584,0,0,1-.454.188.7.7,0,0,1-.657-.656.727.727,0,0,1,.141-.422,2.9,2.9,0,0,0,.2-.329q.437-.624,1.236-1.986a17.348,17.348,0,0,0,1.485-3.58,1.933,1.933,0,0,1-.532-.562,3.335,3.335,0,0,1-.344-.72,3.057,3.057,0,0,1-.156-1.032,2.343,2.343,0,0,1,.173-.891,2.475,2.475,0,0,1,.453-.734,2.632,2.632,0,0,1,.594-.5,1.164,1.164,0,0,1,.594-.188,1.473,1.473,0,0,1,.657.173,3.231,3.231,0,0,1,.625.406,2.258,2.258,0,0,1,.469.532,1.012,1.012,0,0,1,.188.516,2.307,2.307,0,0,1-.2,1.031,1.743,1.743,0,0,0-.2.782.525.525,0,0,0,.376.5,2.441,2.441,0,0,0,.938.156,5.223,5.223,0,0,0,.891-.063c.24-.042.454-.088.641-.14s.364-.1.532-.141a2.183,2.183,0,0,1,.531-.062,1.14,1.14,0,0,1,.923.438,1.625,1.625,0,0,1,.359,1.063,3,3,0,0,1-.359,1.266c-.241.489-.507,1.027-.8,1.61a19.211,19.211,0,0,0-.8,1.829,5.343,5.343,0,0,0-.359,1.892" transform="translate(1.652 3.427)"/>
            <path id="Trazado_160256" data-name="Trazado 160256" d="M136.445,235.47a11.02,11.02,0,0,1-1.532,1.938,8.836,8.836,0,0,1-1.7,1.314,4.07,4.07,0,0,1-2.141.594,3.627,3.627,0,0,1-2.22-.672,2.749,2.749,0,0,1-1.063-1.986A8.167,8.167,0,0,1,126.44,238a8.586,8.586,0,0,1-1.407.908,3.617,3.617,0,0,1-1.688.406,3.175,3.175,0,0,1-1.2-.235,2.857,2.857,0,0,1-1-.672,3.328,3.328,0,0,1-.923-2.345,9.208,9.208,0,0,1,.642-3.345,11.745,11.745,0,0,1,1.672-2.987,9.14,9.14,0,0,1,2.314-2.141,4.8,4.8,0,0,1,4.159-.579,4.591,4.591,0,0,1,1.063.517,3.575,3.575,0,0,1,.751.719,3.782,3.782,0,0,1,.734.078,2.694,2.694,0,0,1,.72.25,1.652,1.652,0,0,1,.546.454,1.087,1.087,0,0,1,.219.688,3.867,3.867,0,0,1-.281,1.125q-.282.783-.625,1.735t-.625,1.971a6.831,6.831,0,0,0-.281,1.8.877.877,0,0,0,.235.625.833.833,0,0,0,.641.251,2.209,2.209,0,0,0,1.236-.407,5.47,5.47,0,0,0,1.078-.937,6.906,6.906,0,0,0,1.032-1.345.618.618,0,0,1,.156-.218,1.076,1.076,0,0,1,.188-.141.524.524,0,0,1,.281-.078.656.656,0,0,1,.454.188.58.58,0,0,1,.2.438.586.586,0,0,1-.047.235q-.047.11-.11.235c-.042.083-.083.178-.125.281m-7.254-5.534a1.388,1.388,0,0,0-.328-1.016,1.086,1.086,0,0,0-.8-.328,2.049,2.049,0,0,0-1.407.719,7.834,7.834,0,0,0-1.3,1.767,11.963,11.963,0,0,0-.953,2.267,7.543,7.543,0,0,0-.375,2.189q0,1.407.906,1.406a2,2,0,0,0,1.3-.75,9.879,9.879,0,0,0,1.392-1.845,14.15,14.15,0,0,0,1.111-2.3,6.123,6.123,0,0,0,.453-2.11" transform="translate(1.836 3.464)"/>
            <path id="Trazado_160257" data-name="Trazado 160257" d="M149.229,235.47a5.144,5.144,0,0,1-1.344,1.344,7.05,7.05,0,0,1-1.7.938,6.4,6.4,0,0,1-2.393.407,7.673,7.673,0,0,1-1.547-.188,8.288,8.288,0,0,1-1.61-.5,17.367,17.367,0,0,1-2.688,1.454,4.7,4.7,0,0,1-1.6.391.963.963,0,0,1-.532-.188,2.133,2.133,0,0,1-.516-.5,2.681,2.681,0,0,1-.376-.7,2.347,2.347,0,0,1-.14-.8,14.323,14.323,0,0,1,.281-2.751q.282-1.438.657-2.783t.8-2.454q.422-1.11.7-1.767a1.23,1.23,0,0,1,.344-.422.786.786,0,0,1,.5-.172,1.558,1.558,0,0,1,.782.265,5.193,5.193,0,0,1,.812.61,4.67,4.67,0,0,1,.625.687,1.061,1.061,0,0,1,.251.532,4.922,4.922,0,0,1-.313,1.61q-.314.891-.7,1.829t-.7,1.861a5.245,5.245,0,0,0-.313,1.673,1.185,1.185,0,0,0,.141.594.431.431,0,0,0,.391.25.862.862,0,0,0,.438-.156v-.156a1.025,1.025,0,0,1,.172-.531,2.117,2.117,0,0,1,.422-.5,2.7,2.7,0,0,1,.516-.359,1,1,0,0,1,.453-.141h.031a16.019,16.019,0,0,0,1.86-3.377,12.931,12.931,0,0,0,.625-2,9.226,9.226,0,0,0,.235-2.063q0-.626.657-.625a2.078,2.078,0,0,1,.813.187,2.855,2.855,0,0,1,.812.532,3.018,3.018,0,0,1,.625.812,2.092,2.092,0,0,1,.251,1,3.991,3.991,0,0,1-.328,1.422,9.869,9.869,0,0,1-.908,1.72,16.675,16.675,0,0,1-1.359,1.8,18.1,18.1,0,0,1-1.658,1.688,4.377,4.377,0,0,0,.767.5,2.335,2.335,0,0,0,1.079.218,3.248,3.248,0,0,0,1.469-.328,6.18,6.18,0,0,0,1.156-.735,8.484,8.484,0,0,0,1.064-1.063.6.6,0,0,1,.155-.218,1.051,1.051,0,0,1,.189-.141.518.518,0,0,1,.281-.078.654.654,0,0,1,.453.188.58.58,0,0,1,.2.438.586.586,0,0,1-.047.235c-.03.073-.068.151-.11.235s-.083.178-.125.281" transform="translate(2.059 3.464)"/>
            <path id="Trazado_160258" data-name="Trazado 160258" d="M160.194,235.47a8.011,8.011,0,0,1-1.72,1.939,9.928,9.928,0,0,1-2.174,1.313,7.347,7.347,0,0,1-3.079.594,6.686,6.686,0,0,1-2.189-.344,5.242,5.242,0,0,1-1.72-.953,4.366,4.366,0,0,1-1.126-1.454,4.207,4.207,0,0,1-.406-1.845,7.87,7.87,0,0,1,.657-3.252,8.8,8.8,0,0,1,1.657-2.517,7.477,7.477,0,0,1,2.173-1.61,5.114,5.114,0,0,1,2.205-.562,3.235,3.235,0,0,1,1.344.281,3.834,3.834,0,0,1,1.094.734,3.368,3.368,0,0,1,.735,1.048,2.966,2.966,0,0,1,.265,1.219,4.679,4.679,0,0,1-.25,1.36,4.62,4.62,0,0,1-.828,1.517,4.855,4.855,0,0,1-1.564,1.235,5.249,5.249,0,0,1-2.454.517,2.941,2.941,0,0,1-.72-.094,4.263,4.263,0,0,1-.469-.094,2.788,2.788,0,0,0,.813,2.157,2.759,2.759,0,0,0,1.938.751,4.4,4.4,0,0,0,2-.454,7.579,7.579,0,0,0,1.532-.985,6.453,6.453,0,0,0,1.282-1.439.614.614,0,0,1,.156-.218,1.087,1.087,0,0,1,.188-.141.518.518,0,0,1,.281-.078.652.652,0,0,1,.453.188.578.578,0,0,1,.2.438.6.6,0,0,1-.047.235q-.047.11-.11.235c-.042.083-.083.178-.125.281m-8.412-2.251a2.961,2.961,0,0,0,1.6-.469,5.219,5.219,0,0,0,1.3-1.141,6.026,6.026,0,0,0,.86-1.392,3.181,3.181,0,0,0,.313-1.219c0-.416-.188-.625-.563-.625A1.969,1.969,0,0,0,154,228.9a5.8,5.8,0,0,0-1.111,1.282,8.121,8.121,0,0,0-.8,1.594,4.29,4.29,0,0,0-.313,1.439" transform="translate(2.257 3.464)"/>
            <path id="Trazado_160259" data-name="Trazado 160259" d="M163.589,239.459a5.222,5.222,0,0,1-1.8-.313,4.424,4.424,0,0,1-1.517-.922,4.519,4.519,0,0,1-1.048-1.485,4.8,4.8,0,0,1-.39-1.971,18.89,18.89,0,0,1,.359-3.47,27.8,27.8,0,0,1,1.015-3.831,35.623,35.623,0,0,1,1.517-3.736,20.313,20.313,0,0,1,1.891-3.236,10.712,10.712,0,0,1,2.142-2.267,3.675,3.675,0,0,1,2.236-.845,2.114,2.114,0,0,1,1,.25,3.332,3.332,0,0,1,.828.625,3.2,3.2,0,0,1,.578.829,1.98,1.98,0,0,1,.219.859,5.255,5.255,0,0,1-.359,1.673,18.451,18.451,0,0,1-.954,2.189q-.594,1.173-1.391,2.423t-1.657,2.423q-.86,1.173-1.735,2.188a14.792,14.792,0,0,1-1.658,1.673q-.062.376-.125.782a7.2,7.2,0,0,0-.093.767q-.032.422-.031.828a2.954,2.954,0,0,0,.5,1.782,1.607,1.607,0,0,0,1.376.688,1.3,1.3,0,0,0,.609-.156,4.108,4.108,0,0,0,.547-.344,2.434,2.434,0,0,0,.5-.532,2.484,2.484,0,0,1,.281-.3.54.54,0,0,1,.376-.141.757.757,0,0,1,.687.688.771.771,0,0,1-.187.438,1.53,1.53,0,0,0-.156.25,6.44,6.44,0,0,1-1.033,1.094,4.743,4.743,0,0,1-1.125.767,3.116,3.116,0,0,1-1.407.328m5.471-19.542c0-.291-.125-.439-.376-.439q-.437,0-1.14.97a17.5,17.5,0,0,0-1.47,2.533q-.766,1.564-1.517,3.5a30.134,30.134,0,0,0-1.219,3.909,8.278,8.278,0,0,0,1.173-1.251,19.24,19.24,0,0,0,1.266-1.83Q166.4,226.3,167,225.2t1.048-2.11q.454-1.016.735-1.861a4.486,4.486,0,0,0,.281-1.313" transform="translate(2.426 3.32)"/>
            <path id="Trazado_160260" data-name="Trazado 160260" d="M116.481,222.531s8.3-.84,20.993-5.318l.746,1.96s-15.581,4.2-21.739,3.359" transform="translate(1.779 3.318)"/>
            <path id="Trazado_160261" data-name="Trazado 160261" d="M124.451,224.034a85.747,85.747,0,0,0,17.918-4.539l.638,1.672s-13.3,3.584-18.555,2.867" transform="translate(1.901 3.352)"/>
            <path id="Trazado_160262" data-name="Trazado 160262" d="M163.575,209.67c-1.982-.871-4.31-.055-5.243.307-.375.145-2.7,1.079-5.459,2.192l-12.5-5.115-.97.482,9.942,6.053-5.2,2.1-2.3-.941-.415.383,1.633.994-.64.258a18.538,18.538,0,0,0-2.668,1.036.373.373,0,0,0-.072.618.615.615,0,0,0,.627.115l1.355-.268,2.44-.482.451,1.428.47-.313-.187-1.261,7.408-1.46c.312-.077.611-.154.908-.231l6.859,4.674.667-.259-3.9-5.48c5.192-1.731,6.65-3.291,7.057-4.075a.544.544,0,0,0-.269-.751" transform="translate(2.129 3.162)"/>
          </g>
        </g>
      </g>
    </g>
  </g>
</svg>
