<svg xmlns="http://www.w3.org/2000/svg" xmlns:xlink="http://www.w3.org/1999/xlink" width="793" height="206" viewBox="0 0 793 206">
  <defs>
    <clipPath id="clip-path">
      <path id="Trazado_159922" data-name="Trazado 159922" d="M0,0H793V206H0Z" transform="translate(561 4550)" fill="#ffe891"/>
    </clipPath>
    <clipPath id="clip-path-2">
      <rect id="Rectángulo_42461" data-name="Rectángulo 42461" width="773.872" height="417.666" fill="none"/>
    </clipPath>
  </defs>
  <g id="Grupo_169241" data-name="Grupo 169241" transform="translate(-561 -4550)">
    <path id="Trazado_156666" data-name="Trazado 156666" d="M0,0H793V206H0Z" transform="translate(561 4550)" fill="#ffd947"/>
    <g id="Grupo_216" data-name="Grupo 216" clip-path="url(#clip-path)">
      <g id="Grupo_169252" data-name="Grupo 169252" transform="translate(561 4400.274)">
        <g id="Grupo_169253" data-name="Grupo 169253">
          <g id="Grupo_169252-2" data-name="Grupo 169252" clip-path="url(#clip-path-2)">
            <path id="Trazado_160489" data-name="Trazado 160489" d="M386.891,101.025c-115.127,0-208.454,93.328-208.454,208.454a208.362,208.362,0,0,0,9.487,62.343H585.857a208.362,208.362,0,0,0,9.487-62.343c0-115.126-93.328-208.454-208.453-208.454" fill="#ffe891"/>
          </g>
        </g>
        <g id="Grupo_169255" data-name="Grupo 169255">
          <g id="Grupo_169254" data-name="Grupo 169254" clip-path="url(#clip-path-2)">
            <path id="Trazado_160490" data-name="Trazado 160490" d="M593.458,183.174a8.737,8.737,0,0,0-4.852,1.466,9.644,9.644,0,0,0-11.882-6.237c0-.131.01-.261.01-.392a12.715,12.715,0,0,0-24.747-4.11,12.021,12.021,0,0,0-16.9,10.988,12.1,12.1,0,0,0,.2,2.185h65.47A8.775,8.775,0,0,0,593.458,183.174Z" fill="none" stroke="#fff" stroke-miterlimit="10" stroke-width="0.75"/>
            <path id="Trazado_160491" data-name="Trazado 160491" d="M379.121,53.1a22.04,22.04,0,0,1,26.644-9.255c-.034-.424-.056-.852-.056-1.284a15.943,15.943,0,0,1,23.978-13.773A33.625,33.625,0,0,1,493.3,19.63a10.043,10.043,0,0,1,12.711,12.847A17.894,17.894,0,0,1,528.394,53.1Z" fill="none" stroke="#fff" stroke-miterlimit="10" stroke-width="0.75"/>
            <path id="Trazado_160492" data-name="Trazado 160492" d="M363.1,134.37a18.272,18.272,0,0,1,22.087-7.672c-.028-.352-.047-.706-.047-1.065a13.215,13.215,0,0,1,19.877-11.416,27.874,27.874,0,0,1,52.737-7.591,8.326,8.326,0,0,1,10.537,10.65,14.833,14.833,0,0,1,18.55,17.094Z" fill="#fff"/>
            <line id="Línea_600" data-name="Línea 600" x1="43.257" transform="translate(443.58 134.37)" fill="none" stroke="#000" stroke-miterlimit="10" stroke-width="0.75"/>
            <path id="Trazado_160493" data-name="Trazado 160493" d="M405.013,114.216a27.874,27.874,0,0,1,52.737-7.59,8.325,8.325,0,0,1,10.537,10.649" fill="none" stroke="#000" stroke-miterlimit="10" stroke-width="0.75"/>
            <line id="Línea_601" data-name="Línea 601" x1="27.252" transform="translate(363.096 134.37)" fill="none" stroke="#000" stroke-miterlimit="10" stroke-width="0.75"/>
            <path id="Trazado_160494" data-name="Trazado 160494" d="M349.868,61.251a12.128,12.128,0,0,0-10.486-6.47,20.507,20.507,0,1,0-40.429-4.863c0,.057,0,.114,0,.171a16.018,16.018,0,0,0-19.513,11.162Z" fill="#fff"/>
            <line id="Línea_602" data-name="Línea 602" x2="25.827" transform="translate(279.444 61.251)" fill="none" stroke="#000" stroke-miterlimit="10" stroke-width="0.75"/>
            <path id="Trazado_160495" data-name="Trazado 160495" d="M339.968,49.918a20.507,20.507,0,1,0-41.015,0c0,.057,0,.114,0,.171" fill="none" stroke="#000" stroke-miterlimit="10" stroke-width="0.75"/>
            <path id="Trazado_160496" data-name="Trazado 160496" d="M102.6,321.938,76.643,344.421,54.335,276.6l25.958-22.486Z" fill="#c5f4eb"/>
            <path id="Trazado_160497" data-name="Trazado 160497" d="M102.6,321.938l34.245,2.707-22.31-67.818-34.244-2.708Z" fill="#aae0d6"/>
            <path id="Trazado_160498" data-name="Trazado 160498" d="M162.8,302.16l-25.957,22.484-22.309-67.818,25.957-22.484Z" fill="#c5f4eb"/>
            <path id="Trazado_160499" data-name="Trazado 160499" d="M162.8,302.16l34.245,2.707-22.313-67.816-34.241-2.709Z" fill="#aae0d6"/>
            <path id="Trazado_160500" data-name="Trazado 160500" d="M80.1,272.515c-.143,1.333-3.5,1.947-6.13,3.668s-1.5,5.073-2.671,5.885-7.428,1.8-8.778,2.394-2.563,1.7-2.615,2.874,1.673,3.851,4.3,3.218,3.861-2.589,5.568-2.377,6.057,1.722,7.462,4.569,5.708,2.943,7.91,3.747,2.2,1.356,5.109,1.383c1.662.013,3.24.075,4.435.012l-.529-1.609a.558.558,0,0,0-.157.037c-.6.272-3.353.8-4.147-.28a2.14,2.14,0,0,1,1.248-3.425,4.288,4.288,0,0,0,1.557-.886L90.2,284.23c-1.87.1-5.495-.724-5.51-1.93-.025-1.352,1.405-2.317,2.042-2.878s.606-1.566.9-2.556a.941.941,0,0,1,.08-.186l-2.843-8.642a4.085,4.085,0,0,0-.558.277c-2.093,1.3-4.07,2.861-4.21,4.2" fill="#fff"/>
            <path id="Trazado_160501" data-name="Trazado 160501" d="M119.016,274.665a3.557,3.557,0,0,1-1,1.713c-.308.263.776.818.744,1.432,0,0-.023.368-.848.545s-1.685.43-1.333.821a6.673,6.673,0,0,1,.734,1.738s1.356-.208,1.448.115c0,0,1.267-1,1.193-1.586s.551-.544.561-1.209a1.505,1.505,0,0,1,.717-1.069L120,273.446c-.367.367-.933.788-.988,1.219" fill="#c5f4eb"/>
            <path id="Trazado_160502" data-name="Trazado 160502" d="M118.605,271.232c.074.391.569.726,1.008,1.025l-.615-1.87a1.563,1.563,0,0,0-.393.845" fill="#c5f4eb"/>
            <path id="Trazado_160503" data-name="Trazado 160503" d="M114.485,274.432c-.555.2-.478,1.49.136,1.79s1.211-2.249-.136-1.79" fill="#c5f4eb"/>
            <path id="Trazado_160504" data-name="Trazado 160504" d="M117.858,275.189c1.158-.524.46-1.154-.289-1.353s-2.015-1.594-2.348-1.235c-.411.427-.763.465-.084.788s1.25.363,1.253,1.348.3.973,1.468.452" fill="#c5f4eb"/>
            <path id="Trazado_160505" data-name="Trazado 160505" d="M118.78,281.476a3.169,3.169,0,0,0-.849,1.928c.018,1.013-1,1.873-.853,3.048a3.83,3.83,0,0,0,2.4,3.415,4.372,4.372,0,0,0,4.117-.035c.591-.294,1.1-.544,1.564-.722l-3-9.115a3.354,3.354,0,0,0-1.23.134c-.605.311-2.148,1.347-2.148,1.347" fill="#c5f4eb"/>
            <path id="Trazado_160506" data-name="Trazado 160506" d="M113.667,296.915c-1.247-.463-3.662.091-4.811-.33a13.914,13.914,0,0,0-4.814-1.066c-1.386.137-2.314.046-3.77.215s-2.392,1.9-2.392,1.9c-.678.926-.007,3.129.82,4.478s4,2.166,4.949,2.858,2,4.419,2.4,5.709-.617,4.5,1.774,5.921,5.4-.355,3.426-.628-2.3-2.883-2.132-4.174,2.045-2.876,2.99-4.219-.248-2.977.826-4.022a4.478,4.478,0,0,0,1.434-4.1c-.382-1.439.54-2.091-.7-2.546" fill="#c5f4eb"/>
            <path id="Trazado_160507" data-name="Trazado 160507" d="M95.636,287.117c.466-2.071,3.015-4.168,2.115-5.5a4.944,4.944,0,0,0-3.532-1.834c-1.026-.136-3.974-.615-4.052-.051s2.155,4.027.633,4.415a3.225,3.225,0,0,1-.6.08l2.465,7.495a9.638,9.638,0,0,0,2.974-4.608" fill="#c5f4eb"/>
            <path id="Trazado_160508" data-name="Trazado 160508" d="M96.6,297.461c.372-.293-1.662-1.267-2.439-1.183l.53,1.609a3.772,3.772,0,0,0,1.909-.426" fill="#c5f4eb"/>
            <path id="Trazado_160509" data-name="Trazado 160509" d="M90.262,276.436c.563.556.366,1.577,2.007,1.833a1.6,1.6,0,0,0,1.684-2.414c-.761-.83-2.932-1.377-4.312-1.584s-3.342-.559-2.864-1.536,2.774-1.082,4.431-1.524c1.664-.427,2.731-.384,4.075.854s2.785,3.806,4.622,4.331,1.793-1.433,2.344-2.57,2.753-2.173,3.708-3.313-.462-3.838-.33-4.647.937-3.252.589-3.75-5.7.875-7.255,1.2-5.455,2.627-7.012,3.5c-1.423.8-4.9.314-7.078,1.225l2.843,8.642a1.915,1.915,0,0,1,2.548-.244" fill="#c5f4eb"/>
            <path id="Trazado_160510" data-name="Trazado 160510" d="M119.613,272.257l.391,1.189c.184-.184.319-.354.313-.5-.006-.209-.336-.434-.7-.685" fill="#fff"/>
            <path id="Trazado_160511" data-name="Trazado 160511" d="M139.471,256.869c-1.806,2.514-3.363,2.13-4.352,3.186s-4.529,2.782-5.351,3.522a4.136,4.136,0,0,1-3.112.758c-.679-.172-3.575,1.231-4.182,2.048-.467.635-2.586,2.741-3.476,4l.615,1.87c.368.251.7.475.7.684.006.151-.129.321-.313.506l1.223,3.718a5.076,5.076,0,0,1,.736-.448c.591-.307,1.3-1.315,2.333-1.162s2.469,2.065,3.494,1.657.372-1.375.824-1.442.961,1.231,2.17.821,1.589.321,1.9,1.444,1.825,1.416,3.328,2.378,1.737,1.9,2.729,1.4,3.573-3.162,2.961-3.869-1.228-.189-1.492-.657-.383.642-.773.72-2.189-1.144-1.964-1.317,2.292.537,3.539.215,3.061-1,3.061-1a16,16,0,0,1,2.151,1.05c.527.381,3.189,3.035,3.7,3.216s-.274-2.7.1-3.248,1.406-1.907,1.845-2.416a1.253,1.253,0,0,1,1.747-.321l-7.331-22.285c-1.222.55-5.16,2.688-6.8,4.963" fill="#fff"/>
            <path id="Trazado_160512" data-name="Trazado 160512" d="M126.637,288.849c.784.128,1.1.986,1.827,1.548s2.718,1.672,2.677,2.556.762,2.033,2.126,3.349,2.217,2.608,2.929,2.57a4.809,4.809,0,0,0,2.858-2.309,9.606,9.606,0,0,0,.585-3.514c-.009-1.127,1.7-2.475.569-3.822s-1.279-1.821-.448-3.245a2.122,2.122,0,0,0-.769-2.876c-.564-.457-2.855-1.157-3.656-1.747s-2.849-3.36-3.593-3.259-1.95.923-3.01.989-2.367,1.363-3.344,1.192a23.917,23.917,0,0,0-3.23-.286l3,9.115a2.891,2.891,0,0,1,1.48-.261" fill="#fff"/>
            <path id="Trazado_160513" data-name="Trazado 160513" d="M153.8,274.407c.6.811,2.187,1.286,2.716,2.076s3.311-.577,3.485-1.707,0-2.5.956-3.49,2.283-3.078,1.836-4.657,1.171-3.42,1.987-4.872,1.186-2.96,2.546-4.139,3.734-2.656,4.04-4.292,3.6-2.72,4.149-4.081.6-1.939-.381-2.269-6.591,1.094-8.834,1.352a18.464,18.464,0,0,0-4.3.809c-.77.318-3,1.851-4.265,1.724s-5.639.912-6.425,1.186-4.077-.488-4.759-.257c-.063.021-.16.061-.284.116l7.332,22.286a1.292,1.292,0,0,1,.2.215" fill="#c5f4eb"/>
            <path id="Trazado_160514" data-name="Trazado 160514" d="M174.648,235.84l-33.781-2.672a.855.855,0,0,0-.725-.029.835.835,0,0,0-.661.488q-12.45,10.785-24.9,21.568a3.037,3.037,0,0,1-.54.388l-1.3-.1-8.429-.666-20.9-1.652c-1.606-.127-3.124-.637-4.39.46L70.62,260.9,53.665,275.592a1.249,1.249,0,0,0-.425,1.386l21.789,66.238q.258.791.519,1.58a1.175,1.175,0,0,0,1.765.639l25.244-21.866a3.01,3.01,0,0,1,.54-.387c.432.033.866.068,1.3.1l8.429.666,20.894,1.651c.855.067,3.063.691,3.821.034l3.835-3.323q8.144-7.05,16.283-14.1l5.331-4.616c.1-.084.168-.146.223-.2l1.843.145,20.2,1.6,11.877.939c.778.061,1.232-.9,1.01-1.584L176.35,238.258l-.519-1.58a1.25,1.25,0,0,0-1.183-.838M163.66,301.024a2.621,2.621,0,0,0-2.37.856l-5.886,5.1q-8.054,6.978-16.112,13.956l-2.271,1.967-.586.507-4.769-.377-21.48-1.7-7.033-.556c-1.1-.087-1.548.431-2.355,1.131q-7.4,6.413-14.8,12.822l-8.81,7.631q-10.617-32.274-21.234-64.55-.129-.395-.26-.788l24.557-21.272a3.075,3.075,0,0,1,.54-.388l1.3.1,8.428.666,20.9,1.652c1.606.127,3.125.637,4.39-.46q4.2-3.641,8.408-7.282l16.7-14.462,32.986,2.609q10.749,32.673,21.5,65.343-15.865-1.253-31.73-2.508" fill="#fff"/>
            <line id="Línea_603" data-name="Línea 603" x2="20.926" y2="63.614" transform="translate(114.924 258.004)" fill="none" stroke="#000" stroke-miterlimit="10" stroke-width="0.75"/>
            <path id="Trazado_160515" data-name="Trazado 160515" d="M70.62,260.9,53.665,275.592a1.248,1.248,0,0,0-.426,1.386l21.789,66.238q.258.791.519,1.58" fill="none" stroke="#000" stroke-miterlimit="10" stroke-width="0.75"/>
            <line id="Línea_604" data-name="Línea 604" x1="7.548" y1="22.946" transform="translate(154.911 278.17)" fill="none" stroke="#000" stroke-miterlimit="10" stroke-width="0.75"/>
            <line id="Línea_605" data-name="Línea 605" x2="18.518" y2="56.282" transform="translate(176.626 239.094)" fill="none" stroke="#000" stroke-miterlimit="10" stroke-width="0.75"/>
            <line id="Línea_606" data-name="Línea 606" x2="12.948" y2="39.621" transform="translate(80.787 255.363)" fill="none" stroke="#000" stroke-miterlimit="10" stroke-width="0.75"/>
            <path id="Trazado_160516" data-name="Trazado 160516" d="M174.648,235.84l-33.781-2.673a.855.855,0,0,0-.725-.028.833.833,0,0,0-.661.488l-24.9,21.568a3.133,3.133,0,0,1-.54.388" fill="none" stroke="#000" stroke-miterlimit="10" stroke-width="0.75"/>
            <path id="Trazado_160517" data-name="Trazado 160517" d="M100.8,321.908q-7.4,6.413-14.8,12.822l-8.811,7.631q-10.615-32.274-21.233-64.55c-.086-.263-.173-.526-.259-.788l24.556-21.272a3.037,3.037,0,0,1,.54-.388l1.3.1,8.428.666,20.9,1.652" fill="none" stroke="#000" stroke-miterlimit="10" stroke-width="0.75"/>
            <path id="Trazado_160518" data-name="Trazado 160518" d="M.324,104.428c9.942,17.09,30.045,27.711,49.766,26.3a17.105,17.105,0,0,0,8.036-2.161c2.366-1.5,4.108-4.282,3.653-7.048-1.373-2.194-5-1.791-6.655.195s-1.812,4.815-1.58,7.393c1.435,15.991,14.983,29.235,30.48,33.432s32.283.556,46.608-6.692" fill="none" stroke="#000" stroke-miterlimit="10" stroke-width="0.75" stroke-dasharray="3.571 3.571"/>
            <path id="Trazado_160519" data-name="Trazado 160519" d="M773.5,258.758c-1.032,10.693-2.614,21.423-6.281,31.521s-9.55,19.6-18.012,26.217c-1.945,1.52-4.137,2.926-6.6,3.114s-5.2-1.239-5.715-3.653a2.535,2.535,0,0,1,.133-1.639c.98-2,4.117-.7,5.387,1.122,4.495,6.46,2.025,15.877-3.53,21.452s-13.372,8.165-20.958,10.263c-13.339,3.689-27.16,6.52-39.157,13.421s-22.13,18.986-22.257,32.825c-.077,8.439,3.5,16.431,7,24.11" fill="none" stroke="#000" stroke-miterlimit="10" stroke-width="0.75" stroke-dasharray="2.645 2.645"/>
            <path id="Trazado_160520" data-name="Trazado 160520" d="M673.376,365.9a16.928,16.928,0,0,0-20.463-7.108c.026-.326.043-.654.043-.986a12.245,12.245,0,0,0-18.416-10.578,25.824,25.824,0,0,0-48.859-7.032,7.712,7.712,0,0,0-9.762,9.867A13.743,13.743,0,0,0,558.732,365.9Z" fill="#22ca94"/>
            <path id="Trazado_160521" data-name="Trazado 160521" d="M634.541,347.224a25.824,25.824,0,0,0-48.859-7.032,7.712,7.712,0,0,0-9.763,9.866" fill="none" stroke="#000" stroke-miterlimit="10" stroke-width="0.75"/>
            <path id="Trazado_160522" data-name="Trazado 160522" d="M317.329,142.492l-1.132,9.552,13.417,8.926,5.41-2.936-.723,6.055,16.5,10.977,5.56-3.778-2.514,5.805,13.643,9.077c-1.408-17.226-10.883-34.1-27.067-44.866s-35.407-12.988-51.839-7.632l19.449,12.94Z" fill="#22ca94"/>
            <path id="Trazado_160523" data-name="Trazado 160523" d="M389.636,358.836c29.417-102.415-26.02-169.954-26.02-169.954s77.764,46.48,72.895,169.809" fill="none" stroke="#000" stroke-miterlimit="10" stroke-width="0.75"/>
            <line id="Línea_607" data-name="Línea 607" y1="5.493" x2="10.035" transform="translate(381.356 213.963)" fill="none" stroke="#000" stroke-miterlimit="10" stroke-width="0.75"/>
            <line id="Línea_608" data-name="Línea 608" y1="7.764" x2="18.47" transform="translate(391.497 240.261)" fill="none" stroke="#000" stroke-miterlimit="10" stroke-width="0.75"/>
            <line id="Línea_609" data-name="Línea 609" y1="4.787" x2="27.947" transform="translate(397.153 273.709)" fill="none" stroke="#000" stroke-miterlimit="10" stroke-width="0.75"/>
            <line id="Línea_610" data-name="Línea 610" y1="0.111" x2="35.91" transform="translate(398.051 307.938)" fill="none" stroke="#000" stroke-miterlimit="10" stroke-width="0.75"/>
            <line id="Línea_611" data-name="Línea 611" y1="0.129" x2="41.554" transform="translate(394.886 336.224)" fill="none" stroke="#000" stroke-miterlimit="10" stroke-width="0.75"/>
            <path id="Trazado_160524" data-name="Trazado 160524" d="M288.117,196.908l8.218,6.231,41.8-9.181,4.394-5.857s4.073,1.482,7.629,3.216l13.459-2.956c-15.99-13.088-38.373-18.942-61.072-13.956s-40.568,19.682-49.6,38.266l27.789-6.1Z" fill="#22ca94"/>
            <path id="Trazado_160525" data-name="Trazado 160525" d="M394.719,184.929l5.447,5.571,32.254-2.207,3.935-3.887s2.879,1.561,5.343,3.252l10.386-.71a55.452,55.452,0,0,0-85.4,5.844l21.444-1.468Z" fill="#22ca94"/>
            <path id="Trazado_160526" data-name="Trazado 160526" d="M315.16,249.934l7.658,3.248,10.729-15.552-5.446-6.456,8.922,1.418,26.608-38.571c-18.474,1.2-36.714,11.042-48.537,28.18s-14.548,37.685-9.108,55.381l12.9-18.7Z" fill="#22ca94"/>
            <path id="Trazado_160527" data-name="Trazado 160527" d="M406.578,130.387l5.168,6.518-12.139,14.479-7.671-3.533,3.738,8.224-30.105,35.907c-3.757-18.127.88-38.328,14.257-54.283s32.459-24.046,50.964-23.509l-14.6,17.414Z" fill="#22ca94"/>
            <path id="Trazado_160528" data-name="Trazado 160528" d="M372.94,204.588a13.808,13.808,0,1,1-13.851-13.765,13.808,13.808,0,0,1,13.851,13.765" fill="#fa6403"/>
            <path id="Trazado_160529" data-name="Trazado 160529" d="M349.02,198.2s2.552.931,4.267-2.911" fill="none" stroke="#000" stroke-miterlimit="10" stroke-width="0.75"/>
            <path id="Trazado_160530" data-name="Trazado 160530" d="M384.784,192.67a13.808,13.808,0,1,1-4.9-18.9,13.809,13.809,0,0,1,4.9,18.9" fill="#fa6403"/>
            <path id="Trazado_160531" data-name="Trazado 160531" d="M367.456,174.988s1.721,2.1,5.155-.33" fill="none" stroke="#000" stroke-miterlimit="10" stroke-width="0.75"/>
            <path id="Trazado_160532" data-name="Trazado 160532" d="M380.349,197.289a13.813,13.813,0,0,1-21.274-11.957" fill="none" stroke="#000" stroke-miterlimit="10" stroke-width="0.75"/>
            <path id="Trazado_160533" data-name="Trazado 160533" d="M541.545,270.941H535.1v-12a2.7,2.7,0,0,0-2.694-2.694H470.312a2.7,2.7,0,0,0-2.693,2.694v12h-6.445v-12a9.149,9.149,0,0,1,9.138-9.139h62.095a9.149,9.149,0,0,1,9.138,9.139Z"/>
            <path id="Trazado_160534" data-name="Trazado 160534" d="M524.718,246.953H478a3.67,3.67,0,0,0-3.669,3.671v4.116A3.669,3.669,0,0,0,478,258.41h46.717a3.669,3.669,0,0,0,3.67-3.67v-4.116a3.67,3.67,0,0,0-3.67-3.671" fill="#753335"/>
            <path id="Trazado_160535" data-name="Trazado 160535" d="M564.561,264.734H438.16A13.059,13.059,0,0,0,425.1,277.793V388.161a13.06,13.06,0,0,0,13.059,13.06h126.4a13.06,13.06,0,0,0,13.059-13.06V277.793a13.059,13.059,0,0,0-13.059-13.059" fill="#753335"/>
            <path id="Trazado_160536" data-name="Trazado 160536" d="M445.15,264.734S447.656,286.2,425.1,286.2" fill="none" stroke="#000" stroke-miterlimit="10" stroke-width="0.75"/>
            <path id="Trazado_160537" data-name="Trazado 160537" d="M557.57,264.734S555.064,286.2,577.62,286.2" fill="none" stroke="#000" stroke-miterlimit="10" stroke-width="0.75"/>
            <rect id="Rectángulo_42462" data-name="Rectángulo 42462" width="19.155" height="27.296" transform="matrix(0.558, -0.83, 0.83, 0.558, 464.575, 301.181)" fill="#fff"/>
            <path id="Trazado_160538" data-name="Trazado 160538" d="M522.57,285.5a9.294,9.294,0,1,1-9.294-9.293,9.294,9.294,0,0,1,9.294,9.293" fill="#fff"/>
            <rect id="Rectángulo_42463" data-name="Rectángulo 42463" width="16.796" height="16.796" transform="matrix(0.906, -0.423, 0.423, 0.906, 515.821, 311.492)" fill="#fff"/>
            <rect id="Rectángulo_42464" data-name="Rectángulo 42464" width="11.736" height="16.725" transform="translate(471.03 301.049) rotate(-56.106)" fill="#ccedff"/>
            <path id="Trazado_160539" data-name="Trazado 160539" d="M519.689,285.5a6.413,6.413,0,1,1-6.413-6.413,6.413,6.413,0,0,1,6.413,6.413" fill="#fa9394"/>
            <rect id="Rectángulo_42465" data-name="Rectángulo 42465" width="11.411" height="11.411" transform="translate(519.4 312.792) rotate(-25.031)" fill="#fdd851"/>
            <rect id="Rectángulo_42466" data-name="Rectángulo 42466" width="12.352" height="68.243" transform="translate(454.1 264.735)" fill="#d98662"/>
            <path id="Trazado_160540" data-name="Trazado 160540" d="M451.2,320.522v-7.514a3.779,3.779,0,0,1,3.775-3.774h10.6a3.778,3.778,0,0,1,3.774,3.774v7.514a3.779,3.779,0,0,1-3.774,3.775h-10.6a3.78,3.78,0,0,1-3.775-3.775m16-7.514a1.628,1.628,0,0,0-1.626-1.626h-10.6a1.627,1.627,0,0,0-1.626,1.626v7.514a1.628,1.628,0,0,0,1.626,1.627h10.6a1.629,1.629,0,0,0,1.626-1.627Z"/>
            <rect id="Rectángulo_42467" data-name="Rectángulo 42467" width="12.352" height="68.243" transform="translate(537.876 264.735)" fill="#d98662"/>
            <path id="Trazado_160541" data-name="Trazado 160541" d="M534.975,320.522v-7.514a3.779,3.779,0,0,1,3.775-3.774h10.6a3.778,3.778,0,0,1,3.774,3.774v7.514a3.779,3.779,0,0,1-3.774,3.775h-10.6a3.78,3.78,0,0,1-3.775-3.775m16.005-7.514a1.627,1.627,0,0,0-1.626-1.626h-10.6a1.627,1.627,0,0,0-1.626,1.626v7.514a1.628,1.628,0,0,0,1.626,1.627h10.6a1.628,1.628,0,0,0,1.626-1.627Z"/>
            <path id="Trazado_160542" data-name="Trazado 160542" d="M127.928,220.981l3.614-49.026s-.268-6.072,2.153-7.1,1.716-.865,1.716-.865l13.283,51.557Z" fill="#fff"/>
            <path id="Trazado_160543" data-name="Trazado 160543" d="M168.678,204.168l2.178-10.841s.37-3.948,2.1-5,4.959-2.488,4.959-2.488l2.052,15.711Z" fill="#fff"/>
            <path id="Trazado_160544" data-name="Trazado 160544" d="M130.683,197.027a35.877,35.877,0,0,0-5.684.689c-1.277.453.654,10.111,1.444,10.561s5.6-1.211,5.6-1.211Z" fill="#fff"/>
            <path id="Trazado_160545" data-name="Trazado 160545" d="M103.557,243.034a2.241,2.241,0,0,1-1.286-2.564c.695-2.977,3.215-9.178,12.348-13.761,12.448-6.246,32.9-16.086,44.511-20.36s23.615-7.9,24.916-5.308-8.782,10.05-19.148,16.8-30.48,17.269-42.928,23.515c-9.133,4.583-15.61,2.9-18.413,1.675" fill="#fff"/>
            <path id="Trazado_160546" data-name="Trazado 160546" d="M134.517,234.113l41.464,26.406s4.708,3.845,6.979,2.517,1.719-.858,1.719-.858l-33.394-41.466Z" fill="#fff"/>
            <path id="Trazado_160547" data-name="Trazado 160547" d="M172.354,211.493l9.993,4.734s3.386,2.062,5.265,1.308,4.959-2.488,4.959-2.488L181.2,204.011Z" fill="#fff"/>
            <path id="Trazado_160548" data-name="Trazado 160548" d="M155.369,246.222a35.963,35.963,0,0,1-3.949,4.145c-1.127.753-7.716-6.568-7.6-7.47s4.318-3.766,4.318-3.766Z" fill="#fff"/>
            <path id="Trazado_160549" data-name="Trazado 160549" d="M107.888,237.184a3.966,3.966,0,0,0,1.661,3.311,18.326,18.326,0,0,0,3.017,1.619,14.49,14.49,0,0,1-5.363-1.14,1.918,1.918,0,0,1-1.1-2.2,14.491,14.491,0,0,1,2.291-4.98,18.293,18.293,0,0,0-.5,3.386"/>
            <path id="Trazado_160550" data-name="Trazado 160550" d="M102.27,240.47c.695-2.978,3.216-9.178,12.349-13.761,12.448-6.246,32.9-16.086,44.511-20.36" fill="none" stroke="#000" stroke-miterlimit="10" stroke-width="0.75"/>
            <path id="Trazado_160551" data-name="Trazado 160551" d="M139.552,237.32l36.43,23.2s4.708,3.844,6.978,2.517" fill="none" stroke="#000" stroke-miterlimit="10" stroke-width="0.75"/>
            <line id="Línea_612" data-name="Línea 612" x1="15.507" y2="7.403" transform="translate(166.94 202.294)" fill="none" stroke="#000" stroke-miterlimit="10" stroke-width="0.75"/>
            <line id="Línea_613" data-name="Línea 613" x2="9.896" y2="38.411" transform="translate(137.652 172.689)" fill="none" stroke="#000" stroke-miterlimit="10" stroke-width="0.75"/>
            <line id="Línea_614" data-name="Línea 614" y1="27.161" x2="2.049" transform="translate(128.531 185.013)" fill="none" stroke="#000" stroke-miterlimit="10" stroke-width="0.75"/>
            <path id="Trazado_160552" data-name="Trazado 160552" d="M730.04,212.679,714.86,187.96a2.486,2.486,0,0,1-3.418-.817L652.969,223.05a2.485,2.485,0,0,1-.817,3.418l15.179,24.719a2.485,2.485,0,0,1,3.418.818L729.223,216.1a2.486,2.486,0,0,1,.817-3.418" fill="#c5f4eb"/>
            <path id="Trazado_160553" data-name="Trazado 160553" d="M711.442,187.143l-8.978,5.513,17.78,28.955,8.979-5.514a2.484,2.484,0,0,1,.817-3.418L714.86,187.96a2.486,2.486,0,0,1-3.418-.817" fill="#aae0d6"/>
            <path id="Trazado_160554" data-name="Trazado 160554" d="M703.725,194.71a.3.3,0,0,1-.417-.1l-.794-1.292a.3.3,0,0,1,.517-.317l.794,1.292a.3.3,0,0,1-.1.417"/>
            <path id="Trazado_160555" data-name="Trazado 160555" d="M717.57,217.255a.3.3,0,0,1-.418-.1l-1.73-2.818a.3.3,0,1,1,.517-.317l1.73,2.818a.3.3,0,0,1-.1.417m-3.462-5.636a.3.3,0,0,1-.417-.1l-1.73-2.818a.3.3,0,1,1,.516-.318l1.731,2.819a.3.3,0,0,1-.1.417m-3.461-5.637a.3.3,0,0,1-.417-.1l-1.731-2.817a.3.3,0,1,1,.517-.318l1.731,2.818a.3.3,0,0,1-.1.417m-3.461-5.636a.3.3,0,0,1-.417-.1l-1.731-2.818a.3.3,0,1,1,.517-.317l1.731,2.818a.3.3,0,0,1-.1.417"/>
            <path id="Trazado_160556" data-name="Trazado 160556" d="M720.094,221.366a.3.3,0,0,1-.417-.1l-.794-1.292a.3.3,0,0,1,.517-.318l.794,1.293a.3.3,0,0,1-.1.417"/>
            <path id="Trazado_160557" data-name="Trazado 160557" d="M661.253,227.059l-.834.512-.275-.447,2.212-1.359.275.448-.843.518,1.523,2.481-.534.328Z"/>
            <rect id="Rectángulo_42468" data-name="Rectángulo 42468" width="0.628" height="3.437" transform="translate(664.174 224.648) rotate(-31.558)"/>
            <path id="Trazado_160558" data-name="Trazado 160558" d="M670.641,224.591a2.165,2.165,0,0,1-.676.6,1.622,1.622,0,0,1-2.4-.556,1.728,1.728,0,0,1,.615-2.507,1.972,1.972,0,0,1,.792-.307l.145.5a1.666,1.666,0,0,0-.643.24,1.143,1.143,0,0,0-.364,1.707,1.129,1.129,0,0,0,1.67.429,1.744,1.744,0,0,0,.515-.466Z"/>
            <path id="Trazado_160559" data-name="Trazado 160559" d="M670.827,220.563l.53-.326.828,1.348.013-.008c0-.156.009-.306.018-.448l.132-1.5.661-.406-.243,1.866,2.107,1.023-.626.385-1.655-.834-.069.473.633,1.031-.53.325Z"/>
            <path id="Trazado_160560" data-name="Trazado 160560" d="M677.47,218.727l-1.1.678.528.86,1.235-.758.269.44-1.768,1.086-1.8-2.929,1.7-1.046.269.439-1.169.717.464.756,1.1-.677Z"/>
            <path id="Trazado_160561" data-name="Trazado 160561" d="M679.424,215.9l-.834.512-.275-.447,2.212-1.359.274.448-.843.518,1.524,2.481-.534.328Z"/>
            <path id="Trazado_160562" data-name="Trazado 160562" d="M721.463,213l.567.923-.333.205-1.38-2.248.333-.2.57.928,2.7-1.659.244.4Z"/>
            <rect id="Rectángulo_42469" data-name="Rectángulo 42469" width="3.561" height="0.46" transform="matrix(0.852, -0.523, 0.523, 0.852, 718.931, 209.625)"/>
            <path id="Trazado_160563" data-name="Trazado 160563" d="M719.205,203.488a2.271,2.271,0,0,1,.636.713,1.664,1.664,0,0,1-.614,2.443,1.772,1.772,0,0,1-2.567-.607,1.906,1.906,0,0,1-.308-.8l.378-.1a1.67,1.67,0,0,0,.25.69,1.325,1.325,0,0,0,1.979.416,1.3,1.3,0,0,0,.5-1.916,1.839,1.839,0,0,0-.519-.562Z"/>
            <path id="Trazado_160564" data-name="Trazado 160564" d="M715.029,203.272l-.241-.392,1.464-.9-.009-.013c-.166-.009-.324-.024-.47-.039l-1.709-.229-.3-.486,1.963.308,1.02-2.257.284.464-.876,1.914.51.084,1.157-.711.241.392Z"/>
            <path id="Trazado_160565" data-name="Trazado 160565" d="M713.239,196.742l.724,1.18,1.095-.672-.808-1.315.329-.2,1.048,1.707-3.035,1.864-1.006-1.64.328-.2.766,1.247.959-.589-.724-1.18Z"/>
            <path id="Trazado_160566" data-name="Trazado 160566" d="M710.228,194.707l.567.923-.333.205-1.38-2.248.333-.2.57.928,2.7-1.659.244.4Z"/>
            <rect id="Rectángulo_42470" data-name="Rectángulo 42470" width="47.929" height="0.604" transform="translate(663.693 232.983) rotate(-31.554)"/>
            <rect id="Rectángulo_42471" data-name="Rectángulo 42471" width="30.834" height="1.283" transform="translate(666.211 237.081) rotate(-31.553)"/>
            <rect id="Rectángulo_42472" data-name="Rectángulo 42472" width="30.834" height="1.283" transform="matrix(0.852, -0.523, 0.523, 0.852, 668.403, 240.652)"/>
            <rect id="Rectángulo_42473" data-name="Rectángulo 42473" width="46.867" height="1.283" transform="matrix(0.852, -0.523, 0.523, 0.852, 670.625, 244.271)"/>
            <path id="Trazado_160567" data-name="Trazado 160567" d="M688.279,212.529l3.239,1.536.154-.642-3.052-2.32q.13-.549.263-1.1c.173-.726.6-1.687.1-2.338a.392.392,0,0,0-.492-.118c-.745.352-.8,1.4-.968,2.131q-.132.549-.263,1.1l-3.772.689-.153.642,3.584.1c-.006.026-.013.052-.019.078l-.257,2.38-.9.2-.117.491,1.13.03.016.067-.127.531a.087.087,0,1,0,.17.04l.127-.53.045-.053,1.022.484.117-.49-.713-.584.847-2.238c.006-.027.013-.053.019-.079"/>
            <path id="Trazado_160568" data-name="Trazado 160568" d="M711.442,187.143l-58.474,35.908a2.484,2.484,0,0,1-.817,3.418" fill="none" stroke="#000" stroke-miterlimit="10" stroke-width="0.75"/>
            <path id="Trazado_160569" data-name="Trazado 160569" d="M630.489,159.266,595.451,172.74a2.437,2.437,0,0,0-1.4,3.148l19.434,50.536a2.435,2.435,0,0,0,3.148,1.4l35.038-13.473a4.6,4.6,0,0,0,2.644-5.948L636.436,161.91a4.6,4.6,0,0,0-5.947-2.644" fill="#753335"/>
            <path id="Trazado_160570" data-name="Trazado 160570" d="M602.1,170.181l-6.654,2.559a2.437,2.437,0,0,0-1.4,3.148l19.434,50.536a2.435,2.435,0,0,0,3.148,1.4l6.654-2.558Z" fill="#d98662"/>
            <path id="Trazado_160571" data-name="Trazado 160571" d="M630.726,177.526a10.03,10.03,0,0,0-.984-.58,10.207,10.207,0,0,0-7.818-.663,2.107,2.107,0,0,0-.338.09,2.282,2.282,0,0,0-.319.143,10.205,10.205,0,0,0-5.623,5.473,10.627,10.627,0,0,0-.393,1.072,10.206,10.206,0,0,0,4.105,11.468,9.872,9.872,0,0,0,.983.581,10.2,10.2,0,0,0,7.817.662,2.078,2.078,0,0,0,.338-.089,2.586,2.586,0,0,0,.317-.144,10.2,10.2,0,0,0,5.625-5.473,10.774,10.774,0,0,0,.393-1.071,10.21,10.21,0,0,0-4.1-11.469m2.684,4.9L629.028,184a22.125,22.125,0,0,0-1.826-3.727,15.611,15.611,0,0,0,2.623-1.835c.035-.03.067-.061.1-.091a9.07,9.07,0,0,1,3.484,4.087m-4.148,6.9a24.5,24.5,0,0,0-5.393,1.929,20.833,20.833,0,0,1-1.761-3.576l6.247-2.234a21,21,0,0,1,.907,3.881m-.947,5.2c-.068.027-.136.052-.207.077s-.141.048-.211.071c-.876.113-2.147-.787-3.395-2.484a23.878,23.878,0,0,1,4.864-1.74c.109,2.1-.3,3.606-1.051,4.076m-6.59-7.919a20.727,20.727,0,0,1-.907-3.881,23.081,23.081,0,0,0,2.752-.806,24.036,24.036,0,0,0,2.64-1.122,20.685,20.685,0,0,1,1.762,3.576Zm.037-9.081.21-.078c.07-.025.14-.048.211-.071.878-.113,2.147.787,3.394,2.485a23.62,23.62,0,0,1-2.384,1,23.177,23.177,0,0,1-2.477.735c-.111-2.1.3-3.6,1.046-4.073m7.115.243a15.064,15.064,0,0,1-2.3,1.565,13.118,13.118,0,0,0-.841-1.059,8.169,8.169,0,0,0-1.461-1.328,9.128,9.128,0,0,1,4.6.822m-9.005.754a8.16,8.16,0,0,0-.288,1.953c-.017.432-.007.885.021,1.354a15.1,15.1,0,0,1-2.769.246,9.11,9.11,0,0,1,3.036-3.553m-3.483,4.66c.046,0,.09.005.135.006a15.6,15.6,0,0,0,3.192-.243,22.218,22.218,0,0,0,.952,4.04l-4.379,1.566a9.052,9.052,0,0,1,.1-5.369m.281,6.44,4.382-1.566a22.262,22.262,0,0,0,1.825,3.726,15.619,15.619,0,0,0-2.622,1.836l-.1.09a9.067,9.067,0,0,1-3.484-4.086m4.533,4.659a14.876,14.876,0,0,1,2.3-1.565c.275.38.555.736.841,1.06a8.179,8.179,0,0,0,1.461,1.328,9.146,9.146,0,0,1-4.6-.823m9-.754a8.229,8.229,0,0,0,.29-1.953c.016-.432.006-.885-.022-1.353a14.925,14.925,0,0,1,2.769-.246,9.125,9.125,0,0,1-3.037,3.552m3.484-4.661c-.046,0-.089,0-.135-.007a15.661,15.661,0,0,0-3.191.245,22.268,22.268,0,0,0-.954-4.04l4.38-1.566a9.048,9.048,0,0,1-.1,5.368" fill="#fff"/>
            <path id="Trazado_160572" data-name="Trazado 160572" d="M621.752,204.257a1.219,1.219,0,0,1,0,1.01,1.45,1.45,0,0,1-.835.677l-.259.1.434,1.128-.919.353-1.308-3.4,1.177-.452a1.543,1.543,0,0,1,1.076-.092,1.081,1.081,0,0,1,.632.677m-1.38,1.038.168-.065a.49.49,0,0,0,.284-.243.453.453,0,0,0,0-.368q-.132-.344-.514-.2l-.238.091Z" fill="#fff"/>
            <path id="Trazado_160573" data-name="Trazado 160573" d="M625.272,205.565l-.412-.573-1.106.425.073.7-1.009.388-.2-3.842,1.226-.472,2.437,2.984Zm-.893-1.253-.362-.5q-.123-.166-.309-.434t-.26-.386c.017.084.039.225.069.422s.074.59.138,1.178Z" fill="#fff"/>
            <path id="Trazado_160574" data-name="Trazado 160574" d="M628.472,203.149a1.069,1.069,0,0,1,.055.624,1.126,1.126,0,0,1-.316.56,1.832,1.832,0,0,1-.657.408,3,3,0,0,1-.588.172,2.3,2.3,0,0,1-.544.018l-.315-.819a2.93,2.93,0,0,0,.628,0,2.241,2.241,0,0,0,.55-.124.541.541,0,0,0,.273-.187.232.232,0,0,0,.025-.22.216.216,0,0,0-.085-.107.477.477,0,0,0-.164-.058c-.071-.014-.249-.029-.537-.045a2.358,2.358,0,0,1-.612-.1.958.958,0,0,1-.371-.231,1.166,1.166,0,0,1-.248-.4.936.936,0,0,1,.06-.864,1.615,1.615,0,0,1,.839-.625,2.818,2.818,0,0,1,1.171-.17l-.008.818a2.177,2.177,0,0,0-.908.1.467.467,0,0,0-.237.163.2.2,0,0,0-.021.187.24.24,0,0,0,.172.139,4.233,4.233,0,0,0,.673.073,1.655,1.655,0,0,1,.774.19.983.983,0,0,1,.391.505" fill="#fff"/>
            <path id="Trazado_160575" data-name="Trazado 160575" d="M631.223,202.091a1.07,1.07,0,0,1,.055.624,1.119,1.119,0,0,1-.316.559,1.819,1.819,0,0,1-.657.409,3,3,0,0,1-.588.172,2.3,2.3,0,0,1-.544.018l-.315-.819a2.93,2.93,0,0,0,.628,0,2.241,2.241,0,0,0,.55-.124.541.541,0,0,0,.273-.187.232.232,0,0,0,.025-.22.216.216,0,0,0-.085-.107.477.477,0,0,0-.164-.058c-.071-.014-.249-.029-.537-.045a2.359,2.359,0,0,1-.612-.1.958.958,0,0,1-.371-.231,1.166,1.166,0,0,1-.248-.4.939.939,0,0,1,.06-.865,1.619,1.619,0,0,1,.839-.624,2.818,2.818,0,0,1,1.171-.17l-.008.818a2.177,2.177,0,0,0-.908.1.466.466,0,0,0-.237.163.2.2,0,0,0-.021.187.242.242,0,0,0,.172.139,4.232,4.232,0,0,0,.673.073,1.655,1.655,0,0,1,.774.19.983.983,0,0,1,.391.505" fill="#fff"/>
            <path id="Trazado_160576" data-name="Trazado 160576" d="M633.723,199.653a1.223,1.223,0,0,1,0,1.01,1.449,1.449,0,0,1-.835.677l-.259.1.434,1.128-.919.354-1.308-3.4,1.178-.452a1.542,1.542,0,0,1,1.076-.092,1.085,1.085,0,0,1,.631.677m-1.38,1.038.168-.064a.493.493,0,0,0,.284-.243.455.455,0,0,0,0-.369q-.132-.344-.514-.2l-.238.091Z" fill="#fff"/>
            <path id="Trazado_160577" data-name="Trazado 160577" d="M637.684,198.835a1.966,1.966,0,0,1,.08,1.467,2.049,2.049,0,0,1-2.461.944,2.361,2.361,0,0,1-1-2.6,2.064,2.064,0,0,1,2.464-.951,1.969,1.969,0,0,1,.921,1.144m-2.341.9q.379.987,1.066.722a.631.631,0,0,0,.425-.438,1.406,1.406,0,0,0-.118-.812,1.428,1.428,0,0,0-.461-.687.626.626,0,0,0-.6-.046q-.691.266-.308,1.261" fill="#fff"/>
            <path id="Trazado_160578" data-name="Trazado 160578" d="M639.4,198.713l.476,1.238-.919.353-1.308-3.4,1.114-.429q1.387-.532,1.774.472a1.076,1.076,0,0,1-.226,1.136l1.561,1.1-1.042.4-1.2-.961Zm-.266-.691.172-.066q.482-.186.318-.611-.135-.351-.607-.17l-.182.07Z" fill="#fff"/>
            <path id="Trazado_160579" data-name="Trazado 160579" d="M643.678,198.487l-.919.353-1.018-2.649-.832.319-.289-.751,2.579-.992.289.752-.829.318Z" fill="#fff"/>
            <line id="Línea_615" data-name="Línea 615" x2="17.535" y2="45.599" transform="translate(602.105 170.181)" fill="none" stroke="#000" stroke-miterlimit="10" stroke-width="0.75"/>
            <path id="Trazado_160580" data-name="Trazado 160580" d="M651.671,214.35a4.6,4.6,0,0,0,2.644-5.947L636.436,161.91a4.6,4.6,0,0,0-5.947-2.644L595.451,172.74a2.437,2.437,0,0,0-1.4,3.149" fill="none" stroke="#000" stroke-miterlimit="10" stroke-width="0.75"/>
            <rect id="Rectángulo_42474" data-name="Rectángulo 42474" width="4.357" height="8.322" transform="translate(416.502 222.227) rotate(-73.935)" fill="#0a4dc8"/>
            <path id="Trazado_160581" data-name="Trazado 160581" d="M421.772,263.736a2.714,2.714,0,0,1-3.359,1.856l-58.15-16.751a2.713,2.713,0,0,1-1.856-3.359L368,212.175a2.714,2.714,0,0,1,3.359-1.857l58.15,16.752a2.712,2.712,0,0,1,1.857,3.358Z" fill="#0a4dc8"/>
            <path id="Trazado_160582" data-name="Trazado 160582" d="M429,228.837l-58.15-16.751a2.714,2.714,0,0,0-3.359,1.856l-1.755,6.092L429.1,238.288l1.755-6.092A2.715,2.715,0,0,0,429,228.837" fill="#0a4dc8"/>
            <path id="Rectángulo_42475" data-name="Rectángulo 42475" d="M1.989,0H7.147A1.988,1.988,0,0,1,9.135,1.988V12.861a1.988,1.988,0,0,1-1.988,1.988H1.989A1.989,1.989,0,0,1,0,12.86V1.989A1.989,1.989,0,0,1,1.989,0Z" transform="translate(410.896 228.376) rotate(-73.926)" fill="#0a4dc8"/>
            <path id="Trazado_160583" data-name="Trazado 160583" d="M429.51,227.07l-58.15-16.751A2.714,2.714,0,0,0,368,212.175l-1.755,6.092,63.366,18.254,1.754-6.092a2.714,2.714,0,0,0-1.856-3.359" fill="#fff"/>
            <path id="Trazado_160584" data-name="Trazado 160584" d="M408.5,241.878a14.493,14.493,0,1,1-9.915-17.939,14.493,14.493,0,0,1,9.915,17.939" fill="#fa6403"/>
            <path id="Trazado_160585" data-name="Trazado 160585" d="M405.459,241a10.991,10.991,0,1,1-7.519-13.6,10.99,10.99,0,0,1,7.519,13.6"/>
            <path id="Trazado_160586" data-name="Trazado 160586" d="M383.745,219.741a2.429,2.429,0,0,1-2.812,1.92l-8.111-2.337a2.67,2.67,0,0,1,1.452-5.041l8.111,2.336a2.43,2.43,0,0,1,1.36,3.122"/>
            <path id="Trazado_160587" data-name="Trazado 160587" d="M414.952,227.937a2.758,2.758,0,1,1-1.832-3.583,2.85,2.85,0,0,1,1.832,3.583" fill="#fa6403"/>
            <path id="Trazado_160588" data-name="Trazado 160588" d="M358.673,244.556l-.267.927a2.714,2.714,0,0,0,1.857,3.359l58.15,16.751a2.713,2.713,0,0,0,3.358-1.857l.267-.926Z" fill="#fff"/>
            <path id="Trazado_160589" data-name="Trazado 160589" d="M431.366,230.429a2.714,2.714,0,0,0-1.856-3.359l-58.151-16.751A2.712,2.712,0,0,0,368,212.175l-1.755,6.093" fill="none" stroke="#000" stroke-miterlimit="10" stroke-width="0.75"/>
            <path id="Trazado_160590" data-name="Trazado 160590" d="M358.673,244.556l63.365,18.254,6.235-21.644" fill="none" stroke="#000" stroke-miterlimit="10" stroke-width="0.75"/>
            <path id="Trazado_160591" data-name="Trazado 160591" d="M380.648,233.854a14.493,14.493,0,0,1,17.939-9.915" fill="none" stroke="#000" stroke-miterlimit="10" stroke-width="0.75"/>
            <path id="Trazado_160592" data-name="Trazado 160592" d="M412.875,221.509a1.986,1.986,0,0,1,2.461-1.359l10.447,3.008" fill="none" stroke="#000" stroke-miterlimit="10" stroke-width="0.75"/>
            <path id="Trazado_160593" data-name="Trazado 160593" d="M60.462,254.519a2.031,2.031,0,0,0,2.6,1.321l3.508-1.279a2.153,2.153,0,0,0,1.238-2.722l-.276-.815a2.031,2.031,0,0,0-2.6-1.323l-3.508,1.278a2.154,2.154,0,0,0-1.237,2.724Z" fill="#062e78"/>
            <path id="Trazado_160594" data-name="Trazado 160594" d="M51.313,280.784c3.825,11.324,15.643,17.329,26.4,13.407s16.366-16.285,12.543-27.608-15.643-17.327-26.4-13.407-16.366,16.281-12.542,27.608" fill="#0a4dc8"/>
            <path id="Trazado_160595" data-name="Trazado 160595" d="M54.477,279.631c3.2,9.483,13.1,14.51,22.108,11.227s13.707-13.635,10.5-23.122-13.1-14.511-22.107-11.226-13.71,13.633-10.505,23.121" fill="#fff"/>
            <path id="Trazado_160596" data-name="Trazado 160596" d="M67.5,272.135l3.023,1.535,3.026,1.537,3.2-15.237Z" fill="#d63b30"/>
            <path id="Trazado_160597" data-name="Trazado 160597" d="M70.526,273.67,67.5,272.135l-3.2,15.236,9.248-12.165Z" fill="#e8f7f2"/>
            <path id="Trazado_160598" data-name="Trazado 160598" d="M66.269,241.47a5.832,5.832,0,1,0-1.385,8.131A5.832,5.832,0,0,0,66.269,241.47Z" fill="none" stroke="#000" stroke-miterlimit="10" stroke-width="0.75"/>
            <path id="Trazado_160599" data-name="Trazado 160599" d="M54.477,279.631c3.2,9.483,13.1,14.51,22.108,11.227s13.707-13.635,10.5-23.122-13.1-14.511-22.107-11.226S51.272,270.143,54.477,279.631Z" fill="none" stroke="#000" stroke-miterlimit="10" stroke-width="0.75"/>
            <line id="Línea_616" data-name="Línea 616" x1="9.248" y2="12.165" transform="translate(67.503 259.969)" fill="none" stroke="#000" stroke-miterlimit="10" stroke-width="0.75"/>
            <path id="Trazado_160600" data-name="Trazado 160600" d="M64.3,287.371l9.248-12.164-3.026-1.537L67.5,272.135" fill="none" stroke="#000" stroke-miterlimit="10" stroke-width="0.75"/>
            <path id="Trazado_160601" data-name="Trazado 160601" d="M633.506,289.838a.979.979,0,0,1-.072-.112,2.329,2.329,0,0,1-.157-.32,3.444,3.444,0,0,1-.257-1.176,3.479,3.479,0,0,1,.378-1.7,3.3,3.3,0,0,1,.66-.9,3.478,3.478,0,0,1,1.061-.711,3.524,3.524,0,0,1,1.278-.258,3.315,3.315,0,0,1,1.137.2,3.3,3.3,0,0,1,1.446,1.007,3,3,0,0,1,.377.558,2.34,2.34,0,0,1,.219.477,2.978,2.978,0,0,1,.1.336c.02.08.027.126.027.126l-.107.151-.3-.187a8.85,8.85,0,0,0-.822-.441,5.319,5.319,0,0,0-.569-.241,4.4,4.4,0,0,0-.658-.17,2.963,2.963,0,0,0-.712-.032,2.349,2.349,0,0,0-.7.18,2.7,2.7,0,0,0-1.116.891,4.921,4.921,0,0,0-.633,1.132,7.129,7.129,0,0,0-.4,1.221Z" fill="#fa6403"/>
            <path id="Trazado_160602" data-name="Trazado 160602" d="M605.523,300.154l-1.5.6a.931.931,0,0,0,.512,1.78l1.493-.273Z" fill="#fa6403"/>
            <path id="Trazado_160603" data-name="Trazado 160603" d="M667.1,275.6l1.5-.6a.931.931,0,0,1,.853,1.644l-1.271.83Z" fill="#fa6403"/>
            <path id="Trazado_160604" data-name="Trazado 160604" d="M658.434,271.976c-6.012,1.37-15.268,4.192-20.307,9.3-1.066,1.089-.114,3.34.241,4.562a20.066,20.066,0,0,0,3.079,6.708c3.366,4.307,10.027,5.516,15.186,4.6,4.84-.86,10.078-3.919,12.394-8.4,2.128-4.115,1.338-8.645-.895-12.55a8.888,8.888,0,0,0-9.7-4.226" fill="#fa6403"/>
            <path id="Trazado_160605" data-name="Trazado 160605" d="M609.414,291.518c5.306-3.142,13.965-7.462,21.138-7.22,1.522.058,2.38,2.346,2.963,3.476a20.088,20.088,0,0,1,2.38,6.987c.52,5.442-3.482,10.9-7.856,13.786-4.1,2.706-10.01,4.089-14.772,2.433-4.375-1.521-6.918-5.353-7.984-9.723a8.889,8.889,0,0,1,4.131-9.739" fill="#fa6403"/>
            <path id="Trazado_160606" data-name="Trazado 160606" d="M623.7,307.647a15.277,15.277,0,0,0,2.734-1.418c3.295-2.173,6.654-6.475,6.242-10.785a16.466,16.466,0,0,0-1.923-5.588c-.074-.144-.154-.308-.239-.485-.246-.512-.9-1.873-1.349-1.891a24.574,24.574,0,0,0-9.611,2.088,57.35,57.35,0,0,0-7.912,3.952,6.468,6.468,0,0,0-3.026,7.125c.539,2.211,2.053,6.131,6.13,7.549A13.124,13.124,0,0,0,623.7,307.647Z"/>
            <path id="Trazado_160607" data-name="Trazado 160607" d="M659.162,293.511a15.232,15.232,0,0,1-2.959.852c-3.887.69-9.284-.122-11.95-3.533a16.469,16.469,0,0,1-2.449-5.378c-.045-.156-.1-.33-.161-.517-.173-.541-.635-1.979-.321-2.3a24.575,24.575,0,0,1,8.411-5.1,57.46,57.46,0,0,1,8.461-2.575,6.467,6.467,0,0,1,7.1,3.089c1.13,1.975,2.728,5.862.745,9.7A13.134,13.134,0,0,1,659.162,293.511Z"/>
            <path id="Trazado_160608" data-name="Trazado 160608" d="M638.127,281.278c-1.065,1.089-.113,3.34.241,4.562a20.085,20.085,0,0,0,3.079,6.708c3.366,4.307,10.028,5.516,15.186,4.6" fill="none" stroke="#000" stroke-miterlimit="10" stroke-width="0.75"/>
            <path id="Trazado_160609" data-name="Trazado 160609" d="M613.268,310.98c-4.375-1.522-6.919-5.353-7.984-9.723a8.889,8.889,0,0,1,4.131-9.739c5.3-3.142,13.964-7.462,21.137-7.22" fill="none" stroke="#000" stroke-miterlimit="10" stroke-width="0.75"/>
            <line id="Línea_617" data-name="Línea 617" x1="1.339" y2="17.208" transform="translate(616.39 290.343)" fill="none" stroke="#fff" stroke-miterlimit="10" stroke-width="0.75"/>
            <line id="Línea_618" data-name="Línea 618" x1="1.073" y2="14.988" transform="translate(619.201 289.329)" fill="none" stroke="#fff" stroke-miterlimit="10" stroke-width="0.75"/>
            <line id="Línea_619" data-name="Línea 619" x1="1.339" y2="17.208" transform="translate(650.733 276.652)" fill="none" stroke="#fff" stroke-miterlimit="10" stroke-width="0.75"/>
            <line id="Línea_620" data-name="Línea 620" x1="1.074" y2="14.988" transform="translate(653.543 275.638)" fill="none" stroke="#fff" stroke-miterlimit="10" stroke-width="0.75"/>
            <path id="Trazado_160610" data-name="Trazado 160610" d="M338.667,401.1H231.775l4.234-79.022-41.981-19.4c22.225-63.5,72.366-61.027,72.366-61.027l25.289,2.819s48.8-1.059,60.444,51.858l1.764,8.819-25.542,3.175Z" fill="#0a4dc8"/>
            <path id="Trazado_160611" data-name="Trazado 160611" d="M271.842,157.634a2.277,2.277,0,0,0,.948-.808c3.4-5.291,10.355-5.714,16.019-5.575a37.568,37.568,0,0,1,15.757,3.579,14.085,14.085,0,0,1,5.837,5.279c1.3,2.211.891,5.39,3.111,6.946,2.079,1.458,5.533,1.968,7.924,2.863,2.61.978,8.189,2.657,6.645,6.517-2.822,7.056-33.043,11.995-33.043,11.995l-26.084,41.026c-1.25,1.965-8.18-1.607-9.5-2.63-14.026-10.847-11.4-41.515-5.639-55.981a21.532,21.532,0,0,1,7.134-9.747,17.04,17.04,0,0,1,5.61-2.61c1.455-.382,3.816-.138,5.283-.854"/>
            <path id="Trazado_160612" data-name="Trazado 160612" d="M266.394,207.086v38.145s11.066,9.169,25.288.7V222.857Z" fill="#e95628"/>
            <path id="Trazado_160613" data-name="Trazado 160613" d="M268.956,220.355s4.057,15.639,22.727,20.361V222.857l-10.45-5.272Z"/>
            <path id="Trazado_160614" data-name="Trazado 160614" d="M319.973,179.176s7.47,29-2.656,46.024-37.287,11.4-46.032.349l-3.831-5.412V179.176l7.713-11.56,23.762,1.726Z" fill="#e95628"/>
            <path id="Trazado_160615" data-name="Trazado 160615" d="M270.974,194.006s-9.319-4.97-13.046,2.071,6.834,18.844,13.046,14.081Z" fill="#e95628"/>
            <path id="Trazado_160616" data-name="Trazado 160616" d="M301.708,198.32a24.666,24.666,0,0,1,1.167,3.334c.14.542.512,1.569.27,2.125-.5,1.143-3.162,1.078-4.216,1.235" fill="none" stroke="#000" stroke-miterlimit="10" stroke-width="0.75"/>
            <path id="Trazado_160617" data-name="Trazado 160617" d="M304.6,210.96a5.081,5.081,0,0,1-6.933,0" fill="none" stroke="#000" stroke-miterlimit="10" stroke-width="0.75"/>
            <path id="Trazado_160618" data-name="Trazado 160618" d="M311.848,200.59a2.415,2.415,0,1,0,2.415-2.416,2.416,2.416,0,0,0-2.415,2.416"/>
            <path id="Trazado_160619" data-name="Trazado 160619" d="M283.59,200.59a2.416,2.416,0,1,0,2.416-2.416,2.416,2.416,0,0,0-2.416,2.416"/>
            <path id="Trazado_160620" data-name="Trazado 160620" d="M262.4,197.244a16.341,16.341,0,0,1,2.94,6.585" fill="none" stroke="#000" stroke-miterlimit="10" stroke-width="0.75"/>
            <path id="Trazado_160621" data-name="Trazado 160621" d="M266.394,197.244a9.2,9.2,0,0,0-2.09,3.346" fill="none" stroke="#000" stroke-miterlimit="10" stroke-width="0.75"/>
            <path id="Trazado_160622" data-name="Trazado 160622" d="M278.607,194c3.349-3.645,9.8-3.481,13.1.21l-.044.061c-.5-.3-.972-.634-1.487-.9-3.617-2.056-8.249-1.476-11.567.627"/>
            <path id="Trazado_160623" data-name="Trazado 160623" d="M309.3,193.963a6.81,6.81,0,0,1,10.165.163l-.043.061a9,9,0,0,0-10.122-.224"/>
            <path id="Trazado_160624" data-name="Trazado 160624" d="M271.938,212.326a8.382,8.382,0,1,0,8.382-8.382,8.382,8.382,0,0,0-8.382,8.382" fill="#ff8878"/>
            <path id="Trazado_160625" data-name="Trazado 160625" d="M322.58,204.1a50.973,50.973,0,0,1-3.031,16.475A8.376,8.376,0,1,1,322.58,204.1" fill="#ff8878"/>
            <path id="Trazado_160626" data-name="Trazado 160626" d="M261.36,168.517c2.959-5.991,10.381-10.3,16.473-7.554-1.98-.893,5.957-6.663,6.626-6.94.092-.039-4.326.011-7.3.029a4.071,4.071,0,0,0-.106-1.2c24.161-10.294,59.851,2.988,61.237,25.352.318,5.13-1.238,10.745-5.424,13.728-4.877,3.475-11.683,2.364-17.151-.08a42.221,42.221,0,0,1-12.035-8.118c-5.906-5.687-13.729-16.206-23.36-12.805-8.075,2.851-10.492,7.52-12.866,21.48-2.231-.328-3.25-1-5.481-1.333a2.507,2.507,0,0,1-2.621-2.883c-.6-6.655-.951-13.689,2.008-19.68"/>
            <path id="Trazado_160627" data-name="Trazado 160627" d="M195.728,303.457s-20.985,37.079-9.7,60.6,45.155,21.166,75.729-4.469c0,0,22.813-21.637,32.221-33.161l-17.4-8.232s-32.738,13.9-41.181,15.3l.612-11.418Z" fill="#e95628"/>
            <line id="Línea_621" data-name="Línea 621" y1="35.407" x2="2.942" transform="translate(235.397 298.085)" fill="none" stroke="#000" stroke-miterlimit="10" stroke-width="0.75"/>
            <line id="Línea_622" data-name="Línea 622" x1="2.03" y1="14.464" transform="translate(326.319 293.852)" fill="none" stroke="#000" stroke-miterlimit="10" stroke-width="0.75"/>
            <path id="Trazado_160628" data-name="Trazado 160628" d="M353,305.251s4.531,25.261,4.991,29.93c3.969,40.3,2.511,48.814,1.618,61.682H338.2l-9.847-88.547Z" fill="#e95628"/>
            <path id="Trazado_160629" data-name="Trazado 160629" d="M279.822,285.67l19.536-7a2.119,2.119,0,0,1,2.711,1.281l13.824,38.583a2.119,2.119,0,0,1-1.28,2.71l-19.537,7a2.119,2.119,0,0,1-2.71-1.28L278.542,288.38a2.119,2.119,0,0,1,1.28-2.71"/>
            <path id="Trazado_160630" data-name="Trazado 160630" d="M273.412,316.869c3.445-3.121,5.023-18.31,8.737-21.225s1.677,12.456,1.677,12.456q1.133-1.439,2.284-2.86,2.444-3.03,4.954-6c1.54-1.813,3.1-3.6,4.782-5.292a2.426,2.426,0,0,1,2.239-.713c1.006.157,2.577.78,2.944,1.838a2.073,2.073,0,0,1-.531,1.837s1.782-1.07,3.12,1.178-.346,3.28-.346,3.28a2.631,2.631,0,0,1,2.813,1.442c1.024,1.812.769,3.452-.947,4.346.33-.173,1.307.359,1.545.545,1.339,1.051.542,3.1-.03,4.341a19.219,19.219,0,0,1-3.457,4.727c-3.019,3.3-33.722,37.024-39.933,40.565l-3.995-32.057s10.7-5.283,14.144-8.4" fill="#e95628"/>
            <path id="Trazado_160631" data-name="Trazado 160631" d="M290.7,307.135l9.8-10.229a1.75,1.75,0,0,0-.239-2.8" fill="none" stroke="#000" stroke-miterlimit="10" stroke-width="0.75"/>
            <path id="Trazado_160632" data-name="Trazado 160632" d="M293.754,310.237l9.518-8.874s1.605-1.516.552-2.894" fill="none" stroke="#000" stroke-miterlimit="10" stroke-width="0.75"/>
            <path id="Trazado_160633" data-name="Trazado 160633" d="M298.126,314.146l7.011-6.995s1.619-1.261,1.588-2.474" fill="none" stroke="#000" stroke-miterlimit="10" stroke-width="0.75"/>
            <path id="Trazado_160634" data-name="Trazado 160634" d="M306.682,307.7s1.464.873-.029,4.341-6.733,8.471-6.733,8.471" fill="none" stroke="#000" stroke-miterlimit="10" stroke-width="0.75"/>
            <path id="Trazado_160635" data-name="Trazado 160635" d="M297.218,244.818s-3.325,8.882-16.9,8.882-20.2-7.45-21.052-11.6" fill="none" stroke="#000" stroke-miterlimit="10" stroke-width="0.75"/>
          </g>
        </g>
      </g>
    </g>
  </g>
</svg>
