<svg xmlns="http://www.w3.org/2000/svg" xmlns:xlink="http://www.w3.org/1999/xlink" width="105" height="105" viewBox="0 0 105 105">
  <defs>
    <clipPath id="clip-path">
      <rect id="Rectángulo_42477" data-name="Rectángulo 42477" width="84.788" height="49.338" fill="none"/>
    </clipPath>
  </defs>
  <g id="_35" data-name="35" transform="translate(-442 -5182)">
    <circle id="Elipse_4906" data-name="Elipse 4906" cx="52.5" cy="52.5" r="52.5" transform="translate(442 5182)" fill="#a6bbff"/>
    <g id="Grupo_169257" data-name="Grupo 169257" transform="translate(452 5210)">
      <g id="Grupo_169256" data-name="Grupo 169256" transform="translate(0 0)" clip-path="url(#clip-path)">
        <path id="Trazado_160636" data-name="Trazado 160636" d="M78.307,17.247a1.5,1.5,0,0,1,1.521.9,23.79,23.79,0,0,1,2.736,8.246c.075.564.286.64.775.647a34.671,34.671,0,0,1,6.427.266A14.025,14.025,0,0,1,100.825,39c.016.111.021.217.148.259v1.822a1.272,1.272,0,0,0,0,.994v.5a5.142,5.142,0,0,0-.394,1.558A13.678,13.678,0,0,1,87.509,54.6c-11.165.1-22.331.03-33.5.039a1.5,1.5,0,0,1-1.424-.805c-.252-1.463.118-1.886,1.724-1.888q11.673-.015,23.347,0c3.091,0,6.183.048,9.273-.012a11.066,11.066,0,0,0,6.125-20.407,11.672,11.672,0,0,0-6.28-1.788c-1.573-.006-3.146.011-4.72-.006-1.436-.016-1.88-.476-2.037-1.918a22.713,22.713,0,0,0-2.367-7.97c-.088-.172-.193-.336-.275-.51a1.331,1.331,0,0,1,.927-2.082" transform="translate(-16.185 -5.314)"/>
        <path id="Trazado_160637" data-name="Trazado 160637" d="M3.826,24.361a1.3,1.3,0,0,1-.243-1.9c3.876-5.908,9.328-8.757,16.4-8.41a.952.952,0,0,0,1.077-.583A24.336,24.336,0,0,1,39.287.284c.324-.055.719.05.971-.284h.828c.091.1.214.081.331.085S41.656.1,41.748,0H44.4a.215.215,0,0,0,.331,0h.5c1.115.214,2.237.4,3.345.647A24.111,24.111,0,0,1,59.923,6.721c.7.657.726,1.114.158,2.034a1.392,1.392,0,0,1-2.048-.1c-.764-.633-1.484-1.317-2.3-1.889A21.488,21.488,0,0,0,44.918,2.8a19.392,19.392,0,0,0-7.447.62A21.671,21.671,0,0,0,24.017,13.659c-.425.711-.759,1.469-1.135,2.205a1.6,1.6,0,0,1-1.984.979,3.2,3.2,0,0,0-.645-.058c-5.964-.518-10.6,1.786-14.047,6.613a4.983,4.983,0,0,1-.7.915,1.186,1.186,0,0,1-1.679.047" transform="translate(-1.01 0)"/>
        <path id="Trazado_160638" data-name="Trazado 160638" d="M.147,41.683c.076-.854.1-1.739,1.182-2,1.067-.12,1.581.335,1.579,1.436,0,.854-.2,1.691-.2,2.553a15.348,15.348,0,0,0,12.5,14.913,24.356,24.356,0,0,0,4.284.285c4.3,0,8.6-.028,12.9.01.891.3,1.13.607,1.064,1.37-.318,1.056-.616,1.292-1.7,1.292-4.663,0-9.326.028-13.988,0A17.964,17.964,0,0,1,.186,46.337c-.03-.172.066-.4-.186-.5V43.357c.175-.282.045-.594.086-.888a2.2,2.2,0,0,1,.062-.786" transform="translate(0 -12.224)"/>
        <path id="Trazado_160639" data-name="Trazado 160639" d="M58.249.139c-.134.015-.273.042-.321-.139h.331c.056.035.073.068.052.1a.083.083,0,0,1-.062.042" transform="translate(-17.853 0)" fill="#616161"/>
        <path id="Trazado_160640" data-name="Trazado 160640" d="M58.392.139Q58.4.07,58.4,0h.331a.272.272,0,0,1-.342.139" transform="translate(-17.996 0)" fill="#444"/>
        <path id="Trazado_160641" data-name="Trazado 160641" d="M63.047,0c-.111.219-.221.174-.331,0Z" transform="translate(-19.329 0)" fill="#525252"/>
        <path id="Trazado_160642" data-name="Trazado 160642" d="M37.613,49.161a1.5,1.5,0,0,0-1-1.191,2.6,2.6,0,0,0-.9-.051q-5.788-.006-11.578,0a3.411,3.411,0,0,1-1.672-.369c-5.07-2.722-8.188-6.951-8.836-12.621-.8-6.987,1.882-12.548,7.858-16.412a5.8,5.8,0,0,1,1.886-.806,2.863,2.863,0,0,1,.652.03,1.438,1.438,0,0,0,1.877-.872,5.8,5.8,0,0,1,3.013-.692,12.84,12.84,0,0,1,3.212.08c.616.117.823-.3,1.032-.735A23.515,23.515,0,0,1,37.9,8.917a23.029,23.029,0,0,1,7.533-4.971,5.482,5.482,0,0,1,2.684-.183,21.1,21.1,0,0,1,12.922,5.62c.667.6,1.3,1.032,2.19.508a12.594,12.594,0,0,1,2.232,2.642c.216.3.4.585.818.535-1.023.617-1.2,1.1-.659,2.095a22.189,22.189,0,0,1,2.637,8.879c.072.9.528,1.268,1.484,1.293,2.288.059,4.581-.146,6.864.125a11.465,11.465,0,0,1,9.854,11.3,11.3,11.3,0,0,1-9.949,11.09,19.578,19.578,0,0,1-2.063.111q-16.144.01-32.288.006c-1.312,0-1.7.418-1.6,1.682a.75.75,0,0,0-.81-.506c-.709.048-1.424.013-2.136.013" transform="translate(-4.155 -1.136)" fill="#ebf5fd"/>
        <path id="Trazado_160643" data-name="Trazado 160643" d="M19.8,23.922a18.863,18.863,0,0,0-5.411,3.988,15.846,15.846,0,0,0-4.024,8.329A16.358,16.358,0,0,0,19.7,53.912a2.183,2.183,0,0,0,.973.125q5.75,0,11.5.006c.293,0,.612-.1.871.136-4.913,0-9.826.039-14.738-.008A15.446,15.446,0,0,1,3.1,38.069c.024-.522.111-1.042.167-1.563.127-1.159-.19-1.561-1.341-1.7a1.11,1.11,0,0,0,.679-.812c.21-.778.531-1.525.807-2.286,1.1.308,1.323.19,2.019-.834a15.032,15.032,0,0,1,14.052-7.01,2.391,2.391,0,0,1,.323.061" transform="translate(-0.592 -7.345)" fill="#daeafa"/>
        <path id="Trazado_160644" data-name="Trazado 160644" d="M53.643,3.722c-3.126-.11-5.442,1.707-7.777,3.371a21.91,21.91,0,0,0-6.989,8.513c-.359.744-.714.9-1.574.794a13.96,13.96,0,0,0-5.476.365,3.6,3.6,0,0,1-.406.064,21.72,21.72,0,0,1,15.6-12.74,17.253,17.253,0,0,1,6.625-.367" transform="translate(-9.684 -1.094)" fill="#daeafa"/>
      </g>
    </g>
  </g>
</svg>
