<svg xmlns="http://www.w3.org/2000/svg" xmlns:xlink="http://www.w3.org/1999/xlink" width="105" height="105" viewBox="0 0 105 105">
  <defs>
    <clipPath id="clip-path">
      <rect id="Rectángulo_42478" data-name="Rectángulo 42478" width="64.239" height="64.258" fill="none"/>
    </clipPath>
  </defs>
  <g id="_36" data-name="36" transform="translate(-757 -5182)">
    <circle id="Elipse_4907" data-name="Elipse 4907" cx="52.5" cy="52.5" r="52.5" transform="translate(757 5182)" fill="#a6bbff"/>
    <g id="Grupo_169260" data-name="Grupo 169260" transform="translate(777 5202)">
      <g id="Grupo_169259" data-name="Grupo 169259" clip-path="url(#clip-path)">
        <path id="Trazado_160645" data-name="Trazado 160645" d="M33.279,17.612a13.384,13.384,0,0,1,10.4-7.124c6.8-.926,13.564,3.935,14.994,11.393a14.051,14.051,0,0,1-.106,6.032c-.121.5.158.568.49.7a8.245,8.245,0,0,1,5.175,8.3,8.125,8.125,0,0,1-5.8,7.315,8.6,8.6,0,0,1-2.489.332q-16.572-.008-33.145,0a8.167,8.167,0,0,1-7.869-10.844c.065-.2.133-.4.2-.609a16.584,16.584,0,1,1,18.007-15.75c-.028.128-.142.305.144.257" transform="translate(0 0)"/>
        <path id="Trazado_160646" data-name="Trazado 160646" d="M55.378,121.684a2.9,2.9,0,0,1-3.076-2.178,2.779,2.779,0,0,1,1.479-3.258c1.411-.631,2.865-1.168,4.3-1.744a.946.946,0,0,1,1.072.226.967.967,0,0,1,.241,1.126c-.561,1.4-1.089,2.805-1.692,4.183a2.613,2.613,0,0,1-2.325,1.645" transform="translate(-30.464 -66.763)"/>
        <path id="Trazado_160647" data-name="Trazado 160647" d="M84.945,121.687a2.877,2.877,0,0,1-1.23-5.482c1.379-.6,2.789-1.126,4.185-1.687a.965.965,0,0,1,1.125.242.946.946,0,0,1,.225,1.073c-.576,1.436-1.123,2.885-1.746,4.3a2.691,2.691,0,0,1-2.558,1.555" transform="translate(-47.876 -66.768)"/>
        <path id="Trazado_160648" data-name="Trazado 160648" d="M114.433,118.516a2.646,2.646,0,0,1,1.7-2.337c1.341-.579,2.714-1.084,4.068-1.634a1,1,0,0,1,1.185.223.984.984,0,0,1,.2,1.134c-.557,1.374-1.072,2.766-1.664,4.125a2.828,2.828,0,0,1-3.261,1.607,2.9,2.9,0,0,1-2.229-3.118" transform="translate(-66.767 -66.774)"/>
        <path id="Trazado_160649" data-name="Trazado 160649" d="M65,144.067a2.877,2.877,0,0,1-1.317-5.415c1.427-.647,2.9-1.189,4.359-1.77a1.03,1.03,0,0,1,1.313,1.312c-.58,1.457-1.133,2.927-1.771,4.36A2.7,2.7,0,0,1,65,144.067" transform="translate(-36.269 -79.822)"/>
        <path id="Trazado_160650" data-name="Trazado 160650" d="M92.049,140.892a2.659,2.659,0,0,1,1.714-2.333c1.323-.568,2.674-1.069,4.007-1.612a1.052,1.052,0,0,1,1.407,1.423c-.544,1.333-1.046,2.685-1.615,4.007a2.846,2.846,0,0,1-3.3,1.64,2.9,2.9,0,0,1-2.211-3.124" transform="translate(-53.707 -79.838)"/>
        <path id="Trazado_160651" data-name="Trazado 160651" d="M79.538,41.923c0,.129-.122.24-.179.187-.136-.13-.07-.3.035-.444.059.08-.012.232.144.257" transform="translate(-46.259 -24.311)" fill="#5e5e5e"/>
        <path id="Trazado_160652" data-name="Trazado 160652" d="M78.285,36.893A12.385,12.385,0,0,1,79.6,46.787c-.016.062-.034.125-.052.187-.379,1.3-.251,1.546,1.034,1.981.057.065.127.14.111.225-.1.525.231.639.641.749a7.157,7.157,0,0,1,2.552,1.325,9.435,9.435,0,0,1,.741.8A6.145,6.145,0,0,1,79.3,61.12c-6.039.02-12.077.005-18.116.005-5.09,0-10.179-.009-15.269,0a6.155,6.155,0,0,1-5.59-8.784.777.777,0,0,1,.115-.153,5.364,5.364,0,0,1,2.411-1.89c.6-.247,1.124-.5,1.209-1.225.976-.416,1.062-.539,1.032-1.648a7.522,7.522,0,0,1,1.028-4.308A8.826,8.826,0,0,1,53.5,39.71a5.322,5.322,0,0,1,1.148.157c.148.034.373.039.3.308-.071.9-.286,1.78-.287,2.689,0,.351.064.512.454.483.492-.036,1.077.142,1.459-.068.408-.224.143-.862.207-1.314a12.332,12.332,0,0,1,1.727-5.073,12.326,12.326,0,0,1,16.574-2.943,10.324,10.324,0,0,1,3.2,2.946" transform="translate(-23.204 -18.637)" fill="#c3e1fe"/>
        <path id="Trazado_160653" data-name="Trazado 160653" d="M17.293,26.5c1.035-.056,1.035-.056,1.035-1.123,0-.938,0-.938-1.035-.993-.145-.17-.079-.367-.06-.554a11.074,11.074,0,0,1,1.21-3.964c.115-.225.192-.544.559-.523a1.007,1.007,0,0,1,.108.065c.334.262.653.916.93.787a5.417,5.417,0,0,0,1.315-1.218c.172-.172-.01-.267-.1-.365-.3-.309-.6-.621-.917-.914-.2-.186-.236-.306.015-.494a10.323,10.323,0,0,1,4.834-2.013c.3-.043.457,0,.4.337a.535.535,0,0,0,0,.129c.037.487-.217,1.229.1,1.4.451.246,1.126.075,1.7.1.256.01.268-.137.264-.327a7.841,7.841,0,0,0-.01-.97c-.09-.614.146-.756.722-.641a10.954,10.954,0,0,1,4.463,1.939c.287.213.326.364.031.573a.362.362,0,0,0-.046.045c-1.158,1.2-1.146,1.291.191,2.344.182.144.277.137.422-.017.267-.282.562-.539.818-.83s.425-.379.709.021A10.411,10.411,0,0,1,36.908,24.4a12.417,12.417,0,0,1-1.309-.009c-.544-.058-.735.082-.712.68.053,1.4.016,1.39,1.4,1.41.2,0,.561-.157.574.155.013.342.113.806-.4.983a8.26,8.26,0,0,0-1.84.929,10.021,10.021,0,0,0-4.377,6.024,1.011,1.011,0,0,1-.875.847c-.527.114-1.165.463-1.555.237-.429-.248-.131-.968-.15-1.478-.013-.365-.107-.487-.472-.46-.512.037-1.18-.162-1.5.093-.343.271-.11.968-.1,1.475.007.4-.122.449-.476.4A10.422,10.422,0,0,1,20.4,33.716c-.306-.227-.28-.374-.017-.575A.91.91,0,0,0,20.52,33c.288-.342.961-.692.844-.97-.217-.517-.781-.888-1.2-1.322-.17-.177-.263-.018-.368.079-.267.248-.532.5-.8.749-.224.06-.309-.113-.389-.254a10.521,10.521,0,0,1-1.4-4.49.38.38,0,0,1,.085-.3" transform="translate(-10.036 -8.853)" fill="#dee4ef"/>
        <path id="Trazado_160654" data-name="Trazado 160654" d="M21.71,31.754a7.944,7.944,0,0,0-2.2,1.789.781.781,0,0,1-.738.27A14.55,14.55,0,1,1,33.771,16.59a15.775,15.775,0,0,1,.205,3.8c-.027.384-.138.576-.588.512-.485-.07-1.155.141-1.426-.112-.237-.221-.025-.916-.022-1.4a12.468,12.468,0,1,0-11.8,12.356c.473-.021.944-.09,1.416-.137.143-.047.173.022.15.146" transform="translate(-2.933 -2.742)" fill="#96a5be"/>
        <path id="Trazado_160655" data-name="Trazado 160655" d="M104.54,35.655c-.694-.631-1.287-1.363-2.041-1.938A12.972,12.972,0,0,0,96.061,31c-4.281-.5-7.768,1.073-10.723,4.068-.19.192-.241.526-.57.581a11.322,11.322,0,0,1,19.423-.611c.134.192.233.409.348.614" transform="translate(-49.459 -17.398)" fill="#b2d9fd"/>
        <path id="Trazado_160656" data-name="Trazado 160656" d="M63.842,49.817a6.263,6.263,0,0,0-3.643-.092,9.158,9.158,0,0,0-4.7,2.626,6.016,6.016,0,0,1-.489.41,7.992,7.992,0,0,1,8.666-4.1c.369.1.516.238.353.612-.075.174-.123.36-.183.541" transform="translate(-32.094 -28.279)" fill="#b2d9fc"/>
        <path id="Trazado_160657" data-name="Trazado 160657" d="M17.782,24.655a9.559,9.559,0,0,0-1.569,4.288c-.039.254-.088.5-.14.753h-.962a9.9,9.9,0,0,1,2.079-5.238c.339-.439.414.067.592.2" transform="translate(-8.817 -14.168)" fill="#d4dbe9"/>
        <path id="Trazado_160658" data-name="Trazado 160658" d="M16.069,42.32c.13.69.224,1.389.4,2.068a8.442,8.442,0,0,0,1.311,2.974c-.255.479-.47.407-.759,0A10.338,10.338,0,0,1,15.1,42.352a2.6,2.6,0,0,1,.965-.033" transform="translate(-8.813 -24.675)" fill="#d4dce9"/>
        <path id="Trazado_160659" data-name="Trazado 160659" d="M141.664,75.879a9.422,9.422,0,0,0-3.086-1.9.759.759,0,0,0-.186-.05c-.8-.02-1-.434-.773-1.145a5.657,5.657,0,0,1,4.045,3.094" transform="translate(-80.244 -42.468)" fill="#b1d8fc"/>
        <path id="Trazado_160660" data-name="Trazado 160660" d="M44.989,73.075c.1.663-.107,1.023-.823,1.232a7.832,7.832,0,0,0-2.8,1.883,5.487,5.487,0,0,1,3.62-3.114" transform="translate(-24.137 -42.637)" fill="#b2d8fc"/>
        <path id="Trazado_160661" data-name="Trazado 160661" d="M44.87,69.291l-.15-.146a.48.48,0,0,1,.485-.078c-.053.17-.195.2-.335.225" transform="translate(-26.093 -40.279)" fill="#6f7a8c"/>
        <path id="Trazado_160662" data-name="Trazado 160662" d="M58.059,123.874a.755.755,0,0,1-.833-.564.73.73,0,0,1,.312-.906c.5-.252,1.025-.435,1.541-.646.192-.078.325,0,.249.193a8.476,8.476,0,0,1-.711,1.65.633.633,0,0,1-.557.273" transform="translate(-33.366 -71.024)" fill="#c1dffc"/>
        <path id="Trazado_160663" data-name="Trazado 160663" d="M87.87,123.879a.724.724,0,0,1-.791-.531.751.751,0,0,1,.33-.956c.477-.241.99-.41,1.485-.615.171-.071.361-.038.286.152a6.281,6.281,0,0,1-.784,1.752.619.619,0,0,1-.526.2" transform="translate(-50.779 -71.032)" fill="#c1dffc"/>
        <path id="Trazado_160664" data-name="Trazado 160664" d="M120.229,123.872a.745.745,0,0,1-.818-.554.728.728,0,0,1,.3-.908c.494-.254,1.025-.435,1.539-.65.193-.081.335-.006.26.182a7.186,7.186,0,0,1-.749,1.7.613.613,0,0,1-.534.231" transform="translate(-69.646 -71.023)" fill="#c1dffc"/>
        <path id="Trazado_160665" data-name="Trazado 160665" d="M68.1,146.273c-.573-.024-.843-.217-.928-.6a.756.756,0,0,1,.391-.932c.464-.219.953-.387,1.43-.581.212-.086.365-.038.275.2a16.735,16.735,0,0,1-.68,1.594.584.584,0,0,1-.488.313" transform="translate(-39.177 -84.09)" fill="#c1dffc"/>
        <path id="Trazado_160666" data-name="Trazado 160666" d="M97.812,146.344a.739.739,0,0,1-.779-.523.787.787,0,0,1,.215-.886.9.9,0,0,1,.334-.183c.516-.147.948-.564,1.534-.482a6.094,6.094,0,0,1-.641,1.717.655.655,0,0,1-.664.357" transform="translate(-56.585 -84.17)" fill="#c1dffc"/>
        <path id="Trazado_160667" data-name="Trazado 160667" d="M97.144,36.057a1.41,1.41,0,0,0,0,.259c.125.646-.154.787-.784.85a8.223,8.223,0,0,0-6.99,5.014c-.2.417-.342.586-.778.343a5.147,5.147,0,0,0-.668-.237c-.836-.322-.842-.129-.436-.986a10.377,10.377,0,0,1,8.593-6.207c1.055-.129,1.061-.085,1.061.963" transform="translate(-50.894 -20.446)"/>
        <path id="Trazado_160668" data-name="Trazado 160668" d="M28.575,31.78a.789.789,0,0,1,.038-.352c.393-.744.018-1.2-.518-1.679-.706-.63-1.342-1.339-2.024-2-.228-.22-.27-.35-.023-.611,1.147-1.212,1.136-1.221,2.3-.058.564.564,1.133,1.121,1.688,1.694a.539.539,0,0,0,.662.182,3.079,3.079,0,0,1,3.9,3.922c-.176.489.167.641.4.829.466.383.564.7.01,1.07a1.237,1.237,0,0,0-.184.181c-.739.746-.76.768-1.5.01-.282-.287-.5-.194-.8-.112a3.106,3.106,0,0,1-3.946-3.08" transform="translate(-15.1 -15.299)"/>
        <path id="Trazado_160669" data-name="Trazado 160669" d="M38.352,37.336a1.034,1.034,0,1,1-1.026,1.023,1.042,1.042,0,0,1,1.026-1.023" transform="translate(-21.778 -21.784)" fill="#b7c2d6"/>
      </g>
    </g>
  </g>
</svg>
