<svg xmlns="http://www.w3.org/2000/svg" xmlns:xlink="http://www.w3.org/1999/xlink" width="105" height="105" viewBox="0 0 105 105">
  <defs>
    <clipPath id="clip-path">
      <rect id="Rectángulo_42479" data-name="Rectángulo 42479" width="63.149" height="63.161" fill="none"/>
    </clipPath>
  </defs>
  <g id="_37" data-name="37" transform="translate(-1072 -5182)">
    <circle id="Elipse_4908" data-name="Elipse 4908" cx="52.5" cy="52.5" r="52.5" transform="translate(1072 5182)" fill="#a6bbff"/>
    <g id="Grupo_169263" data-name="Grupo 169263" transform="translate(1093 5203)">
      <g id="Grupo_169262" data-name="Grupo 169262" clip-path="url(#clip-path)">
        <path id="Trazado_160670" data-name="Trazado 160670" d="M33.051,0c.941.249,1.919.316,2.853.61A15.506,15.506,0,0,1,46.72,11.591c.181.613.4.765,1.018.759,3.618-.033,7.235-.03,10.852-.009a4.62,4.62,0,0,1-.034,9.239c-.7.009-1.394,0-2.14,0a11.332,11.332,0,0,1,.708,3.334c.01.615,0,1.233-.038,1.847-.021.31.068.378.361.378a9.647,9.647,0,0,1,1.965.087,4.619,4.619,0,0,1-.76,9.151c-.206.006-.411,0-.617,0H5.13c-2.672,0-4.116-1.034-5.012-3.579C.1,32.754.04,32.722,0,32.682v-1.85a4.726,4.726,0,0,1,4.9-3.866c.082,0,.165,0,.247,0,.706-.007.761-.028.726-.724a10.531,10.531,0,0,1,1.2-5.713,10.724,10.724,0,0,1,8-5.745c.476-.079.661-.259.708-.732a16.023,16.023,0,0,1,1.47-5.193,7.111,7.111,0,0,1,.442-.81c.417-.657.692-.765,1.5-.6A1.106,1.106,0,0,1,19.564,9.1a16.174,16.174,0,0,0-1.277,3.33,11.712,11.712,0,0,0-.355,2.68c-.007,1.264-.385,1.646-1.631,1.727A8.738,8.738,0,0,0,8.145,24.22a9.032,9.032,0,0,0,.06,3.128c.25,1.29-.177,1.8-1.5,1.811-.677.006-1.356-.015-2.034.007a2.591,2.591,0,1,0,0,5.181c.164.006.329,0,.493,0q26.417,0,52.832,0a2.967,2.967,0,0,0,2.366-.808,2.437,2.437,0,0,0,.6-2.616A2.465,2.465,0,0,0,58.9,29.2a13.9,13.9,0,0,0-1.847-.042c-.165,0-.329,0-.493,0-1.489-.007-1.846-.469-1.6-1.943a9.126,9.126,0,0,0-.417-4.793.89.89,0,0,0-.961-.669c-.986.024-1.973-.01-2.959.012a2.567,2.567,0,0,0-2.6,2.248c-.089.486-.079.984-.2,1.464a4.791,4.791,0,0,1-4.675,3.676q-11.529.018-23.056,0a4.8,4.8,0,1,1-.011-9.6c2.116-.024,4.234-.05,6.349.009a2.742,2.742,0,0,0,2.907-2.619,4.843,4.843,0,0,1,4.994-4.8q4.655,0,9.308,0c.165,0,.329,0,.493,0,.577-.021.641-.108.469-.681a9.272,9.272,0,0,0-.537-1.378,13.388,13.388,0,0,0-11.5-8.021,13.085,13.085,0,0,0-10.371,3.69c-.8.746-1.074.828-1.824.434a1.053,1.053,0,0,1,.029-1.707A14.362,14.362,0,0,1,29.74.057.189.189,0,0,0,29.845,0Z"/>
        <path id="Trazado_160671" data-name="Trazado 160671" d="M41.789,64.15a1.074,1.074,0,0,1,1.1-.623c2.733.013,5.465-.006,8.2.01a4.622,4.622,0,1,1,0,9.244c-.657.008-1.314,0-1.972,0a2.775,2.775,0,1,0,.028,5.546c3.143.008,6.287-.015,9.43.01a4.617,4.617,0,0,1,.011,9.234c-2.712.027-5.424.007-8.136.008-4.951,0-9.9-.045-14.854.017a4.785,4.785,0,0,1-4.961-4.567,2.734,2.734,0,0,0-3.072-2.849H5.126c-2.668,0-4.112-1.034-5.008-3.579C.1,76.555.041,76.522,0,76.482v-1.85c.206-.1.166-.315.22-.476a4.608,4.608,0,0,1,4.415-3.221c3.042-.014,6.084,0,9.126,0a2.807,2.807,0,0,0,3.14-2.986,4.6,4.6,0,0,1,4.527-4.4c5.8-.025,11.592-.007,17.387-.014a1.044,1.044,0,0,1,1.037.62c.18,1.034-.135,1.412-1.245,1.415-3.859.012-7.718,0-11.577,0-1.724,0-3.449-.007-5.173,0a2.615,2.615,0,0,0-2.929,2.76,4.81,4.81,0,0,1-1.682,3.443,4.75,4.75,0,0,1-3.281,1.192q-4.5.006-9,0a2.8,2.8,0,0,0-2.138.762A2.436,2.436,0,0,0,2.2,76.391,2.53,2.53,0,0,0,4.213,78.1a5.111,5.111,0,0,0,1.045.048q11.249,0,22.5,0A4.773,4.773,0,0,1,32.5,81.731a13.571,13.571,0,0,1,.242,1.583,2.556,2.556,0,0,0,2.424,2.224c.2.012.411.008.616.008q11.095,0,22.191,0a3.713,3.713,0,0,0,1.511-.224,2.561,2.561,0,0,0-.628-4.918,6.335,6.335,0,0,0-.923-.038q-4.376,0-8.753,0a4.834,4.834,0,0,1-4.847-5.744,4.811,4.811,0,0,1,4.588-3.859c.677-.021,1.356,0,2.034-.008a2.6,2.6,0,1,0-.02-5.194c-2.445-.015-4.89,0-7.335,0-.226,0-.452,0-.678,0-1-.033-1.3-.407-1.135-1.4" transform="translate(0 -24.438)"/>
        <path id="Trazado_160672" data-name="Trazado 160672" d="M27.868,72.072a5.13,5.13,0,0,0,1.618-3.727,2.726,2.726,0,0,1,2.848-2.572q8.537-.008,17.076,0c.914,0,1.206-.315,1.162-1.232a1.386,1.386,0,0,0,1.936,0c-.042.918.249,1.231,1.162,1.232q3.973,0,7.947,0a2.784,2.784,0,1,1-.016,5.55,17.985,17.985,0,0,0-2.459.053,4.4,4.4,0,0,0-3.771,3.112,4.45,4.45,0,0,0,1.14,4.758c.07.073.136.15.2.225-.015.381-.316.405-.572.4a36.735,36.735,0,0,1-5.351-.133,3.871,3.871,0,0,1-3.108-3.111c-.058-.344-.106-.69-.147-1.037a3.365,3.365,0,0,0-3.448-3.1c-5.073-.006-10.145,0-15.218-.013-.36,0-.863.193-1-.41" transform="translate(-10.721 -24.827)" fill="#ccd1e0"/>
        <path id="Trazado_160673" data-name="Trazado 160673" d="M20.272,8.679A14.2,14.2,0,0,0,21.5,7.2c.712.373.937.334,1.563-.273a13.873,13.873,0,0,1,22.539,4.785c.22.549.388,1.118.614,1.775h-.708q-4.964,0-9.927,0a4.636,4.636,0,0,0-4.916,4.591,2.767,2.767,0,0,1-3,2.808c-2.1,0-4.193,0-6.289,0a4.626,4.626,0,1,0-.019,9.246q11.437.009,22.876,0a4.588,4.588,0,0,0,4.683-4.363c.166-2.12,1.158-3.033,3.294-3.034.966,0,1.932.013,2.9-.007a.535.535,0,0,1,.589.385,9.093,9.093,0,0,1,.54,5.665c-.188.893.157,1.348,1.053,1.356.781.007,1.562-.007,2.343,0a2.775,2.775,0,1,1-.01,5.549q-8.664.012-17.327,0-18.128,0-36.257,0a2.806,2.806,0,0,1-3.036-2.714,2.77,2.77,0,0,1,2.669-2.828c.8-.025,1.6,0,2.4-.007,1,0,1.339-.427,1.129-1.394a8.951,8.951,0,0,1,8.549-10.937c.734-.024,1.082-.306,1.1-1.036a14.214,14.214,0,0,1,1.786-6.709.97.97,0,0,0-.367-1.383" transform="translate(-1.156 -1.156)" fill="#e8ecf4"/>
        <path id="Trazado_160674" data-name="Trazado 160674" d="M58.437,29.6a5.3,5.3,0,0,0-1.73,3.8A2.68,2.68,0,0,1,53.89,36Q42.429,36,30.967,36a2.775,2.775,0,1,1-.009-5.545c2.136-.008,4.273,0,6.409,0a4.6,4.6,0,0,0,4.788-4.509,2.808,2.808,0,0,1,3.06-2.888c2.013,0,4.025.012,6.037.019.045.3-.172.5-.32.708a3.524,3.524,0,0,0,2.631,5.547c1.357.113,2.71.041,4.064.091.279.01.584-.064.811.185" transform="translate(-10.802 -8.867)" fill="#bdc2d1"/>
        <path id="Trazado_160675" data-name="Trazado 160675" d="M72.2,29.6c-1.333,0-2.667.019-4-.028a5.446,5.446,0,0,1-1.981-.314,3.705,3.705,0,0,1-1.4-5.952l.194-.238q5.114-.01,10.229-.02,3.82,0,7.642,0a2.781,2.781,0,1,1,0,5.548c-2.342,0-4.684.036-7.025-.013A5.838,5.838,0,0,0,72.2,29.6" transform="translate(-24.57 -8.866)" fill="#ccd1e0"/>
        <path id="Trazado_160676" data-name="Trazado 160676" d="M18.3,76.783c.177.338.5.231.769.231,5.217,0,10.433.014,15.649,0A3.606,3.606,0,0,1,38.156,80.3a3.9,3.9,0,0,0,2.363,3.768A5.607,5.607,0,0,0,42.5,84.4c1.333.055,2.669.017,4,.015.242,0,.506.052.645-.235a5.5,5.5,0,0,0,3.619,1.112c2.875-.04,5.752-.013,8.628-.012a2.786,2.786,0,1,1,.026,5.549q-11.248,0-22.5,0c-2.138,0-3.126-.908-3.3-3.028a4.574,4.574,0,0,0-3.94-4.318,5.939,5.939,0,0,0-.982-.052q-11.372,0-22.742,0a2.808,2.808,0,0,1-2.943-2.419,2.779,2.779,0,0,1,2.786-3.126c2.958-.014,5.917-.032,8.875.009A5.518,5.518,0,0,0,18.3,76.783" transform="translate(-1.152 -29.538)" fill="#bdc2d1"/>
      </g>
    </g>
  </g>
</svg>
