<svg xmlns="http://www.w3.org/2000/svg" xmlns:xlink="http://www.w3.org/1999/xlink" width="105" height="105" viewBox="0 0 105 105">
  <defs>
    <clipPath id="clip-path">
      <rect id="Rectángulo_42480" data-name="Rectángulo 42480" width="74.816" height="74.771" fill="none"/>
    </clipPath>
  </defs>
  <g id="_38" data-name="38" transform="translate(5626 6518)">
    <circle id="Elipse_4909" data-name="Elipse 4909" cx="52.5" cy="52.5" r="52.5" transform="translate(-5626 -6518)" fill="#a6bbff"/>
    <g id="Grupo_169266" data-name="Grupo 169266" transform="translate(-5611 -6503)">
      <g id="Grupo_169265" data-name="Grupo 169265" transform="translate(0 0)" clip-path="url(#clip-path)">
        <path id="Trazado_160677" data-name="Trazado 160677" d="M73.326,85.691c-1.818,0-3.635-.014-5.453.008-.429.005-.576-.1-.565-.549q.047-1.985,0-3.972c-.011-.455.129-.582.578-.683a8.633,8.633,0,0,0,6.9-8.315q.074-8.334,0-16.67a8.642,8.642,0,0,0-5.891-8,8.814,8.814,0,0,0-9.576,2.7c-.5.592-.582,1.607-1.439,1.778a16.924,16.924,0,0,1-2.485.045c-.456.021-.543-.141-.549-.566a33.574,33.574,0,0,0-.126-4.664,8.714,8.714,0,0,0-17.176-.021,31.328,31.328,0,0,0-.123,4.664c0,.5-.145.6-.61.588-1.063-.035-2.129-.027-3.193-.007a3.74,3.74,0,0,0-3.592,2.9,5.142,5.142,0,0,0,.059,2.083c-1.825,0-3.589-.005-5.352.007a.425.425,0,0,1-.494-.347c-.582-1.949-1.178-3.894-1.772-5.847a1.592,1.592,0,0,1,.219-.04c1.714,0,3.427,0,5.141-.007a4.368,4.368,0,1,0,.008-8.724c-2.467-.005-4.934-.016-7.4.011-.505.005-.7-.145-.839-.638-.677-2.336-1.418-4.654-2.118-6.984-.191-.635-.532-1.087-1.225-1.105-.733-.02-1.1.436-1.3,1.106-.54,1.811-1.1,3.614-1.659,5.42-.213.692-.243,1.574-.7,2.022-.5.494-1.423.129-2.158.164a4.309,4.309,0,0,0-4.154,4.063c-.017.871-.292.96-1.04.946a3.719,3.719,0,0,0-3.986,3.744A3.762,3.762,0,0,0,5.2,54.523c1.185,0,2.369,0,3.6,0-.063.253-.1.43-.151.6-.764,2.527-1.537,5.051-2.292,7.581-.322,1.081.2,1.77,1.338,1.79.487.008.975,0,1.569,0-.334.729-.66,1.368-.92,2.033A.67.67,0,0,1,7.579,67c-1.116-.023-2.233-.029-3.35,0a4.356,4.356,0,0,0-1.963,8.167,7.385,7.385,0,0,0,1.8.594c-.429.934-.851,1.844-1.266,2.756C2.152,79.943,2.642,80.7,4.217,80.7c3.765,0,7.53.016,11.295-.016.6-.005.732.155.71.726-.047,1.192-.053,2.39,0,3.582.028.6-.161.711-.727.708-4.673-.025-9.347-.015-14.021-.013C.54,85.691.017,86.127,0,86.9c-.018.821.508,1.28,1.485,1.28q35.911,0,71.822,0c.977,0,1.506-.46,1.49-1.276-.016-.774-.541-1.213-1.472-1.215M39.881,51.323a35.187,35.187,0,0,1,.15-4.265,6.212,6.212,0,0,1,12.187.007,30.8,30.8,0,0,1,.138,4.577c.019.461-.319.386-.592.386q-2.84.005-5.68,0c-1.816,0-3.632-.02-5.447.012-.555.01-.8-.1-.755-.718M15.643,40.7c.145-.518.319-1.027.479-1.54l.179,0c.249.836.49,1.675.75,2.508.082.264.039.4-.259.389-.026,0-.052,0-.078,0-1.764-.039-1.527.27-1.072-1.353M5.107,52.026a1.247,1.247,0,1,1-.016-2.485c.935-.017,1.87,0,2.8-.007,1.277-.015,1.79-.924,1.169-2.053a1.866,1.866,0,0,1,1.752-2.928c2.831-.011,5.662,0,8.492,0q4.207,0,8.414,0c1.335,0,2.2.75,2.193,1.882s-.868,1.854-2.221,1.856c-2.182,0-4.363,0-6.545,0-1.285,0-1.782.726-1.351,1.932a1.23,1.23,0,0,1-1.216,1.8q-6.739.021-13.478,0M9.334,61.5c.438-1.488.887-2.972,1.335-4.457.06-.2.126-.395.2-.589.226-.625.152-1.521.689-1.824a4.477,4.477,0,0,1,1.981-.1c1.633-.007,3.267-.018,4.9.005a3.672,3.672,0,0,0,1.878-.393c.469-.263.538-.068.64.323.176.675.375,1.346.611,2,.153.426.1.617-.369.794a3.651,3.651,0,0,0-2.4,4.263c.072.433-.072.49-.423.485-.856-.01-1.711,0-2.725,0-1.027.063-2.213.055-3.4.14C11.37,62.2,10.421,62.028,9.5,62c-.452-.016-.221-.311-.167-.5M2.663,70.6a1.837,1.837,0,0,1,1.8-1.12c1.791,0,3.583,0,5.375,0,1.283,0,1.759-.6,1.482-1.827a2.467,2.467,0,0,1,2.47-3.153c2.8-.017,5.608,0,8.412-.007.961,0,1.595-.6,1.466-1.393A1.256,1.256,0,0,0,22.451,62a1.253,1.253,0,0,1-1.254-1.3c.038-.723.585-1.18,1.456-1.181,3.583-.005,7.166,0,10.749,0,.891,0,1.433-.424,1.5-1.14a1.184,1.184,0,0,0-1.13-1.326,1.342,1.342,0,0,1-1.35-1.392c.084-.733.621-1.126,1.588-1.126q6.7,0,13.4,0,6.66,0,13.319-.005a1.471,1.471,0,0,1,1.375.546,1.148,1.148,0,0,1,.093,1.25,1.3,1.3,0,0,1-1.281.705c-2.181-.007-4.362,0-6.543,0-1.427,0-2.856-.006-4.284,0-.874,0-1.419.455-1.46,1.177-.039.689.43,1.184,1.248,1.314A1.249,1.249,0,1,1,49.713,62c-2.778.009-5.556,0-8.334.005-.915,0-1.475.479-1.482,1.234A1.255,1.255,0,0,0,41.124,64.5c1.909.223,2.745,1.386,2.369,3.295-.216,1.1.306,1.69,1.5,1.691q9.659,0,19.317,0a3.354,3.354,0,0,1,.7.021,1.241,1.241,0,0,1,.017,2.448,2.788,2.788,0,0,1-.621.023H40.341c-1.213,0-1.453-.209-1.708-1.415a1.208,1.208,0,0,0-1.243-1.071q-4.362-.021-8.724,0a1.2,1.2,0,0,0-1.277,1.341c.009,1.784-.587,2.391-2.352,2.392q-10.2,0-20.408,0c-1.592,0-2.567-1.3-1.966-2.618M54.842,60.056c-.007-.439.117-.554.556-.558,1.947-.022,1.947-.038,1.947,1.883v1.947c0,1.065-.016,2.129.008,3.193.008.374-.1.466-.476.479-2.026.077-2.026.088-2.026-1.959,0-1.662.016-3.323-.01-4.985m-2.488,6.6c0,.347-.245.337-.484.337q-2.642,0-5.285,0c-.2,0-.435.027-.457-.278a8.9,8.9,0,0,0-.577-2.138c2.242-.386,4.619.576,6.8-.971,0,1.076,0,2.063,0,3.051M16.209,78.209c-3.244,0-6.488-.011-9.732.011-.607,0-.693-.05-.5-.708.444-1.487,1.291-1.875,2.828-1.84,5.292.116,10.588.059,15.883.027a1.173,1.173,0,0,1,1.274.82c.742,1.7.77,1.69-1.114,1.69ZM44.247,85.7c-4.153-.019-8.306-.011-12.459-.011-4.127,0-8.255-.013-12.382.014-.573,0-.748-.12-.722-.713.053-1.218.041-2.44,0-3.659-.015-.5.114-.647.631-.642,2.959.027,5.918.014,8.877.013,1.573,0,2.064-.761,1.415-2.188-.472-1.036-.936-2.075-1.434-3.1a.479.479,0,0,1,.149-.71,4,4,0,0,0,1.45-2.329c.066-.32.218-.409.531-.406,1.895.012,3.79,0,5.685.008.127,0,.348.007.365.06.253.813,1.094,1.244,1.325,2.065a8.6,8.6,0,0,0,6.636,6.39c.447.111.584.236.573.686-.03,1.3-.039,2.6,0,3.893.017.527-.155.629-.646.626M40.726,75.081c-.253-.418-.263-.624.341-.62q5.062.029,10.125,0c.619,0,.561.213.338.628a6.489,6.489,0,0,1-5.836,3.12,6.132,6.132,0,0,1-4.967-3.127M64.241,85.7c-2.724-.026-5.448-.013-8.172-.013-2.672,0-5.344-.014-8.016.013-.519,0-.717-.084-.7-.659.048-1.3.03-2.594.007-3.891-.007-.406.1-.544.527-.641a8.5,8.5,0,0,0,6.41-5.529.667.667,0,0,1,.778-.522,11.11,11.11,0,0,1,2.323.05c.829.221.715,1.251,1.111,1.879a8.8,8.8,0,0,0,5.7,4.1c.472.106.637.228.624.72q-.052,1.945,0,3.891c.013.481-.113.6-.6.6M60.688,75.111c-.3-.494-.221-.665.382-.65,1.219.031,2.439.013,3.659.008a3.739,3.739,0,1,0,.033-7.477c-1.427-.006-2.855-.023-4.282.009-.523.012-.656-.172-.65-.67.024-2,.045-4-.01-5.995-.02-.723.227-.891.883-.833a3.834,3.834,0,0,0,3.956-2.633,3.787,3.787,0,0,0-3.117-4.829c-.1-.019-.2-.023-.456-.049,1.848-2.072,4-2.921,6.569-2.235a5.991,5.991,0,0,1,4.509,4.763,6.871,6.871,0,0,1,.143,1.543q0,7.9,0,15.8a6.2,6.2,0,0,1-6.518,6.324,6.014,6.014,0,0,1-5.1-3.081" transform="translate(0 -13.412)"/>
        <path id="Trazado_160678" data-name="Trazado 160678" d="M26.954,14.93c2.8,0,5.609.012,8.414-.01a.814.814,0,0,1,.919.573A11.173,11.173,0,0,0,54.6,19.055a1.2,1.2,0,0,1,.946-.393c1.558.023,3.116.02,4.674.007a3.7,3.7,0,0,0,3.75-4.509c-.1-.512.119-.482.464-.479,1.454.009,2.909.007,4.363,0a3.748,3.748,0,1,0-.01-7.478q-5.765-.005-11.53.006a.83.83,0,0,1-.848-.47A10.784,10.784,0,0,0,45.948.024a10.8,10.8,0,0,0-9.7,6.938.669.669,0,0,1-.729.5c-1.48-.023-2.96-.009-4.441-.009-1.376,0-2.752,0-4.129,0a3.748,3.748,0,1,0,0,7.478M61.6,8.7q3.582,0,7.165,0c.976,0,1.548.472,1.543,1.251s-.574,1.239-1.557,1.24c-2.726,0-5.451,0-8.177,0-.935,0-1.542.538-1.472,1.314a1.232,1.232,0,0,0,1.146,1.175c.916.154,1.37.6,1.334,1.31-.038.748-.591,1.184-1.533,1.185q-5.334.005-10.669,0c-.925,0-1.484-.463-1.5-1.213-.021-.779.558-1.273,1.516-1.277,1.454-.005,2.907,0,4.361,0,.967,0,1.513-.391,1.59-1.124s-.388-1.2-1.345-1.374a1.259,1.259,0,0,1-1.133-1.343A1.244,1.244,0,0,1,54.2,8.7c2.466-.012,4.933,0,7.4,0M45.617,2.52A8.567,8.567,0,0,1,53.7,6.19a3.827,3.827,0,0,0-3.236,2.964,2.822,2.822,0,0,0,0,1.537c.146.464-.05.511-.436.508a6.551,6.551,0,0,0-1.855.121,3.734,3.734,0,0,0,.824,7.347c.617.02,1.236,0,2.054,0-4.35,2.622-10.358.751-12.224-3.7a3.971,3.971,0,0,0,3.351-1.592,3.671,3.671,0,0,0,.7-2.491c-.149-1.979-1.665-3.3-4.116-3.481A8.738,8.738,0,0,1,45.617,2.52M26.887,9.948q6.027-.009,12.054,0c.9,0,1.462.507,1.45,1.263s-.573,1.223-1.488,1.226c-2.022.006-4.044,0-6.066,0-1.97,0-3.94,0-5.91,0-.915,0-1.475-.474-1.487-1.226s.548-1.262,1.449-1.263" transform="translate(-9.229 0.001)"/>
        <path id="Trazado_160679" data-name="Trazado 160679" d="M95.558,34.393c-.074.425-.167.563-.621.638a3.719,3.719,0,0,0-3.163,4.051,3.76,3.76,0,0,0,3.815,3.371q3.657.018,7.315,0a3.685,3.685,0,0,0,3.742-3.078c.088-.471.219-.641.716-.73a3.714,3.714,0,0,0,3.086-4.037,3.762,3.762,0,0,0-3.817-3.369c-1.219-.01-2.438,0-3.658,0s-2.438-.008-3.657,0a3.706,3.706,0,0,0-3.759,3.155m7.423-.664c1.167,0,2.334-.005,3.5,0,.914.005,1.474.479,1.482,1.233s-.554,1.243-1.458,1.258c-.441.007-.883-.017-1.322.005A1.233,1.233,0,0,0,104,37.952c.457,1.371,0,2.008-1.454,2.01q-3.384,0-6.769,0c-.959,0-1.537-.495-1.519-1.273.018-.752.576-1.207,1.5-1.218.415,0,.83.014,1.245,0A1.236,1.236,0,0,0,98.2,35.7c-.45-1.305.032-1.971,1.433-1.974,1.115,0,2.23,0,3.346,0" transform="translate(-36.91 -12.564)"/>
        <path id="Trazado_160680" data-name="Trazado 160680" d="M29.06,85.083a1.2,1.2,0,0,1,1.277-1.341q4.361-.026,8.723,0A1.206,1.206,0,0,1,40.3,84.813c.256,1.207.5,1.415,1.708,1.415q12.034,0,24.069,0a2.781,2.781,0,0,0,.62-.023,1.241,1.241,0,0,0-.016-2.448,3.314,3.314,0,0,0-.7-.021q-9.659,0-19.317,0c-1.2,0-1.721-.6-1.505-1.69.377-1.909-.46-3.072-2.369-3.295a1.256,1.256,0,0,1-1.228-1.257c.007-.755.567-1.232,1.482-1.234,2.778-.005,5.557,0,8.335-.006a1.249,1.249,0,1,0,.158-2.49c-.818-.13-1.287-.625-1.248-1.314.041-.722.586-1.172,1.46-1.176,1.428-.008,2.856,0,4.284,0,2.181,0,4.362,0,6.543,0a1.3,1.3,0,0,0,1.281-.706,1.146,1.146,0,0,0-.092-1.249,1.47,1.47,0,0,0-1.375-.546q-6.66.013-13.32,0-6.7,0-13.4,0c-.967,0-1.5.393-1.588,1.127a1.342,1.342,0,0,0,1.35,1.392,1.184,1.184,0,0,1,1.131,1.326c-.065.715-.607,1.139-1.5,1.139-3.583,0-7.166,0-10.749,0-.872,0-1.418.458-1.457,1.181a1.253,1.253,0,0,0,1.254,1.3,1.257,1.257,0,0,1,1.219,1.1c.129.794-.505,1.391-1.466,1.393-2.8.006-5.609-.01-8.413.007a2.467,2.467,0,0,0-2.47,3.152c.278,1.231-.2,1.824-1.481,1.828-1.792,0-3.583,0-5.375,0a1.835,1.835,0,0,0-1.8,1.12c-.6,1.317.374,2.616,1.966,2.617q10.2.007,20.408,0c1.765,0,2.36-.607,2.352-2.392" transform="translate(-1.671 -27.664)" fill="#e9e9e7"/>
        <path id="Trazado_160681" data-name="Trazado 160681" d="M112.559,82.757q.007-7.9,0-15.805a6.834,6.834,0,0,0-.143-1.542,5.991,5.991,0,0,0-4.509-4.763c-2.565-.686-4.722.163-6.569,2.234.253.027.356.03.457.05a3.787,3.787,0,0,1,3.117,4.829,3.833,3.833,0,0,1-3.955,2.634c-.656-.058-.9.109-.883.833.055,2,.033,4,.009,5.995-.006.5.128.682.651.67,1.426-.032,2.855-.015,4.282-.01a3.74,3.74,0,1,1-.033,7.478c-1.219,0-2.44.023-3.659-.008-.6-.015-.683.156-.383.65a6.013,6.013,0,0,0,5.1,3.08,6.2,6.2,0,0,0,6.517-6.324" transform="translate(-40.256 -24.301)" fill="#027e2a"/>
        <path id="Trazado_160682" data-name="Trazado 160682" d="M22.319,57.766c-.432-1.206.066-1.928,1.351-1.932,2.182-.007,4.363,0,6.544,0,1.353,0,2.212-.723,2.221-1.856s-.858-1.881-2.194-1.882q-4.206,0-8.414,0c-2.831,0-5.661-.008-8.492,0a1.867,1.867,0,0,0-1.752,2.928c.621,1.129.108,2.038-1.169,2.053-.934.011-1.87-.011-2.8.006a1.247,1.247,0,1,0,.016,2.485q6.739.013,13.478,0a1.23,1.23,0,0,0,1.216-1.8" transform="translate(-2.519 -20.953)" fill="#e9e9e7"/>
        <path id="Trazado_160683" data-name="Trazado 160683" d="M67.472,57.909c1.815-.032,3.631-.012,5.447-.012q2.84,0,5.68,0c.274,0,.611.075.592-.386a30.8,30.8,0,0,0-.138-4.577,6.212,6.212,0,0,0-12.187-.007,35.177,35.177,0,0,0-.15,4.265c-.043.616.2.728.755.718" transform="translate(-26.835 -19.278)" fill="#029432"/>
        <path id="Trazado_160684" data-name="Trazado 160684" d="M15.711,75.91c.92.032,1.869.209,2.744.146,1.187-.085,2.374-.077,3.4-.14,1.014,0,1.869-.007,2.725,0,.351,0,.495-.053.423-.485a3.651,3.651,0,0,1,2.4-4.263c.464-.176.522-.368.369-.794-.236-.656-.436-1.327-.611-2-.1-.392-.17-.586-.64-.323a3.675,3.675,0,0,1-1.877.393c-1.633-.023-3.267-.012-4.9-.005a4.468,4.468,0,0,0-1.981.1c-.537.3-.463,1.2-.689,1.824-.07.195-.136.392-.2.589-.448,1.485-.9,2.97-1.335,4.457-.054.184-.285.48.167.5" transform="translate(-6.21 -27.326)" fill="#029432"/>
        <path id="Trazado_160685" data-name="Trazado 160685" d="M29.925,105a1.173,1.173,0,0,0-1.274-.82c-5.295.031-10.591.089-15.883-.027-1.537-.033-2.383.354-2.828,1.841-.2.658-.111.711.5.707,3.244-.022,6.488-.01,9.733-.01h8.643c1.883,0,1.855.013,1.113-1.69" transform="translate(-3.961 -41.897)" fill="#029432"/>
        <path id="Trazado_160686" data-name="Trazado 160686" d="M78.826,102.761c.223-.415.281-.632-.338-.628q-5.061.03-10.125,0c-.6,0-.594.2-.34.621a6.128,6.128,0,0,0,4.967,3.127,6.487,6.487,0,0,0,5.836-3.12" transform="translate(-27.297 -41.084)" fill="#029432"/>
        <path id="Trazado_160687" data-name="Trazado 160687" d="M76.206,84.936a8.9,8.9,0,0,1,.577,2.138c.022.3.252.278.457.278q2.643,0,5.285,0c.238,0,.484.01.483-.337,0-.987,0-1.975,0-3.051-2.183,1.546-4.56.585-6.8.971" transform="translate(-30.654 -33.776)" fill="#029432"/>
        <path id="Trazado_160688" data-name="Trazado 160688" d="M27.022,45.973c.026,0,.052,0,.078,0,.3.01.341-.125.258-.389-.26-.833-.5-1.671-.75-2.508l-.179,0c-.161.513-.335,1.023-.479,1.54-.454,1.623-.692,1.314,1.072,1.353" transform="translate(-10.307 -17.327)" fill="#029231"/>
        <path id="Trazado_160689" data-name="Trazado 160689" d="M53.526,12.537a3.673,3.673,0,0,1-.705,2.491,3.969,3.969,0,0,1-3.35,1.592c1.866,4.449,7.873,6.32,12.224,3.7-.818,0-1.436.017-2.054,0a3.735,3.735,0,0,1-.825-7.347,6.575,6.575,0,0,1,1.855-.121c.387,0,.582-.044.436-.507a2.836,2.836,0,0,1,0-1.538,3.829,3.829,0,0,1,3.237-2.964,8.569,8.569,0,0,0-8.08-3.67A8.736,8.736,0,0,0,49.41,9.057c2.451.185,3.967,1.5,4.116,3.48" transform="translate(-19.876 -1.648)" fill="#fab440"/>
        <path id="Trazado_160690" data-name="Trazado 160690" d="M69.648,15.7a1.259,1.259,0,0,0,1.133,1.343c.957.17,1.421.644,1.345,1.374s-.623,1.122-1.59,1.124c-1.454,0-2.907,0-4.361,0-.959,0-1.537.5-1.516,1.277.02.751.579,1.212,1.5,1.213q5.335.006,10.67,0c.941,0,1.494-.436,1.533-1.185.036-.705-.418-1.155-1.334-1.31a1.231,1.231,0,0,1-1.146-1.175c-.07-.775.536-1.312,1.472-1.314,2.726-.006,5.451,0,8.177,0,.982,0,1.552-.461,1.557-1.24s-.567-1.249-1.543-1.251q-3.582-.005-7.165,0c-2.466,0-4.933-.008-7.4,0a1.243,1.243,0,0,0-1.335,1.14" transform="translate(-26.009 -5.853)" fill="#e9e9e7"/>
        <path id="Trazado_160691" data-name="Trazado 160691" d="M28.606,19.129c1.97.006,3.94,0,5.91,0,2.022,0,4.044,0,6.066,0,.915,0,1.476-.475,1.489-1.226s-.551-1.261-1.45-1.263q-6.028-.008-12.054,0c-.9,0-1.461.505-1.449,1.263s.571,1.223,1.487,1.226" transform="translate(-10.909 -6.692)" fill="#e9e9e7"/>
        <path id="Trazado_160692" data-name="Trazado 160692" d="M99.886,37.384a1.236,1.236,0,0,1-1.2,1.762c-.415.018-.83,0-1.245,0-.921.01-1.479.466-1.5,1.218-.018.778.559,1.271,1.519,1.273q3.385.007,6.769,0c1.451,0,1.911-.639,1.454-2.01a1.233,1.233,0,0,1,1.183-1.725c.439-.023.882,0,1.322-.005.9-.014,1.466-.5,1.458-1.258s-.568-1.227-1.482-1.232c-1.167-.007-2.334,0-3.5,0-1.115,0-2.23,0-3.346,0-1.4,0-1.883.669-1.433,1.974" transform="translate(-38.593 -14.243)" fill="#e9e9e7"/>
      </g>
    </g>
  </g>
</svg>
