<svg xmlns="http://www.w3.org/2000/svg" xmlns:xlink="http://www.w3.org/1999/xlink" width="105" height="105" viewBox="0 0 105 105">
  <defs>
    <clipPath id="clip-path">
      <rect id="Rectángulo_42483" data-name="Rectángulo 42483" width="79.007" height="72.148" fill="none"/>
    </clipPath>
  </defs>
  <g id="_40" data-name="40" transform="translate(4996 6518)">
    <circle id="Elipse_4911" data-name="Elipse 4911" cx="52.5" cy="52.5" r="52.5" transform="translate(-4996 -6518)" fill="#a6bbff"/>
    <g id="Grupo_169275" data-name="Grupo 169275" transform="translate(-4983 -6502)">
      <g id="Grupo_169274" data-name="Grupo 169274" transform="translate(0 0)" clip-path="url(#clip-path)">
        <path id="Trazado_160717" data-name="Trazado 160717" d="M0,39.844c.242-.085.21-.333.278-.507A4.569,4.569,0,0,1,4.663,36.3q8.516-.017,17.033-.006,21.464,0,42.929,0a4.812,4.812,0,0,0,4.9-3.441,4.617,4.617,0,0,0-7.718-4.461c-.182.18-.345.381-.522.567a4.619,4.619,0,0,1-6.944-6.091,13.8,13.8,0,0,1,21.673.351,13.146,13.146,0,0,1,1.814,13.8,13.393,13.393,0,0,1-11.105,8.4,12.336,12.336,0,0,1-1.765.123q-16.262.011-32.524,0A1.636,1.636,0,0,1,30.5,44.009a1.389,1.389,0,0,1,1.079-1.658,4.429,4.429,0,0,1,1.377-.111q15.995,0,31.988,0a10.571,10.571,0,1,0-2.961-20.685,10.509,10.509,0,0,0-4.929,3.292,1.3,1.3,0,0,0-.076,1.923,1.361,1.361,0,0,0,1.933-.153,15.428,15.428,0,0,1,1.731-1.526,7.873,7.873,0,0,1,9.976.953,7.714,7.714,0,0,1,1.024,9.946A7.878,7.878,0,0,1,64.709,39.6q-29.483.02-58.966.008a8.265,8.265,0,0,0-1.155.03,1.3,1.3,0,0,0-1.223,1.181,1.348,1.348,0,0,0,1.07,1.331,4.171,4.171,0,0,0,1.149.085H19.073a2.961,2.961,0,0,1,1.5.261,1.3,1.3,0,0,1,.726,1.509,1.638,1.638,0,0,1-1.931,1.533q-6.855,0-13.71,0c-3.3,0-4.536-.843-5.659-3.85Z" transform="translate(0 -4.843)"/>
        <path id="Trazado_160718" data-name="Trazado 160718" d="M36.569,61.028c4.5,0,8.989-.014,13.484,0a13.866,13.866,0,0,1,2,27.6A13.486,13.486,0,0,1,39.5,83.769a4.605,4.605,0,1,1,6.952-6.041,4.629,4.629,0,1,0,3.671-7.437c-2.644-.047-5.29-.012-7.936-.012-6.652,0-13.3.02-19.956-.012a4.619,4.619,0,1,1,.236-9.235c4.7-.012,9.4,0,14.1,0" transform="translate(-4.81 -16.616)"/>
        <path id="Trazado_160719" data-name="Trazado 160719" d="M34.138,20.045A1.643,1.643,0,0,1,35.878,18.5a16.679,16.679,0,0,0,3.072-.122,4.654,4.654,0,0,0,3.681-3.95,4.583,4.583,0,0,0-2.67-4.762,4.429,4.429,0,0,0-5.323,1.14,4.777,4.777,0,0,1-6.472,1.029,4.563,4.563,0,0,1-.942-6.6A13.314,13.314,0,0,1,39.288.063a13.858,13.858,0,0,1,.486,27.555,14.588,14.588,0,0,1-1.61.125q-12.058.012-24.117,0a4.619,4.619,0,1,1-.271-9.235c3.158-.037,6.318-.015,9.477-.007.976,0,1.439.418,1.681,1.442a1.124,1.124,0,0,1-.517,1.454A2.539,2.539,0,0,1,22.8,21.8q-4.086-.005-8.171,0a4.054,4.054,0,0,0-1,.07,1.177,1.177,0,0,0-1,1.116,1.254,1.254,0,0,0,.842,1.331,2.672,2.672,0,0,0,1.063.135c7.888,0,15.777.022,23.666-.007a10.571,10.571,0,1,0-.637-21.13A10.2,10.2,0,0,0,30.028,7,1.385,1.385,0,0,0,30,9a1.385,1.385,0,0,0,2.03-.3c.07-.075-.02.017.051-.057a8.1,8.1,0,0,1,6.471-2.69,7.993,7.993,0,0,1,7.393,7.612A8.076,8.076,0,0,1,37.709,21.8a16.521,16.521,0,0,1-2.08-.039c-1.042-.14-1.642-.848-1.491-1.717" transform="translate(-2.527 0)"/>
        <path id="Trazado_160720" data-name="Trazado 160720" d="M22.454,45.167c-.254-1.174-.707-1.546-1.912-1.547q-7.092,0-14.184,0A2.812,2.812,0,0,1,5.294,43.5a1.516,1.516,0,0,1,.414-2.96c.306-.021.616-.009.923-.009q29.524,0,59.049,0a7.908,7.908,0,0,0,7.677-4.887,7.688,7.688,0,0,0-12.447-8.41c-.258.25-.486.53-.739.784a1.554,1.554,0,0,1-2.209.126A1.484,1.484,0,0,1,57.869,26a10.368,10.368,0,0,1,7.561-3.941,10.787,10.787,0,1,1,.9,21.544c-9.764.035-19.528.011-29.293.011-1.156,0-2.312,0-3.469,0-1.207,0-1.661.375-1.91,1.547H28.62c-.222-.124-.263-.367-.367-.568a1.328,1.328,0,0,0-2.4,0c-.1.2-.145.443-.367.567H22.454" transform="translate(-1.154 -6.001)" fill="#84c5fe"/>
        <path id="Trazado_160721" data-name="Trazado 160721" d="M35.294,21.2c.354,1.228.757,1.527,2.023,1.54a11.181,11.181,0,0,0,5.05-.731,7.685,7.685,0,1,0-8.9-12.118,2.03,2.03,0,0,1-1.159.83,1.466,1.466,0,0,1-1.6-.68,1.5,1.5,0,0,1,.164-1.855,10.5,10.5,0,0,1,6.273-3.759,10.792,10.792,0,0,1,4.906,21.005,11.053,11.053,0,0,1-2.966.39q-11.79,0-23.578,0c-1.109,0-1.8-.445-1.953-1.241a1.529,1.529,0,0,1,1.632-1.836c3-.012,6.01,0,9.015-.007,1.232,0,1.744-.453,1.885-1.637a18.926,18.926,0,0,0,3.039.1c.219.124.266.366.383.56a1.338,1.338,0,0,0,1.329.744,1.271,1.271,0,0,0,1.156-.977c.047-.166.053-.364.259-.439a17.19,17.19,0,0,0,3.04.111" transform="translate(-3.682 -1.152)" fill="#84c5fe"/>
        <path id="Trazado_160722" data-name="Trazado 160722" d="M38.093,26.859c-.114,1.008-.592,1.562-1.412,1.639s-1.4-.434-1.714-1.528a1.632,1.632,0,0,1,1.549-1.541c.817-.019,1.345.46,1.578,1.431" transform="translate(-9.521 -6.924)" fill="#010101"/>
        <path id="Trazado_160723" data-name="Trazado 160723" d="M33.442,53.243c.222-1.03.711-1.524,1.527-1.543.851-.02,1.373.482,1.6,1.543-.239,1.025-.792,1.552-1.6,1.53-.792-.021-1.293-.523-1.528-1.53" transform="translate(-9.106 -14.077)" fill="#010101"/>
        <path id="Trazado_160724" data-name="Trazado 160724" d="M37.811,65.265c4.444,0,8.888-.008,13.332,0A10.793,10.793,0,0,1,53.2,86.684a10.591,10.591,0,0,1-10.194-3.75,1.492,1.492,0,0,1-.183-1.912,1.536,1.536,0,0,1,1.76-.617,2.5,2.5,0,0,1,1,.811A7.7,7.7,0,1,0,51.47,68.371c-3.337-.08-6.678-.022-10.018-.023q-8.593,0-17.186,0c-.256,0-.514.007-.77,0a1.534,1.534,0,0,1-1.565-1.477,1.567,1.567,0,0,1,1.393-1.581,5.426,5.426,0,0,1,.77-.021q6.858,0,13.717,0" transform="translate(-5.971 -17.771)" fill="#84c5fe"/>
      </g>
    </g>
  </g>
</svg>
