<svg xmlns="http://www.w3.org/2000/svg" xmlns:xlink="http://www.w3.org/1999/xlink" width="105" height="105" viewBox="0 0 105 105">
  <defs>
    <clipPath id="clip-path">
      <rect id="Rectángulo_42488" data-name="Rectángulo 42488" width="72.225" height="81.437" fill="none"/>
    </clipPath>
  </defs>
  <g id="_43" data-name="43" transform="translate(4058 6518)">
    <circle id="Elipse_4914" data-name="Elipse 4914" cx="52.5" cy="52.5" r="52.5" transform="translate(-4058 -6518)" fill="#a6bbff"/>
    <g id="Grupo_169289" data-name="Grupo 169289" transform="translate(-4042 -6506)">
      <g id="Grupo_169288" data-name="Grupo 169288" transform="translate(0 0)" clip-path="url(#clip-path)">
        <path id="Trazado_160853" data-name="Trazado 160853" d="M22.6,23.341c.39,1.583.791,3.164,1.173,4.749a1.817,1.817,0,0,0,.97,1.262c.763.4,1.491.873,2.234,1.315,1.087.6,2.184,1.175,3.258,1.795a1.483,1.483,0,0,0,1.634-.008q3.764-2.2,7.548-4.36a1.37,1.37,0,0,0,.748-1.294c-.011-2.224-.015-4.448,0-6.672a1.69,1.69,0,0,0-.666-1.284q-4.312-4.111-8.608-8.237c-1.035-1-.817-2.215.452-2.669a1.452,1.452,0,0,1,1.692.492c1.587,1.52,3.179,3.034,4.76,4.56a2.759,2.759,0,0,0,1.047.691c1.137-.282,1.317-.506,1.318-1.687,0-2.584,0-5.167,0-7.752,0-.78.166-1.475,1.06-1.71A1.476,1.476,0,0,1,43.246,4.1c.029,1.268.008,2.538.008,3.807,0,1.427.009,2.855,0,4.282a1.658,1.658,0,0,0,.376,1.17,1.438,1.438,0,0,0,1.962-.323c1.719-1.657,3.387-3.368,5.211-4.913a1.507,1.507,0,0,1,1.79,2.421c-2.575,2.482-5.115,5-7.774,7.393a4.152,4.152,0,0,0-1.593,3.7c.144,1.9.053,3.812.062,5.719a2.066,2.066,0,0,0,.843.812c2.454,1.408,4.906,2.817,7.344,4.251a1.6,1.6,0,0,0,1.778.01q2.673-1.556,5.383-3.047a2.024,2.024,0,0,0,1.042-1.4c.944-3.8,1.907-7.586,2.859-11.38.144-.574.3-1.134.956-1.334a1.33,1.33,0,0,1,1.6.189,1.614,1.614,0,0,1,.438,1.807q-.8,3.213-1.63,6.42a1.825,1.825,0,0,0,.082,1.448,1.433,1.433,0,0,0,1.935.132c2.235-1.3,4.5-2.564,6.746-3.842a1.776,1.776,0,0,1,1.421-.319,1.475,1.475,0,0,1,1.147,1.275,1.535,1.535,0,0,1-.9,1.62l-6.275,3.548c-.276.156-.547.322-.826.47a1.23,1.23,0,0,0,.261,2.35q3.183.958,6.368,1.913a4.418,4.418,0,0,1,.744.265,1.5,1.5,0,0,1,.754,1.813,1.529,1.529,0,0,1-1.756,1.014c-.971-.246-1.924-.566-2.886-.846-1.269-.37-1.854.082-1.837,1.41a1.471,1.471,0,0,0,1.068.856c.917.251,1.82.554,2.732.82a3.929,3.929,0,0,0,1.646.183A3.971,3.971,0,0,0,77.8,34.3a3.9,3.9,0,0,0-2.747-4.153c-1.392-.458-2.8-.859-4.329-1.322.316-.2.523-.347.742-.473,1.424-.811,2.871-1.583,4.269-2.436a3.911,3.911,0,0,0-3.964-6.742C70.14,20.069,68.532,21,66.8,21.983c.38-1.515.733-2.893,1.072-4.275a3.94,3.94,0,0,0-1.965-4.582,3.892,3.892,0,0,0-5.589,2.533c-.972,3.707-1.9,7.424-2.824,11.144a1.18,1.18,0,0,1-.633.832c-1.318.731-2.637,1.46-3.931,2.231a.982.982,0,0,1-1.151-.03c-1.864-1.106-3.736-2.2-5.63-3.252a.9.9,0,0,1-.512-.941c.021-1.378.047-2.758-.009-4.133a2.019,2.019,0,0,1,.723-1.714c2.671-2.5,5.306-5.033,7.943-7.567a3.788,3.788,0,0,0,1.044-4.145,3.659,3.659,0,0,0-3.116-2.6,3.8,3.8,0,0,0-3.347,1.08c-1.04.993-2.079,1.985-3.231,3.083,0-1.953,0-3.725,0-5.5A4.038,4.038,0,0,0,43.974.72,13.754,13.754,0,0,0,42.5,0h-1.59A4.189,4.189,0,0,0,37.77,4.384c.026.953,0,1.907,0,2.862v2.4c-1.128-1.075-2.118-2.023-3.113-2.964a3.923,3.923,0,1,0-5.427,5.649q4.013,3.852,8.046,7.684a1.419,1.419,0,0,1,.506,1.164c-.034,1.509-.028,3.02,0,4.529a.851.851,0,0,1-.5.874q-2.9,1.631-5.769,3.325a.81.81,0,0,1-.939.008c-1.345-.788-2.705-1.55-4.067-2.309a1.083,1.083,0,0,1-.584-.778c-.314-1.364-.711-2.709-1.02-4.073a1.405,1.405,0,0,0-1.315-1.256c-1.048.375-1.259.763-.992,1.847" transform="translate(-5.596 0)"/>
        <path id="Trazado_160854" data-name="Trazado 160854" d="M27.945,69.948c-.676.66-1.386,1.288-2.037,1.972a1.448,1.448,0,0,0,.628,2.482c.2-.169.41-.328.6-.51q2.751-2.663,5.5-5.331c.578-.559.859-.534,1.409.1,1.135.269,1.318.5,1.318,1.683,0,2.584,0,5.168,0,7.752,0,.78.166,1.476,1.061,1.71a6.586,6.586,0,0,0,.328-2.489c-.019-2.593,0-5.186-.014-7.779,0-.53.015-1.03.557-1.285.558-.263.874.16,1.212.5a2.728,2.728,0,0,0,.315.236,1.418,1.418,0,0,1,1.956.32c1.723,1.654,3.39,3.366,5.212,4.915.411.067.5-.243.55-.522A2.757,2.757,0,0,0,45.85,71c-2.829-2.695-5.627-5.423-8.461-8.113a1.884,1.884,0,0,1-.659-1.593c.053-1.082.022-2.168.01-3.252,0-.36.009-.717.34-.917a2.576,2.576,0,0,0,1.355-1.729c.014-.136.026-.272.043-.408a2.08,2.08,0,0,1,.847-.808c2.451-1.409,4.9-2.816,7.342-4.25a1.592,1.592,0,0,1,1.777-.013c1.758,1.025,3.524,2.036,5.314,3.005a2.159,2.159,0,0,1,1.128,1.519c.93,3.771,1.892,7.534,2.843,11.3.144.569.291,1.137.948,1.344a2.564,2.564,0,0,0,.343-2.087c-.563-2.158-1.08-4.329-1.623-6.492-.122-.487-.332-1,.1-1.409.449-.427.923-.165,1.371.088a.812.812,0,0,0,.311.033,1.427,1.427,0,0,1,1.925-.135c2.346,1.349,4.716,2.657,7.078,3.982a2.375,2.375,0,0,0-.536-3.49c-1.469-.92-3-1.735-4.513-2.591-.3-.168-.63-.284-.775-.635a1.325,1.325,0,0,1-.649-1.415c.126-.658.628-.841,1.187-1,1.953-.57,3.9-1.164,5.847-1.75.127-.038.251-.085.377-.124,1.173-.364,1.706-1.086,1.46-1.982-.258-.942-1.145-1.314-2.318-.962-1.645.494-3.287,1-4.931,1.493-2.1.634-4.2,1.246-6.3,1.907a2,2,0,0,1-1.731-.2c-1.487-.858-3-1.672-4.5-2.5h0a12.664,12.664,0,0,1-3.257-1.711c-.268-.154-.3-.53-.3-.862q.008-3.6,0-7.205a1.125,1.125,0,0,1,.7-1.128A12.69,12.69,0,0,1,50.8,35.449c1.5-.829,3.005-1.639,4.486-2.495a1.962,1.962,0,0,1,1.723-.217c1.249.413,2.521.758,3.777,1.155.884.279,1.134.746.962,1.684.857.266,2.02-.029,2.317,1.264-.123-1.434.494-1.974,1.871-1.6.844.227,1.671.512,2.515.736a1.411,1.411,0,0,0,1.875-.845c.217-.674-.2-1.376-1.1-1.662-1.841-.587-3.7-1.126-5.55-1.674a8.81,8.81,0,0,1-1.2-.406,1.378,1.378,0,0,1-.945-1.17A1.43,1.43,0,0,1,62.3,28.77c2.216-1.3,4.476-2.519,6.695-3.813a4.286,4.286,0,0,0,.667-.428,1.21,1.21,0,0,0,.4-1.614,1.257,1.257,0,0,0-1.7-.574c-1.219.522-2.321,1.268-3.483,1.9-1.231.672-2.44,1.385-3.656,2.086a1.5,1.5,0,0,1-2.2-.255c0-.007-.006-.013-.01-.019a.623.623,0,0,0-.3.077.953.953,0,0,1-1.172.079c-.443-.317-.327-.8-.22-1.235.551-2.242,1.1-4.483,1.69-6.715a2.551,2.551,0,0,0-.25-1.919,1.807,1.807,0,0,0-.889,1.406q-1.351,5.388-2.715,10.771a3.173,3.173,0,0,1-1.707,2.22c-1.636.864-3.229,1.81-4.841,2.72a1.912,1.912,0,0,1-2.086.016c-2.444-1.426-4.91-2.812-7.342-4.259a1.82,1.82,0,0,1-.837-.923c-.014-.247-.017-.5-.026-.743a2.329,2.329,0,0,0-1.242-1.129.732.732,0,0,1-.343-.748c.009-1.4.02-2.8-.005-4.2a1.213,1.213,0,0,1,.5-.935c2.87-2.763,5.731-5.535,8.614-8.284a2.755,2.755,0,0,0,.688-2.7.7.7,0,0,0-.215-.449c-.071.021-.134.026-.209.054-1.53,1.421-3.1,2.8-4.55,4.3a8.7,8.7,0,0,1-.8.769,1.426,1.426,0,0,1-2.052.083c-1.7.744-1.824.632-1.8-1.362.028-2.713-.283-5.42-.159-8.134a3.822,3.822,0,0,0-.273-1.157h0a1.875,1.875,0,0,0-.923,1.88c0,2.514.011,5.027-.007,7.541-.007,1.033-.25,1.327-1.251,1.645a1.617,1.617,0,0,1-.337-.044c-.5.533-.779.532-1.324,0q-2.749-2.661-5.493-5.326c-.137-.132-.286-.251-.433-.373a1.514,1.514,0,0,0-.161.047c-1.019.66-1.148,1.43-.329,2.275,2.064,2.129,4.257,4.125,6.423,6.15.832.778,1.621,1.6,2.428,2.4a1.539,1.539,0,0,1,.451,1.148c0,2.224-.008,4.449.005,6.673a1.626,1.626,0,0,1-.862,1.5q-3.764,2.219-7.566,4.37a1.683,1.683,0,0,1-1.729-.007c-1.134-.578-2.2-1.267-3.336-1.846-.217-.137-.441-.266-.663-.4-.207-.105-.407-.225-.6-.351q-.394-.222-.79-.44c-.029-.016-.053-.035-.082-.051-.062-.026-.121-.056-.185-.078-2.022-.711-2.677-2.3-3.075-4.245-.6-2.933-1.418-5.821-2.16-8.724-.114-.448-.155-.953-.617-1.236-.835.533-1.008,1.015-.738,2.089.528,2.1,1.052,4.2,1.6,6.3.162.624.242,1.2-.334,1.664s-1.128.234-1.685-.084q-3.372-1.929-6.756-3.838a1.8,1.8,0,0,0-1.349-.329,1.514,1.514,0,0,0-1.195,1.333,1.479,1.479,0,0,0,.864,1.563c1.814,1.034,3.635,2.055,5.453,3.082.575.325,1.143.664,1.724.978a1.238,1.238,0,0,1-.294,2.326q-3.186.962-6.373,1.917c-.152.046-.305.089-.453.143a1.537,1.537,0,0,0-1.079,1.856,1.513,1.513,0,0,0,1.936,1.05C7.252,35.64,9.322,35,11.4,34.381c1.8-.54,3.6-1.065,5.382-1.638a1.978,1.978,0,0,1,1.729.205q2.671,1.56,5.379,3.052a1.612,1.612,0,0,1,.942,1.584q-.043,4.053,0,8.108a1.561,1.561,0,0,1-.9,1.53c-1.8,1-3.6,2-5.378,3.052a2.148,2.148,0,0,1-1.876.2C12.991,49.335,9.3,48.236,5.6,47.125a2.476,2.476,0,0,0-1.083-.192,1.556,1.556,0,0,0-1.327,1.381,1.491,1.491,0,0,0,1.137,1.6c2.041.64,4.092,1.246,6.138,1.873.69.211,1.515.253,1.647,1.223.138,1.015-.666,1.273-1.322,1.645-2.183,1.24-4.372,2.47-6.552,3.717A1.449,1.449,0,0,0,3.4,60.021a1.518,1.518,0,0,0,1.279,1.253,1.858,1.858,0,0,0,1.269-.351c2.209-1.25,4.421-2.492,6.624-3.751.592-.338,1.167-.7,1.819-.174.606.487.458,1.107.291,1.747q-.816,3.146-1.592,6.3c-.273,1.1-.016,1.663.9,2.053a43.072,43.072,0,0,0,1.591-5.754c.378-1.364.733-2.737,1.019-4.122a2.149,2.149,0,0,1,1.231-1.612c.3-.15.6-.316.9-.474a3.281,3.281,0,0,1,2.125-2.693c1.538-.754,3.006-1.656,4.486-2.524a1.589,1.589,0,0,1,1.777-.008q3.688,2.167,7.407,4.282a1.474,1.474,0,0,1,.837,1.4c-.019,2.17-.015,4.342,0,6.512a1.593,1.593,0,0,1-.536,1.261c-.988.92-1.974,1.843-2.925,2.8a1.36,1.36,0,0,1-1.966.248c-.705.367-1.007,1.232-1.814,1.473h0a1.3,1.3,0,0,1-.177,2.052m2.338-21.671a18.5,18.5,0,0,1-3.795-2.056c-.255-.155-.243-.446-.243-.717q0-3.888,0-7.776a.78.78,0,0,1,.314-.766q2.293-1.323,4.6-2.62c.061-.034.156-.006.234-.008,1.541-.866,3.093-1.714,4.617-2.608a1.577,1.577,0,0,1,1.773-.007q3.623,2.123,7.276,4.192a1.606,1.606,0,0,1,.878,1.553q-.024,4.168,0,8.338a1.609,1.609,0,0,1-.891,1.545q-3.651,2.073-7.274,4.194A1.592,1.592,0,0,1,36,51.52c-1.892-1.1-3.807-2.165-5.714-3.243" transform="translate(-0.79 -0.91)" fill="#cae1fe"/>
        <path id="Trazado_160855" data-name="Trazado 160855" d="M65.871,46.28c.016-.006.029-.017.044-.023-.041.022-.091.039-.129.062.029-.012.054-.027.085-.038" transform="translate(-16.363 -11.506)" fill="#cae1fe"/>
        <path id="Trazado_160856" data-name="Trazado 160856" d="M32.113,13.236q4.293,4.13,8.608,8.237a1.688,1.688,0,0,1,.666,1.284c-.017,2.224-.013,4.448,0,6.672a1.369,1.369,0,0,1-.748,1.294q-3.778,2.172-7.547,4.36a1.484,1.484,0,0,1-1.635.008c-1.074-.62-2.17-1.2-3.257-1.795a2.539,2.539,0,0,1-.808-.269c.222.13.446.258.663.4,1.133.578,2.2,1.268,3.336,1.846a1.682,1.682,0,0,0,1.728.007q3.807-2.146,7.566-4.37a1.625,1.625,0,0,0,.862-1.5c-.014-2.224,0-4.449-.006-6.673a1.536,1.536,0,0,0-.451-1.148c-.807-.8-1.6-1.624-2.428-2.4-2.164-2.025-4.357-4.021-6.422-6.15-.82-.845-.69-1.615.329-2.275a1.279,1.279,0,0,1,.161-.047c-.055-.045-.108-.093-.163-.14-1.269.454-1.487,1.674-.452,2.669" transform="translate(-6.812 -2.628)" fill="#cae1fe"/>
        <path id="Trazado_160857" data-name="Trazado 160857" d="M69.364,21.651c-.953,3.793-1.916,7.584-2.86,11.38a2.024,2.024,0,0,1-1.041,1.4Q62.75,35.919,60.08,37.48a1.594,1.594,0,0,1-1.778-.009c-2.439-1.433-4.891-2.843-7.344-4.251a2.068,2.068,0,0,1-.844-.812,1.886,1.886,0,0,0-.152-.714c.01.247.012.5.026.743a1.825,1.825,0,0,0,.838.923c2.432,1.446,4.9,2.833,7.342,4.258a1.912,1.912,0,0,0,2.086-.015c1.612-.911,3.2-1.856,4.84-2.72a3.169,3.169,0,0,0,1.707-2.22q1.357-5.385,2.716-10.771a1.807,1.807,0,0,1,.889-1.407c-.03-.056-.051-.113-.084-.169-.66.2-.812.76-.956,1.334" transform="translate(-12.427 -5.054)" fill="#cae1fe"/>
        <path id="Trazado_160858" data-name="Trazado 160858" d="M52.545,15.719a1.437,1.437,0,0,1-1.961.323l-.107.047a1.427,1.427,0,0,0,2.051-.083,8.612,8.612,0,0,0,.8-.769c1.455-1.5,3.02-2.883,4.55-4.3.076-.028.137-.033.209-.054a.4.4,0,0,0-.332-.074c-1.824,1.545-3.492,3.257-5.212,4.913" transform="translate(-12.555 -2.686)" fill="#cae1fe"/>
        <path id="Trazado_160859" data-name="Trazado 160859" d="M84.389,41.489c.963.28,1.916.6,2.887.847a1.529,1.529,0,0,0,1.756-1.015,1.5,1.5,0,0,0-.754-1.813,4.462,4.462,0,0,0-.744-.264q-3.185-.96-6.369-1.913a1.23,1.23,0,0,1-.261-2.35c.279-.148.551-.314.826-.47l6.275-3.548a1.535,1.535,0,0,0,.9-1.62,1.476,1.476,0,0,0-1.147-1.276,1.778,1.778,0,0,0-1.421.319c-2.251,1.278-4.512,2.538-6.747,3.842A1.433,1.433,0,0,1,77.66,32.1c-.05.01-.1.014-.158.019a.112.112,0,0,0,.01.019,1.5,1.5,0,0,0,2.2.255c1.216-.7,2.425-1.414,3.656-2.086,1.161-.634,2.264-1.379,3.482-1.9a1.258,1.258,0,0,1,1.7.574,1.21,1.21,0,0,1-.4,1.614,4.179,4.179,0,0,1-.667.428C85.264,32.31,83,33.531,80.788,34.829a1.43,1.43,0,0,0-.773,1.446,1.377,1.377,0,0,0,.944,1.17,8.848,8.848,0,0,0,1.2.407c1.853.547,3.71,1.086,5.551,1.674.9.285,1.318.987,1.1,1.662a1.412,1.412,0,0,1-1.876.845c-.844-.225-1.672-.51-2.515-.737-1.376-.37-1.993.171-1.871,1.6-.017-1.327.568-1.78,1.837-1.41" transform="translate(-19.277 -6.969)" fill="#cae1fe"/>
        <path id="Trazado_160860" data-name="Trazado 160860" d="M25.5,39.393q.4.219.79.439a6.558,6.558,0,0,0-.871-.491c.029.017.053.035.082.051" transform="translate(-6.324 -9.786)" fill="#cae1fe"/>
        <path id="Trazado_160861" data-name="Trazado 160861" d="M45.553,5.082c-.006,2.584,0,5.168,0,7.752,0,1.18-.181,1.406-1.318,1.687-.03.035-.056.06-.086.091a1.624,1.624,0,0,0,.337.044c1-.317,1.244-.612,1.252-1.645.017-2.514,0-5.028.006-7.542a1.877,1.877,0,0,1,.923-1.88h0a1.816,1.816,0,0,1-.05-.217c-.894.234-1.059.93-1.061,1.71" transform="translate(-10.98 -0.839)" fill="#cae1fe"/>
        <path id="Trazado_160862" data-name="Trazado 160862" d="M79.42,56.963a4.081,4.081,0,0,0-5.1-2.549C70.732,55.587,67.09,56.6,63.476,57.7a1.012,1.012,0,0,1-.891-.078c-1.4-.805-2.8-1.6-4.212-2.378a.731.731,0,0,1-.426-.75c.015-2.12.023-4.241-.005-6.361a.828.828,0,0,1,.539-.841c1.232-.667,2.469-1.331,3.653-2.077a1.852,1.852,0,0,1,1.839-.184c.834.325,1.718.52,2.575.79a1.346,1.346,0,0,0,1.78-.575,1.884,1.884,0,0,0-1.674-1.7c-1.024-.238-2.031-.57-3.033-.9a1.965,1.965,0,0,0-1.732.207c-1.158.683-2.357,1.3-3.512,1.987a4.1,4.1,0,0,1-1.08.482,7.059,7.059,0,0,0-1.009.466,3.631,3.631,0,0,0-.751,2.938c.118,2.076.079,4.166.008,6.247a1.974,1.974,0,0,0,.725,1.82,6.717,6.717,0,0,0,1.066.482A21.241,21.241,0,0,1,61.1,59.309a3.637,3.637,0,0,0,3.434.38c3.369-1.109,6.784-2.08,10.184-3.094a2.217,2.217,0,0,1,1.4-.12,1.906,1.906,0,0,1,1.264,1.587,1.8,1.8,0,0,1-1.285,1.729c-1.349.473-2.736.83-4.1,1.252-.784.242-1.58.45-2.357.711-1.264.424-1.442,1.1-.581,2.112a6.63,6.63,0,0,0,1.975,1.283c.841.491,1.7.957,2.536,1.457.907.51,1.815,1.019,2.717,1.539a1.451,1.451,0,0,1,.563,1.994,1.475,1.475,0,0,1-1.938.64c-.017.008-.026.022-.045.029a1.5,1.5,0,0,1-1.028-.325C71.938,69.4,70,68.38,68.144,67.231a2.128,2.128,0,0,0-2.454-.207,1.821,1.821,0,0,0-.041,1.236q.833,3.226,1.642,6.457a1.606,1.606,0,0,1-.369,1.763,1.379,1.379,0,0,1-1.55.321c-.005.005-.008.011-.013.017-.455.127-.686-.171-.895-.487A3.926,3.926,0,0,1,64,75.069q-1.335-5.355-2.7-10.7a2.618,2.618,0,0,0-1.4-1.795c-1.585-.85-3.147-1.746-4.7-2.655a1.888,1.888,0,0,0-2.139.019c-2.251,1.34-4.535,2.625-6.8,3.94a2.851,2.851,0,0,0-1.007.879,3.171,3.171,0,0,1-.2.87c-.006,2.008-.007,4.016-.037,6.023a1.912,1.912,0,0,0,.673,1.526c2.829,2.679,5.637,5.378,8.454,8.07a2.12,2.12,0,0,1,.76,1.088,1.441,1.441,0,0,1-.581,1.545,1.375,1.375,0,0,1-1.543.149.625.625,0,0,1-.155.018,1.242,1.242,0,0,1-.726-.449c-1.371-1.4-2.905-2.621-4.227-4.067-.6-.659-1.248-1.157-2.214-.786a.223.223,0,0,1-.122,0,1.775,1.775,0,0,0-.315,1.154c.011,2.644.017,5.287,0,7.931-.008,1.319-.828,1.977-1.974,1.654-.011.011-.018.022-.029.033-.675.094-.926-.4-1.162-.872a3.048,3.048,0,0,1-.2-1.4c0-2.383-.013-4.767.006-7.15a1.4,1.4,0,0,0-.881-1.518l-.273-.189a2.577,2.577,0,0,0-.871.574q-2.412,2.328-4.843,4.637a1.469,1.469,0,0,1-1.5.541.814.814,0,0,1-.19.052,1.563,1.563,0,0,1-.852-2.584,11.566,11.566,0,0,1,1.557-1.576,2.124,2.124,0,0,0,.893-2.463h0a1.33,1.33,0,0,0-1.678.175c-.781.755-1.594,1.48-2.339,2.269A3.912,3.912,0,0,0,36.249,85.5c1.082-.988,2.126-2.016,3.3-3.134,0,1.892,0,3.609,0,5.326a4.967,4.967,0,0,0,.229,1.642A3.914,3.914,0,0,0,47.4,88.084c.047-1.669.007-3.339.019-5.009,0-.186-.113-.418.132-.579,1.057,1.007,2.1,2.023,3.164,3.009a3.771,3.771,0,0,0,3.98.841A3.9,3.9,0,0,0,56,79.711q-4.035-3.89-8.112-7.738a1.346,1.346,0,0,1-.479-1.1c.027-1.537.024-3.075,0-4.611a.8.8,0,0,1,.469-.809q2.9-1.646,5.767-3.336a.876.876,0,0,1,1.013,0c1.322.776,2.659,1.529,4,2.269a1.177,1.177,0,0,1,.616.844q1.353,5.464,2.762,10.915a3.92,3.92,0,1,0,7.577-1.955c-.334-1.355-.671-2.708-1.031-4.164,1.687.953,3.266,1.86,4.858,2.741a3.956,3.956,0,0,0,5.454-1.383,3.913,3.913,0,0,0-1.548-5.407c-1.412-.829-2.85-1.617-4.272-2.432-.167-.1-.42-.119-.438-.413,1.313-.4,2.626-.787,3.935-1.186a3.947,3.947,0,0,0,2.854-4.984" transform="translate(-7.369 -10.578)"/>
        <path id="Trazado_160863" data-name="Trazado 160863" d="M50.109,72.384a2.417,2.417,0,0,0,.043-.407c-.017.135-.029.271-.043.407" transform="translate(-12.464 -17.903)"/>
        <path id="Trazado_160864" data-name="Trazado 160864" d="M69.415,80.962c-.951-3.765-1.913-7.528-2.844-11.3a2.155,2.155,0,0,0-1.128-1.519c-1.789-.969-3.555-1.98-5.313-3a1.591,1.591,0,0,0-1.777.012c-2.437,1.433-4.89,2.842-7.342,4.25a2.087,2.087,0,0,0-.847.809l0,.972a3.2,3.2,0,0,0,.2-.87,2.841,2.841,0,0,1,1.007-.878c2.266-1.316,4.549-2.6,6.8-3.941a1.888,1.888,0,0,1,2.139-.019c1.553.909,3.115,1.8,4.7,2.655a2.617,2.617,0,0,1,1.4,1.8q1.36,5.348,2.7,10.7a3.943,3.943,0,0,0,.461,1.261c.209.316.439.614.895.487l.013-.017c-.039-.017-.077-.031-.117-.053-.657-.207-.8-.775-.948-1.344" transform="translate(-12.477 -16.136)"/>
        <path id="Trazado_160865" data-name="Trazado 160865" d="M76.192,43.483c-1.255-.4-2.527-.741-3.777-1.155a1.963,1.963,0,0,0-1.723.218c-1.481.856-2.989,1.666-4.487,2.494a3.447,3.447,0,0,0-.458.213c-.015.007-.029.017-.044.023-.031.011-.056.026-.085.038a2.554,2.554,0,0,0-.5.394,7.062,7.062,0,0,1,1.009-.465,4.1,4.1,0,0,0,1.08-.483c1.155-.69,2.354-1.3,3.512-1.987a1.965,1.965,0,0,1,1.732-.207c1,.33,2.008.662,3.033.9a1.884,1.884,0,0,1,1.674,1.7c.172-.938-.079-1.4-.963-1.684" transform="translate(-16.196 -10.501)"/>
        <path id="Trazado_160866" data-name="Trazado 160866" d="M45.544,99.616c-.007-2.584,0-5.168,0-7.752,0-1.185-.184-1.413-1.318-1.682-.041.013-.073.039-.113.054l.274.188a1.4,1.4,0,0,1,.881,1.519c-.019,2.383-.009,4.766-.006,7.149a3.04,3.04,0,0,0,.2,1.4c.237.472.488.965,1.162.871.011-.011.018-.022.029-.033-.015,0-.029,0-.043-.008-.9-.234-1.06-.93-1.062-1.71" transform="translate(-10.971 -22.431)"/>
        <path id="Trazado_160867" data-name="Trazado 160867" d="M52.557,90.845a1.419,1.419,0,0,0-1.956-.32c-.027.029-.041.062-.065.092a.238.238,0,0,0,.122,0c.966-.372,1.611.126,2.214.785,1.322,1.445,2.856,2.672,4.227,4.067a1.249,1.249,0,0,0,.726.45.662.662,0,0,0,.155-.019,1.778,1.778,0,0,1-.212-.137c-1.822-1.549-3.49-3.261-5.212-4.916" transform="translate(-12.57 -22.451)"/>
        <path id="Trazado_160868" data-name="Trazado 160868" d="M34.542,91.626A11.6,11.6,0,0,0,32.985,93.2a1.563,1.563,0,0,0,.852,2.584.779.779,0,0,0,.19-.052,1.31,1.31,0,0,1-.176-.063,1.449,1.449,0,0,1-.628-2.482c.651-.684,1.361-1.312,2.037-1.973a1.3,1.3,0,0,0,.176-2.052,2.124,2.124,0,0,1-.893,2.463" transform="translate(-8.105 -22.178)"/>
        <path id="Trazado_160869" data-name="Trazado 160869" d="M66.2,62.061h0c1.5.832,3.014,1.645,4.5,2.5a2,2,0,0,0,1.731.2c2.091-.66,4.2-1.273,6.3-1.906,1.644-.5,3.286-1,4.931-1.494,1.173-.352,2.059.02,2.318.962.246.9-.287,1.619-1.461,1.983-.126.039-.25.086-.376.123-1.948.586-3.894,1.179-5.847,1.75-.559.163-1.061.346-1.187,1a1.325,1.325,0,0,0,.649,1.415q2.317,1.3,4.633,2.6c-.836-.5-1.693-.965-2.536-1.456a6.657,6.657,0,0,1-1.975-1.284c-.861-1.012-.683-1.687.581-2.112.778-.261,1.573-.469,2.357-.711,1.367-.422,2.753-.779,4.1-1.252A1.8,1.8,0,0,0,86.2,62.654a1.907,1.907,0,0,0-1.264-1.587,2.214,2.214,0,0,0-1.4.12c-3.4,1.014-6.815,1.986-10.185,3.094a3.636,3.636,0,0,1-3.433-.38,21.3,21.3,0,0,0-3.763-2.037,6.68,6.68,0,0,1-1.066-.482,2.376,2.376,0,0,0,.526.294,3.422,3.422,0,0,1,.582.385" transform="translate(-16.19 -15.171)"/>
        <path id="Trazado_160870" data-name="Trazado 160870" d="M79.616,74.661a1.427,1.427,0,0,0-1.925.135,1.244,1.244,0,0,0-.061.143,2.129,2.129,0,0,1,2.454.207c1.856,1.15,3.793,2.166,5.688,3.253a1.506,1.506,0,0,0,1.029.325c.018-.008.028-.02.045-.029-.051-.018-.1-.031-.153-.053-2.36-1.324-4.731-2.632-7.078-3.982" transform="translate(-19.309 -18.495)"/>
        <path id="Trazado_160871" data-name="Trazado 160871" d="M31.333,68.975c.9-.82,1.736-1.7,2.608-2.55a1.322,1.322,0,0,0,.374-1.01c0-2.169,0-4.337,0-6.506a1.334,1.334,0,0,0-.71-1.239q-3.728-2.188-7.486-4.324a1.284,1.284,0,0,0-1.352.007q-2.808,1.56-5.6,3.155a1.587,1.587,0,0,0-.741.987,2.4,2.4,0,0,1-.412,1.02c-.041.018-.075.041-.116.059-.887,3.563-1.764,7.127-2.669,10.684A1.445,1.445,0,0,1,13.258,70.4c-.009.008-.014.017-.023.023a1.175,1.175,0,0,1-1.167-1.137,3.727,3.727,0,0,1,.135-1.337c.453-1.826.917-3.65,1.368-5.477.057-.231.122-.461.164-.7a1.217,1.217,0,0,0-.345-1.306,1.1,1.1,0,0,0-1.333.068c-2.043,1.179-4.1,2.327-6.152,3.493a8.269,8.269,0,0,1-1.133.575A1.638,1.638,0,0,1,2.648,63.9a1.572,1.572,0,0,1,.364-2.141A9.246,9.246,0,0,1,4.7,60.714q2.689-1.545,5.4-3.041a3.4,3.4,0,0,0,.471-.3,1,1,0,0,0-.194-1.834,18.457,18.457,0,0,0-2.5-.8c-1.294-.387-2.582-.8-3.884-1.16a2.961,2.961,0,0,1-1.014-.442,1.7,1.7,0,0,1,1.355-3.061c1.241.282,2.444.7,3.664,1.061,2.67.783,5.321,1.626,7.99,2.412a2.006,2.006,0,0,0,1.668-.184c1.756-.986,3.492-2.007,5.258-2.975a1.608,1.608,0,0,0,.9-1.549q-.019-3.935,0-7.871a1.607,1.607,0,0,0-.9-1.551c-1.767-.967-3.511-1.973-5.257-2.976A1.985,1.985,0,0,0,16,36.266c-3.709,1.1-7.4,2.263-11.113,3.345a1.946,1.946,0,0,1-1.828-.1,1.676,1.676,0,0,1-.829-1.61,1.771,1.771,0,0,1,1.2-1.464c.838-.331,1.718-.539,2.581-.8,1.293-.392,2.59-.77,3.881-1.17.533-.165,1.1-.337,1.17-1.027.069-.714-.459-1.016-.978-1.306-2.107-1.173-4.2-2.364-6.3-3.553A3.763,3.763,0,0,1,2.933,28,1.568,1.568,0,0,1,2.662,25.9a1.569,1.569,0,0,1,2.056-.692c1.667.754,3.211,1.745,4.808,2.632q1.25.7,2.484,1.421A1.083,1.083,0,0,0,13.722,28c-.465-1.987-.983-3.961-1.473-5.943a4.726,4.726,0,0,1-.195-1.332,1.3,1.3,0,0,1,1-1.355,1.059,1.059,0,0,1,.145.056,1.413,1.413,0,0,1,1.983.978c.194.6.313,1.224.475,1.834.258.968.529,1.178,1.549,1.225.888-.534,1.013-.816.773-1.819-.135-.566-.285-1.128-.439-1.688a3.916,3.916,0,1,0-7.567,1.993c.342,1.373.682,2.747,1.05,4.227-1.675-.95-3.236-1.842-4.8-2.72a3.968,3.968,0,0,0-2.659-.582,4.1,4.1,0,0,0-3.342,3.3A3.858,3.858,0,0,0,2.2,30.186c1.426.858,2.892,1.649,4.336,2.478.165.095.428.114.421.41-1.317.4-2.632.785-3.945,1.186A3.943,3.943,0,0,0,.177,39.253a4.089,4.089,0,0,0,5.112,2.532c3.565-1.164,7.181-2.17,10.769-3.262a1.1,1.1,0,0,1,.968.065q2.09,1.216,4.21,2.381a.735.735,0,0,1,.411.76c-.013,2.12-.018,4.24,0,6.36a.786.786,0,0,1-.483.8q-2.05,1.126-4.071,2.3a1.167,1.167,0,0,1-1.034.115C12.45,50.2,8.828,49.126,5.211,48.04a3.958,3.958,0,0,0-1.72-.2A3.955,3.955,0,0,0,.019,51.333a3.9,3.9,0,0,0,2.759,4.145c1.391.457,2.8.857,4.216,1.287-.131.309-.387.354-.581.466-1.42.818-2.855,1.609-4.269,2.438A3.913,3.913,0,0,0,.854,65.252a3.961,3.961,0,0,0,5.14,1.228c1.651-.9,3.277-1.845,5.037-2.841-.4,1.557-.772,2.958-1.11,4.368a3.948,3.948,0,0,0,2.825,4.806,3.874,3.874,0,0,0,4.765-2.862q1.45-5.561,2.823-11.144a1.1,1.1,0,0,1,.58-.781c1.362-.759,2.723-1.521,4.068-2.31a.812.812,0,0,1,.94.011q2.874,1.686,5.772,3.326a.841.841,0,0,1,.5.876,16.035,16.035,0,0,0,.011,2.7,4.01,4.01,0,0,1-1.846,4.255,6.635,6.635,0,0,0-.922.873c-.736.724-.776,1.01-.285,1.951a2.222,2.222,0,0,0,2.188-.734" transform="translate(0 -4.198)"/>
        <path id="Trazado_160872" data-name="Trazado 160872" d="M13.783,20.2a1.3,1.3,0,0,0-1,1.355,4.7,4.7,0,0,0,.195,1.332c.49,1.981,1.008,3.955,1.473,5.943a1.084,1.084,0,0,1-1.712,1.261q-1.233-.727-2.483-1.421c-1.6-.887-3.141-1.878-4.808-2.632a1.57,1.57,0,0,0-2.057.692,1.569,1.569,0,0,0,.272,2.092,3.759,3.759,0,0,0,.844.59c2.1,1.189,4.193,2.381,6.3,3.553.52.289,1.048.591.979,1.306-.067.69-.637.862-1.17,1.027-1.291.4-2.587.778-3.88,1.17-.863.261-1.742.47-2.581.8a1.771,1.771,0,0,0-1.2,1.464,1.676,1.676,0,0,0,.829,1.61,1.947,1.947,0,0,0,1.829.1c3.714-1.083,7.4-2.245,11.113-3.345a1.985,1.985,0,0,1,1.667.186c1.746,1,3.49,2.009,5.257,2.976a1.6,1.6,0,0,1,.9,1.551q-.02,3.936,0,7.871a1.607,1.607,0,0,1-.9,1.549c-1.766.968-3.5,1.989-5.257,2.975a2.007,2.007,0,0,1-1.669.184c-2.669-.787-5.32-1.629-7.99-2.412-1.22-.358-2.423-.78-3.663-1.061a1.7,1.7,0,0,0-1.355,3.061,2.964,2.964,0,0,0,1.015.442c1.3.364,2.589.773,3.883,1.16a18.457,18.457,0,0,1,2.5.8A1.006,1.006,0,0,1,11.3,58.2a3.4,3.4,0,0,1-.471.3q-2.716,1.492-5.4,3.041a9.245,9.245,0,0,0-1.686,1.044,1.571,1.571,0,0,0-.363,2.141,1.638,1.638,0,0,0,2.125.706,8.3,8.3,0,0,0,1.132-.575c2.049-1.167,4.11-2.315,6.152-3.493a1.1,1.1,0,0,1,1.333-.068,1.217,1.217,0,0,1,.345,1.306c-.042.235-.107.465-.164.7-.452,1.827-.915,3.65-1.368,5.477a3.727,3.727,0,0,0-.135,1.337,1.175,1.175,0,0,0,1.167,1.137c.009-.007.014-.017.023-.023-.019,0-.036-.006-.055-.011-.917-.391-1.173-.951-.9-2.053q.781-3.155,1.593-6.3c.165-.64.313-1.26-.293-1.747-.651-.524-1.227-.165-1.819.174-2.2,1.259-4.415,2.5-6.623,3.751a1.859,1.859,0,0,1-1.269.351,1.518,1.518,0,0,1-1.279-1.254,1.448,1.448,0,0,1,.838-1.642c2.179-1.247,4.367-2.477,6.55-3.717.656-.373,1.462-.63,1.322-1.645-.131-.97-.957-1.012-1.646-1.223-2.045-.627-4.1-1.233-6.138-1.874a1.491,1.491,0,0,1-1.137-1.6,1.554,1.554,0,0,1,1.327-1.381,2.478,2.478,0,0,1,1.083.192c3.692,1.111,7.389,2.209,11.073,3.347a2.147,2.147,0,0,0,1.876-.2c1.775-1.047,3.574-2.055,5.379-3.052a1.565,1.565,0,0,0,.9-1.531q-.038-4.052,0-8.107a1.611,1.611,0,0,0-.942-1.584q-2.708-1.492-5.379-3.052a1.974,1.974,0,0,0-1.729-.205c-1.786.573-3.587,1.1-5.383,1.638-2.074.623-4.144,1.259-6.227,1.854A1.514,1.514,0,0,1,3.175,39.3a1.536,1.536,0,0,1,1.079-1.856c.148-.054.3-.1.452-.143q3.187-.958,6.373-1.917a1.238,1.238,0,0,0,.294-2.326c-.581-.314-1.149-.653-1.723-.978C7.832,31.053,6.011,30.032,4.2,29a1.48,1.48,0,0,1-.863-1.563A1.513,1.513,0,0,1,4.528,26.1a1.8,1.8,0,0,1,1.35.329q3.378,1.916,6.755,3.837c.557.319,1.1.554,1.684.085s.5-1.041.334-1.664c-.543-2.1-1.068-4.2-1.6-6.3-.27-1.074-.1-1.556.739-2.089.045-.017.088-.026.132-.04a1.087,1.087,0,0,0-.144-.056" transform="translate(-0.732 -5.025)"/>
        <path id="Trazado_160873" data-name="Trazado 160873" d="M37.04,81.4c.952-.957,1.938-1.88,2.925-2.8a1.593,1.593,0,0,0,.536-1.261c-.013-2.17-.017-4.341,0-6.512a1.472,1.472,0,0,0-.836-1.4Q35.953,67.3,32.259,65.14a1.588,1.588,0,0,0-1.776.007C29,66.016,27.535,66.918,26,67.672a3.28,3.28,0,0,0-2.125,2.693c-.012.05-.025.1-.038.149.041-.019.074-.042.116-.059a2.411,2.411,0,0,0,.412-1.02,1.58,1.58,0,0,1,.741-.987q2.788-1.595,5.6-3.155a1.284,1.284,0,0,1,1.352-.006q3.763,2.128,7.486,4.324a1.337,1.337,0,0,1,.709,1.24c-.008,2.168,0,4.337,0,6.505a1.324,1.324,0,0,1-.375,1.01c-.872.847-1.706,1.73-2.608,2.55a2.221,2.221,0,0,1-2.187.734A1.36,1.36,0,0,0,37.04,81.4" transform="translate(-5.928 -16.136)"/>
        <path id="Trazado_160874" data-name="Trazado 160874" d="M20.068,23.72a9.03,9.03,0,0,1-.489-1.667c-.355-1.358-.557-1.577-1.855-1.693.388.246.448.715.554,1.126.6,2.3,1.163,4.61,1.74,6.915q.472,1.883.942,3.767a1.719,1.719,0,0,0,.69,1.116c.387.25.772.5,1.157.757a1.642,1.642,0,0,1-.332-.639c-.436-1.715-.948-3.412-1.325-5.141-.234-1.071.213-1.634,1.258-1.7h0c-.557-.636-.4-1.528-.8-2.224a1.1,1.1,0,0,1-1.542-.615" transform="translate(-4.409 -5.064)" fill="#b8cae9"/>
        <path id="Trazado_160875" data-name="Trazado 160875" d="M22.263,30.313c.377,1.729.889,3.426,1.325,5.141a1.65,1.65,0,0,0,.332.64,19.49,19.49,0,0,0,2.986,1.69c-.744-.442-1.472-.911-2.235-1.315a1.813,1.813,0,0,1-.969-1.261c-.382-1.585-.784-3.166-1.173-4.749-.267-1.085-.056-1.473.992-1.847-1.044.068-1.491.631-1.258,1.7" transform="translate(-5.523 -7.117)" fill="#b8cae9"/>
        <path id="Trazado_160876" data-name="Trazado 160876" d="M22.723,34.034c-.385-.252-.77-.507-1.157-.757a1.716,1.716,0,0,1-.69-1.116q-.472-1.883-.942-3.767c-.577-2.306-1.143-4.615-1.74-6.916-.106-.41-.166-.88-.554-1.125-.084-.008-.159-.016-.252-.023.461.283.5.788.617,1.236.741,2.9,1.561,5.791,2.16,8.724.4,1.95,1.053,3.534,3.075,4.246.063.022.123.051.185.077a2.485,2.485,0,0,1-.7-.578" transform="translate(-4.325 -5.057)" fill="#b8cae9"/>
        <path id="Trazado_160877" data-name="Trazado 160877" d="M27.188,40.347c-.2-.118-.4-.237-.606-.352.2.125.4.246.606.352" transform="translate(-6.612 -9.948)" fill="#b8cae9"/>
        <path id="Trazado_160878" data-name="Trazado 160878" d="M24.489,38.571a2.485,2.485,0,0,0,.7.578,6.518,6.518,0,0,1,.871.491c.2.113.4.233.606.351a2.52,2.52,0,0,0,.808.269,19.393,19.393,0,0,1-2.986-1.69" transform="translate(-6.091 -9.594)" fill="#b8cae9"/>
        <path id="Trazado_160879" data-name="Trazado 160879" d="M20.021,23.052c-.162-.611-.281-1.234-.475-1.835a1.412,1.412,0,0,0-1.983-.977,1,1,0,0,1,.12.062c1.3.116,1.5.335,1.854,1.693a9.074,9.074,0,0,0,.49,1.667,1.1,1.1,0,0,0,1.542.615c-1.02-.047-1.291-.258-1.549-1.225" transform="translate(-4.369 -5.006)" fill="#b8cae9"/>
        <path id="Trazado_160880" data-name="Trazado 160880" d="M17.52,20.277c-.044.014-.087.023-.132.04.094.007.168.016.252.023a.907.907,0,0,0-.12-.063" transform="translate(-4.325 -5.044)" fill="#b8cae9"/>
        <path id="Trazado_160881" data-name="Trazado 160881" d="M49.482,22.611a1.446,1.446,0,0,1,.5-1.043c2.061-2.053,4.176-4.048,6.307-6.026.853-.793,1.667-1.626,2.479-2.46a1.273,1.273,0,0,0,.282-1.775,1.18,1.18,0,0,0-1.349-.482.871.871,0,0,1,.187.411,2.858,2.858,0,0,1-.612,2.813c-1.969,2.031-4.069,3.927-6.124,5.869-.9.853-1.775,1.738-2.653,2.617a1.276,1.276,0,0,0-.363.936c-.007,1.243,0,2.486,0,3.729a.917.917,0,0,0,.461.944,1.576,1.576,0,0,1,.9.846c-.065-2.125-.005-4.251-.014-6.377" transform="translate(-11.972 -2.682)" fill="#b8cae9"/>
        <path id="Trazado_160882" data-name="Trazado 160882" d="M58.142,10.74a1.18,1.18,0,0,1,1.349.482A1.274,1.274,0,0,1,59.209,13c-.812.833-1.626,1.666-2.478,2.459-2.131,1.979-4.247,3.973-6.307,6.026a1.445,1.445,0,0,0-.5,1.043c.009,2.126-.051,4.253.014,6.377a2.454,2.454,0,0,1,.164,1.048c-.01-1.907.082-3.822-.062-5.719a4.149,4.149,0,0,1,1.593-3.7c2.659-2.389,5.2-4.912,7.773-7.394a1.507,1.507,0,0,0-1.79-2.421c.254-.13.418-.092.528.023" transform="translate(-12.413 -2.597)" fill="#b8cae9"/>
        <path id="Trazado_160883" data-name="Trazado 160883" d="M48.525,28.157a.916.916,0,0,1-.461-.944c0-1.243-.006-2.486,0-3.729a1.275,1.275,0,0,1,.362-.936c.879-.878,1.75-1.763,2.653-2.617,2.055-1.942,4.155-3.837,6.124-5.869a2.856,2.856,0,0,0,.612-2.813.871.871,0,0,0-.187-.411c-.062.013-.129.032-.2.05a.7.7,0,0,1,.216.449,2.757,2.757,0,0,1-.689,2.7c-2.883,2.749-5.744,5.521-8.614,8.284a1.215,1.215,0,0,0-.5.935c.025,1.4.014,2.8.006,4.2a.73.73,0,0,0,.343.748,2.33,2.33,0,0,1,1.241,1.129c0-.111-.008-.222-.012-.334a1.573,1.573,0,0,0-.9-.846" transform="translate(-11.901 -2.696)" fill="#b8cae9"/>
        <path id="Trazado_160884" data-name="Trazado 160884" d="M49.947,35.017c0,.111.008.222.012.334a1.9,1.9,0,0,1,.152.714,2.461,2.461,0,0,0-.164-1.048" transform="translate(-12.424 -8.71)" fill="#b8cae9"/>
        <path id="Trazado_160885" data-name="Trazado 160885" d="M60.167,10.781a.4.4,0,0,1,.332.074c.067-.019.133-.038.2-.05-.11-.115-.274-.153-.528-.023" transform="translate(-14.966 -2.661)" fill="#b8cae9"/>
        <path id="Trazado_160886" data-name="Trazado 160886" d="M49.334,5.854a5.009,5.009,0,0,0-.058-1.028,1.341,1.341,0,0,0-1.57-1.182,1.982,1.982,0,0,1,.34,1.38c-.082,2.7.228,5.389.174,8.086a4.057,4.057,0,0,0,.02.634c.084.625.316.782.908.608a2.413,2.413,0,0,1,.49-.154,1.95,1.95,0,0,1-.3-1.355q-.006-3.493,0-6.988" transform="translate(-11.866 -0.904)" fill="#b7c9e8"/>
        <path id="Trazado_160887" data-name="Trazado 160887" d="M47.638,3.546a1.341,1.341,0,0,1,1.569,1.182,5.009,5.009,0,0,1,.059,1.028q0,3.493,0,6.988a1.954,1.954,0,0,0,.3,1.356.4.4,0,0,1,.258.063A1.652,1.652,0,0,1,49.45,13c.014-1.427.005-2.856,0-4.283,0-1.269.022-2.539-.008-3.807A1.475,1.475,0,0,0,47.431,3.34a1.339,1.339,0,0,1,.207.206" transform="translate(-11.798 -0.808)" fill="#b7c9e8"/>
        <path id="Trazado_160888" data-name="Trazado 160888" d="M49.585,14.2a2.309,2.309,0,0,0-.49.154c-.592.174-.824.017-.908-.608a4.063,4.063,0,0,1-.02-.634c.055-2.7-.256-5.387-.174-8.087a1.986,1.986,0,0,0-.34-1.38c-.052,0-.1,0-.156.012a3.815,3.815,0,0,1,.273,1.157c-.124,2.714.187,5.42.16,8.134-.02,1.993.105,2.106,1.8,1.362-.05-.035-.1-.065-.147-.1l0-.007" transform="translate(-11.815 -0.907)" fill="#b7c9e8"/>
        <path id="Trazado_160889" data-name="Trazado 160889" d="M50.276,17.694l0,.007c.052.039.1.068.147.1l.107-.047a.407.407,0,0,0-.258-.063" transform="translate(-12.505 -4.401)" fill="#b7c9e8"/>
        <path id="Trazado_160890" data-name="Trazado 160890" d="M47.431,3.371a1.667,1.667,0,0,0,.051.218c.055-.008.1-.008.156-.012a1.339,1.339,0,0,0-.207-.206" transform="translate(-11.798 -0.838)" fill="#b7c9e8"/>
        <path id="Trazado_160891" data-name="Trazado 160891" d="M76.934,28.493c.446-1.827.908-3.65,1.364-5.474a8.115,8.115,0,0,0,.191-.853c.166-1.193-.432-1.791-1.617-1.651a1.743,1.743,0,0,1,.359,1.844c-.456,1.982-.974,3.95-1.464,5.924-.083.333-.183.663-.234,1-.124.829.138,1.081.952.9a1.22,1.22,0,0,1,.465-.05,2.3,2.3,0,0,1-.015-1.644" transform="translate(-18.78 -5.098)" fill="#b8cae9"/>
        <path id="Trazado_160892" data-name="Trazado 160892" d="M78.876,22.06a8.078,8.078,0,0,1-.192.853c-.455,1.824-.918,3.647-1.363,5.474a2.3,2.3,0,0,0,.014,1.644.467.467,0,0,1,.214.088,1.826,1.826,0,0,1-.081-1.448q.831-3.206,1.63-6.42a1.611,1.611,0,0,0-.438-1.806,1.329,1.329,0,0,0-1.6-.189,1.63,1.63,0,0,1,.2.155c1.186-.14,1.784.459,1.618,1.651" transform="translate(-19.168 -4.991)" fill="#b8cae9"/>
        <path id="Trazado_160893" data-name="Trazado 160893" d="M76.39,30.194c-.814.18-1.077-.072-.953-.9.051-.34.152-.669.234-1,.491-1.974,1.007-3.941,1.463-5.923a1.742,1.742,0,0,0-.358-1.844c-.035,0-.065,0-.1.008l-.012.007a2.555,2.555,0,0,1,.25,1.919c-.587,2.232-1.139,4.474-1.69,6.715-.106.432-.224.918.22,1.235a.951.951,0,0,0,1.171-.079.634.634,0,0,1,.3-.077c-.021-.035-.038-.071-.056-.107a1.232,1.232,0,0,0-.464.05" transform="translate(-18.686 -5.105)" fill="#b8cae9"/>
        <path id="Trazado_160894" data-name="Trazado 160894" d="M77.259,20.471a1.64,1.64,0,0,0-.2-.155c.034.056.055.113.084.17l.013-.008c.036-.005.066,0,.1-.008" transform="translate(-19.168 -5.053)" fill="#b8cae9"/>
        <path id="Trazado_160895" data-name="Trazado 160895" d="M77.428,33.329c.018.035.034.071.056.107.054-.005.107-.009.159-.019a.47.47,0,0,0-.214-.088" transform="translate(-19.259 -8.29)" fill="#b8cae9"/>
        <path id="Trazado_160896" data-name="Trazado 160896" d="M36.16,11.415a1.875,1.875,0,0,0-1.282-.719,2.815,2.815,0,0,1,.328.335c1.657,1.752,3.515,3.3,5.184,5.032a1.1,1.1,0,0,0,1.378.361,2.518,2.518,0,0,1-1.218-.8c-1.394-1.478-2.947-2.786-4.39-4.211" transform="translate(-8.675 -2.66)" fill="#b8cae8"/>
        <path id="Trazado_160897" data-name="Trazado 160897" d="M34.729,10.625a1.875,1.875,0,0,1,1.282.719c1.443,1.425,3,2.733,4.39,4.211a2.52,2.52,0,0,0,1.218.8,1.673,1.673,0,0,0,.158-.082,2.75,2.75,0,0,1-1.046-.691c-1.581-1.527-3.173-3.04-4.761-4.56a1.45,1.45,0,0,0-1.692-.491.509.509,0,0,1,.451.1" transform="translate(-8.526 -2.59)" fill="#b8cae8"/>
        <path id="Trazado_160898" data-name="Trazado 160898" d="M40.295,16.062c-1.669-1.736-3.528-3.279-5.184-5.031a2.772,2.772,0,0,0-.328-.336,1.179,1.179,0,0,0-.288.044c.147.121.3.24.433.372q2.75,2.661,5.493,5.326c.546.528.828.529,1.324,0-.023,0-.05,0-.072-.009a1.1,1.1,0,0,1-1.378-.361" transform="translate(-8.58 -2.66)" fill="#b8cae8"/>
        <path id="Trazado_160899" data-name="Trazado 160899" d="M34.278,10.562c.055.047.108.094.163.14a1.179,1.179,0,0,1,.288-.044.511.511,0,0,0-.451-.1" transform="translate(-8.526 -2.623)" fill="#b8cae8"/>
        <path id="Trazado_160900" data-name="Trazado 160900" d="M44.049,18.293c.023.005.049.005.072.01.029-.031.056-.056.086-.091-.054.032-.106.056-.158.081" transform="translate(-10.957 -4.53)" fill="#b8cae8"/>
        <path id="Trazado_160901" data-name="Trazado 160901" d="M45.945,60.744q3.623-2.122,7.274-4.194A1.606,1.606,0,0,0,54.11,55q-.023-4.168,0-8.338a1.606,1.606,0,0,0-.878-1.553q-3.651-2.075-7.276-4.192a1.577,1.577,0,0,0-1.773.007c-1.524.894-3.076,1.741-4.617,2.608-.856.515-1.693,1.065-2.572,1.536a1.674,1.674,0,0,0-.959,1.663c.023,2.7.033,5.394,0,8.09a1.791,1.791,0,0,0,1.084,1.834c.468.229.895.544,1.34.82,1.906,1.078,3.822,2.141,5.714,3.243a1.591,1.591,0,0,0,1.775.023m-7.518-6.6q.024-3.3,0-6.591a.8.8,0,0,1,.458-.815q2.9-1.636,5.761-3.326a.73.73,0,0,1,.856,0q2.866,1.686,5.761,3.325a.792.792,0,0,1,.459.815c-.024,1.084-.008,2.17-.008,3.255,0,1.112-.014,2.224.008,3.335a.739.739,0,0,1-.424.754q-2.927,1.664-5.828,3.369a.679.679,0,0,1-.788,0q-2.9-1.7-5.83-3.366a.747.747,0,0,1-.425-.754" transform="translate(-8.962 -10.112)"/>
        <path id="Trazado_160902" data-name="Trazado 160902" d="M48.595,74.514a1.083,1.083,0,0,0-.461,1.04c0,1.111,0,2.221,0,3.333a1.519,1.519,0,0,0,.488,1.128c2.068,2.083,4.221,4.077,6.367,6.078.813.758,1.6,1.54,2.358,2.354a2.862,2.862,0,0,1,.539,2.759.692.692,0,0,1-.343.5,1.772,1.772,0,0,0,1-.169,1.257,1.257,0,0,0,.35-2.061c-.843-.915-1.731-1.789-2.644-2.637q-3.17-2.946-6.256-5.979a1.519,1.519,0,0,1-.52-1.119c.017-2.051-.08-4.106.068-6.154a2.223,2.223,0,0,1-.949.927" transform="translate(-11.972 -18.304)" fill="#b8cae9"/>
        <path id="Trazado_160903" data-name="Trazado 160903" d="M57.809,90.941a2.86,2.86,0,0,0-.539-2.759c-.756-.814-1.545-1.6-2.358-2.354-2.146-2-4.3-4-6.367-6.078a1.521,1.521,0,0,1-.487-1.128c.005-1.111,0-2.221,0-3.333a1.083,1.083,0,0,1,.461-1.041,2.223,2.223,0,0,0,.949-.927q.029-.4.074-.8a2.58,2.58,0,0,1-1.355,1.729c-.331.2-.344.557-.34.917.012,1.084.043,2.17-.011,3.252a1.886,1.886,0,0,0,.659,1.593c2.834,2.69,5.632,5.418,8.462,8.113a2.757,2.757,0,0,1,.688,2.7c-.047.279-.139.589-.549.523a1.714,1.714,0,0,0,.369.093.688.688,0,0,0,.343-.5" transform="translate(-11.898 -18.038)" fill="#b8cae9"/>
        <path id="Trazado_160904" data-name="Trazado 160904" d="M49.915,79.662a1.518,1.518,0,0,0,.52,1.119q3.076,3.043,6.257,5.98c.912.847,1.8,1.721,2.643,2.636a1.258,1.258,0,0,1-.35,2.061,1.766,1.766,0,0,1-1,.168.554.554,0,0,1-.157.044,1.375,1.375,0,0,0,1.543-.149,1.442,1.442,0,0,0,.581-1.545,2.127,2.127,0,0,0-.76-1.088C56.37,86.2,53.561,83.5,50.732,80.82a1.914,1.914,0,0,1-.673-1.526c.031-2.007.032-4.015.038-6.023a2.466,2.466,0,0,1-.113.238c-.147,2.048-.051,4.1-.068,6.153" transform="translate(-12.412 -18.225)" fill="#b8cae9"/>
        <path id="Trazado_160905" data-name="Trazado 160905" d="M50.085,72.384c-.029.267-.053.535-.073.8a2.37,2.37,0,0,0,.113-.237q0-.487,0-.972a2.416,2.416,0,0,1-.043.407" transform="translate(-12.44 -17.903)" fill="#b8cae9"/>
        <path id="Trazado_160906" data-name="Trazado 160906" d="M60.164,97.581a1.777,1.777,0,0,0,.212.137.567.567,0,0,0,.158-.044,1.688,1.688,0,0,1-.37-.093" transform="translate(-14.965 -24.272)" fill="#b8cae9"/>
        <path id="Trazado_160907" data-name="Trazado 160907" d="M48.405,90.081c-.5.286-.391.829-.391,1.294-.01,2.7,0,5.4-.008,8.1a2.437,2.437,0,0,1-.485,1.787c1.5-.38,1.76-.726,1.764-2.331.006-2.4-.006-4.8.008-7.2,0-.446-.044-.935.412-1.194-.035-.012-.071-.023-.1-.036-.4-.159-.682-.707-1.195-.415" transform="translate(-11.82 -22.385)" fill="#b8c9e8"/>
        <path id="Trazado_160908" data-name="Trazado 160908" d="M47.983,99.358c.01-2.7,0-5.4.008-8.1,0-.465-.11-1.008.391-1.294s.8.256,1.195.415l.1.037a.961.961,0,0,1,.147-.074,2.744,2.744,0,0,1-.315-.235c-.338-.337-.654-.76-1.212-.5-.542.255-.56.756-.557,1.285.015,2.593-.005,5.185.014,7.778a6.6,6.6,0,0,1-.328,2.489l.067-.018a2.436,2.436,0,0,0,.485-1.787" transform="translate(-11.798 -22.269)" fill="#b8c9e8"/>
        <path id="Trazado_160909" data-name="Trazado 160909" d="M49.7,90.71c-.455.258-.409.747-.411,1.194-.014,2.4,0,4.8-.008,7.2,0,1.6-.265,1.951-1.764,2.33-.008.009-.015.019-.024.027,1.146.325,1.965-.334,1.974-1.654.018-2.644.011-5.287,0-7.93a1.78,1.78,0,0,1,.315-1.154.465.465,0,0,1-.083-.018" transform="translate(-11.812 -22.563)" fill="#b8c9e8"/>
        <path id="Trazado_160910" data-name="Trazado 160910" d="M50.427,90.686a.465.465,0,0,0,.083.018c.023-.03.038-.062.065-.092a.961.961,0,0,0-.147.074" transform="translate(-12.543 -22.538)" fill="#b8c9e8"/>
        <path id="Trazado_160911" data-name="Trazado 160911" d="M47.432,105.01c.015,0,.029,0,.043.009l.024-.027-.067.018" transform="translate(-11.798 -26.115)" fill="#b8c9e8"/>
        <path id="Trazado_160912" data-name="Trazado 160912" d="M19.617,82.322c.721-3.031,1.461-6.06,2.286-9.066a3.186,3.186,0,0,1,.284-.8c-1.379.69-1.844,1.953-2.148,3.418-.488,2.347-1.137,4.661-1.726,6.987a2.19,2.19,0,0,1-.641,1.345c1.221-.017,1.68-.772,1.945-1.886" transform="translate(-4.396 -18.023)" fill="#b8cae9"/>
        <path id="Trazado_160913" data-name="Trazado 160913" d="M18.289,82.8c.589-2.326,1.238-4.64,1.726-6.988.305-1.465.769-2.728,2.149-3.418a1.206,1.206,0,0,1,.152-.208c-.3.159-.6.325-.9.474a2.149,2.149,0,0,0-1.231,1.612c-.285,1.385-.641,2.759-1.019,4.122a43.185,43.185,0,0,1-1.591,5.754c.026,0,.047,0,.072,0a2.193,2.193,0,0,0,.642-1.345" transform="translate(-4.372 -17.954)" fill="#b8cae9"/>
        <path id="Trazado_160914" data-name="Trazado 160914" d="M21.9,73.237c-.825,3.007-1.565,6.035-2.286,9.066-.265,1.114-.724,1.87-1.945,1.886-.007.005-.011.011-.017.017a1.445,1.445,0,0,0,1.978-1.141c.905-3.557,1.782-7.122,2.669-10.684-.04.018-.076.039-.115.059a3.186,3.186,0,0,0-.284.8" transform="translate(-4.39 -18.004)" fill="#b8cae9"/>
        <path id="Trazado_160915" data-name="Trazado 160915" d="M23.8,72.332l.038-.149a1.162,1.162,0,0,0-.152.207c.038-.019.074-.04.114-.059" transform="translate(-5.891 -17.954)" fill="#b8cae9"/>
        <path id="Trazado_160916" data-name="Trazado 160916" d="M17.647,88.1c-.026,0-.047.005-.072.005.019.005.036.006.056.011s.01-.011.017-.017" transform="translate(-4.372 -21.913)" fill="#b8cae9"/>
        <path id="Trazado_160917" data-name="Trazado 160917" d="M62.138,48.87c-.029,2.4-.036,4.807,0,7.21a.967.967,0,0,0,.5.855c.461.268.91.562,1.37.832a3.1,3.1,0,0,1-.627-2.372,58.846,58.846,0,0,0,.011-6.358,2.509,2.509,0,0,1,.525-1.838c-.418.247-.826.511-1.247.754a1.023,1.023,0,0,0-.531.918" transform="translate(-15.45 -11.74)" fill="#b8cae9"/>
        <path id="Trazado_160918" data-name="Trazado 160918" d="M63.936,57.462c-.461-.269-.909-.563-1.371-.832a.967.967,0,0,1-.494-.855c-.04-2.4-.033-4.807,0-7.21a1.024,1.024,0,0,1,.53-.918c.421-.242.83-.506,1.248-.754a2.478,2.478,0,0,1,.956-.645c.038-.023.089-.04.129-.062a2.238,2.238,0,0,1,.458-.212,12.684,12.684,0,0,0-2.864,1.445,1.126,1.126,0,0,0-.7,1.128q.008,3.6,0,7.205c0,.332.035.708.3.862a12.683,12.683,0,0,0,3.257,1.711,3.065,3.065,0,0,1-1.451-.864" transform="translate(-15.379 -11.436)" fill="#b8cae9"/>
        <path id="Trazado_160919" data-name="Trazado 160919" d="M63.806,48.952A58.847,58.847,0,0,1,63.8,55.31a3.1,3.1,0,0,0,.627,2.372c.113.065.229.123.343.186a1.977,1.977,0,0,1-.725-1.82c.072-2.08.11-4.17-.007-6.247a3.625,3.625,0,0,1,.751-2.938c-.152.083-.3.164-.453.252a2.513,2.513,0,0,0-.525,1.838" transform="translate(-15.865 -11.656)" fill="#b8cae9"/>
        <path id="Trazado_160920" data-name="Trazado 160920" d="M65.469,46.339a2.484,2.484,0,0,0-.956.645c.149-.088.3-.169.453-.252a2.527,2.527,0,0,1,.5-.394" transform="translate(-16.047 -11.526)" fill="#b8cae9"/>
        <path id="Trazado_160921" data-name="Trazado 160921" d="M66.416,45.974a2.184,2.184,0,0,0-.458.213,3.449,3.449,0,0,1,.458-.213" transform="translate(-16.406 -11.435)" fill="#b8cae9"/>
        <path id="Trazado_160922" data-name="Trazado 160922" d="M66.085,62.128a3.422,3.422,0,0,0-.582-.385,2.376,2.376,0,0,1-.526-.294c-.114-.062-.231-.119-.343-.186a3.072,3.072,0,0,0,1.451.864" transform="translate(-16.077 -15.239)" fill="#b8cae9"/>
        <path id="Trazado_160923" data-name="Trazado 160923" d="M35.231,55.3c.056-2.434.037-4.871.007-7.306A2.032,2.032,0,0,1,36.472,45.9c.879-.418,1.669-1.01,2.56-1.416-.079,0-.174-.026-.234.008q-2.306,1.3-4.6,2.62a.78.78,0,0,0-.314.766q.009,3.888,0,7.776c0,.27-.013.562.242.717a18.521,18.521,0,0,0,3.8,2.056c-.445-.177-.82-.5-1.251-.673A2.236,2.236,0,0,1,35.231,55.3" transform="translate(-8.428 -11.063)" fill="#b8cae9"/>
        <path id="Trazado_160924" data-name="Trazado 160924" d="M35.942,55.781c.038-2.7.028-5.394.005-8.09a1.674,1.674,0,0,1,.959-1.663c.879-.471,1.717-1.02,2.572-1.536-.891.406-1.682,1-2.561,1.416A2.032,2.032,0,0,0,35.684,48c.03,2.435.049,4.872-.008,7.306a2.235,2.235,0,0,0,1.439,2.452c.431.175.807.5,1.251.674-.445-.276-.872-.59-1.34-.82a1.792,1.792,0,0,1-1.084-1.834" transform="translate(-8.874 -11.067)" fill="#b8cae9"/>
        <path id="Trazado_160925" data-name="Trazado 160925" d="M75.582,76.126c.52,2.183,1.077,4.358,1.622,6.535a2.281,2.281,0,0,1-.4,2.168,2.505,2.505,0,0,0,.546-.113A1.273,1.273,0,0,0,78.5,83.131a18.723,18.723,0,0,0-.518-2.23c-.362-1.483-.762-2.958-1.092-4.448-.1-.458-.267-.965.1-1.361a1.211,1.211,0,0,1-.3-.043c-1.07-.3-1.371-.024-1.109,1.077" transform="translate(-18.778 -18.64)" fill="#b8cae9"/>
        <path id="Trazado_160926" data-name="Trazado 160926" d="M77.113,82.548c-.545-2.178-1.1-4.352-1.622-6.535-.262-1.1.039-1.376,1.109-1.077a1.185,1.185,0,0,0,.3.043,1.108,1.108,0,0,1,.172-.151.815.815,0,0,1-.311-.033c-.449-.252-.922-.515-1.371-.088-.427.406-.217.923-.1,1.409.543,2.164,1.062,4.334,1.623,6.492a2.564,2.564,0,0,1-.342,2.087.47.47,0,0,0,.142.02,2.28,2.28,0,0,0,.4-2.167" transform="translate(-18.688 -18.526)" fill="#b8cae9"/>
        <path id="Trazado_160927" data-name="Trazado 160927" d="M77.408,75.141c-.367.4-.2.9-.1,1.361.331,1.491.73,2.965,1.092,4.449a18.68,18.68,0,0,1,.518,2.229,1.272,1.272,0,0,1-1.146,1.585,2.42,2.42,0,0,1-.546.113c-.008.011-.016.022-.025.032a1.379,1.379,0,0,0,1.55-.321,1.607,1.607,0,0,0,.37-1.764q-.808-3.231-1.642-6.456a1.825,1.825,0,0,1,.041-1.236l-.017.01a.774.774,0,0,1-.093,0" transform="translate(-19.198 -18.688)" fill="#b8cae9"/>
        <path id="Trazado_160928" data-name="Trazado 160928" d="M77.483,75.093a.772.772,0,0,0,.093,0l.017-.01a1.475,1.475,0,0,1,.062-.143,1.043,1.043,0,0,0-.172.151" transform="translate(-19.273 -18.641)" fill="#b8cae9"/>
        <path id="Trazado_160929" data-name="Trazado 160929" d="M77.051,88.077c.04.022.078.035.117.053l.025-.032a.5.5,0,0,1-.142-.021" transform="translate(-19.165 -21.908)" fill="#b8cae9"/>
        <path id="Trazado_160930" data-name="Trazado 160930" d="M40.28,90.479c-1.7,1.7-3.53,3.266-5.182,5.016a2.277,2.277,0,0,1-.336.307,2.55,2.55,0,0,0,1.359-.754c1.463-1.438,3.021-2.776,4.436-4.264a1.712,1.712,0,0,1,1.125-.7c-.6-.393-.717-.3-1.4.391" transform="translate(-8.647 -22.351)" fill="#b8cae8"/>
        <path id="Trazado_160931" data-name="Trazado 160931" d="M34.976,95.411c1.652-1.75,3.483-3.315,5.182-5.016.686-.687.8-.784,1.4-.391a1.106,1.106,0,0,1,.214.013c-.55-.634-.832-.659-1.409-.1q-2.751,2.663-5.5,5.331c-.189.182-.4.341-.6.511a2.085,2.085,0,0,0,.369-.041,2.277,2.277,0,0,0,.336-.307" transform="translate(-8.524 -22.266)" fill="#b8cae8"/>
        <path id="Trazado_160932" data-name="Trazado 160932" d="M40.493,90.861c-1.415,1.488-2.974,2.826-4.436,4.264a2.55,2.55,0,0,1-1.359.754.918.918,0,0,1-.193.1,1.469,1.469,0,0,0,1.5-.541q2.426-2.314,4.843-4.637a2.564,2.564,0,0,1,.871-.573c-.036-.025-.069-.045-.1-.067a1.712,1.712,0,0,0-1.125.7" transform="translate(-8.583 -22.427)" fill="#b8cae8"/>
        <path id="Trazado_160933" data-name="Trazado 160933" d="M34.271,97.812a1.311,1.311,0,0,0,.176.063.918.918,0,0,0,.193-.1,1.952,1.952,0,0,1-.369.041" transform="translate(-8.524 -24.319)" fill="#b8cae8"/>
        <path id="Trazado_160934" data-name="Trazado 160934" d="M43.974,90.165l.1.066c.039-.015.071-.041.112-.054a1.167,1.167,0,0,0-.214-.012" transform="translate(-10.938 -22.427)" fill="#b8cae8"/>
        <path id="Trazado_160935" data-name="Trazado 160935" d="M90.385,78.009a1.109,1.109,0,0,1-.5.976c.089-.008.179-.028.268-.031a1.466,1.466,0,0,0,1.548-.983c.169-.588-.142-1.144-.887-1.611-.388-.244-.786-.473-1.177-.711a2.918,2.918,0,0,1,.75,2.36" transform="translate(-22.295 -18.817)" fill="#b7c9e8"/>
        <path id="Trazado_160936" data-name="Trazado 160936" d="M87.971,77.859a1.11,1.11,0,0,0,.5-.976,2.92,2.92,0,0,0-.75-2.36c-1.684-1.025-3.389-2.016-5.125-2.952-.237-.128-.43-.308-.653-.449.144.351.478.467.775.636,1.509.856,3.043,1.671,4.513,2.591a2.375,2.375,0,0,1,.535,3.49.451.451,0,0,0,.2.02" transform="translate(-20.382 -17.691)" fill="#b7c9e8"/>
        <path id="Trazado_160937" data-name="Trazado 160937" d="M89.256,75.383c.391.239.789.467,1.177.711.745.467,1.056,1.024.888,1.611a1.467,1.467,0,0,1-1.548.983c-.089,0-.179.023-.268.032-.018.01-.032.023-.051.032a1.475,1.475,0,0,0,1.938-.64,1.451,1.451,0,0,0-.563-1.994c-.9-.519-1.811-1.028-2.717-1.539.205.122.415.236.616.365a2.986,2.986,0,0,1,.529.439" transform="translate(-21.916 -18.55)" fill="#b7c9e8"/>
        <path id="Trazado_160938" data-name="Trazado 160938" d="M89.7,80.062c.052.022.1.035.153.053.02-.009.032-.023.051-.032a.451.451,0,0,1-.2-.02" transform="translate(-22.311 -19.914)" fill="#b7c9e8"/>
        <path id="Trazado_160939" data-name="Trazado 160939" d="M82.6,71.571c1.736.936,3.441,1.926,5.125,2.952a2.954,2.954,0,0,0-.529-.439c-.2-.13-.412-.243-.617-.366q-2.314-1.3-4.633-2.6c.224.14.417.32.654.448" transform="translate(-20.382 -17.691)" fill="#b7c9e8"/>
      </g>
    </g>
  </g>
</svg>
