<svg xmlns="http://www.w3.org/2000/svg" xmlns:xlink="http://www.w3.org/1999/xlink" width="105" height="105" viewBox="0 0 105 105">
  <defs>
    <clipPath id="clip-path">
      <rect id="Rectángulo_42486" data-name="Rectángulo 42486" width="74.11" height="74.111" fill="none"/>
    </clipPath>
  </defs>
  <g id="_46" data-name="46" transform="translate(4996 6084)">
    <circle id="Elipse_4916" data-name="Elipse 4916" cx="52.5" cy="52.5" r="52.5" transform="translate(-4996 -6084)" fill="#a6bbff"/>
    <g id="Grupo_169284" data-name="Grupo 169284" transform="translate(-4981 -6069)">
      <g id="Grupo_169283" data-name="Grupo 169283" clip-path="url(#clip-path)">
        <path id="Trazado_160776" data-name="Trazado 160776" d="M62.6.018,60.219,7.195H65.03l-2.642,7.418a2.74,2.74,0,0,1-.151.42c-.244.44-.06.511.369.545a8.192,8.192,0,0,1,7.1,4.811,7.576,7.576,0,0,1,.561,5.372c-.139.532.015.658.475.805a4.756,4.756,0,0,1-1.463,9.3q-23.857.013-47.714,0a4.726,4.726,0,0,1-4.79-4.225c-.066-.53-.261-.559-.679-.558-3.783.012-7.567.02-11.35,0a4.773,4.773,0,0,1-2.634-8.741,5.26,5.26,0,0,1,3.416-.809.693.693,0,0,0,.808-.525c.92-2.2,2.772-3.382,4.865-4.237a17.733,17.733,0,0,1,7.452-1.2c.5.018.7-.067.831-.614A13.042,13.042,0,0,1,32.975,4.829a12.626,12.626,0,0,1,9.947,5.509c.3.419.505.51,1,.3a11.721,11.721,0,0,1,6.625-.917c.518.085.682-.122.812-.564C52.2,6.323,53.061,3.5,53.888.666c.136-.467.283-.674.835-.666,2.606.04,5.213.018,7.879.018" transform="translate(0 0)"/>
        <path id="Trazado_160777" data-name="Trazado 160777" d="M124.122,91.485c.18.168.342.31.5.462,1.2,1.193,1.2,1.194.019,2.379q-6.336,6.336-12.661,12.68c-.376.378-.569.449-.976.024-1.2-1.251-1.22-1.23-.007-2.443L123.611,91.97c.156-.156.32-.305.511-.485" transform="translate(-52.085 -43.281)"/>
        <path id="Trazado_160778" data-name="Trazado 160778" d="M86.433,112.223a5.481,5.481,0,0,0-.429-.564c-1.173-1.179-1.176-1.177-.026-2.326,4.206-4.206,8.423-8.4,12.6-12.631.5-.508.748-.443,1.191.026,1.065,1.128,1.087,1.106.014,2.179L87.011,111.684c-.156.155-.322.3-.579.54" transform="translate(-40.27 -45.582)"/>
        <path id="Trazado_160779" data-name="Trazado 160779" d="M16.069,83.619c-.269-.31-.5-.606-.76-.872-.847-.861-.851-.856-.012-1.7q4.726-4.727,9.444-9.462c.35-.352.572-.452.92-.019s1.059.811,1.093,1.252c.036.464-.69.836-1.091,1.239q-4.507,4.524-9.027,9.034c-.155.155-.322.3-.566.524" transform="translate(-6.941 -33.724)"/>
        <path id="Trazado_160780" data-name="Trazado 160780" d="M106.317,72.852c-.131.14-.229.25-.332.354q-5.006,5.008-10.006,10.021c-.292.294-.449.309-.757.009-1.341-1.308-1.352-1.3-.055-2.593,3-3,6.016-6,9-9.023.388-.394.616-.459.973,0a12.264,12.264,0,0,0,.939.956c.082.083.151.178.237.282" transform="translate(-44.568 -33.731)"/>
        <path id="Trazado_160781" data-name="Trazado 160781" d="M63.722,92.754a6.336,6.336,0,0,0-.508-.675c-1.074-1.09-1.078-1.085,0-2.166,3.057-3.057,6.122-6.105,9.159-9.181.413-.418.628-.419,1.03,0,1.161,1.212,1.181,1.193-.013,2.387q-4.532,4.533-9.064,9.065c-.156.156-.322.3-.6.569" transform="translate(-29.525 -38.046)"/>
        <path id="Trazado_160782" data-name="Trazado 160782" d="M33.642,98.037a.93.93,0,0,0-.241.168q-5,4.986-9.978,9.984c-.28.281-.433.348-.758.031-1.351-1.317-1.364-1.3-.015-2.653,2.958-2.957,5.93-5.9,8.859-8.886.5-.512.785-.477,1.189.032.246.31.56.566.836.853.079.082.211.148.107.472" transform="translate(-10.24 -45.566)"/>
        <path id="Trazado_160783" data-name="Trazado 160783" d="M3.6,102.464a3.585,3.585,0,1,1,3.574-3.559A3.6,3.6,0,0,1,3.6,102.464" transform="translate(-0.002 -45.084)"/>
        <path id="Trazado_160784" data-name="Trazado 160784" d="M86.556,98.912a3.585,3.585,0,1,1-3.512-3.619,3.6,3.6,0,0,1,3.512,3.619" transform="translate(-37.558 -45.083)"/>
        <path id="Trazado_160785" data-name="Trazado 160785" d="M51.224,111.536a3.585,3.585,0,1,1,3.579-3.554,3.6,3.6,0,0,1-3.579,3.554" transform="translate(-22.535 -49.376)"/>
        <path id="Trazado_160786" data-name="Trazado 160786" d="M10.384,120.244A3.585,3.585,0,1,1,6.809,123.8a3.6,3.6,0,0,1,3.576-3.554" transform="translate(-3.221 -56.887)"/>
        <path id="Trazado_160787" data-name="Trazado 160787" d="M102.432,126.073a3.585,3.585,0,1,1-3.569-3.562,3.6,3.6,0,0,1,3.569,3.562" transform="translate(-45.069 -57.96)"/>
        <path id="Trazado_160788" data-name="Trazado 160788" d="M77.483,130.627a3.585,3.585,0,1,1-3.552-3.579,3.605,3.605,0,0,1,3.552,3.579" transform="translate(-33.265 -60.106)"/>
        <path id="Trazado_160789" data-name="Trazado 160789" d="M10.887,27.991a4.983,4.983,0,0,1,1.772-1.725A14.627,14.627,0,0,1,20.9,24.418c.3.008.375.134.379.406a5.962,5.962,0,0,0,.085,1.04c.08.419-.07,1.147.331,1.184a5.113,5.113,0,0,0,2.022-.407c.29-.1.081-.5.048-.741a10.473,10.473,0,0,1,2.283-8.238,10.729,10.729,0,0,1,16.986.347c.308.419.327.616-.124.983A13.085,13.085,0,0,0,41.206,37.8c.413.482.686.608,1.115.047.315-.41.944-.722,1.005-1.141.05-.336-.563-.752-.843-1.159-2.522-3.668-2.89-7.553-.765-11.464,2.139-3.936,5.614-5.752,10.1-5.651.707.016.837.257.566.878a9.184,9.184,0,0,0-.355,1.213c-.019.071-.023.145-.043.283h6.071c-.592,2.968-1.233,5.855-1.711,8.769a2.231,2.231,0,0,1-1.255,1.793,5.677,5.677,0,0,0-2.731,4.4c-.056.424.014.683.52.585a.782.782,0,0,1,.149,0,4.3,4.3,0,0,0,1.48-.039c.478-.188.291-.847.471-1.28a3.588,3.588,0,1,1,3.6,4.894c-.248.017-.5.009-.747.009q-16.842,0-33.684,0a4.753,4.753,0,0,1-.966-.052,2.384,2.384,0,0,1,.482-4.721c2.19-.019,4.382-.021,6.572.006.489.006.615-.126.612-.612-.01-1.789.009-1.79-1.813-1.79-1.718,0-3.436.007-5.154,0a4.693,4.693,0,0,0-4.086,2.049.777.777,0,0,1-.741.347c-4.008-.006-8.016,0-12.024-.007a2.388,2.388,0,1,1-.01-4.773c2.141-.013,4.282-.018,6.423.007.486.006.684-.064.677-.624-.024-1.776,0-1.777-1.754-1.777Z" transform="translate(-2.148 -6.462)" fill="#e5e8ec"/>
        <path id="Trazado_160790" data-name="Trazado 160790" d="M113.908,49.577a7.235,7.235,0,0,0,1.054-2.509,5.858,5.858,0,0,0-2.666-6.1c-.43-.265-.5-.468-.334-.918.659-1.766,1.308-3.537,1.9-5.325a.884.884,0,0,1,.975-.68,6.037,6.037,0,0,1,5.875,4,5.853,5.853,0,0,1-2.059,6.714c-.659.463-.637.795-.237,1.323a1.039,1.039,0,0,1,.075.129c.69,1.248.69,1.247,1.827.316a5.892,5.892,0,0,0,1.243-1.28.928.928,0,0,1,1.076-.42,2.439,2.439,0,0,1,1.993,2.442,2.331,2.331,0,0,1-2.147,2.286c-2.827.054-5.656.017-8.578.017" transform="translate(-52.929 -16.107)" fill="#e5e8ec"/>
        <path id="Trazado_160791" data-name="Trazado 160791" d="M104.5,11.732c1.474,0,2.841,0,4.208,0,.317,0,.543,0,.387.433q-2.383,6.614-4.754,13.232c-.012.033-.07.048-.208.137l2.277-11.4h-5.815c.319-1.072.619-2.079.92-3.086.6-2,1.208-3.989,1.784-5.991.11-.381.267-.515.662-.5.943.027,1.887.008,2.917.008L104.5,11.732" transform="translate(-47.59 -2.154)" fill="#fbd670"/>
        <path id="Trazado_160792" data-name="Trazado 160792" d="M6.927,101.083a1.194,1.194,0,1,1-1.117-1.25,1.217,1.217,0,0,1,1.117,1.25" transform="translate(-2.148 -47.229)" fill="#68d3f1"/>
        <path id="Trazado_160793" data-name="Trazado 160793" d="M86.31,101.059a1.194,1.194,0,1,1-1.14-1.228,1.215,1.215,0,0,1,1.14,1.228" transform="translate(-39.704 -47.229)" fill="#68d3f1"/>
        <path id="Trazado_160794" data-name="Trazado 160794" d="M54.557,110.126a1.194,1.194,0,1,1-1.146-1.222,1.214,1.214,0,0,1,1.146,1.222" transform="translate(-24.681 -51.521)" fill="#68d3f1"/>
        <path id="Trazado_160795" data-name="Trazado 160795" d="M12.512,124.781a1.194,1.194,0,1,1-1.166,1.2,1.214,1.214,0,0,1,1.166-1.2" transform="translate(-5.368 -59.033)" fill="#68d3f1"/>
        <path id="Trazado_160796" data-name="Trazado 160796" d="M100.984,127.049a1.194,1.194,0,1,1-1.183,1.185,1.213,1.213,0,0,1,1.183-1.185" transform="translate(-47.216 -60.107)" fill="#68d3f1"/>
        <path id="Trazado_160797" data-name="Trazado 160797" d="M76.072,133.972a1.194,1.194,0,1,1,1.166-1.2,1.215,1.215,0,0,1-1.166,1.2" transform="translate(-35.412 -62.253)" fill="#68d3f1"/>
        <path id="Trazado_160798" data-name="Trazado 160798" d="M85.455,28.5a1.442,1.442,0,0,0,0,.224c.1.625-.047.895-.794,1a5.64,5.64,0,0,0-4.826,3.911,5.722,5.722,0,0,0,1.295,6.083c.246.27.332.452.027.714a5.188,5.188,0,0,0-.454.494c-.89.993-.915,1.012-1.716-.02a8.053,8.053,0,0,1-1.211-8.546,8.168,8.168,0,0,1,6.986-5.093c.526-.065.809.037.7.641a3.3,3.3,0,0,0-.006.6" transform="translate(-36.457 -12.89)"/>
        <path id="Trazado_160799" data-name="Trazado 160799" d="M53.744,19.434a1.316,1.316,0,0,0,0,.223c.115.642-.077.88-.8.986a5.908,5.908,0,0,0-4.987,7.347c.1.44.066.636-.375.732a5.4,5.4,0,0,0-.632.214c-1.2.425-1.2.425-1.42-.8a8.4,8.4,0,0,1,7.383-9.931c.828-.1.828-.1.828,1.228" transform="translate(-21.476 -8.596)"/>
      </g>
    </g>
  </g>
</svg>
