<svg xmlns="http://www.w3.org/2000/svg" xmlns:xlink="http://www.w3.org/1999/xlink" width="105" height="105" viewBox="0 0 105 105">
  <defs>
    <clipPath id="clip-path">
      <rect id="Rectángulo_42493" data-name="Rectángulo 42493" width="66.2" height="73.325" fill="none"/>
    </clipPath>
  </defs>
  <g id="_47" data-name="47" transform="translate(4688 6084)">
    <circle id="Elipse_4917" data-name="Elipse 4917" cx="52.5" cy="52.5" r="52.5" transform="translate(-4688 -6084)" fill="#a6bbff"/>
    <g id="Grupo_169304" data-name="Grupo 169304" transform="translate(-4669 -6068)">
      <g id="Grupo_169303" data-name="Grupo 169303" clip-path="url(#clip-path)">
        <path id="Trazado_160989" data-name="Trazado 160989" d="M60.987,71.172c-.906.022-1.814-.021-2.719.016-.5.02-.709-.106-.858-.637a6.319,6.319,0,0,0-4.625-4.615c-.505-.142-.695-.336-.761-.819a9.918,9.918,0,0,0-1.717-4.34,10.78,10.78,0,0,0-5.915-4.251,28.583,28.583,0,0,0,5.177-4.462c.169-.192.428-.181.662-.223A37.2,37.2,0,0,0,56.045,50.4a9.6,9.6,0,0,0,3.144-1.649,2.462,2.462,0,0,0,0-4.094,7.147,7.147,0,0,0-1.7-1.048,18.8,18.8,0,0,0-3.986-1.324.774.774,0,0,1-.727-.833,17.9,17.9,0,0,0-.545-2.949,1.27,1.27,0,0,0-.816-1c-1.176.032-1.544.527-1.23,1.72a13.14,13.14,0,0,1-.05,7.74c-.076.225-.176.441-.252.666a3.539,3.539,0,0,1-3.5,2.683c-3.112.2-6.216.568-9.336.686a2.767,2.767,0,0,0-.356.023,1.109,1.109,0,0,0-.975,1.136,1.044,1.044,0,0,0,1.106.987c1.238-.031,2.478-.081,3.714-.173,1.8-.133,3.607-.31,5.451-.472a2.931,2.931,0,0,1-.89.828c-.637.5-1.3.97-1.959,1.436A6.994,6.994,0,0,1,39.425,56.4a6.126,6.126,0,0,0-2.107.643c-.211.092-.367.166-.557-.061A6.959,6.959,0,0,0,32.819,54.7a8.733,8.733,0,0,0-2.712.173,18.168,18.168,0,0,0-1.1-8.843,22.122,22.122,0,0,0-5.056-7.476l6.429.257c1.905-.039,3.81-.063,5.715-.121,1.572-.048,3.143-.131,4.714-.208a1.342,1.342,0,0,0,1.041-.383,1.013,1.013,0,0,0,.19-1.13,1.118,1.118,0,0,0-1.233-.64c-2.1.1-4.191.193-6.287.259a56.9,56.9,0,0,1-6.144-.062c-2.269.065-4.524-.175-6.784-.293a.876.876,0,0,1-.513-.22,51.4,51.4,0,0,0-10.046-5.964C5.352,27.366,2.548,22.765,2.2,16.582a30.007,30.007,0,0,1,.559-7.491c3.7,1.969,7.731,2.526,11.758,3.106a3.76,3.76,0,0,1,.409.105c2.825.236,5.645.534,8.48.653q5.973.252,11.944.026A96.9,96.9,0,0,0,46.874,11.9a39.975,39.975,0,0,0,7.813-1.915,13.708,13.708,0,0,1-1.71,2.7C51.8,14.155,50.59,15.6,49.422,17.074a13.991,13.991,0,0,0-1.864,3.118.887.887,0,0,1-.785.59c-3.255.491-6.526.814-9.811,1-.775.043-1.247.472-1.238,1.106.009.66.519,1.077,1.343,1.034,2.81-.147,5.611-.391,8.4-.787.212-.03.428-.041.637-.083.355-.07.392.077.327.384a14.174,14.174,0,0,0,.947,7.837c.4,1.119.828,2.228,1.256,3.337.336.87.578,1.011,1.51.937.75-.574.818-.823.493-1.7-.526-1.427-1.089-2.843-1.56-4.288a10.484,10.484,0,0,1-.372-6.389.892.892,0,0,1,.811-.72c1.142-.224,2.276-.507,3.394-.833a11.125,11.125,0,0,0,4.168-1.962,2.478,2.478,0,0,0-.041-4.184,7.053,7.053,0,0,0-1.908-1.106c-.441-.172-.511-.309-.2-.71a18.017,18.017,0,0,0,3.016-6.028,2.592,2.592,0,0,0-1.125-3.339,11.678,11.678,0,0,0-3.744-1.709A73.907,73.907,0,0,0,35.917.157,131.413,131.413,0,0,0,17.264.579a1.386,1.386,0,0,0-1.226.721c-.082,1.1.288,1.521,1.39,1.421a130.164,130.164,0,0,1,14.222-.549,91.116,91.116,0,0,1,19.1,1.987,17.3,17.3,0,0,1,4.041,1.383,5.706,5.706,0,0,1,.616.361c.787.541.784.771-.029,1.319a10.378,10.378,0,0,1-2.8,1.225,53.594,53.594,0,0,1-10.03,1.86,126.244,126.244,0,0,1-16.722.586A105.779,105.779,0,0,1,13.28,9.869a4.819,4.819,0,0,1-.469-.13,14.472,14.472,0,0,1,2.412-.577q1.192-.232,2.393-.418c2.735-.423,5.488-.679,8.249-.864a1.078,1.078,0,0,0,1.14-1.112,1.034,1.034,0,0,0-1.2-1.025C19.981,6.2,14.154,6.636,8.636,8.8a.734.734,0,0,1-.482.069A14.867,14.867,0,0,1,3.915,7.219c-.85-.558-.851-.818.017-1.347A18.634,18.634,0,0,1,9.709,3.889c1-.225,2.012-.384,3.02-.568.9-.164,1.1-.384,1.2-1.309-.446-.823-.716-.964-1.6-.795-1.355.259-2.718.492-4.062.8a16.924,16.924,0,0,0-5.578,2.1A3.141,3.141,0,0,0,1.167,6.033,35.572,35.572,0,0,0,.174,18.087a16.879,16.879,0,0,0,4.761,10.3c.268.269.737.525.754.807.019.337-.548.421-.846.633-2.018,1.427-2.03,3.33-.012,4.756a10.9,10.9,0,0,0,2.887,1.378A56.523,56.523,0,0,0,19.91,38.218a1.7,1.7,0,0,1,1.01.433,26.922,26.922,0,0,1,3.057,3.109,16.474,16.474,0,0,1,4.07,11.79c-.072,1.173.029,2.437-1.138,3.293a.709.709,0,0,1-.847.149,10.033,10.033,0,0,0-3.955-.839,10.594,10.594,0,0,0-10.637,9.088c-.049.333-.119.542-.514.642a6.375,6.375,0,0,0-4.9,4.859c-.1.363-.235.447-.572.441-.978-.018-1.956.006-2.934-.011-.606-.011-1.15.056-1.405.717s.163,1.056.6,1.436H61.737c.481-.352.888-.752.648-1.419s-.781-.75-1.4-.735M52.8,44.819c.029-.237-.017-.543.427-.419a16.845,16.845,0,0,1,3.934,1.453c1.2.686,1.187,1.037-.045,1.726a18.907,18.907,0,0,1-4.979,1.687c-.2.049-.413.086-.7.145A14.071,14.071,0,0,0,52.8,44.819m2.8-27.752c.561.42.566.61.01,1.024a9.448,9.448,0,0,1-2.77,1.287,21.655,21.655,0,0,1-2.85.758,24.632,24.632,0,0,1,2.961-4.024.363.363,0,0,1,.485-.127A8.769,8.769,0,0,1,55.6,17.067M6.963,33.342c-.573-.258-1.415-.527-1.4-1.164.014-.571.873-.773,1.4-1.1a1.39,1.39,0,0,1,1.622.075c2.094,1.225,4.373,2.1,6.451,3.364.565.344,1.132.684,1.7,1.027a31.677,31.677,0,0,1-9.768-2.205M54.626,71.177q-14.272,0-28.544,0c-2.718,0-5.436-.015-8.154-.022H8.213a4.253,4.253,0,0,1,3.8-3.281c1.209-.087,1.435-.319,1.484-1.521a8.513,8.513,0,0,1,10.223-7.87c.042.009.077.052.116.079a6.39,6.39,0,0,1,2.323.859c.885.471,1.284.365,1.838-.491A4.386,4.386,0,0,1,35.5,58.9c.6.913.971,1,1.952.468a8.463,8.463,0,0,1,12.556,7.1c.038,1.01.36,1.32,1.4,1.4A4.288,4.288,0,0,1,55.1,70.414c.363.728.33.762-.477.762" transform="translate(0 0)"/>
        <path id="Trazado_160990" data-name="Trazado 160990" d="M58.59,42.12a48.441,48.441,0,0,1-1.953-5.452,13.839,13.839,0,0,1-.41-5.525c.067-.515-.137-.573-.552-.505-2.519.413-5.067.555-7.606.785a6.47,6.47,0,0,1-1.143.011,1.266,1.266,0,0,1-1.287-1.19,1.282,1.282,0,0,1,1.126-1.282,18.2,18.2,0,0,1,2.061-.2c2.6-.137,5.174-.458,7.745-.834a1.04,1.04,0,0,0,.923-.568c1.157-2.591,3.089-4.627,4.858-6.781a17.068,17.068,0,0,0,1.977-2.848c-1.415.433-2.736.8-4.077,1.093a81.9,81.9,0,0,1-9.267,1.33,140.81,140.81,0,0,1-16.217.391,83,83,0,0,1-9.683-.742l-.1-.015a23.688,23.688,0,0,0-.565,4.846,15.083,15.083,0,0,0,2.3,7.68,23.262,23.262,0,0,0,5.1,5.436c1.481,1.262,3.023,2.453,4.433,3.8a13.406,13.406,0,0,1,2.07,2.095c.1,0,.2,0,.3-.009a36.133,36.133,0,0,0,5.422.1c2.162-.134,4.327-.124,6.489-.249a3.569,3.569,0,0,1,.855.044,1.105,1.105,0,0,1,.988.981,1.168,1.168,0,0,1-.666,1.3,2.653,2.653,0,0,1-1.247.264c-.738,0-1.476.106-2.207.106-2.547,0-5.087.292-7.634.166l-.019,0a19.6,19.6,0,0,1,1.983,3.742,19.253,19.253,0,0,1,1.063,4.7,22.476,22.476,0,0,1-.652,7.041.214.214,0,0,1-.016.041,6.357,6.357,0,0,1,3.553,1.875.956.956,0,0,0,1.207.277,5.723,5.723,0,0,1,1.852-.526,6.264,6.264,0,0,0,3.239-1.381c.923-.661,1.868-1.291,2.765-2.068-2.721.293-5.4.518-8.083.612a3.342,3.342,0,0,1-.855-.049,1.209,1.209,0,0,1-.3-2.292,1.559,1.559,0,0,1,.685-.188c2.213-.092,4.421-.254,6.628-.443,1.4-.12,2.8-.3,4.189-.492a1.462,1.462,0,0,0,1.077-.735,11.117,11.117,0,0,0,1.586-7.543,21.246,21.246,0,0,0-.453-2.462c-.294-1.231.174-1.746,1.433-1.628a1.05,1.05,0,0,1-.922-.95,7.07,7.07,0,0,0-.353-1,1.117,1.117,0,0,1-1.636-.748" transform="translate(-10.084 -7.322)" fill="#cae1fe"/>
        <path id="Trazado_160991" data-name="Trazado 160991" d="M73.08,65.5a21.022,21.022,0,0,1,.453,2.462,11.11,11.11,0,0,1-1.586,7.543,1.461,1.461,0,0,1-1.076.735c-1.393.19-2.787.373-4.189.492-2.207.189-4.416.352-6.629.443a1.555,1.555,0,0,0-.684.188,1.21,1.21,0,0,0,.3,2.293,3.342,3.342,0,0,0,.855.049c2.686-.094,5.362-.319,8.083-.612-.9.778-1.842,1.406-2.765,2.068a6.256,6.256,0,0,1-3.239,1.38,5.752,5.752,0,0,0-1.852.526.955.955,0,0,1-1.207-.277,6.355,6.355,0,0,0-3.553-1.875c-.02.052-.051.1-.076.154a6.955,6.955,0,0,1,3.942,2.281c.19.227.347.152.558.061a6.123,6.123,0,0,1,2.106-.643,7,7,0,0,0,3.718-1.638C66.9,80.669,67.56,80.2,68.2,79.7a2.939,2.939,0,0,0,.89-.828c-1.844.162-3.646.339-5.45.472-1.236.092-2.475.141-3.714.173a1.044,1.044,0,0,1-1.105-.987,1.108,1.108,0,0,1,.975-1.136,2.767,2.767,0,0,1,.356-.023c3.121-.117,6.224-.49,9.336-.686A3.54,3.54,0,0,0,72.981,74c.076-.224.176-.441.252-.666a13.135,13.135,0,0,0,.05-7.74c-.314-1.193.055-1.687,1.23-1.72-1.26-.118-1.727.4-1.433,1.628" transform="translate(-23.097 -26.377)" fill="#cae1fe"/>
        <path id="Trazado_160992" data-name="Trazado 160992" d="M50.4,64.46c2.547.126,5.087-.166,7.634-.166.731,0,1.47-.106,2.208-.106a2.65,2.65,0,0,0,1.246-.264,1.168,1.168,0,0,0,.666-1.3,1.106,1.106,0,0,0-.988-.981,3.539,3.539,0,0,0-.855-.043c-2.161.125-4.327.115-6.489.249a36.211,36.211,0,0,1-5.422-.1c-.1.005-.2.006-.3.009.046.07.1.13.146.2a56.9,56.9,0,0,0,6.144.062c2.1-.066,4.191-.163,6.287-.259a1.118,1.118,0,0,1,1.233.64,1.013,1.013,0,0,1-.189,1.13,1.344,1.344,0,0,1-1.042.383c-1.571.077-3.142.16-4.714.208-1.905.058-3.81.083-5.716.122.046.07.089.141.134.211l.019,0" transform="translate(-19.868 -25.441)" fill="#cae1fe"/>
        <path id="Trazado_160993" data-name="Trazado 160993" d="M59.115,41.634c-.428-1.109-.856-2.218-1.256-3.337a14.174,14.174,0,0,1-.947-7.837c.065-.307.028-.455-.327-.384-.21.042-.426.053-.637.083-2.787.4-5.588.639-8.4.787-.824.043-1.334-.374-1.343-1.034-.009-.633.463-1.063,1.238-1.106,3.285-.184,6.556-.505,9.811-1a.888.888,0,0,0,.785-.589A13.978,13.978,0,0,1,59.905,24.1c1.168-1.477,2.381-2.918,3.555-4.39a13.7,13.7,0,0,0,1.71-2.7,39.972,39.972,0,0,1-7.814,1.916,96.876,96.876,0,0,1-11.524,1.083q-5.971.232-11.944-.025c-2.836-.12-5.655-.417-8.479-.654-.011.053-.02.106-.031.158l.1.016a82.987,82.987,0,0,0,9.683.742,140.684,140.684,0,0,0,16.217-.391,81.923,81.923,0,0,0,9.267-1.329c1.341-.293,2.662-.66,4.077-1.093a17.1,17.1,0,0,1-1.977,2.848c-1.769,2.153-3.7,4.19-4.858,6.782a1.041,1.041,0,0,1-.923.567c-2.571.376-5.147.7-7.745.834a18.221,18.221,0,0,0-2.061.2,1.283,1.283,0,0,0-1.126,1.282,1.267,1.267,0,0,0,1.288,1.19,6.471,6.471,0,0,0,1.143-.011c2.539-.229,5.086-.373,7.606-.785.414-.068.619-.011.551.5a13.849,13.849,0,0,0,.41,5.525,48.442,48.442,0,0,0,1.953,5.452,1.117,1.117,0,0,0,1.636.748c-.931.073-1.174-.068-1.51-.937" transform="translate(-10.483 -7.025)" fill="#cae1fe"/>
        <path id="Trazado_160994" data-name="Trazado 160994" d="M15.623,4.378c-.832.214-1.687.315-2.53.481a23.5,23.5,0,0,0-5.8,1.762c-.392.19-.978.321-.983.826s.575.638.961.855a11.07,11.07,0,0,0,1.238.559A5.166,5.166,0,0,0,12.627,9a39.921,39.921,0,0,1,9.43-1.981c1.939-.252,3.89-.376,5.834-.569a3.324,3.324,0,0,1,.644,0,1.173,1.173,0,0,1,1.2,1.172,1.174,1.174,0,0,1-1.049,1.313,13.739,13.739,0,0,1-1.705.184,76.5,76.5,0,0,0-10.787,1.49c.9.123,1.646.2,2.389.3.78.106,1.565.162,2.347.245a123.2,123.2,0,0,0,16.434.4A75.025,75.025,0,0,0,53.869,9.512a16.033,16.033,0,0,0,3.367-1.189c.127-.065.253-.134.374-.211.832-.523.834-.8,0-1.288a18.119,18.119,0,0,0-5.412-1.793,73.984,73.984,0,0,0-9.7-1.343A120.834,120.834,0,0,0,29.779,3.3c-3,.073-6,.168-8.988.517a5.813,5.813,0,0,1-.714.038c-1.285-.009-1.58-.346-1.432-1.634-.224.126-.023.575-.424.563a13.472,13.472,0,0,1-1.69.148c.217.723-.084,1.238-.907,1.45" transform="translate(-2.606 -0.915)" fill="#dce9fa"/>
        <path id="Trazado_160995" data-name="Trazado 160995" d="M15.037,4.237c-1.008.184-2.021.343-3.02.568A18.658,18.658,0,0,0,6.239,6.787c-.868.53-.868.789-.017,1.347a14.847,14.847,0,0,0,4.239,1.646.732.732,0,0,0,.481-.069c5.518-2.161,11.345-2.6,17.166-3.053a1.033,1.033,0,0,1,1.2,1.025A1.078,1.078,0,0,1,28.173,8.8c-2.76.185-5.513.441-8.248.863q-1.2.186-2.394.418a14.48,14.48,0,0,0-2.412.576c.251.07.358.114.469.13a105.78,105.78,0,0,0,12.541,1.024,126.244,126.244,0,0,0,16.722-.586,53.609,53.609,0,0,0,10.031-1.86,10.378,10.378,0,0,0,2.8-1.225c.813-.548.815-.778.029-1.319a5.7,5.7,0,0,0-.615-.361,17.346,17.346,0,0,0-4.041-1.383,91.19,91.19,0,0,0-19.1-1.987,130.311,130.311,0,0,0-14.222.549c-1.1.1-1.472-.321-1.39-1.42C18.2,3.5,18.494,3.841,19.778,3.85a5.813,5.813,0,0,0,.714-.038c2.985-.349,5.989-.444,8.987-.517a120.829,120.829,0,0,1,12.715.394,73.979,73.979,0,0,1,9.7,1.343,18.119,18.119,0,0,1,5.412,1.793c.839.488.836.765,0,1.288-.121.076-.247.146-.374.211a16.044,16.044,0,0,1-3.367,1.189A75.025,75.025,0,0,1,37.065,11.56a123.208,123.208,0,0,1-16.434-.4c-.782-.083-1.567-.139-2.347-.245-.744-.1-1.49-.177-2.389-.3a76.5,76.5,0,0,1,10.787-1.49,13.739,13.739,0,0,0,1.705-.184,1.175,1.175,0,0,0,1.049-1.313,1.174,1.174,0,0,0-1.2-1.172,3.318,3.318,0,0,0-.643,0c-1.945.194-3.895.317-5.834.569A39.932,39.932,0,0,0,12.328,9a5.165,5.165,0,0,1-4.119-.143A11.078,11.078,0,0,1,6.971,8.3c-.386-.217-.965-.355-.961-.855s.59-.636.982-.826a23.515,23.515,0,0,1,5.8-1.762c.843-.166,1.7-.268,2.53-.481s1.123-.727.907-1.45c-.092.926-.3,1.145-1.2,1.309" transform="translate(-2.308 -0.915)" fill="#dce9fa"/>
        <path id="Trazado_160996" data-name="Trazado 160996" d="M106.2,51.272a9.277,9.277,0,0,0-1.659-4.05,3.672,3.672,0,0,0-4.762-1.168,1.157,1.157,0,0,1-1.228.005,1.056,1.056,0,1,0-1.049,1.831c.4.222.672.437.517.869a3.306,3.306,0,0,0,4.1,3.257,2.6,2.6,0,0,1,2.36.383,1.018,1.018,0,0,0,1.264.063,1.063,1.063,0,0,0,.454-1.189m-4.757-1.326a1.119,1.119,0,0,1-1.135-.579.958.958,0,0,1,.013-1.075,1.546,1.546,0,0,1,2.162-.137,3.694,3.694,0,0,1,1,1.561,11.119,11.119,0,0,0-2.045.231" transform="translate(-40.033 -18.847)"/>
        <path id="Trazado_160997" data-name="Trazado 160997" d="M7.644,73.223a3.611,3.611,0,0,0,4.45-.077c.492-.361.9-.9,1.516-.464.7.011,1.119-.249,1.227-.858a1.022,1.022,0,0,0-.8-1.246c-.3-.1-.579-.069-.688-.544a3.261,3.261,0,0,0-4.825-2.226,2.725,2.725,0,0,1-2.45.221.988.988,0,0,0-1.168.275.965.965,0,0,0-.2,1.128,8.939,8.939,0,0,0,2.935,3.792m1.749-3.474a1.22,1.22,0,0,1,1.614.2.869.869,0,0,1,.105,1.176,1.5,1.5,0,0,1-1.631.612,3.443,3.443,0,0,1-1.665-1.3c.552-.239,1.086-.429,1.577-.7" transform="translate(-1.904 -27.837)"/>
        <path id="Trazado_160998" data-name="Trazado 160998" d="M64.02,107.84c-1.037-.082-1.359-.392-1.4-1.4a8.463,8.463,0,0,0-12.556-7.1c-.98.535-1.356.445-1.952-.468a4.386,4.386,0,0,0-7.508.029c-.555.856-.953.962-1.838.491a6.391,6.391,0,0,0-2.323-.86c-.988.354-1.312,1.3-1.687,2.1a12.6,12.6,0,0,0-1.21,5.439.648.648,0,0,1-.451.716,3.755,3.755,0,0,0-2.256,2.742,4.021,4.021,0,0,0-.3,1.6c2.718.008,5.436.022,8.154.023q14.272,0,28.544,0c.806,0,.839-.034.477-.763a4.289,4.289,0,0,0-3.694-2.544" transform="translate(-12.61 -39.97)" fill="#ebf3fe"/>
        <path id="Trazado_160999" data-name="Trazado 160999" d="M22.147,36.333A17.133,17.133,0,0,1,16.112,26.8a16.512,16.512,0,0,1,.228-7.36.886.886,0,0,1,.113-.278,64.48,64.48,0,0,1-7.1-1.3,19.963,19.963,0,0,1-4.239-1.494c-.407-.21-.592-.159-.664.323a26.69,26.69,0,0,0,.073,9.875,14.067,14.067,0,0,0,6.841,9.273c1.13.68,2.355,1.15,3.52,1.747a49.387,49.387,0,0,1,7.712,4.77,1.474,1.474,0,0,0,.824.39c2.125.111,4.245.356,6.378.288-.691-.566-1.285-1.237-1.945-1.837-1.851-1.683-3.815-3.231-5.707-4.862" transform="translate(-1.662 -6.712)" fill="#bdd7fa"/>
        <path id="Trazado_161000" data-name="Trazado 161000" d="M23.277,42.431a1.477,1.477,0,0,1-.825-.39,49.382,49.382,0,0,0-7.712-4.77c-1.166-.6-2.391-1.066-3.52-1.747a14.066,14.066,0,0,1-6.841-9.273,26.678,26.678,0,0,1-.073-9.875c.072-.482.256-.532.664-.323a19.947,19.947,0,0,0,4.239,1.494,64.531,64.531,0,0,0,7.1,1.3.492.492,0,0,1,.136-.144,3.889,3.889,0,0,0-.408-.105c-4.027-.58-8.06-1.137-11.758-3.106a30.007,30.007,0,0,0-.559,7.491c.349,6.182,3.152,10.784,8.835,13.462A51.374,51.374,0,0,1,22.6,42.406a.881.881,0,0,0,.513.22c2.261.117,4.516.358,6.784.293-.084-.063-.161-.134-.242-.2-2.134.069-4.252-.177-6.378-.288" transform="translate(-1.518 -6.398)" fill="#bdd7fa"/>
        <path id="Trazado_161001" data-name="Trazado 161001" d="M24.627,21.483a16.5,16.5,0,0,0-.228,7.36,17.13,17.13,0,0,0,6.035,9.537c1.892,1.632,3.855,3.179,5.706,4.862.66.6,1.254,1.271,1.945,1.837l.1,0a13.414,13.414,0,0,0-2.07-2.1c-1.41-1.346-2.952-2.537-4.433-3.8a23.238,23.238,0,0,1-5.1-5.436,15.077,15.077,0,0,1-2.3-7.68,23.651,23.651,0,0,1,.565-4.846l-.106-.015a.9.9,0,0,0-.112.278" transform="translate(-9.948 -8.759)" fill="#bdd7fa"/>
        <path id="Trazado_161002" data-name="Trazado 161002" d="M25.2,21.1l.106.015c.01-.053.019-.106.029-.158a.483.483,0,0,0-.136.143" transform="translate(-10.409 -8.658)" fill="#bdd7fa"/>
        <path id="Trazado_161003" data-name="Trazado 161003" d="M47.937,61.878c.081.066.158.137.242.2-.043-.073-.1-.133-.146-.2l-.1,0" transform="translate(-19.801 -25.558)" fill="#bdd7fa"/>
        <path id="Trazado_161004" data-name="Trazado 161004" d="M23.559,111.79c.255-1.621.726-3.134,2.3-3.972a1.166,1.166,0,0,0,.677-1.122,12.419,12.419,0,0,1,1.977-6.4c.255-.379.495-.851,1.1-.715-.039-.027-.074-.069-.116-.079a8.513,8.513,0,0,0-10.223,7.87c-.049,1.2-.276,1.434-1.484,1.521a4.253,4.253,0,0,0-3.8,3.281h9.714a.455.455,0,0,1-.15-.387" transform="translate(-5.78 -41.024)" fill="#dce9fa"/>
        <path id="Trazado_161005" data-name="Trazado 161005" d="M33,108.008a.648.648,0,0,0,.451-.716,12.589,12.589,0,0,1,1.21-5.439c.375-.8.7-1.746,1.687-2.1-.609-.136-.848.337-1.1.715a12.426,12.426,0,0,0-1.977,6.4,1.166,1.166,0,0,1-.676,1.122c-1.574.838-2.045,2.351-2.3,3.972a.456.456,0,0,0,.15.387,4.022,4.022,0,0,1,.3-1.6A3.755,3.755,0,0,1,33,108.008" transform="translate(-12.508 -41.194)" fill="#dce9fa"/>
        <path id="Trazado_161006" data-name="Trazado 161006" d="M50.139,81.2a32.893,32.893,0,0,0,.526-3.606,16.744,16.744,0,0,0-2.689-10.682c-.129-.2-.32-.389-.326-.64-1.9-.227-3.817-.032-5.771-.243.06.347.3.485.468.669a18.981,18.981,0,0,1,5.341,14.538c-.03.434.037.613.516.572a13.8,13.8,0,0,1,1.864-.008,1.689,1.689,0,0,1,.072-.6" transform="translate(-17.298 -27.275)" fill="#bdd7fa"/>
        <path id="Trazado_161007" data-name="Trazado 161007" d="M47.761,81.664c-.478.042-.545-.138-.515-.572A18.978,18.978,0,0,0,41.9,66.554c-.166-.183-.407-.321-.468-.669,1.955.211,3.872.016,5.772.244a.531.531,0,0,1,.03-.194l-6.429-.258a22.13,22.13,0,0,1,5.056,7.476A18.168,18.168,0,0,1,46.964,82a8.733,8.733,0,0,1,2.712-.173.585.585,0,0,1-.05-.169,13.91,13.91,0,0,0-1.864.008" transform="translate(-16.856 -27.128)" fill="#bdd7fa"/>
        <path id="Trazado_161008" data-name="Trazado 161008" d="M52.037,67.086a16.746,16.746,0,0,1,2.689,10.682,33,33,0,0,1-.526,3.605,1.679,1.679,0,0,0-.072.6l.066,0,.06.013a.214.214,0,0,0,.016-.04,22.476,22.476,0,0,0,.652-7.041,19.253,19.253,0,0,0-1.063-4.7,19.6,19.6,0,0,0-1.983-3.742c-.055-.007-.11-.011-.164-.018,0,.251.2.436.326.64" transform="translate(-21.36 -27.446)" fill="#bdd7fa"/>
        <path id="Trazado_161009" data-name="Trazado 161009" d="M55.9,92.9l-.066,0a.58.58,0,0,0,.05.169c.025-.052.055-.1.075-.154L55.9,92.9" transform="translate(-23.061 -38.373)" fill="#bdd7fa"/>
        <path id="Trazado_161010" data-name="Trazado 161010" d="M51.711,66.31c.055.006.11.01.164.018-.045-.07-.089-.141-.134-.211a.535.535,0,0,0-.03.194" transform="translate(-21.36 -27.31)" fill="#bdd7fa"/>
        <path id="Trazado_161011" data-name="Trazado 161011" d="M102.6,49.81a.958.958,0,0,0-.012,1.075,1.118,1.118,0,0,0,1.134.579,11.12,11.12,0,0,1,2.045-.23,3.7,3.7,0,0,0-1-1.561,1.547,1.547,0,0,0-2.163.137" transform="translate(-42.309 -20.364)" fill="#93d4a2"/>
        <path id="Trazado_161012" data-name="Trazado 161012" d="M11.739,73.25a1.5,1.5,0,0,0,1.63-.612.87.87,0,0,0-.1-1.176,1.22,1.22,0,0,0-1.614-.2c-.492.268-1.025.457-1.577.7a3.439,3.439,0,0,0,1.665,1.295" transform="translate(-4.161 -29.346)" fill="#94d4a2"/>
      </g>
    </g>
  </g>
</svg>
