<svg xmlns="http://www.w3.org/2000/svg" xmlns:xlink="http://www.w3.org/1999/xlink" width="105" height="105" viewBox="0 0 105 105">
  <defs>
    <clipPath id="clip-path">
      <rect id="Rectángulo_42491" data-name="Rectángulo 42491" width="65.858" height="79.055" fill="none"/>
    </clipPath>
  </defs>
  <g id="_49" data-name="49" transform="translate(4058 6084)">
    <circle id="Elipse_4919" data-name="Elipse 4919" cx="52.5" cy="52.5" r="52.5" transform="translate(-4058 -6084)" fill="#a6bbff"/>
    <g id="Grupo_169298" data-name="Grupo 169298" transform="translate(-4039 -6071)">
      <g id="Grupo_169297" data-name="Grupo 169297" clip-path="url(#clip-path)">
        <path id="Trazado_160969" data-name="Trazado 160969" d="M32.469,79.055a1.916,1.916,0,0,1-.787-1.772c.032-3.988.005-7.975.027-11.962a1.4,1.4,0,0,0-.484-1.133c-1.294-1.215-2.561-2.459-3.845-3.683-.184-.176-.316-.448-.7-.2-3.5,2.246-7.114,1.924-10.752.409a14.465,14.465,0,0,1-5.894-5.172c-.535-.722-1.06-1.454-1.551-2.206A14.955,14.955,0,0,0,1.33,47.717c-.143-.059-.287-.111-.431-.166A1.257,1.257,0,0,1,.91,45.138a32.139,32.139,0,0,1,5.757-1.662,24.98,24.98,0,0,1,11.835.236,17.012,17.012,0,0,1,8.463,5.365,9.729,9.729,0,0,1,2.416,6.111,5.388,5.388,0,0,1-.6,2.6.541.541,0,0,0,.142.78c.9.807,1.77,1.646,2.655,2.477.212-.069.12-.253.12-.385,0-5.2,0-10.394.012-15.59,0-.426-.039-.609-.561-.623a5.932,5.932,0,0,1-6.018-6.165,1.848,1.848,0,0,0-1-1.806,15.815,15.815,0,0,1-7.65-13.415c-.165-6.865-.051-13.737-.045-20.606a1.253,1.253,0,0,1,2-1.189Q21.643,3,24.828,4.792a.83.83,0,0,0,1.029-.048C27.916,3.3,30,1.881,32.07.454c.877-.6,1.154-.609,2.007,0,1.965,1.4,3.934,2.8,5.882,4.229a.9.9,0,0,0,1.152.088c2.026-1.157,4.08-2.268,6.124-3.394,1.321-.728,2.2-.208,2.2,1.309,0,6.483.029,12.967-.006,19.449A16.29,16.29,0,0,1,41.214,36.8a.9.9,0,0,0-.452.947,6.482,6.482,0,0,1-.981,3.97,5.931,5.931,0,0,1-4.991,2.739c-.394.013-.64-.011-.639.544q.033,12.04.018,24.08a2.207,2.207,0,0,0,.05.289c.978-.916,1.9-1.788,2.836-2.652a.375.375,0,0,0,.091-.527c-1.269-2.585-.632-5.028.708-7.331a15.3,15.3,0,0,1,8.341-6.5c4.355-1.621,8.822-1.463,13.3-.564a32.119,32.119,0,0,1,5.312,1.545c.6.231,1.044.56,1.049,1.265s-.441,1.043-1.038,1.27a15.364,15.364,0,0,0-7.8,6.222,19.754,19.754,0,0,1-4.24,5.067c-3.66,2.9-7.711,3.816-12.2,2.181a4.778,4.778,0,0,1-.626-.293c-1.115-.6-1.126-.619-2.082.287-1.138,1.079-2.249,2.188-3.384,3.271a1,1,0,0,0-.326.809c.016,1.286-.032,2.574.021,3.859a1.871,1.871,0,0,1-.787,1.773Z" transform="translate(0 0)"/>
        <path id="Trazado_160970" data-name="Trazado 160970" d="M35.1,9.213c3.583,1.889,7.137,3.831,10.637,5.87a7.1,7.1,0,0,1,2.009,1.89,8.981,8.981,0,0,1,1.893,5.653c-.019,4.649-.008,9.3-.02,13.948a2.578,2.578,0,0,0,.3,1.33c-.011.44-.343.287-.563.286a12.575,12.575,0,0,1-5.009-1.109,15.307,15.307,0,0,1-9.374-11.777,16.506,16.506,0,0,1-.257-2.988c-.029-4.033-.019-8.067,0-12.1,0-.354-.2-.85.385-1" transform="translate(-14.341 -3.809)" fill="#d94759"/>
        <path id="Trazado_160971" data-name="Trazado 160971" d="M61.545,37.083a2.4,2.4,0,0,0,.192-1.126c0-4.733.009-9.465,0-14.2a11.531,11.531,0,0,0-3.747-8.5,1.944,1.944,0,0,1,1.836-1.05c.758.69,1.076.734,1.987.235Q66,10.151,70.178,7.85c.219-.12.446-.228.737-.377.015.189.032.3.032.422,0,5.987.04,11.974-.018,17.961A13.6,13.6,0,0,1,66.8,35.594c-.143.144-.31.263-.466.394a11.3,11.3,0,0,1-4.189,1.362c-.228.039-.533.119-.6-.267" transform="translate(-23.979 -3.09)" fill="#e66578"/>
        <path id="Trazado_160972" data-name="Trazado 160972" d="M12.441,77.875a21.577,21.577,0,0,1,11.7.6,14.952,14.952,0,0,1,5.578,3.619,8.382,8.382,0,0,1,2.232,4.235,4.841,4.841,0,0,1,.083.84c.012.411.028.967-.289,1.131-.344.178-.619-.344-.9-.582A75.457,75.457,0,0,0,19.6,80.17a1.232,1.232,0,1,0-1.178,2.154c2.5,1.524,5.057,2.954,7.443,4.659a38.01,38.01,0,0,1,3.856,3.066c-.47.639-1.209.48-1.795.452a11.915,11.915,0,0,1-8.815-4.453,40.02,40.02,0,0,1-2.789-3.787,14.12,14.12,0,0,0-3.355-3.586c-.248-.184-.716-.3-.527-.8" transform="translate(-5.126 -31.984)" fill="#26b2b3"/>
        <path id="Trazado_160973" data-name="Trazado 160973" d="M68.876,104.037A45.013,45.013,0,0,1,75.771,99c1.424-.872,2.862-1.721,4.292-2.584a1.241,1.241,0,0,0-.287-2.334,1.319,1.319,0,0,0-1.02.242,74.246,74.246,0,0,0-11.475,7.769c-.178.155-.352.508-.608.344-.161-.1-.2-.457-.223-.7a6.681,6.681,0,0,1,1.457-4.522,13.352,13.352,0,0,1,6.2-4.547,21,21,0,0,1,12.063-.621c.025.325-.251.426-.448.569a15.626,15.626,0,0,0-3.908,4.219,23.384,23.384,0,0,1-3.909,4.753,11.136,11.136,0,0,1-8.263,2.971c-.331-.016-.772.046-.764-.513" transform="translate(-27.469 -37.814)" fill="#26b2b3"/>
        <path id="Trazado_160974" data-name="Trazado 160974" d="M34.077,8.5c-.271.216-.172.52-.172.789-.006,4.16-.039,8.32.007,12.479a15.534,15.534,0,0,0,3.14,9.524,15.159,15.159,0,0,0,9.395,5.778,6.37,6.37,0,0,0,2.45.121,1.637,1.637,0,0,0,1.2.382,2.688,2.688,0,0,0,.038,1.529,13.519,13.519,0,0,1-13.478-3.235,13.467,13.467,0,0,1-4.442-10.3c-.023-5.805-.006-11.611-.007-17.416V7.479A9.588,9.588,0,0,1,34.077,8.5" transform="translate(-13.316 -3.092)" fill="#d33445"/>
        <path id="Trazado_160975" data-name="Trazado 160975" d="M10.61,78.244c.219.538.758.741,1.171,1.052,1.767,1.328,2.821,3.228,4.075,4.965a15.566,15.566,0,0,0,5,4.908,11.286,11.286,0,0,0,4.418,1.43,7.1,7.1,0,0,0,2.617-.182c.554.284.368.482-.073.664a9.084,9.084,0,0,1-7.048-.006,12.724,12.724,0,0,1-5.49-4.692c-.762-1.035-1.472-2.107-2.231-3.144a15.827,15.827,0,0,0-5.081-4.33,14.277,14.277,0,0,1,2.641-.664" transform="translate(-3.295 -32.353)" fill="#129195"/>
        <path id="Trazado_160976" data-name="Trazado 160976" d="M70.28,104.451c.121.283.359.319.633.331a11.292,11.292,0,0,0,9.108-3.755,29.379,29.379,0,0,0,3.22-4.185,15.83,15.83,0,0,1,4.33-4.39,17.336,17.336,0,0,1,2.281.494c.057.279-.137.316-.251.381A16.311,16.311,0,0,0,84.088,98.6a19.344,19.344,0,0,1-4.521,5.31,9.364,9.364,0,0,1-9.176,1.381c-.733-.268-.728-.329-.11-.842" transform="translate(-28.873 -38.228)" fill="#129195"/>
        <path id="Trazado_160977" data-name="Trazado 160977" d="M55.506,11.132a4.722,4.722,0,0,0-1.836,1.05C51.848,10.6,49.6,9.717,47.537,8.433A7.3,7.3,0,0,1,48.932,7.4c1.113-.783,2.238-1.548,3.354-2.326.235-.164.425-.325.741-.092C54.557,6.1,56.1,7.2,57.751,8.381l-1.5.853c-.893.506-1.051.91-.742,1.9" transform="translate(-19.656 -2.012)" fill="#d33445"/>
        <path id="Trazado_160978" data-name="Trazado 160978" d="M49.161,65.56a17.538,17.538,0,0,0,6.1.321,17.228,17.228,0,0,0,2.764-.616c.29-.1.527-.183.514.31a3.511,3.511,0,0,1-2.859,3.252,26.211,26.211,0,0,1-3.667.036,4.22,4.22,0,0,1-3.042-2.928c-.018-.143-.127-.385.194-.375" transform="translate(-20.234 -26.956)" fill="#15a5aa"/>
        <path id="Trazado_160979" data-name="Trazado 160979" d="M62.523,59.2a1.017,1.017,0,0,1-.038-1.529,2.038,2.038,0,0,0,.784-.483,4.148,4.148,0,0,0,2.252-.3c.859-.2,1.69-.521,2.534-.789A12.275,12.275,0,0,1,62.523,59.2" transform="translate(-25.702 -23.194)" fill="#e34a5c"/>
        <path id="Trazado_160980" data-name="Trazado 160980" d="M48.358,65.564a3.094,3.094,0,0,0,1.406,2.381,3.43,3.43,0,0,0,2.587.886,23.5,23.5,0,0,1,2.523,0,3.467,3.467,0,0,1-1.584.127c-.894.023-1.791.008-2.686,0a3.566,3.566,0,0,1-3.585-3.14c-.1-.611.089-.735.627-.507.232.1.474.172.713.256" transform="translate(-19.431 -26.96)" fill="#129094"/>
      </g>
    </g>
  </g>
</svg>
