<svg xmlns="http://www.w3.org/2000/svg" xmlns:xlink="http://www.w3.org/1999/xlink" width="139.956" height="359.062" viewBox="0 0 139.956 359.062">
  <defs>
    <clipPath id="clip-path">
      <rect id="Rectángulo_41891" data-name="Rectángulo 41891" width="139.956" height="346.88" fill="none"/>
    </clipPath>
  </defs>
  <g id="Grupo_166715" data-name="Grupo 166715" transform="translate(4.784 2.125)">
    <g id="Grupo_157493" data-name="Grupo 157493" transform="translate(-22.284 -9.52)">
      <path id="Trazado_114544" data-name="Trazado 114544" d="M122.353,318.619c-19.387-8.8-39.493-20.662-47.3-40.508-8.666-22.025.4-46.692.187-70.368-.173-18.756-6.235-36.869-11-55.005s-8.272-37.407-3.351-55.5A70.272,70.272,0,0,1,80.207,65.462c15.907-15.315,38.825-23.6,60.6-20.1S182.365,64.825,188.731,86c9.019,29.995-8.6,62.013-4.854,93.115,1.465,12.17,6.154,23.679,9.334,35.516a145.865,145.865,0,0,1,4.983,38.64c-.119,19.965-5.165,41.266-20.02,54.561C163.189,321.239,140.891,327.029,122.353,318.619Z" transform="translate(-41.004 -37.171)" fill="#6b8dfc"/>
      <g id="Grupo_167838" data-name="Grupo 167838" transform="translate(17.5 19.576)">
        <g id="Grupo_167838-2" data-name="Grupo 167838" clip-path="url(#clip-path)">
          <path id="Trazado_156805" data-name="Trazado 156805" d="M138.293,115.989s6.922-8.785,11.962-12.661,5.851-5.277,6.2-5.052,6.487-.225,7.33,0,3.512.062,3.943,1.262,2.151,15.257,2.151,15.257-9.642,8.476-12.994,12.362a80.994,80.994,0,0,0-5.766,7.573Z" transform="translate(-56.571 -40.175)" fill="#f9b3a2"/>
          <path id="Trazado_156806" data-name="Trazado 156806" d="M36.578,520.693,32.261,548.7l-.95,6.154a5.346,5.346,0,0,1-.733,1.714,4.931,4.931,0,0,1-4.11,2.21H2.5a2.467,2.467,0,0,1-2.386-3.17c0-.011.01-.011.01-.021a.062.062,0,0,1,.011-.041c.072-.206,1.559-2.189,3.449-4.657s4.162-5.391,5.814-7.5c.217-.3.434-.568.64-.826l1.549-1.993c0-.01,2.406-22.564,2.406-22.564Z" transform="translate(0 -211.901)" fill="#f9b3a2"/>
          <path id="Trazado_156807" data-name="Trazado 156807" d="M164.268,558.778H128.941a4.927,4.927,0,0,1-4.11-2.21,4.975,4.975,0,0,1-.733-1.714l-.733-4.76-4.534-29.4,22.584-2.685s2.024,19.341,2.365,22.212c.021.217.041.341.041.352s.237.155.64.413c1.879,1.156,7.569,4.626,12.712,7.9.3.186.589.372.878.558l.62.4h.01c4.234,2.706,7.755,5.122,7.952,5.7.01.021.01.041.021.062a2.467,2.467,0,0,1-2.386,3.17" transform="translate(-48.61 -211.902)" fill="#f9b3a2"/>
          <path id="Trazado_156808" data-name="Trazado 156808" d="M128.984,578.612a4.934,4.934,0,0,0,4.11,2.21h35.327a2.467,2.467,0,0,0,2.386-3.17c-.011-.021-.011-.041-.021-.062-.2-.579-3.718-2.995-7.952-5.7h-.01s-5.029,6.423-8.251,6.681c-2.3.186-17.224.1-25.589.041" transform="translate(-52.763 -233.943)" fill="#a66353"/>
          <path id="Trazado_156809" data-name="Trazado 156809" d="M14.307,405.184,10.434,484.7H45.286l6.971-100.426Z" transform="translate(-4.268 -157.194)" fill="#2f3f4f"/>
          <path id="Trazado_156810" data-name="Trazado 156810" d="M110.77,223.94s3.092,29.724,8.605,66.09c4.1,27.06,11.7,129.081,11.7,129.081h-38.9l-7.917-87.775Z" transform="translate(-34.47 -91.607)" fill="#2f3f4f"/>
          <path id="Trazado_156811" data-name="Trazado 156811" d="M84.485,88.192,84.3,92.008l-.046,1.048-.075,1.822-.039.843-.4,8.873-8,1.819-10.408-3.046,5.859-18.933.1-.3.15-.47.17-.561,2.3.908,5.072,2Z" transform="translate(-26.726 -33.995)" fill="#f9b3a2"/>
          <path id="Trazado_156812" data-name="Trazado 156812" d="M86.28,189.83c.011.485.011.981,0,1.466-.175,49.619-.661,105.517-.661,105.517H8.687s2.84-144.571,5.938-159.2c1.291-6.072,3.429-12.98,7.445-18.929.61-.909,1.271-1.786,1.962-2.643,5.793-7.063,14.777-12.186,28.956-11.814a66.432,66.432,0,0,1,15.365,2.045c.382.093.765.207,1.126.31,9.449,2.726,14.22,7.125,16.285,9.572.609.723.661,35.1.516,73.68" transform="translate(-3.554 -42.627)" fill="#a66353"/>
          <path id="Trazado_156813" data-name="Trazado 156813" d="M88.962,58.282l0,.1a13.525,13.525,0,0,1-.328,3.325A13.369,13.369,0,0,1,75.02,72.054a13.629,13.629,0,0,1-5.451-1.472c-.026-.012-.039-.025-.064-.024a14.59,14.59,0,0,1-1.494-.922c-.183-.122-.339-.244-.509-.379-.156-.11-.314-.245-.457-.368A13.3,13.3,0,0,1,78.615,45.812a13.154,13.154,0,0,1,6.5,3.618,12.468,12.468,0,0,1,2.413,3.352,5.158,5.158,0,0,1,.3.59v.013a13.444,13.444,0,0,1,1.136,4.9" transform="translate(-25.52 -18.605)" fill="#f9b3a2"/>
          <path id="Trazado_156814" data-name="Trazado 156814" d="M92,66.882a64.273,64.273,0,0,1-.164,12.684c-1.018,6.651-7.838,7.2-13.723,3.992s-8.276-9.566-8.276-9.566S80.475,68.092,81.883,68,92,66.882,92,66.882" transform="translate(-28.568 -27.359)" fill="#f9b3a2"/>
          <path id="Trazado_156815" data-name="Trazado 156815" d="M105.276,69.827s3.521,5.216,3.554,5.665-4.114,1.774-4.114,1.774Z" transform="translate(-42.836 -28.564)" fill="#f9b3a2"/>
          <path id="Trazado_156816" data-name="Trazado 156816" d="M87.527,52.783c-1.173,8.462-6.22,16.167-9.348,17.2a11.912,11.912,0,0,1-2.012.446,33.134,33.134,0,0,1-6.6.145.222.222,0,0,1-.064-.011,14.583,14.583,0,0,1-1.494-.921c-.183-.122-.339-.244-.509-.379-.156-.11-.314-.245-.457-.368A13.3,13.3,0,0,1,78.615,45.812a13.154,13.154,0,0,1,6.5,3.618,12.459,12.459,0,0,1,2.413,3.352" transform="translate(-25.52 -18.605)" fill="#2f3f4f"/>
          <path id="Trazado_156817" data-name="Trazado 156817" d="M79.493,66.882s.1,12.121-.007,15.189a84.029,84.029,0,0,1-1.28,14.8c-1.216,5.938-1.99,10.412-1.044,14.887s2.331,10.154,2.331,10.154H46.4s2.84-9.982,3.356-13.769-1.033-12.72,2.5-18.15,4.819-12.571,5.336-14.379,9.575-3.429,9.575-3.429Z" transform="translate(-18.982 -27.359)" fill="#2f3f4f"/>
          <path id="Trazado_156818" data-name="Trazado 156818" d="M32.739,41.03C19.658,52.475,12.6,59.149,18.8,62.438S49.683,57.55,66.855,40.383,90.983,2.9,86.953.326c-6.2-3.959-41.134,29.26-54.214,40.7" transform="translate(-6.759 0)" fill="#ffcfa6"/>
          <path id="Trazado_156819" data-name="Trazado 156819" d="M74.708,30.7s-10.5-8.348-19.447-.893c-10.843,9.036-2.724,21.8-2.724,21.8l19.854-9.294Z" transform="translate(-20.297 -10.927)" fill="#ffcfa6"/>
          <path id="Trazado_156820" data-name="Trazado 156820" d="M53.414,50.209a10.032,10.032,0,0,1-1.4-.082.516.516,0,0,1,.154-1.021c.068.011,7.082.963,14.965-5.259,6.059-4.785,5.237-12.207,5.229-12.282a.516.516,0,0,1,.45-.574.522.522,0,0,1,.575.449A15.326,15.326,0,0,1,67.77,44.658c-6.213,4.9-11.827,5.552-14.355,5.552" transform="translate(-21.097 -12.676)" fill="#2f3f4f"/>
          <path id="Trazado_156821" data-name="Trazado 156821" d="M166.966,93.771l-.226,17.59a1.3,1.3,0,0,0,1.275,1.548h31.417a1.3,1.3,0,0,0,1.277-1.057l.168-17.589a1.3,1.3,0,0,0-1.276-1.544h-31.36a1.3,1.3,0,0,0-1.276,1.052" transform="translate(-68.198 -37.928)" fill="#2f3f4f"/>
          <path id="Trazado_156822" data-name="Trazado 156822" d="M200.058,97.534l-.145,13.889a1.08,1.08,0,0,1-1.074.836H172.373a1.046,1.046,0,0,1-1.074-1.229l.186-13.889a1.072,1.072,0,0,1,1.074-.826h26.426a1.048,1.048,0,0,1,1.074,1.218" transform="translate(-70.064 -39.4)" fill="#fff"/>
          <path id="Trazado_156823" data-name="Trazado 156823" d="M210.8,105.962c0,.034-.009.069-.015.118a1.609,1.609,0,0,1-.074.375.569.569,0,0,1-.048.1,1.182,1.182,0,0,1-.535.421c-.165.083-6.534,1.978-6.534,1.978s-.766-1.337-.742-1.4.917-1.394.917-1.394l3.94-.968a5.5,5.5,0,0,1,2.819-.011.4.4,0,0,1,.267.281.568.568,0,0,1,.02.1,1.636,1.636,0,0,1-.014.394" transform="translate(-82.978 -42.954)" fill="#f9b3a2"/>
          <path id="Trazado_156824" data-name="Trazado 156824" d="M172.6,104.418c0,.035,0,.069.006.119a1.553,1.553,0,0,0,.044.379.522.522,0,0,0,.04.1,1.183,1.183,0,0,0,.5.463c.158.1,6.355,2.493,6.355,2.493s.87-1.271.851-1.331-.8-1.463-.8-1.463c-1.1-.365-2.188-.772-3.306-1.081a7.161,7.161,0,0,0-3.354-.435.4.4,0,0,0-.289.259.618.618,0,0,0-.028.1,1.614,1.614,0,0,0-.017.394" transform="translate(-70.603 -42.371)" fill="#f9b3a2"/>
          <path id="Trazado_156825" data-name="Trazado 156825" d="M196.22,121.4h-3.78l.31-1.941.072-.444.062-.351.527.072,1.415.207.1.01.434.062s.093.155.227.444a9.2,9.2,0,0,1,.475,1.311,1.032,1.032,0,0,1,.031.124,5.075,5.075,0,0,1,.124.506" transform="translate(-78.721 -48.543)" fill="#f57c64"/>
          <path id="Trazado_156826" data-name="Trazado 156826" d="M191.551,117.635l-.041.681-.021.279-.031.444-.134,1.941h-3.531c.051-.165.1-.33.155-.475.021-.041.031-.083.052-.124a10.674,10.674,0,0,1,.6-1.342,3.41,3.41,0,0,1,.269-.444l.372-.134.082-.031Z" transform="translate(-76.82 -48.121)" fill="#f57c64"/>
          <path id="Trazado_156827" data-name="Trazado 156827" d="M192.783,102.5a1.262,1.262,0,0,1,1.042.928c.173.573-.1.893.165,1.256.106.145.238.26.356.394a1.26,1.26,0,0,1,.284.615,2.355,2.355,0,0,1,.018.492h-3.719a1.857,1.857,0,0,1,.156-1c.228-.346.236-.177.2-.75a1.892,1.892,0,0,1,.171-1.158,1.581,1.581,0,0,1,.853-.588,2.485,2.485,0,0,0,.472-.194" transform="translate(-78.099 -41.928)" fill="#a66353"/>
          <path id="Trazado_156828" data-name="Trazado 156828" d="M193.706,104.44a.371.371,0,0,1-.039.035.136.136,0,0,1-.019.018l-.022.019a1.185,1.185,0,0,1-.4.213,1.172,1.172,0,0,1-.2.041,1.157,1.157,0,0,1-1.249-.808,1.04,1.04,0,0,1-.039-.18.95.95,0,0,1-.011-.106v-.007a1.177,1.177,0,0,1,.068-.434h0a1.267,1.267,0,0,1,.061-.139l.009-.016a1.141,1.141,0,0,1,.226-.3h0a1.14,1.14,0,0,1,.453-.264,1.156,1.156,0,0,1,1.444.768,1.289,1.289,0,0,1-.29,1.159" transform="translate(-78.433 -41.914)" fill="#f9b3a2"/>
          <path id="Trazado_156829" data-name="Trazado 156829" d="M194.207,103.834c0,.194.193.4,0,.388a.917.917,0,0,1-.951-.961c.031-.191.407.223.6.223a.351.351,0,0,1,.351.351" transform="translate(-79.051 -42.22)" fill="#a66353"/>
          <path id="Trazado_156830" data-name="Trazado 156830" d="M193.976,103.1a.351.351,0,1,1-.35-.351.35.35,0,0,1,.35.351" transform="translate(-79.063 -42.033)" fill="#a66353"/>
          <path id="Trazado_156831" data-name="Trazado 156831" d="M193.756,104.94a1.769,1.769,0,0,1-.135.31,1.713,1.713,0,0,1-.554.618c-.514.333-1.139.329-1.276-.269a4.526,4.526,0,0,1-.068-.946v-.015c0-.089,0-.168.006-.23v0c0-.085.007-.136.007-.136l.079.021a6.74,6.74,0,0,0,.8.189,10.236,10.236,0,0,1,1.138.463" transform="translate(-78.428 -42.652)" fill="#f9b3a2"/>
          <path id="Trazado_156832" data-name="Trazado 156832" d="M194.624,107.466l-.839.246-.752-.135-.015-.626,0-.148v-.051l0-.153h0l0-.076,0-.074-.007-.236.443-.176.644-.712Z" transform="translate(-78.95 -43.085)" fill="#f9b3a2"/>
          <path id="Trazado_156833" data-name="Trazado 156833" d="M195.278,110.285c-.014.333-.073.843-.157,1.4a12.116,12.116,0,0,1-.656,2.726c-.058.113-.115.184-.168.2a.743.743,0,0,1-.281.035c-.046,0-.09-.007-.134-.014a1.47,1.47,0,0,0-.2-.047h-4.6c-.242,0-.426-.589-.551-1.359v0c-.081-.5-.138-1.072-.169-1.607h0c-.012-.214-.021-.422-.027-.616v0a8.4,8.4,0,0,1,.022-1.018,4.085,4.085,0,0,1,.8-1.993c.081-.105.135-.161.135-.161s.177.019.452.044c.351.03.862.069,1.367.083.277.008.551.009.8,0l.668-.031.707-.03.2-.008a.033.033,0,0,1,.013,0l.3-.011c.61-.025,1.09-.043,1.09-.043a5.89,5.89,0,0,1,.4,2.458" transform="translate(-77.039 -44.109)" fill="#2f3f4f"/>
          <path id="Trazado_156834" data-name="Trazado 156834" d="M193.8,104.44c-.012.012-.05.046-.05.046s-.063-.213-.086-.33a2.34,2.34,0,0,0-.22-.9c-.249-.347-1.063-.333-1.255-.3a.329.329,0,0,0-.223.118,1.155,1.155,0,0,1,.68-.56,1.2,1.2,0,0,1,1.485.761,1.315,1.315,0,0,1-.332,1.166" transform="translate(-78.528 -41.914)" fill="#a66353"/>
          <path id="Trazado_156835" data-name="Trazado 156835" d="M193.03,107.968s.136.626.651.664.813-.695.813-.695-.63-.069-.67-.069-.794.1-.794.1" transform="translate(-78.963 -44.126)" fill="#f9b3a2"/>
          <path id="Trazado_156836" data-name="Trazado 156836" d="M201.319,110.313l-3.261,1.018-1.278.4-.243.076-.432-1.773-.6-2.463s.236,0,.706-.026l.2-.012h.012l.3-.024c.426-.035.964-.092,1.611-.178,1.89-.253,2.421-.36,2.421-.36Z" transform="translate(-79.976 -43.757)" fill="#2f3f4f"/>
          <path id="Trazado_156837" data-name="Trazado 156837" d="M189.216,107.267l0,0-.921,4.462-1.464-.641-.36-.158h0l-.118-.052-2.646-1.158.192-3.569s1.69.52,3.166.8c.107.021.21.04.31.057.184.034.354.063.51.088.91.148,1.334.17,1.334.17" transform="translate(-75.148 -43.424)" fill="#2f3f4f"/>
          <path id="Trazado_156838" data-name="Trazado 156838" d="M174.645,156.862c-2.231,8.467,4.061,19.691,11.551,22.766.3.122.591.227.882.329.092-.095.187-.182.279-.278,6.991-7.3,12.918-20.036,15.738-26.562.217-.486.413-.96.6-1.4.671-1.631,1.188-2.974,1.539-3.924v-.01c.362-.971.537-1.518.537-1.518l-16.863-14.323a41.471,41.471,0,0,1-2.22,6.175c-.475,1.115-1.043,2.374-1.724,3.78-.217.454-.454.93-.7,1.414-.9,1.787-1.962,3.759-3.222,5.927a27.61,27.61,0,0,1-6.392,7.628" transform="translate(-71.255 -53.972)" fill="#f9b3a2"/>
          <path id="Trazado_156839" data-name="Trazado 156839" d="M199.094,119.68s.366-6.282,2-9.552a26.011,26.011,0,0,1,6.432-7.831c1.635-1.2,4.217,1.032,1.119,5.421s.861,9.9.861,9.9l-8,13.08Z" transform="translate(-81.443 -41.714)" fill="#f9b3a2"/>
          <path id="Trazado_156840" data-name="Trazado 156840" d="M223.07,115.17v.011c0,.64-.021,1.291-.083,1.951-.072.879-.2,1.787-.361,2.747l-.124.712c-.8,4.317-4.874,12.712-4.874,12.712s-10.058.217-10.017-.041c0-.331-4.089-7.57-4.089-8.345s-.775-7.92,0-8.343,5.917-2.943,5.917-2.943l6.341-13.362a15.285,15.285,0,0,1,2.964,2.6c.051.062.1.124.165.2.2.228.392.465.578.713q.294.4.589.837a11.974,11.974,0,0,1,1.167,2.23c.155.392.31.785.444,1.156.186.516.352,1.012.5,1.5v.011a21.335,21.335,0,0,1,.578,2.416,18.421,18.421,0,0,1,.31,3.242" transform="translate(-83.114 -41.017)" fill="#f9b3a2"/>
          <path id="Trazado_156841" data-name="Trazado 156841" d="M131.16,124.413s17.58,21.466,20.72,23.359,6.848-1.616,6.848-1.616a29.943,29.943,0,0,1,13.37,15.385c4.092,10.842,3.059,13.424,3.059,13.424s-5.218,9.468-19.878,11.617c-16.436,2.41-35.627-11.1-35.627-11.1s1.291-26.677,3.012-30.033,8.5-21.036,8.5-21.036" transform="translate(-48.946 -50.894)" fill="#a66353"/>
          <path id="Trazado_156842" data-name="Trazado 156842" d="M136.571,580.028h-7.414a4.9,4.9,0,0,1-1.188-1.249,4.994,4.994,0,0,1-.733-1.714L126.5,572.3a13.939,13.939,0,0,1,5.679,2.4,16.5,16.5,0,0,1,4.389,5.328" transform="translate(-51.748 -234.112)" fill="#a66353"/>
          <path id="Trazado_156843" data-name="Trazado 156843" d="M150.853,556.362l-15.727,13.363-.671-.785L150.171,555.6Z" transform="translate(-55.001 -227.278)" fill="#a66353"/>
          <path id="Trazado_156844" data-name="Trazado 156844" d="M31.083,581.6a4.65,4.65,0,0,1-.506.981,4.93,4.93,0,0,1-4.11,2.21H2.5a2.467,2.467,0,0,1-2.386-3.17c0-.011.011-.011.011-.021Z" transform="translate(0 -237.915)" fill="#a66353"/>
          <path id="Trazado_156845" data-name="Trazado 156845" d="M43.112,569.766l-.95,6.155a5.323,5.323,0,0,1-.733,1.714,4.931,4.931,0,0,1-4.11,2.21H26.528a16.066,16.066,0,0,1,.217-2.51,14.2,14.2,0,0,1,12.733-7.828,24.732,24.732,0,0,1,3.635.258" transform="translate(-10.852 -232.968)" fill="#a66353"/>
          <path id="Trazado_156846" data-name="Trazado 156846" d="M29.049,567.846l-.568.867L15.9,560.39c.217-.3.434-.568.641-.826Z" transform="translate(-6.505 -228.9)" fill="#a66353"/>
          <path id="Trazado_156847" data-name="Trazado 156847" d="M3.584,573.649v7.89H2.5a2.467,2.467,0,0,1-2.386-3.17c0-.01.011-.01.011-.021a.064.064,0,0,1,.01-.041c.073-.206,1.559-2.189,3.449-4.657" transform="translate(0 -234.662)" fill="#a66353"/>
          <path id="Trazado_156848" data-name="Trazado 156848" d="M153.947,112.5s3.679-3.872,6.712-6.971,6.841-6.325,9.035-4.582-3.614,6.582-5.1,8.777a20.238,20.238,0,0,0-2.138,5.109c-.081.251-1.156,3.14-.966,3.282Z" transform="translate(-62.975 -41.094)" fill="#f9b3a2"/>
          <path id="Trazado_156849" data-name="Trazado 156849" d="M129.774,216.382a.522.522,0,0,1-.271-.077l-11.79-7.283a.516.516,0,1,1,.542-.879l11.79,7.283a.517.517,0,0,1-.271.956" transform="translate(-48.052 -85.113)" fill="#2f3f4f"/>
          <path id="Trazado_156850" data-name="Trazado 156850" d="M227.674,105.582l-3.49,8.581a.516.516,0,0,1-.475.32.449.449,0,0,1-.2-.041.51.51,0,0,1-.279-.671l3.7-9.1c.051.062.1.124.165.2.2.228.393.465.579.713" transform="translate(-91.301 -42.818)" fill="#2f3f4f"/>
          <path id="Trazado_156851" data-name="Trazado 156851" d="M232.831,114.855v.01l-2.623,6.444a.519.519,0,0,1-.475.33.6.6,0,0,1-.2-.041.518.518,0,0,1-.29-.671l3.088-7.569c.186.516.351,1.012.5,1.5" transform="translate(-93.763 -46.371)" fill="#2f3f4f"/>
          <path id="Trazado_156852" data-name="Trazado 156852" d="M165.75,131.414a.51.51,0,0,1-.121-.014.516.516,0,0,1-.381-.623l.933-3.882a.516.516,0,1,1,1,.241l-.932,3.882a.517.517,0,0,1-.5.4" transform="translate(-67.592 -51.746)" fill="#2f3f4f"/>
          <path id="Trazado_156853" data-name="Trazado 156853" d="M49.956,282.014a4.567,4.567,0,0,1-4.554,4.915H9.393a4.565,4.565,0,0,1-4.544-4.915l.217-2.85.093-1.105L6.3,263.271l.083-1.064.764-9.862a20.316,20.316,0,0,1,40.511,0Z" transform="translate(-1.978 -95.56)" fill="#2f3f4f"/>
          <path id="Trazado_156854" data-name="Trazado 156854" d="M95.392,108.006a82.018,82.018,0,0,0-11.039,19.362c-9.015,21.521-11.266,66.833-11.287,67.288l-1.033-.052c.021-.454,2.282-45.943,11.37-67.639A84.188,84.188,0,0,1,94.266,107.7c.382.093.764.206,1.126.31" transform="translate(-29.466 -44.055)" fill="#2f3f4f"/>
          <path id="Trazado_156855" data-name="Trazado 156855" d="M28.5,124.227a107.5,107.5,0,0,0-3.4,12.051c-4.41,19.683-4.461,62.1-4.461,62.538H19.608c0-.434.051-42.969,4.492-62.765.764-3.439,1.59-6.5,2.437-9.18.609-.909,1.27-1.786,1.962-2.644" transform="translate(-8.021 -50.817)" fill="#2f3f4f"/>
          <path id="Trazado_156856" data-name="Trazado 156856" d="M112.923,249.1c.011.485.011.981,0,1.466L74.549,288.985l-.733-.733Z" transform="translate(-30.196 -101.901)" fill="#2f3f4f"/>
          <path id="Trazado_156857" data-name="Trazado 156857" d="M38.651,236.409c-3.48,0-6.311-3.178-6.311-7.085s2.831-7.086,6.311-7.086,6.311,3.179,6.311,7.086-2.831,7.085-6.311,7.085m0-13.139c-2.91,0-5.278,2.716-5.278,6.053s2.368,6.053,5.278,6.053,5.278-2.715,5.278-6.053-2.368-6.053-5.278-6.053" transform="translate(-13.229 -90.911)" fill="#2f3f4f"/>
          <path id="Trazado_156858" data-name="Trazado 156858" d="M36.423,281.974H7.034c-.165,0-.33.01-.5.021l-.082,1.064a3.569,3.569,0,0,1,.579-.052H36.423a3.64,3.64,0,0,1,3.634,3.635v8a3.64,3.64,0,0,1-3.634,3.635H7.034a3.577,3.577,0,0,1-1.714-.434l-.093,1.105a4.785,4.785,0,0,0,1.807.361H36.423a4.676,4.676,0,0,0,4.667-4.667v-8a4.676,4.676,0,0,0-4.667-4.668" transform="translate(-2.138 -115.347)" fill="#0f0a1c"/>
        </g>
      </g>
    </g>
  </g>
</svg>
