<svg xmlns="http://www.w3.org/2000/svg" xmlns:xlink="http://www.w3.org/1999/xlink" width="105" height="105" viewBox="0 0 105 105">
  <defs>
    <clipPath id="clip-path">
      <rect id="Rectángulo_42494" data-name="Rectángulo 42494" width="66.962" height="66.917" fill="none"/>
    </clipPath>
  </defs>
  <g id="_50" data-name="50" transform="translate(3743 6084)">
    <circle id="Elipse_4922" data-name="Elipse 4922" cx="52.5" cy="52.5" r="52.5" transform="translate(-3743 -6084)" fill="#a6bbff"/>
    <g id="Grupo_169307" data-name="Grupo 169307" transform="translate(-3724 -6065)">
      <g id="Grupo_169306" data-name="Grupo 169306" clip-path="url(#clip-path)">
        <path id="Trazado_161013" data-name="Trazado 161013" d="M0,32.78a11.412,11.412,0,0,0,.491-2.286A92.5,92.5,0,0,1,6.545,12.52a3.971,3.971,0,0,1,1.289-1.734A1.134,1.134,0,0,0,8.2,10.1a79.462,79.462,0,0,1,3.109-7.875A3.342,3.342,0,0,1,14.471,0a3.282,3.282,0,0,1,3.155,2.13,74.264,74.264,0,0,1,5.551,16.737,12.9,12.9,0,0,1,.03,4.752c-.067.374-.084.519.374.432a16.749,16.749,0,0,1,1.779-.2c.34-.027.431-.149.385-.5a7.794,7.794,0,0,1,15.4-2.426,6.354,6.354,0,0,1,.042,2.313c-.087.488.1.613.544.637.573.031,1.145.11,1.714.188.222.03.344.017.3-.254-.816-4.562.83-8.731,2.122-12.942a65.005,65.005,0,0,1,3.4-8.685,3.377,3.377,0,0,1,6.316.02,71.073,71.073,0,0,1,5.588,17.137,11.135,11.135,0,0,1-1.334,7.743c-.218.372-.192.472.257.571,1.9.418,3.821.728,5.749.993.768.106,1.179.528,1.126,1.19a1.126,1.126,0,0,1-1.375,1,60.213,60.213,0,0,1-7.309-1.288.967.967,0,0,0-.854.146,6.9,6.9,0,0,1-1.451.786c-.434.157-.5.4-.472.791a8.56,8.56,0,0,0,1.2,3.819,1.07,1.07,0,0,1-.394,1.548,1.131,1.131,0,0,1-1.553-.429c-.11-.166-.2-.342-.305-.512a1.93,1.93,0,0,1-.657-1.043,10.339,10.339,0,0,1-.667-2.687c-.039-.341-.092-.6-.545-.542-.392.049-.829-.129-.9.54a9.806,9.806,0,0,1-.807,3.056,1.191,1.191,0,0,1-.5.672c-.094.149-.185.3-.282.448a1.125,1.125,0,0,1-1.583.49,1.1,1.1,0,0,1-.337-1.614,8.511,8.511,0,0,0,1.163-3.761.663.663,0,0,0-.491-.775,7.983,7.983,0,0,1-3.971-3.563.877.877,0,0,0-.76-.518c-1.187-.118-2.371-.273-3.556-.42a.61.61,0,0,0-.6.169,14.851,14.851,0,0,0-2.776,3.778c-.984,2.119-.515,3.539,1.652,4.43,2.262.93,4.594,1.689,6.887,2.547a44.111,44.111,0,0,1,9.177,4.381,12.785,12.785,0,0,1,2.967,2.633,5.784,5.784,0,0,1,.328,7.243,16.179,16.179,0,0,1-4.514,4.249,63.5,63.5,0,0,1-8.188,4.465A48.276,48.276,0,0,0,36.153,65.9a4.3,4.3,0,0,1-2.861,1.012q-12.684-.023-25.369-.01A2.25,2.25,0,0,1,5.43,64.347a2.507,2.507,0,0,1,.536-1.192A30.2,30.2,0,0,1,17.63,53.781,83,83,0,0,1,31.079,49a32.785,32.785,0,0,0,4.933-1.907c.84-.4.852-.574.075-1.121a29.327,29.327,0,0,0-3.093-1.79,64.852,64.852,0,0,1-6.733-3.824,13.424,13.424,0,0,1-2.484-2.187,5.326,5.326,0,0,1-.664-6.5,13.779,13.779,0,0,1,4.229-4.333c.735-.525,1.5-1,2.343-1.554-.336,0-.6-.015-.868,0q-3.048.2-6.07.633a.728.728,0,0,0-.624.4,7.387,7.387,0,0,1-2.385,2.715c-.44.3-.228.62-.162.926a16.651,16.651,0,0,1,.236,6.714c-.74,3.8-2.671,6.64-6.452,7.971-.388.136-.366.374-.335.663a9.41,9.41,0,0,0,1.3,3.793,1.071,1.071,0,0,1-.342,1.513,1.146,1.146,0,0,1-1.574-.356c-.126-.181-.229-.377-.342-.567a4.144,4.144,0,0,1-1-1.977,7.062,7.062,0,0,1-.374-1.745c-.035-.372-.193-.609-.624-.618a.6.6,0,0,0-.691.62,9.484,9.484,0,0,1-.816,2.922,1.527,1.527,0,0,1-.563.8l-.249.39c-.441.7-1.02.9-1.608.558a1.1,1.1,0,0,1-.314-1.663,9.9,9.9,0,0,0,1.183-3.279.9.9,0,0,0-.671-1.2C2.815,43.594.977,40.836.258,37.222A2.591,2.591,0,0,0,0,36.1Z" transform="translate(0 0.001)"/>
        <path id="Trazado_161014" data-name="Trazado 161014" d="M98.209,65.344a10.586,10.586,0,0,0,1.171-4.09c.023-.332.149-.4.449-.385,1.214.045,1.23.034,1.395,1.237a10.589,10.589,0,0,0,1.063,3.242l-4.077,0" transform="translate(-47.842 -29.652)" fill="#9f522d"/>
        <path id="Trazado_161015" data-name="Trazado 161015" d="M15.586,93.575a10.6,10.6,0,0,0,1.226-3.942c.046-.6.4-.555.813-.555s.771-.042.816.553a10.536,10.536,0,0,0,1.216,3.945H15.586" transform="translate(-7.593 -43.393)" fill="#9f522d"/>
        <path id="Trazado_161016" data-name="Trazado 161016" d="M53.327,21.544a1.138,1.138,0,0,1-.746,1.213.981.981,0,0,1-1.234-.366,22.006,22.006,0,0,1-1.279-2.234.968.968,0,0,1,.35-1.235.929.929,0,0,1,1.226-.077,7.968,7.968,0,0,1,1.683,2.7" transform="translate(-24.34 -9.084)" fill="#010101"/>
        <path id="Trazado_161017" data-name="Trazado 161017" d="M65.234,17.449c0,.4.022.795-.006,1.189A1.066,1.066,0,0,1,64.2,19.653a1.033,1.033,0,0,1-1.136-.883,10.727,10.727,0,0,1-.007-2.634,1.049,1.049,0,0,1,1.172-.921,1.08,1.08,0,0,1,1,1.044c.024.395,0,.793,0,1.189" transform="translate(-30.681 -7.41)" fill="#010101"/>
        <path id="Trazado_161018" data-name="Trazado 161018" d="M75.089,22.867a1.1,1.1,0,0,1-1.063-1.526,17.891,17.891,0,0,1,1.251-2.169,1.062,1.062,0,0,1,1.409-.324,1.046,1.046,0,0,1,.5,1.357c-.389.785-.856,1.534-1.322,2.279a.987.987,0,0,1-.773.384" transform="translate(-36.013 -9.114)"/>
        <path id="Trazado_161019" data-name="Trazado 161019" d="M40.02,89c-.951.008-1.9.022-2.854.022-7.348,0-14.7,0-22.089,0a2.036,2.036,0,0,1,.543-.876A27.406,27.406,0,0,1,24.5,80.908a66.2,66.2,0,0,1,13.353-5.029,38.967,38.967,0,0,0,6.863-2.592,2.432,2.432,0,0,0,.648-4.222,13.335,13.335,0,0,0-2.967-1.982,84.685,84.685,0,0,1-7.406-4.121,10.492,10.492,0,0,1-2.15-1.862,3.189,3.189,0,0,1-.353-4.143,9.625,9.625,0,0,1,2.355-2.588,31.843,31.843,0,0,1,7.214-4.275c.21-.082.486-.153.606.029.152.231-.08.456-.23.632a13.124,13.124,0,0,0-2.217,3.356,3.962,3.962,0,0,0,.041,3.746,4.273,4.273,0,0,0,2.018,1.655c.837.386,1.71.7,2.548,1.086l8.365,3.127c1.186.624,2.466,1.051,3.615,1.752,1.834,1.119,3.666,2.24,4.822,4.15a4.6,4.6,0,0,1-.071,5.078,14.051,14.051,0,0,1-4.344,4.219A45.922,45.922,0,0,1,50.611,82.6a51.187,51.187,0,0,0-9.646,5.8A3.753,3.753,0,0,1,40.02,89" transform="translate(-7.345 -24.361)" fill="#feea3a"/>
        <path id="Trazado_161020" data-name="Trazado 161020" d="M19.947,46.162a10.018,10.018,0,0,1-1.892,6.23,7.23,7.23,0,0,1-7.217,2.67A6.936,6.936,0,0,1,5.179,50.5a12.893,12.893,0,0,1-.38-7.952,88.6,88.6,0,0,1,5.944-17.466,1.85,1.85,0,0,1,.686-.871,1.431,1.431,0,0,1,2.082.749,59.974,59.974,0,0,1,2.339,5.555,78.985,78.985,0,0,1,3.863,13.14,11.607,11.607,0,0,1,.232,2.506" transform="translate(-2.122 -11.691)" fill="#a3c300"/>
        <path id="Trazado_161021" data-name="Trazado 161021" d="M96.856,31.9c-4.1.485-7.093-1.949-7.59-6.064a18.986,18.986,0,0,1,.947-7.244A78.134,78.134,0,0,1,94.349,6.925c.116-.262.261-.511.392-.766.522.037.567.508.719.842.741,1.632,1.383,3.307,1.98,5a65.279,65.279,0,0,1,2.852,10.078,11.388,11.388,0,0,1-.577,6.391A6.033,6.033,0,0,1,96.856,31.9" transform="translate(-43.447 -3)" fill="#a3c300"/>
        <path id="Trazado_161022" data-name="Trazado 161022" d="M31.336,23.722a8.273,8.273,0,0,1-1.926,5.294c-.121.142-.2.4-.428.333-.185-.051-.152-.3-.2-.465a99.36,99.36,0,0,0-5.037-14.008,4.113,4.113,0,0,0-2.731-2.665c-.274-.07-.294-.183-.21-.42a65.775,65.775,0,0,1,2.828-6.855,1.012,1.012,0,0,1,.967-.589,1.156,1.156,0,0,1,1.067.76A59.845,59.845,0,0,1,28.1,10.981a67.308,67.308,0,0,1,2.95,10.092c.178.915.2,1.843.283,2.649" transform="translate(-10.115 -2.119)" fill="#60a817"/>
        <path id="Trazado_161023" data-name="Trazado 161023" d="M102.132,31.03a9.512,9.512,0,0,0,2.222-2.5,10.234,10.234,0,0,0,1.1-3.365c.48-2.991-.417-5.794-1.188-8.611A82.335,82.335,0,0,0,100.626,6.29a1.927,1.927,0,0,0-.608-1,1.144,1.144,0,0,1,1.082-.914,1.187,1.187,0,0,1,1.147.846,71.068,71.068,0,0,1,5.42,16.433,8.736,8.736,0,0,1-1.3,6.845,5.722,5.722,0,0,1-4.235,2.529" transform="translate(-48.724 -2.131)" fill="#8fab00"/>
        <path id="Trazado_161024" data-name="Trazado 161024" d="M63.129,39.327c-2.123.008-4.245.009-6.368.028a11.777,11.777,0,0,0-1.653.109c-.488.074-.653-.106-.726-.564A5.608,5.608,0,0,1,60.5,32.622a.424.424,0,0,1,.117.058,6.629,6.629,0,0,1,2.816,5.869,1,1,0,0,1-.3.779" transform="translate(-26.461 -15.868)" fill="#fedb00"/>
        <path id="Trazado_161025" data-name="Trazado 161025" d="M63.712,102.034a13.554,13.554,0,0,1,2.226-1.75,56.97,56.97,0,0,1,9.072-5.16,33.384,33.384,0,0,0,7.844-4.873,7.744,7.744,0,0,0,2.964-4.563,4.41,4.41,0,0,0-1.1-3.6c-1.828-2.254-4.338-3.553-6.9-4.759-.33-.155-.722-.222-.935-.572a36.646,36.646,0,0,1,8.237,4.061,9.111,9.111,0,0,1,2.257,2.134,3.454,3.454,0,0,1,.149,4.149,12.8,12.8,0,0,1-3.725,3.639A42.92,42.92,0,0,1,77.1,94.5a51.989,51.989,0,0,0-11.021,6.824,2.82,2.82,0,0,1-2.37.707" transform="translate(-31.037 -37.39)" fill="#fedb00"/>
        <path id="Trazado_161026" data-name="Trazado 161026" d="M68.1,60.57a10.35,10.35,0,0,1-3.94-1.752A3.888,3.888,0,0,1,63.333,54a12.4,12.4,0,0,1,2.132-3.236c.159-.177.285-.384.431-.584-.176-.2-.387-.074-.562-.118a8.479,8.479,0,0,1,2.582-.019A22.708,22.708,0,0,0,66.265,52.4,7.177,7.177,0,0,0,65.1,56.209a4.543,4.543,0,0,0,1.966,3.657c.334.249.69.47,1.036.7" transform="translate(-30.627 -24.333)" fill="#fedb00"/>
        <path id="Trazado_161027" data-name="Trazado 161027" d="M69.108,39.428a6.384,6.384,0,0,0-1.87-5.906,2.385,2.385,0,0,1-.646-.742,5.513,5.513,0,0,1,4.79,6.413c-.07.316-.208.393-.493.368-.593-.052-1.187-.09-1.781-.133" transform="translate(-32.44 -15.969)" fill="#fdc008"/>
        <path id="Trazado_161028" data-name="Trazado 161028" d="M60.933,105.449a1.072,1.072,0,1,1-1.046-1.113,1.053,1.053,0,0,1,1.046,1.113" transform="translate(-28.64 -50.827)" fill="#fe9801"/>
        <path id="Trazado_161029" data-name="Trazado 161029" d="M90.232,82.584a1.125,1.125,0,1,1-1.106,1.127,1.219,1.219,0,0,1,1.106-1.127" transform="translate(-43.417 -40.23)" fill="#fe9801"/>
        <path id="Trazado_161030" data-name="Trazado 161030" d="M101.064,86.976a1.122,1.122,0,1,1,.016,2.241A1.235,1.235,0,0,1,100,88.131a1.21,1.21,0,0,1,1.061-1.155" transform="translate(-48.716 -42.37)" fill="#fe9801"/>
        <path id="Trazado_161031" data-name="Trazado 161031" d="M53.361,65.216A1.05,1.05,0,0,1,54.442,66.3a1.206,1.206,0,0,1-1.048,1.156A1.052,1.052,0,0,1,52.3,66.312a1.039,1.039,0,0,1,1.059-1.1" transform="translate(-25.479 -31.77)" fill="#fe9801"/>
        <path id="Trazado_161032" data-name="Trazado 161032" d="M91.425,90.244a1.09,1.09,0,0,1,1.085-1.163,1.207,1.207,0,0,1,1.055,1.148,1.07,1.07,0,1,1-2.14.014" transform="translate(-44.537 -43.396)" fill="#fe9801"/>
        <path id="Trazado_161033" data-name="Trazado 161033" d="M60.933,118.585a1.07,1.07,0,1,1-2.141-.009,1.07,1.07,0,0,1,2.141.009" transform="translate(-28.64 -57.248)" fill="#fe9801"/>
        <path id="Trazado_161034" data-name="Trazado 161034" d="M8.8,66.4c0-.221-.011-.443,0-.663A1.024,1.024,0,0,1,9.863,64.7a1.045,1.045,0,0,1,1.069,1.031,8.36,8.36,0,0,0,.648,3.2,2.821,2.821,0,0,0,2.473,1.608c.857.047,1.473.593,1.386,1.247a1.384,1.384,0,0,1-1.69.97,5.085,5.085,0,0,1-3.4-1.692A7.014,7.014,0,0,1,8.8,66.4" transform="translate(-4.287 -31.517)" fill="#8fab00"/>
        <path id="Trazado_161035" data-name="Trazado 161035" d="M99.077,44.712a1.218,1.218,0,0,1-1.263,1.1c-2.478-.294-3.542-1.285-4.151-3.727a5.651,5.651,0,0,1-.167-1.833,1.326,1.326,0,0,1,.979-1.186,1.175,1.175,0,0,1,1.234.97c.131.535.034,1.087.157,1.636.295,1.314.8,1.81,2.135,1.9a1.253,1.253,0,0,1,1.076,1.141" transform="translate(-45.538 -19.028)" fill="#8fab00"/>
      </g>
    </g>
  </g>
</svg>
