<svg xmlns="http://www.w3.org/2000/svg" xmlns:xlink="http://www.w3.org/1999/xlink" width="105" height="105" viewBox="0 0 105 105">
  <defs>
    <clipPath id="clip-path">
      <rect id="Rectángulo_42490" data-name="Rectángulo 42490" width="73.068" height="73.178" fill="none"/>
    </clipPath>
  </defs>
  <g id="_52" data-name="52" transform="translate(3113 6084)">
    <circle id="Elipse_4923" data-name="Elipse 4923" cx="52.5" cy="52.5" r="52.5" transform="translate(-3113 -6084)" fill="#a6bbff"/>
    <g id="Grupo_169295" data-name="Grupo 169295" transform="translate(-3097 -6068)">
      <g id="Grupo_169294" data-name="Grupo 169294" transform="translate(0 0)" clip-path="url(#clip-path)">
        <path id="Trazado_160953" data-name="Trazado 160953" d="M31.334,0A5.324,5.324,0,0,1,34.78,2.617c.163.331.426.134.623.083A6.574,6.574,0,0,1,41.434,3.99,5.657,5.657,0,0,1,42.91,5.711a.778.778,0,0,0,.739.434,7.881,7.881,0,0,1,6.722,11.374,7.442,7.442,0,0,1-3.435,3.494c-.445.219-.525.346-.141.765a7.338,7.338,0,0,1-1.328,11.135.76.76,0,0,0-.409.8,5.544,5.544,0,0,1-.83,3.543.616.616,0,0,0-.034.712,7.275,7.275,0,0,1-4.971,10.646.6.6,0,0,0-.536.471c-1.616,5.735-8.222,7.436-13.156,4.066-.489-.334-.928-.988-1.411-1.01-.427-.02-.86.675-1.335.985a9.7,9.7,0,0,1-3.941,1.566c-.466.066-.623.227-.636.71-.136,4.929-.113,9.858-.018,14.788.011.6.3.558.7.558q11.61-.009,23.222,0H65.263c1.212,0,1.818.421,1.794,1.244-.022.8-.608,1.191-1.78,1.191H7.9q-1.824,0-1.812-1.23c.009-.817.6-1.2,1.834-1.2,2.405,0,4.811-.012,7.216.01.467,0,.657-.059.638-.6-.171-4.927-.2-9.857-.014-14.785.016-.435-.087-.587-.552-.67A9.425,9.425,0,0,1,8.623,50.26a1.108,1.108,0,0,0-.714-.519A7.263,7.263,0,0,1,3.237,39.387c.17-.336.22-.52-.1-.83a5.948,5.948,0,0,1-1.159-7.311.582.582,0,0,0-.119-.787A7.274,7.274,0,0,1,5.642,18.513a.856.856,0,0,0,.722-.715,6.017,6.017,0,0,1,5.281-4.334c.392-.033.551-.077.558-.552a5.473,5.473,0,0,1,5.608-5.586c.393-.005.5-.111.589-.475a5.427,5.427,0,0,1,7.213-4.075c.26.08.423.137.576-.156A4.8,4.8,0,0,1,29.341.139c.053-.014.09-.091.134-.139Z" transform="translate(0 0)"/>
        <path id="Trazado_160954" data-name="Trazado 160954" d="M82.95,51.612a17.774,17.774,0,0,1-2.275,2.969c-2.922,2.737-6.43,2.736-9.928.535a8.449,8.449,0,0,1-1.279-1.02,1.658,1.658,0,0,1-.385-2.085,8.772,8.772,0,0,1,5.426-4.82c2.561-.711,4.819.091,6.911,1.539a5.038,5.038,0,0,1,1.53,1.452Z" transform="translate(-9.882 -6.734)"/>
        <path id="Trazado_160955" data-name="Trazado 160955" d="M82.264,14.558a1.605,1.605,0,0,1-1.459.709q-7.606-.012-15.211-.007c-.968,0-1.511-.463-1.5-1.237s.525-1.2,1.527-1.2c5.047,0,10.092.007,15.139-.013a2.005,2.005,0,0,1,1.508.6Z" transform="translate(-9.196 -1.838)"/>
        <path id="Trazado_160956" data-name="Trazado 160956" d="M40.456,76.84h-13c-.191,0-.383.012-.571-.006a1.274,1.274,0,0,1-1.261-1.213,1.219,1.219,0,0,1,1.316-1.211c2.1-.017,4.192-.008,6.288-.008,6.478,0,12.959-.124,19.433.037,5.9.147,8.5-6.1,5.924-10.395a4.852,4.852,0,0,0-4.916-1.994A3.555,3.555,0,0,0,50.707,64.1a2.663,2.663,0,0,0,1.52,3.684,5.6,5.6,0,0,0,1.673.333c.229.019.454-.013.5-.278.059-.311-.146-.4-.419-.439a1.231,1.231,0,0,1-.761-.358,1.14,1.14,0,0,1-.284-1.251,1.187,1.187,0,0,1,1.151-.8,2.791,2.791,0,0,1,2.745,2.42,2.7,2.7,0,0,1-2.046,3.019c-2.058.447-5.252-.481-6.352-3.125a5.456,5.456,0,0,1,2.451-6.862,7.369,7.369,0,0,1,9.223,1.6,8.451,8.451,0,0,1,1.878,6.2,8.992,8.992,0,0,1-3.972,7.154,8.785,8.785,0,0,1-5.2,1.45H40.456" transform="translate(-3.676 -8.538)"/>
        <path id="Trazado_160957" data-name="Trazado 160957" d="M66.054,22.016a7.588,7.588,0,0,1,7.657,6.527c.472,2.473.032,3.113-2.463,3.626s-4.845.347-6.888-1.318a8.731,8.731,0,0,1-3.092-6.49,1.651,1.651,0,0,1,1.248-1.709,10.069,10.069,0,0,1,3.538-.636" transform="translate(-8.791 -3.158)"/>
        <path id="Trazado_160958" data-name="Trazado 160958" d="M66.288,40.873c-2.14,0-4.282.007-6.422,0-.9,0-1.372-.365-1.452-1.04a1.127,1.127,0,0,1,.906-1.318,3.039,3.039,0,0,1,.7-.079q6.28-.006,12.559,0a3.1,3.1,0,0,1,.5.031A1.179,1.179,0,0,1,74.193,39.7a1.145,1.145,0,0,1-1.2,1.149c-1.235.036-2.473.017-3.71.02-1,0-2,0-3,0" transform="translate(-8.38 -5.514)"/>
        <path id="Trazado_160959" data-name="Trazado 160959" d="M67.358,4.282c1.568,0,3.137-.021,4.7.009A1.2,1.2,0,0,1,73.2,6.135a1.262,1.262,0,0,1-1.154.579c-3.16.012-6.319.021-9.479,0a1.2,1.2,0,0,1-1.325-1.259c.021-.728.514-1.158,1.409-1.167,1.567-.015,3.136,0,4.7,0" transform="translate(-8.788 -0.613)"/>
        <path id="Trazado_160960" data-name="Trazado 160960" d="M44.033,19.878a5.685,5.685,0,0,1-.764.087,1.319,1.319,0,0,0-1.415.922c-.433.553-1.049.405-1.478.429a6.044,6.044,0,0,1,3.952,4.689,6.1,6.1,0,0,1-2.984,6.685,1.014,1.014,0,0,0-.592,1.195,4.709,4.709,0,0,1-.826,3.525,1.058,1.058,0,0,0-.013,1.3,6.09,6.09,0,0,1-.12,6.618,3.556,3.556,0,0,1-1.476,1.408,1.783,1.783,0,0,0-1.283.733,1.845,1.845,0,0,1-1.459.612,1.063,1.063,0,0,0-1.083.985,6.656,6.656,0,0,1-1.256,2.6,2.328,2.328,0,0,1-2.671,1.1,7.19,7.19,0,0,1-4.63-2.394c-.147-.155-.273-.33-.425-.48a1.22,1.22,0,0,0-1.928,0,7.309,7.309,0,0,1-1.792,1.6.289.289,0,0,1-.206.012c-.875-.407-.874-.408-1.582.3-.15.15-.295.3-.453.445-.177.155-.387.367-.613.242s-.122-.416-.078-.643a10.519,10.519,0,0,1,1.451-4.058,15.069,15.069,0,0,1,7.885-6.908c.221-.087.442-.177.654-.285a1.2,1.2,0,1,0-.889-2.235,16.291,16.291,0,0,0-2.672,1.173,17.806,17.806,0,0,0-5.536,4.652c-.086.109-.184.208-.423.475.314-2.527.6-4.859.9-7.189.085-.66.288-1.312.308-1.972.068-2.158,1.34-3.651,2.724-5.083A28.383,28.383,0,0,1,28.551,26.2c.141-.089.287-.17.422-.266a1.242,1.242,0,0,0,.5-1.722,1.222,1.222,0,0,0-1.8-.32,32.813,32.813,0,0,0-5.518,4.179,29.154,29.154,0,0,1,1.076-3.787,30.735,30.735,0,0,1,4.859-9.547,1.207,1.207,0,0,0-.132-1.878,1.226,1.226,0,0,0-1.8.394,30.779,30.779,0,0,0-4.831,9.089,83.107,83.107,0,0,0-3.889,17.359c-.044.347-.11.69-.185,1.161a18.293,18.293,0,0,1-2.078-5.671c-.05-.256-.09-.516-.156-.768a1.2,1.2,0,0,0-1.482-.986,1.226,1.226,0,0,0-.908,1.478,21.867,21.867,0,0,0,.821,3.392,15.38,15.38,0,0,0,3.2,5.824.973.973,0,0,1,.2.855c-.178,2.421-.375,4.841-.522,7.265-.029.486-.17.542-.589.444a6.916,6.916,0,0,1-4.769-3.543,2.272,2.272,0,0,0-1.8-1.285,4.845,4.845,0,0,1-2.906-7.659,4.967,4.967,0,0,0,.479-.706c.322-.637.082-1.233-.719-1.686a3.621,3.621,0,0,1-1.841-2.342,3.544,3.544,0,0,1,.742-3.211c.839-1.041.791-1.548-.221-2.387A4.871,4.871,0,0,1,7.38,21.193c1.157-.11,1.5-.352,1.579-1.508a3.662,3.662,0,0,1,4.795-3.178,1.324,1.324,0,0,0,1.579-.268,1.37,1.37,0,0,0,.074-1.6,2.958,2.958,0,0,1,.49-3.495,3,3,0,0,1,3.417-.675c1.326.5,2.07-.113,1.88-1.533a3.028,3.028,0,0,1,1.5-3.208,2.94,2.94,0,0,1,3.507.4,1.309,1.309,0,0,0,1.428.37,1.371,1.371,0,0,0,.835-1.3,2.233,2.233,0,0,1,1.412-2.047c.312-.143.515.04.642.272a2.327,2.327,0,0,1,.417,1.36c.641-.27,1.224-.839,2.056-.62a1.932,1.932,0,0,1,.3.857c.226,1.155.952,1.514,2.007.978a3.689,3.689,0,0,1,1.578-.559,1.111,1.111,0,0,1,1.463.66,2.443,2.443,0,0,0,2.57,1.589.743.743,0,0,1,.524.189,1.65,1.65,0,0,0,2.044,1.134,2.353,2.353,0,0,1,.556.029,5.616,5.616,0,0,1,2.531,3.4,6.787,6.787,0,0,1-1.591,6.807,3.176,3.176,0,0,1-.942.626" transform="translate(-0.407 -0.445)" fill="#fe9701"/>
        <path id="Trazado_160961" data-name="Trazado 160961" d="M44.261,49.715a6.951,6.951,0,0,0,2.129-3.292,6.025,6.025,0,0,0-.806-4.836.854.854,0,0,1,.047-1.184,4.489,4.489,0,0,0,.856-3.7c-.122-.609.051-.822.536-1.093a5.784,5.784,0,0,0,3.205-5.521,6.01,6.01,0,0,0-3.966-5.636c-.149-.062-.326-.062-.462-.281a5.542,5.542,0,0,0,2-.307c.045,1.042.2,1.205,1.356,1.6a4.859,4.859,0,0,1,3.419,3.846A4.719,4.719,0,0,1,51,33.938a5.178,5.178,0,0,1-1.326.821,1.237,1.237,0,0,0-.829,1.657,3.9,3.9,0,0,1-.846,3.716c-.527.626-.466,1.08.11,1.93a4.809,4.809,0,0,1-.383,6.1,4.481,4.481,0,0,1-3.46,1.555" transform="translate(-6.351 -3.424)" fill="#f47c00"/>
        <path id="Trazado_160962" data-name="Trazado 160962" d="M50.934,20.873a8.431,8.431,0,0,0,2.188-2.912,6.722,6.722,0,0,0-1.2-6.891c-.334-.337-.656-.688-.983-1.031a5.425,5.425,0,0,1,0,10.835" transform="translate(-7.309 -1.44)" fill="#f47b00"/>
        <path id="Trazado_160963" data-name="Trazado 160963" d="M35.209,60.2c.5-.109,1.084.187,1.524-.176a6.9,6.9,0,0,0,1.926-2.6,3.245,3.245,0,0,0,.307-1.089c.036-.723.473-.958,1.077-.988a5.622,5.622,0,0,0,1.637-.445,5.838,5.838,0,0,1-2.414,4.42,5.145,5.145,0,0,1-4.056.883" transform="translate(-5.052 -7.878)" fill="#f47b00"/>
        <path id="Trazado_160964" data-name="Trazado 160964" d="M47.137,8.253c-.7.1-1.382-.311-2.1-.063-.21.073-.295-.2-.369-.362a7.939,7.939,0,0,0-.8-1.325,1.305,1.305,0,0,0-1.286-.689,4.1,4.1,0,0,1,4.557,2.438" transform="translate(-6.11 -0.819)" fill="#f37b00"/>
        <path id="Trazado_160965" data-name="Trazado 160965" d="M37.517,4.131a4.953,4.953,0,0,0-1.644.607c-.407.279-.492.071-.612-.289-.17-.506-.149-1.163-.859-1.33a2.269,2.269,0,0,1,3.115,1.012" transform="translate(-4.936 -0.41)" fill="#f37b00"/>
        <path id="Trazado_160966" data-name="Trazado 160966" d="M21.524,59.873c.081.18-.092.478.181.545.188.047.3-.188.437-.312s.266-.264.4-.4c.921-.919.921-.919,1.915-.188A6.064,6.064,0,0,1,21.745,60.7c-.367.079-.39-.01-.221-.824" transform="translate(-3.074 -8.465)" fill="#f27b00"/>
        <path id="Trazado_160967" data-name="Trazado 160967" d="M76.209,54.634a6.406,6.406,0,0,1-3.92-1.322c-.271-.2-.3-.334-.114-.62,2.088-3.149,5.262-3.728,8.355-1.513.17.122.361.192.194.493-.809,1.459-3.027,3.141-4.516,2.962" transform="translate(-10.339 -7.153)" fill="#fe5722"/>
        <path id="Trazado_160968" data-name="Trazado 160968" d="M66.174,24.877c3.264-.075,4.984,1.934,5.623,4.786.065.29-.045.388-.285.449-3.7.928-6.485-.663-7.28-4.53-.057-.274-.006-.379.272-.443a5.887,5.887,0,0,1,1.671-.262" transform="translate(-9.214 -3.569)" fill="#f47b00"/>
      </g>
    </g>
  </g>
</svg>
