<svg xmlns="http://www.w3.org/2000/svg" xmlns:xlink="http://www.w3.org/1999/xlink" width="663.791" height="176.896" viewBox="0 0 663.791 176.896">
  <defs>
    <clipPath id="clip-path">
      <path id="Trazado_161036" data-name="Trazado 161036" d="M0,0H663.791V176.9H0Z" transform="translate(739 6023.604)" fill="#ffd947"/>
    </clipPath>
  </defs>
  <g id="Grupo_169448" data-name="Grupo 169448" transform="translate(-739 -6047.604)">
    <path id="Trazado_156666" data-name="Trazado 156666" d="M0,0H663.791V176.9H0Z" transform="translate(739 6047.604)" fill="#ffe891"/>
    <g id="Grupo_218" data-name="Grupo 218" transform="translate(0 24)" clip-path="url(#clip-path)">
      <g id="Grupo_169334" data-name="Grupo 169334" transform="translate(756 5895)">
        <g id="Grupo_169338" data-name="Grupo 169338">
          <path id="Trazado_161037" data-name="Trazado 161037" d="M631.149,318.005c-6.088.618-37.578,11.048-42.684,12.567l0-.008c-.075.025-.147.044-.221.068-.2.061-.4.123-.6.185-30.427,9.651-44.4,7.841-56.365,4.575-32.307-8.821-70.439-79.547-122.762-72.2-22.194,3.117-21.074,40.108-34.99,48.734l.019-.038c-.1.073-.194.133-.291.206-2,1.245-3.942,2.511-5.78,3.815-27.216,15.791-54.326-4.794-62.11-9.456-.572-.369-1.167-3.3-1.747-3.663-.311-.206-.484-.327-.484-.327l0,.025c-34.1-21.365-112.271-43.82-164.557-38.507C48.736,273.114,36.513,364.5,36.513,364.5H707.848c-10.486-21.417-26.514-51.6-76.7-46.5" transform="translate(-52 -59.307)" fill="#f2c8aa"/>
          <path id="Trazado_161038" data-name="Trazado 161038" d="M660.495,206.606l-40.477.056a3.15,3.15,0,0,1-.008-6.3l40.476-.057a3.151,3.151,0,0,1,.009,6.3" transform="translate(-42.755 17.209)" fill="#fff8f3"/>
          <path id="Trazado_161039" data-name="Trazado 161039" d="M180.3,32.789l-78.509.056a3.15,3.15,0,1,1-.009-6.3l78.509-.057a3.151,3.151,0,0,1,.009,6.3" fill="#fff8f3"/>
          <path id="Trazado_161040" data-name="Trazado 161040" d="M607.714,87.864l-4.995.007a2.377,2.377,0,0,1-2.38-2.373l-.006-4.689a2.376,2.376,0,0,1,2.373-2.38l4.995-.007a2.377,2.377,0,0,1,2.38,2.373l.006,4.689a2.376,2.376,0,0,1-2.373,2.38" transform="translate(-160.041 169.594)" fill="#fff8f3"/>
          <path id="Trazado_161041" data-name="Trazado 161041" d="M11.263,248.882l-4.995.007a2.377,2.377,0,0,1-2.38-2.373l-.007-4.689a2.377,2.377,0,0,1,2.374-2.38l4.995-.007a2.377,2.377,0,0,1,2.38,2.373l.006,4.689a2.377,2.377,0,0,1-2.373,2.38" fill="#fff8f3"/>
          <path id="Trazado_161042" data-name="Trazado 161042" d="M532.211,35.734A35.734,35.734,0,1,1,496.477,0a35.734,35.734,0,0,1,35.734,35.734" transform="translate(140.442 130.271)" fill="#f2c8aa"/>
          <path id="Trazado_161043" data-name="Trazado 161043" d="M585.894,156.6H560.2a6.209,6.209,0,0,1,0-12.419h25.69a6.209,6.209,0,0,1,0,12.419" fill="#ff9c39"/>
          <path id="Trazado_161044" data-name="Trazado 161044" d="M567.823,150.412a1.589,1.589,0,1,1-1.594-1.584,1.589,1.589,0,0,1,1.594,1.584" fill="#fff"/>
          <path id="Trazado_161045" data-name="Trazado 161045" d="M574.638,150.391a1.589,1.589,0,1,1-1.594-1.584,1.589,1.589,0,0,1,1.594,1.584" fill="#fff"/>
          <path id="Trazado_161046" data-name="Trazado 161046" d="M581.452,150.369a1.589,1.589,0,1,1-1.594-1.584,1.589,1.589,0,0,1,1.594,1.584" fill="#fff"/>
          <g id="Grupo_169335" data-name="Grupo 169335" transform="translate(-33.325 44.299)">
            <path id="Trazado_161047" data-name="Trazado 161047" d="M105.19,171.677H47.881a5.847,5.847,0,0,1-5.847-5.847V115.624a5.847,5.847,0,0,1,5.847-5.847H105.19a5.847,5.847,0,0,1,5.847,5.847V165.83a5.847,5.847,0,0,1-5.847,5.847" fill="#fff"/>
            <path id="Trazado_161048" data-name="Trazado 161048" d="M76.535,164.258l17.736,16.73a1.386,1.386,0,0,0,2.337-1.008V159.209Z" fill="#fff"/>
            <path id="Trazado_161049" data-name="Trazado 161049" d="M58.793,109.777A16.192,16.192,0,1,1,42.6,93.585a16.192,16.192,0,0,1,16.193,16.192" fill="#ff9c39"/>
            <path id="Trazado_161050" data-name="Trazado 161050" d="M35.4,110.588l6.061,4.429,7.212-9.16" fill="none" stroke="#fff" stroke-linecap="round" stroke-linejoin="round" stroke-width="2.793"/>
            <path id="Trazado_161051" data-name="Trazado 161051" d="M91,136.863l-2.4-.42a12.485,12.485,0,0,0-1.237-2.987l1.4-1.993a1.841,1.841,0,0,0-.206-2.36l-1.436-1.436a1.841,1.841,0,0,0-2.36-.168l-1.993,1.4a12.4,12.4,0,0,0-2.987-1.237l-.412-2.452a1.84,1.84,0,0,0-1.78-1.527h-2.07a1.841,1.841,0,0,0-1.818,1.527l-.42,2.391a12.381,12.381,0,0,0-2.986,1.237L68.305,127.5a1.841,1.841,0,0,0-2.36.206l-1.436,1.436a1.841,1.841,0,0,0-.206,2.36l1.4,1.993a12.486,12.486,0,0,0-1.237,2.987l-2.391.42a1.841,1.841,0,0,0-1.527,1.818v2.032a1.839,1.839,0,0,0,1.527,1.817l2.391.42a12.371,12.371,0,0,0,1.237,2.987l-1.4,1.994a1.841,1.841,0,0,0,.206,2.36l1.436,1.436a1.841,1.841,0,0,0,2.36.206l1.993-1.4a12.4,12.4,0,0,0,2.987,1.237l.42,2.391a1.841,1.841,0,0,0,1.818,1.528h2.062A1.842,1.842,0,0,0,79.4,154.2l.42-2.391a12.381,12.381,0,0,0,2.986-1.237l1.948,1.367a1.841,1.841,0,0,0,2.36-.206l1.436-1.436a1.841,1.841,0,0,0,.206-2.36l-1.4-2.009a12.461,12.461,0,0,0,1.237-2.986l2.4-.42a1.841,1.841,0,0,0,1.528-1.818v-2.032A1.841,1.841,0,0,0,91,136.863m-14.466,8.31a5.484,5.484,0,1,1,5.484-5.484v.03a5.484,5.484,0,0,1-5.484,5.454" fill="#100c25"/>
          </g>
          <g id="Grupo_169337" data-name="Grupo 169337" transform="translate(27.562 29.79)">
            <path id="Trazado_161052" data-name="Trazado 161052" d="M196,311.357a8.892,8.892,0,0,0,8.892,8.892H381.159a8.893,8.893,0,0,0,8.893-8.892V152.267H196Z" transform="translate(-3.677 -18.832)" fill="#100c25"/>
            <path id="Trazado_161053" data-name="Trazado 161053" d="M381.191,88.588H204.926a8.892,8.892,0,0,0-8.892,8.892v41.558H390.083V97.48a8.892,8.892,0,0,0-8.892-8.892" transform="translate(-3.683 -5.555)" fill="#100c25"/>
            <path id="Trazado_161054" data-name="Trazado 161054" d="M178.369,311.357a8.892,8.892,0,0,0,8.892,8.892H363.526a8.893,8.893,0,0,0,8.893-8.892V152.267H178.369Z" transform="translate(0 -18.832)" fill="#fff"/>
            <path id="Trazado_161055" data-name="Trazado 161055" d="M363.526,88.526H187.261a8.892,8.892,0,0,0-8.892,8.892v41.558H372.418V97.418a8.892,8.892,0,0,0-8.892-8.892" transform="translate(0 -5.542)" fill="#ff9c39"/>
            <path id="Trazado_161056" data-name="Trazado 161056" d="M253.992,119.254a10.21,10.21,0,1,1-10.21-10.21,10.21,10.21,0,0,1,10.21,10.21" transform="translate(-11.51 -9.82)" fill="#100c25"/>
            <path id="Trazado_161057" data-name="Trazado 161057" d="M239.98,103.967h0a5.31,5.31,0,0,1-5.311-5.31v-22.2a5.45,5.45,0,0,1,4.253-5.416,5.319,5.319,0,0,1,6.368,5.207v6.738h8.989V76.753c0-7.609-5.73-14.264-13.322-14.772A14.315,14.315,0,0,0,225.68,76.247V98.194c0,7.459,5.518,14.012,12.945,14.7a14.535,14.535,0,0,0,2.344.028c5.66-.389,5.192-8.955-.481-8.955Z" transform="translate(-9.865 0)" fill="#fff"/>
            <path id="Trazado_161058" data-name="Trazado 161058" d="M356.854,119.254a10.21,10.21,0,1,1-10.21-10.21,10.211,10.211,0,0,1,10.21,10.21" transform="translate(-32.958 -9.82)" fill="#100c25"/>
            <path id="Trazado_161059" data-name="Trazado 161059" d="M342.842,103.967h0a5.31,5.31,0,0,1-5.309-5.31v-22.2a5.45,5.45,0,0,1,4.252-5.416,5.319,5.319,0,0,1,6.368,5.207v6.738h8.989V76.753c0-7.609-5.729-14.264-13.321-14.772a14.314,14.314,0,0,0-15.277,14.267V98.194c0,7.459,5.517,14.012,12.945,14.7a14.533,14.533,0,0,0,2.344.028c5.66-.389,5.191-8.955-.482-8.955Z" transform="translate(-31.313 0)" fill="#fff"/>
            <rect id="Rectángulo_42495" data-name="Rectángulo 42495" width="29.026" height="29.026" transform="translate(207.521 157.499)" fill="#ffdec2"/>
            <rect id="Rectángulo_42496" data-name="Rectángulo 42496" width="29.026" height="29.026" transform="translate(207.521 200.231)" fill="#ffdec2"/>
            <rect id="Rectángulo_42497" data-name="Rectángulo 42497" width="29.026" height="29.026" transform="translate(207.521 242.963)" fill="#ffdec2"/>
            <rect id="Rectángulo_42498" data-name="Rectángulo 42498" width="29.026" height="29.026" transform="translate(256.768 157.499)" fill="#ff9c39"/>
            <rect id="Rectángulo_42499" data-name="Rectángulo 42499" width="29.026" height="29.026" transform="translate(256.768 200.231)" fill="#ffdec2"/>
            <rect id="Rectángulo_42500" data-name="Rectángulo 42500" width="29.026" height="29.026" transform="translate(256.768 242.963)" fill="#ffdec2"/>
            <rect id="Rectángulo_42501" data-name="Rectángulo 42501" width="29.026" height="29.026" transform="translate(306.014 157.499)" fill="#ff9c39"/>
            <rect id="Rectángulo_42502" data-name="Rectángulo 42502" width="29.026" height="29.026" transform="translate(306.014 200.231)" fill="#ff9c39"/>
            <rect id="Rectángulo_42503" data-name="Rectángulo 42503" width="29.026" height="29.026" transform="translate(306.014 242.963)" fill="#ffdec2"/>
          </g>
          <g id="Grupo_169336" data-name="Grupo 169336" transform="translate(13.18 19.857)">
            <rect id="Rectángulo_42504" data-name="Rectángulo 42504" width="20.796" height="13.695" transform="translate(131.849 128.21)" fill="#ff9c39"/>
            <rect id="Rectángulo_42505" data-name="Rectángulo 42505" width="38.42" height="8.352" transform="translate(123.036 123.409)" fill="#100c25"/>
            <path id="Trazado_161060" data-name="Trazado 161060" d="M211.273,208.883A69.272,69.272,0,1,1,142,139.611a69.272,69.272,0,0,1,69.272,69.272" transform="translate(0 -2.59)" fill="#100c25"/>
            <path id="Trazado_161061" data-name="Trazado 161061" d="M201.249,211.238a56.893,56.893,0,1,1-56.893-56.893,56.893,56.893,0,0,1,56.893,56.893" transform="translate(-2.355 -4.945)" fill="#fff"/>
            <path id="Trazado_161062" data-name="Trazado 161062" d="M116.207,184.591a1.427,1.427,0,0,1-1.012-.419l-2.376-2.376a1.431,1.431,0,0,1,2.024-2.024l2.377,2.376a1.431,1.431,0,0,1-1.012,2.443" transform="translate(-6.341 -8.943)" fill="#f2c8aa"/>
            <path id="Trazado_161063" data-name="Trazado 161063" d="M196.211,264.6a1.427,1.427,0,0,1-1.013-.419l-2.376-2.376a1.431,1.431,0,0,1,2.024-2.024l2.377,2.376a1.431,1.431,0,0,1-1.012,2.443" transform="translate(-19.13 -21.732)" fill="#f2c8aa"/>
            <path id="Trazado_161064" data-name="Trazado 161064" d="M113.83,264.6a1.431,1.431,0,0,1-1.013-2.443l2.377-2.376a1.431,1.431,0,0,1,2.024,2.024l-2.376,2.376a1.426,1.426,0,0,1-1.012.419" transform="translate(-6.341 -21.732)" fill="#f2c8aa"/>
            <path id="Trazado_161065" data-name="Trazado 161065" d="M193.835,184.591a1.431,1.431,0,0,1-1.012-2.443l2.377-2.376a1.431,1.431,0,0,1,2.024,2.024l-2.376,2.376a1.427,1.427,0,0,1-1.012.419" transform="translate(-19.13 -8.943)" fill="#f2c8aa"/>
            <path id="Trazado_161066" data-name="Trazado 161066" d="M158.115,164.746a3.275,3.275,0,1,1-3.275-3.275,3.275,3.275,0,0,1,3.275,3.275" transform="translate(-12.602 -6.084)" fill="#100c25"/>
            <path id="Trazado_161067" data-name="Trazado 161067" d="M158.115,278.171a3.275,3.275,0,1,1-3.275-3.275,3.275,3.275,0,0,1,3.275,3.275" transform="translate(-12.602 -24.216)" fill="#100c25"/>
            <path id="Trazado_161068" data-name="Trazado 161068" d="M98.127,218.183a3.275,3.275,0,1,1-3.275,3.275,3.275,3.275,0,0,1,3.275-3.275" transform="translate(-3.536 -15.15)" fill="#100c25"/>
            <path id="Trazado_161069" data-name="Trazado 161069" d="M211.553,218.183a3.275,3.275,0,1,1-3.276,3.275,3.275,3.275,0,0,1,3.276-3.275" transform="translate(-21.668 -15.15)" fill="#100c25"/>
            <path id="Trazado_161070" data-name="Trazado 161070" d="M175.039,186.9l-23.382,27.406A3.675,3.675,0,1,0,157.781,218l18.073-30.515a.5.5,0,0,0-.815-.582" transform="translate(-12.447 -10.121)" fill="#ff9c39"/>
          </g>
          <path id="Trazado_161071" data-name="Trazado 161071" d="M494.4,340.341l10.173-40.933-24.342-3.74L468.29,340.341Z" fill="#f8959d"/>
          <path id="Trazado_161072" data-name="Trazado 161072" d="M494.4,340.341H468.29l-3.85,6.141s-13.819.813-13.278,17.342H493.3Z" fill="#fff"/>
          <rect id="Rectángulo_42506" data-name="Rectángulo 42506" width="44.497" height="4.766" transform="translate(450.263 359.059)" fill="#aca9d6"/>
          <path id="Trazado_161073" data-name="Trazado 161073" d="M464.44,346.483s8.072-1.223,10.746,2.89" fill="none" stroke="#100c25" stroke-linecap="round" stroke-linejoin="round" stroke-width="0.775"/>
          <path id="Trazado_161074" data-name="Trazado 161074" d="M534.586,223.871,500.057,326.983l-32.231-.759,27.347-102.1Z" fill="#100c25"/>
          <path id="Trazado_161075" data-name="Trazado 161075" d="M506.122,316.3l-3.489,12.783-38.309.15,3.282-12.933Z" fill="#262b60"/>
          <path id="Trazado_161076" data-name="Trazado 161076" d="M591.81,255.143l-43.013,4.8,12.522,24.006,39.866-4.366Z" fill="#f8959d"/>
          <path id="Trazado_161077" data-name="Trazado 161077" d="M591.81,255.143l9.375,24.445,7.093,1.5s5.527,12.692,20.855,6.485l-14.526-39.554Z" fill="#fff"/>
          <rect id="Rectángulo_42507" data-name="Rectángulo 42507" width="4.765" height="44.497" transform="translate(609.63 248.287) rotate(-20.166)" fill="#aca9d6"/>
          <path id="Trazado_161078" data-name="Trazado 161078" d="M608.278,281.084s-3.643-5.657,0-11.536" fill="none" stroke="#100c25" stroke-linecap="round" stroke-linejoin="round" stroke-width="0.775"/>
          <path id="Trazado_161079" data-name="Trazado 161079" d="M577.3,253.294l-34.545,2.164-9.4-36.414-35.6,1.579,8.451,33.141,4.347,17.152A25.418,25.418,0,0,0,538.8,289.832l48.9-6.021Z" fill="#191b4b"/>
          <path id="Trazado_161080" data-name="Trazado 161080" d="M565.44,252.252l13.2-1.132,13.087,34.941-13.271,1.377Z" fill="#262b60"/>
          <path id="Trazado_161081" data-name="Trazado 161081" d="M489.111,138.387s-5.1,5.54,2.565,10.994Z" fill="#100c25"/>
          <path id="Trazado_161082" data-name="Trazado 161082" d="M496.29,149.117a5.011,5.011,0,0,1-3.713,6.007,4.957,4.957,0,0,1-5.86-3.885,5.011,5.011,0,0,1,3.713-6.007,4.958,4.958,0,0,1,5.86,3.885" fill="#e57885"/>
          <path id="Trazado_161083" data-name="Trazado 161083" d="M500.636,160.534l1.774,11.961c.615,4.2,3.45,6.07,7.449,5.436,3.413-.543,6.922-2.757,6.222-6.438L512.412,152.8Z" fill="#f8959d"/>
          <path id="Trazado_161084" data-name="Trazado 161084" d="M501.971,169.72s8.543-4.537,11.08-14.355c.907-3.508-12.621,3.946-12.621,3.946Z" fill="#100c25"/>
          <path id="Trazado_161085" data-name="Trazado 161085" d="M504.742,163.485h0c-6.828,1.029-13.288-3.694-14.342-9.424l-2.14-12a13.382,13.382,0,0,1,10.017-15.626c7.069-1.568,15.323,2.809,16.908,10.113l1.555,9.37a15.191,15.191,0,0,1-12,17.566" fill="#f8959d"/>
          <path id="Trazado_161086" data-name="Trazado 161086" d="M502.551,139.671s-3.8,0-3.727,1.092c0,0,.067.738,2.34.687s4.032-.268,4.178-.979-1.575-.9-2.791-.8" fill="#100c25"/>
          <path id="Trazado_161087" data-name="Trazado 161087" d="M491.9,141.3s-3.206.74-2.9,1.788c0,0-.264.811,1.941.255s3.26-.994,3.244-1.719-1.126-.692-2.289-.324" fill="#100c25"/>
          <path id="Trazado_161088" data-name="Trazado 161088" d="M502.018,152.865a3.16,3.16,0,0,1-3.3,1.789" fill="none" stroke="#100c25" stroke-linecap="round" stroke-linejoin="round" stroke-width="0.775"/>
          <path id="Trazado_161089" data-name="Trazado 161089" d="M493.691,147.505a1.138,1.138,0,1,1-1.318-.925,1.139,1.139,0,0,1,1.318.925" fill="#100c25"/>
          <path id="Trazado_161090" data-name="Trazado 161090" d="M504.225,146a1.138,1.138,0,1,1-1.392-.808,1.138,1.138,0,0,1,1.392.808" fill="#100c25"/>
          <path id="Trazado_161091" data-name="Trazado 161091" d="M496.006,149.393l-.2,2.158a.462.462,0,0,0,.2.571l1.061.331" fill="none" stroke="#100c25" stroke-linecap="round" stroke-linejoin="round" stroke-width="0.772"/>
          <path id="Trazado_161092" data-name="Trazado 161092" d="M514.424,144.757s-6.531-4.208-5.062-10.191l-19.8,3.6.873-12.306,20.106-2.032c3.221-.7,7.965.88,8.028,6.013l.544,12.112Z" fill="#100c25"/>
          <path id="Trazado_161093" data-name="Trazado 161093" d="M496.132,125.986a8.367,8.367,0,1,1-11.281-3.57,8.367,8.367,0,0,1,11.281,3.57" fill="#100c25"/>
          <path id="Trazado_161094" data-name="Trazado 161094" d="M503.159,125.382a5.605,5.605,0,1,1-7.558-2.392,5.605,5.605,0,0,1,7.558,2.392" fill="#100c25"/>
          <path id="Trazado_161095" data-name="Trazado 161095" d="M522.982,144.749A4.961,4.961,0,0,1,519.3,150.7a4.908,4.908,0,0,1-5.8-3.846,4.962,4.962,0,0,1,3.677-5.949,4.909,4.909,0,0,1,5.8,3.847" fill="#f8959d"/>
          <path id="Trazado_161096" data-name="Trazado 161096" d="M516.88,147.334s-.772-3.551,2.636-3.72" fill="none" stroke="#100c25" stroke-linecap="round" stroke-linejoin="round" stroke-width="0.772"/>
          <path id="Trazado_161097" data-name="Trazado 161097" d="M440.292,187.548c-1.079-1.158-3.007-2.92-4.472-2.557A2.7,2.7,0,0,0,434.1,189.2l.878,1.448c-1.96.749-6,.939-13.4-6.536a3.732,3.732,0,0,0-4.57-.664,2.3,2.3,0,0,0-.7,3.008c.024.051.061.1.089.15a3.393,3.393,0,0,0-2.966.312,2.3,2.3,0,0,0-.7,3.008,3.136,3.136,0,0,0,.256.425,2.957,2.957,0,0,0-1.394.482,2.3,2.3,0,0,0-.7,3.008,3.364,3.364,0,0,0,.634.88c.1.1.195.186.292.283-.044.027-.094.044-.136.074a2.3,2.3,0,0,0-.7,3.008,3.4,3.4,0,0,0,.634.88,43.546,43.546,0,0,0,6.054,5.155l-.005,0,.094.061a28.888,28.888,0,0,0,2.79,1.7c4.276,2.484,13.428.4,21.3,1.669L448,195.968Z" fill="#f8959d"/>
          <rect id="Rectángulo_42508" data-name="Rectángulo 42508" width="37.044" height="37.044" transform="translate(389.566 197.563) rotate(-66.362)" fill="#ffdec2"/>
          <path id="Trazado_161098" data-name="Trazado 161098" d="M440.292,187.548l-5.983-6.973a2.436,2.436,0,0,0-4.021,2.688l3.014,5.94a16.552,16.552,0,0,0,3.563,15.088Z" fill="#f8959d"/>
          <path id="Trazado_161099" data-name="Trazado 161099" d="M486.691,202.466,445.4,189.431,438.21,210.65l39.529,13.583a11.781,11.781,0,1,0,8.952-21.767" fill="#fff"/>
          <path id="Trazado_161100" data-name="Trazado 161100" d="M499.6,179.9l-27.2,24.276a12.744,12.744,0,0,0,1.029,17.352,13.171,13.171,0,0,0,18.332-.407l28.911-22.432A14.126,14.126,0,1,0,499.6,179.9" fill="#fff"/>
          <path id="Trazado_161101" data-name="Trazado 161101" d="M522.1,167.606s17.152,19.141,17.652,66.666c0,0-24.8,6.907-49.78-.78l7.859-56.764s10.595-10.407,24.269-9.122" fill="#fff"/>
          <line id="Línea_623" data-name="Línea 623" x1="5.095" y2="38.772" transform="translate(491.762 182.353)" fill="none" stroke="#100c25" stroke-linecap="round" stroke-linejoin="round" stroke-width="0.775"/>
          <path id="Trazado_161102" data-name="Trazado 161102" d="M512.137,244.226s-5.578-1.058-2.975-7.051,9.28-12.3,20.78-7.32Z" fill="#f8959d"/>
          <path id="Trazado_161103" data-name="Trazado 161103" d="M535.127,246.686a12.453,12.453,0,1,0-16.831,5.185,12.453,12.453,0,0,0,16.831-5.185" fill="#f8959d"/>
          <path id="Trazado_161104" data-name="Trazado 161104" d="M544.7,191.953l-24.65,35.6,18.15,13.133,24.652-33.753A11.781,11.781,0,1,0,544.7,191.953" fill="#fff"/>
          <path id="Trazado_161105" data-name="Trazado 161105" d="M516.433,197.475l33.8,13.651a12.745,12.745,0,0,0,15.106-8.6,13.172,13.172,0,0,0-8.477-16.26l-32.908-16a14.126,14.126,0,1,0-7.526,27.212" fill="#fff"/>
          <path id="Trazado_161106" data-name="Trazado 161106" d="M520.053,227.554l15.682-22.286-23.02-9.252" fill="none" stroke="#100c25" stroke-linecap="round" stroke-linejoin="round" stroke-width="0.775"/>
        </g>
      </g>
    </g>
  </g>
</svg>
