<svg xmlns="http://www.w3.org/2000/svg" xmlns:xlink="http://www.w3.org/1999/xlink" width="663.791" height="176.896" viewBox="0 0 663.791 176.896">
  <defs>
    <clipPath id="clip-path">
      <path id="Trazado_161107" data-name="Trazado 161107" d="M0,0H663.791V176.9H0Z" transform="translate(730 7255.604)" fill="#ffd947"/>
    </clipPath>
    <clipPath id="clip-path-2">
      <rect id="Rectángulo_42509" data-name="Rectángulo 42509" width="522.146" height="309.121" fill="none"/>
    </clipPath>
  </defs>
  <g id="Grupo_169340" data-name="Grupo 169340" transform="translate(-730 -7255.604)">
    <path id="Trazado_156666" data-name="Trazado 156666" d="M0,0H663.791V176.9H0Z" transform="translate(730 7255.604)" fill="#6b8dfc"/>
    <g id="Enmascarar_grupo_219" data-name="Enmascarar grupo 219" clip-path="url(#clip-path)">
      <g id="Grupo_169339" data-name="Grupo 169339" transform="translate(836.854 7260.878)">
        <g id="Grupo_169339-2" data-name="Grupo 169339" transform="translate(0 0.001)" clip-path="url(#clip-path-2)">
          <path id="Trazado_161108" data-name="Trazado 161108" d="M.016,144.455l9.836,186.46,269.741-14.253L269.757,130.2a11.365,11.365,0,0,0-11.95-10.751L10.766,132.506A11.365,11.365,0,0,0,.016,144.455" transform="translate(0 -96.324)" fill="#bedee5"/>
          <path id="Trazado_161109" data-name="Trazado 161109" d="M33.787,94.678l9.8,185.789,269.741-14.253-9.8-185.787a12.037,12.037,0,0,0-12.656-11.387L45.173,82.024A12.037,12.037,0,0,0,33.787,94.678" transform="translate(-27.235 -55.667)" fill="#edf9fb"/>
          <path id="Trazado_161110" data-name="Trazado 161110" d="M501.966,392.838l-17.988.944a3.348,3.348,0,0,1-3.52-3.168l-.944-17.987a3.348,3.348,0,0,1,3.168-3.52l17.988-.945a3.348,3.348,0,0,1,3.52,3.168l.944,17.988a3.349,3.349,0,0,1-3.168,3.519" transform="translate(-386.716 -296.913)" fill="#bedee5"/>
          <path id="Trazado_161111" data-name="Trazado 161111" d="M685.484,383.2l-17.988.944a3.348,3.348,0,0,1-3.519-3.168l-.945-17.987a3.348,3.348,0,0,1,3.168-3.52l17.988-.945a3.349,3.349,0,0,1,3.52,3.168l.944,17.988a3.349,3.349,0,0,1-3.168,3.52" transform="translate(-534.72 -289.142)" fill="#bedee5"/>
          <path id="Trazado_161112" data-name="Trazado 161112" d="M866.619,373.691l-17.988.944a3.348,3.348,0,0,1-3.52-3.168l-.944-17.988a3.348,3.348,0,0,1,3.168-3.52l17.988-.945a3.349,3.349,0,0,1,3.52,3.168l.944,17.987a3.348,3.348,0,0,1-3.168,3.52" transform="translate(-680.802 -281.471)" fill="#bedee5"/>
          <path id="Trazado_161113" data-name="Trazado 161113" d="M1057.288,363.68l-17.988.945a3.348,3.348,0,0,1-3.519-3.168l-.945-17.987a3.349,3.349,0,0,1,3.168-3.52l17.988-.944a3.348,3.348,0,0,1,3.519,3.168l.944,17.987a3.348,3.348,0,0,1-3.168,3.52" transform="translate(-834.574 -273.397)" fill="#bedee5"/>
          <path id="Trazado_161114" data-name="Trazado 161114" d="M1240.806,354.044l-17.988.944a3.348,3.348,0,0,1-3.519-3.168l-.945-17.987a3.348,3.348,0,0,1,3.168-3.519l17.988-.944a3.349,3.349,0,0,1,3.52,3.168l.944,17.988a3.348,3.348,0,0,1-3.168,3.519" transform="translate(-982.578 -265.627)" fill="#ff8f65"/>
          <path id="Trazado_161115" data-name="Trazado 161115" d="M141.537,596.841l-17.988.944a3.348,3.348,0,0,1-3.519-3.168l-.945-17.987a3.348,3.348,0,0,1,3.168-3.52l17.988-.945a3.349,3.349,0,0,1,3.52,3.168l.944,17.987a3.348,3.348,0,0,1-3.168,3.52" transform="translate(-96.037 -461.438)" fill="#bedee5"/>
          <path id="Trazado_161116" data-name="Trazado 161116" d="M325.056,587.206l-17.988.944a3.348,3.348,0,0,1-3.52-3.168l-.944-17.988a3.349,3.349,0,0,1,3.168-3.519l17.988-.944a3.348,3.348,0,0,1,3.519,3.168l.945,17.987a3.348,3.348,0,0,1-3.168,3.52" transform="translate(-244.041 -453.667)" fill="#bedee5"/>
          <path id="Trazado_161117" data-name="Trazado 161117" d="M515.724,577.194l-17.988.944a3.348,3.348,0,0,1-3.519-3.168l-.945-17.987a3.349,3.349,0,0,1,3.168-3.52l17.988-.945a3.349,3.349,0,0,1,3.52,3.168l.944,17.987a3.348,3.348,0,0,1-3.168,3.52" transform="translate(-397.812 -445.593)" fill="#bedee5"/>
          <path id="Trazado_161118" data-name="Trazado 161118" d="M699.242,567.559l-17.988.945a3.349,3.349,0,0,1-3.52-3.168l-.944-17.987a3.349,3.349,0,0,1,3.168-3.52l17.988-.944a3.349,3.349,0,0,1,3.52,3.168l.944,17.987a3.348,3.348,0,0,1-3.168,3.519" transform="translate(-545.816 -437.822)" fill="#bedee5"/>
          <path id="Trazado_161119" data-name="Trazado 161119" d="M880.377,558.047l-17.988.944a3.348,3.348,0,0,1-3.519-3.168l-.945-17.987a3.349,3.349,0,0,1,3.168-3.52l17.988-.945a3.349,3.349,0,0,1,3.52,3.168l.944,17.988a3.348,3.348,0,0,1-3.168,3.52" transform="translate(-691.898 -430.151)" fill="#bedee5"/>
          <path id="Trazado_161120" data-name="Trazado 161120" d="M1071.046,548.037l-17.988.945a3.348,3.348,0,0,1-3.519-3.168l-.945-17.987a3.349,3.349,0,0,1,3.168-3.52l17.988-.944a3.349,3.349,0,0,1,3.52,3.168l.944,17.987a3.349,3.349,0,0,1-3.168,3.52" transform="translate(-845.669 -422.078)" fill="#bedee5"/>
          <path id="Trazado_161121" data-name="Trazado 161121" d="M1254.564,538.4l-17.988.944a3.348,3.348,0,0,1-3.519-3.168l-.945-17.988a3.349,3.349,0,0,1,3.168-3.519l17.988-.944a3.348,3.348,0,0,1,3.519,3.168l.945,17.987a3.348,3.348,0,0,1-3.168,3.52" transform="translate(-993.673 -414.307)" fill="#ff8f65"/>
          <path id="Trazado_161122" data-name="Trazado 161122" d="M153.919,777.071l-17.988.944a3.348,3.348,0,0,1-3.519-3.168l-.945-17.987a3.348,3.348,0,0,1,3.168-3.52l17.988-.945a3.348,3.348,0,0,1,3.519,3.169l.945,17.987a3.348,3.348,0,0,1-3.168,3.519" transform="translate(-106.022 -606.79)" fill="#bedee5"/>
          <path id="Trazado_161123" data-name="Trazado 161123" d="M337.438,767.435l-17.988.944a3.348,3.348,0,0,1-3.519-3.168l-.945-17.987a3.349,3.349,0,0,1,3.168-3.52l17.988-.945a3.349,3.349,0,0,1,3.52,3.168l.944,17.987a3.348,3.348,0,0,1-3.168,3.52" transform="translate(-254.027 -599.019)" fill="#bedee5"/>
          <path id="Trazado_161124" data-name="Trazado 161124" d="M528.106,757.423l-17.988.944A3.348,3.348,0,0,1,506.6,755.2l-.945-17.987a3.349,3.349,0,0,1,3.168-3.52l17.988-.945a3.348,3.348,0,0,1,3.519,3.168l.945,17.988a3.348,3.348,0,0,1-3.168,3.52" transform="translate(-407.798 -590.944)" fill="#bedee5"/>
          <path id="Trazado_161125" data-name="Trazado 161125" d="M711.624,747.788l-17.988.945a3.348,3.348,0,0,1-3.519-3.169l-.945-17.987a3.349,3.349,0,0,1,3.168-3.52l17.988-.944a3.348,3.348,0,0,1,3.52,3.168l.944,17.988a3.349,3.349,0,0,1-3.168,3.52" transform="translate(-555.802 -583.174)" fill="#bedee5"/>
          <path id="Trazado_161126" data-name="Trazado 161126" d="M892.759,738.278l-17.988.945a3.348,3.348,0,0,1-3.519-3.168l-.945-17.988a3.349,3.349,0,0,1,3.168-3.52l17.988-.944a3.348,3.348,0,0,1,3.52,3.168l.944,17.987a3.348,3.348,0,0,1-3.168,3.52" transform="translate(-701.884 -575.504)" fill="#bedee5"/>
          <path id="Trazado_161127" data-name="Trazado 161127" d="M1083.428,728.266l-17.988.945a3.349,3.349,0,0,1-3.519-3.168l-.944-17.987a3.349,3.349,0,0,1,3.168-3.52l17.988-.944a3.348,3.348,0,0,1,3.52,3.168l.944,17.987a3.348,3.348,0,0,1-3.168,3.519" transform="translate(-855.655 -567.43)" fill="#bedee5"/>
          <path id="Trazado_161128" data-name="Trazado 161128" d="M1266.946,718.629l-17.988.944a3.348,3.348,0,0,1-3.519-3.168l-.944-17.987a3.348,3.348,0,0,1,3.168-3.519l17.988-.945a3.349,3.349,0,0,1,3.519,3.168l.945,17.987a3.348,3.348,0,0,1-3.168,3.52" transform="translate(-1003.659 -559.658)" fill="#ff8f65"/>
          <path id="Trazado_161129" data-name="Trazado 161129" d="M162.174,962.8l-17.988.944a3.348,3.348,0,0,1-3.519-3.168l-.945-17.987a3.348,3.348,0,0,1,3.168-3.519l17.988-.945a3.349,3.349,0,0,1,3.52,3.168l.944,17.988a3.348,3.348,0,0,1-3.168,3.52" transform="translate(-112.68 -756.58)" fill="#bedee5"/>
          <path id="Trazado_161130" data-name="Trazado 161130" d="M345.692,953.168l-17.988.945a3.348,3.348,0,0,1-3.519-3.168l-.945-17.988a3.349,3.349,0,0,1,3.168-3.52l17.988-.944a3.348,3.348,0,0,1,3.52,3.168l.944,17.987a3.348,3.348,0,0,1-3.168,3.52" transform="translate(-260.684 -748.809)" fill="#bedee5"/>
          <path id="Trazado_161131" data-name="Trazado 161131" d="M536.361,943.157l-17.988.945a3.349,3.349,0,0,1-3.519-3.168l-.944-17.987a3.349,3.349,0,0,1,3.168-3.52l17.988-.944a3.349,3.349,0,0,1,3.52,3.168l.944,17.987a3.349,3.349,0,0,1-3.168,3.52" transform="translate(-414.455 -740.735)" fill="#bedee5"/>
          <path id="Trazado_161132" data-name="Trazado 161132" d="M719.879,933.52l-17.988.945a3.348,3.348,0,0,1-3.519-3.168l-.945-17.987a3.348,3.348,0,0,1,3.168-3.52l17.988-.945a3.349,3.349,0,0,1,3.519,3.168L723.047,930a3.349,3.349,0,0,1-3.168,3.52" transform="translate(-562.459 -732.964)" fill="#bedee5"/>
          <path id="Trazado_161133" data-name="Trazado 161133" d="M901.014,924.009l-17.988.944a3.348,3.348,0,0,1-3.519-3.168l-.944-17.987a3.348,3.348,0,0,1,3.168-3.52l17.988-.945a3.349,3.349,0,0,1,3.519,3.168l.944,17.988a3.349,3.349,0,0,1-3.168,3.52" transform="translate(-708.541 -725.293)" fill="#bedee5"/>
          <path id="Trazado_161134" data-name="Trazado 161134" d="M1091.682,914l-17.988.944a3.348,3.348,0,0,1-3.52-3.168l-.945-17.987a3.349,3.349,0,0,1,3.168-3.52l17.988-.945a3.349,3.349,0,0,1,3.519,3.168l.945,17.988a3.348,3.348,0,0,1-3.168,3.519" transform="translate(-862.312 -717.219)" fill="#bedee5"/>
          <path id="Trazado_161135" data-name="Trazado 161135" d="M1275.2,904.363l-17.988.944a3.348,3.348,0,0,1-3.519-3.168l-.944-17.988a3.349,3.349,0,0,1,3.168-3.52l17.988-.944a3.349,3.349,0,0,1,3.52,3.168l.944,17.987a3.348,3.348,0,0,1-3.168,3.519" transform="translate(-1010.317 -709.449)" fill="#ff8f65"/>
          <path id="Trazado_161136" data-name="Trazado 161136" d="M143.5,83.086h0a3.55,3.55,0,0,1-3.732-3.358L138.789,61.3a3.55,3.55,0,0,1,7.09-.375l.974,18.434a3.55,3.55,0,0,1-3.358,3.732" transform="translate(-111.927 -46.42)" fill="#bedee5"/>
          <path id="Trazado_161137" data-name="Trazado 161137" d="M235.087,78.246h0a3.55,3.55,0,0,1-3.732-3.358l-.974-18.434a3.55,3.55,0,0,1,7.09-.375l.974,18.434a3.55,3.55,0,0,1-3.358,3.732" transform="translate(-185.794 -42.516)" fill="#bedee5"/>
          <path id="Trazado_161138" data-name="Trazado 161138" d="M323.015,73.6h0a3.55,3.55,0,0,1-3.732-3.358l-.974-18.434a3.55,3.55,0,0,1,7.09-.375l.974,18.434a3.55,3.55,0,0,1-3.358,3.732" transform="translate(-256.707 -38.769)" fill="#bedee5"/>
          <path id="Trazado_161139" data-name="Trazado 161139" d="M1032.377,35.015h0a3.55,3.55,0,0,1-3.732-3.358l-.974-18.434a3.55,3.55,0,0,1,7.09-.375l.974,18.434a3.55,3.55,0,0,1-3.358,3.732" transform="translate(-828.794 -7.651)" fill="#bedee5"/>
          <path id="Trazado_161140" data-name="Trazado 161140" d="M1123.969,30.176h0a3.55,3.55,0,0,1-3.732-3.358l-.974-18.434a3.55,3.55,0,1,1,7.09-.375l.974,18.434a3.55,3.55,0,0,1-3.357,3.732" transform="translate(-902.662 -3.748)" fill="#bedee5"/>
          <path id="Trazado_161141" data-name="Trazado 161141" d="M1211.9,25.529h0a3.55,3.55,0,0,1-3.732-3.358l-.974-18.434a3.55,3.55,0,1,1,7.09-.375l.974,18.434a3.55,3.55,0,0,1-3.358,3.732" transform="translate(-973.574 0)" fill="#bedee5"/>
          <path id="Trazado_161142" data-name="Trazado 161142" d="M34.11,96.224,35,113.243,304.746,99l-.893-17.01a13.322,13.322,0,0,0-14.007-12.605L46.712,82.222a13.323,13.323,0,0,0-12.6,14" transform="translate(-27.494 -55.942)" fill="#ff8f65"/>
          <path id="Trazado_161143" data-name="Trazado 161143" d="M1157.066,528.165s-65.816-82.329-97.518-94.327-49.918-23.162-67.383-40.978c-9.624-9.818-21.9-23.2-32.183-34.321-8.378-9.059-15.437-16.618-18.668-19.528-2.563-2.308-2.117-11.34,6.4-11.419,6.594-.062,18.218,7.424,29.97,15.2,14.687,9.719,29.573,19.89,35.088,16.347,2.451-1.574,6.1-20.05,6.529-22.469,6.451-36.274,41.627-17.595,57.156-28.982,10.115-7.417,31.276-7.009,39.343,9.906,15.61,32.733,25.3,57.79,43.019,72.066s85.563,64.046,85.563,64.046Z" transform="translate(-758.046 -244.442)" fill="#fdbaa0"/>
          <path id="Trazado_161144" data-name="Trazado 161144" d="M1074.215,298.212s-3.436-38.143-8.313-47.3-37.6-22.954-47.644-21.322-48.431,14.1-49.305,21.431,12.479,11.568,20.951,10.029,23.682-4.036,28.629.922c8.6,8.621,18.588,22.726,19.919,25.984,6.262,15.33-.1,22.993,4.317,29.191s31.447-18.933,31.447-18.933" transform="translate(-781.41 -185.052)" fill="#fdbaa0"/>
          <path id="Trazado_161145" data-name="Trazado 161145" d="M1188.625,232.23s-22.225-38.006-33.814-47.5-44.894-8.356-49.437-7.349c-9.468,2.1-32.551,21.049-30.563,24.315s35.42,1.32,35.42,1.32l36.018,39.147Z" transform="translate(-866.719 -142.526)" fill="#fdbaa0"/>
          <path id="Trazado_161146" data-name="Trazado 161146" d="M1382.33,169.623s-38.66-27.638-56.06-30.478-37,5.023-38.851,5.717c-5.8,2.174,17.359,20.164,17.359,20.164l37.127,27.453Z" transform="translate(-1037.527 -111.722)" fill="#fdbaa0"/>
          <path id="Trazado_161147" data-name="Trazado 161147" d="M1452.414,146.449a256.688,256.688,0,0,0-35-34.716c-7.109-5.689-43.777-10.087-47.609-6.036-8.676,9.171,31.226,22.194,31.226,22.194l13.217,33Z" transform="translate(-1103.726 -83.973)" fill="#fdbaa0"/>
          <path id="Trazado_161148" data-name="Trazado 161148" d="M1174.915,274.332c-6.941-1.438-13.967-2.828-20.413-5.8-6.329-2.916-11.4-7.314-16.781-11.606-4.93-3.934-10.6-7.965-17.034-9.027-7.645-1.262-16.2.056-23.728,1.742a1.084,1.084,0,0,0,.462,2.119,83.125,83.125,0,0,1,12.508-1.865c3.859-.264,8.028-.524,11.792.436,6.7,1.71,12.236,6.33,17.427,10.569,4.9,4,9.789,7.633,15.666,10.154,6.2,2.659,12.839,3.994,19.44,5.362,1.374.285,2.045-1.8.661-2.086" transform="translate(-884.002 -199.524)" fill="#e5967e"/>
          <path id="Trazado_161149" data-name="Trazado 161149" d="M1271.814,202c-12.566-5.251-21.951-15.239-33.912-21.467-9.624-5.012-22.3-9.926-33.211-6.614-1.508.458-.978,2.862.538,2.4,11.07-3.358,24.246,2.2,33.772,7.608,5.255,2.986,9.96,6.775,14.811,10.355a83.053,83.053,0,0,0,17.285,10.07c1.462.611,2.168-1.748.718-2.354" transform="translate(-970.836 -139.394)" fill="#e5967e"/>
          <path id="Trazado_161150" data-name="Trazado 161150" d="M1334.278,145.394a51.308,51.308,0,0,1-14.182-10.437c-2.179-2.172-4.291-4.41-6.478-6.573-2.042-2.021-4.129-3.856-7.054-4.346-5.453-.914-11.388.915-16.476,2.689-5.882,2.051-11.576,4.67-17.616,6.247-1.531.4-1,2.8.538,2.4,5.523-1.442,10.756-3.759,16.108-5.708,5.2-1.894,11.926-4.452,17.533-3.127,3.123.738,5.413,3.751,7.562,5.943,1.963,2,3.9,4.03,5.935,5.963a49.38,49.38,0,0,0,12.839,9.043c1.414.672,2.724-1.414,1.291-2.1" transform="translate(-1025.488 -99.838)" fill="#e5967e"/>
          <path id="Trazado_161151" data-name="Trazado 161151" d="M1738.862,833.619s-33.673-38.7-31.141-41.8,53.337-55.3,62.344-73.368c0,0,.806-3.695,5.848-.929s46.187,29.987,46.187,29.987l-24.6,57.615Z" transform="translate(-1377.137 -577.839)" fill="#edf9fb"/>
          <path id="Trazado_161152" data-name="Trazado 161152" d="M1977.038,849.086V962.11H1846.683c-28.355-34.007-43.948-54.223-42.605-60.363a12.913,12.913,0,0,1,2.563-4.729,63.675,63.675,0,0,1,6.613-7.035c13.967-13.208,39.988-32.079,51.706-49.247,6.537-9.582,11.788-17.3,16.675-22.643a40.386,40.386,0,0,1,4.624-4.4c5.313-4.221,10.541-5.265,16.977-2.417,4.035,1.786,52.934,23.706,73.8,37.811" transform="translate(-1454.892 -652.989)" fill="#384955"/>
          <path id="Trazado_161153" data-name="Trazado 161153" d="M1760.5,1111.427a3.43,3.43,0,1,1,3.926,2.85,3.431,3.431,0,0,1-3.926-2.85" transform="translate(-1419.775 -893.145)" fill="#198da5"/>
          <path id="Trazado_161154" data-name="Trazado 161154" d="M662.861,377.081A16.682,16.682,0,1,1,679.542,360.4a16.7,16.7,0,0,1-16.682,16.682m0-32.521A15.84,15.84,0,1,0,678.7,360.4a15.858,15.858,0,0,0-15.839-15.84" transform="translate(-521.132 -277.203)" fill="#1c5070"/>
          <path id="Trazado_161155" data-name="Trazado 161155" d="M825.9,379.678l.43,15.791s-11.027-3.528-15.655-5.672c-1.218-.567-1.994-1.034-2.01-1.317s.778-.875,2.034-1.6c4.555-2.632,15.2-7.2,15.2-7.2" transform="translate(-652.176 -306.204)" fill="#384955"/>
          <path id="Trazado_161156" data-name="Trazado 161156" d="M917.456,292.414c6.251-1.161,219.9-19.617,219.9-19.617l1.678,33.867-221.26,3.4Z" transform="translate(-739.912 -220.006)" fill="#1882b7"/>
          <path id="Trazado_161157" data-name="Trazado 161157" d="M873.441,384.688a8.787,8.787,0,1,1,10.057,7.3,8.788,8.788,0,0,1-10.057-7.3" transform="translate(-704.326 -302.043)" fill="#1882b7"/>
          <path id="Trazado_161158" data-name="Trazado 161158" d="M1969.035,292.069a16.949,16.949,0,1,1,19.4,14.083,16.951,16.951,0,0,1-19.4-14.083" transform="translate(-1587.821 -219.731)" fill="#1a7aa0"/>
          <path id="Trazado_161159" data-name="Trazado 161159" d="M2036.946,342.838a5.171,5.171,0,1,1,6.346,3.635,5.172,5.172,0,0,1-6.346-3.635" transform="translate(-1642.614 -271.227)" fill="#384955"/>
          <path id="Trazado_161160" data-name="Trazado 161160" d="M2103.627,335.1a6.03,6.03,0,1,1,7.4,4.239,6.031,6.031,0,0,1-7.4-4.239" transform="translate(-1696.367 -264.113)" fill="#384955"/>
          <path id="Trazado_161161" data-name="Trazado 161161" d="M2060.18,329.525c.414-.034,13.5-1.678,13.5-1.678l1.686,11.941-14.609.041Z" transform="translate(-1661.498 -264.403)" fill="#384955"/>
          <path id="Trazado_161162" data-name="Trazado 161162" d="M1738.68,375.684c.914,2.849-23.5,3.394-25.864,3.47q-13.471.433-26.937.278c-2.605-.033-3.078,4.023-.454,4.056,15.209.19,30.382-.367,45.577-.981,5.423-.219,13.854-.833,11.392-8.511-.8-2.492-4.51-.79-3.715,1.688" transform="translate(-1357.855 -300.635)" fill="#384955"/>
          <path id="Trazado_161163" data-name="Trazado 161163" d="M1553.553,321.562l27.039-3.113c1.305-.15.983-2.165-.32-2.015l-27.039,3.113c-1.305.15-.983,2.165.32,2.015" transform="translate(-1251.984 -255.192)" fill="#edf9fb"/>
          <path id="Trazado_161164" data-name="Trazado 161164" d="M1725.646,315.555l4.653-.117c1.308-.033.975-2.048-.32-2.015l-4.653.117c-1.308.033-.975,2.047.32,2.015" transform="translate(-1390.775 -252.77)" fill="#edf9fb"/>
          <path id="Trazado_161165" data-name="Trazado 161165" d="M1783.169,296.8a163.149,163.149,0,0,1,27.853-3.288c1.308-.041.977-2.056-.32-2.015a163.139,163.139,0,0,0-27.853,3.288c-1.281.264-.969,2.28.32,2.015" transform="translate(-1437.176 -235.086)" fill="#edf9fb"/>
          <path id="Trazado_161166" data-name="Trazado 161166" d="M2070.874,285.281c2.678.669,5.427,1.382,7.249,3.61a1.021,1.021,0,0,0,1.578-1.293c-2.066-2.525-5.021-3.452-8.087-4.218-1.259-.314-2.011,1.584-.74,1.9" transform="translate(-1669.594 -228.513)" fill="#edf9fb"/>
          <path id="Trazado_161167" data-name="Trazado 161167" d="M2122.26,355.216a4.208,4.208,0,0,0,2.1,3.961c1.117.673,2.324-.972,1.2-1.651a2.058,2.058,0,0,1-1.268-2.083c.016-1.3-2.011-1.539-2.028-.227" transform="translate(-1711.564 -285.77)" fill="#edf9fb"/>
          <path id="Trazado_161168" data-name="Trazado 161168" d="M810.678,419.815c-1.218-.567-1.994-1.034-2.01-1.317s.778-.875,2.034-1.6a5.467,5.467,0,0,0-.024,2.916" transform="translate(-652.176 -336.222)" fill="#1882b7"/>
        </g>
      </g>
    </g>
  </g>
</svg>
