<svg xmlns="http://www.w3.org/2000/svg" xmlns:xlink="http://www.w3.org/1999/xlink" width="505.466" height="177.792" viewBox="0 0 505.466 177.792">
  <defs>
    <clipPath id="clip-path">
      <path id="Trazado_161169" data-name="Trazado 161169" d="M166.466-7.376h505V170.063h-505Z" transform="translate(-166)" fill="none"/>
    </clipPath>
  </defs>
  <g id="Grupo_167788" data-name="Grupo 167788" transform="translate(-541 -4520)">
    <path id="Trazado_156666" data-name="Trazado 156666" d="M0,0H505V176.9H0Z" transform="translate(541 4520)" fill="#ffd947"/>
    <g id="Grupo_167663" data-name="Grupo 167663" transform="translate(541 4527.728)">
      <g id="Grupo_165585" data-name="Grupo 165585" transform="translate(0)">
        <g id="Enmascarar_grupo_220" data-name="Enmascarar grupo 220" clip-path="url(#clip-path)">
          <path id="Trazado_150476" data-name="Trazado 150476" d="M230.22,249.883V194.4a.583.583,0,0,0-.583-.583H84.889a.583.583,0,0,0-.583.583v55.486Z" transform="translate(-201.125 -80.751)" fill="#d9a389"/>
          <path id="Trazado_150477" data-name="Trazado 150477" d="M258.778,260.584l11.508-39.818a.993.993,0,0,0-.954-1.268h-7.244a.992.992,0,0,0-.954.717l-11.668,40.369Z" transform="translate(-269.938 -91.452)" fill="#8498d9"/>
          <path id="Trazado_150478" data-name="Trazado 150478" d="M129.965,263.965h11.767l-17.766-35.8a.993.993,0,0,0-.889-.552h-9.55a.993.993,0,0,0-.89,1.435Z" transform="translate(-212.886 -94.833)" fill="#ffeae0"/>
          <path id="Trazado_150479" data-name="Trazado 150479" d="M111.319,260.311h9.819l-20.3-40.916a.993.993,0,0,0-.89-.552h-7.6a.993.993,0,0,0-.889,1.434Z" transform="translate(-204.059 -91.179)" fill="#8498d9"/>
          <path id="Trazado_150480" data-name="Trazado 150480" d="M152.7,269.316h7.732l-14.106-28.427a.782.782,0,0,0-.7-.434h-5.987a.782.782,0,0,0-.7,1.129Z" transform="translate(-223.853 -100.183)" fill="#2b244a"/>
          <path id="Trazado_150481" data-name="Trazado 150481" d="M298.532,260.584l11.508-39.818a.993.993,0,0,0-.954-1.268H299.4a.993.993,0,0,0-.954.717l-11.667,40.369Z" transform="translate(-285.483 -91.452)" fill="#ffeae0"/>
          <path id="Trazado_150482" data-name="Trazado 150482" d="M277.881,256.8l13.038-45.112a.993.993,0,0,0-.954-1.268H279.579a.992.992,0,0,0-.954.717l-13.2,45.664Z" transform="translate(-276.588 -87.67)" fill="#2b244a"/>
          <path id="Trazado_150483" data-name="Trazado 150483" d="M90.93,251.9V200.151a.5.5,0,0,1,.5-.5H227.792a.5.5,0,0,1,.5.5V251.9h.992V200.151a1.491,1.491,0,0,0-1.489-1.489H91.426a1.491,1.491,0,0,0-1.489,1.489V251.9Z" transform="translate(-203.471 -82.771)" fill="#2b244a"/>
          <path id="Trazado_150484" data-name="Trazado 150484" d="M229.165,151.412a29.667,29.667,0,0,0,5.96-8.35,25.988,25.988,0,0,0,2.869-14.158c-.445-3.779-1.974-6.9-3.405-9.914a60.339,60.339,0,0,1-4.674-12.5,49.606,49.606,0,0,1-1.234-14.429h-7.8a49.605,49.605,0,0,1-1.234,14.429,60.341,60.341,0,0,1-4.674,12.5c-1.432,3.014-2.961,6.135-3.405,9.914a25.988,25.988,0,0,0,2.869,14.158,29.666,29.666,0,0,0,5.96,8.35Z" transform="translate(-254.092 -38.358)" fill="#dec6bd"/>
          <path id="Trazado_150485" data-name="Trazado 150485" d="M218.712,138.133c3.134.044,5.928,1.852,9.055,1.978,3.046.124,5.65-1.928,8.662-1.978a.5.5,0,0,0,0-.993c-3.017.051-5.639,2.1-8.662,1.979-3.12-.127-5.909-1.935-9.055-1.979a.5.5,0,0,0,0,.993" transform="translate(-256.924 -57.138)" fill="#2b244a"/>
          <path id="Trazado_150486" data-name="Trazado 150486" d="M163.629,165.727h-28.9L126.1,127.364a1.766,1.766,0,0,1,1.724-2.155H153.1a1.757,1.757,0,0,1,1.724,1.38Zm-28.1-.993h26.861l-8.533-37.928a.771.771,0,0,0-.755-.6H127.824a.774.774,0,0,0-.755.944Z" transform="translate(-218.52 -52.167)" fill="#2b244a"/>
          <path id="Trazado_150487" data-name="Trazado 150487" d="M160.943,164.373h-18.47a.829.829,0,0,1-.809-.646l-6.791-29.777a.831.831,0,0,1,.81-1.015h18.47a.831.831,0,0,1,.81.646l6.791,29.777a.831.831,0,0,1-.81,1.015" transform="translate(-222.184 -55.386)" fill="#dec6bd"/>
          <path id="Trazado_150488" data-name="Trazado 150488" d="M120.117,178.516q3.8-10.567,7.611-21.133c.216-.6-.742-.862-.957-.264q-3.806,10.566-7.611,21.133c-.217.6.742.861.957.264" transform="translate(-215.633 -65.321)" fill="#2b244a"/>
          <path id="Trazado_150489" data-name="Trazado 150489" d="M132.714,88.461H109.257l7.109-31.6a1.523,1.523,0,0,1,1.495-1.2h20.317a1.532,1.532,0,0,1,1.494,1.868Zm-22.18-1.021H131.9l6.779-30.128a.511.511,0,0,0-.5-.623H117.861a.508.508,0,0,0-.5.4Z" transform="translate(-211.521 -23.193)" fill="#2b244a"/>
          <path id="Trazado_150490" data-name="Trazado 150490" d="M118.812,87.06h14.123a1.021,1.021,0,0,0,1-.8l4.714-20.948a1.021,1.021,0,0,0-1-1.245H123.526a1.022,1.022,0,0,0-1,.8l-4.713,20.948a1.021,1.021,0,0,0,1,1.245" transform="translate(-215.076 -26.694)" fill="#d9a389"/>
          <path id="Trazado_150491" data-name="Trazado 150491" d="M160.736,99.177l-5.722-15.89c-.221-.614-1.208-.349-.985.271l5.722,15.89c.221.614,1.208.349.985-.271" transform="translate(-230.161 -34.556)" fill="#2b244a"/>
          <path id="Trazado_150492" data-name="Trazado 150492" d="M111.639,114.948H.81a.81.81,0,0,1-.81-.81v-2.321a.81.81,0,0,1,.81-.81H111.639a.81.81,0,0,1,.81.81v2.321a.81.81,0,0,1-.81.81" transform="translate(-166 -46.25)" fill="#b06641"/>
          <path id="Trazado_150493" data-name="Trazado 150493" d="M80.089,82.4H70.647l-7.2-38.633a1.2,1.2,0,0,1,1.184-1.425H71.62a1.2,1.2,0,0,1,1.184.984Z" transform="translate(-192.424 -17.64)" fill="#2b244a"/>
          <path id="Trazado_150494" data-name="Trazado 150494" d="M64.955,88.033H55.513L49.781,57.292a1.2,1.2,0,0,1,1.184-1.425h6.992a1.2,1.2,0,0,1,1.184.984Z" transform="translate(-186.732 -23.276)" fill="#d9a389"/>
          <path id="Trazado_150495" data-name="Trazado 150495" d="M27.419,88.033H17.976L12.245,57.292a1.2,1.2,0,0,1,1.183-1.425H20.42a1.2,1.2,0,0,1,1.184.984Z" transform="translate(-171.093 -23.276)" fill="#d9a389"/>
          <path id="Trazado_150496" data-name="Trazado 150496" d="M51.09,85.367h-5.5L39.165,50.891a1.2,1.2,0,0,1,1.184-1.425H43.4a1.2,1.2,0,0,1,1.184.983Z" transform="translate(-182.309 -20.61)" fill="#8498d9"/>
          <path id="Trazado_150497" data-name="Trazado 150497" d="M39.424,78.629h-6.94L24.366,35.094a1.521,1.521,0,0,1,1.5-1.8h3.846a1.521,1.521,0,0,1,1.5,1.242Z" transform="translate(-176.141 -13.872)" fill="#2b244a"/>
          <path id="Trazado_150498" data-name="Trazado 150498" d="M16.981,105.1h-3.4V97.29a.472.472,0,0,1,.471-.472h2.461a.472.472,0,0,1,.472.472Z" transform="translate(-171.657 -40.338)" fill="#b06641"/>
          <path id="Trazado_150499" data-name="Trazado 150499" d="M455.783,137.954H367.357a.81.81,0,0,1-.81-.81v-1.535a.81.81,0,0,1,.81-.81h88.426a.81.81,0,0,1,.81.81v1.535a.81.81,0,0,1-.81.81" transform="translate(-318.718 -56.162)" fill="#b06641"/>
          <path id="Trazado_150500" data-name="Trazado 150500" d="M415.165,69.237s9.854-8.526,10.631-26.714c0,0-12.358,6.815-15.084,26.714Z" transform="translate(-337.119 -17.717)" fill="#ccb16c"/>
          <path id="Trazado_150501" data-name="Trazado 150501" d="M394.941,58.14s-16.1-15.4-12.423-42.252A56.891,56.891,0,0,1,394.941,58.14" transform="translate(-325.145 -6.62)" fill="#ccb16c"/>
          <path id="Trazado_150502" data-name="Trazado 150502" d="M403.02,51.52h-1.5L399.457,26.5C399.218,13.373,403.02,0,403.02,0s6.406,27.4,0,51.52" transform="translate(-332.426)" fill="#ccb16c"/>
          <path id="Trazado_150503" data-name="Trazado 150503" d="M413.5,42.858c4.809-11.5,4.019-26.581,4.019-26.581a53.339,53.339,0,0,0-9.1,14.715L405.572,58.3h3Z" transform="translate(-334.978 -6.782)" fill="#ccb16c"/>
          <path id="Trazado_150504" data-name="Trazado 150504" d="M389.257,73.585,381.3,61.4s-4.493-6.72-12.489-8.446c0,0,3.278,15.242,17.021,20.626Z" transform="translate(-319.662 -22.065)" fill="#ccb16c"/>
          <path id="Trazado_150505" data-name="Trazado 150505" d="M409.706,76.744a41.211,41.211,0,0,1,5.432-15.774.409.409,0,0,0-.706-.412,42.2,42.2,0,0,0-5.544,16.186c-.066.521.752.516.818,0" transform="translate(-336.358 -25.149)" fill="#2b244a"/>
          <path id="Trazado_150506" data-name="Trazado 150506" d="M405.5,52.395a39.429,39.429,0,0,1,2.665-11.2c.195-.489-.6-.7-.789-.217a40.146,40.146,0,0,0-2.695,11.417c-.046.524.773.522.818,0" transform="translate(-334.605 -16.959)" fill="#2b244a"/>
          <path id="Trazado_150507" data-name="Trazado 150507" d="M399.294,45.763a126.41,126.41,0,0,1,6.09,20.435c.107.515.9.3.789-.218a126.413,126.413,0,0,0-6.09-20.434c-.19-.484-.981-.273-.789.218" transform="translate(-332.349 -18.862)" fill="#2b244a"/>
          <path id="Trazado_150508" data-name="Trazado 150508" d="M390.6,68.212a36.129,36.129,0,0,0,8.672,11.69c.391.35.972-.226.579-.578A35.548,35.548,0,0,1,391.3,67.8c-.221-.477-.926-.062-.706.413" transform="translate(-328.722 -28.16)" fill="#2b244a"/>
          <path id="Trazado_150509" data-name="Trazado 150509" d="M403.725,115.484s3.089-2,4.634-7.724,1.635-19.445,1.635-19.445H387.886s.091,13.721,1.636,19.445,4.634,7.724,4.634,7.724Z" transform="translate(-327.609 -36.796)" fill="#dec6bd"/>
          <path id="Trazado_150510" data-name="Trazado 150510" d="M388.538,94.586h20.99a.409.409,0,0,0,0-.818h-20.99a.409.409,0,0,0,0,.818" transform="translate(-327.716 -39.068)" fill="#2b244a"/>
          <path id="Trazado_150511" data-name="Trazado 150511" d="M498.106,63.136a5.979,5.979,0,1,1-4.282-7.291,5.979,5.979,0,0,1,4.282,7.291" transform="translate(-368.628 -23.186)" fill="#ccb16c"/>
          <path id="Trazado_150512" data-name="Trazado 150512" d="M482.043,38.669a5.272,5.272,0,1,0,5.43-5.109,5.272,5.272,0,0,0-5.43,5.109" transform="translate(-366.838 -13.982)" fill="#ccb16c"/>
          <path id="Trazado_150513" data-name="Trazado 150513" d="M464.41,63.893a9.359,9.359,0,1,1-9.359-9.359,9.359,9.359,0,0,1,9.359,9.359" transform="translate(-351.693 -22.721)" fill="#ccb16c"/>
          <path id="Trazado_150514" data-name="Trazado 150514" d="M449.8,60.263a36.3,36.3,0,0,1,10.512,10.58,47.179,47.179,0,0,1,5.437,10.868,21.732,21.732,0,0,1,1.065,4.07c.07.519.859.3.788-.218a30.95,30.95,0,0,0-2.944-8.677,46.039,46.039,0,0,0-7.79-11.737,33.806,33.806,0,0,0-6.656-5.593c-.446-.283-.856.424-.413.706" transform="translate(-353.328 -24.787)" fill="#2b244a"/>
          <path id="Trazado_150515" data-name="Trazado 150515" d="M482.846,104.462a57.858,57.858,0,0,1-1.292,9.968c-1.545,5.725-4.637,7.728-4.637,7.728h-9.568s-3.091-2-4.637-7.728a57.911,57.911,0,0,1-1.292-9.968Z" transform="translate(-358.246 -43.523)" fill="#dec6bd"/>
          <path id="Trazado_150516" data-name="Trazado 150516" d="M459.655,95.963a5.979,5.979,0,1,1-5.979-5.979,5.979,5.979,0,0,1,5.979,5.979" transform="translate(-352.529 -37.491)" fill="#ccb16c"/>
          <path id="Trazado_150517" data-name="Trazado 150517" d="M450.733,100.954c1.318-3.16,3.51-6.3,6.981-7.247a8.765,8.765,0,0,1,5.658.419,6.284,6.284,0,0,1,3.309,4.016.409.409,0,0,0,.789-.218,7.158,7.158,0,0,0-3.429-4.383,8.756,8.756,0,0,0-2.424-.778,9.28,9.28,0,0,0-7.671,2.059,15.265,15.265,0,0,0-4,5.915c-.2.485.589.7.789.218" transform="translate(-353.451 -38.588)" fill="#2b244a"/>
          <path id="Trazado_150518" data-name="Trazado 150518" d="M487.971,34.077c-4.605,9.154-7.58,19.453-7.616,29.754a37.289,37.289,0,0,0,.386,5.691c.078.519.866.3.789-.218a43.245,43.245,0,0,1-.039-11.017,67.347,67.347,0,0,1,3.306-14.6,73.555,73.555,0,0,1,3.881-9.2c.236-.469-.469-.884-.706-.413" transform="translate(-366.135 -14.111)" fill="#2b244a"/>
          <path id="Trazado_150519" data-name="Trazado 150519" d="M481.263,72.3a19.772,19.772,0,0,1,2.872-5,19.068,19.068,0,0,1,5.538-4.507,33.219,33.219,0,0,1,5.067-2.244c.492-.175.28-.965-.218-.789-5.042,1.794-9.809,4.54-12.572,9.276a24.892,24.892,0,0,0-1.476,3.047c-.2.486.59.7.789.218" transform="translate(-366.172 -24.888)" fill="#2b244a"/>
          <path id="Trazado_150520" data-name="Trazado 150520" d="M499.908,85.77a10.086,10.086,0,1,1-12.363-7.114,10.086,10.086,0,0,1,12.363,7.114" transform="translate(-366.021 -32.625)" fill="#ccb16c"/>
          <path id="Trazado_150521" data-name="Trazado 150521" d="M478.568,94.155a9.777,9.777,0,0,1,3.182-2.925,12.213,12.213,0,0,1,4.463-1.635,12.692,12.692,0,0,1,8.58,1.759,16.262,16.262,0,0,1,3.713,3.1c.352.393.929-.187.579-.578a15.779,15.779,0,0,0-7.739-4.857,13.16,13.16,0,0,0-9.638,1.279,10.841,10.841,0,0,0-3.845,3.441c-.277.45.43.861.706.413" transform="translate(-365.07 -36.925)" fill="#2b244a"/>
          <path id="Trazado_150522" data-name="Trazado 150522" d="M377.14,130.064h-2.726v-6.156a.472.472,0,0,1,.472-.472h1.782a.472.472,0,0,1,.472.472Z" transform="translate(-321.996 -51.428)" fill="#b06641"/>
          <path id="Trazado_150523" data-name="Trazado 150523" d="M511.09,130.064h-2.726v-6.156a.472.472,0,0,1,.472-.472h1.782a.472.472,0,0,1,.472.472Z" transform="translate(-377.805 -51.428)" fill="#b06641"/>
          <path id="Trazado_150524" data-name="Trazado 150524" d="M852.546,255.33a6.4,6.4,0,0,1,5.989,4.011,20.77,20.77,0,0,1,1.172,5.521q.433,3.108.866,6.216.275,1.969.549,3.936h1.2q-.158-1.132-.316-2.265-.451-3.232-.9-6.464a43.334,43.334,0,0,0-.967-6.007,8.223,8.223,0,0,0-4.421-5.519,8.307,8.307,0,0,0-3.171-.626.6.6,0,0,0,0,1.2" transform="translate(-520.964 -105.882)" fill="#2b244a"/>
          <path id="Trazado_150525" data-name="Trazado 150525" d="M696.933,275.014q.708-5.076,1.415-10.152c.43-3.085.753-6.745,3.661-8.585a6.626,6.626,0,0,1,3.5-.947.6.6,0,0,0,0-1.2,7.472,7.472,0,0,0-5.858,2.675c-2.143,2.655-2.251,6.244-2.7,9.477q-.609,4.366-1.217,8.73Z" transform="translate(-455.871 -105.882)" fill="#2b244a"/>
          <path id="Trazado_150526" data-name="Trazado 150526" d="M1090.289,255.33a6.4,6.4,0,0,1,5.989,4.011,20.774,20.774,0,0,1,1.172,5.521q.434,3.108.867,6.216.273,1.969.548,3.936h1.2q-.157-1.132-.315-2.265-.451-3.232-.9-6.464a43.39,43.39,0,0,0-.968-6.007,7.576,7.576,0,0,0-7.591-6.145.6.6,0,0,0,0,1.2" transform="translate(-620.018 -105.882)" fill="#2b244a"/>
          <path id="Trazado_150527" data-name="Trazado 150527" d="M934.676,275.014q.708-5.076,1.415-10.152c.43-3.085.753-6.745,3.661-8.585a6.627,6.627,0,0,1,3.5-.947.6.6,0,0,0,0-1.2,7.472,7.472,0,0,0-5.858,2.675c-2.143,2.655-2.251,6.244-2.7,9.477q-.609,4.366-1.217,8.73Z" transform="translate(-554.924 -105.882)" fill="#2b244a"/>
          <path id="Trazado_150528" data-name="Trazado 150528" d="M941.962,252.187H676.9a2.978,2.978,0,1,1,0-5.957H941.962a2.978,2.978,0,1,1,0,5.957" transform="translate(-446.785 -102.589)" fill="#d9a389"/>
          <path id="Trazado_150529" data-name="Trazado 150529" d="M891.539,246.3a6.377,6.377,0,0,0,.087,5.637.6.6,0,1,0,1.034-.6,5.1,5.1,0,0,1-.087-4.428.615.615,0,0,0-.215-.819.6.6,0,0,0-.82.215" transform="translate(-537.195 -102.495)" fill="#2b244a"/>
          <path id="Trazado_150530" data-name="Trazado 150530" d="M1096.059,235.961c-1.144-1.7-1.442-5.07-1.442-5.07l-6.9,1.177-6.9-1.177s-.3,3.372-1.442,5.07c-.81,1.2-2.31,2.241-2.31,3.878h21.3c0-1.637-1.5-2.677-2.31-3.878" transform="translate(-614.752 -96.199)" fill="#2b244a"/>
          <path id="Trazado_150531" data-name="Trazado 150531" d="M1100.5,201.35c-1.564,9.555-8.347,16.4-15.151,15.286s-11.052-9.763-9.488-19.318,8.347-16.4,15.151-15.286,11.053,9.763,9.489,19.318" transform="translate(-614.113 -75.792)" fill="#2b244a"/>
          <path id="Trazado_150532" data-name="Trazado 150532" d="M1095.982,199.2c-.583,3.56-3.11,6.11-5.645,5.695s-4.117-3.637-3.534-7.2,3.109-6.109,5.645-5.695,4.117,3.637,3.534,7.2" transform="translate(-618.756 -79.977)" fill="#8c75b5"/>
          <path id="Trazado_150533" data-name="Trazado 150533" d="M1091.976,223.3a2.9,2.9,0,1,1-2.393-3.33,2.9,2.9,0,0,1,2.393,3.33" transform="translate(-618.561 -91.631)" fill="#8c75b5"/>
          <path id="Trazado_150534" data-name="Trazado 150534" d="M1082.413,236.419a11.114,11.114,0,0,0,7.37,2.979,11.476,11.476,0,0,0,7.529-2.87c.586-.5-.264-1.346-.848-.848a9.9,9.9,0,0,1-13.2-.108c-.569-.517-1.419.327-.846.847" transform="translate(-616.898 -98.081)" fill="#8c75b5"/>
          <path id="Trazado_150535" data-name="Trazado 150535" d="M947.692,235.961c-1.145-1.7-1.443-5.07-1.443-5.07l-6.9,1.177-6.9-1.177s-.3,3.372-1.441,5.07c-.81,1.2-2.31,2.241-2.31,3.878H950c0-1.637-1.5-2.677-2.31-3.878" transform="translate(-552.937 -96.199)" fill="#2b244a"/>
          <path id="Trazado_150536" data-name="Trazado 150536" d="M952.136,201.35c-1.564,9.555-8.347,16.4-15.151,15.286s-11.052-9.763-9.488-19.318,8.347-16.4,15.151-15.286,11.052,9.763,9.488,19.318" transform="translate(-552.298 -75.792)" fill="#2b244a"/>
          <path id="Trazado_150537" data-name="Trazado 150537" d="M947.615,199.2c-.583,3.56-3.11,6.11-5.645,5.695s-4.117-3.637-3.535-7.2,3.109-6.109,5.645-5.695,4.117,3.637,3.535,7.2" transform="translate(-556.94 -79.977)" fill="#8c75b5"/>
          <path id="Trazado_150538" data-name="Trazado 150538" d="M943.609,223.3a2.9,2.9,0,1,1-2.393-3.33,2.9,2.9,0,0,1,2.393,3.33" transform="translate(-556.745 -91.631)" fill="#8c75b5"/>
          <path id="Trazado_150539" data-name="Trazado 150539" d="M934.046,236.419a11.115,11.115,0,0,0,7.37,2.979,11.475,11.475,0,0,0,7.529-2.87c.587-.5-.264-1.346-.847-.848a9.9,9.9,0,0,1-13.2-.108c-.569-.517-1.419.327-.846.847" transform="translate(-555.082 -98.081)" fill="#8c75b5"/>
          <path id="Trazado_150540" data-name="Trazado 150540" d="M1006.749,33.046H917.1a4.727,4.727,0,0,0-4.586,3.583l-19.355,77.65a4.726,4.726,0,0,0,4.586,5.869h89.652a4.726,4.726,0,0,0,4.586-3.583l19.356-77.65a4.726,4.726,0,0,0-4.586-5.869" transform="translate(-538.065 -13.768)" fill="#dec6bd"/>
          <path id="Trazado_150541" data-name="Trazado 150541" d="M1008.469,39.014,991.639,107.6h-95.51l17.683-70.963a4.713,4.713,0,0,1,4.583-3.587h85.4a4.814,4.814,0,0,1,4.673,5.968" transform="translate(-539.364 -13.768)" fill="#2b244a"/>
          <path id="Trazado_150542" data-name="Trazado 150542" d="M1047.925,120.147a5.151,5.151,0,0,0,5.092-3.752c.081-.3.152-.607.227-.911q.656-2.634,1.313-5.267l5.011-20.1q3.1-12.421,6.192-24.842l4.973-19.951,1.279-5.133c.532-2.132.838-4.6-1.161-6.1a6.287,6.287,0,0,0-3.758-1.031.554.554,0,0,0,0,1.107,4.563,4.563,0,0,1,3.579,1.261,3.788,3.788,0,0,1,.611,3.011c-.061.387-.166.769-.261,1.15l-1.118,4.487L1065.26,62.7l-6.017,24.138q-2.588,10.382-5.176,20.765l-1.587,6.367a12.284,12.284,0,0,1-.939,3.152,4.142,4.142,0,0,1-3.616,1.915.554.554,0,0,0,0,1.107" transform="translate(-602.385 -13.772)" fill="#2b244a"/>
          <path id="Trazado_150543" data-name="Trazado 150543" d="M992.136,168.843H978.97l18.177,45.144h13.166Z" transform="translate(-573.878 -70.347)" fill="#dec6bd"/>
          <path id="Trazado_150544" data-name="Trazado 150544" d="M985.5,183.359h11.934a.554.554,0,0,0,0-1.107H985.5a.554.554,0,0,0,0,1.107" transform="translate(-576.376 -75.934)" fill="#2b244a"/>
          <path id="Trazado_150545" data-name="Trazado 150545" d="M1003.833,241.6H973.872a2.7,2.7,0,0,0-2.7,2.7h32.664Z" transform="translate(-570.629 -100.66)" fill="#dec6bd"/>
          <path id="Trazado_150546" data-name="Trazado 150546" d="M540.673,286.012c-10.489-2.885-19.516-5.315-20.464-5.482a8.939,8.939,0,0,0-1.744,2.285c-.525,1.026-1.031,2.1-1.525,3.2Z" transform="translate(-381.378 -116.88)" fill="#ccb16c"/>
          <path id="Trazado_150547" data-name="Trazado 150547" d="M594.82,124.618l-19.73-10.478,16.566-30.306,16.178,9.743Z" transform="translate(-405.606 -34.929)" fill="#ffa58f"/>
          <path id="Trazado_150548" data-name="Trazado 150548" d="M588.2,107.949l18.287,8.97-1.073,5.883-20.173-9.565Z" transform="translate(-409.837 -44.976)" fill="#2b244a"/>
          <path id="Trazado_150549" data-name="Trazado 150549" d="M796.27,268.156c5.936,1.206,28.848,5.006,29.033,7.951s-2.344,5.607-18.184,3.877-10.849-11.828-10.849-11.828" transform="translate(-497.448 -111.725)" fill="#ffa58f"/>
          <path id="Trazado_150550" data-name="Trazado 150550" d="M793.873,280.68c-5.965-5.93-12.921-11.877-16.941-12.7-7.787-1.6-22.9,5.058-22.9,5.058l-4.928,7.643Z" transform="translate(-478.109 -111.548)" fill="#ffa58f"/>
          <path id="Trazado_150551" data-name="Trazado 150551" d="M803.047,289.187h1.82l-1.014-.883c-.579-.5-1.43.34-.847.847l.041.036" transform="translate(-500.484 -120.055)" fill="#2b244a"/>
          <path id="Trazado_150552" data-name="Trazado 150552" d="M812.815,277.634l6.719,6.462c.555.534,1.4-.311.847-.847l-6.719-6.462c-.556-.534-1.4.311-.847.847" transform="translate(-504.576 -115.25)" fill="#2b244a"/>
          <path id="Trazado_150553" data-name="Trazado 150553" d="M622.952,198.334c5.561,2.641,17.643,12.194,30.8,16.561h22.906a28.943,28.943,0,0,0,11.721-10.305c18.819-27.185,26.462-46.945,31.391-54.607,3.6-1.341,11.269-3.914,19.125-7.189,8.86-3.694,2.512-10.012,2.512-10.012s3.078-2.793,1.831-5.712c-.373-.874-1.718-1.95-4.243-1.714,1.964-.433,10.943-3.88,11.248-3.994,2.862-1.065,3.427-5.324-1.139-5.225-3.614.079-14.072,1.538-24.25,4.03,3.364-6.426,5.01-11.521,1.352-10.087-3.731,1.463-15.864,12.44-22.088,18.207-.12.1-.252.2-.364.3-.919.815-2.056,1.9-3.348,3.178l-.051.048h0c-10.329,10.223-34.8,38.511-42.593,46.424-8.785,8.918-17.9-7.548-24.186-16.8-3.983-5.865-12.885-18.343-12.885-18.343s-8.386,50.183,2.263,55.241" transform="translate(-423.297 -45.763)" fill="#ffa58f"/>
          <path id="Trazado_150554" data-name="Trazado 150554" d="M622.929,190.062l12.885-6.516-10.909-20.639Z" transform="translate(-425.538 -67.874)" fill="#2b244a"/>
          <path id="Trazado_150555" data-name="Trazado 150555" d="M569.205,217.513c1.552-21.467,5.068-71.032,5.068-79.589,0-10.982-8.186-22.562-23.361-21.763s-26.117,21.564-33.544,40.423C510.135,174.952,500.4,209.6,500.4,209.6s4.113,3.587,17.767,7.909Z" transform="translate(-374.486 -48.381)" fill="#2b244a"/>
          <path id="Trazado_150556" data-name="Trazado 150556" d="M540.444,232.94l7.452-2.4c.73-.236.418-1.392-.319-1.155l-7.452,2.4c-.731.236-.418,1.392.318,1.155" transform="translate(-390.865 -95.556)" fill="#8c75b5"/>
          <path id="Trazado_150557" data-name="Trazado 150557" d="M569.078,258.116h96.988c2.374-3.645,4.307-6.7,4.742-7.643-6.9-2.07-49.505-16.462-61.682-21.506a69.684,69.684,0,0,1-8.162-3.717,21.218,21.218,0,0,1-6.124-5.279,26.229,26.229,0,0,1-3.644-6.4,1.589,1.589,0,0,1-.319.158c-17.807,4.329-26.1,4.585-41.529,9.794,0,11.644,4.82,22.1,8,25.547a46.708,46.708,0,0,0,11.726,9.043" transform="translate(-394.881 -88.984)" fill="#ffa58f"/>
          <path id="Trazado_150558" data-name="Trazado 150558" d="M790.778,139.483A20.056,20.056,0,0,0,797.2,128.92c.177-.75-.978-1.07-1.155-.318a18.968,18.968,0,0,1-6.11,10.034c-.586.5.265,1.347.847.847" transform="translate(-495.035 -53.402)" fill="#2b244a"/>
          <path id="Trazado_150559" data-name="Trazado 150559" d="M621.523,213.733c.313,5.107,4.39,8.605,8.565,10.926a137.45,137.45,0,0,0,15.031,6.96c9.848,4.007,19.971,7.284,30.027,10.722,4.919,1.682,9.835,3.374,14.758,5.041.732.248,1.046-.909.319-1.156q-12.932-4.38-25.846-8.813c-10.382-3.548-20.74-7.277-30.575-12.174-4.726-2.353-10.713-5.52-11.08-11.507-.047-.766-1.246-.771-1.2,0" transform="translate(-424.951 -88.81)" fill="#2b244a"/>
          <path id="Trazado_150560" data-name="Trazado 150560" d="M543.107,166.6q-1.327,15.368-2.689,30.733-.377,4.322-.751,8.644c-.067.768,1.132.764,1.2,0q1.328-15.367,2.689-30.733.378-4.322.751-8.644c.066-.768-1.132-.764-1.2,0" transform="translate(-390.846 -69.175)" fill="#8c75b5"/>
          <path id="Trazado_150561" data-name="Trazado 150561" d="M542.428,208.283c12.127-3.381,24.456-6.017,36.759-8.662q5.027-1.081,10.053-2.161c.753-.163.434-1.318-.319-1.156-12.306,2.664-24.64,5.213-36.868,8.227-3.326.82-6.644,1.677-9.945,2.6a.6.6,0,0,0,.319,1.155" transform="translate(-391.688 -81.782)" fill="#8c75b5"/>
          <path id="Trazado_150562" data-name="Trazado 150562" d="M588.35,72.533a44.115,44.115,0,0,0,20.417,8.221c8.851,1.2,11.543-5.7,11.073-8.7a193,193,0,0,0-5.879-22.974c-2.984-9.068-6.469-13.19-17.948-14S574.672,38.4,575.1,50.311s9.921,19.747,13.248,22.222" transform="translate(-405.605 -14.573)" fill="#ffa58f"/>
          <path id="Trazado_150563" data-name="Trazado 150563" d="M642.8,68.666s3.469,2.739,5.239,4.4c1.01.948.848,1.786.332,2.358a35.153,35.153,0,0,1-2.94,2.683l-4.427-2.892Z" transform="translate(-433.069 -28.609)" fill="#ffa58f"/>
          <path id="Trazado_150564" data-name="Trazado 150564" d="M640.246,70.5a1.466,1.466,0,0,0-1.37-.308,1.385,1.385,0,0,0-.833,1.3,4.8,4.8,0,0,0,.307,1.687,3.061,3.061,0,0,0,1.113,1.643c.965.584,1.831-.171,1.943-1.127a4.246,4.246,0,0,0-1.16-3.2" transform="translate(-431.833 -29.22)" fill="#2b244a"/>
          <path id="Trazado_150565" data-name="Trazado 150565" d="M638.964,63.966c-.03,2.078-2.024,1.2-3.934,2.474-1.755,1.168-3.112,1.4-3.449.316-.409-1.312.964-3.456,3.711-4.354,2.573-.839,3.694.048,3.672,1.563" transform="translate(-429.113 -25.864)" fill="#2b244a"/>
          <path id="Trazado_150566" data-name="Trazado 150566" d="M822.064,148.43a27.919,27.919,0,0,0-8.316,4.069,3.626,3.626,0,0,0-1.466,3.634,3.777,3.777,0,0,0,2.25,2.7,9.016,9.016,0,0,0,3.965.617c.765-.049.771-1.247,0-1.2a7.457,7.457,0,0,1-3.722-.617,2.467,2.467,0,0,1-1.1-3.294,5.218,5.218,0,0,1,1.845-1.625,23.386,23.386,0,0,1,2.1-1.189,37.1,37.1,0,0,1,4.762-1.944c.726-.247.414-1.4-.319-1.155" transform="translate(-504.399 -61.827)" fill="#2b244a"/>
          <path id="Trazado_150567" data-name="Trazado 150567" d="M816.569,135.423a46.911,46.911,0,0,0-8.48,4.108c-1.259.743-2.8,1.538-3.54,2.85a3.661,3.661,0,0,0,.965,4.529,7.453,7.453,0,0,0,4.9,1.157c.765-.047.771-1.246,0-1.2a7.249,7.249,0,0,1-3.851-.685,2.428,2.428,0,0,1-.562-3.766,13.329,13.329,0,0,1,3.1-2.092q1.9-1.1,3.881-2.061a33.975,33.975,0,0,1,3.9-1.686c.725-.248.414-1.406-.319-1.155" transform="translate(-501.034 -56.408)" fill="#2b244a"/>
          <path id="Trazado_150568" data-name="Trazado 150568" d="M606.913,26.517c-.142-1.95-1.408-4.294-6.506-4.709-8.985-.732-18.5,9.432-18.5,9.432-8.341,1.863-11.864,10.476-9.983,17.887,2.795,11.017,12.659,16.1,12.659,16.1l-.8,4.306c5.737-1.654,9.935-7.147,10.366-10.212s3.743-3.344,3.743-3.344,2.783-2.934.872-5.241c-1.562-1.886-1.979-3.778-1.377-5.336,2.57.057,6.445-.078,7.926-1.3a2.668,2.668,0,0,0,1.026-2.657c3.495-.519,3.741-.513,5.09-.663,3.951-4.385,1.691-10.966-4.518-14.267" transform="translate(-404.08 -9.07)" fill="#2b244a"/>
          <path id="Trazado_150569" data-name="Trazado 150569" d="M616.224,82.678a6.1,6.1,0,1,1-6.1-6.1,6.1,6.1,0,0,1,6.1,6.1" transform="translate(-417.663 -31.906)" fill="#ffa58f"/>
          <path id="Trazado_150570" data-name="Trazado 150570" d="M645.69,87.033c-2.48.372-4.876.719-5.211.79a10.115,10.115,0,0,0,5.946,2.514c-.178-.972-.444-2.084-.734-3.3" transform="translate(-432.849 -36.261)" fill="#fff"/>
          <path id="Trazado_150571" data-name="Trazado 150571" d="M614.638,105.568a15.654,15.654,0,0,0,5.776,3.742.6.6,0,0,0,.737-.419.613.613,0,0,0-.418-.737,14.294,14.294,0,0,1-5.247-3.434c-.538-.554-1.385.294-.847.847" transform="translate(-422.011 -43.556)" fill="#37374c"/>
          <path id="Trazado_150572" data-name="Trazado 150572" d="M610.249,85.955a3.028,3.028,0,0,1,2.426-4.35.616.616,0,0,0,.6-.6.6.6,0,0,0-.6-.6,4.219,4.219,0,0,0-3.46,6.152.605.605,0,0,0,.82.215.611.611,0,0,0,.215-.82" transform="translate(-419.632 -33.5)" fill="#37374c"/>
          <path id="Trazado_150573" data-name="Trazado 150573" d="M624.84,164.549c-.481,8.575-1.156,17.139-1.638,25.714-.043.771,1.155.768,1.2,0,.481-8.575,1.156-17.139,1.638-25.714.043-.77-1.155-.768-1.2,0" transform="translate(-425.651 -68.318)" fill="#8c75b5"/>
          <path id="Trazado_150574" data-name="Trazado 150574" d="M585.6,117.488a31.918,31.918,0,0,1,18.791,8.172c.57.518,1.419-.327.848-.847A33.248,33.248,0,0,0,585.6,116.29c-.77-.054-.766,1.145,0,1.2" transform="translate(-409.746 -48.45)" fill="#8c75b5"/>
          <path id="Trazado_150575" data-name="Trazado 150575" d="M575.206,70.4a11.268,11.268,0,0,0,4.9,3.352,5.121,5.121,0,0,0,5.1-1.432c1.3-1.329,2.44-3.771,4.572-3.816,1.08-.023,2.076.565,3.165.555a5.089,5.089,0,0,0,2.593-.79c1.955-1.21,2.829-3.349,3.593-5.415.268-.725-.89-1.037-1.155-.319-.787,2.129-1.818,4.643-4.278,5.229-1.251.3-2.316-.346-3.538-.446a4.236,4.236,0,0,0-2.955,1c-1.668,1.3-2.6,3.864-4.83,4.35-2.56.558-4.68-1.473-6.329-3.116a.6.6,0,0,0-.847.847" transform="translate(-405.58 -25.887)" fill="#8c75b5"/>
          <path id="Trazado_150576" data-name="Trazado 150576" d="M601.171,44.664a8.223,8.223,0,0,0,7.233,1.877,4.648,4.648,0,0,0,3.014-1.839c.769-1.266.351-2.763-.114-4.054l-.88.677a4.951,4.951,0,0,0,7.241-1.56.6.6,0,0,0-1.034-.6,3.76,3.76,0,0,1-5.6,1.131.6.6,0,0,0-.88.677c.37,1.026.9,2.4.073,3.347a4.312,4.312,0,0,1-2.613,1.163,6.984,6.984,0,0,1-5.591-1.66c-.576-.508-1.427.336-.847.847" transform="translate(-416.391 -16.194)" fill="#8c75b5"/>
          <path id="Trazado_150577" data-name="Trazado 150577" d="M613.819,78.263a7.251,7.251,0,1,1-7.251-7.251,7.251,7.251,0,0,1,7.251,7.251" transform="translate(-415.7 -29.586)" fill="#ffeae0"/>
          <path id="Trazado_150578" data-name="Trazado 150578" d="M592.8,33.79q3.837,14.738,9.123,29.043c.265.718,1.423.407,1.155-.318q-5.28-14.286-9.123-29.044a.6.6,0,0,0-1.155.319" transform="translate(-412.976 -13.768)" fill="#ffeae0"/>
          <path id="Trazado_150579" data-name="Trazado 150579" d="M597.262,30.325q3.92,15.058,9.323,29.682c.265.717,1.423.407,1.155-.319q-5.394-14.6-9.323-29.682a.6.6,0,0,0-1.155.319" transform="translate(-414.834 -12.325)" fill="#ffeae0"/>
          <path id="Trazado_150580" data-name="Trazado 150580" d="M610.189,74.812l-5.418,1.79-2.846-8.612a.482.482,0,0,1,.307-.61l4.5-1.488a.483.483,0,0,1,.61.307Z" transform="translate(-416.776 -27.443)" fill="#ffeae0"/>
          <path id="Trazado_150581" data-name="Trazado 150581" d="M604.232,72.836a7.874,7.874,0,0,1,1.783-.929,8.415,8.415,0,0,1,1.009-.291c.16-.035.32-.066.482-.092s.276-.037.467-.054a.614.614,0,0,0,.6-.6.6.6,0,0,0-.6-.6,8.993,8.993,0,0,0-4.346,1.529.614.614,0,0,0-.215.82.6.6,0,0,0,.82.215" transform="translate(-417.373 -29.278)" fill="#2b244a"/>
          <path id="Trazado_150582" data-name="Trazado 150582" d="M467.278,243.548c-6.656-14.47-12.513-27.056-16.294-33.791C438.206,187,431.816,178.61,422.831,178.61c-6.39,0-8.985,2.8-13.178,14.775-2.095,5.985-3.524,26.956-4.364,50.163Z" transform="translate(-334.86 -74.416)" fill="#8498d9"/>
          <path id="Trazado_150583" data-name="Trazado 150583" d="M448.8,198.509c3.493,6.932,6.741,13.984,9.938,21.057,2.368,5.236,4.767,10.462,7.121,15.706h1.287c-1.8-4.008-3.633-8.007-5.437-12.015-3.169-7.041-6.349-14.079-9.73-21.021-6.671-13.694-14.184-27.073-23.805-38.936q-1.8-2.221-3.7-4.361c-.512-.578-1.357.272-.847.847,10.258,11.586,18.231,24.949,25.171,38.724" transform="translate(-342.435 -66.14)" fill="#2b244a"/>
          <path id="Trazado_150584" data-name="Trazado 150584" d="M681.344,67.18h47.55a3.4,3.4,0,0,0,3.392-3.392V52.726a3.4,3.4,0,0,0-3.392-3.392h-47.55a3.4,3.4,0,0,0-3.392,3.392V63.788a3.4,3.4,0,0,0,3.392,3.392" transform="translate(-448.462 -20.555)" fill="#ffeae0"/>
          <path id="Trazado_150585" data-name="Trazado 150585" d="M677.952,67.986v9.45a1.2,1.2,0,0,0,1.626,1.119l9.412-3.6Z" transform="translate(-448.462 -28.326)" fill="#ffeae0"/>
          <path id="Trazado_150586" data-name="Trazado 150586" d="M742.188,62.734a1.106,1.106,0,0,1,0,2.212,1.106,1.106,0,0,1,0-2.212" transform="translate(-474.781 -26.138)" fill="#2b244a"/>
          <path id="Trazado_150587" data-name="Trazado 150587" d="M723.758,62.734a1.106,1.106,0,0,1,0,2.212,1.106,1.106,0,0,1,0-2.212" transform="translate(-467.102 -26.138)" fill="#2b244a"/>
          <path id="Trazado_150588" data-name="Trazado 150588" d="M705.328,62.734a1.106,1.106,0,0,1,0,2.212,1.106,1.106,0,0,1,0-2.212" transform="translate(-459.423 -26.138)" fill="#2b244a"/>
          <path id="Trazado_150589" data-name="Trazado 150589" d="M882.609,117.847h4.042s6.411,13.959,8.122,13.959c1.268,0,.314-13.959.314-13.959h95.891a1.709,1.709,0,0,0,1.7-1.908L984.7,47.878a1.71,1.71,0,0,0-1.7-1.511H874.638a1.71,1.71,0,0,0-1.7,1.908l7.972,68.061a1.709,1.709,0,0,0,1.7,1.51" transform="translate(-529.697 -19.318)" fill="#ffc37a"/>
          <path id="Trazado_150590" data-name="Trazado 150590" d="M965.219,136.535H894.958s6.463-22.522,11.4-30.966a25.768,25.768,0,0,1,12.625-10.533c9.961-3.595,21.573-4.3,32.079-3.542,4.906.352,9.995,1.07,14.5,3.1,5.564,2.506,9.079,6.852,11.225,12.771,3.34,9.214,3.821,16.979,4.389,29.171Z" transform="translate(-538.876 -38.006)" fill="#ffeae0"/>
          <path id="Trazado_150591" data-name="Trazado 150591" d="M950.51,93.314a23.071,23.071,0,0,0-5.49,8.036c-.131.337.247.6.54.54,1.164-.235,2.3-.572,3.437-.913a10.509,10.509,0,0,1,1.689-.484c.41-.048.5.131.732.418q.236.294.47.589c1.293,1.628,2.557,3.3,4,4.8.392.408,1.012-.213.621-.62-1.6-1.663-2.978-3.525-4.418-5.323-.3-.38-.606-.772-1.138-.782a6.153,6.153,0,0,0-1.723.421c-1.293.382-2.578.785-3.9,1.052l.54.54a22.049,22.049,0,0,1,5.264-7.649c.4-.4-.218-1.018-.621-.621" transform="translate(-559.722 -38.825)" fill="#2b244a"/>
          <path id="Trazado_150592" data-name="Trazado 150592" d="M974.156,91.5a77.691,77.691,0,0,1,3.995,9.212l.54-.54c-1.547-.312-3.039-.815-4.556-1.241a2.141,2.141,0,0,0-1.7-.037,6.284,6.284,0,0,0-1.136.767c-2.3,1.9-4.816,3.5-7.041,5.5-.421.378.2,1,.621.621,2.068-1.858,4.376-3.389,6.554-5.107a10.36,10.36,0,0,1,1.133-.847A1.906,1.906,0,0,1,973,99.6a3.214,3.214,0,0,1,1.281.292c1.388.4,2.762.848,4.181,1.134.3.059.67-.2.54-.54a79.541,79.541,0,0,0-4.083-9.422c-.269-.5-1.027-.054-.758.443" transform="translate(-567.693 -37.849)" fill="#2b244a"/>
          <path id="Trazado_150593" data-name="Trazado 150593" d="M964.47,95.518q-.968,16.468-.841,32.978.031,4.639.153,9.275a.439.439,0,0,0,.877,0q-.431-16.491.233-32.988.183-4.634.455-9.265c.033-.564-.845-.562-.878,0" transform="translate(-567.482 -39.621)" fill="#2b244a"/>
          <path id="Trazado_150594" data-name="Trazado 150594" d="M940.435,39.082a7.156,7.156,0,0,0-4.1,1.827,6.325,6.325,0,0,0-1.957,3.577,4.127,4.127,0,0,0,.207,2.313c.65,1.521,2.394,2.448,4.031,3.27Z" transform="translate(-555.269 -16.283)" fill="#2b244a"/>
          <path id="Trazado_150595" data-name="Trazado 150595" d="M961.189,41.307c-1.428-7.748-7.48-9.142-14.516-6.889s-8.622,5.436-9.189,11.735a132.405,132.405,0,0,0-.39,15.706c.134,2.007,2.795,6.051,8.139,3.946a27.622,27.622,0,0,0,11.4-8.2c1.721-2.1,5.985-8.554,4.556-16.3" transform="translate(-556.396 -13.934)" fill="#e0785e"/>
          <path id="Trazado_150596" data-name="Trazado 150596" d="M955.086,74.924l-.1,5.71s3.323,13.624,5.794,13.624c1.776,0,8.155-14.823,8.155-14.823L966.8,62.787Z" transform="translate(-563.884 -26.16)" fill="#e0785e"/>
          <path id="Trazado_150597" data-name="Trazado 150597" d="M940.547,57.629c-.518,1.124-1.392.166-2.739.4-1.237.213-2.032.012-1.954-.66.094-.813,1.359-1.649,3.072-1.474,1.6.164,2,.918,1.621,1.737" transform="translate(-555.913 -23.277)" fill="#2b244a"/>
          <path id="Trazado_150598" data-name="Trazado 150598" d="M947.409,57.8c.372,1.18,1.36.34,2.667.74,1.2.368,2.014.269,2.022-.408.009-.818-1.14-1.807-2.861-1.85-1.611-.04-2.1.657-1.828,1.518" transform="translate(-560.7 -23.448)" fill="#2b244a"/>
          <path id="Trazado_150599" data-name="Trazado 150599" d="M942.457,63.305a7.951,7.951,0,0,1-.384,1.544c-.177.5-.437.954-.627,1.445a2,2,0,0,0-.082,1.371,1.353,1.353,0,0,0,.934.909c.549.131.783-.716.233-.846a.558.558,0,0,1-.378-.549,2.286,2.286,0,0,1,.337-1.083,8.891,8.891,0,0,0,.813-2.557A.454.454,0,0,0,943,63a.443.443,0,0,0-.54.307" transform="translate(-558.174 -26.242)" fill="#2b244a"/>
          <path id="Trazado_150600" data-name="Trazado 150600" d="M962.676,42.544a8.352,8.352,0,0,0-.361-5.3,4.648,4.648,0,0,0-1.392-1.717c-.338-.246-.741-.395-.843-.838a6.717,6.717,0,0,1,.011-1.252c-.037-1.412-.568-3.082-1.952-3.72a2.9,2.9,0,0,0-2.493.057,6.106,6.106,0,0,0-8.1.6c-2.13-1.339-4.878.185-6.351,1.881a27.307,27.307,0,0,0-1.851,3.013c-.026.017-.234.366-.258.39-1.126,1.1-1.255,1.621-.677,3.231.6,1.677,2.808,1.673,4.233,1.292.9-.24,1.634-.77,2.5-1.066.653-.224.8.242,1.135.679a2.778,2.778,0,0,0,.753.691c1.385.863,2.966.454,4.321-.236a2.641,2.641,0,0,1,1.891.628,2.319,2.319,0,0,1,.594,2.307c-.338,1.8-1.63,4.1-1.022,6.014a8.082,8.082,0,0,0,.385,2.592,5.328,5.328,0,0,0,4.307,2.77c.563,0,2.472-4.027,3.077-5.149a45.634,45.634,0,0,0,2.1-6.866" transform="translate(-556.839 -11.881)" fill="#2b244a"/>
          <path id="Trazado_150601" data-name="Trazado 150601" d="M972.136,64.332l.262,7.595s-5.338-.447-6.469-3.542,6.207-4.053,6.207-4.053" transform="translate(-568.396 -26.803)" fill="#2b244a"/>
          <path id="Trazado_150602" data-name="Trazado 150602" d="M959.57,61.545a4.083,4.083,0,1,0,5.517-1.7,4.082,4.082,0,0,0-5.517,1.7" transform="translate(-565.598 -24.735)" fill="#e0785e"/>
          <path id="Trazado_150603" data-name="Trazado 150603" d="M952.23,58.2s-2.73,9.514-5.293,11.985c-3.2,3.088-8.443,2.5-10.218.527a7.111,7.111,0,0,0,.089,5.3c1.236,2.514,5.025,3.141,8.7,1.8,5.075-1.848,6.362-6.825,7.4-10.374s2.571-9.74,2.571-9.74Z" transform="translate(-556.073 -24.04)" fill="#2b244a"/>
          <path id="Trazado_150604" data-name="Trazado 150604" d="M928.232,139.034q-.37,8.577-.5,17.162a.439.439,0,0,0,.878,0q.144-8.583.5-17.162c.024-.565-.854-.564-.878,0" transform="translate(-552.529 -57.751)" fill="#2b244a"/>
          <path id="Trazado_150605" data-name="Trazado 150605" d="M974.352,138.465c3.815.019,7.634-.042,11.446.15.564.029.563-.849,0-.877-3.812-.193-7.631-.132-11.446-.151a.439.439,0,0,0,0,.878" transform="translate(-571.778 -57.324)" fill="#2b244a"/>
          <path id="Trazado_150606" data-name="Trazado 150606" d="M973.9,138.037c.027,1.7.042,3.4.07,5.094s.113,3.527,1.365,4.835a6.459,6.459,0,0,0,4.082,1.734,6.569,6.569,0,0,0,4.784-1.149c.442-.35-.182-.968-.621-.621a5.867,5.867,0,0,1-4.32.876,5.1,5.1,0,0,1-3.619-1.84c-.918-1.312-.783-3.073-.8-4.6-.02-1.444-.035-2.888-.059-4.331a.439.439,0,0,0-.877,0" transform="translate(-571.767 -57.335)" fill="#2b244a"/>
          <path id="Trazado_150607" data-name="Trazado 150607" d="M992.164,138.3a21.114,21.114,0,0,1-.1,5.094c-.2,1.521-.486,3.537-1.663,4.648-.411.389.21,1.009.621.621,1.271-1.2,1.638-3.245,1.87-4.894a21.734,21.734,0,0,0,.153-5.468c-.064-.555-.943-.561-.878,0" transform="translate(-578.584 -57.447)" fill="#2b244a"/>
          <path id="Trazado_150608" data-name="Trazado 150608" d="M950.123,63.5c.01-.009.081-.068.03-.027s.01-.007.02-.013c.04-.027.08-.054.122-.077s.086-.044.128-.066-.074.027-.016.006l.075-.028a2.212,2.212,0,0,1,.279-.071c.058-.012,0-.008-.021,0a.3.3,0,0,1,.08-.008c.048,0,.1-.006.145-.006s.086,0,.129,0l.08.007c.062,0-.082-.015-.021,0a2.431,2.431,0,0,1,.281.069l.075.027c.054.019.009,0-.016-.008a.444.444,0,0,1,.129.065c.042.023.083.049.123.076l.053.037c-.042-.033-.051-.04-.026-.019l.037.032a.439.439,0,0,0,.621-.621,2.256,2.256,0,0,0-2.926,0,.441.441,0,0,0,0,.621.45.45,0,0,0,.621,0" transform="translate(-561.548 -25.974)" fill="#2b244a"/>
          <path id="Trazado_150609" data-name="Trazado 150609" d="M937.693,63.032c.01-.009.081-.068.03-.027s.01-.007.02-.013c.04-.027.08-.054.122-.077s.086-.044.128-.066-.074.027-.016.006l.075-.028a2.2,2.2,0,0,1,.279-.071c.058-.012,0-.008-.021,0a.332.332,0,0,1,.08-.008c.048,0,.1-.006.145-.006s.086,0,.129,0l.08.007c.062,0-.082-.015-.021,0a2.422,2.422,0,0,1,.281.069l.075.027c.054.019.009,0-.016-.007a.429.429,0,0,1,.129.064c.042.023.083.049.123.076l.052.037q-.063-.05-.026-.019l.037.032a.439.439,0,1,0,.621-.621,2.256,2.256,0,0,0-2.926,0,.441.441,0,0,0,0,.621.45.45,0,0,0,.621,0" transform="translate(-556.369 -25.779)" fill="#2b244a"/>
          <path id="Trazado_150610" data-name="Trazado 150610" d="M946.417,74.567c-.771,3.083-4.641,3.03-5.626-.086Z" transform="translate(-557.972 -31.032)" fill="#fff"/>
          <path id="Trazado_150611" data-name="Trazado 150611" d="M1004.089,118.525a5.327,5.327,0,0,1-2.333,4.415c-.469.312-.029,1.072.443.758a6.238,6.238,0,0,0,2.768-5.174.439.439,0,0,0-.878,0" transform="translate(-583.289 -49.206)" fill="#8498d9"/>
          <path id="Trazado_150612" data-name="Trazado 150612" d="M997.289,103.8a5.33,5.33,0,0,1,1.093-4.873c.37-.423-.253-1.042-.626-.615a6.238,6.238,0,0,0-1.314,5.719.439.439,0,0,0,.847-.23" transform="translate(-581.067 -40.899)" fill="#8498d9"/>
          <path id="Trazado_150613" data-name="Trazado 150613" d="M941.451,138.584a5.329,5.329,0,0,1-2.494-4.327c-.014-.562-.891-.6-.877-.029a6.237,6.237,0,0,0,2.9,5.1.439.439,0,0,0,.468-.743" transform="translate(-556.842 -55.754)" fill="#8498d9"/>
          <path id="Trazado_150614" data-name="Trazado 150614" d="M914.294,150.681a5.326,5.326,0,0,1,3.328,3.723c.129.547,1,.4.865-.152a6.237,6.237,0,0,0-3.889-4.394.439.439,0,0,0-.3.823" transform="translate(-546.817 -62.425)" fill="#8498d9"/>
          <path id="Trazado_150615" data-name="Trazado 150615" d="M1028.591,144.133a5.33,5.33,0,0,1-4.67-1.77c-.367-.426-1.068.1-.7.533A6.236,6.236,0,0,0,1028.7,145a.439.439,0,0,0-.108-.871" transform="translate(-592.273 -59.249)" fill="#8498d9"/>
          <path id="Trazado_150616" data-name="Trazado 150616" d="M981.047,122.449a5.329,5.329,0,0,1-4.67-1.771c-.367-.426-1.068.1-.7.533a6.236,6.236,0,0,0,5.475,2.108.439.439,0,0,0-.108-.871" transform="translate(-572.464 -50.214)" fill="#8498d9"/>
          <path id="Trazado_150617" data-name="Trazado 150617" d="M1023.646,120.178a5.326,5.326,0,0,1,4.6,1.943c.351.439,1.071-.064.717-.507a6.235,6.235,0,0,0-5.393-2.311.439.439,0,0,0,.076.874" transform="translate(-592.3 -49.696)" fill="#8498d9"/>
          <path id="Trazado_150618" data-name="Trazado 150618" d="M1002.206,159.445a5.327,5.327,0,0,0-4.6,1.943c-.351.44-1.071-.064-.717-.506a6.236,6.236,0,0,1,5.393-2.311.439.439,0,0,1-.076.874" transform="translate(-581.305 -66.057)" fill="#8498d9"/>
          <path id="Trazado_150619" data-name="Trazado 150619" d="M953.026,116.979a5.327,5.327,0,0,1,1.293,4.824c-.131.547.708.806.84.254a6.237,6.237,0,0,0-1.489-5.675.439.439,0,0,0-.644.6" transform="translate(-563.02 -48.432)" fill="#8498d9"/>
          <path id="Trazado_150620" data-name="Trazado 150620" d="M945.942,159.679a5.329,5.329,0,0,1,4.918.872c.439.351,1.03-.3.586-.653a6.236,6.236,0,0,0-5.772-1.054.439.439,0,0,0,.268.836" transform="translate(-559.884 -66.056)" fill="#8498d9"/>
          <path id="Trazado_150621" data-name="Trazado 150621" d="M927.04,116.12a5.329,5.329,0,0,1-4.384,2.392c-.562,0-.617.877-.05.876a6.236,6.236,0,0,0,5.165-2.783.439.439,0,0,0-.732-.485" transform="translate(-550.229 -48.299)" fill="#8498d9"/>
          <path id="Trazado_150622" data-name="Trazado 150622" d="M965.973,51.7a2.806,2.806,0,0,0,4.97.307l-.6.158a1.934,1.934,0,0,0,2.911-1.205c.089-.552-.757-.79-.847-.233a1.055,1.055,0,0,1-1.622.681.445.445,0,0,0-.6.157,1.987,1.987,0,0,1-1.855.919,2.022,2.022,0,0,1-1.6-1.226c-.229-.515-.986-.069-.758.443" transform="translate(-568.446 -21.001)" fill="#8c75b5"/>
          <path id="Trazado_150623" data-name="Trazado 150623" d="M951.644,41.211a6.5,6.5,0,0,1,.9-2.331,4.74,4.74,0,0,1,.8-1c.374-.335.779-.216,1.235-.152,1.7.236,3.066-.958,4.187-2.072a.439.439,0,0,0-.621-.621,7.817,7.817,0,0,1-1.993,1.573,2.566,2.566,0,0,1-1.156.28,6.015,6.015,0,0,0-1.474-.082c-.794.181-1.366,1.034-1.769,1.682a7.168,7.168,0,0,0-.955,2.49c-.1.552.745.789.847.233" transform="translate(-562.137 -14.544)" fill="#8c75b5"/>
          <path id="Trazado_150624" data-name="Trazado 150624" d="M966.478,41.807a4.874,4.874,0,0,1,3.78-1.857.439.439,0,0,0,0-.878,5.708,5.708,0,0,0-4.4,2.114.453.453,0,0,0,0,.621.442.442,0,0,0,.621,0" transform="translate(-568.364 -16.279)" fill="#8c75b5"/>
          <path id="Trazado_150625" data-name="Trazado 150625" d="M1010.118,139.887q.424,8.281.5,16.576a.439.439,0,0,0,.877,0q-.073-8.292-.5-16.576c-.029-.562-.907-.565-.878,0" transform="translate(-586.856 -58.106)" fill="#2b244a"/>
          <path id="Trazado_150626" data-name="Trazado 150626" d="M1056.609,52.838a2.633,2.633,0,1,1-2.633-2.633,2.633,2.633,0,0,1,2.633,2.633" transform="translate(-604.032 -20.917)" fill="#fff"/>
          <path id="Trazado_150627" data-name="Trazado 150627" d="M1041.563,52.838a2.633,2.633,0,1,1-2.633-2.633,2.634,2.634,0,0,1,2.633,2.633" transform="translate(-597.763 -20.917)" fill="#fff"/>
          <path id="Trazado_150628" data-name="Trazado 150628" d="M885.942,88.231H852.918a3.4,3.4,0,0,0-3.392,3.392v6.292a3.4,3.4,0,0,0,3.392,3.392h33.025a3.4,3.4,0,0,0,3.392-3.392V91.623a3.4,3.4,0,0,0-3.392-3.392" transform="translate(-519.947 -36.761)" fill="#ffeae0"/>
          <path id="Trazado_150629" data-name="Trazado 150629" d="M911.99,91.407V84.483a.878.878,0,0,0-1.192-.82l-6.9,2.64Z" transform="translate(-542.603 -34.833)" fill="#ffeae0"/>
          <path id="Trazado_150630" data-name="Trazado 150630" d="M869.611,98.049a.811.811,0,0,0,0,1.621.811.811,0,0,0,0-1.621" transform="translate(-527.989 -40.851)" fill="#2b244a"/>
          <path id="Trazado_150631" data-name="Trazado 150631" d="M883.114,98.049a.811.811,0,0,0,0,1.621.811.811,0,0,0,0-1.621" transform="translate(-533.615 -40.851)" fill="#2b244a"/>
          <path id="Trazado_150632" data-name="Trazado 150632" d="M896.617,98.049a.811.811,0,0,0,0,1.621.811.811,0,0,0,0-1.621" transform="translate(-539.241 -40.851)" fill="#2b244a"/>
        </g>
      </g>
    </g>
  </g>
</svg>
