<svg xmlns="http://www.w3.org/2000/svg" xmlns:xlink="http://www.w3.org/1999/xlink" width="1030" height="274.489" viewBox="0 0 1030 274.489">
  <defs>
    <clipPath id="clip-path">
      <path id="Trazado_161107" data-name="Trazado 161107" d="M0,0H1030V274.489H0Z" fill="#ffd947"/>
    </clipPath>
    <clipPath id="clip-path-2">
      <rect id="Rectángulo_42531" data-name="Rectángulo 42531" width="896.713" height="467.526" fill="none"/>
    </clipPath>
    <clipPath id="clip-path-3">
      <rect id="Rectángulo_42523" data-name="Rectángulo 42523" width="212.453" height="260.984" fill="none"/>
    </clipPath>
    <clipPath id="clip-path-4">
      <path id="Trazado_161220" data-name="Trazado 161220" d="M494.5,194.157a88.1,88.1,0,1,1-88.1-88.1,88.1,88.1,0,0,1,88.1,88.1" transform="translate(-318.309 -106.059)" fill="none"/>
    </clipPath>
  </defs>
  <g id="Grupo_169368" data-name="Grupo 169368" transform="translate(-730 -7255.604)">
    <path id="Trazado_156666" data-name="Trazado 156666" d="M0,0H1030V274.489H0Z" transform="translate(730 7255.604)" fill="#3c3fa7"/>
    <g id="Enmascarar_grupo_219" data-name="Enmascarar grupo 219" transform="translate(730 7255.604)" clip-path="url(#clip-path)">
      <g id="Grupo_169379" data-name="Grupo 169379" transform="translate(85 -69.519)">
        <g id="Grupo_169380" data-name="Grupo 169380">
          <g id="Grupo_169377" data-name="Grupo 169377">
            <g id="Grupo_169376" data-name="Grupo 169376" clip-path="url(#clip-path-2)">
              <path id="Trazado_161197" data-name="Trazado 161197" d="M131.724,311.122a104.324,104.324,0,0,1,21.331,4.7l0-.01.281.1c.255.086.509.176.764.264,38.713,13.814,56.491,11.223,71.712,6.548,41.106-12.625,65.477-66.974,132.051-56.453,28.238,4.461,50.957,10.528,68.663,22.873l-.025-.054c.123.1.248.191.371.295,2.539,1.781,5.014,3.594,7.354,5.46,34.627,22.6,69.12-6.86,79.024-13.534.727-.528,1.487-4.719,2.223-5.241.4-.295.617-.468.617-.468l0,.035c43.386-30.579,112.395-61.554,178.92-53.949,114.3,13.066,160.306,142.7,160.306,142.7H1.161c13.342-30.655,66.71-60.56,130.563-53.261" transform="translate(1.762 10.006)" fill="#6b8dfc"/>
              <path id="Trazado_161198" data-name="Trazado 161198" d="M104.778,113.08h67.346a2.838,2.838,0,0,0,2.837-2.838V91.52a2.838,2.838,0,0,0-2.837-2.838H104.778a2.838,2.838,0,0,0-2.837,2.838v18.721a2.838,2.838,0,0,0,2.837,2.838" transform="translate(47.517 41.337)" fill="#8155ff"/>
              <line id="Línea_624" data-name="Línea 624" x2="47.832" transform="translate(163.759 139.493)" fill="none" stroke="#fff" stroke-miterlimit="10" stroke-width="0.624"/>
              <line id="Línea_625" data-name="Línea 625" x2="14.079" transform="translate(163.759 144.942)" fill="none" stroke="#fff" stroke-miterlimit="10" stroke-width="0.624"/>
              <path id="Trazado_161199" data-name="Trazado 161199" d="M150.289,103.108v11.034l-14.065-11.034Z" transform="translate(63.497 48.061)" fill="#8155ff"/>
              <path id="Trazado_161200" data-name="Trazado 161200" d="M580.569,194.813a8.181,8.181,0,1,1-8.181-8.3A8.238,8.238,0,0,1,580.569,194.813Z" transform="translate(262.991 86.94)" fill="none" stroke="#fff" stroke-miterlimit="10" stroke-width="1.089"/>
              <path id="Trazado_161201" data-name="Trazado 161201" d="M23.915,231.616a11.768,11.768,0,0,1-11.686,11.849,11.851,11.851,0,0,1,0-23.7A11.769,11.769,0,0,1,23.915,231.616Z" transform="translate(0.254 102.438)" fill="none" stroke="#fff" stroke-miterlimit="10" stroke-width="1.089"/>
              <path id="Trazado_161202" data-name="Trazado 161202" d="M314.692,60.883a4.452,4.452,0,1,1-4.451-4.514A4.482,4.482,0,0,1,314.692,60.883Z" transform="translate(142.536 26.275)" fill="none" stroke="#fff" stroke-miterlimit="10" stroke-width="1.089"/>
              <path id="Trazado_161203" data-name="Trazado 161203" d="M50.49,52.879H241.2s-.921-7.575-22.112-13.635-36.392,9.468-60.346,0-36.66-23.052-67.525-15.478S50.49,52.879,50.49,52.879Z" transform="translate(23.535 10.049)" fill="none" stroke="#fafafa" stroke-linecap="round" stroke-linejoin="round" stroke-width="1.103"/>
              <path id="Trazado_161204" data-name="Trazado 161204" d="M462.836,94.8h98.626s-.477-4.765-11.436-8.577-18.819,5.957-31.206,0-18.958-14.5-34.92-9.735A33.271,33.271,0,0,0,462.836,94.8Z" transform="translate(215.739 35.005)" fill="none" stroke="#fafafa" stroke-linecap="round" stroke-linejoin="round" stroke-width="1.103"/>
              <path id="Trazado_161205" data-name="Trazado 161205" d="M448.02,32.327A32.327,32.327,0,1,1,415.693,0,32.326,32.326,0,0,1,448.02,32.327" transform="translate(178.695)" fill="#fdb9b9"/>
              <rect id="Rectángulo_42511" data-name="Rectángulo 42511" width="335.602" height="336.672" transform="translate(240.828 128.784)" fill="#fff"/>
              <path id="Trazado_161206" data-name="Trazado 161206" d="M499.863,57.773v52.961h-335.6V57.773a19.049,19.049,0,0,1,19.049-19.048h297.5a19.049,19.049,0,0,1,19.049,19.048" transform="translate(76.566 18.051)" fill="#8155ff"/>
              <path id="Trazado_161207" data-name="Trazado 161207" d="M346.921,66.172a15.786,15.786,0,1,0,15.786-15.786,15.786,15.786,0,0,0-15.786,15.786" transform="translate(161.708 23.486)" fill="#2b4183"/>
              <path id="Trazado_161208" data-name="Trazado 161208" d="M360.565,83.944h0a9.048,9.048,0,0,0,9.047-9.047V34.025a9.047,9.047,0,0,0-18.095,0V74.9a9.048,9.048,0,0,0,9.047,9.047" transform="translate(163.851 11.643)" fill="#ffcb2d"/>
              <path id="Trazado_161209" data-name="Trazado 161209" d="M270.923,66.172a15.786,15.786,0,1,0,15.786-15.786,15.786,15.786,0,0,0-15.786,15.786" transform="translate(126.284 23.486)" fill="#2b4183"/>
              <path id="Trazado_161210" data-name="Trazado 161210" d="M284.566,83.944h0a9.048,9.048,0,0,0,9.047-9.047V34.025a9.047,9.047,0,1,0-18.095,0V74.9a9.048,9.048,0,0,0,9.047,9.047" transform="translate(128.426 11.643)" fill="#ffcb2d"/>
              <path id="Trazado_161211" data-name="Trazado 161211" d="M194.924,66.172A15.786,15.786,0,1,0,210.71,50.386a15.786,15.786,0,0,0-15.786,15.786" transform="translate(90.859 23.486)" fill="#2b4183"/>
              <path id="Trazado_161212" data-name="Trazado 161212" d="M208.568,83.944h0a9.048,9.048,0,0,0,9.047-9.047V34.025a9.047,9.047,0,0,0-18.095,0V74.9a9.048,9.048,0,0,0,9.047,9.047" transform="translate(93.001 11.643)" fill="#ffcb2d"/>
              <rect id="Rectángulo_42512" data-name="Rectángulo 42512" width="63.81" height="63.81" transform="translate(463.025 182.889)" fill="none" stroke="#f0e0df" stroke-miterlimit="10" stroke-width="2.213"/>
              <rect id="Rectángulo_42513" data-name="Rectángulo 42513" width="63.81" height="63.81" transform="translate(378.128 182.889)" fill="none" stroke="#f0e0df" stroke-miterlimit="10" stroke-width="2.213"/>
              <rect id="Rectángulo_42514" data-name="Rectángulo 42514" width="63.81" height="63.81" transform="translate(293.231 182.889)" fill="none" stroke="#f0e0df" stroke-miterlimit="10" stroke-width="2.213"/>
              <rect id="Rectángulo_42515" data-name="Rectángulo 42515" width="63.81" height="63.81" transform="translate(463.025 263.888)" fill="none" stroke="#f0e0df" stroke-miterlimit="10" stroke-width="2.213"/>
              <rect id="Rectángulo_42516" data-name="Rectángulo 42516" width="63.81" height="63.81" transform="translate(378.128 263.888)" fill="none" stroke="#f0e0df" stroke-miterlimit="10" stroke-width="2.213"/>
              <rect id="Rectángulo_42517" data-name="Rectángulo 42517" width="63.81" height="63.81" transform="translate(293.231 263.888)" fill="#f88aa0"/>
              <line id="Línea_626" data-name="Línea 626" x2="17.692" y2="18.236" transform="translate(316.29 286.674)" fill="none" stroke="#fff" stroke-miterlimit="10" stroke-width="2.017"/>
              <line id="Línea_627" data-name="Línea 627" x1="17.692" y2="18.236" transform="translate(316.29 286.674)" fill="none" stroke="#fff" stroke-miterlimit="10" stroke-width="2.017"/>
              <rect id="Rectángulo_42518" data-name="Rectángulo 42518" width="63.81" height="63.81" transform="translate(463.025 344.886)" fill="none" stroke="#f0e0df" stroke-miterlimit="10" stroke-width="2.213"/>
              <rect id="Rectángulo_42519" data-name="Rectángulo 42519" width="63.81" height="63.81" transform="translate(378.128 344.886)" fill="none" stroke="#f0e0df" stroke-miterlimit="10" stroke-width="2.213"/>
              <rect id="Rectángulo_42520" data-name="Rectángulo 42520" width="63.81" height="63.81" transform="translate(293.231 344.886)" fill="none" stroke="#f0e0df" stroke-miterlimit="10" stroke-width="2.213"/>
              <rect id="Rectángulo_42521" data-name="Rectángulo 42521" width="31.054" height="20.449" transform="translate(539.617 126.997)" fill="#ffa80a"/>
              <path id="Trazado_161213" data-name="Trazado 161213" d="M408.077,95.563H367.458a8.375,8.375,0,1,1,0-16.75h40.619a8.375,8.375,0,0,1,0,16.75" transform="translate(167.377 36.737)" fill="#ffcb2d"/>
              <rect id="Rectángulo_42522" data-name="Rectángulo 42522" width="24.759" height="17.464" transform="translate(462.341 175.531) rotate(-45)" fill="#ffa80a"/>
              <path id="Trazado_161214" data-name="Trazado 161214" d="M342.259,110.716,317.8,135.174a6.311,6.311,0,1,1-8.926-8.926l24.458-24.458a6.311,6.311,0,0,1,8.926,8.926" transform="translate(143.112 46.585)" fill="#ffcb2d"/>
              <path id="Trazado_161215" data-name="Trazado 161215" d="M516.726,199.517A104.958,104.958,0,1,1,411.767,94.559,104.958,104.958,0,0,1,516.726,199.517" transform="translate(143.011 44.076)" fill="#f67b91"/>
              <path id="Trazado_161216" data-name="Trazado 161216" d="M509.283,197.722A99.312,99.312,0,1,1,409.971,98.41a99.313,99.313,0,0,1,99.312,99.312" transform="translate(144.806 45.871)" fill="#f88aa0"/>
              <path id="Trazado_161217" data-name="Trazado 161217" d="M494.5,194.156a88.1,88.1,0,1,1-88.1-88.1,88.1,88.1,0,0,1,88.1,88.1" transform="translate(148.371 49.437)" fill="#f6f6f6"/>
              <g id="Grupo_169375" data-name="Grupo 169375" transform="translate(458.395 119.828)" opacity="0.71">
                <g id="Grupo_169374" data-name="Grupo 169374">
                  <g id="Grupo_169373" data-name="Grupo 169373" clip-path="url(#clip-path-3)">
                    <g id="Grupo_169372" data-name="Grupo 169372" transform="translate(8.285 35.668)">
                      <g id="Grupo_169371" data-name="Grupo 169371" clip-path="url(#clip-path-4)">
                        <path id="Trazado_161218" data-name="Trazado 161218" d="M312.659,128.2l133.53,206.917,60.327-51.88L374.4,98.036Z" transform="translate(-320.943 -109.799)" fill="#fff"/>
                        <path id="Trazado_161219" data-name="Trazado 161219" d="M361.2,85.954,494.727,292.871l7.76-25.94L370.374,81.731Z" transform="translate(-298.319 -117.399)" fill="#fff"/>
                      </g>
                    </g>
                  </g>
                </g>
              </g>
              <path id="Trazado_161221" data-name="Trazado 161221" d="M379.4,122.663a2.217,2.217,0,0,1-2.217-2.217v-5.2a2.217,2.217,0,0,1,4.434,0v5.2a2.217,2.217,0,0,1-2.217,2.217" transform="translate(175.815 52.685)" fill="#8054ff"/>
              <path id="Trazado_161222" data-name="Trazado 161222" d="M379.4,223.059a2.217,2.217,0,0,1-2.217-2.217v-5.2a2.217,2.217,0,1,1,4.434,0v5.2a2.217,2.217,0,0,1-2.217,2.217" transform="translate(175.815 99.482)" fill="#8054ff"/>
              <path id="Trazado_161223" data-name="Trazado 161223" d="M346.332,136.361a2.207,2.207,0,0,1-1.567-.649l-3.68-3.678a2.216,2.216,0,0,1,3.135-3.135l3.68,3.68a2.216,2.216,0,0,1-1.567,3.783" transform="translate(158.685 59.78)" fill="#8054ff"/>
              <path id="Trazado_161224" data-name="Trazado 161224" d="M417.323,207.353a2.207,2.207,0,0,1-1.567-.65l-3.68-3.678a2.216,2.216,0,0,1,3.135-3.135l3.68,3.678a2.217,2.217,0,0,1-1.567,3.784" transform="translate(191.776 92.871)" fill="#8054ff"/>
              <path id="Trazado_161225" data-name="Trazado 161225" d="M342.652,207.353a2.217,2.217,0,0,1-1.567-3.784l3.68-3.678a2.216,2.216,0,0,1,3.135,3.135l-3.68,3.678a2.2,2.2,0,0,1-1.567.65" transform="translate(158.685 92.871)" fill="#8054ff"/>
              <path id="Trazado_161226" data-name="Trazado 161226" d="M413.643,136.361a2.216,2.216,0,0,1-1.567-3.783l3.68-3.68a2.216,2.216,0,0,1,3.135,3.135l-3.68,3.678a2.2,2.2,0,0,1-1.567.649" transform="translate(191.776 59.78)" fill="#8054ff"/>
              <path id="Trazado_161227" data-name="Trazado 161227" d="M332.632,169.432h-5.2a2.216,2.216,0,1,1,0-4.432h5.2a2.216,2.216,0,1,1,0,4.432" transform="translate(151.589 76.91)" fill="#8054ff"/>
              <path id="Trazado_161228" data-name="Trazado 161228" d="M433.029,169.432h-5.2a2.216,2.216,0,1,1,0-4.432h5.2a2.216,2.216,0,1,1,0,4.432" transform="translate(198.387 76.91)" fill="#8054ff"/>
              <path id="Trazado_161229" data-name="Trazado 161229" d="M385.676,182.22h-10.59V136.311a5.295,5.295,0,0,1,10.59,0Z" transform="translate(174.836 61.07)" fill="#8054ff"/>
              <path id="Trazado_161230" data-name="Trazado 161230" d="M394.705,169.8a12.146,12.146,0,1,1-12.145-12.145A12.146,12.146,0,0,1,394.705,169.8" transform="translate(172.658 73.488)" fill="#2b4183"/>
              <path id="Trazado_161231" data-name="Trazado 161231" d="M103.377,171.784l19.181,84.589a22.824,22.824,0,0,1-8.106,21.093L57.184,322.25l1.059-41.238,28.6-23.344L57.184,169.454Z" transform="translate(26.655 78.986)" fill="#7041fd"/>
              <path id="Trazado_161232" data-name="Trazado 161232" d="M42.361,283.378l27.575-14.425L59.047,253.587,29.1,269.871l9.556,12.119Z" transform="translate(13.563 118.203)" fill="#fa849b"/>
              <path id="Trazado_161233" data-name="Trazado 161233" d="M38.863,260.285s4.659,17.079,18.076,16.126L62.111,317.1,22.523,266.9Z" transform="translate(10.498 121.325)" fill="#181f42"/>
              <rect id="Rectángulo_42524" data-name="Rectángulo 42524" width="6.038" height="63.931" transform="matrix(0.785, -0.619, 0.619, 0.785, 28.282, 391.963)" fill="#fff"/>
              <path id="Trazado_161234" data-name="Trazado 161234" d="M48.91,275.17a24,24,0,0,0-7.712-.777" transform="translate(19.203 127.887)" fill="none" stroke="#fff" stroke-linecap="round" stroke-linejoin="round" stroke-width="1.504"/>
              <path id="Trazado_161235" data-name="Trazado 161235" d="M49.693,279.232a24.007,24.007,0,0,0-7.713-.777" transform="translate(19.568 129.78)" fill="none" stroke="#fff" stroke-linecap="round" stroke-linejoin="round" stroke-width="1.504"/>
              <path id="Trazado_161236" data-name="Trazado 161236" d="M50.475,283.294a24.024,24.024,0,0,0-7.712-.779" transform="translate(19.933 131.673)" fill="none" stroke="#fff" stroke-linecap="round" stroke-linejoin="round" stroke-width="1.504"/>
              <path id="Trazado_161237" data-name="Trazado 161237" d="M60.915,317.929l2.79-30.585L44.9,286.379l-2.8,33.6H57.53Z" transform="translate(19.622 133.488)" fill="#fa849b"/>
              <path id="Trazado_161238" data-name="Trazado 161238" d="M42.021,304.316s16.3,6.917,23.854-4.208l35.153,21.133H37.1Z" transform="translate(17.292 139.887)" fill="#181f42"/>
              <rect id="Rectángulo_42525" data-name="Rectángulo 42525" width="63.932" height="6.039" transform="translate(54.389 461.128)" fill="#fff"/>
              <path id="Trazado_161239" data-name="Trazado 161239" d="M61.575,301.993a24.029,24.029,0,0,0-5.387,5.574" transform="translate(26.191 140.766)" fill="none" stroke="#fff" stroke-linecap="round" stroke-linejoin="round" stroke-width="1.504"/>
              <path id="Trazado_161240" data-name="Trazado 161240" d="M65.248,303.894a24.03,24.03,0,0,0-5.387,5.574" transform="translate(27.903 141.652)" fill="none" stroke="#fff" stroke-linecap="round" stroke-linejoin="round" stroke-width="1.504"/>
              <path id="Trazado_161241" data-name="Trazado 161241" d="M68.922,305.8a24.029,24.029,0,0,0-5.387,5.574" transform="translate(29.615 142.538)" fill="none" stroke="#fff" stroke-linecap="round" stroke-linejoin="round" stroke-width="1.504"/>
              <path id="Trazado_161242" data-name="Trazado 161242" d="M48.238,169.629l-8.628,178.4H72.337l23.838-177.82Z" transform="translate(18.463 79.068)" fill="#8155ff"/>
              <path id="Trazado_161243" data-name="Trazado 161243" d="M96.315,171.293h0l-19.835,31.1-4.145-31.879Z" transform="translate(33.717 79.478)" fill="#8155ff"/>
              <path id="Trazado_161244" data-name="Trazado 161244" d="M152.918,156.183l-19.545,1.531,3.5-19.636,20.416,1.718Z" transform="translate(62.168 64.362)" fill="#fa849b"/>
              <path id="Trazado_161245" data-name="Trazado 161245" d="M165.116,157.444a13.7,13.7,0,1,1,1.49-19.322,13.7,13.7,0,0,1-1.49,19.322" transform="translate(66.421 62.151)" fill="#fa849b"/>
              <path id="Trazado_161246" data-name="Trazado 161246" d="M157.2,134.323s-2.487-5.731-8.289-1.485-10.95,12.939-2.824,24.078Z" transform="translate(66.131 61.189)" fill="#fa849b"/>
              <path id="Trazado_161247" data-name="Trazado 161247" d="M152.325,134.6l15.742-3.96a2.582,2.582,0,0,1,3.2,1.557,2.223,2.223,0,0,1-1.18,2.781L154.1,142.13Z" transform="translate(71.002 60.837)" fill="#fa849b"/>
              <path id="Trazado_161248" data-name="Trazado 161248" d="M105.79,117.253l25.82,40.854a14.28,14.28,0,0,1-24.393,14.817L78.753,133.675a15.828,15.828,0,1,1,27.037-16.422" transform="translate(35.49 50.87)" fill="#ffcd2e"/>
              <path id="Trazado_161249" data-name="Trazado 161249" d="M90.852,150.933l1.523-22.366,5.546,32.126Z" transform="translate(42.348 59.928)" fill="#f2bb19"/>
              <path id="Trazado_161250" data-name="Trazado 161250" d="M108.619,141.871l56.846-6.678-.18,25.961-52.867,6.813a13.2,13.2,0,1,1-3.8-26.1" transform="translate(45.077 63.017)" fill="#ffcd2e"/>
              <path id="Trazado_161251" data-name="Trazado 161251" d="M42.493,198.951s6.341.51,5.3-6.737-6.381-16.036-20.282-14.069Z" transform="translate(12.825 82.907)" fill="#fa849b"/>
              <rect id="Rectángulo_42526" data-name="Rectángulo 42526" width="63.81" height="63.81" transform="translate(9.445 276.147)" fill="#ffcd2e"/>
              <rect id="Rectángulo_42527" data-name="Rectángulo 42527" width="63.81" height="63.81" transform="translate(12.395 276.147)" fill="#ffcd2e"/>
              <path id="Trazado_161252" data-name="Trazado 161252" d="M20.4,194.811A13.953,13.953,0,1,1,37.045,205.4,13.953,13.953,0,0,1,20.4,194.811" transform="translate(9.351 82.889)" fill="#fa849b"/>
              <path id="Trazado_161253" data-name="Trazado 161253" d="M47.262,146.48l-.626,57.233-25.074-1.177L20.9,146.92a13.2,13.2,0,1,1,26.367-.44" transform="translate(9.727 61.938)" fill="#ffcd2e"/>
              <path id="Trazado_161254" data-name="Trazado 161254" d="M79.357,134.63,44.772,168.386A14.28,14.28,0,0,1,25.2,147.61L57.669,111.6A15.827,15.827,0,1,1,79.357,134.63" transform="translate(9.831 49.823)" fill="#ffcd2e"/>
              <path id="Trazado_161255" data-name="Trazado 161255" d="M106.581,110.13,57.4,106.9c-4.435-.292-12.342,7.762-11.877,12.181l-.028,79.8,63.331,2.073,6.432-81a9.3,9.3,0,0,0-8.677-9.817" transform="translate(21.206 49.823)" fill="#ffcd2e"/>
              <path id="Trazado_161256" data-name="Trazado 161256" d="M45.495,145.212l14.283-13.94L45.5,169.026Z" transform="translate(21.206 61.189)" fill="#f2bb19"/>
              <path id="Trazado_161257" data-name="Trazado 161257" d="M81.7,88.53a6.658,6.658,0,0,0,5.917,7.284A6.585,6.585,0,0,0,94.678,89.7a6.657,6.657,0,0,0-5.917-7.284A6.587,6.587,0,0,0,81.7,88.53" transform="translate(38.07 38.402)" fill="#e6728c"/>
              <path id="Trazado_161258" data-name="Trazado 161258" d="M85,99.947l-.3,16.066c-.094,5.643-3.511,8.59-8.891,8.435-4.59-.132-9.591-2.454-9.3-7.423l1.651-25.258Z" transform="translate(30.994 42.774)" fill="#fa849b"/>
              <path id="Trazado_161259" data-name="Trazado 161259" d="M84.39,109.617s-13.109.859-16.9-13.953C66.3,91,84.616,97.287,84.616,97.287Z" transform="translate(31.435 43.788)" fill="#312725"/>
              <path id="Trazado_161260" data-name="Trazado 161260" d="M81.749,116.373h0c9.175.192,16.884-7.134,17.3-14.865L99.82,85.33A17.784,17.784,0,0,0,83.955,66.44c-9.584-.861-19.718,6.315-20.562,16.211l-.45,12.616c-.419,11.357,7.842,20.121,18.806,21.106" transform="translate(29.332 30.937)" fill="#f8879d"/>
              <path id="Trazado_161261" data-name="Trazado 161261" d="M81.639,85.5l.428,5.288-2.27.045" transform="translate(37.195 39.854)" fill="none" stroke="#312725" stroke-linecap="round" stroke-linejoin="round" stroke-width="0.597"/>
              <path id="Trazado_161262" data-name="Trazado 161262" d="M75.527,78.2s3.764-.251,3.774,1.328c0,0-.022,1.07-3.3,1.224s-4.132-.11-4.413-1.12,2.182-1.454,3.944-1.432" transform="translate(33.356 36.443)" fill="#312725"/>
              <path id="Trazado_161263" data-name="Trazado 161263" d="M86.051,80.739s-3.1-.386-3.376,1.094c0,0-.164,1,2.547,1.277s3.6-.066,3.873-.872c.306-.913-1.569-1.449-3.044-1.5" transform="translate(38.536 37.613)" fill="#312725"/>
              <path id="Trazado_161264" data-name="Trazado 161264" d="M83.364,85.318a1.578,1.578,0,1,0,1.657-1.545,1.605,1.605,0,0,0-1.657,1.545" transform="translate(38.857 39.047)" fill="#312725"/>
              <path id="Trazado_161265" data-name="Trazado 161265" d="M73.942,84.826A1.579,1.579,0,1,0,75.6,83.281a1.606,1.606,0,0,0-1.657,1.545" transform="translate(34.465 38.818)" fill="#312725"/>
              <path id="Trazado_161266" data-name="Trazado 161266" d="M76.534,90.7A5.23,5.23,0,0,0,81.8,92.425" transform="translate(35.674 42.276)" fill="none" stroke="#312725" stroke-linecap="round" stroke-linejoin="round" stroke-width="0.597"/>
              <path id="Trazado_161267" data-name="Trazado 161267" d="M98.029,61.461c-3.516-1.512-12.484-3.174-14.463,4.758-8.927-.682-23.128-.516-24.555,7.222-2.1,11.368,5.973,22.635,5.973,22.635l2.271,1.155s5.765-3.006,4.274-16.605c0,0,20.628,4.973,30.3-.261s6.75-14.365-3.8-18.9" transform="translate(27.345 28.059)" fill="#312725"/>
              <path id="Trazado_161268" data-name="Trazado 161268" d="M57.2,87.688a6.594,6.594,0,0,0,5.86,7.213,6.523,6.523,0,0,0,6.992-6.059,6.594,6.594,0,0,0-5.86-7.213A6.524,6.524,0,0,0,57.2,87.688" transform="translate(26.649 38.037)" fill="#f8879d"/>
              <path id="Trazado_161269" data-name="Trazado 161269" d="M64.283,88.79s.411-4.812-4.11-4.454" transform="translate(28.048 39.302)" fill="none" stroke="#312725" stroke-linecap="round" stroke-linejoin="round" stroke-width="0.597"/>
              <path id="Trazado_161270" data-name="Trazado 161270" d="M62.263,107.461,91.7,109.4s.932,10.147-12.159,9.448c-14.732-.787-17.277-11.383-17.277-11.383" transform="translate(29.022 50.09)" fill="#fa849b"/>
              <path id="Trazado_161271" data-name="Trazado 161271" d="M580.611,284.328,551.589,270.8l10.47-16.306,31.548,15.328-9.253,12.906Z" transform="translate(257.109 118.625)" fill="#fa849b"/>
              <path id="Trazado_161272" data-name="Trazado 161272" d="M582.09,260.631s-3.985,17.774-17.819,17.425l-3.4,42.065L599.2,266.661Z" transform="translate(261.434 121.486)" fill="#181f42"/>
              <rect id="Rectángulo_42528" data-name="Rectángulo 42528" width="65.78" height="6.213" transform="translate(822.303 441.607) rotate(-54.362)" fill="#fff"/>
              <path id="Trazado_161273" data-name="Trazado 161273" d="M562.886,276.638a24.718,24.718,0,0,1,7.891-1.163" transform="translate(262.374 128.405)" fill="none" stroke="#fff" stroke-linecap="round" stroke-linejoin="round" stroke-width="1.548"/>
              <path id="Trazado_161274" data-name="Trazado 161274" d="M562.273,280.85a24.718,24.718,0,0,1,7.891-1.163" transform="translate(262.089 130.369)" fill="none" stroke="#fff" stroke-linecap="round" stroke-linejoin="round" stroke-width="1.548"/>
              <path id="Trazado_161275" data-name="Trazado 161275" d="M561.66,285.061a24.717,24.717,0,0,1,7.891-1.163" transform="translate(261.803 132.332)" fill="none" stroke="#fff" stroke-linecap="round" stroke-linejoin="round" stroke-width="1.548"/>
              <path id="Trazado_161276" data-name="Trazado 161276" d="M533.564,154.338S514.6,225.1,511.81,239.056s-8.372,41.859,3.349,51.907S571.9,325.1,571.9,325.1l16.563-29.736-26.827-16.124Z" transform="translate(236.796 71.941)" fill="#243b77"/>
              <path id="Trazado_161277" data-name="Trazado 161277" d="M544.762,318.153l-5.914-31.469,19.353-.993,5.923,34.571h-15.88Z" transform="translate(251.169 133.168)" fill="#fa849b"/>
              <path id="Trazado_161278" data-name="Trazado 161278" d="M576.041,304.146s-16.766,7.117-24.544-4.329l-36.169,21.744h65.779Z" transform="translate(240.206 139.752)" fill="#181f42"/>
              <rect id="Rectángulo_42529" data-name="Rectángulo 42529" width="65.779" height="6.213" transform="translate(755.533 461.313)" fill="#fff"/>
              <path id="Trazado_161279" data-name="Trazado 161279" d="M536.771,301.757a24.694,24.694,0,0,1,5.542,5.736" transform="translate(250.202 140.656)" fill="none" stroke="#fff" stroke-linecap="round" stroke-linejoin="round" stroke-width="1.548"/>
              <path id="Trazado_161280" data-name="Trazado 161280" d="M532.991,303.713a24.693,24.693,0,0,1,5.542,5.735" transform="translate(248.44 141.568)" fill="none" stroke="#fff" stroke-linecap="round" stroke-linejoin="round" stroke-width="1.548"/>
              <path id="Trazado_161281" data-name="Trazado 161281" d="M529.211,305.669a24.693,24.693,0,0,1,5.542,5.735" transform="translate(246.678 142.479)" fill="none" stroke="#fff" stroke-linecap="round" stroke-linejoin="round" stroke-width="1.548"/>
              <path id="Trazado_161282" data-name="Trazado 161282" d="M526.041,154.338,524.159,261.1a59.062,59.062,0,0,0,.91,11.423l15.86,82.333h33.19L564.86,262c.391-17.079,6.058-36.2,8.178-57.029,0,0,6.505-38.635-11.332-50.435Z" transform="translate(244.319 71.941)" fill="#2b4183"/>
              <path id="Trazado_161283" data-name="Trazado 161283" d="M530.21,150.657,475.946,130.8l-6.309,10.566,52.9,28.037a12.1,12.1,0,0,0,16.212-13.475c-.776-4.259-4.463-3.822-8.542-5.274" transform="translate(218.909 60.97)" fill="#fa849b"/>
              <path id="Trazado_161284" data-name="Trazado 161284" d="M477.719,126.264a4.037,4.037,0,0,0-3.791-1.183,2.4,2.4,0,0,0-1.528,3.744l.781,1.286c-1.743.667-5.337.836-11.915-5.809a3.317,3.317,0,0,0-4.063-.589,2.04,2.04,0,0,0-.619,2.673c.022.045.054.088.079.133a3.015,3.015,0,0,0-2.636.277,2.044,2.044,0,0,0-.62,2.674,2.813,2.813,0,0,0,.227.378,2.618,2.618,0,0,0-1.239.428,2.043,2.043,0,0,0-.619,2.674,2.963,2.963,0,0,0,.564.781c.086.088.173.166.26.252-.04.023-.084.04-.122.066a2.04,2.04,0,0,0-.619,2.673,2.963,2.963,0,0,0,.563.783,38.538,38.538,0,0,0,5.382,4.582l0,0,.084.054a25.469,25.469,0,0,0,2.479,1.513c3.8,2.208,11.936.356,18.932,1.484l5.458-10.3Z" transform="translate(210.467 57.453)" fill="#fa849b"/>
              <rect id="Rectángulo_42530" data-name="Rectángulo 42530" width="65.42" height="65.42" transform="translate(609.062 194.45) rotate(-66.362)" fill="#ffcd2e"/>
              <path id="Trazado_161285" data-name="Trazado 161285" d="M472.9,128.262l-5.319-6.2a2.165,2.165,0,0,0-3.573,2.39l2.679,5.281a14.713,14.713,0,0,0,3.167,13.411Z" transform="translate(216.177 56.545)" fill="#fa849b"/>
              <path id="Trazado_161286" data-name="Trazado 161286" d="M540.394,150.947,520.64,166.723a12.083,12.083,0,0,1-13.887.842c-6.114-3.772-9.849-7.254-5.447-12.931l21.7-22.005Z" transform="translate(232.775 61.821)" fill="#fa849b"/>
              <path id="Trazado_161287" data-name="Trazado 161287" d="M551.217,138.477s-2.627,12.963-18.208,24.729l-24.022-22.682,19.439-21.663Z" transform="translate(237.251 55.403)" fill="#7041fd"/>
              <path id="Trazado_161288" data-name="Trazado 161288" d="M564.971,149.275l41.77,52.692L616.2,195.7S592.226,151.08,581.09,137a12.092,12.092,0,0,0-20.807,3.394c-1.491,4.066,1.909,5.558,4.689,8.877" transform="translate(260.991 61.737)" fill="#fa849b"/>
              <path id="Trazado_161289" data-name="Trazado 161289" d="M593.878,192.452a3.925,3.925,0,0,0,2.689,2.774,2.334,2.334,0,0,0,3.045-2.488l-.067-1.462c1.8.242,4.947,1.768,7.476,10.5a3.224,3.224,0,0,0,3.2,2.394,1.988,1.988,0,0,0,1.773-2c0-.048-.006-.1-.006-.15a2.94,2.94,0,0,0,2.381.99,1.988,1.988,0,0,0,1.773-2,2.634,2.634,0,0,0-.019-.428,2.545,2.545,0,0,0,1.258.21,1.985,1.985,0,0,0,1.773-2,2.9,2.9,0,0,0-.117-.93c-.034-.116-.072-.221-.106-.336.045,0,.091.006.135,0a1.986,1.986,0,0,0,1.773-2,2.9,2.9,0,0,0-.117-.931,37.67,37.67,0,0,0-2.466-6.417h0l-.045-.085a24.88,24.88,0,0,0-1.415-2.445c-2.22-3.655-10.031-5.857-15.482-10.074l-9.456,6.263Z" transform="translate(275.878 81.848)" fill="#fa849b"/>
              <path id="Trazado_161290" data-name="Trazado 161290" d="M563.878,121.77l19,16.673a12.084,12.084,0,0,1,3.27,13.524c-2.639,6.681-5.409,10.971-11.771,7.636L548.9,142.11Z" transform="translate(255.856 56.76)" fill="#fa849b"/>
              <path id="Trazado_161291" data-name="Trazado 161291" d="M544.9,113.838a50.65,50.65,0,0,1,30.617,13.516l-12.943,24.072L537.127,142.6Z" transform="translate(250.368 53.063)" fill="#8155ff"/>
              <path id="Trazado_161292" data-name="Trazado 161292" d="M533.417,115.273s-15.8,4.366-15.85,25.546c-.029,11.563,11.543,32.4,11.543,32.4l35.665.195s5.237-14.529,8.373-27.66-6.9-25.612-19.13-31.913Z" transform="translate(241.25 53.063)" fill="#8155ff"/>
              <path id="Trazado_161293" data-name="Trazado 161293" d="M558.933,142.667l-14-10.039,10.8,20.9Z" transform="translate(254.008 61.821)" fill="#7041fd"/>
              <path id="Trazado_161294" data-name="Trazado 161294" d="M539.107,131.319h0c4.947-.737,6.7-4.051,5.964-9l-5.5-28.353L524.65,96.355l4.164,27.343a9.056,9.056,0,0,0,10.294,7.621" transform="translate(244.552 43.8)" fill="#f8879d"/>
              <path id="Trazado_161295" data-name="Trazado 161295" d="M535.418,97.793s4.84,15.116-7.99,20.256l-1.188-9.024,13.179-9.97" transform="translate(245.293 45.584)" fill="#32292a"/>
              <path id="Trazado_161296" data-name="Trazado 161296" d="M530.086,120.734h0c9.319-.883,16.234-8.339,15.446-16.658l-2.577-27.233-15.711.045c-5.79.548-13.757,8.228-13.267,13.4l2.74,16.91c.573,6.043,5.536,14.282,13.37,13.54" transform="translate(239.566 35.818)" fill="#f8879d"/>
              <path id="Trazado_161297" data-name="Trazado 161297" d="M517.53,90.8l-3.573,9.122a1.329,1.329,0,0,0,1.375,1.97l6.143-.573Z" transform="translate(239.477 42.326)" fill="#f8879d"/>
              <path id="Trazado_161298" data-name="Trazado 161298" d="M519.492,87.931s-3.35.092-3.225,1.491c0,0,.108.944,3.025.8s3.643-.443,3.809-1.359-2.051-1.1-3.608-.937" transform="translate(240.642 40.961)" fill="#312725"/>
              <path id="Trazado_161299" data-name="Trazado 161299" d="M519.473,92.813a1.4,1.4,0,1,1-1.594-1.229,1.429,1.429,0,0,1,1.594,1.229" transform="translate(240.838 42.683)" fill="#312725"/>
              <path id="Trazado_161300" data-name="Trazado 161300" d="M517.856,100.527a3.938,3.938,0,0,0,3.422-2.734" transform="translate(241.385 45.584)" fill="none" stroke="#312725" stroke-linecap="round" stroke-linejoin="round" stroke-width="0.597"/>
              <path id="Trazado_161301" data-name="Trazado 161301" d="M540.45,112.736l10.109,1.616s-10.621,17.206-21.073,13.079c-12.055-4.759,3.928-13.806,3.928-13.806Z" transform="translate(244.709 52.549)" fill="#f8879d"/>
              <path id="Trazado_161302" data-name="Trazado 161302" d="M542.311,101.316a13.007,13.007,0,0,1-9.393-9.417l-20.894,4.126S508.788,75.212,533.8,71.288c12.538-1.968,20.548,4.093,24.775,10.156a20.392,20.392,0,0,1,1.607,19.782c-2,4.577-7.128,10.983-12.727,13.9l-1.93-10.418s-1.808-3.038-3.212-3.4" transform="translate(238.602 33.053)" fill="#32292a"/>
              <path id="Trazado_161303" data-name="Trazado 161303" d="M543.613,92.771a6.649,6.649,0,0,1-6.57,6.686,6.577,6.577,0,0,1-6.445-6.749,6.649,6.649,0,0,1,6.57-6.686,6.58,6.58,0,0,1,6.445,6.749" transform="translate(247.324 40.097)" fill="#f8879d"/>
              <path id="Trazado_161304" data-name="Trazado 161304" d="M533.511,93.021s.045-4.87,4.549-4.082" transform="translate(248.682 41.416)" fill="none" stroke="#312725" stroke-linecap="round" stroke-linejoin="round" stroke-width="0.603"/>
              <path id="Trazado_161305" data-name="Trazado 161305" d="M572.421,76.73A16.246,16.246,0,1,1,553.7,63.415,16.247,16.247,0,0,1,572.421,76.73" transform="translate(251.778 29.452)" fill="#32292a"/>
            </g>
          </g>
        </g>
      </g>
    </g>
  </g>
</svg>
