<svg xmlns="http://www.w3.org/2000/svg" xmlns:xlink="http://www.w3.org/1999/xlink" width="292.027" height="415.146" viewBox="0 0 292.027 415.146">
  <defs>
    <clipPath id="clip-path">
      <rect id="Rectángulo_41890" data-name="Rectángulo 41890" width="292.027" height="375.904" fill="none"/>
    </clipPath>
  </defs>
  <g id="Grupo_167837" data-name="Grupo 167837" transform="translate(-196 -1850.758)">
    <g id="Grupo_167836" data-name="Grupo 167836" transform="translate(28.897 -46)">
      <path id="Trazado_156803" data-name="Trazado 156803" d="M347.125,82.677C344.483,41.8,313.131,2.778,270.67.358,221.9-3.378,177.135,23.367,128.555,23.65c-24.772,2.124-48-7.361-72.144-10.424C1.887,11.224-6.421,75.3,3.748,116.6,46.633,311.3,350.094,284.811,347.125,82.677Z" transform="translate(424.415 1896.758) rotate(90)" fill="#ffd947"/>
      <path id="Trazado_156804" data-name="Trazado 156804" d="M71.035,181.795c1.992,30.825,25.637,60.257,57.66,62.083,36.781,2.818,70.541-17.353,107.178-17.566,18.682-1.6,36.2,5.552,54.409,7.862,41.12,1.509,47.386-46.813,39.717-77.961C297.657,9.372,68.8,29.351,71.035,181.795Z" transform="translate(117.962 1869.916)" fill="#fff7da"/>
    </g>
    <g id="Grupo_167835" data-name="Grupo 167835" transform="translate(196 1856)">
      <g id="Grupo_167834" data-name="Grupo 167834" transform="translate(0 34)" clip-path="url(#clip-path)">
        <path id="Trazado_156741" data-name="Trazado 156741" d="M266.023,472.406a33.234,33.234,0,0,1-4.532-2.109c-8.7-4.761-15.14-12.076-17.683-20.072-3.1-9.731-.8-20.2,1.22-29.445l.434-1.992c3.35-15.5,7.823-30.407,11.756-42.942,2.625-8.365,4.909-15.3,7.187-21.81l3.476,1.215c-2.264,6.477-4.537,13.371-7.15,21.7-3.909,12.455-8.351,27.258-11.669,42.617l-.437,2c-2.018,9.218-4.1,18.751-1.308,27.542,2.259,7.1,8.07,13.647,15.942,17.958a29.889,29.889,0,0,0,4.036,1.884Z" transform="translate(-72.113 -105.37)" fill="#2f3f4f"/>
        <path id="Trazado_156742" data-name="Trazado 156742" d="M311.709,336.912h-2.455v-8.17a2.726,2.726,0,0,0-2.723-2.723h-6.367a2.726,2.726,0,0,0-2.724,2.723v6.253h-2.455v-6.253a5.184,5.184,0,0,1,5.179-5.178h6.367a5.184,5.184,0,0,1,5.178,5.178Z" transform="translate(-87.795 -96.301)" fill="#2f3f4f"/>
        <path id="Trazado_156743" data-name="Trazado 156743" d="M344.091,411v48.924a12.581,12.581,0,0,1-12.581,12.581H269.96a3.809,3.809,0,0,1-3.809-3.809V357a20,20,0,0,1,9.254-16.889c.393-.258.81-.5,1.227-.725a19.89,19.89,0,0,1,9.549-2.43h18.423a20.045,20.045,0,0,1,19.786,16.877l7.119,44.591A12.572,12.572,0,0,1,344.091,411" transform="translate(-79.214 -100.286)" fill="#2f3f4f"/>
        <path id="Trazado_156744" data-name="Trazado 156744" d="M280.555,340.415V473.539h-1.227v-132.4c.393-.258.81-.5,1.227-.724" transform="translate(-83.135 -101.316)" fill="#2f3f4f"/>
        <path id="Trazado_156745" data-name="Trazado 156745" d="M353.062,437.05v48.924a12.581,12.581,0,0,1-12.581,12.581H296.3V436.94a12.47,12.47,0,0,1,12.471-12.471h31.716a12.572,12.572,0,0,1,12.581,12.581" transform="translate(-88.185 -126.333)" fill="#ffcfa6"/>
        <path id="Trazado_156746" data-name="Trazado 156746" d="M321.764,373.824H300.591a4.3,4.3,0,0,1-4.3-4.3v-7.774a4.3,4.3,0,0,1,4.3-4.3h21.172a4.3,4.3,0,0,1,4.3,4.3v7.774a4.3,4.3,0,0,1-4.3,4.3" transform="translate(-88.185 -106.389)" fill="#fff"/>
        <rect id="Rectángulo_41886" data-name="Rectángulo 41886" width="29.764" height="1.227" transform="translate(208.111 256.082)" fill="#2f3f4f"/>
        <rect id="Rectángulo_41887" data-name="Rectángulo 41887" width="56.767" height="1.227" transform="translate(208.111 317.247)" fill="#2f3f4f"/>
        <path id="Trazado_156747" data-name="Trazado 156747" d="M242.337,472.4H197.893a5.906,5.906,0,0,1-5.695-4.443,1.682,1.682,0,0,1-.062-.233l-1.854-8.9-.748-3.6-26.574-127.81,39.117-3.191s11.537,108.416,13.28,124.532c.135,1.3.221,2,.221,2,.013.025.811.478,2.149,1.215,2.406,1.362,6.529,3.67,10.862,6.149,1.228.7,2.455,1.411,3.683,2.123,1.362.8,2.713,1.6,3.989,2.345,1.325.8,2.565,1.546,3.682,2.234a50.268,50.268,0,0,1,4.652,3.13,1.8,1.8,0,0,1,.553.6c.012.013.012.037.025.074a2.936,2.936,0,0,1-2.835,3.768" transform="translate(-48.501 -96.5)" fill="#f9b3a2"/>
        <path id="Trazado_156748" data-name="Trazado 156748" d="M254.726,533.308H210.282a5.906,5.906,0,0,1-5.695-4.443h52.4a1.8,1.8,0,0,1,.553.6c.012.013.012.037.025.074a2.936,2.936,0,0,1-2.835,3.768" transform="translate(-60.89 -157.404)" fill="#a66353"/>
        <path id="Trazado_156749" data-name="Trazado 156749" d="M266.007,521.055c-1.957-1.166-4.455-2.647-5.315-3.164l-2.241,9.93h7.556Z" transform="translate(-76.922 -154.138)" fill="#a66353"/>
        <path id="Trazado_156750" data-name="Trazado 156750" d="M260.083,516.991v9.132H256.4V514.868c1.228.7,2.456,1.411,3.683,2.123" transform="translate(-76.311 -153.238)" fill="#a66353"/>
        <path id="Trazado_156751" data-name="Trazado 156751" d="M228.988,504.75s-7.425,1.829-12.262,3.044c-1.2.294-2.442.614-3.682.92-3.891.97-7.892,1.976-11.5,2.885L200.8,508c13.526-3.425,25.824-6.468,25.824-6.468Z" transform="translate(-59.762 -149.27)" fill="#a66353"/>
        <rect id="Rectángulo_41888" data-name="Rectángulo 41888" width="3.683" height="16.751" transform="translate(153.286 356.932)" fill="#a66353"/>
        <path id="Trazado_156752" data-name="Trazado 156752" d="M2.971,472.4H47.415a5.906,5.906,0,0,0,5.695-4.443,1.684,1.684,0,0,0,.062-.233l1.853-8.9.749-3.6,35.165-127.81-39.117-3.191S31.692,432.649,29.949,448.765c-.135,1.3-.221,2-.221,2-.013.025-.811.478-2.149,1.215-2.406,1.362-6.529,3.67-10.862,6.149-1.228.7-2.455,1.411-3.683,2.123-1.362.8-2.713,1.6-3.989,2.345-1.325.8-2.565,1.546-3.682,2.234a50.262,50.262,0,0,0-4.652,3.13,1.8,1.8,0,0,0-.553.6c-.012.013-.012.037-.025.074A2.936,2.936,0,0,0,2.971,472.4" transform="translate(0 -96.5)" fill="#f9b3a2"/>
        <path id="Trazado_156753" data-name="Trazado 156753" d="M2.971,533.308H47.415a5.906,5.906,0,0,0,5.695-4.443H.713a1.8,1.8,0,0,0-.553.6c-.012.013-.012.037-.025.074a2.936,2.936,0,0,0,2.835,3.768" transform="translate(0 -157.404)" fill="#a66353"/>
        <path id="Trazado_156754" data-name="Trazado 156754" d="M10.361,527.82h6.751l-.992-9.93c-.926.558-3.756,2.234-5.759,3.429Z" transform="translate(-3.084 -154.138)" fill="#a66353"/>
        <path id="Trazado_156755" data-name="Trazado 156755" d="M18.56,516.991v9.132h3.683V514.868c-1.228.7-2.455,1.411-3.683,2.123" transform="translate(-5.524 -153.238)" fill="#a66353"/>
        <path id="Trazado_156756" data-name="Trazado 156756" d="M39.268,504.75s7.425,1.829,12.262,3.044c1.2.294,2.442.614,3.682.92,3.891.97,7.892,1.976,11.5,2.885l.749-3.6c-13.526-3.425-25.824-6.468-25.824-6.468Z" transform="translate(-11.687 -149.27)" fill="#a66353"/>
        <rect id="Rectángulo_41889" data-name="Rectángulo 41889" width="3.683" height="16.751" transform="translate(39.838 356.932)" fill="#a66353"/>
        <path id="Trazado_156757" data-name="Trazado 156757" d="M211.58,81.256s3.221,2.421,11.66,11.933,17.566,23.641,17.566,23.641l15.222,23.429c.832,1.3-3.254,13.686-9.746,20.065-4.893,4.807-11.075,5.6-17.825,4.054-8.987-2.056-28.129-15.547-28.129-15.547Z" transform="translate(-59.623 -24.184)" fill="#3a5394"/>
        <path id="Trazado_156758" data-name="Trazado 156758" d="M166.014,70.567s17,4.406,18.229,14.685c4.733,39.644,15.419,181.076,15.419,181.076H95.333l24.242-83.038Z" transform="translate(-28.374 -21.003)" fill="#3a5394"/>
        <path id="Trazado_156759" data-name="Trazado 156759" d="M228.736,166.951a.614.614,0,0,1-.611-.558l-5.918-64.767a.614.614,0,0,1,1.223-.112l5.918,64.767a.615.615,0,0,1-.556.667l-.056,0" transform="translate(-66.134 -30.047)" fill="#2f3f4f"/>
        <path id="Trazado_156760" data-name="Trazado 156760" d="M125.264,258.46l-1.951,24.757-21.7,96.9H53.952L59.844,339l.172-1.228L64.41,307.15l.172-1.227.982-6.812.171-1.227,6.137-42.8Z" transform="translate(-16.058 -75.92)" fill="#ffcfa6"/>
        <path id="Trazado_156761" data-name="Trazado 156761" d="M84.041,319.1l-4.013,29.814a9.51,9.51,0,0,1-9.4,8.223H62.34l.172-1.227h8.113a8.27,8.27,0,0,0,8.187-7.156l3.154-23.468.171-1.227.688-5.118a1.506,1.506,0,0,0-.343-1.179,1.528,1.528,0,0,0-1.129-.516H68.059l.172-1.227H81.353a2.73,2.73,0,0,1,2.05.933,2.688,2.688,0,0,1,.638,2.148" transform="translate(-18.554 -94.056)" fill="#2f3f4f"/>
        <path id="Trazado_156762" data-name="Trazado 156762" d="M84.613,327.466v1.227H68.841l.171-1.227Z" transform="translate(-20.489 -97.462)" fill="#2f3f4f"/>
        <path id="Trazado_156763" data-name="Trazado 156763" d="M200.569,379.567H154.861L129.846,255.085,190.6,276.171l2.1,21.712.11,1.227.663,6.812.11,1.228,2.958,30.623.111,1.227Z" transform="translate(-38.646 -75.92)" fill="#ffcfa6"/>
        <path id="Trazado_156764" data-name="Trazado 156764" d="M146.376,30.008a5.181,5.181,0,0,0,.466.43,2,2,0,0,0,.233.209,2.52,2.52,0,0,0,.27.233,14.223,14.223,0,0,0,4.8,2.565,13.7,13.7,0,0,0,2.381.5,14.035,14.035,0,0,0,15.121-9.831,14.544,14.544,0,0,0,.6-3.473v-.1a14.011,14.011,0,0,0-.822-5.254l.012-.012a14.722,14.722,0,0,0-.749-1.693s-.036-.074-.11-.2a14.009,14.009,0,0,0-25.751,2.565c-1.571,5.155.835,11.256,3.548,14.054" transform="translate(-42.361 -1.788)" fill="#f9b3a2"/>
        <path id="Trazado_156765" data-name="Trazado 156765" d="M171.584,24.359s.728,10.286-.612,16.152c-1.659,7.263-9.235,7.324-15.475,3.3s-8.369-11.23-8.369-11.23,12.223-5.659,13.785-5.644,10.671-2.583,10.671-2.583" transform="translate(-43.789 -7.25)" fill="#f9b3a2"/>
        <path id="Trazado_156766" data-name="Trazado 156766" d="M142.332,61.934l10.384,2.1,8.948-2.406-.466-7.585-.27-4.272v-.012l-.282-4.664-5.536-1.669L146.591,35.5Z" transform="translate(-42.362 -10.565)" fill="#f9b3a2"/>
        <path id="Trazado_156767" data-name="Trazado 156767" d="M158.287,52.115c.172.282,2.995,4.775,5.56,6.076a12.492,12.492,0,0,0,2.1.8l-.27-4.271V54.7s-3.093-.846-4.627-1.386a23.374,23.374,0,0,1-2.762-1.2" transform="translate(-47.11 -15.511)" fill="#2f3f4f"/>
        <path id="Trazado_156768" data-name="Trazado 156768" d="M173.067,42.374l-7.789-.163s.276,2.024,3.513,2.512a3.855,3.855,0,0,0,4.277-2.349" transform="translate(-49.191 -12.563)" fill="#fff"/>
        <path id="Trazado_156769" data-name="Trazado 156769" d="M145.281,29.643a5.273,5.273,0,0,0,.466.43,2,2,0,0,0,.233.209c.2-.667.619-4.342,2.179-5.635,1.455-1.205,4.882-.585,5.012-1.272.589-3.253-.411-7.732,1.431-9.519s8.874-2.295,11.194-1.889a4,4,0,0,1,2.713,1.424,14.009,14.009,0,0,0-25.75,2.565c-1.571,5.155-.191,10.89,2.522,13.689" transform="translate(-42.292 -1.788)" fill="#a66353"/>
        <path id="Trazado_156770" data-name="Trazado 156770" d="M144.42,28.632c0,2.74,1.725,4.961,3.853,4.961s3.852-2.221,3.852-4.961-1.725-4.962-3.852-4.962-3.853,2.222-3.853,4.962" transform="translate(-42.983 -7.045)" fill="#f9b3a2"/>
        <path id="Trazado_156771" data-name="Trazado 156771" d="M176.389,218.6s-31.7-2.16-56.461-6.456-37.84-7.573-37.84-7.573S96.461,70.927,98.142,68.792c.688-.884,5.266-1.964,10.445-2.946.393-.062.8-.147,1.2-.221,7.241-1.3,15.171-2.369,15.171-2.369a15.954,15.954,0,0,0,8.566,3.081c4.91.147,9.132-4.7,9.132-4.7s8.407,2.307,15.478,4.688l1.177.405c1.781.614,3.437,1.227,4.787,1.8C171,71.443,176.389,218.6,176.389,218.6" transform="translate(-24.432 -18.344)" fill="#ffeae6"/>
        <path id="Trazado_156772" data-name="Trazado 156772" d="M121.381,73.048l-5.366,9.294h10.732Z" transform="translate(-34.529 -21.741)" fill="#fff"/>
        <path id="Trazado_156773" data-name="Trazado 156773" d="M155.177,152.123l-5.365,9.294h10.731Z" transform="translate(-44.588 -45.276)" fill="#fff"/>
        <path id="Trazado_156774" data-name="Trazado 156774" d="M164.184,181.929H136.322a3.282,3.282,0,0,1-3.281-3.281V164.071a3.281,3.281,0,0,1,3.281-3.281h27.861a3.281,3.281,0,0,1,3.282,3.281v14.576a3.281,3.281,0,0,1-3.282,3.281" transform="translate(-39.596 -47.855)" fill="#2f3f4f"/>
        <path id="Trazado_156775" data-name="Trazado 156775" d="M133.6,137.621l-1.2.209L119.816,67.536c.393-.062.8-.147,1.2-.221Z" transform="translate(-35.66 -20.035)" fill="#2f3f4f"/>
        <path id="Trazado_156776" data-name="Trazado 156776" d="M187.057,68.716,176.5,136.567l-1.2-.184,10.58-68.072,1.179.405" transform="translate(-52.174 -20.331)" fill="#2f3f4f"/>
        <path id="Trazado_156777" data-name="Trazado 156777" d="M94.561,69.335s-1.052,23.331-3.873,55.287c-5.319,60.254-18.207,141.339-18.207,141.339H53.95S76.368,79.823,77.8,76.345s16.761-7.01,16.761-7.01" transform="translate(-16.057 -20.636)" fill="#3a5394"/>
        <path id="Trazado_156778" data-name="Trazado 156778" d="M77.773,75.859s-13.5,4.575-22.091,27.078S42.666,139.5,44.2,149.118s10.739,17.49,24.778,12.964c10.036-3.235,9.308-38.492,9.308-38.492Z" transform="translate(-13.066 -22.578)" fill="#3a5394"/>
        <path id="Trazado_156779" data-name="Trazado 156779" d="M90.44,125.446c-.022,0-.044,0-.067,0a.614.614,0,0,1-.543-.676,91.684,91.684,0,0,0-.8-21.927A49.576,49.576,0,0,0,82.1,84.068a.614.614,0,0,1,1-.707c.211.3,5.2,7.513,7.137,19.279A92.977,92.977,0,0,1,91.05,124.9a.615.615,0,0,1-.61.547" transform="translate(-24.401 -24.733)" fill="#2f3f4f"/>
        <path id="Trazado_156780" data-name="Trazado 156780" d="M67.009,139.283c1.928-1.573,4.056-2.967,5.983-4.468l29.774-23.2,3.8-2.963,16.07,18.782q-10.252,9.515-20.719,18.8c-4.719,4.183-9.458,8.36-14.373,12.315-4.965,4-9.892,7-16.7,5.772-8.823-1.589-12.249-10.683-9.028-18.585a16.513,16.513,0,0,1,5.188-6.45" transform="translate(-18.046 -32.338)" fill="#f9b3a2"/>
        <path id="Trazado_156781" data-name="Trazado 156781" d="M161.558,95.793c-.872,1.6-11.586,3.118-12.188,3.2.43,0,1.645,1.939,1.842,2.2a18.071,18.071,0,0,1,1.043,1.67c.2.368.393.736.552,1.117a19.586,19.586,0,0,1,1.351,3.756c.11.454.209.908.294,1.375.074.405.148.822.2,1.24a11.286,11.286,0,0,1-.945,6.935,22.807,22.807,0,0,1-6.284,6.9c-2.553,1.951-5.7,3.768-9,3.879-6.873.221-12.029-6.837-12.446-8.433s0-16.017,0-16.017,11.476-9.292,15.907-10.519,16.312-1.719,18.374-1.068,2.209,2.136,1.3,3.768" transform="translate(-37.438 -27.303)" fill="#f9b3a2"/>
        <path id="Trazado_156782" data-name="Trazado 156782" d="M161.224,108.695l-6.347,2.172a.5.5,0,0,1-.2.037.6.6,0,0,1-.577-.417.621.621,0,0,1,.38-.785l6.187-2.123c.2.368.393.736.553,1.117" transform="translate(-45.856 -32.018)" fill="#2f3f4f"/>
        <path id="Trazado_156783" data-name="Trazado 156783" d="M164.071,117.713l-5.793,2.2a.7.7,0,0,1-.221.037.6.6,0,0,1-.565-.393.618.618,0,0,1,.356-.8l6.026-2.283c.074.405.148.822.2,1.24" transform="translate(-46.861 -34.665)" fill="#2f3f4f"/>
        <path id="Trazado_156784" data-name="Trazado 156784" d="M238.862,129.458c1.179-2.4,2.634-4.713,3.843-7.041L261.4,86.437l2.388-4.6,24.1,11.149q-5.754,13.881-11.822,27.63c-2.736,6.2-5.5,12.4-8.525,18.458-3.06,6.124-6.529,11.261-13.724,13.11-9.328,2.4-16.744-4.95-17.134-14.11a17.744,17.744,0,0,1,2.18-8.62" transform="translate(-70.439 -24.358)" fill="#f9b3a2"/>
        <path id="Trazado_156785" data-name="Trazado 156785" d="M275.277,74.275s1.057-9.24,4.126-13.434c1.474-2.015,9.512-5.318,15.751-4.194s11.558,6.864,12.171,8.7-.2,2.756-2.966,2.756-5.932-3.058-8.591-2.756-.511,3.677-2.455,12.064-3.58,12.377-7.671,11.558-10.365-14.694-10.365-14.694" transform="translate(-81.93 -16.792)" fill="#f9b3a2"/>
        <path id="Trazado_156786" data-name="Trazado 156786" d="M374.32,76.806a90.76,90.76,0,0,0-24.29,15.551c-9.856,8.862-23.32,31.593-23.32,31.593s-11.047-10.028-21.676-15.747S276.5,94.9,276.5,94.9c1.755-4.922,3.6-9.991,5.744-14.876a93.289,93.289,0,0,1,4.346-8.813,52.087,52.087,0,0,1,7.855-10.482c.4-.442.822-.86,1.252-1.289a69.187,69.187,0,0,1,6.505-5.622c.012,0,.025-.012.037-.025,7.082-5.388,15.159-9.573,23.223-13.17.9-.405,8.616-3.609,8.616-3.609s11.464,7.954,19.638,16.827c11.661,12.667,20.608,22.965,20.608,22.965" transform="translate(-82.292 -11.016)" fill="#f57c64"/>
        <path id="Trazado_156787" data-name="Trazado 156787" d="M368.05,85.058a21.8,21.8,0,0,0-14.585-.2c-2.633.893-4.978,1.83-7.831,1.814-3.029-.018-5.441-.994-8.184-2.144a10.962,10.962,0,0,0-9.974.178,11.649,11.649,0,0,0-6.185,6.951c-1.212,3.6-1,7.423-1.636,11.123-.491,2.85-1.726,5.032-5,5.026a19.133,19.133,0,0,1-6.025-1.352c-6.6-2.281-14.795-5.266-20.749.037-.591.526.28,1.391.867.867,7.153-6.37,16.36.3,24.077,1.491,2.2.339,4.781.378,6.361-1.448,1.9-2.2,1.86-5.748,2.112-8.481.373-4.032.793-8.49,4.013-11.364a12.25,12.25,0,0,1,7.15-3.078c2.573-.1,4.771,1.4,7.094,2.279a17.584,17.584,0,0,0,11.159.407c2.851-.834,5.318-2.045,8.348-2.26a21.614,21.614,0,0,1,8.665,1.337c.748.259,1.07-.926.327-1.184" transform="translate(-85.621 -24.827)" fill="#fff"/>
        <path id="Trazado_156788" data-name="Trazado 156788" d="M371.15,60.727a.613.613,0,0,1-.454-.2c-.044-.048-4.438-4.879-7.1-7.493-4.164-4.1-7.057-6.542-7.086-6.566a.614.614,0,1,1,.791-.938c.029.025,2.956,2.5,7.156,6.629,2.684,2.639,7.1,7.494,7.146,7.542a.614.614,0,0,1-.454,1.027" transform="translate(-106.042 -13.507)" fill="#fff"/>
        <path id="Trazado_156789" data-name="Trazado 156789" d="M365.576,63.783a.613.613,0,0,1-.454-.2c-.044-.048-4.438-4.879-7.1-7.493-4.165-4.1-7.058-6.542-7.087-6.566a.614.614,0,1,1,.791-.938c.029.025,2.956,2.5,7.157,6.629,2.683,2.639,7.1,7.494,7.145,7.542a.614.614,0,0,1-.454,1.027" transform="translate(-104.383 -14.417)" fill="#fff"/>
        <path id="Trazado_156790" data-name="Trazado 156790" d="M360,66.839a.612.612,0,0,1-.454-.2c-.044-.048-4.439-4.879-7.1-7.493-4.164-4.1-7.058-6.542-7.087-6.566a.614.614,0,0,1,.791-.939c.029.025,2.956,2.5,7.156,6.63,2.683,2.637,7.1,7.494,7.146,7.542A.614.614,0,0,1,360,66.839" transform="translate(-102.724 -15.327)" fill="#fff"/>
        <path id="Trazado_156791" data-name="Trazado 156791" d="M354.428,69.895a.613.613,0,0,1-.454-.2c-.044-.048-4.438-4.879-7.1-7.493-4.164-4.1-7.057-6.542-7.086-6.566a.614.614,0,0,1,.791-.938c.029.025,2.956,2.5,7.156,6.629,2.684,2.639,7.1,7.494,7.146,7.542a.614.614,0,0,1-.454,1.027" transform="translate(-101.065 -16.236)" fill="#fff"/>
        <path id="Trazado_156792" data-name="Trazado 156792" d="M312.861,69.443c-2.762,0-6.371-3.191-9.034-2.885,2.05-2.013,2.177-4.68,6.505-5.621,3.008,2.087,5.118,4.639,5.486,5.757.614,1.828-.2,2.749-2.958,2.749" transform="translate(-90.427 -18.136)" fill="#f9b3a2"/>
        <path id="Trazado_156793" data-name="Trazado 156793" d="M142.941,4.219a4.219,4.219,0,1,1,4.219,4.219,4.219,4.219,0,0,1-4.219-4.219" transform="translate(-42.543)" fill="#a66353"/>
        <path id="Trazado_156794" data-name="Trazado 156794" d="M215.247,357.138h-9.488a9.509,9.509,0,0,1-9.4-8.223L192.344,319.1a2.685,2.685,0,0,1,.638-2.148,2.73,2.73,0,0,1,2.05-.933h16.263l.11,1.227H195.031a1.528,1.528,0,0,0-1.129.516,1.5,1.5,0,0,0-.343,1.179l.687,5.118.172,1.227,3.154,23.468a8.269,8.269,0,0,0,8.187,7.156h9.377Z" transform="translate(-57.238 -94.056)" fill="#2f3f4f"/>
        <path id="Trazado_156795" data-name="Trazado 156795" d="M212.766,328.693H194.294v-1.227h18.362Z" transform="translate(-57.827 -97.463)" fill="#2f3f4f"/>
        <path id="Trazado_156796" data-name="Trazado 156796" d="M197.117,217.78l-5.365,9.294h10.731Z" transform="translate(-57.07 -64.817)" fill="#fff"/>
        <path id="Trazado_156797" data-name="Trazado 156797" d="M147.537,255.084l-5.366,9.294H152.9Z" transform="translate(-42.314 -75.92)" fill="#fff"/>
        <path id="Trazado_156798" data-name="Trazado 156798" d="M112.8,204.548l-5.365,9.294h10.731Z" transform="translate(-31.975 -60.879)" fill="#fff"/>
        <path id="Trazado_156799" data-name="Trazado 156799" d="M192.53,112.6l-5.365,9.294h10.731Z" transform="translate(-55.705 -33.512)" fill="#fff"/>
        <path id="Trazado_156800" data-name="Trazado 156800" d="M160.589,174.139a5.447,5.447,0,1,0-5.447,5.447,5.446,5.446,0,0,0,5.447-5.447" transform="translate(-44.553 -50.207)" fill="#fff"/>
        <path id="Trazado_156801" data-name="Trazado 156801" d="M145.833,156.132h-4.143A1.688,1.688,0,0,0,140,157.82v2.608h7.518V157.82a1.688,1.688,0,0,0-1.688-1.688" transform="translate(-41.669 -46.469)" fill="#2f3f4f"/>
        <path id="Trazado_156802" data-name="Trazado 156802" d="M174.863,167.092h-1.892a1.33,1.33,0,0,1,0-2.659h1.892a1.33,1.33,0,1,1,0,2.659" transform="translate(-51.085 -48.94)" fill="#f57c64"/>
      </g>
    </g>
  </g>
</svg>
