<svg id="Grupo_169122" data-name="Grupo 169122" xmlns="http://www.w3.org/2000/svg" width="248.079" height="512.142" viewBox="0 0 248.079 512.142">
  <g id="Grupo_157493" data-name="Grupo 157493" transform="translate(0 0)">
    <path id="Trazado_114544" data-name="Trazado 114544" d="M188.109,512.885c33.13-15.029,67.488-35.308,80.831-69.223,14.808-37.638-.692-79.79-.32-120.249.3-32.051,10.654-63,18.8-94s14.136-63.924,5.727-94.847c-5.629-20.7-17.586-39.432-33.022-54.294C232.947,54.1,193.783,39.941,156.573,45.927S85.556,79.186,74.678,115.364c-15.412,51.257,14.694,105.972,8.3,159.121-2.5,20.8-10.516,40.464-15.95,60.691a249.261,249.261,0,0,0-8.515,66.031c.2,34.117,8.827,70.518,34.211,93.237C118.325,517.363,156.43,527.257,188.109,512.885Z" transform="translate(-53.491 -44.565)" fill="#fff7da"/>
    <g id="Grupo_157496" data-name="Grupo 157496" transform="translate(0 30.597)">
      <g id="Grupo_83653" data-name="Grupo 83653" transform="translate(75.29 43.878)">
        <path id="Trazado_117567" data-name="Trazado 117567" d="M480.835,109.848s-24.382,18.389-26.2,40.723c-2.746,33.8,35.7,19.013,39.927-2.535S480.835,109.848,480.835,109.848Z" transform="translate(-454.498 -109.848)"/>
      </g>
      <g id="Grupo_83654" data-name="Grupo 83654" transform="translate(187.758 206.642)">
        <path id="Trazado_117568" data-name="Trazado 117568" d="M512.867,179.328l12.794,40-19.167,2.253-7.631-33.519Z" transform="translate(-498.862 -179.328)" fill="#684c41"/>
      </g>
      <g id="Grupo_83662" data-name="Grupo 83662" transform="translate(22.902 180.587)">
        <path id="Trazado_117576" data-name="Trazado 117576" d="M471.453,193.2s-21.847,64.9-31.179,119.833,2.527,125.818,18.873,137.55,108.71,56.3,151.29-12.252,14.345-214.438-8.344-252.115C584.334,156.722,471.453,193.2,471.453,193.2Z" transform="translate(-436.984 -174.699)" fill="#393a6f"/>
      </g>
      <g id="Grupo_83663" data-name="Grupo 83663" transform="translate(26.844 75.238)">
        <path id="Trazado_117577" data-name="Trazado 117577" d="M465.493,261.2v16.977s43.025,9.859,78.336,7.324,48.511-8.733,48.511-8.733l15.008-86.192-45.114-63.488-36.893-2.986-89.954,65.207,21.969,59.574Z" transform="translate(-435.387 -124.106)" fill="#7772d3"/>
      </g>
      <g id="Grupo_83664" data-name="Grupo 83664" transform="translate(92.718)">
        <path id="Trazado_117578" data-name="Trazado 117578" d="M468.095,140.09a31.07,31.07,0,0,1-6.264-24.788c1.719-10.216,6.264-13.522,6.264-13.522s-6.923-13.943,13.687-13.1S514.52,99.649,514.52,99.649s9.42-4.626,13.646,6.358,0,27.191,0,27.191Z" transform="translate(-461.372 -88.647)"/>
      </g>
      <g id="Grupo_83665" data-name="Grupo 83665" transform="translate(85.546 110.693)">
        <path id="Trazado_117579" data-name="Trazado 117579" d="M458.543,216.4l16.694-77.742h58.045L520.2,220.994Z" transform="translate(-458.543 -138.662)" fill="#ada095"/>
      </g>
      <g id="Grupo_83666" data-name="Grupo 83666" transform="translate(83.409 108.661)">
        <path id="Trazado_117580" data-name="Trazado 117580" d="M521.457,302.6c-8.213,5.121-17.974,0-17.974,0s-24.92-36.86-37.443-85.229c-.2-.761-.38-1.521-.558-2.282a213.107,213.107,0,0,1-5.425-30.4c-.1-.685-.152-1.344-.228-2.028-1.141-12.3-1.826-22.537-2.13-31.054h9.456l2.789-12.954h6.769c.253,4.056.583,8.391,1.039,12.954.837,8.442,2.053,17.644,3.8,27.252A263.062,263.062,0,0,0,492.2,219.3q.76,2.206,1.6,4.411c21.421,56.354,31.917,63.1,31.917,63.1S530.457,296.951,521.457,302.6Z" transform="translate(-457.7 -138.662)" fill="#7c6053"/>
      </g>
      <g id="Grupo_83667" data-name="Grupo 83667" transform="translate(78.947 110.693)">
        <path id="Trazado_117581" data-name="Trazado 117581" d="M530.674,138.662,517.593,221,494.9,219.3l-26.162-1.927-12.8-.963.837-3.853,5.982-27.86,7.1-33.083,2.789-12.954Z" transform="translate(-455.94 -138.662)" fill="#c3b8ae"/>
      </g>
      <g id="Grupo_83668" data-name="Grupo 83668" transform="translate(56.4 122.976)">
        <path id="Trazado_117582" data-name="Trazado 117582" d="M447.046,197.854l14.65-54.081H511.36l-14.039,65.219Z" transform="translate(-447.046 -143.773)" fill="#f4eab3"/>
      </g>
      <g id="Grupo_83669" data-name="Grupo 83669" transform="translate(48.805 122.976)">
        <path id="Trazado_117583" data-name="Trazado 117583" d="M508.365,143.772l-5.856,27.252L494.346,209l-7.909-1.749-11.408-2.535-30.979-6.87L458.7,143.772Z" transform="translate(-444.05 -143.772)" fill="#fefce5"/>
      </g>
      <g id="Grupo_83670" data-name="Grupo 83670" transform="translate(47.969 164.089)">
        <path id="Trazado_117584" data-name="Trazado 117584" d="M454.149,163.163s18.63-1.929,22.572-1.929,9.25,9.253,9.25,9.253l11.816,3.412-13.507,37.993s-28.1,3.653-39.717-9.859C440.206,196.963,454.149,163.163,454.149,163.163Z" transform="translate(-443.72 -161.234)" fill="#f27e64"/>
      </g>
      <g id="Grupo_83671" data-name="Grupo 83671" transform="translate(0 77.179)">
        <path id="Trazado_117585" data-name="Trazado 117585" d="M541.6,124.773s-35.311.844-71.083,30.7-51.264,59.432-43.94,85.348,53.236,27.039,53.236,27.039l13.52-53.518-35.349-23.1Z" transform="translate(-424.798 -124.773)" fill="#7772d3"/>
      </g>
      <g id="Grupo_83672" data-name="Grupo 83672" transform="translate(63.462 166.446)">
        <path id="Trazado_117586" data-name="Trazado 117586" d="M522.221,170.614s-10.987-5.869-16.339-7.268a30.806,30.806,0,0,0-8.888-1.075l-1.7,7.884s-17.583,3.838-29.977,10.034-10.14,11.831-10.14,11.831-7.886,5.07-4.507,8.449,16.338,0,16.338,0-16.338,6.2-9.577,9.859,21.652,2.535,21.652,2.535,32.429,5.635,43.134-5.633S522.221,170.614,522.221,170.614Z" transform="translate(-449.832 -162.253)" fill="#ff9280"/>
      </g>
      <g id="Grupo_83676" data-name="Grupo 83676" transform="translate(110.27 57.777)">
        <g id="Grupo_83675" data-name="Grupo 83675">
          <g id="Grupo_83674" data-name="Grupo 83674">
            <g id="Grupo_83673" data-name="Grupo 83673">
              <path id="Trazado_117587" data-name="Trazado 117587" d="M502.712,115.64l-.631,25.158s-4.718,7.118-19.467,7.947c-10.987.616-14.318-5.1-14.318-5.1l3.21-21.948,26.724-5.179Z" transform="translate(-468.296 -115.64)" fill="#f27e64"/>
            </g>
          </g>
        </g>
      </g>
      <g id="Grupo_83677" data-name="Grupo 83677" transform="translate(119.512 76.868)">
        <path id="Trazado_117588" data-name="Trazado 117588" d="M495.039,124.773s61.123,2.254,91.826,51.545,6.479,93.8-41.687,102.812-73.235-4.226-73.235-4.226l11.476-56.053,24.7-3.661,24.152-29.437Z" transform="translate(-471.942 -124.773)" fill="#7772d3"/>
      </g>
      <g id="Grupo_83678" data-name="Grupo 83678" transform="translate(83.163 81.018)">
        <path id="Trazado_117589" data-name="Trazado 117589" d="M476.862,158.633h-6.768L467.3,171.587h-9.456c-1.369-36.049,3.422-41.4,3.422-41.4l15.211-4.538A292.79,292.79,0,0,0,476.862,158.633Z" transform="translate(-457.603 -125.652)" fill="#7f6754"/>
      </g>
      <g id="Grupo_83682" data-name="Grupo 83682" transform="translate(111.66 66.891)">
        <g id="Grupo_83681" data-name="Grupo 83681" transform="translate(0)">
          <g id="Grupo_83680" data-name="Grupo 83680">
            <g id="Grupo_83679" data-name="Grupo 83679">
              <path id="Trazado_117590" data-name="Trazado 117590" d="M501.871,115.034a8.312,8.312,0,0,1-.791,2.411c-5.945,12.424-25.888,17.157-32.236,17.565l1.82-12.386Z" transform="translate(-468.844 -115.034)"/>
            </g>
          </g>
        </g>
      </g>
      <g id="Grupo_83686" data-name="Grupo 83686" transform="translate(99.087 8.02)">
        <g id="Grupo_83685" data-name="Grupo 83685">
          <g id="Grupo_83684" data-name="Grupo 83684">
            <g id="Grupo_83683" data-name="Grupo 83683">
              <path id="Trazado_117591" data-name="Trazado 117591" d="M474.1,100.783S460.11,132,464.874,149.654s20.838,15.038,30.469,11.727,14.146-9.157,14.146-9.157a13.536,13.536,0,0,0,15.015-5.154c6.076-8.282,2.476-17.893-2.624-20.136s-11.223,1.394-11.223,1.394l4.86-9.063S495.883,72.781,474.1,100.783Z" transform="translate(-463.885 -91.811)" fill="#f27e64"/>
            </g>
          </g>
        </g>
      </g>
      <g id="Grupo_83690" data-name="Grupo 83690" transform="translate(104.677 3.453)">
        <g id="Grupo_83689" data-name="Grupo 83689" transform="translate(0)">
          <g id="Grupo_83688" data-name="Grupo 83688">
            <g id="Grupo_83687" data-name="Grupo 83687">
              <path id="Trazado_117592" data-name="Trazado 117592" d="M507.273,131.093s-13.479,2.72-22.843-12.28-8.5-21.16-8.5-21.16L466.6,113.14s-2.084-10.739,2.211-17.583,8.751-5.425,8.751-5.425l29.721,7.425,7.826,23.822Z" transform="translate(-466.09 -90.01)"/>
            </g>
          </g>
        </g>
      </g>
      <g id="Grupo_83691" data-name="Grupo 83691" transform="translate(108.954 41.953)">
        <path id="Trazado_117593" data-name="Trazado 117593" d="M469.2,120.027a.954.954,0,0,1-.91-.672c-2.046-6.685,2.682-13.471,2.885-13.758a.951.951,0,1,1,1.551,1.1c-.043.063-4.389,6.317-2.619,12.1a.948.948,0,0,1-.908,1.227Z" transform="translate(-467.777 -105.197)"/>
      </g>
      <g id="Grupo_83692" data-name="Grupo 83692" transform="translate(146.202 48.295)">
        <path id="Trazado_117594" data-name="Trazado 117594" d="M483.422,118.6a.952.952,0,0,1-.692-1.6l8.541-9a.952.952,0,0,1,1.382,1.311l-8.541,9A.946.946,0,0,1,483.422,118.6Z" transform="translate(-482.47 -107.699)"/>
      </g>
      <g id="Grupo_83693" data-name="Grupo 83693" transform="translate(149.336 53.987)">
        <path id="Trazado_117595" data-name="Trazado 117595" d="M490.542,112.759a.956.956,0,0,1-.144-.013l-5.889-.91a.947.947,0,0,1-.791-1.083.933.933,0,0,1,1.085-.8l5.886.91a.951.951,0,0,1-.147,1.891Z" transform="translate(-483.707 -109.945)"/>
      </g>
      <g id="Grupo_83694" data-name="Grupo 83694" transform="translate(115.848 56.361)">
        <path id="Trazado_117596" data-name="Trazado 117596" d="M476.682,120.466a17.407,17.407,0,0,1-5.577-1.138.95.95,0,0,1-.243-1.635l8.419-6.609a.95.95,0,0,1,1.43.312c.1.2,2.442,4.817-.137,7.681A5.075,5.075,0,0,1,476.682,120.466Zm-3.23-2.391c1.944.5,4.662.887,5.709-.271,1.113-1.24.713-3.22.3-4.447Z" transform="translate(-470.496 -110.881)"/>
      </g>
      <g id="Grupo_83695" data-name="Grupo 83695" transform="translate(103.391 28.248)">
        <path id="Trazado_117597" data-name="Trazado 117597" d="M466.532,102.657a.951.951,0,0,1-.162-1.889l5.567-.968a.952.952,0,0,1,.327,1.876l-5.57.968A1.206,1.206,0,0,1,466.532,102.657Z" transform="translate(-465.582 -99.79)"/>
      </g>
      <g id="Grupo_83696" data-name="Grupo 83696" transform="translate(117.4 28.248)">
        <path id="Trazado_117598" data-name="Trazado 117598" d="M481.187,106.314a.939.939,0,0,1-.431-.1l-9.129-4.624a.95.95,0,1,1,.862-1.693l9.129,4.621a.952.952,0,0,1-.431,1.8Z" transform="translate(-471.108 -99.789)"/>
      </g>
      <g id="Grupo_83697" data-name="Grupo 83697" transform="translate(140.23 43.809)">
        <path id="Trazado_117599" data-name="Trazado 117599" d="M502.772,109.848s19.439,16.851,16.693,44.313-29.98,23.939-35.7,13.917c-8.665-15.185.809-43.542.809-43.542S501.274,127.332,502.772,109.848Z" transform="translate(-480.114 -109.848)"/>
      </g>
      <g id="Grupo_83698" data-name="Grupo 83698" transform="translate(103.39 34.294)">
        <path id="Trazado_117600" data-name="Trazado 117600" d="M466.532,111.862a.979.979,0,0,1-.279-.043.949.949,0,0,1-.629-1.186l1.589-5.174-1.417-1.731a.95.95,0,1,1,1.471-1.2l1.739,2.124a.943.943,0,0,1,.172.88l-1.739,5.658A.949.949,0,0,1,466.532,111.862Z" transform="translate(-465.582 -102.176)"/>
      </g>
      <g id="Grupo_83699" data-name="Grupo 83699" transform="translate(118.562 35.137)">
        <path id="Trazado_117601" data-name="Trazado 117601" d="M473.18,112.87a.975.975,0,0,1-.279-.041.951.951,0,0,1-.629-1.189l1.584-5.159-2.061-2.406a.95.95,0,0,1,1.445-1.235l2.4,2.8a.948.948,0,0,1,.185.895l-1.739,5.658A.948.948,0,0,1,473.18,112.87Z" transform="translate(-471.567 -102.509)"/>
      </g>
      <g id="Grupo_83700" data-name="Grupo 83700" transform="translate(71.524 169.751)">
        <path id="Trazado_117602" data-name="Trazado 117602" d="M471.708,168.458a.883.883,0,0,1-.18-.018l-17.745-3.379a.948.948,0,0,1-.753-1.113.937.937,0,0,1,1.11-.753l17.745,3.379a.95.95,0,0,1-.177,1.884Z" transform="translate(-453.012 -163.175)"/>
      </g>
      <g id="Grupo_83701" data-name="Grupo 83701" transform="translate(107.978 171.33)">
        <path id="Trazado_117603" data-name="Trazado 117603" d="M468.343,168.665a.95.95,0,0,1-.271-1.861l9.882-2.923a.95.95,0,0,1,.538,1.823l-9.88,2.923A.975.975,0,0,1,468.343,168.665Z" transform="translate(-467.392 -163.843)"/>
      </g>
      <g id="Grupo_83702" data-name="Grupo 83702" transform="translate(68.609 186.614)">
        <path id="Trazado_117604" data-name="Trazado 117604" d="M452.813,179.572a.952.952,0,0,1-.264-1.866l25.166-7.271a.95.95,0,0,1,.53,1.825l-25.166,7.273A.981.981,0,0,1,452.813,179.572Z" transform="translate(-451.862 -170.398)"/>
      </g>
      <g id="Grupo_83703" data-name="Grupo 83703" transform="translate(78.001 198.158)">
        <path id="Trazado_117605" data-name="Trazado 117605" d="M456.517,181.805a.951.951,0,0,1-.266-1.863l15.773-4.616a.949.949,0,1,1,.532,1.823l-15.77,4.619A.9.9,0,0,1,456.517,181.805Z" transform="translate(-455.567 -175.287)"/>
      </g>
      <g id="Grupo_83704" data-name="Grupo 83704" transform="translate(109.323 83.172)">
        <path id="Trazado_117606" data-name="Trazado 117606" d="M483.419,133.2a23.506,23.506,0,0,1-15.2-5.253.951.951,0,0,1,1.308-1.382c.449.426,11.268,10.292,28.839.431a.951.951,0,0,1,.93,1.658A32.269,32.269,0,0,1,483.419,133.2Z" transform="translate(-467.922 -126.312)" fill="#fff"/>
      </g>
      <g id="Grupo_83705" data-name="Grupo 83705" transform="translate(154.743 156.249)">
        <path id="Trazado_117607" data-name="Trazado 117607" d="M486.79,165.974a.951.951,0,0,1-.185-1.884c.335-.068,33.709-6.637,53.016-6.637a.951.951,0,0,1,0,1.9c-19.119,0-52.314,6.533-52.646,6.6A.966.966,0,0,1,486.79,165.974Z" transform="translate(-485.839 -157.454)" fill="#fff"/>
      </g>
      <g id="Grupo_83706" data-name="Grupo 83706" transform="translate(182.845 144.342)">
        <path id="Trazado_117608" data-name="Trazado 117608" d="M497.876,169.051a.948.948,0,0,1-.75-1.534c1.455-1.871,14.425-18.176,21.274-14.534a2.377,2.377,0,0,1,1.48,2.274c-.22,4.54-16.619,11.651-21.644,13.722A.939.939,0,0,1,497.876,169.051Zm18.263-14.706c-3.858,0-10.323,5.922-15.033,11.334,8.6-3.838,16.779-8.515,16.876-10.515.005-.058.013-.241-.477-.5A2.864,2.864,0,0,0,516.139,154.346Z" transform="translate(-496.924 -152.455)" fill="#fff"/>
      </g>
      <g id="Grupo_83707" data-name="Grupo 83707" transform="translate(32.23 140.047)">
        <path id="Trazado_117609" data-name="Trazado 117609" d="M460.348,166.822a.944.944,0,0,1-.684-.292c-.112-.114-11.256-11.6-21.424-14.034a.952.952,0,0,1,.446-1.851c10.708,2.573,21.878,14.08,22.349,14.567a.947.947,0,0,1-.028,1.343A.931.931,0,0,1,460.348,166.822Z" transform="translate(-437.512 -150.62)" fill="#fff"/>
      </g>
      <g id="Grupo_83708" data-name="Grupo 83708" transform="translate(36.42 132.364)">
        <path id="Trazado_117610" data-name="Trazado 117610" d="M446.867,162.209a.953.953,0,0,1-.669-.276c-.745-.738-7.26-7.326-7.027-11.557a3.249,3.249,0,0,1,1.232-2.449,2.3,2.3,0,0,1,2.37-.431c3.151,1.27,4.652,10.759,5.037,13.636a.95.95,0,0,1-.943,1.077Zm-4.908-12.974a.631.631,0,0,0-.373.18,1.36,1.36,0,0,0-.517,1.065c-.114,2.051,2.292,5.392,4.35,7.8-.844-4.411-2.175-8.546-3.356-9.025A.262.262,0,0,0,441.959,149.235Z" transform="translate(-439.165 -147.333)" fill="#fff"/>
      </g>
      <g id="Grupo_83711" data-name="Grupo 83711" transform="translate(126.987 252.626)">
        <path id="Trazado_117613" data-name="Trazado 117613" d="M477.095,209.053s-4.188,64.776-1.019,68.155,18.98,4.507,18.98,4.507l9.02-33.237L484.88,199.6Z" transform="translate(-474.89 -199.605)" fill="#684c41"/>
      </g>
      <g id="Grupo_83713" data-name="Grupo 83713" transform="translate(129.184 230.619)">
        <path id="Trazado_117615" data-name="Trazado 117615" d="M475.757,214.535s5.539,45.35,8.356,45.35,98.024-17.464,100.278-19.718-5.633-49.01-9.578-50.138-92.953,15.21-92.953,15.21Z" transform="translate(-475.757 -189.973)" fill="#7c6053"/>
      </g>
      <g id="Grupo_83714" data-name="Grupo 83714" transform="translate(136.977 273.002)">
        <path id="Trazado_117616" data-name="Trazado 117616" d="M573.473,207.995s8.682,39.435,6.6,41.124-87.082,19.718-91.062,19.718-10.176-49.01-10.176-49.01Z" transform="translate(-478.831 -207.995)" fill="#7c6053"/>
      </g>
      <g id="Grupo_83715" data-name="Grupo 83715" transform="translate(159.333 279.475)">
        <path id="Trazado_117617" data-name="Trazado 117617" d="M488.6,226.116a.951.951,0,0,1-.188-1.884l70.209-14.145a.929.929,0,0,1,1.12.743.949.949,0,0,1-.743,1.12L488.789,226.1A.826.826,0,0,1,488.6,226.116Z" transform="translate(-487.65 -210.062)" fill="#fff"/>
      </g>
      <g id="Grupo_83716" data-name="Grupo 83716" transform="translate(134.82 250.243)">
        <path id="Trazado_117618" data-name="Trazado 117618" d="M483.39,208.343a5.407,5.407,0,1,1,5.407-5.407A5.414,5.414,0,0,1,483.39,208.343Zm0-8.913a3.506,3.506,0,1,0,3.506,3.506A3.512,3.512,0,0,0,483.39,199.43Z" transform="translate(-477.98 -197.529)" fill="#fff"/>
      </g>
    </g>
  </g>
</svg>
