<svg xmlns="http://www.w3.org/2000/svg" xmlns:xlink="http://www.w3.org/1999/xlink" width="293" height="321.112" viewBox="0 0 293 321.112">
  <defs>
    <clipPath id="clip-path">
      <rect id="Rectángulo_40775" data-name="Rectángulo 40775" width="293" height="291" transform="translate(0 0)" fill="none" stroke="#707070" stroke-width="1"/>
    </clipPath>
  </defs>
  <g id="Grupo_169130" data-name="Grupo 169130" transform="translate(-180 -3507)">
    <g id="Enmascarar_grupo_193" data-name="Enmascarar grupo 193" transform="translate(180 3507)" clip-path="url(#clip-path)">
      <path id="Trazado_125318" data-name="Trazado 125318" d="M.548,205.481c2.934-24.688,16.512-46.776,22.839-70.82,4.738-18,5.335-36.79,7.665-55.257S37.74,42.082,48.808,27.115C63.559,7.17,90.028-3.373,114.452.967s45.641,23.357,52.617,47.164c9,30.7-4.655,63.274-3.9,95.257.419,17.754,5.287,35.059,8.225,52.574s3.817,36.152-3.336,52.408c-9.562,21.728-32.317,35.5-55.673,39.751-23.239,4.225-47.537.085-70.592-3.629C23.251,281.5,10.862,259.673,5.076,243.548A83.9,83.9,0,0,1,.548,205.481Z" transform="translate(168.48 -5.104) rotate(40)" fill="#a6bbff"/>
    </g>
    <g id="Grupo_165271" data-name="Grupo 165271" transform="translate(181.463 3528.038)">
      <path id="Trazado_117051" data-name="Trazado 117051" d="M1913.34,1140.661c-30.047-13.183-38.6,10.689-37.885,61.283s3.207,95.642-26.009,70.8c0,0,3.563,18.628,25.3,20.053,0,0-13.539,10.332-25.3,2.138,0,0-4.632,30.285,28.5,46.318s84.8,6.77,92.281-29.572-19.987-149.955-19.987-149.955Z" transform="translate(-1797.431 -1133.856)" fill="#6a2810"/>
      <path id="Trazado_117052" data-name="Trazado 117052" d="M1951.413,1145c-8.819-12.56-21.378-5.612-25.119,7.749s10.318,27.257,10.318,27.257Z" transform="translate(-1826.804 -1134.365)" fill="#3cac96"/>
      <path id="Trazado_117053" data-name="Trazado 117053" d="M1938.117,1399.832l1.121,45.175,1.5,60.644.015.735.646-.022.066-.713h103.392c5.307-19.478.9-38.628-8.046-58.351a119.494,119.494,0,0,1-10.333-50.676s-2.642-1.187-9.375-2.13c-6.57-.912-17.02-1.6-32.7-.72a324.306,324.306,0,0,0-33.232,3.4A117.907,117.907,0,0,0,1938.117,1399.832Z" transform="translate(-1831.59 -1232.338)" fill="#955027"/>
      <path id="Trazado_117054" data-name="Trazado 117054" d="M1854.176,1508.028h54.306l.015.735.646-.022.066-.713,4.261-47.7,5.441-60.778a117.925,117.925,0,0,0-13.049,2.658s-17.815,0-24.584,16.034C1875.234,1432.546,1857.858,1494.764,1854.176,1508.028Z" transform="translate(-1799.334 -1234.715)" fill="#955027"/>
      <path id="Trazado_117055" data-name="Trazado 117055" d="M2066.4,1395.2l17.235,111.157h62.523c-9.828-17.882-36.365-66.361-46.155-86.224-12.114-24.584-24.228-22.8-24.228-22.8S2073.131,1396.142,2066.4,1395.2Z" transform="translate(-1880.885 -1233.042)" fill="#955027"/>
      <path id="Trazado_117056" data-name="Trazado 117056" d="M1939.937,1477.236l1.5,60.644.015.735.646-.022.066-.713h11.453c1.44-16.419-1.959-34.263-7.192-47.7A68.654,68.654,0,0,0,1939.937,1477.236Z" transform="translate(-1832.29 -1264.566)" fill="#703316"/>
      <path id="Trazado_117057" data-name="Trazado 117057" d="M1683.1,1576.146h288.189c.454,0,.823-.5.823-1.114s-.369-1.113-.823-1.113H1683.1c-.454,0-.823.5-.823,1.113S1682.649,1576.146,1683.1,1576.146Z" transform="translate(-1682.28 -1301.719)" fill="#6a2810"/>
      <path id="Trazado_117058" data-name="Trazado 117058" d="M1942.76,1387.773c0,11.659,19.566,27.791,43.7,27.791s43.7-16.132,43.7-27.791-19.565-14.43-43.7-14.43S1942.76,1376.114,1942.76,1387.773Z" transform="translate(-1833.374 -1224.644)" fill="#703316"/>
      <path id="Trazado_117059" data-name="Trazado 117059" d="M1942.76,1384.157c0,11.659,19.566,27.791,43.7,27.791s43.7-16.132,43.7-27.791-19.565-14.429-43.7-14.429S1942.76,1372.5,1942.76,1384.157Z" transform="translate(-1833.374 -1223.254)" fill="#955027"/>
      <path id="Trazado_117060" data-name="Trazado 117060" d="M1961.029,1393.762c0,8.658,32.453,20.638,32.453,20.638s32.452-11.98,32.452-20.638-14.529-10.716-32.452-10.716S1961.029,1385.1,1961.029,1393.762Z" transform="translate(-1840.395 -1228.372)" fill="#703316"/>
      <path id="Trazado_117061" data-name="Trazado 117061" d="M1979.165,1359.494c.327,12.426,21.289,22.848,21.289,22.848,19.656-10.859,19.173-24.918,19.173-24.918-2.145-1.47-3.4-7.49-4.135-14.044-1.032-9.226-1.032-19.477-1.032-19.477l-33.848-18.49c.4,5.455.7,10.362.921,14.771C1983.3,1356.881,1979.165,1359.494,1979.165,1359.494Z" transform="translate(-1847.364 -1198.54)" fill="#ffaf82"/>
      <path id="Trazado_117062" data-name="Trazado 117062" d="M1981.516,1305.412c.4,5.455.705,10.362.921,14.771,7.082,12.574,18.542,26.261,33.959,23.2-1.031-9.226-1.031-19.477-1.031-19.477Z" transform="translate(-1848.267 -1198.54)" fill="#fe976a"/>
      <path id="Trazado_117063" data-name="Trazado 117063" d="M1882.806,1554.1c15.2.334,26.8,17.891,11.3,38.873a2.879,2.879,0,0,1-5.17-1.5,16.47,16.47,0,0,1,.278-4.6s-3.919,4.454-6.413-.178c0,0-1.6,3.919-6.057.535,0,0-1.781,4.988-6.948,1.96s-10.155-19.953-4.988-28.326S1882.806,1554.1,1882.806,1554.1Z" transform="translate(-1802.585 -1294.057)" fill="#ffaf82"/>
      <path id="Trazado_117064" data-name="Trazado 117064" d="M1881.75,1597.627a1.113,1.113,0,0,0,.939-1.71c-4.41-6.955-4.812-16.628-4.816-16.725a1.113,1.113,0,0,0-2.225.08c.015.419.422,10.363,5.16,17.836A1.115,1.115,0,0,0,1881.75,1597.627Z" transform="translate(-1807.585 -1303.332)" fill="#fe976a"/>
      <path id="Trazado_117065" data-name="Trazado 117065" d="M1893.968,1595.426a1.088,1.088,0,0,0,.219-.022,1.113,1.113,0,0,0,.874-1.31,64.2,64.2,0,0,1-.756-19.046,1.113,1.113,0,0,0-2.2-.308,65.4,65.4,0,0,0,.777,19.79A1.113,1.113,0,0,0,1893.968,1595.426Z" transform="translate(-1813.749 -1301.666)" fill="#fe976a"/>
      <path id="Trazado_117066" data-name="Trazado 117066" d="M1905.114,1595.939a1.113,1.113,0,0,0,1-.616c3.147-6.293,1.429-19.166,1.354-19.711a1.113,1.113,0,1,0-2.206.3c.017.126,1.7,12.735-1.14,18.413a1.113,1.113,0,0,0,.995,1.611Z" transform="translate(-1818.48 -1301.999)" fill="#fe976a"/>
      <path id="Trazado_117067" data-name="Trazado 117067" d="M2138.383,1554.1c-15.2.334-26.8,17.891-11.3,38.874a2.879,2.879,0,0,0,5.169-1.5,16.455,16.455,0,0,0-.278-4.6s3.919,4.454,6.414-.179c0,0,1.6,3.919,6.057.535,0,0,1.781,4.988,6.948,1.96s10.154-19.953,4.988-28.326S2138.383,1554.1,2138.383,1554.1Z" transform="translate(-1901.385 -1294.057)" fill="#ffaf82"/>
      <path id="Trazado_117068" data-name="Trazado 117068" d="M2159.155,1597.629a1.114,1.114,0,0,0,.942-.518c4.739-7.473,5.144-17.417,5.16-17.836a1.114,1.114,0,0,0-2.226-.08c0,.1-.406,9.77-4.815,16.724a1.113,1.113,0,0,0,.939,1.71Z" transform="translate(-1916.101 -1303.334)" fill="#fe976a"/>
      <path id="Trazado_117069" data-name="Trazado 117069" d="M2149.32,1595.426a1.115,1.115,0,0,0,1.091-.9,65.394,65.394,0,0,0,.777-19.79,1.113,1.113,0,1,0-2.2.307,64.4,64.4,0,0,1-.757,19.046,1.113,1.113,0,0,0,.873,1.311A1.157,1.157,0,0,0,2149.32,1595.426Z" transform="translate(-1912.321 -1301.666)" fill="#fe976a"/>
      <path id="Trazado_117070" data-name="Trazado 117070" d="M2137.8,1595.939a1.114,1.114,0,0,0,.995-1.612c-2.839-5.678-1.156-18.287-1.14-18.414a1.113,1.113,0,0,0-2.206-.3c-.074.545-1.792,13.418,1.354,19.711A1.114,1.114,0,0,0,2137.8,1595.939Z" transform="translate(-1907.213 -1301.999)" fill="#fe976a"/>
      <circle id="Elipse_4806" data-name="Elipse 4806" cx="2.827" cy="2.827" r="2.827" transform="translate(127.959 176.813)" fill="#703316"/>
      <circle id="Elipse_4807" data-name="Elipse 4807" cx="2.827" cy="2.827" r="2.827" transform="translate(171.426 177.821)" fill="#703316"/>
      <path id="Trazado_117071" data-name="Trazado 117071" d="M2046.806,1477.8a1.856,1.856,0,0,0,1.856-1.856V1425.71a1.856,1.856,0,0,0-3.712,0v50.238A1.856,1.856,0,0,0,2046.806,1477.8Z" transform="translate(-1872.643 -1244.053)" fill="#3cac96"/>
      <path id="Trazado_117072" data-name="Trazado 117072" d="M2043.625,1506.971c0,2.213,1.236,4.008,2.761,4.008s2.761-1.8,2.761-4.008-1.236-4.009-2.761-4.009S2043.625,1504.756,2043.625,1506.971Z" transform="translate(-1872.134 -1274.452)" fill="#fff"/>
      <path id="Trazado_117073" data-name="Trazado 117073" d="M1976.319,1476.165a1.856,1.856,0,0,0,1.856-1.856v-50.238a1.856,1.856,0,0,0-3.712,0v50.238A1.856,1.856,0,0,0,1976.319,1476.165Z" transform="translate(-1845.557 -1243.424)" fill="#3cac96"/>
      <path id="Trazado_117074" data-name="Trazado 117074" d="M1973.138,1505.33c0,2.214,1.235,4.008,2.76,4.008s2.762-1.795,2.762-4.008-1.236-4.008-2.762-4.008S1973.138,1503.117,1973.138,1505.33Z" transform="translate(-1845.048 -1273.822)" fill="#fff"/>
      <path id="Trazado_117075" data-name="Trazado 117075" d="M2036.21,1201.661c12.2-13.845,8.106-32.017,0-44.131s-23.427-11.045-23.427-11.045-16.39-22.447-51.306-11.758c-33.721,10.323-38.47,64.867-18.153,89.43S2036.21,1201.661,2036.21,1201.661Z" transform="translate(-1828.941 -1131.842)" fill="#6a2810"/>
      <path id="Trazado_117076" data-name="Trazado 117076" d="M1965.517,1235.74c2.168,26.895,17.864,46.32,50.442,46.32,31.146,0,37.6-33.953,33.268-64.119-1.9-13.315-5.909-25.9-10.818-34.488,0,0-59.325-23.244-69.744,19.244A104.862,104.862,0,0,0,1965.517,1235.74Z" transform="translate(-1842.019 -1149.236)" fill="#ffaf82"/>
      <path id="Trazado_117077" data-name="Trazado 117077" d="M1963.067,1288.234c-4.588,14.161-29.744,10.032-31.262-5.867-1.473-15.424,16.082-22.005,27.613-11.856S1963.067,1288.234,1963.067,1288.234Z" transform="translate(-1829.131 -1183.259)" fill="#ffaf82"/>
      <path id="Trazado_117078" data-name="Trazado 117078" d="M1950.182,1291.859a1.11,1.11,0,0,0,.9-.453c.221-.3,5.364-7.4,2.3-13.289a1.114,1.114,0,0,0-1.976,1.028c2.423,4.657-2.071,10.878-2.117,10.94a1.114,1.114,0,0,0,.9,1.772Z" transform="translate(-1835.799 -1187.822)" fill="#fe976a"/>
      <path id="Trazado_117079" data-name="Trazado 117079" d="M1959.1,1290.216a26.047,26.047,0,0,0,5.721-.667,1.113,1.113,0,0,0-.539-2.161c-.054.013-5.445,1.326-9.261.027a1.113,1.113,0,0,0-.718,2.108A15.094,15.094,0,0,0,1959.1,1290.216Z" transform="translate(-1837.52 -1191.601)" fill="#fe976a"/>
      <path id="Trazado_117080" data-name="Trazado 117080" d="M2049.3,1312.367a14.254,14.254,0,0,0,11.776-6.069,1.114,1.114,0,1,0-1.771-1.35c-7.71,10.121-19.476,2.518-19.973,2.189a1.113,1.113,0,0,0-1.232,1.855A22.892,22.892,0,0,0,2049.3,1312.367Z" transform="translate(-1869.82 -1198.193)" fill="#6a2810"/>
      <path id="Trazado_117081" data-name="Trazado 117081" d="M2009.383,1287.712a6.38,6.38,0,0,0,4.576-1.954,8.6,8.6,0,0,0,1.153-10.177,8.1,8.1,0,0,0-7.809-4.624,7.717,7.717,0,0,0-6.716,5.12,1.114,1.114,0,0,0,2.1.737,5.489,5.489,0,0,1,4.781-3.637,5.875,5.875,0,0,1,5.676,3.446,6.39,6.39,0,0,1-.768,7.567,4.217,4.217,0,0,1-5.212.721,3.018,3.018,0,0,1-1.828-2.629,3.709,3.709,0,0,1,1.505-3.117.937.937,0,0,1,1.031-.122,1.113,1.113,0,0,0,1.047-1.965,3.193,3.193,0,0,0-3.264.2,5.935,5.935,0,0,0-2.544,5.1,5.234,5.234,0,0,0,3.027,4.513A7.045,7.045,0,0,0,2009.383,1287.712Z" transform="translate(-1855.571 -1185.291)" fill="#fe976a"/>
      <path id="Trazado_117082" data-name="Trazado 117082" d="M2086.873,1276.478a6.385,6.385,0,0,0,4.575-1.953,8.6,8.6,0,0,0,1.153-10.179,8.1,8.1,0,0,0-7.809-4.623,7.719,7.719,0,0,0-6.717,5.12,1.114,1.114,0,0,0,2.1.737,5.488,5.488,0,0,1,4.782-3.637,5.881,5.881,0,0,1,5.674,3.446,6.39,6.39,0,0,1-.767,7.567,4.217,4.217,0,0,1-5.212.722,3.02,3.02,0,0,1-1.827-2.629,3.709,3.709,0,0,1,1.5-3.118.937.937,0,0,1,1.032-.121,1.113,1.113,0,1,0,1.047-1.965,3.189,3.189,0,0,0-3.264.2,5.937,5.937,0,0,0-2.545,5.094,5.235,5.235,0,0,0,3.028,4.514A7.029,7.029,0,0,0,2086.873,1276.478Z" transform="translate(-1885.348 -1180.974)" fill="#fe976a"/>
      <path id="Trazado_117083" data-name="Trazado 117083" d="M2057.813,1277.654a1.114,1.114,0,0,0,.63-.2l9.717-6.691a1.114,1.114,0,0,0,.285-1.55l-9.717-14.073a1.113,1.113,0,1,0-1.832,1.265l9.083,13.156-8.8,6.058a1.114,1.114,0,0,0,.632,2.032Z" transform="translate(-1877.157 -1179.038)" fill="#6a2810"/>
      <path id="Trazado_117084" data-name="Trazado 117084" d="M2018.667,1249.834c0,2.994-1.2,4.68-2.69,4.68s-2.69-1.685-2.69-4.68,1.2-4.6,2.69-4.6S2018.667,1246.841,2018.667,1249.834Z" transform="translate(-1860.475 -1175.416)" fill="#6a2810"/>
      <path id="Trazado_117085" data-name="Trazado 117085" d="M1965.517,1235.74c25.063.929,35.41-40.507,35.41-40.507s31.6,30.979,48.3,22.708c-1.9-13.315-5.909-25.9-10.818-34.488,0,0-59.325-23.244-69.744,19.244A104.862,104.862,0,0,0,1965.517,1235.74Z" transform="translate(-1842.019 -1149.236)" fill="#fe976a"/>
      <path id="Trazado_117086" data-name="Trazado 117086" d="M2047.078,1210.024c-16.546,9.28-48.866-22.411-48.866-22.411s-10.6,42.438-36.321,40.458c0,0-11.316-9.461-1.149-40.458s69.747-24.05,78.438-10.154S2047.078,1210.024,2047.078,1210.024Z" transform="translate(-1838.655 -1144.845)" fill="#6a2810"/>
      <path id="Trazado_117087" data-name="Trazado 117087" d="M2105.755,1539.731a1.114,1.114,0,0,0,1.074-.821c4.788-17.571,2.213-36.351-8.106-59.1a1.114,1.114,0,0,0-2.028.92c10.093,22.253,12.63,40.556,7.986,57.6a1.114,1.114,0,0,0,1.075,1.406Z" transform="translate(-1892.488 -1265.303)" fill="#6a2810"/>
      <path id="Trazado_117088" data-name="Trazado 117088" d="M2077.745,1242.3c0,2.994-1.2,4.68-2.69,4.68s-2.69-1.685-2.69-4.68,1.2-4.6,2.69-4.6S2077.745,1239.3,2077.745,1242.3Z" transform="translate(-1883.178 -1172.52)" fill="#6a2810"/>
    </g>
  </g>
</svg>
