<svg id="Grupo_169147" data-name="Grupo 169147" xmlns="http://www.w3.org/2000/svg" xmlns:xlink="http://www.w3.org/1999/xlink" width="105" height="105" viewBox="0 0 105 105">
  <defs>
    <clipPath id="clip-path">
      <rect id="Rectángulo_42390" data-name="Rectángulo 42390" width="68.326" height="68.332" fill="none"/>
    </clipPath>
  </defs>
  <circle id="Elipse_4889" data-name="Elipse 4889" cx="52.5" cy="52.5" r="52.5" fill="#ffdfe0"/>
  <g id="Grupo_169146" data-name="Grupo 169146" transform="translate(18 18)">
    <g id="Grupo_169145" data-name="Grupo 169145" clip-path="url(#clip-path)">
      <path id="Trazado_159206" data-name="Trazado 159206" d="M68.326,5.205c-.412,1.131-.651,2.317-1.125,3.432A35.42,35.42,0,0,1,59.676,19.53c-.949.969-1.926,1.91-2.872,2.883a1.151,1.151,0,0,1-1.547.268c-.638-.457-.682-1.036-.082-1.669.81-.853,1.663-1.665,2.489-2.5a17.856,17.856,0,0,0,1.42-1.5c.237-.3.227-.453-.132-.649a10.526,10.526,0,0,1-1.914-1.435,27.821,27.821,0,0,1-5.1-5.595c-.17-.269-.288-.356-.555-.136s-.551.447-.8.7q-10.676,10.679-21.34,21.37c-1.4,1.416-2.8,2.854-4.059,4.406a2.671,2.671,0,0,1-.673.641c-.456.271-.912.366-1.3-.133-.5-.734-.487-1.024.12-1.7,1.071-1.19,2.135-2.387,3.244-3.541.394-.409.422-.561-.118-.858Q14.415,23.467,2.4,16.816A4.192,4.192,0,0,1,.137,14.248,3.036,3.036,0,0,1,.888,11.17C1.9,10.11,2.946,9.077,4,8.053A3.177,3.177,0,0,1,7.385,7.33c3.828,1.2,7.657,2.4,11.479,3.616a.813.813,0,0,0,1.031-.257A15.84,15.84,0,0,1,24.567,7.1a1.189,1.189,0,0,1,1.611.224c1.247,1.269,2.516,2.516,3.769,3.778a1.1,1.1,0,0,1,.221,1.652c-.273.478-.553.952-.85,1.461,3.457,1.088,6.859,2.154,10.254,3.237.372.119.529-.107.728-.306q3.822-3.821,7.641-7.645A42.378,42.378,0,0,1,53.3,4.8,25.484,25.484,0,0,1,62.989.122c.05-.01.089-.079.132-.122h2a3.377,3.377,0,0,1,2.934,2,9.336,9.336,0,0,1,.269,1.2Z" transform="translate(0 0)"/>
      <path id="Trazado_159207" data-name="Trazado 159207" d="M49.5,65.8c-.874.2-1.1.089-1.58-.78q-4.436-8.037-8.859-16.081c-.273-.5-.411-.57-.853-.143a112.024,112.024,0,0,1-10.433,8.821c-.346.261-.425.426-.19.835.993,1.731,1.936,3.491,2.9,5.238a6.432,6.432,0,0,1-1.776,8.278c-1.415.995-2.557.879-3.63-.477-1.806-2.283-3.615-4.564-5.4-6.866-.306-.4-.516-.456-.934-.168A6.674,6.674,0,0,1,15.2,65.641a4.322,4.322,0,0,1-4.621-5.089,7.137,7.137,0,0,1,1.208-3.2c.258-.365.179-.533-.14-.781q-3.471-2.7-6.92-5.437c-1.463-1.155-1.562-2.414-.312-3.8a7.357,7.357,0,0,1,8.639-1.434c1.6.821,3.141,1.744,4.688,2.657.416.246.608.184.885-.2.758-1.042,1.574-2.041,2.359-3.063a1.143,1.143,0,0,1,1.447-.467c.736.4.862.967.325,1.688-1.153,1.549-2.354,3.061-3.524,4.6-1.8,2.367-3.652,4.695-5.42,7.087a4.927,4.927,0,0,0-1.094,3.28,2.107,2.107,0,0,0,2.238,2,4.831,4.831,0,0,0,3.021-1.09c4.541-3.5,9.169-6.882,13.578-10.55,2.991-2.489,5.8-5.168,8.554-7.915q6.156-6.148,12.305-12.3a3.815,3.815,0,0,1,.642-.579.931.931,0,0,1,1.346.188c.416.814.383,1.05-.258,1.7q-1.1,1.113-2.216,2.216c-.174.174-.352.319-.257.621,1.083,3.414,2.158,6.83,3.25,10.3.535-.314,1.033-.6,1.522-.895a1.1,1.1,0,0,1,1.5.176q1.953,1.96,3.914,3.911a1.123,1.123,0,0,1,.206,1.5,15.547,15.547,0,0,1-3.573,4.68.9.9,0,0,0-.291,1.142c1.189,3.712,2.334,7.438,3.53,11.147a3.505,3.505,0,0,1-.962,3.986c-.894.833-1.73,1.727-2.6,2.586a3.342,3.342,0,0,1-5.258-.4A47.672,47.672,0,0,1,50.2,69.1a1,1,0,0,1,.382-1.34c.329-.427.708-.265,1.068-.069a1.971,1.971,0,0,1,.711.861c.674,1.2,1.316,2.421,2,3.615a2.172,2.172,0,0,0,.766.817,1.057,1.057,0,0,0,1.4-.126c1-.978,1.99-1.97,2.972-2.97a1.241,1.241,0,0,0,.194-1.37c-.44-1.4-.864-2.8-1.309-4.2-2.6-8.175-5.125-16.376-7.727-24.551-.241-.756-.44-1.524-.743-2.257-.254.056-.356.242-.493.379q-4.2,4.193-8.4,8.393c-.624.625-.612.621-.184,1.407,2.712,4.976,5.487,9.918,8.2,14.892.319.585.665,1.158.959,1.755A.968.968,0,0,1,49.5,65.8" transform="translate(-0.812 -7.056)"/>
      <path id="Trazado_159208" data-name="Trazado 159208" d="M15.243,57.061a4.6,4.6,0,0,1,1-3.229c2.237-2.978,4.513-5.929,6.777-8.888.729-.952,1.474-1.889,2.2-2.839.551-.719.521-1.074-.112-1.727.761-.3,1.017-1.1,1.587-1.591.8.33,1.025.268,1.672-.433,8.391-9.11,17.389-17.62,26.1-26.418.046-.047.1-.091.146-.136.6-.558.566-.539.98.132a22.357,22.357,0,0,0,3.372,3.938c.531.534,1.087,1.043,1.633,1.563.054.409-.295.573-.516.8Q54.5,23.826,48.9,29.411c-3.8,3.8-7.581,7.639-11.423,11.407A113.937,113.937,0,0,1,25.9,50.536c-.185.138-.394.354-.6.006.015-.382.336-.553.551-.8a7.348,7.348,0,0,0,.63-.685.739.739,0,0,0-.08-1.026.759.759,0,0,0-1.029-.106,3.269,3.269,0,0,0-.546.486q-3.811,3.811-7.624,7.622a3.455,3.455,0,0,0-.693.888c-.48.6-.962.651-1.268.135" transform="translate(-3.484 -2.609)" fill="#dff2fb"/>
      <path id="Trazado_159209" data-name="Trazado 159209" d="M60.425,67.66c.611-.63.643-.889.194-1.7q-4.58-8.309-9.176-16.609a.756.756,0,0,1,.159-1.107c2.941-2.906,5.855-5.838,8.78-8.763.155-.155.317-.3.541-.516.385,1.211.753,2.359,1.114,3.509Q66.39,56.34,70.754,70.2a1.659,1.659,0,0,1-.476,1.961c-.853.779-1.643,1.626-2.462,2.442a1.462,1.462,0,0,1-2.562-.3c-.769-1.3-1.469-2.636-2.2-3.954-.45-.807-.729-.935-1.548-.731l-1.077-1.96" transform="translate(-11.733 -8.916)" fill="#fe2c5c"/>
      <path id="Trazado_159210" data-name="Trazado 159210" d="M25.367,52.3c.1.157.212.1.329.011,2.579-2.051,5.216-4.025,7.7-6.2Q36.6,43.307,39.6,40.288,49.852,30.02,60.115,19.766c.171-.172.324-.363.485-.545A10.777,10.777,0,0,0,63,20.847c.372.133.017.322-.079.421-1.2,1.242-2.412,2.471-3.622,3.7-.14.143-.283.281-.422.424-.6.622-.623.966-.127,1.683l-1.663,1.494c-.811-.384-1.034-.348-1.693.31-4.087,4.083-8.2,8.144-12.251,12.26A132.294,132.294,0,0,1,28.194,54.189C25.831,55.96,23.5,57.78,21.16,59.576a5.684,5.684,0,0,1-3.578,1.41,2.185,2.185,0,0,1-2.333-2.136A.729.729,0,0,0,16.4,58.58c.133.073.143.212.184.337a.823.823,0,0,0,1.432.424,5.738,5.738,0,0,0,.53-.5q3.033-3.032,6.07-6.061c.207-.207.368-.522.746-.473" transform="translate(-3.49 -4.398)" fill="#c2d2da"/>
      <path id="Trazado_159211" data-name="Trazado 159211" d="M26.323,30.087Q22.41,27.946,18.5,25.8q-7.263-4-14.519-8.014A3.581,3.581,0,0,1,3.1,17.2a1.362,1.362,0,0,1-.006-2.1c.891-.9,1.811-1.775,2.68-2.7a1.5,1.5,0,0,1,1.741-.415c3.57,1.141,7.149,2.26,10.725,3.384q8.539,2.682,17.079,5.362c.126.039.245.1.367.15.067.328-.2.475-.376.653q-4.094,4.109-8.2,8.2c-.209.208-.4.515-.783.352" transform="translate(-0.595 -2.716)" fill="#fe2c5c"/>
      <path id="Trazado_159212" data-name="Trazado 159212" d="M33.362,32.76a.744.744,0,0,0,.5-.29q4.374-4.377,8.747-8.754a1.006,1.006,0,0,0,.111-.164l3.1.923c0,.249-.178.335-.3.452-2.994,3-6,5.99-8.98,9a.641.641,0,0,1-.952.119c-.733-.453-1.491-.863-2.239-1.29" transform="translate(-7.634 -5.39)" fill="#e52753"/>
      <path id="Trazado_159213" data-name="Trazado 159213" d="M76.881,10.879a12.712,12.712,0,0,0-5.656-4.2c.646-.42,1.229-.829,1.842-1.188a19.829,19.829,0,0,1,6.627-2.8,9.186,9.186,0,0,1,.924-.069c.255.278.129.586.056.879a23.284,23.284,0,0,1-3.182,6.961c-.136.212-.269.478-.609.413" transform="translate(-16.299 -0.601)" fill="#dff2fb"/>
      <path id="Trazado_159214" data-name="Trazado 159214" d="M78.56,10.879a5.14,5.14,0,0,0,1.284-1.815,21.214,21.214,0,0,0,2.38-5.786c.044-.213.049-.434.072-.652,1.378.024,2,.626,2,1.991a10.521,10.521,0,0,1-.985,3.9,28.238,28.238,0,0,1-1.683,3.308c-.413.728-.9,1.411-1.4,2.183a12.065,12.065,0,0,0-1.661-3.129" transform="translate(-17.977 -0.601)" fill="#c2d2da"/>
      <path id="Trazado_159215" data-name="Trazado 159215" d="M28.063,14.525a10.6,10.6,0,0,1,3.26-2.554c.239-.129.366,0,.511.147.831.834,1.646,1.685,2.5,2.489.352.329.107.541-.034.792-.526.936-.529.933-1.523.618l-4.719-1.493" transform="translate(-6.422 -2.727)" fill="#c2d2da"/>
      <path id="Trazado_159216" data-name="Trazado 159216" d="M76.23,16.047a.659.659,0,0,1-.285.6c-.235.177-.367-.06-.506-.17a31.407,31.407,0,0,1-5.129-5.127c-.12-.152-.391-.3-.157-.558a.607.607,0,0,1,.775-.183,10.541,10.541,0,0,1,2.142,1.337,10.931,10.931,0,0,1,3,3.7c.076.156.133.323.165.4" transform="translate(-16.033 -2.411)" fill="#51c3f4"/>
      <path id="Trazado_159217" data-name="Trazado 159217" d="M34.447,75.225a4.074,4.074,0,0,1-1.818,3.638c-.32.224-.514.219-.765-.1q-2.744-3.52-5.52-7.011c-.244-.307-.2-.454.093-.678q2.05-1.538,4.069-3.118c.274-.214.417-.293.626.1.942,1.759,1.928,3.494,2.88,5.248a3.93,3.93,0,0,1,.435,1.928" transform="translate(-5.992 -15.509)" fill="#fe2c5c"/>
      <path id="Trazado_159218" data-name="Trazado 159218" d="M11.3,58.062c-1.609-1.251-3.214-2.508-4.833-3.746-.365-.279-.251-.49-.005-.751a5.119,5.119,0,0,1,5.237-1.43,14.593,14.593,0,0,1,3.6,1.82c.182.26-.032.416-.174.561q-1.663,1.7-3.361,3.364c-.123.121-.255.252-.46.182" transform="translate(-1.427 -11.887)" fill="#fe2c5c"/>
      <path id="Trazado_159219" data-name="Trazado 159219" d="M12.8,58.658q1.934-1.905,3.865-3.813a.9.9,0,0,0,.13-.294c.658.364,1.31.738,1.975,1.087.285.15.332.28.123.548q-1.636,2.1-3.242,4.22c-.186.245-.325.305-.581.091-.747-.624-1.511-1.227-2.27-1.838" transform="translate(-2.93 -12.483)" fill="#e52753"/>
      <path id="Trazado_159220" data-name="Trazado 159220" d="M72.8,58.638c-.561-1.78-1.08-3.473-1.633-5.154-.139-.423-.144-.7.333-.868a2.437,2.437,0,0,0,.574-.332.4.4,0,0,1,.623.051c.816.848,1.656,1.672,2.492,2.5.167.166.284.3.141.567a11.26,11.26,0,0,1-2.53,3.237" transform="translate(-16.266 -11.936)" fill="#c2d2da"/>
      <path id="Trazado_159221" data-name="Trazado 159221" d="M25.707,61.247l-5.881,5.842c-.409.406-.823.806-1.219,1.222a1.109,1.109,0,0,1-1.306.373,1,1,0,0,1-.557-1.16,2.006,2.006,0,0,1,.505-.694q3.987-3.983,7.972-7.969a3.073,3.073,0,0,1,.344-.314.927.927,0,0,1,1.324.073.905.905,0,0,1,.047,1.322c-.386.456-.818.871-1.23,1.3" transform="translate(-3.83 -13.342)"/>
    </g>
  </g>
</svg>
