<svg xmlns="http://www.w3.org/2000/svg" xmlns:xlink="http://www.w3.org/1999/xlink" width="85" height="85" viewBox="0 0 85 85">
  <defs>
    <clipPath id="clip-path">
      <rect id="Rectángulo_41938" data-name="Rectángulo 41938" width="52.424" height="52.41" fill="none"/>
    </clipPath>
  </defs>
  <g id="Grupo_167925" data-name="Grupo 167925" transform="translate(-853 -2626)">
    <circle id="Elipse_4892" data-name="Elipse 4892" cx="42.5" cy="42.5" r="42.5" transform="translate(853 2626)" fill="#ffd947"/>
    <g id="Grupo_167924" data-name="Grupo 167924" transform="translate(869 2642)" clip-path="url(#clip-path)">
      <path id="Trazado_156907" data-name="Trazado 156907" d="M52.2,5.106a4.236,4.236,0,0,0-5.88-1.921,8.273,8.273,0,0,0-1.6,1.42c-.282.281-.5.287-.764,0-.311-.338-.646-.655-.973-.978-.774-.765-1.207-.772-1.988-.008-.84.823-1.663,1.661-2.5,2.49a8.407,8.407,0,0,1-.683.655c0-.352,0-.623,0-.894,0-1.55.007-3.1,0-4.65C37.808.446,37.65.208,37.068,0H.52A1.161,1.161,0,0,0,0,1.073Q.014,21.695,0,42.317A1.367,1.367,0,0,0,.431,43.36q4.316,4.3,8.614,8.611a1.412,1.412,0,0,0,1.092.439c1.723-.016,3.446-.006,5.17-.006H36.548c.791,0,1.1-.244,1.107-.933q.014-5.782,0-11.565a.837.837,0,0,0-.692-.932c-.665.088-.843.3-.844,1.021,0,3.442-.011,6.885.01,10.327,0,.45-.105.557-.556.555q-12.221-.024-24.443,0c-.477,0-.578-.131-.574-.585.021-2.488,0-4.976.012-7.464a.872.872,0,0,0-.632-.976c-2.661,0-5.321-.007-7.982.007-.344,0-.418-.1-.418-.428q.012-19.747,0-39.494c0-.432.2-.4.493-.4q13.407,0,26.814,0c2.268,0,4.537.008,6.806-.009.368,0,.494.065.489.467-.023,2.1-.009,4.195-.013,6.292,0,.146.058.308-.067.438q-1.794,1.818-3.588,3.637c-.566.572-.658.977-.3,1.358s.83.293,1.4-.273c.82-.819,1.639-1.638,2.589-2.44,0,.75,0,1.5,0,2.25,0,.148-.152.219-.245.313q-4.974,4.977-9.946,9.956a.915.915,0,0,1-.726.269c-2.269-.007-4.538,0-6.807,0-.795,0-1.161.236-1.176.753s.369.782,1.19.783h5.578c-.016.233-.188.309-.3.42q-2.6,2.611-5.211,5.21a2.452,2.452,0,0,0-.577.889c-.591,1.557-1.2,3.107-1.781,4.668a.534.534,0,0,1-.627.422c-.51-.034-1.023-.018-1.535,0a.778.778,0,0,0-.846.764.8.8,0,0,0,.809.762c.457.027.917.006,1.417.006-.063.187-.112.327-.157.468a.785.785,0,0,0,1.085,1.043q1.6-.608,3.19-1.224c1.285-.495,2.566-1,3.855-1.483a2.558,2.558,0,0,0,.93-.605q5.676-5.686,11.358-11.366a3.776,3.776,0,0,0,.342-.469.643.643,0,0,1,.146.576q.008,5.22.005,10.438c0,.729.173.928.844,1.025.586-.137.7-.567.7-1.088,0-4.008,0-8.017-.011-12.025A1.072,1.072,0,0,1,38,22.909q5.8-5.777,11.587-11.571c1.12-1.121,2.39-2.132,2.834-3.764V6.243A7.505,7.505,0,0,0,52.2,5.106M3.112,43.389c1.822-.006,3.645.005,5.467-.012.345,0,.46.067.457.439-.02,1.94-.009,3.881-.009,5.857L2.772,43.421c.07-.1.219-.032.339-.032M37.905,9.1c1.274-1.277,2.556-2.545,3.82-3.832.225-.229.348-.229.55.009.284.334.82.624.844.962.026.354-.535.641-.843.952-1.39,1.4-2.791,2.792-4.182,4.192a2.416,2.416,0,0,0-.273.416l-.16-.109c0-.74,0-1.48,0-2.221,0-.18.14-.264.245-.369M17.221,37.969l.787-1.947,1.023-2.784,1.763,1.657,1.157,1.249-4.731,1.825M37.528,21.213Q30.667,28.087,23.8,34.957c-.286.288-.457.366-.734.011a11.894,11.894,0,0,0-.837-.887c-.728-.716-1.454-1.433-2.186-2.145-.117-.114-.162-.2-.017-.322.091-.076.168-.168.253-.253Q27.458,24.184,34.627,17c.34-.342.516-.318.82.013.632.689,1.3,1.343,1.96,2.011a.4.4,0,0,1,.085.052c.343.353.918.68.963,1.069.048.412-.583.724-.927,1.069m12.855-12.9a5.17,5.17,0,0,1-.479.53q-4.93,4.934-9.856,9.871c-.295.3-.465.347-.738,0-.253-.318-.561-.592-.844-.885-.692-.681-1.374-1.372-2.081-2.037-.233-.219-.216-.334,0-.552,1.59-1.568,3.164-3.152,4.743-4.731q2.676-2.675,5.355-5.349a2.508,2.508,0,0,1,3.895,3.15" transform="translate(0 0)"/>
      <path id="Trazado_156908" data-name="Trazado 156908" d="M102.674,28.252c0-.005.008-.009.011-.015l-.024.007.014.008" transform="translate(-58.563 -16.108)"/>
      <path id="Trazado_156909" data-name="Trazado 156909" d="M40.383,38.489a3.262,3.262,0,0,1-.028-.664q0-4.913,0-9.825c0-.17.008-.34-.01-.534-.193.05-.279.205-.392.318q-5.468,5.461-10.929,10.93a4.221,4.221,0,0,1-1.522,1c-2.186.826-4.363,1.676-6.546,2.51a2.1,2.1,0,0,1-.593.15c-.68.049-1.026-.3-.982-.979.034-.539.034-.54-.513-.545a2.48,2.48,0,0,1-.858-.1.884.884,0,0,1-.638-.884.866.866,0,0,1,.8-.795,8.756,8.756,0,0,1,1.432-.015.748.748,0,0,0,.835-.573c.531-1.422,1.084-2.836,1.629-4.252a3.54,3.54,0,0,1,.841-1.264q2.418-2.395,4.815-4.811c.126-.126.305-.221.331-.435a.878.878,0,0,0-.549-.067c-1.57,0-3.139,0-4.71,0-.171,0-.341.008-.511-.009a.846.846,0,0,1-.8-.731.881.881,0,0,1,.573-.928,2.685,2.685,0,0,1,1.007-.138c2.1,0,4.2-.01,6.3.009a1.512,1.512,0,0,0,1.172-.493q4.638-4.664,9.3-9.3a1.5,1.5,0,0,0,.52-1.263c-.033-.4,0-.806-.018-1.321-.756.75-1.427,1.424-2.1,2.1a3.056,3.056,0,0,1-.707.584A.93.93,0,0,1,36.4,16a.865.865,0,0,1-.032-1.128,3.665,3.665,0,0,1,.5-.576q1.484-1.485,2.968-2.968a1.609,1.609,0,0,0,.459-.607,1.312,1.312,0,0,0,.041-.458q0-2.838,0-5.677c0-.592-.087-.678-.685-.678q-15.9,0-31.8,0c-.183.077-.242.245-.241.57q.02,19.436,0,38.871c0,.331.058.5.223.582,2.15.023,4.3-.014,6.449.022.615.241.769.467.772,1.216.009,2.252,0,4.5,0,6.755,0,1.078-.052,1,1,1q11.671,0,23.341,0c.92,0,.921,0,.921-.93q0-4.734,0-9.467a3.027,3.027,0,0,1,.057-.814.678.678,0,0,1,.927-.519,4.6,4.6,0,0,1,0-2.109.731.731,0,0,1-.925-.607M22.07,33.338a.675.675,0,0,1-.662.756,13.614,13.614,0,0,1-2.44,0,.684.684,0,0,1-.652-.771.7.7,0,0,1,.717-.714c.406-.017.815,0,1.222,0V32.6c.357,0,.714-.017,1.07,0a.705.705,0,0,1,.745.736m6.206-12.383a2.863,2.863,0,0,1-.611.036q-4.117,0-8.234,0-4.065,0-8.132,0a3.294,3.294,0,0,1-.611-.034.747.747,0,0,1-.129-1.416,1.594,1.594,0,0,1,.653-.091q8.26,0,16.52,0a1.651,1.651,0,0,1,.654.086.7.7,0,0,1,.45.776.676.676,0,0,1-.559.642M16.846,14.831a.866.866,0,0,1,.728-.3c2.643,0,5.285-.007,7.928,0,.567,0,.887.313.881.78s-.321.748-.9.751c-1.33.007-2.66,0-3.989,0s-2.661,0-3.99,0a.769.769,0,0,1-.777-.471.709.709,0,0,1,.115-.765m17.022,4.63a.755.755,0,0,1,.827.779c-.006.451-.312.733-.85.748s-1.054,0-1.581,0c-.544,0-1.088.012-1.633,0a.763.763,0,1,1-.027-1.523c1.088-.027,2.177-.025,3.265,0M16.015,9.923a.939.939,0,0,1,.823-.314c1.125,0,2.249,0,3.372,0q4.575,0,9.148,0a2.2,2.2,0,0,1,.556.048.691.691,0,0,1,.561.794.687.687,0,0,1-.692.68c-.374.027-.75.013-1.124.013H23.141q-3.194,0-6.388,0a.809.809,0,0,1-.836-.46.712.712,0,0,1,.1-.767m-5.137,4.621c1.089-.025,2.179-.028,3.267,0a.734.734,0,0,1,.753.8.751.751,0,0,1-.82.723c-.527.014-1.055,0-1.583,0s-1.056.012-1.582,0a.761.761,0,1,1-.034-1.52m.281,11.479c1.4,0,2.8,0,4.2,0q2.071,0,4.144,0a2.654,2.654,0,0,1,.558.046.742.742,0,0,1-.009,1.45,2.469,2.469,0,0,1-.508.037q-4.17,0-8.34,0h-.051c-.683-.009-1.057-.283-1.052-.77s.379-.762,1.063-.765m-.1,8.105c-.6,0-.957-.3-.966-.761s.361-.77.994-.775c.886-.007,1.773,0,2.659,0s1.772-.006,2.658,0c.624.006.946.271.952.752s-.319.779-.93.783q-2.684.016-5.368,0M22.2,43.973q-3.118.014-6.237,0c-.585,0-.951-.326-.942-.786s.366-.744.969-.747c1.04-.005,2.08,0,3.119,0,1.023,0,2.045,0,3.068,0,.6,0,.935.291.928.773-.007.461-.334.757-.9.76m7.425,0q-2.35.021-4.7,0a.786.786,0,0,1-.871-.8.775.775,0,0,1,.871-.733c.783-.01,1.567,0,2.35,0s1.567-.008,2.35,0c.538.007.847.283.86.734a.762.762,0,0,1-.86.8" transform="translate(-4.343 -2.231)" fill="#f2f0f0"/>
      <path id="Trazado_156910" data-name="Trazado 156910" d="M40.678,91.2a3.01,3.01,0,0,0-.057.814q0,4.733,0,9.467c0,.929,0,.93-.921.93q-11.671,0-23.341,0c-1.053,0-1,.076-1-1,0-2.252,0-4.5,0-6.755,0-.75-.157-.975-.772-1.216-2.15-.037-4.3,0-6.449-.022a.986.986,0,0,0,.433.061c1.824-.03,3.649-.014,5.474-.009.181,0,.379-.062.536.09a.872.872,0,0,1,.632.976c-.009,2.488.01,4.976-.012,7.464,0,.454.1.586.574.585q12.221-.023,24.443,0c.451,0,.559-.105.556-.555-.021-3.442-.013-6.885-.01-10.327,0-.726.179-.933.844-1.021a.678.678,0,0,0-.926.519" transform="translate(-4.64 -51.713)" fill="#f2f0f0"/>
      <path id="Trazado_156911" data-name="Trazado 156911" d="M40.787,38q0-5.219-.006-10.438a.642.642,0,0,0-.145-.576,3.776,3.776,0,0,1-.342.469q-5.677,5.685-11.359,11.366a2.557,2.557,0,0,1-.93.606c-1.289.484-2.57.988-3.855,1.483q-1.595.614-3.19,1.224a.785.785,0,0,1-1.085-1.043c.046-.141.094-.281.157-.468-.5,0-.96.021-1.417-.006a.8.8,0,0,1-.809-.762.778.778,0,0,1,.846-.764c.512-.015,1.025-.03,1.535,0a.533.533,0,0,0,.627-.421C21.392,37.11,22,35.56,22.594,34a2.457,2.457,0,0,1,.577-.889q2.614-2.6,5.212-5.21c.11-.11.282-.187.3-.42H23.1c-.822,0-1.205-.254-1.19-.783s.381-.753,1.176-.753c2.269,0,4.538,0,6.807,0a.915.915,0,0,0,.726-.269q4.964-4.986,9.946-9.956c.094-.094.244-.165.245-.313.008-.75,0-1.5,0-2.25-.95.8-1.769,1.622-2.589,2.44-.566.566-1.037.658-1.4.273s-.264-.786.3-1.358q1.8-1.817,3.589-3.637c-.006-2.165-.024-4.33-.007-6.495,0-.459-.107-.6-.589-.6q-15.783.022-31.565,0a.982.982,0,0,0-.379.056q15.9-.005,31.8,0c.6,0,.683.086.684.678q0,2.838,0,5.677a1.309,1.309,0,0,1-.041.457,1.609,1.609,0,0,1-.459.607q-1.483,1.485-2.968,2.968a3.726,3.726,0,0,0-.5.576.866.866,0,0,0,.032,1.128.929.929,0,0,0,1.131.148,3.047,3.047,0,0,0,.708-.583c.674-.672,1.344-1.347,2.1-2.1.021.515-.014.921.018,1.321a1.5,1.5,0,0,1-.52,1.263q-4.667,4.634-9.3,9.3a1.514,1.514,0,0,1-1.172.493c-2.1-.019-4.2-.007-6.3-.009a2.688,2.688,0,0,0-1.008.139.88.88,0,0,0-.572.928.845.845,0,0,0,.8.731c.17.016.341.009.511.009,1.57,0,3.14,0,4.71,0a.885.885,0,0,1,.549.067c-.025.214-.2.308-.33.435q-2.4,2.412-4.815,4.812a3.532,3.532,0,0,0-.841,1.264c-.545,1.417-1.1,2.831-1.629,4.253a.749.749,0,0,1-.835.573A8.707,8.707,0,0,0,18.5,39a.866.866,0,0,0-.805.795.885.885,0,0,0,.638.884,2.494,2.494,0,0,0,.859.1c.548,0,.548.006.512.545-.044.684.3,1.029.982.979a2.088,2.088,0,0,0,.593-.15c2.183-.834,4.36-1.684,6.547-2.51a4.22,4.22,0,0,0,1.522-1Q34.8,33.167,40.275,27.712c.113-.113.2-.268.392-.318a5.277,5.277,0,0,1,.01.534q0,4.913,0,9.826a3.2,3.2,0,0,0,.028.664.73.73,0,0,0,.925.606c-.672-.1-.844-.3-.844-1.025" transform="translate(-4.666 -2.16)" fill="#f2f0f0"/>
      <path id="Trazado_156912" data-name="Trazado 156912" d="M5.392,43.495c0-.171,0-.341,0-.512V4.93c0-.611,0-.883.19-1-.363.006-.726.022-1.09.017-.337-.005-.509.137-.5.485,0,.17,0,.341,0,.511v38c0,.99,0,.976.968.995.2,0,.393,0,.589.006a.564.564,0,0,1-.147-.448" transform="translate(-2.271 -2.24)" fill="#e5e2e1"/>
      <path id="Trazado_156913" data-name="Trazado 156913" d="M11.416,43.838c-1.893,0-3.786-.016-5.679.009a.624.624,0,0,1-.434-.116c-.2,0-.393,0-.59-.006-.967-.019-.968-.005-.968-.995q0-19,0-38c0-.171.007-.341,0-.511-.007-.348.165-.49.5-.485.363.006.727-.011,1.09-.017a2.016,2.016,0,0,1,.92-.1q15.63,0,31.258,0c.683,0,.608-.067.609.594q0,3.017,0,6.035a1.212,1.212,0,0,1-.038.506c.125-.13.067-.292.067-.438,0-2.1-.009-4.195.014-6.292,0-.4-.122-.469-.49-.467-2.268.017-4.537.009-6.805.009q-13.407,0-26.814,0c-.289,0-.493-.034-.493.4q.02,19.748,0,39.494c0,.327.074.43.418.429,2.661-.015,5.322-.008,7.982-.007a1.441,1.441,0,0,0-.557-.037" transform="translate(-2.036 -2.027)" fill="#e5e2e1"/>
      <path id="Trazado_156914" data-name="Trazado 156914" d="M7.444,3.921c-.189.122-.19.393-.19,1V42.978c0,.171,0,.341,0,.511a.564.564,0,0,0,.147.448l.226,0c-.166-.08-.223-.252-.223-.582q.024-19.436,0-38.871c0-.325.058-.493.241-.57h-.02c-.063,0-.125,0-.188,0" transform="translate(-4.138 -2.234)" fill="#e5e2e1"/>
      <path id="Trazado_156915" data-name="Trazado 156915" d="M13.74,97.142c-1.825,0-3.649-.021-5.474.009a.983.983,0,0,1-.433-.061l-.226,0a.622.622,0,0,0,.434.116c1.893-.025,3.786-.012,5.679-.009a1.44,1.44,0,0,1,.557.037c-.158-.152-.356-.09-.537-.09" transform="translate(-4.339 -55.384)" fill="#e5e2e1"/>
      <path id="Trazado_156916" data-name="Trazado 156916" d="M40.482,10.326q0-3.017,0-6.035c0-.661.074-.595-.609-.595H8.616a2.008,2.008,0,0,0-.92.1c.063,0,.125,0,.188,0H7.9a.985.985,0,0,1,.379-.056q15.783.021,31.565,0c.482,0,.593.143.589.6-.018,2.165,0,4.33.007,6.5a1.206,1.206,0,0,0,.038-.506" transform="translate(-4.39 -2.107)" fill="#e5e2e1"/>
      <path id="Trazado_156917" data-name="Trazado 156917" d="M63.384,41.7a1.7,1.7,0,0,1,.5-.432c-.656-.668-1.327-1.322-1.96-2.011-.3-.331-.48-.355-.82-.013q-7.159,7.2-14.348,14.361c-.084.084-.162.177-.253.253-.144.121-.1.208.017.322.732.711,1.458,1.429,2.186,2.145.152-.136.31-.265.454-.408Q56.272,48.814,63.384,41.7" transform="translate(-26.476 -22.249)" fill="#fec34f"/>
      <path id="Trazado_156918" data-name="Trazado 156918" d="M89.766,20.42c.057-.056.066-.114-.008-.166a.805.805,0,0,1-.933-.442.827.827,0,0,1,.294-.993c.119-.12.234-.246.36-.36.473-.427.881-.375,1.328.164.177.141.061.354.157.61a9.609,9.609,0,0,0,1.247-1.36l-.013-.008a.756.756,0,0,1-1-.29.817.817,0,0,1,.255-1.086c.087-.081.171-.165.253-.253a.842.842,0,0,1,1.039-.307.8.8,0,0,1,.411.951A4.016,4.016,0,0,0,94.4,15.736c.037-.038-.088-.066-.144-.09a.815.815,0,0,1-.821-.552.867.867,0,0,1,.342-.936c.1-.095.19-.193.287-.287a.809.809,0,0,1,.95-.278.791.791,0,0,1,.472.912c.045.067.1.088.163.027.558-.564,1.149-1.1,1.661-1.7a2.921,2.921,0,0,0,.646-2.271,2.473,2.473,0,0,0-3.373.333q-2.687,2.665-5.355,5.349c-1.579,1.579-3.153,3.162-4.743,4.731-.221.218-.238.332,0,.552.707.665,1.389,1.356,2.081,2.037,1.127-.986,2.128-2.1,3.2-3.141" transform="translate(-48.098 -5.729)" fill="#fe7882"/>
      <path id="Trazado_156919" data-name="Trazado 156919" d="M67.014,44.339a.4.4,0,0,0-.085-.052,1.174,1.174,0,0,1-.374.476q-7.095,7.1-14.194,14.186c-.17.169-.3.436-.609.4a11.982,11.982,0,0,1,.837.888c.277.355.448.277.734-.011q6.854-6.881,13.727-13.744c.344-.344.975-.657.927-1.069-.045-.388-.62-.716-.963-1.069" transform="translate(-29.522 -25.264)" fill="#feb257"/>
      <path id="Trazado_156920" data-name="Trazado 156920" d="M52.36,58.949q7.1-7.087,14.194-14.186a1.177,1.177,0,0,0,.375-.475,1.691,1.691,0,0,0-.5.432q-7.113,7.107-14.224,14.216c-.144.144-.3.273-.454.409.314.04.439-.227.609-.4" transform="translate(-29.522 -25.264)" fill="#feb257"/>
      <path id="Trazado_156921" data-name="Trazado 156921" d="M100.946,11.244a1.771,1.771,0,0,1-.091,1.562,7.9,7.9,0,0,1-2.1,2.446.2.2,0,0,1-.313.015c0-.009-.006-.018-.009-.027a3.083,3.083,0,0,1-1.079,1.026.175.175,0,0,1,.065.3,5.767,5.767,0,0,1-1.11,1.088.149.149,0,0,1-.221-.037,6.907,6.907,0,0,1-.887.924c0,.006-.007.01-.011.015s.015.007.022.013c.075.275-.161.386-.3.545s-.286.292-.43.435c-.448.443-.558.518-.7.164-.089.55-.6.832-1,1.181.155.112.07.247-.026.347q-1.441,1.5-2.939,2.938a.254.254,0,0,1-.28.066c.283.293.591.567.844.885.273.343.443.293.738,0q4.915-4.948,9.856-9.871a5.171,5.171,0,0,0,.479-.53,2.467,2.467,0,0,0-.522-3.483" transform="translate(-51.085 -6.414)" fill="#da5e6f"/>
      <path id="Trazado_156922" data-name="Trazado 156922" d="M89.831,37q1.5-1.438,2.939-2.938c.1-.1.182-.234.026-.346-.017.014-.035.028-.051.043.073.052.065.11.008.166-1.073,1.041-2.074,2.155-3.2,3.141a.253.253,0,0,0,.28-.066" transform="translate(-51.085 -19.232)" fill="#da5e6f"/>
      <path id="Trazado_156923" data-name="Trazado 156923" d="M99.582,29.633c-.1-.256.02-.468-.157-.609a1.157,1.157,0,0,1,0,.405c.139.354.249.28.7-.163.145-.143.3-.28.43-.435s.371-.269.3-.544c-.007-.006-.015-.008-.022-.013a9.613,9.613,0,0,1-1.247,1.36" transform="translate(-56.718 -16.128)" fill="#da5e6f"/>
      <path id="Trazado_156924" data-name="Trazado 156924" d="M106.079,23.092a4.016,4.016,0,0,1-1.255,1.145c-.013.018-.028.035-.043.053a.149.149,0,0,0,.221.037,5.767,5.767,0,0,0,1.11-1.088.175.175,0,0,0-.065-.3c-.039.02-.072.046-.113.064.055.024.181.052.144.09" transform="translate(-59.773 -13.085)" fill="#da5e6f"/>
      <path id="Trazado_156925" data-name="Trazado 156925" d="M112.1,13.515c-.512.6-1.1,1.139-1.661,1.7-.06.061-.118.04-.163-.027-.012.018-.025.034-.037.051a.274.274,0,0,0,.009.027.2.2,0,0,0,.312-.015,7.906,7.906,0,0,0,2.1-2.447,1.771,1.771,0,0,0,.091-1.562,2.919,2.919,0,0,1-.646,2.271" transform="translate(-62.888 -6.414)" fill="#da5e6f"/>
      <path id="Trazado_156926" data-name="Trazado 156926" d="M12.717,101.406c0-.371-.111-.442-.456-.439-1.823.017-3.645.006-5.468.012-.12,0-.269-.073-.339.032l6.254,6.252c0-1.975-.011-3.917.009-5.857" transform="translate(-3.682 -57.59)" fill="#d9d4d3"/>
      <path id="Trazado_156927" data-name="Trazado 156927" d="M42.688,81.723a9.654,9.654,0,0,1-1.81.64l-.787,1.948,4.731-1.825-1.158-1.25c-.247.317-.638.358-.976.487" transform="translate(-22.87 -46.342)" fill="#fed690"/>
      <path id="Trazado_156928" data-name="Trazado 156928" d="M42.946,77.379c-.336.914-.68,1.849-1.023,2.784a19.678,19.678,0,0,1,2.786-1.127l-1.763-1.657" transform="translate(-23.915 -44.141)" fill="#fddda6"/>
      <path id="Trazado_156929" data-name="Trazado 156929" d="M44.709,81.236a19.732,19.732,0,0,0-2.786,1.127,9.688,9.688,0,0,0,1.81-.64c.338-.128.729-.17.976-.487" transform="translate(-23.915 -46.342)" fill="#fddda6"/>
      <path id="Trazado_156930" data-name="Trazado 156930" d="M31.693,40.174a1.652,1.652,0,0,0-.654-.086q-8.259,0-16.519,0a1.582,1.582,0,0,0-.652.091.707.707,0,0,0-.454.731.7.7,0,0,0,.583.684,3.249,3.249,0,0,0,.611.034q4.066,0,8.132,0,4.117,0,8.234,0a2.89,2.89,0,0,0,.611-.036.676.676,0,0,0,.559-.642.7.7,0,0,0-.45-.776" transform="translate(-7.65 -22.868)"/>
      <path id="Trazado_156931" data-name="Trazado 156931" d="M27.687,18.716q3.195-.006,6.389,0H39.6c.375,0,.751.013,1.124-.013a.75.75,0,0,0,.131-1.475,2.22,2.22,0,0,0-.556-.048q-4.574,0-9.148,0-1.687,0-3.373,0a.937.937,0,0,0-.822.314.708.708,0,0,0-.1.766.808.808,0,0,0,.835.46" transform="translate(-15.278 -9.798)"/>
      <path id="Trazado_156932" data-name="Trazado 156932" d="M14.449,56.918H14.5q4.17,0,8.34,0a2.506,2.506,0,0,0,.508-.037.742.742,0,0,0,.009-1.45,2.692,2.692,0,0,0-.558-.046q-2.072-.005-4.145,0c-1.4,0-2.8,0-4.2,0-.684,0-1.058.277-1.063.765s.37.762,1.052.77" transform="translate(-7.642 -31.592)" fill="#010101"/>
      <path id="Trazado_156933" data-name="Trazado 156933" d="M29.53,30.168q1.995,0,3.99,0c1.33,0,2.66.006,3.99,0,.574,0,.891-.281.9-.751s-.314-.778-.882-.78c-2.643-.01-5.285-.006-7.928,0a.866.866,0,0,0-.728.3.708.708,0,0,0-.115.765.769.769,0,0,0,.777.471" transform="translate(-16.365 -16.331)"/>
      <path id="Trazado_156934" data-name="Trazado 156934" d="M32.012,93.6c-1.023-.006-2.045,0-3.068,0-1.039,0-2.079,0-3.119,0-.6,0-.959.285-.969.747s.356.784.941.787q3.119.012,6.238,0c.57,0,.9-.3.9-.759.007-.482-.326-.769-.928-.773" transform="translate(-14.18 -53.394)"/>
      <path id="Trazado_156935" data-name="Trazado 156935" d="M20.66,71.426c-.006-.481-.329-.746-.952-.752-.886-.009-1.772,0-2.658,0s-1.772-.005-2.658,0c-.633.005-1,.3-.994.775s.364.758.965.761q2.684.013,5.368,0c.611,0,.936-.3.93-.783" transform="translate(-7.642 -40.314)" fill="#010101"/>
      <path id="Trazado_156936" data-name="Trazado 156936" d="M51.454,93.6c-.783-.01-1.567,0-2.35,0s-1.567-.008-2.35,0a.775.775,0,0,0-.872.733.786.786,0,0,0,.871.8q2.35.021,4.7,0a.762.762,0,0,0,.861-.8c-.014-.451-.323-.726-.861-.734" transform="translate(-26.173 -53.393)"/>
      <path id="Trazado_156937" data-name="Trazado 156937" d="M59.282,40.9a.741.741,0,0,0,.823.718c.544.016,1.088,0,1.632,0,.527,0,1.055.012,1.582,0s.844-.3.851-.748a.755.755,0,0,0-.827-.779c-1.088-.023-2.177-.024-3.265,0a.741.741,0,0,0-.8.8" transform="translate(-33.817 -22.86)" fill="#010101"/>
      <path id="Trazado_156938" data-name="Trazado 156938" d="M14.212,30.157c.527.016,1.055,0,1.583,0s1.055.011,1.582,0a.751.751,0,0,0,.82-.723.733.733,0,0,0-.752-.8c-1.088-.03-2.178-.027-3.267,0a.761.761,0,1,0,.034,1.52" transform="translate(-7.642 -16.325)" fill="#010101"/>
      <path id="Trazado_156939" data-name="Trazado 156939" d="M34.468,70.687v0c-.408,0-.816-.013-1.222,0a.7.7,0,0,0-.717.714.684.684,0,0,0,.652.771,13.654,13.654,0,0,0,2.44,0,.675.675,0,0,0,.662-.757.7.7,0,0,0-.744-.735c-.356-.021-.713,0-1.07,0" transform="translate(-18.555 -40.32)" fill="#010101"/>
      <path id="Trazado_156940" data-name="Trazado 156940" d="M107.152,18.543c-.489-.106-.746.248-1.016.543-.563.615-.407,1.081.422,1.3.014,0,.024.012.037.017a8.561,8.561,0,0,1,1.108-1.027c-.113-.323-.093-.734-.551-.833" transform="translate(-60.356 -10.567)" fill="#010101"/>
      <path id="Trazado_156941" data-name="Trazado 156941" d="M106.363,20.175c-.829-.22-.985-.686-.423-1.3.27-.295.527-.649,1.016-.543.458.1.438.51.552.833.015-.011.028-.023.043-.034a.791.791,0,0,0-.472-.912.809.809,0,0,0-.95.277c-.1.094-.191.192-.287.287a.866.866,0,0,0-.341.936.815.815,0,0,0,.821.552l.077-.08c-.013-.005-.022-.012-.036-.017" transform="translate(-60.161 -10.355)" fill="#010101"/>
      <path id="Trazado_156942" data-name="Trazado 156942" d="M107.647,21.536a.384.384,0,0,1,.036.016,3.085,3.085,0,0,0,1.078-1.026c0-.006,0-.012-.006-.017a8.535,8.535,0,0,0-1.108,1.027" transform="translate(-61.408 -11.699)" fill="#010101"/>
      <path id="Trazado_156943" data-name="Trazado 156943" d="M110.227,20.465c0,.006,0,.012.006.017l.038-.051c-.015.01-.028.023-.043.034" transform="translate(-62.88 -11.655)" fill="#010101"/>
      <path id="Trazado_156944" data-name="Trazado 156944" d="M107.467,22.981c.041-.018.074-.044.113-.064l-.035-.016-.077.08" transform="translate(-61.305 -13.064)" fill="#010101"/>
      <path id="Trazado_156945" data-name="Trazado 156945" d="M102.3,24.84a.2.2,0,0,1-.015-.021c-.064-.142-.041-.3-.094-.448a.6.6,0,0,0-.909-.343,2.374,2.374,0,0,0-.5.438.8.8,0,0,0-.295.866c.116.341.42.357.712.387a.437.437,0,0,1,.2.071l.024-.007a2.035,2.035,0,0,1,.874-.942" transform="translate(-57.301 -13.653)" fill="#010000"/>
      <path id="Trazado_156946" data-name="Trazado 156946" d="M100.263,25.119a.8.8,0,0,1,.3-.866,2.375,2.375,0,0,1,.5-.438.6.6,0,0,1,.908.343c.052.145.03.306.094.448,0,.009.01.013.015.021.019-.011.036-.024.056-.034a.8.8,0,0,0-.411-.951.842.842,0,0,0-1.039.307c-.081.087-.166.171-.253.253a.816.816,0,0,0-.254,1.086.756.756,0,0,0,1,.29.43.43,0,0,0-.2-.071c-.292-.03-.6-.047-.712-.387" transform="translate(-57.076 -13.44)" fill="#010000"/>
      <path id="Trazado_156947" data-name="Trazado 156947" d="M102.717,26.985h0a6.854,6.854,0,0,0,.887-.924.2.2,0,0,1-.013-.018,2.032,2.032,0,0,0-.874.942" transform="translate(-58.595 -14.856)" fill="#010000"/>
      <path id="Trazado_156948" data-name="Trazado 156948" d="M104.751,26l.013.019c.014-.018.029-.035.042-.053-.02.01-.036.024-.055.034" transform="translate(-59.756 -14.811)" fill="#010000"/>
      <path id="Trazado_156949" data-name="Trazado 156949" d="M95.644,29.6a1.985,1.985,0,0,0-.186.174c-.243.256-.561.482-.447.906s.5.458.843.532a.193.193,0,0,1,.059-.11,2.841,2.841,0,0,0,.922-1.213c-.017-.052-.033-.1-.052-.164a.715.715,0,0,0-1.138-.125" transform="translate(-54.186 -16.753)" fill="#010000"/>
      <path id="Trazado_156950" data-name="Trazado 156950" d="M95.657,30.984c-.347-.074-.728-.1-.843-.532s.2-.65.447-.906a1.932,1.932,0,0,1,.186-.174.715.715,0,0,1,1.138.126c.019.062.036.112.052.163a1.776,1.776,0,0,0,.058-.236c-.447-.539-.855-.591-1.327-.164-.126.113-.241.239-.36.359a.828.828,0,0,0-.293.994.8.8,0,0,0,.933.441.225.225,0,0,1,.008-.07" transform="translate(-53.989 -16.529)" fill="#010000"/>
      <path id="Trazado_156951" data-name="Trazado 156951" d="M97.063,31.782a.194.194,0,0,0-.058.11h0a.433.433,0,0,1,.039.027c.4-.349.909-.631,1-1.182-.019-.048-.04-.1-.061-.169a2.842,2.842,0,0,1-.922,1.213" transform="translate(-55.337 -17.438)" fill="#010000"/>
      <path id="Trazado_156952" data-name="Trazado 156952" d="M99.347,30.019a1.7,1.7,0,0,1-.059.236c.021.065.042.121.061.169a1.159,1.159,0,0,0,0-.405" transform="translate(-56.639 -17.125)" fill="#010000"/>
      <path id="Trazado_156953" data-name="Trazado 156953" d="M96.993,33.65a.225.225,0,0,0-.008.07l.051-.043A.358.358,0,0,0,97,33.651h0" transform="translate(-55.325 -19.196)" fill="#010000"/>
    </g>
  </g>
</svg>
