<svg id="_8" data-name="8" xmlns="http://www.w3.org/2000/svg" xmlns:xlink="http://www.w3.org/1999/xlink" width="105" height="105" viewBox="0 0 105 105">
  <defs>
    <clipPath id="clip-path">
      <rect id="Rectángulo_42391" data-name="Rectángulo 42391" width="68.829" height="59.96" fill="none"/>
    </clipPath>
  </defs>
  <circle id="Elipse_4890" data-name="Elipse 4890" cx="52.5" cy="52.5" r="52.5" fill="#ffdfe0"/>
  <g id="Grupo_169149" data-name="Grupo 169149" transform="translate(18 23)">
    <g id="Grupo_169148" data-name="Grupo 169148" clip-path="url(#clip-path)">
      <path id="Trazado_159222" data-name="Trazado 159222" d="M67.184,34.826h-.049c0,.01.013.017.014.027.013-.008.021-.018.034-.026" transform="translate(-24.26 -12.584)"/>
      <path id="Trazado_159223" data-name="Trazado 159223" d="M89.284,34.826H89.23l.04.021a.207.207,0,0,1,.014-.022" transform="translate(-32.244 -12.584)"/>
      <path id="Trazado_159224" data-name="Trazado 159224" d="M63.091,17.778c-1.619-.006-3.238-.011-4.857.005-.36,0-.522-.042-.52-.471q.029-5.1,0-10.2c0-.389.136-.46.476-.444.508.023,1.017.01,1.526,0,.937-.009,1.331-.409,1.337-1.363.006-.855.031-1.713-.011-2.566-.022-.455.14-.525.546-.519,1.572.022,3.145.01,4.717.01,1.409,0,1.364,0,1.429-1.436.032-.7-.2-.8-.835-.8Q50.666.033,34.432.016H2.795c-1.719,0-1.7,0-1.7,1.719,0,.462.162.514.555.51,1.85-.019,3.7,0,5.55-.018.427,0,.609.07.582.552-.045.83-.015,1.664-.011,2.5,0,1,.384,1.392,1.369,1.4.486,0,.973.023,1.457-.006.37-.022.515.059.513.478q-.027,5.064,0,10.128c0,.466-.163.515-.554.51-1.6-.02-3.191-.012-4.787-.008A5.548,5.548,0,0,0,0,23.534Q0,38.868,0,54.2a5.545,5.545,0,0,0,5.772,5.757q28.653,0,57.306,0a5.542,5.542,0,0,0,5.741-5.718q.011-15.367,0-30.735a5.543,5.543,0,0,0-5.732-5.725M51.627,2.237c.924,0,1.848.014,2.772.021,1.339-.007,2.679,0,4.018-.029.333-.007.415.093.428.423.069,1.8.08,1.805-1.744,1.8-.9,0-1.8-.014-2.7-.022-1.34.008-2.68.006-4.02.029-.328.006-.42-.087-.434-.423-.079-1.8-.089-1.806,1.683-1.8M55.5,7.729v9c0,1.084,0,1.084-1.1,1.03a1.008,1.008,0,0,1-.137.017c-.981.027-.981.027-.981-.978V7.729c0-1.086,0-1.086,1.118-1.031,1.1-.054,1.1-.054,1.1,1.031M19.915,6.673A1.1,1.1,0,0,0,21.087,5.5c.019-.9.031-1.8-.006-2.705-.019-.454.114-.571.567-.567,2.774.022,5.55.011,8.325.011,5.712,0,11.424.008,17.136-.014.519,0,.667.12.638.641-.049.853-.023,1.71-.011,2.566A1.129,1.129,0,0,0,48.98,6.675c.046,0,.093,0,.139,0,.637.045,1.488-.277,1.851.132.313.354.093,1.188.093,1.809,0,2.845-.013,5.688.015,8.533.005.517-.118.641-.638.639-5.342-.021-10.684-.013-16.026-.013s-10.684-.008-16.026.013c-.517,0-.643-.119-.639-.639q.04-4.924,0-9.85c0-.521.121-.687.641-.635a11.805,11.805,0,0,0,1.526.007m-9.5-2.21c-.328.006-.42-.087-.434-.423-.079-1.8-.089-1.806,1.682-1.8.924,0,1.848.014,2.772.021,1.339-.007,2.678,0,4.018-.029.333-.007.414.093.427.423.07,1.8.08,1.805-1.744,1.8-.9,0-1.8-.014-2.7-.022-1.341.008-2.68.006-4.02.029m5.126,3.267v9c0,1.084,0,1.084-1.1,1.03a1.008,1.008,0,0,1-.137.017c-.981.027-.981.027-.981-.978V7.729c0-1.086,0-1.086,1.118-1.031,1.1-.054,1.1-.054,1.1,1.031M66.6,54.233a3.286,3.286,0,0,1-3.327,3.483c-.254.008-.508.022-.761.022q-28.258,0-56.517,0c-2.459,0-3.777-1.308-3.777-3.751q0-15.152,0-30.3a2.84,2.84,0,0,1,.238-1.48,3.228,3.228,0,0,1,2.9-2.2c.208-.011.416,0,.625,0H62.862c2.413,0,3.742,1.318,3.742,3.715q0,15.259,0,30.52" transform="translate(0 0)"/>
      <path id="Trazado_159225" data-name="Trazado 159225" d="M59.835,34.781c-.513,0-1.025.015-1.538.024,0,.007-.011.015-.014.022.7.36,1.4.73,2.112,1.075a1.3,1.3,0,0,1,.813,1.318c-.024.971-.02,1.943,0,2.913a1.3,1.3,0,0,1-.709,1.249q-7.609,4.342-15.212,8.694a1.31,1.31,0,0,1-1.544-.064c-.969-.669-1.952-1.32-2.94-1.961a1.37,1.37,0,0,1-.7-1.261c.019-1.364-.005-2.728.01-4.093a1.111,1.111,0,0,1,1.572-1.147c.706.217,1.4.463,2.1.7a2.378,2.378,0,0,0,1.935-.7c.119-.2-.056-.239-.152-.305a12.122,12.122,0,0,0-1.155-.764,1.7,1.7,0,0,1-.989-1.805,19.465,19.465,0,0,0,0-2.426,1.413,1.413,0,0,1,.715-1.41c0-.01-.011-.017-.014-.027-.307-.009-.614-.023-.92-.023l-38.457,0c-.346,0-.692-.008-1.039-.012a2.84,2.84,0,0,0-.238,1.48v30.3c0,2.443,1.318,3.751,3.777,3.751H63.772c.254,0,.508-.015.761-.022q0-15.416,0-30.831a4.462,4.462,0,0,0-4.7-4.667M20.26,65.859a14.43,14.43,0,1,1,14.3-14.473,14.441,14.441,0,0,1-14.3,14.473m23.807,2.233c-1.736.031-1.736.045-1.736-1.681,0-1.685.005-3.369-.018-5.054,0-.066.31-.584-.252-.338a6.955,6.955,0,0,1-1.573-1.455.8.8,0,0,1,.22-.328q.947-.961,1.907-1.911a1.125,1.125,0,0,1,1.94.841c-.011,1.57,0,3.139,0,4.708s-.011,3.139.008,4.708c.005.381-.092.5-.492.51M40.7,54.773c-.49,0-.612-.127-.607-.611.019-1.622,0-1.622,1.593-1.622,6.653,0,13.306.008,19.958-.013.547,0,.688.142.676.681-.033,1.552-.008,1.553-1.593,1.553H51.169c-3.488,0-6.976-.011-10.464.012m7.717,8.868c-1.68,0-1.668,0-1.66-1.676,0-.393.055-.58.515-.555.78.042,1.565.034,2.346,0,.411-.017.481.141.487.512.025,1.717.036,1.717-1.689,1.717m5.632,4.451c-1.733.029-1.732.043-1.732-1.685,0-1.685,0-3.369-.006-5.054,0-.177.029-.258-.3-.374-.591-.208-1.027-.874-1.507-1.369-.13-.134.057-.241.142-.328q.972-.986,1.956-1.96a1.125,1.125,0,0,1,1.938.847c-.012,1.569,0,3.139,0,4.708s-.011,3.139.008,4.708c.005.386-.1.5-.5.506m6.219-.014c-1.017.018-2.035-.012-3.052.011-.364.008-.459-.1-.469-.464-.048-1.764-.06-1.764,1.729-1.764.509,0,1.018.018,1.526-.006a1.108,1.108,0,1,0-.014-2.209c-.647-.022-1.295,0-1.942-.006-.909-.006-1.283-.39-1.288-1.317,0-.671,0-1.341,0-2.012,0-.694-.005-1.388,0-2.081.007-.838.4-1.242,1.214-1.247,1.272-.008,2.544.019,3.815-.014.444-.011.528.134.53.547.007,1.685.022,1.685-1.669,1.685-1.676,0-1.643,0-1.688,1.533-.019.6.176.71.731.7a3.336,3.336,0,1,1,.577,6.643" transform="translate(-1.257 -12.563)" fill="#faaf3b"/>
      <path id="Trazado_159226" data-name="Trazado 159226" d="M64.254,31.31H7.375c-.208,0-.416-.007-.624,0a3.226,3.226,0,0,0-2.9,2.2,1.568,1.568,0,0,1,1-.213q19.214,0,38.428,0a2.855,2.855,0,0,1,.756.064c.149.046.213.112.234.186h.049l.757-.01h0l12.57.006.736,0h.054a.52.52,0,0,1,.152-.156,6.208,6.208,0,0,1,3.719.439,4.6,4.6,0,0,1,2.569,3.922,7.219,7.219,0,0,1,.013.762q0,14.621,0,29.242c0,.427.108.886-.212,1.265A3.286,3.286,0,0,0,68,65.546Q68,50.286,68,35.025c0-2.4-1.33-3.716-3.743-3.716" transform="translate(-1.392 -11.313)" fill="#febf6c"/>
      <path id="Trazado_159227" data-name="Trazado 159227" d="M95.763,68.894q.01-14.621,0-29.242a7.216,7.216,0,0,0-.013-.762,4.6,4.6,0,0,0-2.569-3.922,6.209,6.209,0,0,0-3.719-.439.513.513,0,0,0-.152.156c.513-.009,1.025-.024,1.538-.024a4.461,4.461,0,0,1,4.7,4.667q0,15.415,0,30.831c.32-.379.212-.837.212-1.265" transform="translate(-32.274 -12.443)" fill="#febf6c"/>
      <path id="Trazado_159228" data-name="Trazado 159228" d="M43.347,34.66c.307,0,.614.015.92.023-.021-.073-.086-.139-.234-.186a2.86,2.86,0,0,0-.756-.063q-19.214,0-38.428,0a1.569,1.569,0,0,0-1,.213c.347,0,.693.011,1.039.011l38.457,0" transform="translate(-1.392 -12.442)" fill="#febf6c"/>
      <path id="Trazado_159229" data-name="Trazado 159229" d="M20.861,11.507v9.065c0,1.006,0,1.007.981.979.046,0,.091-.011.137-.017V10.477c-1.118-.055-1.118-.055-1.118,1.031" transform="translate(-7.538 -3.779)" fill="#7f8183"/>
      <path id="Trazado_159230" data-name="Trazado 159230" d="M22.611,10.476a1.219,1.219,0,0,1,.213.92q.01,4.61,0,9.219a1.217,1.217,0,0,1-.213.919c1.1.054,1.1.054,1.1-1.03v-9c0-1.086,0-1.086-1.1-1.032" transform="translate(-8.171 -3.779)" fill="#b1b3b5"/>
      <path id="Trazado_159231" data-name="Trazado 159231" d="M22.825,20.624q.01-4.61,0-9.219a1.219,1.219,0,0,0-.213-.92V21.544a1.219,1.219,0,0,0,.213-.92" transform="translate(-8.171 -3.789)" fill="#b1b3b5"/>
      <path id="Trazado_159232" data-name="Trazado 159232" d="M83.434,11.507v9.065c0,1.006,0,1.007.981.979.046,0,.091-.011.137-.017V10.477c-1.118-.055-1.118-.055-1.118,1.031" transform="translate(-30.149 -3.779)" fill="#7f8183"/>
      <path id="Trazado_159233" data-name="Trazado 159233" d="M85.185,10.476a1.219,1.219,0,0,1,.213.92q.01,4.61,0,9.219a1.217,1.217,0,0,1-.213.919c1.1.054,1.1.054,1.1-1.03v-9c0-1.086,0-1.086-1.1-1.032" transform="translate(-30.782 -3.779)" fill="#b1b3b5"/>
      <path id="Trazado_159234" data-name="Trazado 159234" d="M85.4,20.624q.01-4.61,0-9.219a1.219,1.219,0,0,0-.213-.92V21.544a1.219,1.219,0,0,0,.213-.92" transform="translate(-30.782 -3.789)" fill="#b1b3b5"/>
      <path id="Trazado_159235" data-name="Trazado 159235" d="M20.071,3.524c-.924-.008-1.848-.02-2.772-.022-1.772,0-1.761,0-1.682,1.8.014.335.107.429.434.423,1.34-.023,2.68-.022,4.02-.029V3.524" transform="translate(-5.634 -1.265)" fill="#cbcbcb"/>
      <path id="Trazado_159236" data-name="Trazado 159236" d="M22.606,5.693c.9.008,1.8.02,2.7.022,1.825,0,1.814,0,1.744-1.8-.013-.331-.095-.43-.427-.424-1.339.025-2.678.022-4.018.029a2.552,2.552,0,0,1,0,2.175" transform="translate(-8.169 -1.26)" fill="#f3f3f4"/>
      <path id="Trazado_159237" data-name="Trazado 159237" d="M22.606,3.536V5.711a2.552,2.552,0,0,0,0-2.175" transform="translate(-8.169 -1.278)" fill="#f3f3f4"/>
      <path id="Trazado_159238" data-name="Trazado 159238" d="M78.624,5.728c1.34-.023,2.68-.022,4.02-.029V3.524C81.72,3.516,80.8,3.5,79.872,3.5c-1.772,0-1.761,0-1.682,1.8.015.335.107.429.434.423" transform="translate(-28.245 -1.265)" fill="#cbcbcb"/>
      <path id="Trazado_159239" data-name="Trazado 159239" d="M85.18,5.693c.9.008,1.8.02,2.7.022,1.825,0,1.814,0,1.744-1.8-.013-.331-.095-.43-.427-.424-1.339.025-2.678.022-4.018.029a2.552,2.552,0,0,1,0,2.175" transform="translate(-30.78 -1.26)" fill="#f3f3f4"/>
      <path id="Trazado_159240" data-name="Trazado 159240" d="M85.18,3.536V5.711a2.552,2.552,0,0,0,0-2.175" transform="translate(-30.78 -1.278)" fill="#f3f3f4"/>
      <path id="Trazado_159241" data-name="Trazado 159241" d="M21.429,38.264A14.43,14.43,0,1,0,35.817,52.649,14.447,14.447,0,0,0,21.429,38.264M33.512,53.936A11.541,11.541,0,0,1,28.9,62.277a11.547,11.547,0,0,1-8.449,2.583,12.2,12.2,0,0,1-.685-24.254,11.837,11.837,0,0,1,9.136,2.5,11.771,11.771,0,0,1,4.615,10.826" transform="translate(-2.514 -13.827)"/>
      <path id="Trazado_159242" data-name="Trazado 159242" d="M64.825,35.147a1.614,1.614,0,0,0-.375,1.222c.008.878.006,1.756,0,2.634a1.279,1.279,0,0,0,.627,1.159c.446.289.892.579,1.321.893.333.243.388.5.038.779a1.887,1.887,0,0,1-2.2.494,9.87,9.87,0,0,0-1.707-.572c-.873-.243-1.378.1-1.4.987-.031,1.364-.01,2.727-.008,4.091a1.239,1.239,0,0,0,.616,1.092c.963.638,1.927,1.275,2.883,1.924a1.284,1.284,0,0,0,1.491.043c4.477-2.6,9-5.117,13.473-7.72.519-.3,1.035-.611,1.566-.892a1.173,1.173,0,0,0,.688-1.11q.007-1.491,0-2.981a1.163,1.163,0,0,0-.7-1.1c-.576-.294-1.173-.55-1.726-.886-.132-.08-.386-.178-.307-.353l-.041-.021a1.285,1.285,0,0,1-.89.174h-.2c-1.177.595-2.355,1.187-3.528,1.79a.812.812,0,0,1-.6.093L66.5,35l-.6,0a1.255,1.255,0,0,1-.893-.175c-.013.008-.021.018-.034.026a.41.41,0,0,1-.149.3M66.509,37.5c.162-.231.391-.061.561-.02,2.08.509,4.164,1,6.226,1.577a2.59,2.59,0,0,0,2.109-.233c.947-.529,1.931-.992,2.906-1.47a1.075,1.075,0,0,1,1.5.908,1.825,1.825,0,0,1-.989,2.057c-4.292,2.352-8.521,4.818-12.761,7.263a.924.924,0,0,1-1.242-.049,3.066,3.066,0,0,0-.692-.459c-.759-.375-1.224-.893-.973-1.657,0-1.294.02-1.343,1.081-.913a2.2,2.2,0,0,0,2.433-.323c.793-.63,1.686-1.132,2.522-1.71a1.115,1.115,0,0,0-.005-2.017c-.779-.539-1.574-1.054-2.357-1.586a1.517,1.517,0,0,1-.324-1.368" transform="translate(-22.084 -12.584)"/>
      <path id="Trazado_159243" data-name="Trazado 159243" d="M79.314,35.213c.552.337,1.15.592,1.726.887a1.161,1.161,0,0,1,.7,1.1q0,1.491,0,2.981a1.173,1.173,0,0,1-.688,1.11c-.531.28-1.047.59-1.566.892-4.474,2.6-9,5.123-13.473,7.721a1.285,1.285,0,0,1-1.491-.043c-.956-.649-1.92-1.286-2.883-1.924a1.239,1.239,0,0,1-.616-1.092c0-1.364-.023-2.728.009-4.091.02-.886.525-1.23,1.4-.987a9.9,9.9,0,0,1,1.708.572,1.888,1.888,0,0,0,2.2-.494c.349-.282.294-.535-.039-.779-.429-.314-.875-.6-1.321-.892a1.281,1.281,0,0,1-.627-1.16c0-.878.006-1.756,0-2.634a1.615,1.615,0,0,1,.376-1.222.413.413,0,0,0,.148-.3,1.413,1.413,0,0,0-.715,1.409,19.475,19.475,0,0,1,0,2.427,1.706,1.706,0,0,0,.989,1.805,12.159,12.159,0,0,1,1.155.764c.1.066.271.1.151.3a2.379,2.379,0,0,1-1.935.7c-.7-.232-1.4-.478-2.1-.7a1.111,1.111,0,0,0-1.572,1.147c-.015,1.364.008,2.729-.01,4.093a1.372,1.372,0,0,0,.7,1.261c.988.641,1.97,1.292,2.94,1.961a1.311,1.311,0,0,0,1.544.065q7.6-4.359,15.212-8.695a1.3,1.3,0,0,0,.709-1.248c-.019-.971-.023-1.943,0-2.913a1.3,1.3,0,0,0-.813-1.318c-.71-.345-1.408-.715-2.111-1.075-.079.176.174.273.307.353" transform="translate(-21.981 -12.597)"/>
      <path id="Trazado_159244" data-name="Trazado 159244" d="M87.527,35h.2a1.283,1.283,0,0,0,.89-.174l-.736,0L87.527,35" transform="translate(-31.628 -12.583)"/>
      <path id="Trazado_159245" data-name="Trazado 159245" d="M68.1,35l.6,0-.733-.187-.757.01A1.253,1.253,0,0,0,68.1,35" transform="translate(-24.287 -12.579)"/>
      <path id="Trazado_159246" data-name="Trazado 159246" d="M81.453,64.81c1.585,0,1.56,0,1.593-1.553.011-.539-.129-.683-.676-.681-6.653.02-13.306.013-19.958.013-1.595,0-1.574,0-1.593,1.622-.005.483.117.614.607.611,3.488-.022,6.976-.012,10.464-.012Z" transform="translate(-21.977 -22.612)"/>
      <path id="Trazado_159247" data-name="Trazado 159247" d="M89.831,74c-.555.009-.749-.1-.731-.7.046-1.531.013-1.533,1.689-1.533s1.676,0,1.669-1.685c0-.413-.085-.558-.529-.547-1.271.033-2.543.006-3.815.013-.819.005-1.207.41-1.215,1.248-.006.694,0,1.388,0,2.081,0,.671,0,1.341,0,2.012,0,.927.379,1.31,1.288,1.316.648,0,1.3-.015,1.943.006a1.108,1.108,0,1,1,.014,2.209c-.508.023-1.017.006-1.526.006-1.789,0-1.777,0-1.729,1.764.01.364.1.473.469.464,1.017-.024,2.035.006,3.052-.011A3.336,3.336,0,1,0,89.831,74" transform="translate(-31.392 -25.125)"/>
      <path id="Trazado_159248" data-name="Trazado 159248" d="M65.492,75.434c0-1.569-.008-3.139,0-4.708a1.126,1.126,0,0,0-1.941-.841q-.959.949-1.907,1.911a.8.8,0,0,0-.22.327A6.972,6.972,0,0,0,63,73.578c.561-.247.251.272.252.338.024,1.684.019,3.369.019,5.054,0,1.727,0,1.712,1.736,1.682.4-.007.5-.128.492-.51-.02-1.569-.008-3.139-.008-4.708" transform="translate(-22.197 -25.122)"/>
      <path id="Trazado_159249" data-name="Trazado 159249" d="M81.127,75.437c0-1.569-.008-3.139,0-4.708a1.125,1.125,0,0,0-1.938-.847q-.985.973-1.956,1.96c-.086.087-.273.194-.142.328.48.495.916,1.161,1.507,1.369.328.116.3.2.3.374.009,1.685.006,3.369.006,5.054,0,1.728,0,1.714,1.732,1.685.395-.007.5-.119.5-.506-.02-1.569-.008-3.139-.008-4.708" transform="translate(-27.843 -25.122)"/>
      <path id="Trazado_159250" data-name="Trazado 159250" d="M74.114,76.485c-.781.032-1.566.04-2.346,0-.461-.024-.513.163-.515.555-.008,1.677-.021,1.677,1.66,1.677,1.724,0,1.713,0,1.688-1.717-.005-.371-.076-.529-.487-.512" transform="translate(-25.747 -27.636)"/>
      <path id="Trazado_159251" data-name="Trazado 159251" d="M78.906,36.115A11.457,11.457,0,0,1,80.94,35.1c-3.587.034-7.175.027-10.762,0,1.887.338,3.73.872,5.576,1.372a3.834,3.834,0,0,0,3.152-.363" transform="translate(-25.359 -12.684)" fill="#faaf3b"/>
      <path id="Trazado_159252" data-name="Trazado 159252" d="M80.3,35a4.756,4.756,0,0,1,.669-.179L68.4,34.811c.383.049.76.121,1.138.189,3.587.025,7.174.031,10.762,0" transform="translate(-24.715 -12.579)" fill="#faaf3b"/>
      <path id="Trazado_159253" data-name="Trazado 159253" d="M78.677,36.114a3.834,3.834,0,0,1-3.152.363c-1.846-.5-3.689-1.034-5.576-1.372l-.4,0q3.68.941,7.361,1.88a.81.81,0,0,0,.6-.093c1.173-.6,2.351-1.2,3.528-1.79l-.319,0a11.458,11.458,0,0,0-2.034,1.012" transform="translate(-25.13 -12.683)" fill="#faaf3b"/>
      <path id="Trazado_159254" data-name="Trazado 159254" d="M87.347,35l.351-.178a4.788,4.788,0,0,0-.67.179h.319" transform="translate(-31.448 -12.583)" fill="#faaf3b"/>
      <path id="Trazado_159255" data-name="Trazado 159255" d="M69.534,35c-.378-.068-.756-.139-1.137-.188L69.13,35l.4,0" transform="translate(-24.716 -12.579)" fill="#faaf3b"/>
      <path id="Trazado_159256" data-name="Trazado 159256" d="M31.018,62.326a14.331,14.331,0,0,0,2.592-6.616,14.089,14.089,0,0,0-2.8-10.4c-.225-.306-.712-.437-.666-.934a11.843,11.843,0,0,0-9.136-2.5A12.2,12.2,0,0,0,21.7,66.124a11.549,11.549,0,0,0,8.449-2.583c.067-.561.585-.807.872-1.215m-2.6-9.879c-1.517-1.518-3.032-3.037-4.668-4.676v9.8c0,1.919-.013,3.838.01,5.757.006.451-.059.639-.581.632-1.649-.02-1.649,0-1.649-1.634v-14.6c-.406.428-.679.727-.965,1.014-1.256,1.261-2.512,2.523-3.778,3.774-.375.37-.809,1.12-1.131,1.008-.553-.192-.946-.835-1.418-1.278-.22-.206-.044-.319.079-.443q3.749-3.753,7.507-7.5a1.075,1.075,0,0,1,1.658.026c2.5,2.475,4.974,4.965,7.463,7.445.191.19.245.307.029.551-1.25,1.424-1.242,1.432-2.557.116" transform="translate(-3.765 -15.091)" fill="#cbcbcb"/>
      <path id="Trazado_159257" data-name="Trazado 159257" d="M41.31,45.852a11,11,0,0,1,2.472,3.62A14.213,14.213,0,0,1,42.323,63.9c-.291.423-.768.661-1.015,1.114a11.543,11.543,0,0,0,4.617-8.341A11.771,11.771,0,0,0,41.31,45.852" transform="translate(-14.927 -16.569)" fill="#f3f3f4"/>
      <path id="Trazado_159258" data-name="Trazado 159258" d="M42.323,63.9a14.214,14.214,0,0,0,1.459-14.433,11.005,11.005,0,0,0-2.472-3.62c-.046.5.441.628.667.934a14.092,14.092,0,0,1,2.8,10.4A14.325,14.325,0,0,1,42.179,63.8c-.287.407-.8.654-.872,1.215.247-.453.725-.691,1.015-1.114" transform="translate(-14.926 -16.569)" fill="#f3f3f4"/>
      <path id="Trazado_159259" data-name="Trazado 159259" d="M70.307,41.822a1.115,1.115,0,0,1,.005,2.017c-.836.577-1.729,1.08-2.522,1.71a2.2,2.2,0,0,1-2.434.324c-1.061-.431-1.081-.382-1.081.913-.25.764.214,1.282.973,1.657a3.106,3.106,0,0,1,.691.459.924.924,0,0,0,1.242.049c4.24-2.445,8.469-4.911,12.761-7.263a1.826,1.826,0,0,0,.99-2.057,1.075,1.075,0,0,0-1.5-.908c-.975.478-1.959.941-2.906,1.47a2.591,2.591,0,0,1-2.109.233c-2.062-.575-4.146-1.069-6.226-1.577-.17-.042-.4-.211-.561.02a1.516,1.516,0,0,0,.323,1.368c.784.532,1.579,1.048,2.358,1.586" transform="translate(-23.202 -13.956)" fill="#4f5153"/>
      <path id="Trazado_159260" data-name="Trazado 159260" d="M33.044,53.008c-2.489-2.48-4.969-4.971-7.463-7.445a1.075,1.075,0,0,0-1.658-.026q-3.768,3.736-7.507,7.5c-.123.123-.3.236-.079.443.471.442.863,1.086,1.417,1.277.322.112.756-.638,1.131-1.008,1.266-1.25,2.522-2.513,3.778-3.774.285-.287.559-.586.965-1.014v14.6c0,1.639,0,1.614,1.649,1.634.522.006.587-.181.581-.632-.024-1.918-.01-3.838-.01-5.757V49c1.636,1.639,3.151,3.158,4.668,4.676,1.315,1.316,1.307,1.307,2.557-.116.215-.245.162-.361-.029-.551" transform="translate(-5.865 -16.318)"/>
    </g>
  </g>
</svg>
