<svg xmlns="http://www.w3.org/2000/svg" width="252" height="238" viewBox="0 0 252 238">
  <g id="_86" data-name="86" transform="translate(-4732 8142)">
    <rect id="Rectángulo_41568" data-name="Rectángulo 41568" width="252" height="238" transform="translate(4732 -8142)" fill="#ffd947"/>
    <g id="Grupo_167935" data-name="Grupo 167935" transform="translate(4759 -8123)">
      <g id="Grupo_167937" data-name="Grupo 167937">
        <path id="Trazado_157027" data-name="Trazado 157027" d="M69.788,68.656c2.2,0,4.4.049,6.6-.008,2.485-.063,4.244.886,5.055,3.324a17.094,17.094,0,0,1,.579,5.3c-.028,5.584.091,11.173-.055,16.755a9.314,9.314,0,0,0,2.334,6.782,26.077,26.077,0,0,1,5.288,10.207,21.794,21.794,0,0,1,.682,7.172c-.324,2.534-.578,5.094-2.33,7.164a10.4,10.4,0,0,0-2.445,6.972c.107,15.2-.014,30.395.042,45.592.006,1.837-.482,2.309-2.308,2.3-15.957-.087-31.914-.071-47.871-.085-.863-1-.627-2.216-.636-3.364-.074-9.574.107-19.149-.112-28.72.28-3.016.057-6.039.13-9.059a9.445,9.445,0,0,1,.222-2.655c.574-1.218,1.532-.586,2.316-.4,2.627.627,5.22.888,7.919-.469a25.8,25.8,0,0,1-9.992-5.7,23.993,23.993,0,0,1-4.488-10.054c-.87-7.538,1.745-13.971,6.424-19.663a7.621,7.621,0,0,0,1.8-5.283c-.076-6.751-.036-13.5-.022-20.253,0-1.02-.149-2.086.586-2.969a4.858,4.858,0,0,1,5.008-2.894c2.2.059,4.407.023,6.611.028.938,1.071.525,2.379.631,3.594-.067,5.522-.1,11.046.036,16.565a8.6,8.6,0,0,0,4.741,7.944,8.156,8.156,0,0,0,8.82-.566c2.949-1.965,3.773-5,3.817-8.3.071-5.452.008-10.907.06-16.36a5.542,5.542,0,0,1,.308-2.645c.083-.086.168-.171.253-.257" transform="translate(8.688 19.521)" fill="#96bdf6"/>
        <path id="Trazado_157028" data-name="Trazado 157028" d="M164.66,46.063c.158,7.218,1.287,14.2,4.913,20.6a5.414,5.414,0,0,1,.9,3.865c-2.736,1.833-5.423,1.1-8-.3a17.321,17.321,0,0,1-5.473-4.987c-.816-1.078-1.413-2.967-2.713-2.873-1.332.1-1.1,2.122-1.608,3.267-1.27,2.835-3.275,4.154-5.966,3.726s-3.971-2.209-4.233-5.524c-.805-10.177-1.155-20.384-1.972-30.56-.2-2.471.34-3.086,2.851-3.145,3.517-.082,7.049.2,10.541-.461a9.1,9.1,0,0,0,4.452-1.6c-6.811-.715-13.629-.345-20.432-.479q-4.188.114-8.373.006c-6.391.067-12.786-.045-19.615.076a5.2,5.2,0,0,0,3.366,1.665c4.134,1.025,8.357.714,12.559.778,1.275.019,2.645-.324,3.767.658.83,1.966.351,4.03.432,6.048.064,1.559.076,3.126-.014,4.688.077,7.9.022,15.794.032,23.692a8.143,8.143,0,0,1-.2,2.246c-.67,1.5-2.122,1.36-3.373,1.5-6.261.714-10.7-2.322-14.271-7.068a30.2,30.2,0,0,1-2.56-4.251c-.19-.366-.438-.8-.907-.727s-.575.55-.683.945a41.4,41.4,0,0,0-1.026,4.854c-.461,3.125-2.749,4.294-5.385,2.557-2.909-1.915-5.369-4.339-6.236-7.932a3.9,3.9,0,0,0-.434-1.718C94.7,46.578,97.02,38.1,100.433,29.859c.71-1.712,1.286-3.212-.149-4.9a4.045,4.045,0,0,1-.724-2.945,4.7,4.7,0,0,1,0-2.908,5.655,5.655,0,0,1,4.977-4.977,3.344,3.344,0,0,1,1.824-.19q27.825-.013,55.651,0a3.339,3.339,0,0,1,1.823.19c5.008.813,6.652,5.988,3.937,10.6a22.3,22.3,0,0,0-2.687,9.793,33.5,33.5,0,0,0-.425,6.147,14.343,14.343,0,0,0,0,5.388" transform="translate(27.01 3.956)" fill="#f3f2f6"/>
        <path id="Trazado_157029" data-name="Trazado 157029" d="M37.574,52.152A30.634,30.634,0,0,1,29.95,35.97a3.2,3.2,0,0,1-.767-1.513,18.511,18.511,0,0,1-.159-3.752,31.155,31.155,0,0,1,5.409-17.1c1.68-2.064,2.932-4.539,5.484-5.78C44.029,4.759,48.342,2.159,53.423.907A31.3,31.3,0,0,1,91.861,27.163c1.233,9.651-1.694,17.934-7.8,25.278a1.281,1.281,0,0,1-1.126,1.016c-.609-.18-.774-.745-1.035-1.219a5.445,5.445,0,0,0-3.689-2.77c-10.139-2.4-16.282-9.336-20.622-18.269a44.417,44.417,0,0,1-2.529-6.562c-.645-2.137-.8-2.219-2.84-1.072C45.861,27.147,42,32.64,40.011,39.579c-.949,3.318-.721,6.7-.768,10.075-.017,1.088.222,2.218-.375,3.244-.881.533-1.153.008-1.293-.746" transform="translate(8.249 0)" fill="#12263f"/>
        <path id="Trazado_157030" data-name="Trazado 157030" d="M37.271,48.031c.222-4.592-.488-9.24.876-13.765,2.231-7.4,6.508-13.1,13.495-16.683,1.555-.8,1.889-.343,2.311,1.139a41.38,41.38,0,0,0,10.59,18.643,23.509,23.509,0,0,0,11.184,6.326c2.872.679,4.888,2.014,5.944,4.761,1.206,2.844.62,5.789.375,8.682a18.975,18.975,0,0,1-1.716,6.209c1.545.73,3.377-.366,4.709.9-1.492.764-3.091.2-4.631.365-.593.064-1.268-.143-1.648.542-2.338,4.205-6.025,6.981-10,9.453-1.2,1.2-2.81,1.446-4.348,1.761a23.3,23.3,0,0,1-12.252-.637A4.407,4.407,0,0,1,50.214,74.6c-3.865-2.416-7.535-5.04-9.843-9.134-.432-.767-1.171-.8-1.964-.858-1.487-.1-3.026.4-4.461-.348.814-.884,1.9-.625,2.9-.647,1.232-.027,1.643-.554,1.2-1.68-1.451-3.668-1.41-7.5-1.329-11.347a3.781,3.781,0,0,1,.559-2.551" transform="translate(9.653 4.89)" fill="#fec6b2"/>
        <path id="Trazado_157031" data-name="Trazado 157031" d="M35.735,30.124q.044,2.137.09,4.274c.349.661-.248,1.063-.433,1.578-2.293,6.3-5.329,12.116-10.755,16.359A24.306,24.306,0,0,1,9.644,57.414c-.81.014-1.734.109-2.2-.792-.448-.877.307-1.392.742-1.973,2.086-2.778,1.968-6.091,2.25-9.3.687-7.822.7-15.705,2.114-23.46a42.38,42.38,0,0,1,2.79-8.846C21.04-.455,37.508-2.3,46.087,7.451L41.1,13.193c-.691.461-1.323.008-1.973-.134-4.608-1.007-8.935,1.309-10.251,5.491a8.467,8.467,0,0,0,5.055,10.624,5.029,5.029,0,0,1,1.807.95" transform="translate(2.079 0.372)" fill="#12263f"/>
        <path id="Trazado_157032" data-name="Trazado 157032" d="M27.822,163.593c-4.152-3.666-5.053-7.932-2.77-13,.534-1.185,1.625-2.593,1.331-3.553-.335-1.092-2.253-.853-3.464-1.225A100.3,100.3,0,0,1,9.9,140.55c-4.033-1.888-5.884-5.021-2.276-9.312.656-1.916,2.2-3.143,3.571-4.475a40.935,40.935,0,0,1,10.957-8.036,8.7,8.7,0,0,1,8.512,1.686c2.88,2.323,4.942,5.384,7.628,7.863a1.914,1.914,0,0,1,.646,1.684c-.046,7.234,0,14.465-.021,21.694a15.489,15.489,0,0,1-1.644,7.386,9.268,9.268,0,0,1-7.657,4.918,3.012,3.012,0,0,1-1.793-.366" transform="translate(1.62 33.636)" fill="#96bdf6"/>
        <path id="Trazado_157033" data-name="Trazado 157033" d="M44.488,70.9c-.01,8.292-.041,16.584-.01,24.876A4.355,4.355,0,0,1,43.3,98.922c-5.129,5.855-7.877,12.573-7.077,20.495-.866.36-1.423-.25-2.009-.679-1.546-1.132-3.165-2.156-4.766-3.2-4.224-3.28-8.709-6.192-13.058-9.3-1.209-.864-2.633-1.5-3.37-2.919q5.8-8.446,11.611-16.892c1.909-2.765,3.708-5.62,5.807-8.235A19.772,19.772,0,0,1,44.488,70.9" transform="translate(3.703 20.163)" fill="#f1f1f1"/>
        <path id="Trazado_157034" data-name="Trazado 157034" d="M113.164,104.453a23.69,23.69,0,0,1-.4-6.135,5.944,5.944,0,0,1,3.429-5.665,6.089,6.089,0,0,1,6.78.668c.4.307.745,1.224,1.451.331,1.631-2.895,6.108-4.552,8.648-3.2,5.976,1.982,7.889,4.634,7.89,10.943,0,3.309.008,6.618,0,9.927-.015,5.322-2.615,8.563-7.877,9.837-.7.921-1.64.818-2.606.625a12.166,12.166,0,0,1-5.051-2.112,10.577,10.577,0,0,1-3.68-9.205c.1-1.522-.116-2.177-1.992-1.86a5.626,5.626,0,0,1-6.6-4.154" transform="translate(32.064 25.586)" fill="#96bdf6"/>
        <path id="Trazado_157035" data-name="Trazado 157035" d="M78.49,117.741c.371-7.379-2.544-13.524-7.213-18.97a4.154,4.154,0,0,1-1.124-2.945c.042-8.2.024-16.393.027-24.591.446.579.678,1.284,1.481,1.609,3.6,1.453,6.116,4.2,8.275,7.271,5.5,7.824,10.889,15.728,16.408,23.539,1.03,1.456,1.123,2.28-.581,3.18a32.917,32.917,0,0,0-3.689,2.611c-3.626,3.014-7.806,5.2-11.707,7.8-.548.366-1.1.907-1.878.5" transform="translate(19.95 20.258)" fill="#f1f1f1"/>
        <path id="Trazado_157036" data-name="Trazado 157036" d="M130.67,105.973a10.715,10.715,0,0,0-8.649,3.2q-.019-19.162-.044-38.325c0-1.035-.03-2.07-.045-3.106a6.454,6.454,0,0,1-.01-5.859q.046-13.245.091-26.493c3.325.623,6.658,1.228,9.125,3.884.414,3.84.132,7.69.184,11.532.05,3.779.026,7.557,0,11.336a3.891,3.891,0,0,1-.573,2.756q-.04,20.537-.08,41.073" transform="translate(34.473 10.064)" fill="#febe8d"/>
        <path id="Trazado_157037" data-name="Trazado 157037" d="M23.711,124.779a47.116,47.116,0,0,0-13.688,11.38,5.617,5.617,0,0,1-.778.66c-1.857-1.632-3.793-3.188-5.559-4.915A11.483,11.483,0,0,1,2,117.014c4.1-6.187,8.4-12.247,12.609-18.361,2.147,1.123,3.3,3.262,4.9,4.926,2.669,2.776,5.109,5.776,7.8,8.544a2.207,2.207,0,0,1,.745,1.212c-.356,1.517-1.7,2.3-2.611,3.38a7.086,7.086,0,0,0-1.668,7.073,1.117,1.117,0,0,1-.06.99" transform="translate(0 28.055)" fill="#fec6b2"/>
        <path id="Trazado_157038" data-name="Trazado 157038" d="M107.609,129.28c-2.341,1.315-4.649,2.695-7.031,3.931-5.646,2.934-11.11,1.585-14.931-3.559-2.46-3.312-4.976-6.581-7.467-9.87a24.437,24.437,0,0,0,3.436-8.052,1.767,1.767,0,0,1,.827-1.146,99.677,99.677,0,0,1,9.9-5.8c.925,1.611,1.837,3.228,2.778,4.828,2.281,3.875,4.069,4.6,8.382,3.4.658-.182,1.282-.485,1.921-.733.745.378.715,1.126.812,1.784.651,4.423,1.207,8.861,1.794,13.293a1.931,1.931,0,0,1-.419,1.918" transform="translate(22.233 29.799)" fill="#fec6b2"/>
        <path id="Trazado_157039" data-name="Trazado 157039" d="M101.6,130.11q-1.092-8.5-2.187-16.995c-.545-3.8,1.415-6.811,5.239-8,3.547-1.1,7.105-2.167,10.658-3.248.719.645.477,1.532.591,2.33.324,2.246,1.264,4.116,3.436,5.067a3.285,3.285,0,0,1,2.094,2.571,13.6,13.6,0,0,0,2.856,5.916c.376.455.917.9.606,1.631-3.677,3.422-7.812,6.279-11.67,9.479-1.428,1.184-2.939,2.268-4.384,3.436-3.33,2.689-5.954,1.9-7.239-2.189" transform="translate(28.244 28.969)" fill="#96bdf6"/>
        <path id="Trazado_157040" data-name="Trazado 157040" d="M128.807,68.111Q128.755,55,128.7,41.9a4.506,4.506,0,0,1-.647-2.569c-.005-4.281-.018-8.56.01-12.841a3.135,3.135,0,0,1,.618-2.339q9.835-.025,19.67-.045c.742,0,1.681-.148,1.839.87.176,1.125-.867,1.3-1.612,1.534-4.746,1.474-9.642,1.361-14.531,1.313-2.489-.024-2.823.211-2.349,2.51.632,3.066.344,6.166.654,9.246.59,5.876.62,11.806.976,17.708.09,1.5.365,2.991.394,4.512a4.216,4.216,0,0,0,3.383,4.132,4.57,4.57,0,0,0,5.208-2.431,29.751,29.751,0,0,0,1.273-3.913c.168-.6.15-1.287.931-1.431.745-.137,1.1.435,1.477.931,1.776,2.352,3.4,4.786,5.771,6.684a10.073,10.073,0,0,0,9.3,1.86c-.769,4.337-4.391,6.437-8.419,4.868A14.553,14.553,0,0,1,149.1,70.4c-1.031-.794-2.015-1.649-3.116-2.556a19.675,19.675,0,0,1-1.738,2.673c-3.6,4-7.835,3.5-12.574.218a27.432,27.432,0,0,1-2.863-2.629" transform="translate(36.414 6.853)" fill="#c5c2d7"/>
        <path id="Trazado_157041" data-name="Trazado 157041" d="M130.574,131.376c0,9.935-.039,19.871.051,29.805.017,1.793-.577,2.3-2.24,2.118-2.1-.234-4.825.9-6.151-.489-1.218-1.277-.34-3.951-.344-6.006-.018-9.589.018-19.18.036-28.769a24.81,24.81,0,0,1,8.648,3.341" transform="translate(34.577 36.41)" fill="#febe8e"/>
        <path id="Trazado_157042" data-name="Trazado 157042" d="M129.338,58.7q.006,2.93.01,5.859c-5.506,1.995-10.8,1.821-15.707-1.666-1.112-.79-2.087-2.484-3.117-2.478s-1.966,1.712-3.044,2.546a4.85,4.85,0,0,1-6.234-.64,21.354,21.354,0,0,1-5.891-13.512c-.109-.5-.6-1.13.425-1.241.963,3.961,3.617,6.579,7.047,8.4,1.858.989,3.538-.285,3.69-2.691a34.285,34.285,0,0,1,1.072-5.236c.144-.651.306-1.476,1.188-1.474.709,0,.965.687,1.237,1.245a28.633,28.633,0,0,0,3.887,6.064c4.149,4.872,9.352,6.223,15.437,4.822" transform="translate(27.056 13.245)" fill="#c5c2d7"/>
        <path id="Trazado_157043" data-name="Trazado 157043" d="M46.663,73.4l-.1-3.726c.031-.3.063-.606.094-.911a3.226,3.226,0,0,1,1.86-.817q7.41-1.387,14.832-2.7a2.022,2.022,0,0,1,1.78.2l.1,4.213.017-.022c-.483.983-.205,2.028-.212,3.039A8.909,8.909,0,0,1,55.712,81.8c-4.9-.1-8.422-3.363-9.048-8.393" transform="translate(13.243 18.523)" fill="#fec6b2"/>
        <path id="Trazado_157044" data-name="Trazado 157044" d="M22.923,161.093c7.417-.429,10.229-4.378,10.421-11.195.194-6.891.035-13.792.057-20.687,0-.722-.289-1.536.41-2.138a5.64,5.64,0,0,1,3.364,4.084,5.146,5.146,0,0,1,.39,2q-.035,15.176-.04,30.352c-2.886.013-5.773.1-8.658.017a8.681,8.681,0,0,1-5.944-2.438" transform="translate(6.519 36.136)" fill="#6f9dd7"/>
        <path id="Trazado_157045" data-name="Trazado 157045" d="M130.524,135.692a52.27,52.27,0,0,1-8.649-3.341l-.108-18.252c-.082-.941.547-1.147,1.283-1.243,2.358,1.155,4.682,2.457,7.476,1.793q0,10.523,0,21.043" transform="translate(34.626 32.094)" fill="#e99266"/>
        <path id="Trazado_157046" data-name="Trazado 157046" d="M38.817,41.375c.08,5.076-.4,10.217,1.79,15.04.375.823.072,1.138-.773,1.139-1.447,0-2.895.028-4.342.046a8.345,8.345,0,0,1-6.972-8.689,8.475,8.475,0,0,1,8.043-7.963,1.562,1.562,0,0,0,1.151-.344c.369.256.516.828,1.1.771" transform="translate(8.107 11.547)" fill="#f19a86"/>
        <path id="Trazado_157047" data-name="Trazado 157047" d="M75.018,57.528H69.181c2.817-5.2,2.542-10.514,2.47-15.8a1.709,1.709,0,0,1,.984-.9c3.786-.087,6.73,1.409,8.443,4.829,2.5,4.994-.428,10.627-6.06,11.868" transform="translate(19.673 11.61)" fill="#f19986"/>
        <path id="Trazado_157048" data-name="Trazado 157048" d="M93.178,105.868c-2.48,2.341-5.613,3.685-8.487,5.4a4.362,4.362,0,0,0-2.213,3.21,10.447,10.447,0,0,1-3.46,6.386l-3.785-4.707c.618-2.289,1.587-4.484,1.812-6.875,3.812-2.4,7.616-4.81,11.444-7.186.678-.421,1.239-1.106,2.141-1.108q1.273,2.441,2.548,4.882" transform="translate(21.395 28.718)" fill="#f19a86"/>
        <path id="Trazado_157049" data-name="Trazado 157049" d="M24.7,113.941c-2.946-2.209-4.989-5.292-7.55-7.877-2.07-2.088-3.862-4.454-5.777-6.7q1.06-1.614,2.121-3.228,7.835,5.466,15.662,10.942a7.039,7.039,0,0,1,.976,1.024c-1.359,2.366-2.84,4.617-5.432,5.836" transform="translate(3.234 27.34)" fill="#f19a86"/>
        <path id="Trazado_157050" data-name="Trazado 157050" d="M125.9,116.157l-1.283,1.243c-1.261.457-1.939,1.794-3.261,2.16a16.069,16.069,0,0,1-4.173-8.284.953.953,0,0,0-.669-.911c-4.041-1.367-4.942-4.53-4.739-8.319l1.677-.8c2.1,3.5,5.107,4.547,9.185,3.047-.387,4.506-.082,8.641,3.264,11.864" transform="translate(31.778 28.792)" fill="#6f9dd7"/>
        <path id="Trazado_157051" data-name="Trazado 157051" d="M65.12,66.365,46.648,69.689q-.017-3.9-.036-7.8a33.512,33.512,0,0,0,10.609,1.7c2.79-.113,5.276-1.221,7.936-1.694q-.019,2.235-.037,4.468" transform="translate(13.255 17.6)" fill="#f19a86"/>
        <path id="Trazado_157052" data-name="Trazado 157052" d="M161.719,14.184h-59.3c.615-.669,1.423-.4,2.149-.4q27.5-.023,55,0c.724,0,1.534-.271,2.147.4" transform="translate(29.126 3.905)" fill="#f7f6f9"/>
        <path id="Trazado_157053" data-name="Trazado 157053" d="M149.344,40.137a7.441,7.441,0,0,1,0-5.388v5.388" transform="translate(42.326 9.882)" fill="#f4f3f7"/>
        <path id="Trazado_157054" data-name="Trazado 157054" d="M95.824,47.63c-.493.293-.37.8-.424,1.241-.7-.742-.285-1.659-.393-2.5l.817,1.255" transform="translate(27.011 13.188)" fill="#dddbe7"/>
        <path id="Trazado_157055" data-name="Trazado 157055" d="M98.654,17.959q0,1.455,0,2.909a2.431,2.431,0,0,1,0-2.909" transform="translate(27.917 5.107)" fill="#f6f6f9"/>
        <path id="Trazado_157056" data-name="Trazado 157056" d="M29.174,28.649q.216-.79.433-1.578c.459.312.361.759.3,1.2l-.728.379" transform="translate(8.296 7.698)" fill="#fee2bc"/>
        <path id="Trazado_157057" data-name="Trazado 157057" d="M46.662,72.407c1.781,5.4,4.831,7.932,9.461,7.845,4.822-.09,9.178-4.447,8.757-8.846-.086-.9-.38-1.933.369-2.769-.015,6.62-.006,13.239-.053,19.859-.035,4.77-2.637,8.406-6.744,9.558a9.246,9.246,0,0,1-11.816-8.689c-.152-5.649.005-11.305.027-16.959" transform="translate(13.243 19.519)" fill="#f1f1f1"/>
        <path id="Trazado_157058" data-name="Trazado 157058" d="M34.378,122.3q0-3.086,0-6.174c2.379,1.288,4.271,3.395,6.981,4.128.921.249,1.825.555,2.74.827.587.173,1,.494.9,1.164-.081.555-.5.766-1.012.864a15.019,15.019,0,0,1-9.607-.809" transform="translate(9.776 33.024)" fill="#6f9ed8"/>
        <path id="Trazado_157059" data-name="Trazado 157059" d="M75.226,116.1a40.8,40.8,0,0,0,.03,4.386c.229,1.929-.695,2.61-2.429,2.657a23.032,23.032,0,0,1-6.142-.448c-.638-.157-1.189-.479-1.259-1.18-.058-.587.47-.861.925-.952,3.228-.65,5.917-2.415,8.875-4.463" transform="translate(18.604 33.016)" fill="#6f9ed8"/>
        <path id="Trazado_157060" data-name="Trazado 157060" d="M130.6,24.138q.01,8.876.019,17.75l-8.632-3.3-.1-10.777a2.918,2.918,0,0,1,.123-3.658l8.594-.018" transform="translate(34.496 6.864)" fill="#e99366"/>
        <path id="Trazado_157061" data-name="Trazado 157061" d="M126.419,24.167q-.062,1.83-.122,3.659c-4.679-.2-9.37.334-14.046-.369a32.76,32.76,0,0,1-5.191-1.286c-.679-.22-1.4-.542-1.239-1.382.149-.767.926-.69,1.544-.687q9.527.027,19.055.064" transform="translate(30.086 6.853)" fill="#c6c3d8"/>
        <path id="Trazado_157062" data-name="Trazado 157062" d="M31.189,27.709a8.5,8.5,0,0,1-7.422-6.24,8.455,8.455,0,0,1,2.444-9.221c2.768-2.611,6.043-3.014,9.574-1.771.258.09.51.2.765.3a33.939,33.939,0,0,0-5.361,16.933" transform="translate(6.624 2.787)" fill="#3b434f"/>
        <path id="Trazado_157063" data-name="Trazado 157063" d="M62.892,44.2A2.341,2.341,0,0,1,60.2,46.385,2.314,2.314,0,0,1,57.983,43.7a2.266,2.266,0,0,1,2.684-2.189c1.557.153,2.218,1.155,2.225,2.687" transform="translate(16.484 11.8)" fill="#2f3441"/>
        <path id="Trazado_157064" data-name="Trazado 157064" d="M45.841,43.884a2.3,2.3,0,0,1,2.5-2.388,2.243,2.243,0,0,1,2.413,2.32,2.459,2.459,0,1,1-4.915.068" transform="translate(13.036 11.8)" fill="#2f3441"/>
      </g>
    </g>
  </g>
</svg>
