<svg xmlns="http://www.w3.org/2000/svg" width="252" height="238" viewBox="0 0 252 238">
  <g id="_88" data-name="88" transform="translate(-7260 8142)">
    <rect id="Rectángulo_41570" data-name="Rectángulo 41570" width="252" height="238" transform="translate(7260 -8142)" fill="#ffd947"/>
    <g id="Grupo_167942" data-name="Grupo 167942" transform="translate(7294 -8116)">
      <g id="Grupo_167944" data-name="Grupo 167944">
        <path id="Trazado_157118" data-name="Trazado 157118" d="M59.242,172.252q-4.5.684-8.992,1.364c-.519.078-1.1-.123-1.52.36H47.273a38.1,38.1,0,0,1-13.124-3.837,48.425,48.425,0,0,1-19.683-18.567,58.566,58.566,0,0,1-8.034-25.033,6.451,6.451,0,0,1,.057-1.99,1.489,1.489,0,0,1,.236-.5c2.488-1.258,5.193-1.972,7.744-3.094,8.415-3.7,15.765-8.987,22.721-14.9,2.174-1.847,4.19-3.854,6.22-5.851,1.341-1.32,1.472-1.2,2.893.174,10.318,10.008,21.563,18.6,35.5,23.039a49.8,49.8,0,0,0,8.522,1.8,1.919,1.919,0,0,1,.257,1.388q.005,14.23-.007,28.459c0,.473.108.976-.255,1.386-.665-.456-.567-1.173-.559-1.814.084-6.875-.293-13.756.325-20.817,0-.047-.4.259-.177.169.062-.025.1.019.1.133A27.11,27.11,0,0,1,87.536,145a46.491,46.491,0,0,1-24.6,25.709c-1.22.555-2.673.539-3.7,1.541" transform="translate(0.8 12.442)" fill="#fac3ab"/>
        <path id="Trazado_157119" data-name="Trazado 157119" d="M7.58,121.551a58.141,58.141,0,0,0,6.277,23.772c5.252,10.039,12.757,17.833,23.2,22.529a44.734,44.734,0,0,0,10.219,2.976,3.577,3.577,0,0,1,.79.362H40.786a61.217,61.217,0,0,0-7.7-1.41c-.585-.074-1.215.1-1.731-.334a48.436,48.436,0,0,1-9.685-4.572C10.413,157.739,3.46,147.578.528,134.624c-.358-1.586-.236-3.24-.447-4.852q-.022-3.489-.045-6.98a17.837,17.837,0,0,1,7.544-1.24" transform="translate(0.005 15.226)" fill="#e2af97"/>
        <path id="Trazado_157120" data-name="Trazado 157120" d="M171.065,32.046c.551,2.835,1.552,5.547,1.886,8.458a46.6,46.6,0,0,1-2.835,23.146c-5.221,12.937-14.376,21.935-27.5,26.742a38.173,38.173,0,0,1-11.655,2.382C111.1,91.025,93.673,73.69,91.171,52.734a45.329,45.329,0,0,1,.653-16.243c2.16-2.229,4.926-3.511,7.688-4.723A66.971,66.971,0,0,1,125.5,26.347a61.9,61.9,0,0,1,17.967,2.2A85.625,85.625,0,0,0,168.11,31.5c1-.017,2.083-.236,2.955.548" transform="translate(11.372 3.3)" fill="#fac3ab"/>
        <path id="Trazado_157121" data-name="Trazado 157121" d="M90.981,158.572c1.489-2.708,2.8-5.582,4.544-8.153a24.161,24.161,0,0,0,4.145-15.744c-.395-6.347-.117-12.738-.082-19.108.06-11.024,7.8-18.767,18.806-18.8,12.2-.032,24.393-.053,36.588.01a18.078,18.078,0,0,1,18.045,14.933,15.953,15.953,0,0,1,.249,3.076c.018,8.676.091,17.355-.014,26.03a17.847,17.847,0,0,1-14.676,17.646,24.086,24.086,0,0,1-4.7.4q-30.762.039-61.525.01a1.676,1.676,0,0,1-1.375-.3" transform="translate(11.402 12.124)" fill="#fc5f65"/>
        <path id="Trazado_157122" data-name="Trazado 157122" d="M82.164,76.972c-.478.365-1.039.2-1.555.2q-30.853.014-61.706.01Q7,77.185,1.68,66.573A16.662,16.662,0,0,1,.016,59.008c0-8.556-.038-17.112.009-25.666a18.108,18.108,0,0,1,18.183-18.13q18.566-.042,37.132,0A18.142,18.142,0,0,1,73.849,33.591c.075,8.615.045,17.232-.007,25.849a7.589,7.589,0,0,0,1.035,3.952C77.21,67.5,79.469,71.656,81.749,75.8c.2.358.514.685.415,1.175" transform="translate(0 1.904)" fill="#58b68b"/>
        <path id="Trazado_157123" data-name="Trazado 157123" d="M171.024,35.189a98.535,98.535,0,0,1-30.152-3.58c-7.033-2.036-14.231-1.871-21.446-1.22A59.877,59.877,0,0,0,97.041,36.68a24.841,24.841,0,0,0-5.047,3.2.362.362,0,0,1-.528-.1c-.836-2.041-.108-4.087.131-6.084a101.9,101.9,0,0,1,7.76-29.544c.459-1.033.751-2.191,1.762-2.9A178.76,178.76,0,0,0,133.576,3c4.488-.124,8.971-.326,13.459-.19a36.967,36.967,0,0,1,6.666.808c6.938,1.491,11.186,5.992,13.618,12.388a61.934,61.934,0,0,1,3.7,19.181" transform="translate(11.414 0.158)" fill="#c76d5c"/>
        <path id="Trazado_157124" data-name="Trazado 157124" d="M90.325,127.253c-.689.709-1.482.281-2.21.155-11.517-1.994-21.35-7.555-30.518-14.5A93.158,93.158,0,0,1,45.8,102.41c-.922-.982-1.32-.7-2.069.073a99.131,99.131,0,0,1-24.46,18.657,51.8,51.8,0,0,1-12.416,4.992c-.638-.665-.452-1.469-.35-2.241A46.968,46.968,0,0,1,19.869,96.4,45.161,45.161,0,0,1,42.78,83.694c.389-.082,1.023.138,1.1-.584a35.479,35.479,0,0,1,13.745,1.844C76.137,91.159,86.765,104.1,89.921,123.28c.216,1.311.273,2.648.4,3.972" transform="translate(0.802 10.406)" fill="#3a484a"/>
        <path id="Trazado_157125" data-name="Trazado 157125" d="M92.628,35.6c.118,0,.236-.01.353-.018a71.116,71.116,0,0,0-.739,11.191,45.389,45.389,0,0,0,10.7,28.44,44.971,44.971,0,0,0,28.524,16.123c.161.026.3.186.449.282-14.166.909-26.185-3.872-35.96-14.029A45.114,45.114,0,0,1,83.469,50.971,39.153,39.153,0,0,1,83.211,45a5.278,5.278,0,0,1,1.2-2.207,52.4,52.4,0,0,1,7.06-6.767,1.568,1.568,0,0,1,1.158-.43" transform="translate(10.426 4.459)" fill="#e2af97"/>
        <path id="Trazado_157126" data-name="Trazado 157126" d="M92.626,40.056a50.045,50.045,0,0,0-9.417,9.4c-.1-16.271,2.49-32,9.446-46.847,1.206-2.574,2.316-3.027,5.09-2.3,1.449.38,2.907.734,4.361,1.1-1.525,3.8-3.239,7.515-4.479,11.43a108.069,108.069,0,0,0-4.307,19.5,50.773,50.773,0,0,0-.694,7.711" transform="translate(10.428 0)" fill="#ac4f3d"/>
        <path id="Trazado_157127" data-name="Trazado 157127" d="M44.682,83.1c.287.073.783.088.824.231.146.518-.35.488-.667.549a43.2,43.2,0,0,0-12.256,4.308A46.531,46.531,0,0,0,13.6,106.558a45,45,0,0,0-5.941,19.565,1.288,1.288,0,0,0-.075.24c-2.507.456-4.945,1.345-7.544,1.24C1.2,109.172,9.99,95.676,26.42,87.3a38.728,38.728,0,0,1,18.262-4.2" transform="translate(0.005 10.414)" fill="#323e40"/>
        <path id="Trazado_157128" data-name="Trazado 157128" d="M53.467,168.462l-1.008-.173c18.258-6.783,28.721-19.773,32.089-38.771v23.145c-.709,7.622-5.888,12.974-13.429,13.836-5.882.673-11.768,1.311-17.652,1.964" transform="translate(6.574 16.232)" fill="#3a484a"/>
        <path id="Trazado_157129" data-name="Trazado 157129" d="M.085,128.85a55.129,55.129,0,0,0,3.881,14.029c5.493,11.966,14.307,20.342,26.708,24.879.339.124.771.159,1,.393.288.3-.2.241-.312.375-6.436-.735-12.9-1.292-19.3-2.252a14.148,14.148,0,0,1-11.966-13.6c-.16-7.937-.018-15.881-.007-23.822" transform="translate(0.002 16.148)" fill="#3a484a"/>
        <path id="Trazado_157130" data-name="Trazado 157130" d="M41.218,139.713a8.113,8.113,0,0,1-5.916-2.362,2.941,2.941,0,0,1-.383-4.213c1.039-1.125,2.655-1.138,4.069-.028,1.83,1.436,2.8,1.428,4.67-.034,1.426-1.111,3-1.074,4.062.1,1.1,1.211.994,2.7-.28,4.051a8.243,8.243,0,0,1-6.223,2.487" transform="translate(4.286 16.577)" fill="#3a484a"/>
        <path id="Trazado_157131" data-name="Trazado 157131" d="M62.727,139.736c-1.094,0-2.188.043-3.277-.01A2.9,2.9,0,0,1,56.7,136.9a2.677,2.677,0,0,1,2.739-2.612q3.366-.091,6.735,0c1.674.046,2.484,1,2.487,2.705a2.388,2.388,0,0,1-2.472,2.731c-1.15.059-2.306.011-3.457.011" transform="translate(7.105 16.824)" fill="#f88084"/>
        <path id="Trazado_157132" data-name="Trazado 157132" d="M19.679,134.27c1.089,0,2.18-.03,3.267.008a2.718,2.718,0,0,1,2.649,2.651,2.521,2.521,0,0,1-2.369,2.74,59.559,59.559,0,0,1-7.255.012,2.635,2.635,0,0,1-2.352-2.945,2.506,2.506,0,0,1,2.611-2.457c1.148-.048,2.3-.01,3.449-.01" transform="translate(1.705 16.826)" fill="#f88084"/>
        <path id="Trazado_157133" data-name="Trazado 157133" d="M65.223,128.983a15.89,15.89,0,0,1-.029,2.711,2.63,2.63,0,0,1-2.9,2.412,2.571,2.571,0,0,1-2.631-2.5,28.615,28.615,0,0,1-.006-5.251,2.55,2.55,0,0,1,2.638-2.485,2.622,2.622,0,0,1,2.9,2.4,16.024,16.024,0,0,1,.026,2.712" transform="translate(7.462 15.523)" fill="#3b484a"/>
        <path id="Trazado_157134" data-name="Trazado 157134" d="M16.482,128.895c0-.844-.06-1.694.014-2.532a2.618,2.618,0,0,1,2.783-2.493,2.49,2.49,0,0,1,2.679,2.394,38.407,38.407,0,0,1,0,5.422,2.6,2.6,0,0,1-2.853,2.419,2.579,2.579,0,0,1-2.606-2.5c-.088-.9-.016-1.807-.016-2.712" transform="translate(2.062 15.524)" fill="#3a484a"/>
        <path id="Trazado_157135" data-name="Trazado 157135" d="M124.347,59.655a8.759,8.759,0,0,1-6.149-2.729,2.822,2.822,0,0,1-.106-3.935,2.738,2.738,0,0,1,3.914-.17c2.067,1.562,2.772,1.557,4.954-.035a2.774,2.774,0,0,1,3.922.235,2.736,2.736,0,0,1-.183,3.923,8.77,8.77,0,0,1-6.351,2.711" transform="translate(14.706 6.527)" fill="#3a484a"/>
        <path id="Trazado_157136" data-name="Trazado 157136" d="M145.9,59.509c-1.092,0-2.183.026-3.275,0a2.737,2.737,0,0,1-2.791-2.719,2.913,2.913,0,0,1,2.674-2.73c2.3-.068,4.609-.075,6.911,0a2.64,2.64,0,0,1,2.387,2.877,2.33,2.33,0,0,1-2.45,2.561c-1.15.048-2.3.009-3.456.011" transform="translate(17.525 6.768)" fill="#f88084"/>
        <path id="Trazado_157137" data-name="Trazado 157137" d="M102.657,59.515c-1.029,0-2.058.02-3.087-.006a2.723,2.723,0,0,1-.28-5.438c2.295-.1,4.6-.1,6.9,0a2.706,2.706,0,0,1,2.57,2.774,2.807,2.807,0,0,1-2.832,2.673c-.06,0-.12,0-.181,0q-1.543,0-3.087,0" transform="translate(12.125 6.767)" fill="#f88084"/>
        <path id="Trazado_157138" data-name="Trazado 157138" d="M142.759,48.792a17.311,17.311,0,0,1,.023-2.535,2.666,2.666,0,0,1,2.771-2.568,2.585,2.585,0,0,1,2.8,2.52,29.673,29.673,0,0,1,.028,5.07,2.694,2.694,0,0,1-2.87,2.656,2.766,2.766,0,0,1-2.756-2.784c-.06-.782-.01-1.572-.01-2.358h.018" transform="translate(17.886 5.475)" fill="#3b494a"/>
        <path id="Trazado_157139" data-name="Trazado 157139" d="M105.144,48.758c0,.9.068,1.815-.015,2.712a2.617,2.617,0,0,1-2.821,2.453,2.484,2.484,0,0,1-2.639-2.434,37.119,37.119,0,0,1,.007-5.423,2.471,2.471,0,0,1,2.7-2.37,2.537,2.537,0,0,1,2.732,2.352,18.591,18.591,0,0,1,.024,2.71h.015" transform="translate(12.479 5.476)" fill="#3a484a"/>
        <path id="Trazado_157140" data-name="Trazado 157140" d="M133.909,116.111q-9.277,0-18.552,0a5.234,5.234,0,0,1-1.975-.2,2.717,2.717,0,0,1-1.912-2.793,2.512,2.512,0,0,1,2.017-2.5,9.732,9.732,0,0,1,2.154-.217q18.188-.02,36.376-.009c2.813,0,4.258.96,4.284,2.827s-1.456,2.894-4.2,2.894q-9.095,0-18.188,0" transform="translate(13.97 13.834)" fill="#eeecec"/>
        <path id="Trazado_157141" data-name="Trazado 157141" d="M133.873,127.451q-9.46,0-18.918,0c-2.192,0-3.535-1.078-3.529-2.785.007-1.726,1.3-2.756,3.532-2.757q18.917-.012,37.835,0c2.229,0,3.529,1.04,3.534,2.763.006,1.7-1.341,2.776-3.536,2.778q-9.46.014-18.918,0" transform="translate(13.964 15.277)" fill="#eeeced"/>
        <path id="Trazado_157142" data-name="Trazado 157142" d="M139.483,138.831c-3.815,0-7.63.01-11.445,0-2.2-.009-3.482-1.067-3.46-2.807.023-1.688,1.264-2.728,3.361-2.731q11.718-.019,23.434,0c2.026,0,3.334,1.153,3.3,2.81s-1.293,2.713-3.386,2.724c-3.936.02-7.872.006-11.808.006" transform="translate(15.613 16.703)" fill="#eeeced"/>
        <path id="Trazado_157143" data-name="Trazado 157143" d="M35.185,45.915q-9.186,0-18.371,0a6.524,6.524,0,0,1-1.628-.081,2.694,2.694,0,0,1-2.253-2.7A2.534,2.534,0,0,1,14.9,40.423,7.106,7.106,0,0,1,16.87,40.2q18.462-.019,36.924-.006a6.314,6.314,0,0,1,1.447.073A2.818,2.818,0,0,1,57.7,43.2a2.691,2.691,0,0,1-2.515,2.664,9.06,9.06,0,0,1-1.633.053q-9.184.005-18.371,0" transform="translate(1.621 5.037)" fill="#eeeced"/>
        <path id="Trazado_157144" data-name="Trazado 157144" d="M35.346,28.812q9.184,0,18.37.008a8.191,8.191,0,0,1,1.973.19A2.517,2.517,0,0,1,57.708,31.5a2.648,2.648,0,0,1-1.936,2.759,5.57,5.57,0,0,1-1.784.262q-18.733.022-37.468.01a6.424,6.424,0,0,1-.908-.028,2.822,2.822,0,0,1-2.682-2.9,2.744,2.744,0,0,1,2.954-2.78c4.244-.048,8.488-.018,12.732-.019h6.729" transform="translate(1.621 3.61)" fill="#eeeced"/>
        <path id="Trazado_157145" data-name="Trazado 157145" d="M27.88,51.712c3.941,0,7.883-.017,11.824.007,2.114.014,3.134.9,3.171,2.667.037,1.8-1.107,2.857-3.2,2.862q-11.733.024-23.465,0c-2.127,0-3.293-1.034-3.283-2.786s1.16-2.733,3.307-2.744c3.88-.017,7.761,0,11.641,0" transform="translate(1.621 6.48)" fill="#eeeced"/>
      </g>
    </g>
  </g>
</svg>
