<svg id="_9" data-name="9" xmlns="http://www.w3.org/2000/svg" xmlns:xlink="http://www.w3.org/1999/xlink" width="105" height="105" viewBox="0 0 105 105">
  <defs>
    <clipPath id="clip-path">
      <rect id="Rectángulo_42392" data-name="Rectángulo 42392" width="70.885" height="54.374" fill="none"/>
    </clipPath>
  </defs>
  <circle id="Elipse_4891" data-name="Elipse 4891" cx="52.5" cy="52.5" r="52.5" fill="#ffdfe0"/>
  <g id="Grupo_169152" data-name="Grupo 169152" transform="translate(17 25)">
    <g id="Grupo_169151" data-name="Grupo 169151" clip-path="url(#clip-path)">
      <path id="Trazado_159261" data-name="Trazado 159261" d="M0,20.106c.174-.059.128-.223.163-.346a6.008,6.008,0,0,1,4.37-4.374q18-5.172,35.993-10.361Q48.779,2.649,57.034.28a5.919,5.919,0,0,1,7.627,4.156q.688,2.314,1.348,4.637c.266.934.041,1.346-.885,1.689a4.1,4.1,0,0,0,2.293,7.869c.84-.188,1.315.009,1.535.744.612,2.049,1.254,4.093,1.759,6.17a5.669,5.669,0,0,1-1.57,5.464,1.078,1.078,0,0,0-.382.759c-.027.878-.352,1.175-1.229,1.242a4.112,4.112,0,0,0-.2,8.213c1.214.131,1.464.388,1.442,1.609a61.692,61.692,0,0,1-.107,6.5,5.86,5.86,0,0,1-5.32,4.986c-.346.023-.691.039-1.037.039q-17.855,0-35.709,0c-1.123,0-1.345-.15-1.575-1.037a.938.938,0,0,1,.676-1.162,3.854,3.854,0,0,1,1.436-.147q17.608,0,35.218,0a4.521,4.521,0,0,0,1.835-.262,3.437,3.437,0,0,0,2.169-2.744,33.967,33.967,0,0,0,.153-4.9c.01-.538-.338-.69-.759-.826a6.57,6.57,0,0,1-4.624-6.151,8.4,8.4,0,0,1,.808-3.02,17.019,17.019,0,0,0-1.78.473Q45.9,38.7,31.63,42.791c-5.739,1.655-11.488,3.277-17.214,4.979a6.813,6.813,0,0,1-4.6.019A5.92,5.92,0,0,1,6.16,43.978c-.47-1.475-.457-1.1-1.6-.738a.644.644,0,0,0-.338.225,18.411,18.411,0,0,0,.085,6.094A3.421,3.421,0,0,0,7.7,52.008c4.166.01,8.332,0,12.5,0a4.249,4.249,0,0,1,.963.058,1.082,1.082,0,0,1,.93,1.283,1.119,1.119,0,0,1-1.262,1.005c-4.38-.006-8.761.051-13.139-.027A5.847,5.847,0,0,1,1.769,48.2c-.013-1.89-.006-3.781,0-5.671,0-.9.264-1.181,1.153-1.3.228-.032.46-.049.685-.1,1.5-.32,1.709-.666,1.292-2.1-.039-.133-.068-.268-.106-.4-.456-1.564-.427-1.632,1-2.319.853-.411.9-.527.395-1.321a4.148,4.148,0,0,0-3.172-1.964C1.977,32.9,1.7,32.651,1.782,31.608a18.041,18.041,0,0,0-1.16-7.433A6.966,6.966,0,0,0,0,22.32Z" transform="translate(0 0)"/>
      <path id="Trazado_159262" data-name="Trazado 159262" d="M23.035,62.362c-.19-.877-.489-1.115-1.442-1.116q-6.328,0-12.657,0a3.825,3.825,0,0,1-4.127-4.138c0-1.43-.008-2.859.006-4.289,0-.212-.168-.539.244-.6.491-.182.6.165.7.513.374,1.26.72,2.529,1.089,3.79a4.668,4.668,0,0,0,4.31,3.609A4.9,4.9,0,0,0,13,59.9c13.417-3.839,26.819-7.732,40.235-11.572,2.706-.775,5.4-1.582,8.114-2.333.306-.084.616-.238.922.008a6.315,6.315,0,0,0,4.838,6.181c.34.092.517.186.509.573-.031,1.612.025,3.228-.067,4.836a3.721,3.721,0,0,1-3.959,3.651q-14.415.008-28.829,0-3.7,0-7.4,0c-.908,0-1.205.24-1.406,1.082l-2.923.033" transform="translate(-0.939 -9.009)" fill="#0067c4"/>
      <path id="Trazado_159263" data-name="Trazado 159263" d="M49.819,36.475c-.959.107-1.262.446-1.139,1.393.044.339-.1.383-.347.449a19.678,19.678,0,0,0-1.986.578c-.443.169-.55.006-.654-.367-.552-1.97-1.123-3.937-1.685-5.9-.373-1.306-.694-1.49-1.984-1.122q-2.488.709-4.976,1.42c-.972.28-1.212.716-.933,1.7.573,2.014,1.141,4.028,1.737,6.034.133.45.116.67-.409.82-7.9,2.253-15.783,4.536-23.678,6.793A3.838,3.838,0,0,1,8.758,45.5c-.418-1.411-.795-2.835-1.227-4.242a.606.606,0,0,1,.313-.826A6.174,6.174,0,0,0,4.608,29.011a.677.677,0,0,1-.775-.626C3.5,27.071,3.019,25.8,2.767,24.464a1.586,1.586,0,0,1,.794-.392Q11.2,21.9,18.83,19.714a.968.968,0,0,1,.8-.014c.065,1.628,1.309,2.621,2.1,3.85.562.87,1.2,1.694,1.782,2.551.369.541.3.767-.3.979-2.285.8-4.58,1.568-6.858,2.387a1.578,1.578,0,0,1-1.017.01c-.885-.26-1.787-.454-2.68-.687a1,1,0,0,0-1.182.317.973.973,0,0,0,.066,1.162c.8,1.377,1.613,2.743,2.416,4.115a.994.994,0,0,0,1.314.445,60.435,60.435,0,0,1,6.359-1.637c1.031-.247,2.06-.5,3.1-.7.622-.118.74-.028.763.612.051,1.475-.119,2.944-.213,4.412a17.065,17.065,0,0,0-.04,1.933c.034.694.346.98,1.037.865a21.342,21.342,0,0,0,3.26-.9c.447-.15.543-.589.652-1,.6-2.25,1.164-4.509,1.745-6.764a1.37,1.37,0,0,1,1.177-1.163c.588-.109,1.164-.285,1.745-.432,2.068-.522,2.968-2.115,3.607-3.939a.845.845,0,0,0-.317-.931c-1.5-1.323-3.153-2.075-5.193-1.385-.612.207-1.222.415-1.839.606a1.1,1.1,0,0,1-1.155-.241c-1.95-1.827-3.882-3.673-5.835-5.5a.391.391,0,0,1-.092-.184c.135-.367.492-.392.787-.477,5.685-1.618,11.363-3.259,17.05-4.87a1.041,1.041,0,0,1,.738-.062.69.69,0,0,1,.269.709,1.912,1.912,0,0,0-.3,2.334,3.639,3.639,0,0,1,.182.665c.182.881.505,1.622,1.558,1.7a3.921,3.921,0,0,1,.386,1.237A2.613,2.613,0,0,0,45.7,21.4a.376.376,0,0,1-.289.165c-.9.03-1.051.74-.837,1.432a15.506,15.506,0,0,1,.446,1.586,1.567,1.567,0,0,0,1.376,1.472,7.81,7.81,0,0,1,.891,2.817,2.146,2.146,0,0,0-.289,2.53,3.234,3.234,0,0,1,.159.6c.142.835.494,1.465,1.442,1.545a3.337,3.337,0,0,1,.459,1.211,3.868,3.868,0,0,0,.766,1.715" transform="translate(-0.543 -2.558)" fill="#b2cdeb"/>
      <path id="Trazado_159264" data-name="Trazado 159264" d="M55.412,19.984c-.684-.085-.879-.555-.987-1.157a9.3,9.3,0,0,1-.4-1.722,2.074,2.074,0,0,0,.163-2.259,4.13,4.13,0,0,1-.242-.865,1.676,1.676,0,0,0-1.43-1.545l-.153-.742c.02-.031.039-.061.059-.092a10.02,10.02,0,0,1,3.431-.93,1.246,1.246,0,0,1,.412.775c.243.842.466,1.69.728,2.526.3.954.689,1.16,1.666.882q2.727-.775,5.449-1.571c1.438-.418,2.891-.791,4.315-1.26.847-.279,1.049-.644.839-1.517-.206-.853-.5-1.679-.734-2.524a1.43,1.43,0,0,1-.076-.88c.031-.061.06-.138.121-.16A27.269,27.269,0,0,1,72.64,5.8c.066-.012.127.042.182.081.383,1.3.738,2.609,1.163,3.9.152.461-.151.5-.392.639a6.172,6.172,0,0,0-2.269,8.51A5.986,5.986,0,0,0,76.97,21.99c.414-.011.554.083.659.462.407,1.484.872,2.953,1.27,4.441a3.858,3.858,0,0,1-2.928,4.858q-5.563,1.608-11.131,3.2c-1.281.369-2.563.73-3.84,1.113-.3.092-.5.119-.6-.261a1.055,1.055,0,0,0-.834-.745.872.872,0,0,1-.693-.767c-.157-.7-.362-1.393-.547-2.089a1.819,1.819,0,0,0,.272-2.1,4.514,4.514,0,0,1-.251-.859,1.962,1.962,0,0,0-1.4-1.76l-.837-2.79c1.082-1.506.034-2.812-.4-4.172-.06-.188-.275-.312-.288-.538" transform="translate(-10.286 -1.139)" fill="#d2e0f4"/>
      <path id="Trazado_159265" data-name="Trazado 159265" d="M62.34,45.24a23.925,23.925,0,0,0-3.454.909q-6.96,1.955-13.9,3.975C39.56,51.69,34.144,53.28,28.719,54.848c-5.313,1.536-10.618,3.1-15.953,4.56A4.85,4.85,0,0,1,6.7,55.739c-.366-1.279-.749-2.555-1.089-3.84-.078-.295-.175-.456-.484-.446.149-.051.3-.113.449-.149.457-.109.946-.645,1.292-.4.315.222.32.871.482,1.324a5.843,5.843,0,0,0,7.12,3.817c4.172-1.128,8.315-2.365,12.47-3.558Q43.449,47.742,59.958,43c1.078-.309,2.153-.629,3.41-1A7.376,7.376,0,0,0,62.34,45.24" transform="translate(-1.007 -8.249)" fill="#0055a2"/>
      <path id="Trazado_159266" data-name="Trazado 159266" d="M42.6,12.376Q33.743,14.9,24.888,17.429c-.284.081-.558.2-.836.305a23.93,23.93,0,0,1-2.428.688c-.657.194-1.295.45-1.962.61A22.1,22.1,0,0,0,15.952,20c-4.34,1.221-8.671,2.477-13.007,3.718a.915.915,0,0,1-.206.012A3.733,3.733,0,0,1,5.424,19.3c2.334-.7,4.679-1.363,7.02-2.037q13.685-3.939,27.368-7.881c.456-.132.81-.276,1.01.39.162.539.714.581,1.223.54A3.046,3.046,0,0,1,42.6,12.376Z" transform="translate(-0.516 -1.82)" fill="#97bbe4"/>
      <path id="Trazado_159267" data-name="Trazado 159267" d="M52.233,11.066,51.679,9c.476-.27.845-.645.678-1.219-.142-.492.079-.567.46-.676Q59.4,5.225,65.985,3.319c.706-.2,1.41-.413,2.122-.593a3.767,3.767,0,0,1,4.58,2.528c-1.31.366-2.619.735-3.93,1.1-.135.036-.268.051-.349.182a.351.351,0,0,1-.3-.251c-.3-.738-.878-.79-1.615-.582-3.185.9-6.356,1.85-9.541,2.747-.993.28-1.07.378-1.148,1.407a.369.369,0,0,1-.112.243l-3.459.97" transform="translate(-10.151 -0.51)" fill="#b2cdeb"/>
      <path id="Trazado_159268" data-name="Trazado 159268" d="M52.46,44.458c.048.221-.1.263-.266.312-1.037.3-2.074.6-3.107.911-.267.081-.356-.011-.428-.264-.5-1.769-1-3.535-1.53-5.295-.092-.3.036-.345.26-.408q1.524-.434,3.042-.886c.26-.076.411-.054.5.263.482,1.725.99,3.443,1.487,5.164.019.066.027.135.041.2" transform="translate(-9.251 -7.619)" fill="#fde803"/>
      <path id="Trazado_159269" data-name="Trazado 159269" d="M8.847,40.633c-.306-.329-.591-.648-.89-.953a5.463,5.463,0,0,0-2.592-1.518.617.617,0,0,1-.558-.762,9.076,9.076,0,0,0,0-1.314c-.032-.447.11-.6.579-.576a4.057,4.057,0,0,1,3.461,5.123" transform="translate(-0.943 -6.974)" fill="#0054a2"/>
      <path id="Trazado_159270" data-name="Trazado 159270" d="M66.7,60.694q-2.7,0-5.393,0c-1.131,0-1.478-.35-1.483-1.5-.006-1.107-.01-2.213,0-3.319.011-1.012.384-1.381,1.386-1.381q5.5-.006,10.994,0c.994,0,1.368.375,1.379,1.389q.018,1.694,0,3.388c-.01,1.051-.379,1.417-1.422,1.419-1.821,0-3.641,0-5.462,0" transform="translate(-11.749 -10.703)"/>
      <path id="Trazado_159271" data-name="Trazado 159271" d="M46.2,56.761c1.773,0,3.546-.007,5.319,0,.754,0,1.185.342,1.247.922.075.7-.367,1.18-1.175,1.209-.736.027-1.474.007-2.21.007H41.3c-.162,0-.323,0-.484,0-.822-.03-1.33-.458-1.315-1.107.014-.608.522-1.025,1.311-1.03,1.8-.01,3.592,0,5.388,0" transform="translate(-7.759 -11.148)" fill="#000101"/>
      <path id="Trazado_159272" data-name="Trazado 159272" d="M21.722,21.1a2.538,2.538,0,0,1,1.415-.615,9.952,9.952,0,0,1,2.975-.682,17.78,17.78,0,0,1,2.26,2.027q1.909,1.756,3.766,3.567a.7.7,0,0,0,.85.189c.622-.237,1.27-.407,1.9-.63,2.171-.771,3.907.118,5.513,1.454a.971.971,0,0,1,.268,1.136c-.706,2.039-1.791,3.693-4.118,4.107a2.455,2.455,0,0,1-.333.088c-1.544.047-2.121.922-2.386,2.375-.357,1.964-.983,3.878-1.46,5.821A1.361,1.361,0,0,1,31.3,41.048c-.89.23-1.764.523-2.652.762-1.062.285-1.624-.145-1.577-1.242.088-2.05.215-4.1.323-6.147.008-.158,0-.317,0-.567-1.409.321-2.789.617-4.159.954A47.249,47.249,0,0,0,17.3,36.374a1.07,1.07,0,0,1-1.422-.5c-.875-1.461-1.73-2.935-2.584-4.408a.977.977,0,0,1,.076-1.22,1.041,1.041,0,0,1,1.174-.367,8.723,8.723,0,0,1,.866.227,5.983,5.983,0,0,0,4.966-.172c1.585-.671,3.246-1.162,4.882-1.707.431-.143.477-.264.2-.643-1.194-1.639-2.347-3.307-3.533-4.951a1.315,1.315,0,0,1-.2-1.533" transform="translate(-2.576 -3.888)"/>
      <path id="Trazado_159273" data-name="Trazado 159273" d="M24.26,47.6a1,1,0,0,1-.788,1.008q-3.938,1.144-7.886,2.254A1.037,1.037,0,1,1,15,48.875q3.932-1.164,7.878-2.283A1.03,1.03,0,0,1,24.26,47.6" transform="translate(-2.79 -9.141)"/>
      <path id="Trazado_159274" data-name="Trazado 159274" d="M52.392,14.055c.857-.066,1.187.14,1.426.926.226.743.408,1.5.652,2.237a1.139,1.139,0,0,1-.569,1.506c-1,.066-1.216-.077-1.486-1-.2-.7-.37-1.415-.605-2.105a1.175,1.175,0,0,1,.582-1.56" transform="translate(-10.157 -2.758)" fill="#010101"/>
      <path id="Trazado_159275" data-name="Trazado 159275" d="M55.819,23.451a1.458,1.458,0,0,1,.739,1.017c.17.687.4,1.36.591,2.042.244.863.119,1.176-.641,1.651-.91-.014-1.13-.177-1.376-1.028q-.3-1.027-.582-2.058c-.323-1.164.055-1.647,1.269-1.624" transform="translate(-10.693 -4.606)" fill="#000101"/>
      <path id="Trazado_159276" data-name="Trazado 159276" d="M57.871,32.784c.882.027,1.139.218,1.381,1.046.206.706.388,1.42.61,2.121a1.133,1.133,0,0,1-.607,1.551c-.982.03-1.143-.084-1.42-1.012-.2-.681-.405-1.36-.6-2.044-.248-.869-.131-1.164.636-1.663" transform="translate(-11.219 -6.439)" fill="#010101"/>
      <path id="Trazado_159277" data-name="Trazado 159277" d="M56.655,10.77c-.194-1.242-.036-1.462,1.232-1.827q4.7-1.354,9.393-2.721c1.324-.383,1.606-.248,2.093.982q.453,1.66.908,3.32c.283,1.024.061,1.449-.959,1.744q-5,1.445-10,2.873a1.115,1.115,0,0,1-1.617-.882c-.356-1.161-.7-2.326-1.053-3.489" transform="translate(-11.115 -1.185)"/>
      <path id="Trazado_159278" data-name="Trazado 159278" d="M70.955,32.127a1.047,1.047,0,0,1-.236-2.063c1.365-.405,2.735-.795,4.1-1.188.508-.146,1.011-.314,1.527-.423a1.029,1.029,0,0,1,1.29.743,1.006,1.006,0,0,1-.71,1.244c-1.892.567-3.795,1.1-5.693,1.639a2.549,2.549,0,0,1-.279.047" transform="translate(-13.734 -5.582)"/>
      <path id="Trazado_159279" data-name="Trazado 159279" d="M72.256,36.655a1.037,1.037,0,0,1-1.011-.873.981.981,0,0,1,.771-1.2c1.409-.418,2.823-.822,4.235-1.231.463-.134.921-.292,1.392-.394a1.037,1.037,0,0,1,1.267.681,1.022,1.022,0,0,1-.685,1.325c-1.913.575-3.839,1.111-5.76,1.66a1.509,1.509,0,0,1-.21.032" transform="translate(-13.99 -6.467)"/>
      <path id="Trazado_159280" data-name="Trazado 159280" d="M67.221,59.1c-1.384,0-2.768-.01-4.151.006-.407.006-.616-.043-.614-.549.006-1.443-.022-1.443,1.442-1.443,2.491,0,4.982.014,7.472-.012.5,0,.614.15.609.624-.015,1.374.006,1.374-1.368,1.374h-3.39" transform="translate(-12.268 -11.216)" fill="#fcecd0"/>
      <path id="Trazado_159281" data-name="Trazado 159281" d="M17.1,34.138c1.63.9,2.913.08,4.238-.37q7.477-2.532,14.942-5.1a3.006,3.006,0,0,1,2.624.38c.263.148.284.289.149.536a3.025,3.025,0,0,1-2.038,1.7c-5.8,1.343-11.6,2.729-17.394,4.1-.067.016-.137.016-.2.031-.445.1-.941.539-1.287.342-.469-.269-.633-.917-1.029-1.618" transform="translate(-3.358 -5.6)" fill="#d2e0f4"/>
      <path id="Trazado_159282" data-name="Trazado 159282" d="M32.946,27.015a1.407,1.407,0,0,1-.2.146c-.7.232-1.46.751-2.073.611s-.9-1.083-1.336-1.671c-.737-1-1.441-2.026-2.158-3.042a.508.508,0,0,1-.048-.124,1.263,1.263,0,0,1,1.8.235c1.281,1.317,2.653,2.547,4.023,3.845" transform="translate(-5.328 -4.451)" fill="#d2e0f3"/>
      <path id="Trazado_159283" data-name="Trazado 159283" d="M35.984,35.922c-.534,2.087-1.035,4.062-1.544,6.036-.145.56-.673.479-1.069.566-.249.054-.172-.213-.164-.35.095-1.79.2-3.581.3-5.371.011-.2.051-.326.295-.375.7-.138,1.382-.316,2.186-.5" transform="translate(-6.519 -7.055)" fill="#d2e0f4"/>
      <path id="Trazado_159284" data-name="Trazado 159284" d="M68.557,10.642c.109.428-.109.44-.279.489q-3.9,1.133-7.8,2.265c-.279.081-.384.01-.488-.279-.605-1.692-.614-1.679,1.09-2.158,2.166-.608,4.33-1.217,6.486-1.859.423-.126.572-.055.657.369a11.8,11.8,0,0,0,.338,1.174" transform="translate(-11.71 -1.776)" fill="#60b6fe"/>
    </g>
  </g>
</svg>
