<svg xmlns="http://www.w3.org/2000/svg" xmlns:xlink="http://www.w3.org/1999/xlink" width="352" height="325.988" viewBox="0 0 352 325.988">
  <defs>
    <clipPath id="clip-path">
      <rect id="Rect치ngulo_40892" data-name="Rect치ngulo 40892" width="327.381" height="255.06" fill="none"/>
    </clipPath>
  </defs>
  <g id="Grupo_167895" data-name="Grupo 167895" transform="translate(-286.962 -3200.927)">
    <path id="Trazado_150104" data-name="Trazado 150104" d="M0,0H352V172.29H0Z" transform="translate(286.962 3354.625)" fill="#6b8dff"/>
    <g id="Grupo_165526" data-name="Grupo 165526" transform="translate(296.901 3200.927)">
      <path id="Trazado_150103" data-name="Trazado 150103" d="M288.232,347.842c82.341-79.063,30.2-341.79-79-283.346S113.5,209.484,56.085,210.755s-81.2,93.554-20.617,136.269Z" transform="translate(0 -56.092)" fill="#3c3fa7"/>
      <g id="Grupo_165525" data-name="Grupo 165525" transform="translate(1.244 36.691)">
        <g id="Grupo_165524" data-name="Grupo 165524" clip-path="url(#clip-path)">
          <path id="Trazado_149963" data-name="Trazado 149963" d="M20.438,386.215q28.2-.043,56.4-.063,31.9-.024,63.8-.032,33.265-.008,66.53,0,32.312.007,64.623.029,28.771.02,57.542.059l6.257.009a.29.29,0,0,0,0-.579q-28.174-.043-56.348-.063-31.888-.024-63.776-.032-33.264-.008-66.529,0-32.324.007-64.648.029-28.8.02-57.593.059l-6.265.009a.29.29,0,0,0,0,.579" transform="translate(-8.495 -162.461)" fill="#2b244a"/>
          <path id="Trazado_149964" data-name="Trazado 149964" d="M63.47,12.518A70.054,70.054,0,0,0,46.486,3.407,46.241,46.241,0,0,0,28,.043,27.234,27.234,0,0,0,12.385,5.5,30.889,30.889,0,0,0,3.4,17.7C-.071,25.838-.219,34.859.126,43.562A205.13,205.13,0,0,0,2.846,68.57c3.236,19.751,8.312,39.194,14.041,58.355,5.948,19.889,12.715,39.534,20.06,58.949,6.035,15.951,12.434,31.784,19.477,47.319q1,2.2,2.021,4.4c.157.337.656.043.5-.292-6.779-14.564-12.895-29.442-18.7-44.419-7.256-18.73-13.963-37.681-19.967-56.85A541.865,541.865,0,0,1,5.125,77.981,258.754,258.754,0,0,1,1.256,51.869a120.2,120.2,0,0,1-.292-22.1C1.982,18.988,7.456,7.43,17.846,2.9c12.282-5.357,26.6-.764,37.714,5.288a66.056,66.056,0,0,1,7.618,4.83c.3.222.589-.281.292-.5" transform="translate(0 0)" fill="#2b244a"/>
          <path id="Trazado_149965" data-name="Trazado 149965" d="M86.929,30.752a33.559,33.559,0,0,0-33,34.113S53.31,75.526,55.92,76.611c27.542,11.446,60.576.572,63.5-1.1,2.028-1.158,2.209-4.493,2.12-6.054-.141-2.476-.061-3.968-.3-5.982-.245-2.1-.552-4.2-1-6.265A33.29,33.29,0,0,0,114.7,44.661a33.488,33.488,0,0,0-27.769-13.91" transform="translate(-22.699 -12.956)" fill="#ffeae0"/>
          <path id="Trazado_149966" data-name="Trazado 149966" d="M54.26,89.93a140.052,140.052,0,0,0,25.91,3.4,139.552,139.552,0,0,0,26.161-1.481,144.205,144.205,0,0,0,15.01-3.039.29.29,0,0,0-.163-.555,141.281,141.281,0,0,1-26.312,4.274,139.807,139.807,0,0,1-26.021-.66,139.271,139.271,0,0,1-14.44-2.5c-.364-.084-.509.477-.145.56" transform="translate(-22.776 -37.187)" fill="#d9a389"/>
          <path id="Trazado_149967" data-name="Trazado 149967" d="M56.608,71.995a135.509,135.509,0,0,0,24.784,3.234,134.409,134.409,0,0,0,25.07-1.4A131.484,131.484,0,0,0,120.193,71c.36-.094.2-.65-.163-.555a131.65,131.65,0,0,1-24.651,4,134.85,134.85,0,0,1-24.87-.645,134.5,134.5,0,0,1-13.756-2.369c-.363-.082-.508.479-.145.561" transform="translate(-23.765 -29.68)" fill="#d9a389"/>
          <path id="Trazado_149968" data-name="Trazado 149968" d="M64.391,55.667a135.866,135.866,0,0,0,21.129,2.3,134.406,134.406,0,0,0,21.327-1.054q5.961-.774,11.835-2.084c.363-.081.2-.636-.163-.555a132.289,132.289,0,0,1-21.08,2.945A135.133,135.133,0,0,1,76.38,56.8q-5.957-.582-11.844-1.7c-.365-.069-.511.491-.145.561" transform="translate(-27.044 -22.866)" fill="#d9a389"/>
          <path id="Trazado_149969" data-name="Trazado 149969" d="M80.479,40.268a135.342,135.342,0,0,0,27.743.366q1.908-.172,3.81-.4.986-.118,1.971-.25a16.35,16.35,0,0,1,1.832-.259.289.289,0,0,0-.009-.578,13.49,13.49,0,0,0-1.551.22q-.914.125-1.83.237-1.691.207-3.385.371-3.46.335-6.934.489a135.013,135.013,0,0,1-13.892-.1q-3.891-.227-7.764-.679c-.369-.043-.355.536.01.579" transform="translate(-33.795 -16.497)" fill="#d9a389"/>
          <path id="Trazado_149970" data-name="Trazado 149970" d="M75.9,410.374h29.964a1.4,1.4,0,0,1,1.4,1.4v2.163H74.5v-2.163a1.4,1.4,0,0,1,1.4-1.4" transform="translate(-31.396 -172.927)" fill="#2b244a"/>
          <path id="Trazado_149971" data-name="Trazado 149971" d="M109.2,27.386a.289.289,0,0,1-.289-.289V22a.289.289,0,0,1,.579,0v5.1a.289.289,0,0,1-.289.289" transform="translate(-45.893 -9.147)" fill="#2b244a"/>
          <path id="Trazado_149972" data-name="Trazado 149972" d="M482.787,288.178a5.338,5.338,0,0,1,3.021,2.324,4.879,4.879,0,0,1,.434,1.71l.311,2.227q.323,2.319.646,4.637l2.578,18.493,2.612,18.742q1.3,9.358,2.608,18.715,1.284,9.205,2.566,18.41.161,1.153.322,2.307c.051.367.609.211.558-.154q-1.3-9.352-2.607-18.7l-2.642-18.954-2.637-18.917q-1.314-9.423-2.628-18.847-.329-2.363-.658-4.726-.161-1.156-.322-2.312a17.276,17.276,0,0,0-.323-2.13,5.37,5.37,0,0,0-3.348-3.252c-.111-.046-.223-.09-.338-.127-.355-.115-.508.444-.154.558" transform="translate(-203.357 -121.194)" fill="#dec6bd"/>
          <path id="Trazado_149973" data-name="Trazado 149973" d="M414.008,287.613a3.9,3.9,0,0,0-3.765,3.358c-.318,1.448-.433,2.968-.638,4.437l-.63,4.522-2.553,18.318q-1.285,9.22-2.57,18.439T401.285,355.1q-1.272,9.121-2.542,18.241-.157,1.125-.314,2.25c-.051.365.506.522.558.154l2.491-17.872,2.517-18.057,2.524-18.1q1.256-9.006,2.511-18.013.625-4.486,1.25-8.972l.314-2.252a11.1,11.1,0,0,1,.363-1.928,3.3,3.3,0,0,1,1.782-2.117,3.386,3.386,0,0,1,1.269-.237.289.289,0,0,0,0-.579" transform="translate(-167.892 -121.197)" fill="#dec6bd"/>
          <path id="Trazado_149974" data-name="Trazado 149974" d="M506.393,216.649c-.829,10.435-4.49,17.024-6.275,19.68h-4.606a62.32,62.32,0,0,1,9.841-20.081.581.581,0,0,1,1.04.4" transform="translate(-208.804 -91.029)" fill="#ccb16c"/>
          <path id="Trazado_149975" data-name="Trazado 149975" d="M497.145,203.144c.836,4.708,2.522,17.53-1.649,27.558h-4.114s-1.612-12.551,4.655-27.673a.581.581,0,0,1,1.108.115" transform="translate(-206.985 -85.403)" fill="#ccb16c"/>
          <path id="Trazado_149976" data-name="Trazado 149976" d="M481.634,212.286c1.671,2.686,5.335,9.958,5.545,22.352h-3.841s-4.542-10.546-2.771-22.13a.581.581,0,0,1,1.067-.222" transform="translate(-202.333 -89.34)" fill="#ccb16c"/>
          <path id="Trazado_149977" data-name="Trazado 149977" d="M470.754,224.61a33.326,33.326,0,0,1,9.634,15.275h-4.713a23.758,23.758,0,0,1-5.886-14.808.583.583,0,0,1,.965-.467" transform="translate(-197.964 -94.587)" fill="#ccb16c"/>
          <path id="Trazado_149978" data-name="Trazado 149978" d="M499.264,243.664a58.777,58.777,0,0,0,2.2-11.759c.031-.371-.548-.369-.579,0a58.054,58.054,0,0,1-2.177,11.606.29.29,0,0,0,.558.153" transform="translate(-210.144 -97.605)" fill="#2b244a"/>
          <path id="Trazado_149979" data-name="Trazado 149979" d="M492.353,245.842a53.339,53.339,0,0,1-.964-7.623c-.016-.371-.594-.373-.579,0A54.374,54.374,0,0,0,491.8,246c.069.365.627.211.558-.154" transform="translate(-206.822 -100.265)" fill="#2b244a"/>
          <path id="Trazado_149980" data-name="Trazado 149980" d="M481.186,236.789a42.884,42.884,0,0,1,2.264,4.339,31.673,31.673,0,0,1,1.744,4.531.29.29,0,0,0,.558-.154A32.419,32.419,0,0,0,484,240.941a43.031,43.031,0,0,0-2.313-4.444.289.289,0,0,0-.5.292" transform="translate(-202.748 -99.599)" fill="#2b244a"/>
          <path id="Trazado_149981" data-name="Trazado 149981" d="M492.809,251.116H474.7a.469.469,0,0,0-.47.465,56.989,56.989,0,0,0,.9,11.051,32.22,32.22,0,0,0,3.007,7.778h11.228a32.219,32.219,0,0,0,3.007-7.778,56.93,56.93,0,0,0,.9-11.051.469.469,0,0,0-.469-.465" transform="translate(-199.834 -105.818)" fill="#ffeae0"/>
          <path id="Trazado_149982" data-name="Trazado 149982" d="M433.994,229h-37a1.063,1.063,0,0,0-.985.665l-12.685,31.424h39.293l12.364-30.629a1.062,1.062,0,0,0-.985-1.46" transform="translate(-161.528 -96.5)" fill="#2b244a"/>
          <path id="Trazado_149983" data-name="Trazado 149983" d="M373.608,280.8H349.4a1.412,1.412,0,0,0-1.412,1.412v.707h25.62Z" transform="translate(-146.639 -118.327)" fill="#2b244a"/>
          <path id="Trazado_149984" data-name="Trazado 149984" d="M387.519,260.116l4.805-11.926,5.068-12.577,1.291-3.2c.411-1.021.683-2.343,1.756-2.861.335-.161.042-.661-.292-.5a3.643,3.643,0,0,0-1.644,2.268q-.58,1.439-1.16,2.879-1.262,3.132-2.524,6.265l-5.191,12.882-2.667,6.619c-.139.346.42.5.558.154" transform="translate(-163.052 -96.505)" fill="#8c75b5"/>
          <path id="Trazado_149985" data-name="Trazado 149985" d="M384.9,281.229a1.591,1.591,0,0,1,.273.063l.066.023c.023.009.064.027.018.006.043.02.085.04.127.063a1.879,1.879,0,0,1,.239.153c-.052-.039,0,.005.016.014l.054.046c.038.035.075.071.11.108s.064.07.094.106l.022.027c-.019-.024-.022-.028-.01-.012s.028.038.041.057a1.837,1.837,0,0,1,.139.24c0,.008.034.076.018.039s.012.032.014.039c.015.042.029.085.041.129s.021.086.029.13l.005.033c-.005-.037-.006-.045,0-.023s0,.051.006.077a.289.289,0,0,0,.579,0,2.089,2.089,0,0,0-1.723-1.879.3.3,0,0,0-.356.2.292.292,0,0,0,.2.356" transform="translate(-162.104 -118.27)" fill="#8c75b5"/>
          <path id="Trazado_149986" data-name="Trazado 149986" d="M428.78,257.688a2.523,2.523,0,0,1-2.139-1,2.843,2.843,0,0,1-.23-2.605,5.317,5.317,0,0,1,4.619-3.414,2.523,2.523,0,0,1,2.139,1,2.841,2.841,0,0,1,.23,2.605,5.317,5.317,0,0,1-4.619,3.414m2.25-6.441a4.7,4.7,0,0,0-4.073,3.027,2.247,2.247,0,0,0,.155,2.08,1.965,1.965,0,0,0,1.668.756,4.7,4.7,0,0,0,4.073-3.027A2.247,2.247,0,0,0,432.7,252a1.963,1.963,0,0,0-1.667-.756" transform="translate(-179.599 -105.629)" fill="#8c75b5"/>
          <path id="Trazado_149987" data-name="Trazado 149987" d="M169.546,272.645S167.884,280,173.938,280h45.517c4.688,0,5.252,6.439,2.493,14.45s-7.744,23.53-7.744,23.53h3.2s7.13-20.875,8.279-23.263,6.409-18.337-2.73-21.186-53.41-.89-53.41-.89" transform="translate(-71.357 -114.613)" fill="#b06641"/>
          <rect id="Rect치ngulo_40891" data-name="Rect치ngulo 40891" width="73.651" height="10.362" transform="translate(76.636 200.226)" fill="#b06641"/>
          <path id="Trazado_149988" data-name="Trazado 149988" d="M134.526,331.43l-13.41,63.291h2.76l18.634-63.291Z" transform="translate(-51.037 -139.661)" fill="#b06641"/>
          <path id="Trazado_149989" data-name="Trazado 149989" d="M168.68,331.43l-13.41,63.291h2.76l18.634-63.291Z" transform="translate(-65.429 -139.661)" fill="#b06641"/>
          <path id="Trazado_149990" data-name="Trazado 149990" d="M242.136,331.43l13.41,63.291h-2.76L234.151,331.43Z" transform="translate(-98.669 -139.661)" fill="#b06641"/>
          <path id="Trazado_149991" data-name="Trazado 149991" d="M207.982,331.43l13.41,63.291h-2.76L200,331.43Z" transform="translate(-84.277 -139.661)" fill="#b06641"/>
          <path id="Trazado_149992" data-name="Trazado 149992" d="M104.932,267.513S91.1,237.136,87.306,216.483s9.258-26.7,29.2-27.535,36.586,3.531,40.058,11.631,4.451,56.615,4.451,56.615-51.51,14.118-56.079,10.319" transform="translate(-36.513 -79.578)" fill="#ffc37a"/>
          <path id="Trazado_149993" data-name="Trazado 149993" d="M109.853,203.564c2.786,7.873,5.431,15.8,7.6,23.871a151.173,151.173,0,0,1,4.655,24.529,106.6,106.6,0,0,1,.465,13.914c-.012.372.566.372.579,0a116.442,116.442,0,0,0-2-24.811,198.811,198.811,0,0,0-6.206-24.23c-1.424-4.5-2.955-8.973-4.531-13.426-.123-.348-.682-.2-.557.154" transform="translate(-46.283 -85.632)" fill="#2b244a"/>
          <path id="Trazado_149994" data-name="Trazado 149994" d="M120.173,313.239c-3.848,1.761-2.829,15.232,3.046,18.08,4.58,2.22,21.24,1.534,37.694,1.385,21.3-.193,33.157-.525,39.052-.653,7.882-.17,11.006-19.88-3.475-22.848s-58.1-4.3-76.317,4.035" transform="translate(-49.678 -129.333)" fill="#ffc37a"/>
          <path id="Trazado_149995" data-name="Trazado 149995" d="M118.628,316.693a9.677,9.677,0,0,1,3.492-4.75,13.771,13.771,0,0,1,5.622-2.638,51.121,51.121,0,0,1,7.783-1.034c3.187-.245,6.38-.418,9.573-.567q6.356-.3,12.717-.454,7.277-.185,14.558-.2.936,0,1.874,0a.289.289,0,0,0,0-.579q-7.476-.01-14.951.167-6.6.153-13.2.444c-3.355.15-6.71.326-10.059.574a62.472,62.472,0,0,0-7.616.913,14.881,14.881,0,0,0-5.858,2.313,12.267,12.267,0,0,0-3.968,4.289,7.984,7.984,0,0,0-.527,1.371.289.289,0,0,0,.558.154" transform="translate(-49.748 -129.142)" fill="#2b244a"/>
          <path id="Trazado_149996" data-name="Trazado 149996" d="M177.783,363.969h-5.742a.289.289,0,0,0,0,.579h5.742a.289.289,0,0,0,0-.579" transform="translate(-72.379 -153.373)" fill="#2b244a"/>
          <path id="Trazado_149997" data-name="Trazado 149997" d="M143.377,363.969h-5.742a.289.289,0,0,0,0,.579h5.742a.289.289,0,0,0,0-.579" transform="translate(-57.88 -153.373)" fill="#2b244a"/>
          <path id="Trazado_149998" data-name="Trazado 149998" d="M250.125,363.969h-5.742a.289.289,0,0,0,0,.579h5.742a.289.289,0,0,0,0-.579" transform="translate(-102.863 -153.373)" fill="#2b244a"/>
          <path id="Trazado_149999" data-name="Trazado 149999" d="M215.745,363.969H210a.289.289,0,0,0,0,.579h5.742a.289.289,0,0,0,0-.579" transform="translate(-88.376 -153.373)" fill="#2b244a"/>
          <path id="Trazado_150000" data-name="Trazado 150000" d="M199.5,351.808v6.63a.289.289,0,0,0,.579,0v-6.63a.289.289,0,0,0-.579,0" transform="translate(-84.066 -148.131)" fill="#2b244a"/>
          <path id="Trazado_150001" data-name="Trazado 150001" d="M272.269,209.023s6.49,13.176,15.407,16.219c9.1,3.106,17.3-4.127,14.023-21.581-3.274-17.43-5.628-28.589-7.61-32.69-2.082-4.307-5.764-7.863-16.567-7.074s1.66,6.3,1.66,6.3l3.906,2.8,1.832,22.662L279.2,188.4Z" transform="translate(-114.731 -69.018)" fill="#e0785e"/>
          <path id="Trazado_150002" data-name="Trazado 150002" d="M293.488,218.662q.019,3.826.039,7.651a.289.289,0,0,0,.579,0q-.02-3.826-.039-7.651a.289.289,0,0,0-.579,0" transform="translate(-123.673 -92.024)" fill="#2b244a"/>
          <path id="Trazado_150003" data-name="Trazado 150003" d="M288.779,168.1q2.859.654,5.69,1.418a.289.289,0,0,0,.154-.558q-2.831-.765-5.69-1.418c-.363-.083-.517.474-.154.558" transform="translate(-121.601 -70.599)" fill="#2b244a"/>
          <path id="Trazado_150004" data-name="Trazado 150004" d="M278.48,198.936,263.761,210.75l-5.3-25.074,8.475-9.643a20.292,20.292,0,0,1,3.706,3.318c2.715,3.259,7.842,19.585,7.842,19.585" transform="translate(-108.911 -74.178)" fill="#ffeae0"/>
          <path id="Trazado_150005" data-name="Trazado 150005" d="M279.308,212.922l6.012-5.066c.285-.24-.126-.647-.41-.409l-6.011,5.066c-.285.24.126.647.409.409" transform="translate(-117.484 -87.386)" fill="#2b244a"/>
          <path id="Trazado_150006" data-name="Trazado 150006" d="M366.9,416.988s.778,6.276,1.53,13.058h34.31s.25-3.383-3.965-5.529c-2.2-1.12-9.784-4.284-12.194-5.65-.955-.541-2.344-.962-2.978-2.21,0,0-6.045,2.333-16.7.331" transform="translate(-154.608 -175.575)" fill="#2b244a"/>
          <path id="Trazado_150007" data-name="Trazado 150007" d="M366.847,417.661a17.318,17.318,0,0,1,6.55.575c3.7,1.013,6.241-1.144,7.7-3.539a3.953,3.953,0,0,1,1.912-1.832l-2.129-5.207-15.389,3.708Z" transform="translate(-154.015 -171.782)" fill="#ffeae0"/>
          <path id="Trazado_150008" data-name="Trazado 150008" d="M368.042,435.444h34.07a.289.289,0,0,0,0-.579h-34.07a.289.289,0,0,0,0,.579" transform="translate(-154.971 -183.248)" fill="#8c75b5"/>
          <path id="Trazado_150009" data-name="Trazado 150009" d="M337.866,337.062c-3.438-6.251-6.772-12.558-10.125-18.855s-6.721-12.575-10.232-18.779-7.18-12.359-11.1-18.337q-1.458-2.226-2.964-4.419a40.209,40.209,0,0,0-2.959-3.959c-3.892-4.391-9.549-5.217-15.077-5.217,0,0-21.22-.053-22.1-.052-.743,2.06,2.438,13.167,1.6,16.68-.561,2.365-1.105,4.766-1.6,7.191h3.372a30.43,30.43,0,0,1,6.008.2,16.075,16.075,0,0,1,8.074,4.3c4.034,3.994,6.476,9.235,9,14.234q4.039,8,8.153,15.953,4.1,7.926,8.268,15.814c2.735,5.173,4.533,8.864,7.315,14.012,2.582-.167,27.8-6.265,30.771-7.294-2.531-4.27-4.017-7.12-6.409-11.469" transform="translate(-110.909 -112.698)" fill="#2b244a"/>
          <path id="Trazado_150010" data-name="Trazado 150010" d="M360.3,402.642l15.908-4.049,5.361-1.365a.289.289,0,0,0-.154-.558L365.5,400.72l-5.361,1.365a.289.289,0,0,0,.154.558" transform="translate(-151.674 -167.149)" fill="#8c75b5"/>
          <path id="Trazado_150011" data-name="Trazado 150011" d="M321.509,416.988s.779,6.276,1.53,13.058h34.31s.25-3.383-3.965-5.529c-2.2-1.12-9.784-4.284-12.195-5.65-.955-.541-2.344-.962-2.978-2.21,0,0-6.045,2.333-16.7.331" transform="translate(-135.481 -175.575)" fill="#2b244a"/>
          <path id="Trazado_150012" data-name="Trazado 150012" d="M321.614,418.994a21.589,21.589,0,0,1,8,.292c3.7,1.013,4.632-2.195,6.092-4.59a3.957,3.957,0,0,1,1.912-1.832l-2.129-5.207L320.1,411.365Z" transform="translate(-134.887 -171.782)" fill="#ffeae0"/>
          <path id="Trazado_150013" data-name="Trazado 150013" d="M324.255,435.444h33.338a.289.289,0,0,0,0-.579H324.255a.289.289,0,0,0,0,.579" transform="translate(-136.52 -183.248)" fill="#8c75b5"/>
          <path id="Trazado_150014" data-name="Trazado 150014" d="M246.411,345.692c2.582-.167,27.8-6.265,30.771-7.294q-3.8-6.405-7.371-12.939c-3.437-6.251-6.771-12.558-10.125-18.855s-6.721-12.575-10.232-18.779-7.179-12.36-11.1-18.337q-1.458-2.226-2.965-4.419a40.212,40.212,0,0,0-2.959-3.96c-3.892-4.391-9.549-5.216-15.077-5.216H203.813a27.562,27.562,0,0,0-3.118,0c.22-.875.394-1.569.613-2.445L175.1,239.908a95.176,95.176,0,0,0-9.989,16.478c-2.374,5.141-4.656,10.786-3.331,16.534a11.983,11.983,0,0,0,3.6,6.319,3.315,3.315,0,0,0,1.017.473h32.238a30.431,30.431,0,0,1,6.008.2,16.065,16.065,0,0,1,8.073,4.3c4.034,3.994,6.476,9.235,9,14.234q4.039,8,8.153,15.953,4.1,7.926,8.268,15.813,4.1,7.761,8.278,15.483" transform="translate(-68.006 -101.095)" fill="#2b244a"/>
          <path id="Trazado_150015" data-name="Trazado 150015" d="M303.354,406.806l24.079-6.129,6.478-1.649a.289.289,0,0,0-.154-.558L309.679,404.6l-6.479,1.649a.29.29,0,0,0,.154.558" transform="translate(-127.679 -167.907)" fill="#8c75b5"/>
          <path id="Trazado_150016" data-name="Trazado 150016" d="M271.681,269.141c5.354.8,8.5,6,11.134,10.193q5.242,8.328,10.318,16.759,5.162,8.57,10.161,17.237,4.982,8.636,9.8,17.364,4.762,8.625,9.358,17.341.572,1.086,1.141,2.173c.173.33.673.038.5-.292q-4.616-8.81-9.406-17.528-4.853-8.835-9.875-17.576-5.005-8.716-10.174-17.335-5.149-8.585-10.468-17.07a62.9,62.9,0,0,0-4.682-6.886,14.126,14.126,0,0,0-5.843-4.482,9.315,9.315,0,0,0-1.812-.456c-.365-.055-.521.5-.154.558" transform="translate(-114.395 -113.177)" fill="#8c75b5"/>
          <path id="Trazado_150017" data-name="Trazado 150017" d="M200.514,267.107H217.68a.289.289,0,0,0,0-.579H200.514a.289.289,0,0,0,0,.579" transform="translate(-84.377 -112.312)" fill="#8c75b5"/>
          <path id="Trazado_150018" data-name="Trazado 150018" d="M172.489,207.1s5.126,3.332,11.733,6.721c5.474,2.806,21.152,9.529,21.152,9.529h8.28s11.4-24.68,14.607-43.2c3.221-18.632-9.6-19.223-19.512-15.93-5.331,1.77-23.144,17.168-36.26,42.884" transform="translate(-72.685 -68.548)" fill="#ffeae0"/>
          <path id="Trazado_150019" data-name="Trazado 150019" d="M249.3,162.83a10.327,10.327,0,0,0,2.677,6.189c.247.28.654-.131.409-.409a9.679,9.679,0,0,1-2.508-5.78c-.025-.37-.6-.372-.579,0" transform="translate(-105.051 -68.498)" fill="#2b244a"/>
          <path id="Trazado_150020" data-name="Trazado 150020" d="M258.978,153.325l-5.146,5.544a18.533,18.533,0,0,0,1.4,3.979,20.917,20.917,0,0,0,2.609,3.566l8.341-8.679Z" transform="translate(-106.962 -64.61)" fill="#e0785e"/>
          <path id="Trazado_150021" data-name="Trazado 150021" d="M220.874,238.877l4.12-2.9c.3-.212.013-.715-.292-.5l-4.12,2.9c-.3.212-.013.714.292.5" transform="translate(-92.897 -99.206)" fill="#2b244a"/>
          <path id="Trazado_150022" data-name="Trazado 150022" d="M219.119,224.838l12.2-8.358,3.511-2.406c.3-.209.016-.711-.292-.5l-12.2,8.358-3.511,2.406c-.3.209-.016.711.292.5" transform="translate(-92.157 -89.977)" fill="#2b244a"/>
          <path id="Trazado_150023" data-name="Trazado 150023" d="M226.623,205.007s6.057,19.28,15.673,20.658c8.261,1.183,13.1-1.163,14.385-14.921s-.936-38.709-.936-38.709a16.081,16.081,0,0,1,3.684-1.36c1.543-.257,3.438,2.789,6.413,1.961,1.559-.434-1.486-5.469-3.664-7.844-2.275-2.48-4.742-3.423-11.621-2.2s-8.169,5.383-8.743,8.486c-.643,3.472-4.661,26.745-4.661,26.745Z" transform="translate(-95.497 -68.29)" fill="#e0785e"/>
          <path id="Trazado_150024" data-name="Trazado 150024" d="M256,166.8a11.684,11.684,0,0,1,2.779-2.284,11.873,11.873,0,0,1,3.261-1.414.289.289,0,0,0-.154-.558,12.408,12.408,0,0,0-3.4,1.472,12.2,12.2,0,0,0-2.9,2.375c-.243.28.164.691.409.409" transform="translate(-107.671 -68.49)" fill="#2b244a"/>
          <path id="Trazado_150025" data-name="Trazado 150025" d="M242.705,231.278q.633-3.792,1.266-7.584c.061-.365-.5-.521-.558-.154q-.633,3.792-1.266,7.584c-.061.365.5.521.558.154" transform="translate(-102.037 -94.109)" fill="#2b244a"/>
          <path id="Trazado_150026" data-name="Trazado 150026" d="M211.955,198.206q1.626,9.673,3.706,19.263.585,2.7,1.2,5.4c.083.363.641.209.558-.154q-2.2-9.56-3.957-19.212-.5-2.721-.954-5.449c-.061-.366-.619-.211-.558.154" transform="translate(-89.313 -83.369)" fill="#2b244a"/>
          <path id="Trazado_150027" data-name="Trazado 150027" d="M278.376,226.468c.006,2.327,0,4.654-.09,6.979a48.47,48.47,0,0,1-.669,7.057c-.068.365.49.52.558.154a49.115,49.115,0,0,0,.686-7.091c.093-2.365.1-4.732.094-7.1a.289.289,0,0,0-.579,0" transform="translate(-116.982 -95.314)" fill="#2b244a"/>
          <path id="Trazado_150028" data-name="Trazado 150028" d="M284.71,164.395a5.365,5.365,0,0,1,1.262,1.194c.558.642,1.075,1.318,1.575,2.005q.716.984,1.381,2.006a9.56,9.56,0,0,1,.8,1.351s0,0,.016.043c.046.131.082.267.114.4a2.105,2.105,0,0,1,.051.978,1.325,1.325,0,0,1-1.522.854c-.365-.06-.521.5-.154.558a1.855,1.855,0,0,0,2.289-1.843,3.949,3.949,0,0,0-.651-1.929,36.863,36.863,0,0,0-3.148-4.432A6.93,6.93,0,0,0,285,163.9a.289.289,0,0,0-.292.5" transform="translate(-119.915 -69.047)" fill="#2b244a"/>
          <path id="Trazado_150029" data-name="Trazado 150029" d="M349.446,411.713c2.4-.745,4.8-1.5,7.2-2.244.355-.11.2-.669-.154-.558-2.4.745-4.8,1.5-7.2,2.244-.355.11-.2.668.154.558" transform="translate(-147.103 -172.305)" fill="#8c75b5"/>
          <path id="Trazado_150030" data-name="Trazado 150030" d="M252.544,131.891c.429-6.235,5.631-7.774,11.38-6.631s7.284,3.509,8.3,8.423a81.716,81.716,0,0,1,1.72,12.343c-.077,1.981-1.778,5.114-6.18,3.936a22.093,22.093,0,0,1-9.737-5.658c-1.545-1.5-5.909-6.178-5.479-12.413" transform="translate(-106.407 -52.637)" fill="#e0785e"/>
          <path id="Trazado_150031" data-name="Trazado 150031" d="M267.775,126.821c-2.495-2.053-8.621-3.683-13.406-2.108a8.063,8.063,0,0,0-4.868,4.218c-1.415,2.638-4.13,8.849-2.394,11.766,1.225,2.059,3.853,2.455,5.752,2.446.271.252.349.208.349.208a5.066,5.066,0,0,0,1.128-.293c.137-.016.263-.031.364-.045s.141-.078.167-.182c1.506-.73,3.487-2.458,3.456-6.5a3.749,3.749,0,0,0,3.7-2.175c.963-2.522,1.72-4.181,3.373-4.429a3.112,3.112,0,0,1,2.809.663,6.869,6.869,0,0,1,1.319,2.119s1.536-2.987-1.75-5.691" transform="translate(-103.891 -52.287)" fill="#2b244a"/>
          <path id="Trazado_150032" data-name="Trazado 150032" d="M265.383,141.192a17.805,17.805,0,0,0,4.1-7.651.29.29,0,0,0-.558-.154,17.2,17.2,0,0,1-3.952,7.4c-.25.275.158.685.409.409" transform="translate(-111.624 -56.121)" fill="#8c75b5"/>
          <path id="Trazado_150033" data-name="Trazado 150033" d="M263.3,139.016a16.717,16.717,0,0,0,1.632-3.226.292.292,0,0,0-.2-.356.3.3,0,0,0-.356.2,16.045,16.045,0,0,1-1.573,3.087c-.2.313.3.6.5.292" transform="translate(-110.72 -57.066)" fill="#8c75b5"/>
          <path id="Trazado_150034" data-name="Trazado 150034" d="M259.275,139.757a5.731,5.731,0,0,0,.783-1.528.291.291,0,0,0-.2-.356.3.3,0,0,0-.356.2c-.022.065-.045.13-.069.194-.012.032-.025.064-.038.1,0,.01-.045.108-.02.05q-.079.183-.171.36a5.508,5.508,0,0,1-.426.689.29.29,0,0,0,.1.4.3.3,0,0,0,.4-.1" transform="translate(-109.028 -58.095)" fill="#8c75b5"/>
          <path id="Trazado_150035" data-name="Trazado 150035" d="M257.115,152.781l-.485,3.515a3.751,3.751,0,0,0,4.837-2.939c1.156-4.135-4.352-.575-4.352-.575" transform="translate(-108.141 -63.78)" fill="#2b244a"/>
          <path id="Trazado_150036" data-name="Trazado 150036" d="M268.338,148.3a3.291,3.291,0,1,1-3.149-3.427,3.291,3.291,0,0,1,3.149,3.427" transform="translate(-110.303 -61.045)" fill="#e0785e"/>
          <path id="Trazado_150037" data-name="Trazado 150037" d="M285.593,144.313a2.636,2.636,0,0,1-.286-.079c-.992-.321-1.757.315-2.033-.592-.2-.662.181-1.189,1.415-1.143a3.162,3.162,0,0,1,.907.159l.005,0a1.118,1.118,0,0,1-.008,1.654" transform="translate(-119.348 -60.046)" fill="#2b244a"/>
          <path id="Trazado_150038" data-name="Trazado 150038" d="M276.814,144.23c.059.945-.877.617-1.7,1.262-.756.592-1.364.746-1.556.264-.231-.582.317-1.6,1.533-2.107,1.139-.472,1.679-.108,1.722.581" transform="translate(-115.253 -60.442)" fill="#2b244a"/>
          <path id="Trazado_150039" data-name="Trazado 150039" d="M265.362,150.594c-.952-.7-.9-2.515.38-2.81.363-.083.21-.642-.153-.558a1.988,1.988,0,0,0-1.451,1.69,2.311,2.311,0,0,0,.932,2.177.291.291,0,0,0,.4-.1.3.3,0,0,0-.1-.4" transform="translate(-111.296 -62.036)" fill="#2b244a"/>
          <path id="Trazado_150040" data-name="Trazado 150040" d="M282.643,151.39a1.74,1.74,0,0,0,1.28-.461.7.7,0,0,0,.229-.647,1.46,1.46,0,0,0-.369-.6c-.227-.277-.468-.544-.686-.828a6.8,6.8,0,0,1-.581-.927c-.175-.329-.675-.037-.5.292a8.707,8.707,0,0,0,1.057,1.512c.112.133.224.267.334.4.068.083.235.227.153.341a.912.912,0,0,1-.371.251,1.224,1.224,0,0,1-.546.086c-.372-.02-.371.559,0,.579" transform="translate(-118.823 -62.275)" fill="#2b244a"/>
          <path id="Trazado_150041" data-name="Trazado 150041" d="M280.47,156.747a2.245,2.245,0,0,0,3.975-.532.178.178,0,0,0-.188-.244l-3.672.485a.178.178,0,0,0-.115.29" transform="translate(-118.17 -65.724)" fill="#2b244a"/>
          <path id="Trazado_150042" data-name="Trazado 150042" d="M277.927,148.463a.7.7,0,0,0-.627-.221.656.656,0,0,0-.464.568,2.274,2.274,0,0,0,.051.81,1.451,1.451,0,0,0,.433.835.609.609,0,0,0,.976-.422,2.013,2.013,0,0,0-.369-1.569" transform="translate(-116.648 -62.463)" fill="#2b244a"/>
          <path id="Trazado_150043" data-name="Trazado 150043" d="M286.338,147.018a.7.7,0,0,0-.627-.221.656.656,0,0,0-.464.568,2.274,2.274,0,0,0,.051.81,1.451,1.451,0,0,0,.433.835.609.609,0,0,0,.976-.422,2.012,2.012,0,0,0-.369-1.569" transform="translate(-120.192 -61.854)" fill="#2b244a"/>
          <path id="Trazado_150044" data-name="Trazado 150044" d="M275.76,137.384c.793.394,4.171-3.093,4.052-5.692s-3.174-.781-3.174-.781a6.475,6.475,0,0,1,.128,2.946c-.324,1.5-1.951,3.057-1.007,3.526" transform="translate(-116.08 -54.904)" fill="#2b244a"/>
          <path id="Trazado_150045" data-name="Trazado 150045" d="M265.5,162.087a22.382,22.382,0,0,0,6.276,3.26,7.8,7.8,0,0,0,5.39.1,3.444,3.444,0,0,0,2.107-2.445c.083-.363-.475-.517-.558-.154a2.879,2.879,0,0,1-1.862,2.1,6.032,6.032,0,0,1-2.45.371,14.583,14.583,0,0,1-5.36-1.739,23.682,23.682,0,0,1-3.251-2c-.3-.22-.59.282-.292.5" transform="translate(-111.827 -68.068)" fill="#2b244a"/>
          <path id="Trazado_150046" data-name="Trazado 150046" d="M266.771,155.618a.685.685,0,1,1-.714-.654.685.685,0,0,1,.714.654" transform="translate(-111.837 -65.3)" fill="#ffeae0"/>
          <path id="Trazado_150047" data-name="Trazado 150047" d="M367.908,425.989c1.843.794,3.659,1.648,5.469,2.514a5.532,5.532,0,0,1,2.271,1.854,7.046,7.046,0,0,1,1.033,3.147c.04.366.619.37.579,0a7.962,7.962,0,0,0-.992-3.249,5.8,5.8,0,0,0-2.189-2.044c-.912-.5-1.886-.913-2.829-1.354q-1.514-.708-3.05-1.368c-.338-.145-.634.353-.292.5" transform="translate(-154.969 -179.286)" fill="#8c75b5"/>
          <path id="Trazado_150048" data-name="Trazado 150048" d="M104.585,274.337s-1.662,7.359,4.392,7.359h45.517c4.688,0,5.252,6.439,2.493,14.45s-7.744,23.53-7.744,23.53h3.2s7.13-20.875,8.279-23.263,6.409-18.337-2.73-21.186-53.41-.89-53.41-.89" transform="translate(-43.983 -115.326)" fill="#b06641"/>
          <path id="Trazado_150049" data-name="Trazado 150049" d="M327.127,253.388h11.247a68.255,68.255,0,0,1-.343,11.262c-.732,4.66-2.081,6.31-3.178,6.941a4.909,4.909,0,0,1-4.207,0c-1.1-.631-2.446-2.281-3.177-6.941a68.277,68.277,0,0,1-.343-11.262" transform="translate(-137.809 -106.775)" fill="#d9a389"/>
          <path id="Trazado_150050" data-name="Trazado 150050" d="M344.758,267.118a6.57,6.57,0,0,0,5.082-3.554,6.247,6.247,0,0,0,.546-3.358,4.381,4.381,0,0,0-1.444-2.633,5.317,5.317,0,0,0-3.3-1.361c-.372-.018-.371.561,0,.579a4.431,4.431,0,0,1,4.148,3.3,5.5,5.5,0,0,1-2.148,5.264,6.645,6.645,0,0,1-3.034,1.2c-.367.053-.211.61.154.558" transform="translate(-145.124 -107.965)" fill="#d9a389"/>
          <path id="Trazado_150051" data-name="Trazado 150051" d="M396.907,288.178a5.339,5.339,0,0,1,3.021,2.324,4.887,4.887,0,0,1,.434,1.71q.155,1.114.31,2.227.324,2.319.646,4.637,1.289,9.247,2.578,18.493l2.612,18.742q1.3,9.358,2.608,18.715,1.283,9.205,2.566,18.41.161,1.153.322,2.307c.051.367.609.211.558-.154l-2.607-18.7q-1.321-9.477-2.641-18.954-1.319-9.458-2.637-18.917-1.313-9.423-2.627-18.847-.33-2.363-.659-4.726-.161-1.156-.322-2.312a17.171,17.171,0,0,0-.322-2.13,5.37,5.37,0,0,0-3.348-3.252c-.111-.046-.223-.09-.338-.127-.355-.115-.507.444-.154.558" transform="translate(-167.168 -121.194)" fill="#dec6bd"/>
          <path id="Trazado_150052" data-name="Trazado 150052" d="M328.128,287.613a3.9,3.9,0,0,0-3.765,3.358c-.318,1.448-.433,2.968-.638,4.437l-.63,4.522-2.553,18.318q-1.285,9.22-2.57,18.439T315.4,355.1q-1.272,9.121-2.542,18.241-.157,1.125-.314,2.25c-.051.365.506.522.558.154l2.491-17.872q1.258-9.029,2.517-18.057,1.261-9.052,2.523-18.1,1.256-9.006,2.511-18.013.625-4.486,1.25-8.972l.314-2.252a11.1,11.1,0,0,1,.363-1.928,3.3,3.3,0,0,1,1.782-2.117,3.388,3.388,0,0,1,1.269-.237.289.289,0,0,0,0-.579" transform="translate(-131.703 -121.197)" fill="#dec6bd"/>
          <path id="Trazado_150053" data-name="Trazado 150053" d="M425.974,287.341H316.038a1.438,1.438,0,0,1,0-2.877H425.974a1.438,1.438,0,1,1,0,2.877" transform="translate(-132.569 -119.87)" fill="#b06641"/>
          <path id="Trazado_150054" data-name="Trazado 150054" d="M411.455,284.786a2.461,2.461,0,0,1-.042,2.139.3.3,0,0,0,.1.4.292.292,0,0,0,.4-.1,3.079,3.079,0,0,0,.042-2.722.292.292,0,0,0-.4-.1.3.3,0,0,0-.1.4" transform="translate(-173.35 -119.824)" fill="#2b244a"/>
          <path id="Trazado_150055" data-name="Trazado 150055" d="M427.721,159.481h-1.589s-4.226,9.2-5.354,9.2c-.835,0-.207-9.2-.207-9.2H356.284a1.127,1.127,0,0,1-1.12-1.258l5.255-44.866a1.127,1.127,0,0,1,1.119-1h71.437a1.127,1.127,0,0,1,1.119,1.258l-5.255,44.866a1.127,1.127,0,0,1-1.119,1" transform="translate(-149.659 -47.348)" fill="#8498d9"/>
          <path id="Trazado_150056" data-name="Trazado 150056" d="M427.3,169.8H374.839a93.8,93.8,0,0,1,2.343-15.426,28.35,28.35,0,0,1,4.079-9.553,16.832,16.832,0,0,1,7.967-5.688,39.808,39.808,0,0,1,10.612-2.008,68.91,68.91,0,0,1,10.837-.11c4.421.382,8.853,1.585,11.914,5.393a12.722,12.722,0,0,1,2.066,3.72,27.385,27.385,0,0,1,1.209,5.115c.388,2.459,1.273,14.043,1.435,18.556" transform="translate(-157.953 -57.665)" fill="#ffeae0"/>
          <path id="Trazado_150057" data-name="Trazado 150057" d="M415.433,138.891q.488,8.262.975,16.523.133,2.238.264,4.477c.022.37.6.373.579,0q-.488-8.262-.975-16.523-.133-2.238-.264-4.477c-.022-.37-.6-.373-.579,0" transform="translate(-175.059 -58.41)" fill="#2b244a"/>
          <path id="Trazado_150058" data-name="Trazado 150058" d="M335.253,139.92a6.328,6.328,0,0,0-1.712-1.648,11.66,11.66,0,0,0-4.634-1.283c-3.932-.408-13.613-.812-16.016-.321a1.582,1.582,0,0,0-1.29,1.385,1.3,1.3,0,0,0-.737,1.534c.1.328.737.836.737.836a2.179,2.179,0,0,0-.31,1.187,1.662,1.662,0,0,0,.676,1.085c2.65,1.182,11.3,2.417,13.992,3.275a6.179,6.179,0,0,1,2.388,1.311c.61.573,2.221,2.182,2.52,1.908,2.214-2.033,5.735-4.966,6.479-6.209a29.786,29.786,0,0,0-2.092-3.059" transform="translate(-130.971 -57.495)" fill="#ffa58f"/>
          <path id="Trazado_150059" data-name="Trazado 150059" d="M341.2,136.562s-2.736-2.929-9.01-4.761c-4.5-1.315-5.089-.409-4.823.533.278.981,3.663,2.828,3.663,2.828Z" transform="translate(-137.927 -55.262)" fill="#ffa58f"/>
          <path id="Trazado_150060" data-name="Trazado 150060" d="M335.951,140.726a4.048,4.048,0,0,1,.5-2.992c.195-.318-.3-.609-.5-.292a4.644,4.644,0,0,0-.561,3.438c.082.363.64.209.558-.154" transform="translate(-141.283 -57.859)" fill="#2b244a"/>
          <path id="Trazado_150061" data-name="Trazado 150061" d="M331.376,136.948a7.546,7.546,0,0,0,1.371.55,11.393,11.393,0,0,0,1.357.369.3.3,0,0,0,.356-.2.291.291,0,0,0-.2-.355,11.333,11.333,0,0,1-1.321-.357,6.762,6.762,0,0,1-1.269-.5c-.325-.182-.617.317-.292.5" transform="translate(-139.579 -57.481)" fill="#2b244a"/>
          <path id="Trazado_150062" data-name="Trazado 150062" d="M312.4,139.461q4.378.436,8.765.687c.372.021.371-.557,0-.579q-4.392-.252-8.765-.687c-.37-.037-.367.542,0,.579" transform="translate(-131.527 -58.523)" fill="#2b244a"/>
          <path id="Trazado_150063" data-name="Trazado 150063" d="M312.117,143.3q4.46.443,8.932.7c.372.021.371-.557,0-.579q-4.475-.257-8.932-.7c-.37-.037-.367.542,0,.579" transform="translate(-131.406 -60.14)" fill="#2b244a"/>
          <path id="Trazado_150064" data-name="Trazado 150064" d="M483.151,118.167a1.736,1.736,0,1,1-1.736-1.736,1.736,1.736,0,0,1,1.736,1.736" transform="translate(-202.132 -49.063)" fill="#fff"/>
          <path id="Trazado_150065" data-name="Trazado 150065" d="M473.151,118.167a1.736,1.736,0,1,1-1.736-1.736,1.736,1.736,0,0,1,1.736,1.736" transform="translate(-197.918 -49.063)" fill="#fff"/>
          <path id="Trazado_150066" data-name="Trazado 150066" d="M413.328,176.866c-1.938-1.921-5.375-4.392-8.679-4.224-2.783.145-8.014,3.275-9.125,5.705a1.278,1.278,0,0,0,.052,1.406,1.625,1.625,0,0,0,1.279.66.564.564,0,0,0,.139-.012c-.15.133-.307.26-.451.405a1.723,1.723,0,0,0-.5.764,1.4,1.4,0,0,0,.671,1.475,2.89,2.89,0,0,0,1.765.312,2.236,2.236,0,0,0,.029,1.123,4.4,4.4,0,0,0,.216.4h12.455a8.9,8.9,0,0,0,1.516-3.42,27.235,27.235,0,0,0,.631-4.594" transform="translate(-166.592 -72.746)" fill="#ffa58f"/>
          <path id="Trazado_150067" data-name="Trazado 150067" d="M417.813,119.779l.869,9.916s-3.427,2.995-9.016.776l.152-5.909Z" transform="translate(-172.629 -50.474)" fill="#ffa58f"/>
          <path id="Trazado_150068" data-name="Trazado 150068" d="M402.9,107.926a3.568,3.568,0,1,1-3.568-3.568,3.568,3.568,0,0,1,3.568,3.568" transform="translate(-166.77 -43.975)" fill="#2b244a"/>
          <path id="Trazado_150069" data-name="Trazado 150069" d="M413.643,104.2c-.89-5.117-4.87-6.076-9.523-4.638s-5.72,3.525-6.136,7.674a87.354,87.354,0,0,0-.362,10.35c.075,1.324,1.8,4.008,5.339,2.656a18.208,18.208,0,0,0,7.569-5.326c1.149-1.372,4-5.6,3.112-10.716" transform="translate(-167.54 -41.7)" fill="#ffa58f"/>
          <path id="Trazado_150070" data-name="Trazado 150070" d="M407.736,106.839a14.572,14.572,0,0,0,1.371,3.845c1.037,1.951,1.031,3.39,4,4.5V110.32s2.556-2.562,1.4-4.91a3.57,3.57,0,0,0-.218-6.06,1.651,1.651,0,0,1-.575-1.013c-.389-1.4-2.22-2.893-5.523-2.362s-3.575,1.627-4.34,1.808-1.673-.651-3.969-.024c-2.187.6-3.675,3.93-1.36,5.906,1.94,1.657,5.04.531,5.449.723s1.236,2.175,3.764,2.45" transform="translate(-167.442 -40.397)" fill="#2b244a"/>
          <path id="Trazado_150071" data-name="Trazado 150071" d="M398.318,115.681c.468.668.923-.056,1.823-.064.828-.008,1.32-.231,1.19-.658-.156-.516-1.075-.91-2.165-.6-1.021.294-1.19.83-.848,1.317" transform="translate(-167.78 -48.145)" fill="#2b244a"/>
          <path id="Trazado_150072" data-name="Trazado 150072" d="M400.719,118.359a.576.576,0,0,0-.459-.306.544.544,0,0,0-.489.36,1.9,1.9,0,0,0-.124.661,1.2,1.2,0,0,0,.177.759.5.5,0,0,0,.87-.139,1.667,1.667,0,0,0,.025-1.336" transform="translate(-168.406 -49.746)" fill="#2b244a"/>
          <path id="Trazado_150073" data-name="Trazado 150073" d="M411.347,117.518a2.692,2.692,0,1,0,2.644-2.739,2.691,2.691,0,0,0-2.644,2.739" transform="translate(-173.337 -48.367)" fill="#ffa58f"/>
          <path id="Trazado_150074" data-name="Trazado 150074" d="M396.793,118.052s-1.918,3.048-1.773,3.671,1.977.911,1.977.911Z" transform="translate(-166.454 -49.746)" fill="#ffa58f"/>
          <path id="Trazado_150075" data-name="Trazado 150075" d="M416.306,117.017a1.12,1.12,0,0,1,.717.724,1.983,1.983,0,0,1-.1,1.348.291.291,0,0,0,.2.356.3.3,0,0,0,.356-.2,2.422,2.422,0,0,0,.08-1.723,1.706,1.706,0,0,0-1.1-1.061.289.289,0,0,0-.154.558" transform="translate(-175.341 -49.069)" fill="#2b244a"/>
          <path id="Trazado_150076" data-name="Trazado 150076" d="M337.758,151.769s7.029,15.329,11.425,22.24l17.011-.029-16.907-27.141Z" transform="translate(-142.328 -61.876)" fill="#ffeae0"/>
          <path id="Trazado_150077" data-name="Trazado 150077" d="M410.209,133.765a15.145,15.145,0,0,0,2.452-1.809.289.289,0,1,0-.41-.409,14.383,14.383,0,0,1-2.334,1.718.289.289,0,0,0,.292.5" transform="translate(-172.676 -55.398)" fill="#2b244a"/>
          <path id="Trazado_150078" data-name="Trazado 150078" d="M390.478,175.1c-.587,3.53-.9,7.1-1.532,10.622-.065.364.492.52.558.154.628-3.524.945-7.093,1.531-10.622.061-.365-.5-.521-.558-.154" transform="translate(-163.896 -73.698)" fill="#2b244a"/>
          <path id="Trazado_150079" data-name="Trazado 150079" d="M436.137,170.434v9.076a.289.289,0,0,0,.579,0v-9.076a.289.289,0,0,0-.579,0" transform="translate(-183.784 -71.702)" fill="#2b244a"/>
          <path id="Trazado_150080" data-name="Trazado 150080" d="M397.972,183.284a17.5,17.5,0,0,1,6.911-4.01c.355-.108.2-.667-.154-.558a18.136,18.136,0,0,0-7.167,4.159c-.271.256.138.665.409.409" transform="translate(-167.491 -75.303)" fill="#2b244a"/>
          <path id="Trazado_150081" data-name="Trazado 150081" d="M401.031,187.873a26.515,26.515,0,0,1,6.916-4.212c.339-.141.19-.7-.154-.558a27.408,27.408,0,0,0-7.171,4.361c-.285.24.126.647.409.409" transform="translate(-168.777 -77.148)" fill="#2b244a"/>
          <path id="Trazado_150082" data-name="Trazado 150082" d="M426.073,179.986a103.125,103.125,0,0,1,11.263,7.891c.287.231.7-.175.409-.409a104.166,104.166,0,0,0-11.38-7.981.289.289,0,0,0-.292.5" transform="translate(-179.485 -75.616)" fill="#2b244a"/>
          <path id="Trazado_150083" data-name="Trazado 150083" d="M405.053,138.406a9.04,9.04,0,0,0,5.586,2.64,9.643,9.643,0,0,0,6-1.464,10.632,10.632,0,0,0,2.693-2.406c.229-.289-.178-.7-.409-.409a9.315,9.315,0,0,1-10.669,3.108,8.153,8.153,0,0,1-2.8-1.878c-.26-.267-.669.142-.409.409" transform="translate(-170.65 -57.59)" fill="#2b244a"/>
          <path id="Trazado_150084" data-name="Trazado 150084" d="M397.6,126.805c-.006.625-.006,1.175,0,1.614a4.847,4.847,0,0,0,2.505-1.742c-.168,0-1.308.064-2.505.127" transform="translate(-167.541 -53.381)" fill="#fff"/>
          <path id="Trazado_150085" data-name="Trazado 150085" d="M342.867,161.015l11.433-5.28c.338-.156.044-.654-.292-.5l-11.433,5.28c-.337.156-.044.654.292.5" transform="translate(-144.295 -65.402)" fill="#2b244a"/>
          <path id="Trazado_150086" data-name="Trazado 150086" d="M362.9,115.365H343.385A3.374,3.374,0,0,1,340.02,112V110.11a3.375,3.375,0,0,1,3.365-3.365H362.9a3.374,3.374,0,0,1,3.364,3.365V112a3.374,3.374,0,0,1-3.364,3.364" transform="translate(-143.281 -44.981)" fill="#ffeae0"/>
          <path id="Trazado_150087" data-name="Trazado 150087" d="M381.49,115.828v4.564a.578.578,0,0,1-.785.54l-4.546-1.74Z" transform="translate(-158.51 -48.809)" fill="#ffeae0"/>
          <path id="Trazado_150088" data-name="Trazado 150088" d="M353.346,113.271a.534.534,0,0,0,0,1.068.534.534,0,0,0,0-1.068" transform="translate(-148.679 -47.731)" fill="#2b244a"/>
          <path id="Trazado_150089" data-name="Trazado 150089" d="M362.32,113.271a.534.534,0,0,0,0,1.068.534.534,0,0,0,0-1.068" transform="translate(-152.461 -47.731)" fill="#2b244a"/>
          <path id="Trazado_150090" data-name="Trazado 150090" d="M371.3,113.271a.534.534,0,0,0,0,1.068.534.534,0,0,0,0-1.068" transform="translate(-156.243 -47.731)" fill="#2b244a"/>
          <path id="Trazado_150091" data-name="Trazado 150091" d="M245.315,49.181A20.01,20.01,0,1,1,265.326,29.17a20.033,20.033,0,0,1-20.011,20.011m0-39.442A19.432,19.432,0,1,0,264.747,29.17,19.453,19.453,0,0,0,245.315,9.739" transform="translate(-94.941 -3.86)" fill="#2b244a"/>
          <path id="Trazado_150092" data-name="Trazado 150092" d="M264.5,31.393a16.959,16.959,0,1,1-16.959-16.959A16.959,16.959,0,0,1,264.5,31.393" transform="translate(-97.163 -6.082)" fill="#ffeae0"/>
          <path id="Trazado_150093" data-name="Trazado 150093" d="M259.153,14.208v1.968a.287.287,0,0,0,.574,0V14.208a.287.287,0,0,0-.574,0" transform="translate(-109.204 -5.866)" fill="#2b244a"/>
          <path id="Trazado_150094" data-name="Trazado 150094" d="M260.227,27.758V39.035a.287.287,0,0,0,.574,0V27.758a.287.287,0,0,0-.574,0" transform="translate(-109.657 -11.58)" fill="#2b244a"/>
          <path id="Trazado_150095" data-name="Trazado 150095" d="M266.7,37.749l-5.455,4.578-.955.8c-.284.238.124.642.406.406l5.455-4.579.955-.8c.283-.238-.125-.642-.406-.406" transform="translate(-109.643 -15.877)" fill="#2b244a"/>
          <path id="Trazado_150096" data-name="Trazado 150096" d="M260.2,71.411V69.444a.287.287,0,1,0-.574,0v1.968a.287.287,0,0,0,.574,0" transform="translate(-109.406 -29.142)" fill="#2b244a"/>
          <path id="Trazado_150097" data-name="Trazado 150097" d="M230.361,44.052h1.968a.287.287,0,1,0,0-.573h-1.968a.287.287,0,1,0,0,.573" transform="translate(-96.951 -18.322)" fill="#2b244a"/>
          <path id="Trazado_150098" data-name="Trazado 150098" d="M287.564,43H285.6a.287.287,0,0,0,0,.574h1.968a.287.287,0,0,0,0-.574" transform="translate(-120.226 -18.12)" fill="#2b244a"/>
          <path id="Trazado_150099" data-name="Trazado 150099" d="M238.577,23.168l1.392,1.392a.287.287,0,0,0,.406-.406l-1.392-1.392a.287.287,0,0,0-.406.406" transform="translate(-100.499 -9.557)" fill="#2b244a"/>
          <path id="Trazado_150100" data-name="Trazado 150100" d="M279.77,62.873l-1.392-1.392a.287.287,0,0,0-.406.406l1.392,1.392a.287.287,0,0,0,.406-.406" transform="translate(-117.1 -25.873)" fill="#2b244a"/>
          <path id="Trazado_150101" data-name="Trazado 150101" d="M239.321,63.618l1.392-1.392a.287.287,0,0,0-.406-.406l-1.392,1.392a.287.287,0,1,0,.406.406" transform="translate(-100.642 -26.016)" fill="#2b244a"/>
          <path id="Trazado_150102" data-name="Trazado 150102" d="M279.025,22.424l-1.392,1.392a.287.287,0,0,0,.406.406l1.392-1.392a.287.287,0,0,0-.406-.406" transform="translate(-116.957 -9.415)" fill="#2b244a"/>
        </g>
      </g>
    </g>
  </g>
</svg>
