<svg xmlns="http://www.w3.org/2000/svg" xmlns:xlink="http://www.w3.org/1999/xlink" width="352" height="325.987" viewBox="0 0 352 325.987">
  <defs>
    <clipPath id="clip-path">
      <rect id="Rect치ngulo_41944" data-name="Rect치ngulo 41944" width="268.871" height="292.811" fill="none"/>
    </clipPath>
  </defs>
  <g id="Grupo_167896" data-name="Grupo 167896" transform="translate(-286.962 -3200.928)">
    <path id="Trazado_150104" data-name="Trazado 150104" d="M0,0H352V172.29H0Z" transform="translate(286.962 3354.625)" fill="#6b8dff"/>
    <g id="Grupo_165526" data-name="Grupo 165526" transform="translate(296.901 3200.927)">
      <path id="Trazado_150103" data-name="Trazado 150103" d="M40.393,347.842c-82.341-79.063-30.2-341.79,79-283.346S215.122,209.484,272.54,210.755s81.2,93.554,20.617,136.269Z" transform="translate(2.061 -56.092)" fill="#3c3fa7"/>
      <g id="Grupo_167947" data-name="Grupo 167947" transform="translate(32.061 17.117)">
        <g id="Grupo_167947-2" data-name="Grupo 167947" clip-path="url(#clip-path)">
          <path id="Trazado_157193" data-name="Trazado 157193" d="M338.881,138.016s-6.116-5.8-6.769-7.37-2.568-9.894-2.568-9.894a6.6,6.6,0,0,1,6.892-.006,7.922,7.922,0,0,1,1.748,1.638,9.109,9.109,0,0,1,.59.764,23.393,23.393,0,0,1,1.96,3.311c.138.278.28.564.41.846a29.767,29.767,0,0,1,1.387,3.575c.1.315.186.628.265.913a6.584,6.584,0,0,1,.285,2.26c-.359,2.122-4.2,3.963-4.2,3.963" transform="translate(-152.221 -55.316)" fill="#f9b3a2"/>
          <path id="Trazado_157194" data-name="Trazado 157194" d="M349.536,141.344l-4.732,2.179a.47.47,0,0,1-.393-.854l4.86-2.238c.1.315.186.628.265.913" transform="translate(-158.961 -64.867)" fill="#2f3f4f"/>
          <path id="Trazado_157195" data-name="Trazado 157195" d="M346.173,133.061,341.1,135.4a.471.471,0,0,1-.624-.23.466.466,0,0,1,.231-.624l5.056-2.328c.138.278.281.564.411.846" transform="translate(-157.25 -61.072)" fill="#2f3f4f"/>
          <path id="Trazado_157196" data-name="Trazado 157196" d="M342.092,125.406l-4.7,2.163a.472.472,0,0,1-.624-.23.466.466,0,0,1,.23-.624l4.5-2.072a9.1,9.1,0,0,1,.59.764" transform="translate(-155.538 -57.574)" fill="#2f3f4f"/>
          <path id="Trazado_157197" data-name="Trazado 157197" d="M100.664,76.173s-7.823,3.131-9.525,3.065-10.061-1.805-10.061-1.805a6.606,6.606,0,0,1,2.877-6.263,7.909,7.909,0,0,1,2.219-.9,9.087,9.087,0,0,1,.941-.216,23.418,23.418,0,0,1,3.827-.395c.31-.01.63-.019.94-.019a29.827,29.827,0,0,1,3.827.235c.329.038.649.094.94.141a6.593,6.593,0,0,1,2.172.686c1.777,1.213,1.843,5.473,1.843,5.473" transform="translate(-37.432 -32.167)" fill="#f9b3a2"/>
          <path id="Trazado_157198" data-name="Trazado 157198" d="M261.783,79.415l-3.517,4.967-4.251-.4a21.943,21.943,0,0,0-1.471,7.829c.108,2.2.746,4.308,1.01,6.486a13.376,13.376,0,0,1-1.331,6.575c-.8,1.976-2.021,4.075-1.932,6.27.1,2.526,1.087,4.939,1.083,7.475a13.42,13.42,0,0,1-.816,4.2A23.091,23.091,0,0,0,249.442,126c-.163.926-.2,1.89-.28,2.836h7.716a20.766,20.766,0,0,1,.219-3.049c.382-2.078,1.154-4.065,1.451-6.178.331-2.35-1.373-7.522-1.432-9.462s.94-5.191,2.879-8.776,1.326-8.56,1.133-12.792a50.356,50.356,0,0,1,.654-9.161" transform="translate(-115.091 -36.683)" fill="#a66353"/>
          <path id="Trazado_157199" data-name="Trazado 157199" d="M362.045,272.031s1.212,6.031,3.954,9.479,8.6,8.541,10.637,8.149,1.567-3.369,1.567-3.369-2.273-8.384-2.743-8.62-9.09-5.25-9.09-5.25Z" transform="translate(-167.233 -125.655)" fill="#f9b3a2"/>
          <path id="Trazado_157200" data-name="Trazado 157200" d="M225.991,256.785s-2.709,10.579-3.963,45.71,1.981,86.22,1.981,86.22H249.3l10.184-61.12Z" transform="translate(-102.424 -118.612)" fill="#4663ab"/>
          <path id="Trazado_157201" data-name="Trazado 157201" d="M254.74,473.309l-.094,31.105a4.55,4.55,0,0,1-4.41,3.573H218.068A2.246,2.246,0,0,1,215.9,505.1c.009-.019.009-.038.019-.056.179-.526,3.385-2.727,7.24-5.19h.009l.564-.366c.263-.17.526-.339.8-.508,5.7-3.63,12.13-7.513,12.158-7.57.056-.141-2.511-20.545-2.511-20.545Z" transform="translate(-99.677 -217.498)" fill="#f9b3a2"/>
          <path id="Trazado_157202" data-name="Trazado 157202" d="M243.408,383.795s-6.118-50.7-7.372-69.483,2.511-31.945,2.511-31.945l27.419,34.478-9.87,92.461Z" transform="translate(-108.91 -130.429)" fill="#f9b3a2"/>
          <path id="Trazado_157203" data-name="Trazado 157203" d="M351.088,512.3H325.5a4.044,4.044,0,0,1-3.62-2.322,6.5,6.5,0,0,1-.668-2.078c-.893-6.141-4.5-30.278-4.5-30.278l20.565-2.445,2.435,21c.01.019,4.043,3.9,7.7,7.457,3.019,2.934,5.783,5.623,5.83,5.726.009.019.009.038.019.056a2.246,2.246,0,0,1-2.172,2.887" transform="translate(-146.292 -219.492)" fill="#f9b3a2"/>
          <path id="Trazado_157204" data-name="Trazado 157204" d="M252.589,60.332a10.75,10.75,0,0,0,11.58,7.532,10.566,10.566,0,0,0,1.825-.386,10.77,10.77,0,0,0,3.682-1.969c.136-.109.262-.215.385-.332a4.687,4.687,0,0,0,.35-.333c2.08-2.142,3.922-6.82,2.718-10.769a10.74,10.74,0,0,0-20.377-.515l0,.01a10.679,10.679,0,0,0-.628,4.021.283.283,0,0,0,0,.079,10.907,10.907,0,0,0,.461,2.661" transform="translate(-116.458 -21.46)" fill="#f9b3a2"/>
          <path id="Trazado_157205" data-name="Trazado 157205" d="M252.134,64.809s-.558,7.88.468,12.374c1.271,5.564,7.075,5.612,11.856,2.531a17.076,17.076,0,0,0,6.411-8.6s-9.364-4.335-10.56-4.324-8.175-1.978-8.175-1.978" transform="translate(-116.394 -29.936)" fill="#f9b3a2"/>
          <path id="Trazado_157206" data-name="Trazado 157206" d="M279.166,96.2l-7.955,1.608-6.855-1.843.357-5.811.207-3.272v-.01l.216-3.573,4.241-1.279,6.525-6.074Z" transform="translate(-122.109 -35.08)" fill="#f9b3a2"/>
          <path id="Trazado_157207" data-name="Trazado 157207" d="M270.887,92.565c-.132.216-2.294,3.658-4.26,4.654a9.569,9.569,0,0,1-1.608.611l.207-3.272v-.01s2.37-.648,3.545-1.062a17.906,17.906,0,0,0,2.116-.922" transform="translate(-122.416 -42.757)" fill="#2f3f4f"/>
          <path id="Trazado_157208" data-name="Trazado 157208" d="M80.794,459.87,80.7,490.976a4.525,4.525,0,0,1-4.41,3.573H44.122a2.246,2.246,0,0,1-2.172-2.887c.009-.019.009-.038.019-.056.188-.555,3.714-2.943,7.814-5.557.264-.169.527-.339.8-.508,5.7-3.63,12.13-7.513,12.158-7.57.056-.141-2.511-20.545-2.511-20.545Z" transform="translate(-19.329 -211.291)" fill="#f9b3a2"/>
          <path id="Trazado_157209" data-name="Trazado 157209" d="M171.583,498.2H146c-2.361,0-4.6-1.946-4.288-4.4.705-5.679,2.837-30.278,2.837-30.278l20.565-2.445-4.1,21.467c.019.029,3.874,3.771,7.335,7.184l.856.856c2.417,2.4,4.447,4.457,4.532,4.674.009.018.009.037.019.056a2.246,2.246,0,0,1-2.172,2.887" transform="translate(-65.444 -212.978)" fill="#f9b3a2"/>
          <path id="Trazado_157210" data-name="Trazado 157210" d="M62.774,518.439l-.395.244-.4.245-.151-.245-5.228-8.5c.263-.169.526-.338.8-.508Z" transform="translate(-26.142 -235.425)" fill="#2f3f4f"/>
          <path id="Trazado_157211" data-name="Trazado 157211" d="M145.518,102.545l-13.15,22.328-1.668,2.835s-16.008-1.633-27.271-3.8c-.335-.059-.67-.128-1-.195-5.221-1.036-9.217-2.194-9.776-3.34-.743-1.517-.9-7.142-.834-13.206.086-8.521.7-17.819.7-17.819a16.816,16.816,0,0,1,1.755-.634c.865-.265,1.863-.56,2.583-.779.49-.148.855-.257.96-.279l.1-.022c.307-.075.622-.149.938-.223a49.483,49.483,0,0,1,27.989,1.683c.783.276,1.556.588,2.316.919a45.968,45.968,0,0,1,6.375,3.342,42.14,42.14,0,0,1,9.981,9.195" transform="translate(-42.409 -39.789)" fill="#f9b3a2"/>
          <path id="Trazado_157212" data-name="Trazado 157212" d="M154.372,33.648s1.091-2.891,3.709-3a4.9,4.9,0,0,1,4.2,1.69c.874.71,3.383.274,5.238,1.91s2.727,3.109,2.127,5.345-.054,3.436-.327,5.618a6.874,6.874,0,0,1-3.923,4.935c-1.641.628-7.243-2.971-7.66-3.572s-3.362-12.926-3.362-12.926" transform="translate(-71.306 -14.153)" fill="#2f3f4f"/>
          <path id="Trazado_157213" data-name="Trazado 157213" d="M151.081,35.815s-2.394-2.073-4.1-2.018-1.816,1.745-2.252,2.836-1.909.436-2.345,2.509a13.817,13.817,0,0,0,.223,4.909s4.958-.109,5.667-1.2a73.948,73.948,0,0,0,2.806-7.036" transform="translate(-65.701 -15.611)" fill="#2f3f4f"/>
          <path id="Trazado_157214" data-name="Trazado 157214" d="M147.518,74.326l-.881,6.563-.811,6.065-5.742.663L131.5,84.51,136.53,73.34l1.562-3.464Z" transform="translate(-60.743 -32.276)" fill="#f9b3a2"/>
          <path id="Trazado_157215" data-name="Trazado 157215" d="M151.833,74.326l-.881,6.563a12.482,12.482,0,0,1-5.935-1.3c-2.548-1.388-3.7-4.4-4.171-6.249l1.562-3.464Z" transform="translate(-65.059 -32.276)" fill="#2f3f4f"/>
          <path id="Trazado_157216" data-name="Trazado 157216" d="M162.63,46.468v.079a11.87,11.87,0,0,1-.881,2.478,13.994,13.994,0,0,1-.742,1.736,11.837,11.837,0,0,1-.6,1.021c-.192.3-.393.585-.6.855-2.243,2.915-5.332,4.748-8.849,4.215a9.243,9.243,0,0,1-1.711-.428c-4.2-1.457-6.4-5.515-6.03-10.106.035-.384.087-.776.157-1.161s.166-.751.271-1.126c.035-.1.052-.149.052-.149.026-.1.061-.2.1-.3,1.711-4.913,5.952-8.43,10.516-8.055a6.14,6.14,0,0,1,.681.087c.227.044.454.088.681.149s.462.131.689.209a9.017,9.017,0,0,1,5.908,6.458,10.936,10.936,0,0,1,.366,4.032" transform="translate(-66.133 -16.401)" fill="#f9b3a2"/>
          <path id="Trazado_157217" data-name="Trazado 157217" d="M160.03,57.737s-.035.079-.087.218c-.131.3-.4.882-.786,1.632-.183.367-.41.777-.654,1.213v.009c-1.2,2.095-2.766,4.887-5.027,6.1-3.842,2.062-6.45,2.216-8.243,1.6-1.865-.644-2.857-2.155-3.818-4.913-1.126-3.238-.253-6.816.358-9.5V54.08c.009,0,.009,0,.009-.009.131-.567.262-1.073.376-1.5.183-.655.34-1.126.419-1.344.035-.1.053-.149.053-.149s.166.07.454.2c.139.061.3.139.489.227,2.478,1.126,8.692,3.709,9.452,4.32s4.713,1.405,6.353,1.763c.122.026.227.053.314.07.218.052.34.079.34.079" transform="translate(-65.07 -23.594)" fill="#f9b3a2"/>
          <path id="Trazado_157218" data-name="Trazado 157218" d="M148.551,68.912l6.264,2.695s-1.123,1-3.535.312a3.841,3.841,0,0,1-2.729-3.006" transform="translate(-68.618 -31.831)" fill="#fff"/>
          <path id="Trazado_157219" data-name="Trazado 157219" d="M162.9,45.814l.1,1.615c-.1.881-1.673,2.372-1.952,2.921-.131.3-.4.881-.786,1.632.052-.192.122-.392.183-.611.113-.384.227-.794.323-1.2.009-.035.017-.079.026-.114.227-1.021-.752,3.312-1.145,2.666-.934-1.527,2.495-5.543-1.21-7.927-1.907-1.227-2.384-1.127-4.95-1.738s-2.556-3.858-4.852-3.482c-1.266.209-3.343,3.9-4.634,5.62-.052.061.236-1.579.183-1.518-.288.384-.55.751-.777,1.073-.052.079-.1.149-.148.218.183-.655.34-1.126.419-1.344.035-.1.052-.149.052-.149.026-.1.061-.2.1-.3,1.71-4.913,5.455-8.913,10.019-8.538.227.018.95.527,1.177.571s.454.087.681.148.463.131.689.21a9.29,9.29,0,0,1,6.324,6.244,10.762,10.762,0,0,1,.18,4" transform="translate(-66.175 -15.989)" fill="#2f3f4f"/>
          <path id="Trazado_157220" data-name="Trazado 157220" d="M142.971,52.4a8.612,8.612,0,0,1-2.457,3.553,6.665,6.665,0,0,1-.928-4.328c.29-1.936,1.474-3.4,2.478-3.135s1.411,2.019.907,3.91" transform="translate(-64.447 -22.382)" fill="#f9b3a2"/>
          <path id="Trazado_157221" data-name="Trazado 157221" d="M170.017,65.268a8.611,8.611,0,0,0-.948,4.215,6.613,6.613,0,0,0,3.944-2.343c1.238-1.516,1.372-3.3.493-3.855s-2.441.33-3.49,1.983" transform="translate(-78.094 -29.155)" fill="#f9b3a2"/>
          <path id="Trazado_157222" data-name="Trazado 157222" d="M137.165,123.311a45.783,45.783,0,0,1-2.859,8.623,169.563,169.563,0,0,1-7.8,15.59c-2.576,4.636-4.993,10.033-4.993,10.033l-16.851-2.9-17.545-4.232s-.386-4.692-.687-11.011c-.009-.2-.019-.395-.028-.592-.029-.668-.056-1.345-.084-2.04-.029-.733-.057-1.486-.085-2.248q-.015-.466-.028-.931c-.038-1.082-.066-2.191-.084-3.3-.01-.451-.019-.912-.019-1.363s-.019-.9-.019-1.354c-.028-3.451.019-6.874.207-9.939a43.138,43.138,0,0,1,1.035-7.974c2.68-10.259,51.895,2.952,49.836,13.635" transform="translate(-39.761 -48.952)" fill="#f9b3a2"/>
          <path id="Trazado_157223" data-name="Trazado 157223" d="M77.485,83.648S73.169,96.173,72.7,96.794s-15.985,7.692-15.985,7.692-36.07,5.661-46.254,3.94-5.35-17.6-5.35-17.6S39,81.6,52.162,80.339a57.305,57.305,0,0,1,14.556.62c.32.047.639.1.941.16a61.777,61.777,0,0,1,9.826,2.53" transform="translate(-1.831 -37.009)" fill="#f9b3a2"/>
          <path id="Trazado_157224" data-name="Trazado 157224" d="M23.771,71.867l8.855-22.411L22.439,40.571l-6.314.818S2,68.478.5,74.545C-1.7,83.386,3.957,88.356,6.24,89.37c4.876,2.165,12.287-6.222,12.751-8.021s4.78-9.482,4.78-9.482" transform="translate(0 -18.74)" fill="#f9b3a2"/>
          <path id="Trazado_157225" data-name="Trazado 157225" d="M51.168,52.167a13.522,13.522,0,0,0,1.837-.484c3.938-1.35,7.5-6.061,11.3-7.748a7.9,7.9,0,0,0,2.7-1.526,1.846,1.846,0,0,0,.039-2.686,2.263,2.263,0,0,0-.943-.337c-2.61-.439-5.174.823-7.748,1.471a67.664,67.664,0,0,1-7.984,1.026c-2.664.341-5.406,1.056-7.4,2.81a2.726,2.726,0,0,0-.721.882,2.878,2.878,0,0,0-.168,1.315c.073,1.819-.125,3.879,2.153,4,2.51.138,4.477,1.746,6.929,1.274" transform="translate(-19.436 -18.151)" fill="#f9b3a2"/>
          <path id="Trazado_157226" data-name="Trazado 157226" d="M29.715,35.437S29.951,24.19,31.2,21.9s8.963-2.293,11.912-1.31,2.62,11.246,2.62,11.9S38.451,37.882,36.7,38.57s-6.989-3.133-6.989-3.133" transform="translate(-13.726 -9.221)" fill="#f9b3a2"/>
          <path id="Trazado_157227" data-name="Trazado 157227" d="M50.513,12.494S51.677,2.011,52.623.846s2.475-1.092,3.786,0-1.6,21.984-1.6,21.984-5.9.8-6.042,0,1.748-10.337,1.748-10.337" transform="translate(-22.522 0)" fill="#f9b3a2"/>
          <path id="Trazado_157228" data-name="Trazado 157228" d="M58.455,16.9S65.444,4.525,66.973,4.234s3.13.582,2.4,3.785-7.78,18-7.78,18l-5.413.273Z" transform="translate(-25.951 -1.931)" fill="#f9b3a2"/>
          <path id="Trazado_157229" data-name="Trazado 157229" d="M33.6,32.21c-.716,0-1.456-.016-2.225-.046a.47.47,0,0,1-.451-.489.451.451,0,0,1,.489-.451,47.365,47.365,0,0,0,5.073-.047,5.68,5.68,0,0,0,3.193-1.139A3.168,3.168,0,0,0,41,27.787c.2-1.022.747-4.547.865-5.907a.459.459,0,0,1,.509-.428.47.47,0,0,1,.428.508c-.123,1.414-.672,4.941-.879,6.006a4.105,4.105,0,0,1-1.668,2.817,6.677,6.677,0,0,1-3.7,1.332c-.949.063-1.925.095-2.948.095" transform="translate(-14.283 -9.907)" fill="#362e4d"/>
          <path id="Trazado_157230" data-name="Trazado 157230" d="M40.012,32.3l-.042,0a.469.469,0,0,1-.427-.51l.789-8.98a.47.47,0,0,1,.936.083l-.789,8.98a.471.471,0,0,1-.468.429" transform="translate(-18.265 -10.337)" fill="#362e4d"/>
          <path id="Trazado_157231" data-name="Trazado 157231" d="M43.313,49.207a.476.476,0,0,1-.144-.023.47.47,0,0,1-.3-.591c.046-.144,1.157-3.549,3.334-5.036a9.745,9.745,0,0,1,7.96-1.209.47.47,0,0,1-.287.9,8.957,8.957,0,0,0-7.143,1.09c-1.909,1.3-2.958,4.516-2.969,4.548a.471.471,0,0,1-.448.327" transform="translate(-19.79 -19.391)" fill="#362e4d"/>
          <path id="Trazado_157232" data-name="Trazado 157232" d="M43.772,101.486a.459.459,0,0,1-.143-.023.469.469,0,0,1-.3-.591l3.774-11.8a.47.47,0,0,1,.9.286l-3.774,11.8a.47.47,0,0,1-.448.327" transform="translate(-20.002 -40.993)" fill="#362e4d"/>
          <path id="Trazado_157233" data-name="Trazado 157233" d="M206.576,117.073l-9.093,19.276-30.917-10.813V95.85l4.175,2.219.837.442.752.395,3.526,1.871Z" transform="translate(-76.939 -44.274)" fill="#f9b3a2"/>
          <path id="Trazado_157234" data-name="Trazado 157234" d="M221.74,170.583,238.087,177l-1.312-13.246s-11.378-3.01-11.3-2.555-3.736,9.387-3.736,9.387" transform="translate(-102.425 -74.437)" fill="#f9b3a2"/>
          <path id="Trazado_157235" data-name="Trazado 157235" d="M213.366,106.143s-13.705,1.537-22.643,8.825c-7,5.708-25.294,17.043-25.294,17.043l-11.971,23.85a42.97,42.97,0,0,0,19.791-1.075c10.578-3.163,35.5-21.188,35.5-21.188l7.168-20.393Z" transform="translate(-70.884 -49.029)" fill="#f9b3a2"/>
          <path id="Trazado_157236" data-name="Trazado 157236" d="M88.01,188.584l34.4,7.131s9.514,18.544,13.87,29.183c7.483,18.282,14,37.343,15.045,57.325.74,14.21-1.1,67.976-1.1,67.976l-35.81-.392s3.992-59.573,3.287-68.976-25.149-50.873-25.149-50.873l-4.545-30.6Z" transform="translate(-40.653 -87.109)" fill="#a66353"/>
          <path id="Trazado_157237" data-name="Trazado 157237" d="M73.548,188.584s-13.086,10.892-14.5,32.754S56.7,344.048,56.7,344.048H94.783S90.551,229.1,90.551,228.39s-.47-21.62-1.41-23.034-15.593-16.772-15.593-16.772" transform="translate(-26.19 -87.109)" fill="#a66353"/>
          <path id="Trazado_157238" data-name="Trazado 157238" d="M79.353,527.607H43.283a1.437,1.437,0,1,1,0-2.874h36.07a1.437,1.437,0,1,1,0,2.874" transform="translate(-19.329 -242.381)" fill="#a66353"/>
          <path id="Trazado_157239" data-name="Trazado 157239" d="M172.494,530.933H142.065a1.437,1.437,0,1,1,0-2.874h30.428a1.437,1.437,0,1,1,0,2.874" transform="translate(-64.958 -243.917)" fill="#a66353"/>
          <path id="Trazado_157240" data-name="Trazado 157240" d="M182.136,515.18a16.808,16.808,0,0,0-5.473,1.448,11.391,11.391,0,0,0-6.093,5.783l-.893-.32a12.231,12.231,0,0,1,6.6-6.319,17.95,17.95,0,0,1,5-1.448l.856.856" transform="translate(-78.376 -237.573)" fill="#2f3f4f"/>
          <path id="Trazado_157241" data-name="Trazado 157241" d="M134.306,134.507a169.643,169.643,0,0,1-7.8,15.591c-6.535-1.213-19.267-3.6-25.285-4.956-4.918-1.1-9.892-1.974-14.791-3.15l0,0c-.037-.859-.073-1.728-.11-2.629-.028-.733-.057-1.486-.084-2.247q-.015-.466-.029-.931c-.037-1.082-.066-2.191-.084-3.3-.009-.451-.019-.912-.019-1.364s-.019-.9-.019-1.354c-.028-3.451.019-6.874.207-9.939l12.891-8.676,5.607,6.4a17.11,17.11,0,0,0,16.761,3.654l7.411-2.378Z" transform="translate(-39.761 -51.525)" fill="#ffe7cf"/>
          <path id="Trazado_157242" data-name="Trazado 157242" d="M116.258,81.838l-6.2,17.283-.884-.31,6.14-17.133c.32.047.64.1.941.16" transform="translate(-50.43 -37.728)" fill="#ffe7cf"/>
          <path id="Trazado_157243" data-name="Trazado 157243" d="M170.391,100.416l-5.012,13.917-.489,1.354-.893-.32,1.382-3.827,4.175-11.566Z" transform="translate(-75.752 -46.179)" fill="#ffe7cf"/>
          <path id="Trazado_157244" data-name="Trazado 157244" d="M159.018,103.4l-9.29,8.585L132.67,127.754l-2.558-2.765,19.615-18.129,5.764-5.332Z" transform="translate(-60.101 -46.898)" fill="#2f3f4f"/>
          <path id="Trazado_157245" data-name="Trazado 157245" d="M75.559,184.622h0a1.88,1.88,0,0,1,.8-2.538L90.8,171.9l1.742,3.333L78.1,185.418a1.88,1.88,0,0,1-2.538-.8" transform="translate(-34.803 -79.405)" fill="#2f3f4f"/>
          <path id="Trazado_157246" data-name="Trazado 157246" d="M81.17,167.653l4.889,6.072a3.863,3.863,0,0,0,5.491.537l25.121-21.069a3.862,3.862,0,0,0,.5-5.414l-5.115-6.213a3.862,3.862,0,0,0-5.486-.485l-24.9,21.21a3.862,3.862,0,0,0-.5,5.362" transform="translate(-37.099 -64.741)" fill="#f57c64"/>
          <path id="Trazado_157247" data-name="Trazado 157247" d="M84.84,170.609a.47.47,0,0,1-.3-.83L113.743,145.2a.47.47,0,0,1,.605.719L85.142,170.5a.466.466,0,0,1-.3.111" transform="translate(-38.971 -67.019)" fill="#362e4d"/>
          <path id="Trazado_157248" data-name="Trazado 157248" d="M254.554,82.785l6.818-.143s-.589,1.319-3.068,1.694a3.9,3.9,0,0,1-3.749-1.551" transform="translate(-117.582 -38.173)" fill="#fff"/>
          <path id="Trazado_157249" data-name="Trazado 157249" d="M256.919,50.13a9.19,9.19,0,0,0,4,3.836,35.375,35.375,0,0,1,4.418,1.8,6.416,6.416,0,0,1,2.405,3.651,9.03,9.03,0,0,1,.431,2.392,6.1,6.1,0,0,0,.442,2.509,7.316,7.316,0,0,0,2.7,2.654,15.692,15.692,0,0,0,2.132,1.325s3.308-6.487,3.308-12.054a9.969,9.969,0,0,0-8.973-9.874,13.563,13.563,0,0,0-7.4,1.055,13.085,13.085,0,0,0-3.456,2.707" transform="translate(-118.674 -21.368)" fill="#a66353"/>
          <path id="Trazado_157250" data-name="Trazado 157250" d="M276.3,148.391c-.49,2.276-.912,4.25-1.269,5.952-1.391,6.592-1.89,9.13-1.89,9.13l-12.158,5.209L238.5,164.066s-.649-4.739-1.336-9.723c-.639-4.626-1.307-9.46-1.532-10.889-.47-2.981-4.128-5.755-3.761-12.384.545-9.873,17.706-24.927,17.706-24.927H263.5s11.858,2.04,16.323,4.711.941,16.718-3.526,37.537" transform="translate(-107.09 -49.029)" fill="#2f3f4f"/>
          <path id="Trazado_157251" data-name="Trazado 157251" d="M313.157,368.346H247.335l-6.15-35.026-.432-2.483L230.382,271.73s-1.683-19.5-1.693-27.975c-.019-16.615,8.35-30.475,8.35-30.475l34.641-.592S277.9,217.9,283.3,234.117c7.071,21.214,17.584,71.7,24.063,104.346.282,1.373.545,2.717.8,4.024,3.028,15.346,4.993,25.858,4.993,25.858" transform="translate(-105.634 -98.243)" fill="#4663ab"/>
          <path id="Trazado_157252" data-name="Trazado 157252" d="M279.592,195.72c-1.392,6.592-1.89,9.13-1.89,9.13l-12.158,5.209-22.483-4.617s-.648-4.739-1.335-9.723Z" transform="translate(-111.656 -90.406)" fill="#4663ab"/>
          <path id="Trazado_157253" data-name="Trazado 157253" d="M235.706,488.893a.47.47,0,0,1-.47-.47v-3.6a.47.47,0,0,1,.941,0v3.6a.47.47,0,0,1-.47.47" transform="translate(-108.659 -223.727)" fill="#fff"/>
          <path id="Trazado_157254" data-name="Trazado 157254" d="M263.456,488.893a.47.47,0,0,1-.47-.47v-3.6a.47.47,0,0,1,.941,0v3.6a.47.47,0,0,1-.47.47" transform="translate(-121.477 -223.727)" fill="#fff"/>
          <path id="Trazado_157255" data-name="Trazado 157255" d="M291.205,488.893a.47.47,0,0,1-.47-.47v-3.6a.47.47,0,1,1,.941,0v3.6a.47.47,0,0,1-.47.47" transform="translate(-134.294 -223.727)" fill="#fff"/>
          <path id="Trazado_157256" data-name="Trazado 157256" d="M318.955,488.893a.47.47,0,0,1-.47-.47v-3.6a.47.47,0,1,1,.941,0v3.6a.47.47,0,0,1-.47.47" transform="translate(-147.112 -223.727)" fill="#fff"/>
          <path id="Trazado_157257" data-name="Trazado 157257" d="M347.243,488.893a.47.47,0,0,1-.47-.47v-3.6a.47.47,0,1,1,.941,0v3.6a.47.47,0,0,1-.47.47" transform="translate(-160.179 -223.727)" fill="#fff"/>
          <path id="Trazado_157258" data-name="Trazado 157258" d="M375.142,488.893a.47.47,0,0,1-.47-.47v-3.6a.47.47,0,0,1,.941,0v3.6a.47.47,0,0,1-.47.47" transform="translate(-173.066 -223.727)" fill="#fff"/>
          <path id="Trazado_157259" data-name="Trazado 157259" d="M361.089,471.185a.47.47,0,0,1-.47-.47v-3.6a.47.47,0,1,1,.941,0v3.6a.47.47,0,0,1-.47.47" transform="translate(-166.575 -215.547)" fill="#fff"/>
          <path id="Trazado_157260" data-name="Trazado 157260" d="M333.712,471.185a.47.47,0,0,1-.47-.47v-3.6a.47.47,0,1,1,.941,0v3.6a.47.47,0,0,1-.47.47" transform="translate(-153.929 -215.547)" fill="#fff"/>
          <path id="Trazado_157261" data-name="Trazado 157261" d="M306.335,471.185a.47.47,0,0,1-.47-.47v-3.6a.47.47,0,1,1,.941,0v3.6a.47.47,0,0,1-.47.47" transform="translate(-141.283 -215.547)" fill="#fff"/>
          <path id="Trazado_157262" data-name="Trazado 157262" d="M278.957,471.185a.47.47,0,0,1-.47-.47v-3.6a.47.47,0,1,1,.941,0v3.6a.47.47,0,0,1-.47.47" transform="translate(-128.637 -215.547)" fill="#fff"/>
          <path id="Trazado_157263" data-name="Trazado 157263" d="M235.706,450.68a.47.47,0,0,1-.47-.47v-3.6a.47.47,0,0,1,.941,0v3.6a.47.47,0,0,1-.47.47" transform="translate(-108.659 -206.076)" fill="#fff"/>
          <path id="Trazado_157264" data-name="Trazado 157264" d="M263.456,450.68a.47.47,0,0,1-.47-.47v-3.6a.47.47,0,0,1,.941,0v3.6a.47.47,0,0,1-.47.47" transform="translate(-121.477 -206.076)" fill="#fff"/>
          <path id="Trazado_157265" data-name="Trazado 157265" d="M291.205,450.68a.47.47,0,0,1-.47-.47v-3.6a.47.47,0,0,1,.941,0v3.6a.47.47,0,0,1-.47.47" transform="translate(-134.294 -206.076)" fill="#fff"/>
          <path id="Trazado_157266" data-name="Trazado 157266" d="M318.955,450.68a.47.47,0,0,1-.47-.47v-3.6a.47.47,0,0,1,.941,0v3.6a.47.47,0,0,1-.47.47" transform="translate(-147.112 -206.076)" fill="#fff"/>
          <path id="Trazado_157267" data-name="Trazado 157267" d="M347.243,450.68a.47.47,0,0,1-.47-.47v-3.6a.47.47,0,0,1,.941,0v3.6a.47.47,0,0,1-.47.47" transform="translate(-160.179 -206.076)" fill="#fff"/>
          <path id="Trazado_157268" data-name="Trazado 157268" d="M375.6,450.458a.467.467,0,0,1-.921-.113v-3.6a.44.44,0,0,1,.122-.31c.282,1.373.545,2.717.8,4.024" transform="translate(-173.068 -206.214)" fill="#fff"/>
          <path id="Trazado_157269" data-name="Trazado 157269" d="M361.089,432.973a.47.47,0,0,1-.47-.47v-3.6a.47.47,0,1,1,.941,0v3.6a.47.47,0,0,1-.47.47" transform="translate(-166.575 -197.896)" fill="#fff"/>
          <path id="Trazado_157270" data-name="Trazado 157270" d="M333.712,432.973a.47.47,0,0,1-.47-.47v-3.6a.47.47,0,0,1,.941,0v3.6a.47.47,0,0,1-.47.47" transform="translate(-153.929 -197.896)" fill="#fff"/>
          <path id="Trazado_157271" data-name="Trazado 157271" d="M306.335,432.973a.47.47,0,0,1-.47-.47v-3.6a.47.47,0,0,1,.941,0v3.6a.47.47,0,0,1-.47.47" transform="translate(-141.283 -197.896)" fill="#fff"/>
          <path id="Trazado_157272" data-name="Trazado 157272" d="M278.957,432.973a.47.47,0,0,1-.47-.47v-3.6a.47.47,0,0,1,.941,0v3.6a.47.47,0,0,1-.47.47" transform="translate(-128.637 -197.896)" fill="#fff"/>
          <path id="Trazado_157273" data-name="Trazado 157273" d="M224.2,432.973a.47.47,0,0,1-.47-.47v-3.6a.47.47,0,0,1,.941,0v3.6a.47.47,0,0,1-.47.47" transform="translate(-103.345 -197.896)" fill="#fff"/>
          <path id="Trazado_157274" data-name="Trazado 157274" d="M235.706,412.469a.47.47,0,0,1-.47-.47v-3.6a.47.47,0,0,1,.941,0V412a.47.47,0,0,1-.47.47" transform="translate(-108.659 -188.425)" fill="#fff"/>
          <path id="Trazado_157275" data-name="Trazado 157275" d="M263.456,412.469a.47.47,0,0,1-.47-.47v-3.6a.47.47,0,0,1,.941,0V412a.47.47,0,0,1-.47.47" transform="translate(-121.477 -188.425)" fill="#fff"/>
          <path id="Trazado_157276" data-name="Trazado 157276" d="M291.205,412.469a.47.47,0,0,1-.47-.47v-3.6a.47.47,0,0,1,.941,0V412a.47.47,0,0,1-.47.47" transform="translate(-134.294 -188.425)" fill="#fff"/>
          <path id="Trazado_157277" data-name="Trazado 157277" d="M318.955,412.469a.47.47,0,0,1-.47-.47v-3.6a.47.47,0,0,1,.941,0V412a.47.47,0,0,1-.47.47" transform="translate(-147.112 -188.425)" fill="#fff"/>
          <path id="Trazado_157278" data-name="Trazado 157278" d="M347.243,412.469a.47.47,0,0,1-.47-.47v-3.6a.47.47,0,0,1,.941,0V412a.47.47,0,0,1-.47.47" transform="translate(-160.179 -188.425)" fill="#fff"/>
          <path id="Trazado_157279" data-name="Trazado 157279" d="M361.089,394.761a.47.47,0,0,1-.47-.47v-3.6a.47.47,0,0,1,.941,0v3.6a.47.47,0,0,1-.47.47" transform="translate(-166.575 -180.246)" fill="#fff"/>
          <path id="Trazado_157280" data-name="Trazado 157280" d="M333.712,394.761a.47.47,0,0,1-.47-.47v-3.6a.47.47,0,0,1,.941,0v3.6a.47.47,0,0,1-.47.47" transform="translate(-153.929 -180.246)" fill="#fff"/>
          <path id="Trazado_157281" data-name="Trazado 157281" d="M306.335,394.761a.47.47,0,0,1-.47-.47v-3.6a.47.47,0,0,1,.941,0v3.6a.47.47,0,0,1-.47.47" transform="translate(-141.283 -180.246)" fill="#fff"/>
          <path id="Trazado_157282" data-name="Trazado 157282" d="M278.957,394.761a.47.47,0,0,1-.47-.47v-3.6a.47.47,0,0,1,.941,0v3.6a.47.47,0,0,1-.47.47" transform="translate(-128.637 -180.246)" fill="#fff"/>
          <path id="Trazado_157283" data-name="Trazado 157283" d="M251.579,394.761a.47.47,0,0,1-.47-.47v-3.6a.47.47,0,0,1,.941,0v3.6a.47.47,0,0,1-.47.47" transform="translate(-115.99 -180.246)" fill="#fff"/>
          <path id="Trazado_157284" data-name="Trazado 157284" d="M224.2,394.761a.47.47,0,0,1-.47-.47v-3.6a.47.47,0,0,1,.941,0v3.6a.47.47,0,0,1-.47.47" transform="translate(-103.345 -180.246)" fill="#fff"/>
          <path id="Trazado_157285" data-name="Trazado 157285" d="M235.706,374.257a.47.47,0,0,1-.47-.47v-3.6a.47.47,0,0,1,.941,0v3.6a.47.47,0,0,1-.47.47" transform="translate(-108.659 -170.775)" fill="#fff"/>
          <path id="Trazado_157286" data-name="Trazado 157286" d="M263.456,374.257a.47.47,0,0,1-.47-.47v-3.6a.47.47,0,0,1,.941,0v3.6a.47.47,0,0,1-.47.47" transform="translate(-121.477 -170.775)" fill="#fff"/>
          <path id="Trazado_157287" data-name="Trazado 157287" d="M291.205,374.257a.47.47,0,0,1-.47-.47v-3.6a.47.47,0,0,1,.941,0v3.6a.47.47,0,0,1-.47.47" transform="translate(-134.294 -170.775)" fill="#fff"/>
          <path id="Trazado_157288" data-name="Trazado 157288" d="M318.955,374.257a.47.47,0,0,1-.47-.47v-3.6a.47.47,0,0,1,.941,0v3.6a.47.47,0,0,1-.47.47" transform="translate(-147.112 -170.775)" fill="#fff"/>
          <path id="Trazado_157289" data-name="Trazado 157289" d="M347.243,374.257a.47.47,0,0,1-.47-.47v-3.6a.47.47,0,0,1,.941,0v3.6a.47.47,0,0,1-.47.47" transform="translate(-160.179 -170.775)" fill="#fff"/>
          <path id="Trazado_157290" data-name="Trazado 157290" d="M333.712,356.549a.47.47,0,0,1-.47-.47v-3.6a.47.47,0,0,1,.941,0v3.6a.47.47,0,0,1-.47.47" transform="translate(-153.929 -162.595)" fill="#fff"/>
          <path id="Trazado_157291" data-name="Trazado 157291" d="M306.335,356.549a.47.47,0,0,1-.47-.47v-3.6a.47.47,0,0,1,.941,0v3.6a.47.47,0,0,1-.47.47" transform="translate(-141.283 -162.595)" fill="#fff"/>
          <path id="Trazado_157292" data-name="Trazado 157292" d="M278.957,356.549a.47.47,0,0,1-.47-.47v-3.6a.47.47,0,0,1,.941,0v3.6a.47.47,0,0,1-.47.47" transform="translate(-128.637 -162.595)" fill="#fff"/>
          <path id="Trazado_157293" data-name="Trazado 157293" d="M251.579,356.549a.47.47,0,0,1-.47-.47v-3.6a.47.47,0,0,1,.941,0v3.6a.47.47,0,0,1-.47.47" transform="translate(-115.99 -162.595)" fill="#fff"/>
          <path id="Trazado_157294" data-name="Trazado 157294" d="M224.2,356.549a.47.47,0,0,1-.47-.47v-3.6a.47.47,0,0,1,.941,0v3.6a.47.47,0,0,1-.47.47" transform="translate(-103.345 -162.595)" fill="#fff"/>
          <path id="Trazado_157295" data-name="Trazado 157295" d="M235.706,336.045a.47.47,0,0,1-.47-.47v-3.6a.47.47,0,0,1,.941,0v3.6a.47.47,0,0,1-.47.47" transform="translate(-108.659 -153.124)" fill="#fff"/>
          <path id="Trazado_157296" data-name="Trazado 157296" d="M263.456,336.045a.47.47,0,0,1-.47-.47v-3.6a.47.47,0,0,1,.941,0v3.6a.47.47,0,0,1-.47.47" transform="translate(-121.477 -153.124)" fill="#fff"/>
          <path id="Trazado_157297" data-name="Trazado 157297" d="M291.205,336.045a.47.47,0,0,1-.47-.47v-3.6a.47.47,0,0,1,.941,0v3.6a.47.47,0,0,1-.47.47" transform="translate(-134.294 -153.124)" fill="#fff"/>
          <path id="Trazado_157298" data-name="Trazado 157298" d="M318.955,336.045a.47.47,0,0,1-.47-.47v-3.6a.47.47,0,0,1,.941,0v3.6a.47.47,0,0,1-.47.47" transform="translate(-147.112 -153.124)" fill="#fff"/>
          <path id="Trazado_157299" data-name="Trazado 157299" d="M347.243,336.045a.47.47,0,0,1-.47-.47v-3.6a.47.47,0,0,1,.941,0v3.6a.47.47,0,0,1-.47.47" transform="translate(-160.179 -153.124)" fill="#fff"/>
          <path id="Trazado_157300" data-name="Trazado 157300" d="M333.712,318.337a.47.47,0,0,1-.47-.47v-3.6a.47.47,0,0,1,.941,0v3.6a.47.47,0,0,1-.47.47" transform="translate(-153.929 -144.945)" fill="#fff"/>
          <path id="Trazado_157301" data-name="Trazado 157301" d="M306.335,318.337a.47.47,0,0,1-.47-.47v-3.6a.47.47,0,0,1,.941,0v3.6a.47.47,0,0,1-.47.47" transform="translate(-141.283 -144.945)" fill="#fff"/>
          <path id="Trazado_157302" data-name="Trazado 157302" d="M278.957,318.337a.47.47,0,0,1-.47-.47v-3.6a.47.47,0,0,1,.941,0v3.6a.47.47,0,0,1-.47.47" transform="translate(-128.637 -144.945)" fill="#fff"/>
          <path id="Trazado_157303" data-name="Trazado 157303" d="M251.579,318.337a.47.47,0,0,1-.47-.47v-3.6a.47.47,0,0,1,.941,0v3.6a.47.47,0,0,1-.47.47" transform="translate(-115.99 -144.945)" fill="#fff"/>
          <path id="Trazado_157304" data-name="Trazado 157304" d="M224.2,318.337a.47.47,0,0,1-.47-.47v-3.6a.47.47,0,0,1,.941,0v3.6a.47.47,0,0,1-.47.47" transform="translate(-103.345 -144.945)" fill="#fff"/>
          <path id="Trazado_157305" data-name="Trazado 157305" d="M235.706,297.833a.47.47,0,0,1-.47-.47v-3.6a.47.47,0,0,1,.941,0v3.6a.47.47,0,0,1-.47.47" transform="translate(-108.659 -135.474)" fill="#fff"/>
          <path id="Trazado_157306" data-name="Trazado 157306" d="M263.456,297.833a.47.47,0,0,1-.47-.47v-3.6a.47.47,0,0,1,.941,0v3.6a.47.47,0,0,1-.47.47" transform="translate(-121.477 -135.474)" fill="#fff"/>
          <path id="Trazado_157307" data-name="Trazado 157307" d="M291.205,297.833a.47.47,0,0,1-.47-.47v-3.6a.47.47,0,0,1,.941,0v3.6a.47.47,0,0,1-.47.47" transform="translate(-134.294 -135.474)" fill="#fff"/>
          <path id="Trazado_157308" data-name="Trazado 157308" d="M318.955,297.833a.47.47,0,0,1-.47-.47v-3.6a.47.47,0,0,1,.941,0v3.6a.47.47,0,0,1-.47.47" transform="translate(-147.112 -135.474)" fill="#fff"/>
          <path id="Trazado_157309" data-name="Trazado 157309" d="M333.712,280.125a.47.47,0,0,1-.47-.47v-3.6a.47.47,0,0,1,.941,0v3.6a.47.47,0,0,1-.47.47" transform="translate(-153.929 -127.294)" fill="#fff"/>
          <path id="Trazado_157310" data-name="Trazado 157310" d="M306.335,280.125a.47.47,0,0,1-.47-.47v-3.6a.47.47,0,0,1,.941,0v3.6a.47.47,0,0,1-.47.47" transform="translate(-141.283 -127.294)" fill="#fff"/>
          <path id="Trazado_157311" data-name="Trazado 157311" d="M278.957,280.125a.47.47,0,0,1-.47-.47v-3.6a.47.47,0,0,1,.941,0v3.6a.47.47,0,0,1-.47.47" transform="translate(-128.637 -127.294)" fill="#fff"/>
          <path id="Trazado_157312" data-name="Trazado 157312" d="M251.579,280.125a.47.47,0,0,1-.47-.47v-3.6a.47.47,0,0,1,.941,0v3.6a.47.47,0,0,1-.47.47" transform="translate(-115.99 -127.294)" fill="#fff"/>
          <path id="Trazado_157313" data-name="Trazado 157313" d="M235.706,259.621a.47.47,0,0,1-.47-.47v-3.6a.47.47,0,1,1,.941,0v3.6a.47.47,0,0,1-.47.47" transform="translate(-108.659 -117.823)" fill="#fff"/>
          <path id="Trazado_157314" data-name="Trazado 157314" d="M263.456,259.621a.47.47,0,0,1-.47-.47v-3.6a.47.47,0,1,1,.941,0v3.6a.47.47,0,0,1-.47.47" transform="translate(-121.477 -117.823)" fill="#fff"/>
          <path id="Trazado_157315" data-name="Trazado 157315" d="M291.205,259.621a.47.47,0,0,1-.47-.47v-3.6a.47.47,0,1,1,.941,0v3.6a.47.47,0,0,1-.47.47" transform="translate(-134.294 -117.823)" fill="#fff"/>
          <path id="Trazado_157316" data-name="Trazado 157316" d="M318.955,259.621a.47.47,0,0,1-.47-.47v-3.6a.47.47,0,1,1,.941,0v3.6a.47.47,0,0,1-.47.47" transform="translate(-147.112 -117.823)" fill="#fff"/>
          <path id="Trazado_157317" data-name="Trazado 157317" d="M306.335,241.913a.47.47,0,0,1-.47-.47v-3.6a.47.47,0,1,1,.941,0v3.6a.47.47,0,0,1-.47.47" transform="translate(-141.283 -109.643)" fill="#fff"/>
          <path id="Trazado_157318" data-name="Trazado 157318" d="M278.957,241.913a.47.47,0,0,1-.47-.47v-3.6a.47.47,0,1,1,.941,0v3.6a.47.47,0,0,1-.47.47" transform="translate(-128.637 -109.643)" fill="#fff"/>
          <path id="Trazado_157319" data-name="Trazado 157319" d="M251.579,241.913a.47.47,0,0,1-.47-.47v-3.6a.47.47,0,0,1,.941,0v3.6a.47.47,0,0,1-.47.47" transform="translate(-115.99 -109.643)" fill="#fff"/>
          <path id="Trazado_157320" data-name="Trazado 157320" d="M263.456,221.409a.47.47,0,0,1-.47-.47v-3.6a.47.47,0,1,1,.941,0v3.6a.47.47,0,0,1-.47.47" transform="translate(-121.477 -100.172)" fill="#fff"/>
          <path id="Trazado_157321" data-name="Trazado 157321" d="M291.205,221.409a.47.47,0,0,1-.47-.47v-3.6a.47.47,0,1,1,.941,0v3.6a.47.47,0,0,1-.47.47" transform="translate(-134.294 -100.172)" fill="#fff"/>
          <path id="Trazado_157322" data-name="Trazado 157322" d="M306.335,203.7a.47.47,0,0,1-.47-.47v-3.6a.47.47,0,0,1,.941,0v3.6a.47.47,0,0,1-.47.47" transform="translate(-141.283 -91.993)" fill="#fff"/>
          <path id="Trazado_157323" data-name="Trazado 157323" d="M278.957,203.7a.47.47,0,0,1-.47-.47v-3.6a.47.47,0,0,1,.941,0v3.6a.47.47,0,0,1-.47.47" transform="translate(-128.637 -91.993)" fill="#fff"/>
          <path id="Trazado_157324" data-name="Trazado 157324" d="M251.579,203.7a.47.47,0,0,1-.47-.47v-3.6a.47.47,0,0,1,.941,0v3.6a.47.47,0,0,1-.47.47" transform="translate(-115.99 -91.993)" fill="#fff"/>
          <path id="Trazado_157325" data-name="Trazado 157325" d="M253.978,530.86a4.493,4.493,0,0,1-3.742,2.012H218.068a2.246,2.246,0,0,1-2.172-2.887c.01-.019.01-.038.019-.056.179-.527,3.385-2.727,7.24-5.19h.009s4.58,5.848,7.513,6.084c2.1.169,15.684.094,23.3.038" transform="translate(-99.677 -242.384)" fill="#2f3f4f"/>
          <path id="Trazado_157326" data-name="Trazado 157326" d="M355.528,536.729H329.942a4.044,4.044,0,0,1-3.62-2.322H343.21a17.786,17.786,0,0,1,3.47-4.072,8.68,8.68,0,0,1,5.172-2.276c3.019,2.934,5.783,5.623,5.83,5.726.009.019.009.038.019.056a2.246,2.246,0,0,1-2.172,2.887" transform="translate(-150.732 -243.917)" fill="#2f3f4f"/>
          <path id="Trazado_157327" data-name="Trazado 157327" d="M336.36,168.025c-1.651-6.827-4.812-13.423-7.61-19.832-3.3-7.557-6.761-15.043-10.291-22.494-1.783-3.763-3.167-7.725-5.924-10.931-5.015-5.832-12.944-8.381-21.862-8.626a138.734,138.734,0,0,0,3.946,17.109,78.328,78.328,0,0,0,7.332,15.688c1.516,3.1,3.182,6.126,4.8,9.17,3.842,7.242,7.71,14.694,12.63,21.278a25.331,25.331,0,0,0,2.136,2.564c7.216,7.388,17.568,7.327,14.847-3.926" transform="translate(-134.266 -49.029)" fill="#f9b3a2"/>
          <path id="Trazado_157328" data-name="Trazado 157328" d="M367.192,222.895l-5.952,2.351h-10.5s-.263-.63-.687-1.664c-.461-1.1-1.1-2.643-1.814-4.354-1.627-3.921-3.62-8.7-4.552-10.908-1.72-4.081-7.174-16.183-7.174-16.183l5.454-23.94s8.491,9.864,12.506,19.191c2.53,5.887,6.931,18.477,9.836,26.968.574,1.664,1.082,3.178,1.514,4.447.846,2.511,1.373,4.091,1.373,4.091" transform="translate(-155.438 -77.692)" fill="#f9b3a2"/>
          <path id="Trazado_157329" data-name="Trazado 157329" d="M387.1,349.053,378.428,299a2.176,2.176,0,0,1,1.77-2.513l11.7-2.027a2.174,2.174,0,0,1,2.513,1.771l8.674,50.052Zm5.167-53.214a.766.766,0,0,0-.131.011l-11.7,2.026a.766.766,0,0,0-.622.884l8.432,48.662,13.2-2.288-8.432-48.662a.766.766,0,0,0-.752-.633" transform="translate(-174.786 -136)" fill="#2f3f4f"/>
          <path id="Trazado_157330" data-name="Trazado 157330" d="M428.02,395.666,438.7,457.316l-38.913,6.743a3.3,3.3,0,0,1-3.8-2.681L383.7,390.464a3.3,3.3,0,0,1,2.681-3.8l23.163-4.014a15.984,15.984,0,0,1,18.48,13.021" transform="translate(-177.212 -176.639)" fill="#ffcfa6"/>
          <path id="Trazado_157331" data-name="Trazado 157331" d="M457.939,472.648l2.72,15.695a3.3,3.3,0,0,1-2.681,3.8l-36.133,6.261-6-34.6,23.718-4.11a15.771,15.771,0,0,1,7.654.554c.243.082.5.162.733.264a.009.009,0,0,1,.011.008,15.857,15.857,0,0,1,9.973,12.119" transform="translate(-192.086 -212.234)" fill="#ffcfa6"/>
          <path id="Trazado_157332" data-name="Trazado 157332" d="M415.438,536.25a2.743,2.743,0,1,1-3.17-2.234,2.742,2.742,0,0,1,3.17,2.234" transform="translate(-189.381 -246.65)" fill="#2f3f4f"/>
          <path id="Trazado_157333" data-name="Trazado 157333" d="M494.93,522.475a2.743,2.743,0,1,1-3.17-2.234,2.742,2.742,0,0,1,3.17,2.234" transform="translate(-226.099 -240.287)" fill="#2f3f4f"/>
          <rect id="Rect치ngulo_41943" data-name="Rect치ngulo 41943" width="0.94" height="78.553" transform="translate(215.882 208.856) rotate(-9.831)" fill="#2f3f4f"/>
          <path id="Trazado_157334" data-name="Trazado 157334" d="M447.532,461.787l-31.269,5.419a.47.47,0,1,1-.16-.927l31.269-5.419a.47.47,0,0,1,.161.927" transform="translate(-192.023 -212.874)" fill="#2f3f4f"/>
          <path id="Trazado_157335" data-name="Trazado 157335" d="M392.274,296.3l-10.191,1.766a1.881,1.881,0,0,1-2.174-1.532l-.088-.506a1.88,1.88,0,0,1,1.532-2.174l10.192-1.766a1.88,1.88,0,0,1,2.174,1.532l.088.506a1.88,1.88,0,0,1-1.532,2.174" transform="translate(-175.431 -134.904)" fill="#2f3f4f"/>
          <path id="Trazado_157336" data-name="Trazado 157336" d="M389.435,280.268a4.521,4.521,0,0,1-.075,1.006,3.769,3.769,0,0,1-.216.79,3.071,3.071,0,0,1-1.382,1.486,5.958,5.958,0,0,1-.856.414c-.1.047-.207.085-.31.122a18.977,18.977,0,0,1-1.928.592,6.19,6.19,0,0,1-.94.188,4.738,4.738,0,0,1-3.442-.517c-1.871-1.26-8.435-8.312-10.08-9.488s-3.761-6.028-3.761-6.028l6.112-6.271,8.087,3.065c.677.7,1.316,1.448,1.937,2.191a40.079,40.079,0,0,1,5.567,8.153,15.142,15.142,0,0,1,1.044,2.7,7.767,7.767,0,0,1,.244,1.6" transform="translate(-169.266 -121.281)" fill="#f9b3a2"/>
          <path id="Trazado_157337" data-name="Trazado 157337" d="M375.885,258.429l-15.769,4.777c-.461-1.1-1.1-2.642-1.814-4.354l16.07-4.871c.573,1.664,1.081,3.178,1.514,4.448" transform="translate(-165.504 -117.317)" fill="#2f3f4f"/>
          <path id="Trazado_157338" data-name="Trazado 157338" d="M377.552,259.044a3.166,3.166,0,1,0-3.166,3.166,3.166,3.166,0,0,0,3.166-3.166" transform="translate(-171.471 -118.193)" fill="#fff"/>
          <path id="Trazado_157339" data-name="Trazado 157339" d="M394.405,294.513a6.186,6.186,0,0,1-.94.188c-.339-.913-.865-2.22-1.665-3.884a28.138,28.138,0,0,0-4.146-6.168.474.474,0,0,1,.019-.668.467.467,0,0,1,.668.028,27.915,27.915,0,0,1,4.306,6.4c.846,1.777,1.4,3.15,1.758,4.1" transform="translate(-179.003 -131.116)" fill="#362e4d"/>
          <path id="Trazado_157340" data-name="Trazado 157340" d="M400.645,292.763a6.024,6.024,0,0,1-.856.414c-.329-.9-.856-2.163-1.608-3.742a37.2,37.2,0,0,0-3.742-6.169.466.466,0,1,1,.733-.574,36.266,36.266,0,0,1,3.855,6.338c.752,1.57,1.269,2.821,1.617,3.733" transform="translate(-182.149 -130.495)" fill="#362e4d"/>
          <path id="Trazado_157341" data-name="Trazado 157341" d="M404.719,288.794a4.521,4.521,0,0,1-.075,1.006c-.235-.546-.507-1.157-.828-1.824a27.612,27.612,0,0,0-4.156-6.169.455.455,0,0,1,.028-.658.462.462,0,0,1,.658.019,28.606,28.606,0,0,1,4.128,6.027,7.767,7.767,0,0,1,.244,1.6" transform="translate(-184.549 -129.807)" fill="#362e4d"/>
          <path id="Trazado_157342" data-name="Trazado 157342" d="M379.02,291.65a.469.469,0,0,1-.3-.1l-3.879-3.152a.47.47,0,1,1,.594-.73l3.878,3.152a.47.47,0,0,1-.3.835" transform="translate(-173.066 -132.827)" fill="#362e4d"/>
          <path id="Trazado_157343" data-name="Trazado 157343" d="M264.793,104.391s.387,4.084,5.68,4.319,8.246-4.319,8.246-4.319l-5.068-2.04Z" transform="translate(-122.311 -47.277)" fill="#f9b3a2"/>
          <path id="Trazado_157344" data-name="Trazado 157344" d="M282.261,71.333,278.744,76.3l-3.54-.527a24.748,24.748,0,0,0-1.587,8.306c.108,2.2.15,3.955.414,6.134a13.371,13.371,0,0,1-1.331,6.575c-.8,1.976-2.02,4.075-1.932,6.27.1,2.526,1.087,4.939,1.083,7.475a13.421,13.421,0,0,1-.816,4.2,23.016,23.016,0,0,0-1.115,3.187c-.163.926-.2,1.889-.28,2.836h7.716a20.824,20.824,0,0,1,.22-3.049c.382-2.078,1.153-4.065,1.451-6.178.331-2.35-1.373-7.522-1.432-9.462s.94-5.191,2.879-8.776,1.326-8.56,1.133-12.792a50.354,50.354,0,0,1,.654-9.161" transform="translate(-124.55 -32.95)" fill="#a66353"/>
          <path id="Trazado_157345" data-name="Trazado 157345" d="M279.3,70.543a3.654,3.654,0,1,1-3.651-3.8,3.728,3.728,0,0,1,3.651,3.8" transform="translate(-125.638 -30.829)" fill="#f9b3a2"/>
          <path id="Trazado_157346" data-name="Trazado 157346" d="M289.047,46.773a2.116,2.116,0,1,0-2.116,2.116,2.116,2.116,0,0,0,2.116-2.116" transform="translate(-131.56 -20.628)" fill="#a66353"/>
          <path id="Trazado_157347" data-name="Trazado 157347" d="M278.613,78.9l-.877,6.752a.392.392,0,0,0,.389.442h2.137a.392.392,0,0,0,.386-.464l-1.261-6.752a.392.392,0,0,0-.774.022" transform="translate(-128.288 -36.287)" fill="#fff"/>
          <path id="Trazado_157348" data-name="Trazado 157348" d="M176.583,140.512a.47.47,0,0,1-.265-.859l23.084-15.68a.47.47,0,0,1,.528.778l-23.083,15.68a.469.469,0,0,1-.264.081" transform="translate(-81.348 -57.227)" fill="#362e4d"/>
          <path id="Trazado_157349" data-name="Trazado 157349" d="M154.055,191.121a.477.477,0,0,1-.21-.05.471.471,0,0,1-.21-.631l3.2-6.395a.471.471,0,0,1,.842.421l-3.2,6.395a.471.471,0,0,1-.421.259" transform="translate(-70.943 -84.893)" fill="#362e4d"/>
          <path id="Trazado_157350" data-name="Trazado 157350" d="M81.32,81.267a.47.47,0,0,1-.083-.933,87.189,87.189,0,0,1,9.752-1.139,39.945,39.945,0,0,1,9.326.575.47.47,0,0,1-.2.92,40.282,40.282,0,0,0-9.089-.556A86.094,86.094,0,0,0,81.4,81.259a.452.452,0,0,1-.084.008" transform="translate(-37.346 -36.559)" fill="#2f3f4f"/>
          <path id="Trazado_157351" data-name="Trazado 157351" d="M109.245,70.215v5.209a.47.47,0,0,1-.941,0v-5.35c.329.038.649.094.941.141" transform="translate(-50.027 -32.368)" fill="#2f3f4f"/>
          <path id="Trazado_157352" data-name="Trazado 157352" d="M100.385,69.637v5.585a.471.471,0,0,1-.47.47.466.466,0,0,1-.47-.47V69.656c.31-.01.63-.019.941-.019" transform="translate(-45.934 -32.166)" fill="#2f3f4f"/>
          <path id="Trazado_157353" data-name="Trazado 157353" d="M91.525,70.406v5.172a.471.471,0,0,1-.47.47.465.465,0,0,1-.47-.47V70.622a9.217,9.217,0,0,1,.94-.216" transform="translate(-41.842 -32.521)" fill="#2f3f4f"/>
          <path id="Trazado_157354" data-name="Trazado 157354" d="M339.314,138.737a.471.471,0,0,1-.436-.294c-.008-.02-.84-2.071-3.6-8.006a44.12,44.12,0,0,0-4.743-8.371.47.47,0,0,1,.728-.6,43.923,43.923,0,0,1,4.868,8.57c2.773,5.965,3.61,8.03,3.619,8.05a.471.471,0,0,1-.26.612.482.482,0,0,1-.176.034" transform="translate(-152.63 -56.029)" fill="#2f3f4f"/>
          <path id="Trazado_157355" data-name="Trazado 157355" d="M224.157,174.778a.47.47,0,0,1-.27-.856l6.1-4.257a.47.47,0,0,1,.538.771l-6.1,4.257a.469.469,0,0,1-.268.084" transform="translate(-103.324 -78.332)" fill="#362e4d"/>
          <path id="Trazado_157356" data-name="Trazado 157356" d="M278.452,213.7H245.463a.47.47,0,1,1,0-.94h32.989a.47.47,0,1,1,0,.94" transform="translate(-113.165 -98.276)" fill="#362e4d"/>
          <path id="Trazado_157357" data-name="Trazado 157357" d="M231.983,329.239a.471.471,0,0,1-.461-.377l-5.451-26.837a.471.471,0,0,1,.922-.187l5.451,26.837a.47.47,0,0,1-.367.555.517.517,0,0,1-.094.009" transform="translate(-104.421 -139.25)" fill="#362e4d"/>
          <path id="Trazado_157358" data-name="Trazado 157358" d="M120.732,290.755a.47.47,0,0,1-.47-.47V273.808a.47.47,0,1,1,.941,0v16.477a.47.47,0,0,1-.47.47" transform="translate(-55.551 -126.258)" fill="#362e4d"/>
          <path id="Trazado_157359" data-name="Trazado 157359" d="M118.332,200.538a2,2,0,1,1,2-2,2,2,0,0,1-2,2m0-3.056a1.058,1.058,0,1,0,1.058,1.058,1.059,1.059,0,0,0-1.058-1.058" transform="translate(-53.736 -90.785)" fill="#362e4d"/>
        </g>
      </g>
    </g>
  </g>
</svg>
