<svg xmlns="http://www.w3.org/2000/svg" xmlns:xlink="http://www.w3.org/1999/xlink" width="105" height="105" viewBox="0 0 105 105">
  <defs>
    <clipPath id="clip-path">
      <rect id="Rectángulo_41945" data-name="Rectángulo 41945" width="63.906" height="71.019" fill="none"/>
    </clipPath>
  </defs>
  <g id="_93" data-name="93" transform="translate(-4693 4891)">
    <path id="Trazado_160852" data-name="Trazado 160852" d="M52.5,0A52.5,52.5,0,1,1,0,52.5,52.5,52.5,0,0,1,52.5,0Z" transform="translate(4693 -4891)" fill="#a6bbff"/>
    <g id="Grupo_167949" data-name="Grupo 167949" transform="translate(4713.504 -4873.771)">
      <g id="Grupo_167948" data-name="Grupo 167948" clip-path="url(#clip-path)">
        <path id="Trazado_157360" data-name="Trazado 157360" d="M.74,71.019A1.778,1.778,0,0,1,0,69.309c.246-6.234,3.37-10.593,8.775-13.423a65.77,65.77,0,0,1,12.071-4.552,1.343,1.343,0,0,0,1.036-1.012,17.708,17.708,0,0,0,.812-7.175,1.037,1.037,0,0,0-.389-.759c-.673-.564-1.3-1.186-1.989-1.728a6.238,6.238,0,0,1-2.556-5.612c.04-.576-.075-.877-.711-1.074a5.859,5.859,0,0,1-.569-10.92c.629-.266.556-.49.344-.974a17.045,17.045,0,0,1-1.634-7.306,9.313,9.313,0,0,1,4.92-8.351A1.673,1.673,0,0,0,20.643,6C24.845.533,30.35-1.01,36.9.609a24.714,24.714,0,0,1,3.206,1.085,1.8,1.8,0,0,1,1.307,1.618,1.767,1.767,0,0,1-1.14,1.8c-.1.049-.2.116-.307.181.138.275.419.274.631.368a18.738,18.738,0,0,1,4.155,2.462,9.649,9.649,0,0,1,3.8,8.558,16.657,16.657,0,0,1-1.224,5.721c-.165.386-.1.534.267.726a5.889,5.889,0,0,1-.936,10.926c-.436.132-.55.308-.516.712a6.548,6.548,0,0,1-2.819,6.12c-.443.331-.806.775-1.264,1.08a2.161,2.161,0,0,0-.935,1.935,18.9,18.9,0,0,0,.912,6.481,1.244,1.244,0,0,0,.946.926,72.5,72.5,0,0,1,11.963,4.462,15.677,15.677,0,0,1,8.4,9.707,15.141,15.141,0,0,1,.558,4.244,1.627,1.627,0,0,1-.743,1.294Z" transform="translate(0 0)"/>
        <path id="Trazado_157361" data-name="Trazado 157361" d="M63.316,161.132c-2.982.007-5.964.007-8.945.03-.429,0-.5-.176-.483-.537.021-.6.021-1.2,0-1.8a1.178,1.178,0,1,0-2.351.025c-.014.624-.028,1.25,0,1.873.024.482-.273.441-.58.433s-.672.1-.647-.444c.029-.623.013-1.248,0-1.872a2.256,2.256,0,0,0-1.9-2.371c-.406-.079-.49-.235-.465-.583a4.856,4.856,0,0,0,0-.693,1.113,1.113,0,0,0-1.087-1.123,1.176,1.176,0,0,0-1.239.978,2.571,2.571,0,0,0-.027.69c.037.455-.027.715-.611.71s-.548-.31-.548-.7c0-.991-.3-1.525-.914-1.661a1.149,1.149,0,0,0-1.434,1.03,4.94,4.94,0,0,0-.01.762c.019.339-.04.51-.457.59a2.245,2.245,0,0,0-1.908,2.363c-.01.6-.019,1.2,0,1.8.013.374-.088.531-.5.53q-8.981-.017-17.962,0c-.379,0-.542-.092-.521-.5.03-.577.013-1.156.005-1.734a1.189,1.189,0,1,0-2.356.025c-.008.532-.033,1.066.008,1.595.037.489-.129.622-.616.619-2.843-.023-5.687-.011-8.53-.011-.67,0-1.344-.043-2.01.012-.613.051-.668-.215-.6-.722a12.921,12.921,0,0,1,3.576-7.192c1.863-2.037,4.3-3.079,6.742-4.114a84.522,84.522,0,0,1,8.614-3.024.788.788,0,0,1,1.032.354q3.664,5.092,7.368,10.156c.876,1.2,1.912,1.6,3.025,1.168a3.192,3.192,0,0,0,1.371-1.233c2.43-3.347,4.874-6.684,7.285-10.045a.866.866,0,0,1,1.146-.382c1.829.568,3.652,1.154,5.442,1.835.467.177.921.389,1.381.585a14.864,14.864,0,0,1,9.305,9.368,13.265,13.265,0,0,1,.536,2.637.579.579,0,0,1-.138.576" transform="translate(-4.187 -92.495)" fill="#009587"/>
        <path id="Trazado_157362" data-name="Trazado 157362" d="M71.1,59.978l-.591.443a2.767,2.767,0,0,1-1.729.791c-.557.087-.732.358-.7.887s0,1.062.01,1.593a4.485,4.485,0,0,1-1.409,3.416c-1.472,1.467-3.1,2.759-4.643,4.147a11.123,11.123,0,0,1-2.035,1.652c-1.223.006-2.447.036-3.67.007a3.136,3.136,0,0,1-1.993-.865q-3.237-2.824-6.464-5.66A3.433,3.433,0,0,1,46.657,63.7q0-1.075,0-2.149c0-1.209-.32-1.541-1.532-1.657A3.524,3.524,0,0,1,42.6,54.3a3.139,3.139,0,0,1,1.689-1.221c0,.692-.009,1.309,0,1.927.015.834.458,1.355,1.147,1.37s1.2-.54,1.215-1.39c.022-1.432-.032-2.868.054-4.3a10.59,10.59,0,0,1,1.305-4.831,3.116,3.116,0,0,1,4.035-1.432c.715.257,1.439.5,2.137.791,1.081.458,2.162.923,3.211,1.447a16.074,16.074,0,0,0,8.236,1.708c.483-.028.968-.016,1.452-.023a3.153,3.153,0,0,1,.968,2.323.322.322,0,0,1-.309.38,3.9,3.9,0,0,0-2.2-.425c-.969.022-1.939,0-2.909.006a2.6,2.6,0,0,0-.689.05,1,1,0,0,0-.845.963.952.952,0,0,0,.942.925c.644.06,1.292.018,1.939.022.762,0,1.525-.025,2.286.009A1.476,1.476,0,0,0,67.81,51.8a2.028,2.028,0,0,1,2.461.441c.012.892.032,1.784.033,2.675a1.3,1.3,0,0,0,.734,1.352,1.2,1.2,0,0,0,1.465-.415c.264,0,.26.216.29.385A4.182,4.182,0,0,1,71.1,59.978" transform="translate(-26.53 -27.981)" fill="#fedfb1"/>
        <path id="Trazado_157363" data-name="Trazado 157363" d="M73.821,22.118c-.9-.612-1.857-.169-2.763-.089a15.433,15.433,0,0,1-8.626-1.321,51.075,51.075,0,0,0-5.47-2.325c-3.445-1.275-6.149.15-7.66,3.337-.233.492-.4,1.017-.668,1.722-.8-3.227-1.26-6.212.788-8.974a6.544,6.544,0,0,1,2.435-2.008,2.625,2.625,0,0,0,1.023-.894,11.437,11.437,0,0,1,11.192-5.03,9.452,9.452,0,0,1,2.828.577c.364.465.348.722-.132,1.067a8.359,8.359,0,0,0-1.143.9c-.53.543-.5.87.2,1.117a25.453,25.453,0,0,1,3.118,1.492,10.572,10.572,0,0,1,4.34,3.968A6.669,6.669,0,0,1,74.3,19.349c-.02.693.019,1.387-.016,2.079-.015.3.042.693-.458.689" transform="translate(-30.37 -4.088)" fill="#90562d"/>
        <path id="Trazado_157364" data-name="Trazado 157364" d="M75.833,134.133a18.946,18.946,0,0,1-7.417-.37.791.791,0,0,1-.477-.36c-.88-1.215-1.757-2.433-2.648-3.639a.615.615,0,0,1-.117-.638,20.364,20.364,0,0,0,1.237-6.675c.375.325.682.585.983.853a5.867,5.867,0,0,0,4.028,1.571c1.225,0,2.449-.01,3.674,0a6.786,6.786,0,0,0,2.539-.589c.366-.007.3.3.327.5A21.915,21.915,0,0,0,79.05,129a1.2,1.2,0,0,1-.127,1.181c-.839,1.215-1.741,2.385-2.593,3.59a1.535,1.535,0,0,1-.5.366" transform="translate(-41.247 -77.55)" fill="#fedfb1"/>
        <path id="Trazado_157365" data-name="Trazado 157365" d="M103.254,23.252a.416.416,0,0,0,.278-.368,15.8,15.8,0,0,0-.255-4.4,9.222,9.222,0,0,0-3.667-4.71,19.859,19.859,0,0,0-4.477-2.3c-.832-.327-.9-.545-.353-1.221a3.683,3.683,0,0,1,1.212-1c.456-.23.6-.548.34-1.012a1.3,1.3,0,0,1,.344.019c.414.138,1.014.18,1.187.47.234.394-.4.6-.63.913a1.756,1.756,0,0,0,.756,2.837,24.291,24.291,0,0,1,3.7,1.715,9.142,9.142,0,0,1,3.756,3.95,5.273,5.273,0,0,1,.481,2.072,17.741,17.741,0,0,1-.443,5.011,4.3,4.3,0,0,1-.165.407,7.4,7.4,0,0,0-2.06-2.391" transform="translate(-59.802 -5.223)" fill="#6d4122"/>
        <path id="Trazado_157366" data-name="Trazado 157366" d="M91.293,100.955c.978-1.074,2.153-1.93,3.213-2.914a49.628,49.628,0,0,0,3.665-3.354,3.936,3.936,0,0,0,1.03-2.716c0-.3,0-.6,0-.9a4.5,4.5,0,0,1,.056-1.644c.227-.523.981-.274,1.461-.509.349-.171.719-.3,1.08-.448a3.984,3.984,0,0,0-.188,2.181A4.863,4.863,0,0,1,99.55,95.2c-1.911,1.523-3.7,3.2-5.54,4.812a3.376,3.376,0,0,1-2.717.947" transform="translate(-57.817 -56.028)" fill="#dec39b"/>
        <path id="Trazado_157367" data-name="Trazado 157367" d="M144.492,165.451a13.042,13.042,0,0,0-2.675-7.187,14.776,14.776,0,0,0-5.876-4.775c-.4-.18-.768-.411-1.152-.619a11.314,11.314,0,0,1,2.634.975,15.5,15.5,0,0,1,7.323,5.552,12.5,12.5,0,0,1,2.1,5.562c.051.4-.088.541-.488.521-.621-.03-1.244-.021-1.866-.028" transform="translate(-85.363 -96.814)" fill="#00695c"/>
        <path id="Trazado_157368" data-name="Trazado 157368" d="M94.319,134.141q1.471-2.035,2.946-4.069a.786.786,0,0,0,.169-.821,21.393,21.393,0,0,1-1.224-4.854c0-.037-.058-.068-.089-.1a14.793,14.793,0,0,0,2.347-1.831,22.334,22.334,0,0,0,.708,5,2.344,2.344,0,0,0,.152.53,2.145,2.145,0,0,1-.438,2.775,15.96,15.96,0,0,0-1.594,2.178,1.87,1.87,0,0,1-1.477.973,13.318,13.318,0,0,1-1.5.216" transform="translate(-59.733 -77.558)" fill="#dec39b"/>
        <path id="Trazado_157369" data-name="Trazado 157369" d="M106.2,180.645c.808,0,1.616.018,2.423-.008.365-.012.491.1.46.463-.052.615.246,1.407-.117,1.8-.338.367-1.135.1-1.729.1-1.2.016-2.4-.009-3.6.013-.366.007-.489-.1-.459-.465.051-.615-.248-1.406.116-1.8.339-.366,1.135-.082,1.729-.106.392-.016.785,0,1.177,0" transform="translate(-65.299 -114.353)" fill="#f4f4f4"/>
        <path id="Trazado_157370" data-name="Trazado 157370" d="M121.554,75.545a4.842,4.842,0,0,0,1.528-3.682c-.01-.158.019-.325-.128-.443a10.957,10.957,0,0,0,.2-2.66,3.083,3.083,0,0,1,2.291,2.559,3.5,3.5,0,0,1-3.207,4.151c-.228.02-.456.049-.684.074" transform="translate(-76.981 -43.547)" fill="#dec39b"/>
        <path id="Trazado_157371" data-name="Trazado 157371" d="M84.975,160.85c-.969,1.338-1.845,2.551-2.726,3.76-.114.156-.215.4-.446.081-.9-1.25-1.807-2.491-2.781-3.832a23.8,23.8,0,0,0,5.954-.009" transform="translate(-50.045 -101.868)" fill="#f4f4f4"/>
        <path id="Trazado_157372" data-name="Trazado 157372" d="M111.286,57.857c.321-.607-.084-1.123-.231-1.661a5.749,5.749,0,0,0-.468-.977,10.54,10.54,0,0,1,1.506-.186c.316-.061.468.157.633.338a4.479,4.479,0,0,1,1.051,3.736c-.761-.232-1.462-.8-2.333-.413a.716.716,0,0,1-.159-.838" transform="translate(-70.036 -34.846)" fill="#dec39b"/>
        <path id="Trazado_157373" data-name="Trazado 157373" d="M64.873,63.622c-.761,0-1.522.014-2.282,0a1.177,1.177,0,1,1-.034-2.352c1.568-.023,3.136-.025,4.7,0a1.174,1.174,0,1,1-.035,2.348c-.784.019-1.568,0-2.352,0" transform="translate(-38.857 -38.79)"/>
        <path id="Trazado_157374" data-name="Trazado 157374" d="M100.522,61.807a2.029,2.029,0,0,1,.159.838,1.236,1.236,0,0,1-1.373.99c-1.451-.017-2.9,0-4.352-.008-.828,0-1.345-.447-1.364-1.14a1.222,1.222,0,0,1,1.37-1.219c1.451-.01,2.9.006,4.352-.008a1.489,1.489,0,0,1,1.209.547" transform="translate(-59.272 -38.796)"/>
        <path id="Trazado_157375" data-name="Trazado 157375" d="M81.026,102.416c-.737,0-1.475.012-2.212,0a1.224,1.224,0,0,1-1.357-1.166c-.016-.712.519-1.191,1.383-1.2q2.178-.018,4.355,0c.831.008,1.344.462,1.357,1.153.013.712-.525,1.184-1.383,1.214H81.026" transform="translate(-49.054 -63.356)" fill="#010100"/>
        <path id="Trazado_157376" data-name="Trazado 157376" d="M66.93,71.016c.392,0,.784-.01,1.176,0a1.075,1.075,0,0,1,1.126.921,1.064,1.064,0,0,1-.715,1.324.788.788,0,0,0-.528.544,1.162,1.162,0,0,1-2.171-.045.668.668,0,0,0-.481-.486,1.078,1.078,0,0,1-.758-1.3,1.106,1.106,0,0,1,1.175-.958c.392,0,.784,0,1.176,0Z" transform="translate(-40.882 -44.973)"/>
        <path id="Trazado_157377" data-name="Trazado 157377" d="M99.249,71.022c.415,0,.831-.022,1.245,0a1.088,1.088,0,0,1,1.067,1,1.064,1.064,0,0,1-.688,1.223.824.824,0,0,0-.584.563,1.031,1.031,0,0,1-1.065.724,1.045,1.045,0,0,1-1.076-.707.865.865,0,0,0-.582-.579,1.159,1.159,0,0,1,.369-2.218c.436-.028.876-.006,1.313-.006" transform="translate(-61.347 -44.973)"/>
        <path id="Trazado_157378" data-name="Trazado 157378" d="M83.015,112.043c-.391,0-.783.018-1.173,0a1.171,1.171,0,0,1-.048-2.338,23.974,23.974,0,0,1,2.551,0,1.17,1.17,0,0,1-.089,2.336c-.413.021-.828,0-1.242,0" transform="translate(-51.109 -69.454)" fill="#010000"/>
        <path id="Trazado_157379" data-name="Trazado 157379" d="M83.1,89.451c-.439,0-.88.03-1.316-.007a1.124,1.124,0,0,1-1.08-1.135,1.105,1.105,0,0,1,1.038-1.174,20.5,20.5,0,0,1,2.63,0A1.107,1.107,0,0,1,85.418,88.3a1.142,1.142,0,0,1-1.141,1.153c-.391.029-.785.005-1.178.005v-.007" transform="translate(-51.11 -55.156)" fill="#010101"/>
      </g>
    </g>
  </g>
</svg>
