<svg id="Grupo_167100" data-name="Grupo 167100" xmlns="http://www.w3.org/2000/svg" xmlns:xlink="http://www.w3.org/1999/xlink" width="90" height="90" viewBox="0 0 90 90">
  <defs>
    <clipPath id="clip-path">
      <rect id="Rect치ngulo_41970" data-name="Rect치ngulo 41970" width="52.03" height="66.328" fill="none"/>
    </clipPath>
    <clipPath id="clip-path-3">
      <rect id="Rect치ngulo_41968" data-name="Rect치ngulo 41968" width="4.6" height="3.011" fill="none"/>
    </clipPath>
  </defs>
  <circle id="Elipse_4781" data-name="Elipse 4781" cx="45" cy="45" r="45" fill="#c4d1ff"/>
  <g id="Grupo_167990" data-name="Grupo 167990" transform="translate(15 11.672)">
    <g id="Grupo_167995" data-name="Grupo 167995" clip-path="url(#clip-path)">
      <g id="Grupo_167994" data-name="Grupo 167994" transform="translate(0)">
        <g id="Grupo_167993" data-name="Grupo 167993" clip-path="url(#clip-path)">
          <path id="Trazado_157693" data-name="Trazado 157693" d="M12.27,34.587S4.178,36.728,4,29.377a6.256,6.256,0,0,1-3.9-7.013C.744,18.543,4.729,19.2,4.729,19.2s-3.7-6.993,2.031-8.972c0,0-2.609-5.591,1.244-7.764s8.151,2.256,8.151,2.256S16.113-.137,20.572,0s5.767,5.445,5.767,5.445S29.393.82,33.152,2.558s3.779,7.157,3.779,7.157,5.459-1.6,9.343,2.567a4.964,4.964,0,0,1-.238,7.55s5.066.959,5.91,4.162-5,4.619-5,4.619,2.607,4.987-1.4,7.006-8.464.118-8.464.118Z" transform="translate(0.001 0)" fill="#36251f"/>
          <path id="Trazado_157694" data-name="Trazado 157694" d="M9.955,58.263l.758,5.579a16.458,16.458,0,0,0,2.038,1.132c9.869,4.585,18.686-3.946,18.686-3.946L30.176,48.516,12.2,56.286Z" transform="translate(10.638 0)" fill="#b5591d"/>
          <path id="Trazado_157695" data-name="Trazado 157695" d="M16.9,58.263l.758,5.579A16.457,16.457,0,0,0,19.7,64.974c7.287-4.314,11.739-13.733,11.739-13.733L19.151,56.286Z" transform="translate(3.691 0)" fill="#36251f"/>
          <path id="Trazado_157696" data-name="Trazado 157696" d="M44.553,38.329s-3.446-3.105-4.648.631,1.053,10.663,5.414,8.887Z" transform="translate(-32.873 0)" fill="#8f2d00"/>
          <path id="Trazado_157697" data-name="Trazado 157697" d="M13.335,48.647s1.729,10.862,12.97,9.311a29.713,29.713,0,0,0,17.912-9.442l.011-.012-.187-2.289-.966-11.878-.515-6.35s-.114-11.543-11.18-12.148c-8.086-.443-15.3,1.869-18.469,6.487-.1.149-.2.3-.292.455a9.783,9.783,0,0,0-1.4,5.574L12.4,39.724l.291,2.786Z" transform="translate(-3.404 0)" fill="#b5591d"/>
          <path id="Trazado_157698" data-name="Trazado 157698" d="M36.995,41.889s-.317,4.955-3.91,6.609c-4.088,1.883-6.344-3.256-6.344-3.256Z" transform="translate(-11.706 0)" fill="#f4ece1"/>
          <path id="Trazado_157699" data-name="Trazado 157699" d="M29.782,50.52a2.658,2.658,0,0,1-.275-.022.361.361,0,0,1,.111-.714A2.312,2.312,0,0,0,31.74,48.9a.362.362,0,0,1,.586.424,2.985,2.985,0,0,1-2.544,1.2" transform="translate(-9.567 0)" fill="#8f2d00"/>
          <path id="Trazado_157700" data-name="Trazado 157700" d="M26.469,34.67c.147,1.081.756,1.891,1.361,1.808s.976-1.025.829-2.105S27.9,32.482,27.3,32.564s-.976,1.025-.829,2.106" transform="translate(-3.098 0)" fill="#36251f"/>
          <path id="Trazado_157701" data-name="Trazado 157701" d="M37.163,36.122c.148,1.081.757,1.891,1.361,1.809s.977-1.025.83-2.106-.756-1.891-1.36-1.809-.977,1.025-.831,2.106" transform="translate(-24.487 0)" fill="#36251f"/>
          <path id="Trazado_157702" data-name="Trazado 157702" d="M36.608,40.922a3.835,3.835,0,0,1-3.822-1.435.451.451,0,0,1-.049-.383c1.3-3.969,2.613-8.045,2.626-8.086a.449.449,0,1,1,.854.275c-.013.04-1.275,3.964-2.553,7.863a3.081,3.081,0,0,0,2.823.877.449.449,0,1,1,.121.889" transform="translate(-17.682 0)" fill="#36251f"/>
          <path id="Trazado_157703" data-name="Trazado 157703" d="M28.183,20.844a2.635,2.635,0,0,1,2.786,1.794,4.259,4.259,0,0,0,2.552,2.527c3.757,1.727,3.547,4.83,3.1,7.443s5.188,6.559,7.408-.082S41.639,13.152,32.331,13.78s-21.093,5.277-21.547,9.588a21.054,21.054,0,0,0,.663,7.8,4.966,4.966,0,0,0,.845-4.08c-.474-2.6,1.2-3.884,4.2-4.709a108.62,108.62,0,0,1,11.695-1.533" transform="translate(-3.223 0)" fill="#36251f"/>
          <g id="Grupo_167992" data-name="Grupo 167992" transform="translate(8.999 39.499)" opacity="0.8">
            <g id="Grupo_167991" data-name="Grupo 167991">
              <g id="Grupo_167990-2" data-name="Grupo 167990" clip-path="url(#clip-path-3)">
                <path id="Trazado_157704" data-name="Trazado 157704" d="M38.723,42.51c.283-.01.578-.036.878-.076,2-.272,3.532-1.131,3.425-1.918s-1.814-1.205-3.812-.934c-.271.037-.532.085-.782.142Z" transform="translate(-38.431 -39.499)" fill="#8f2d00"/>
              </g>
            </g>
          </g>
          <path id="Trazado_157705" data-name="Trazado 157705" d="M20.934,39.123c.107.787,1.815,1.205,3.814.934s3.534-1.13,3.428-1.917-1.815-1.205-3.815-.934-3.534,1.13-3.427,1.917" transform="translate(2.92 0)" fill="#8f2d00"/>
          <path id="Trazado_157706" data-name="Trazado 157706" d="M31.459,28.4h0a2.566,2.566,0,0,1-3.146,1.742,14.3,14.3,0,0,0-2.66-.49A2.358,2.358,0,0,1,23.493,27s5.17-1.191,7.966,1.406" transform="translate(-2.901 0)" fill="#36251f"/>
          <path id="Trazado_157707" data-name="Trazado 157707" d="M36.315,31.165h0a2.566,2.566,0,0,0,3.5.84,14.292,14.292,0,0,1,2.432-1.181,2.358,2.358,0,0,0,1.373-3.139s-5.3.231-7.3,3.48" transform="translate(-28.091 0)" fill="#36251f"/>
          <path id="Trazado_157708" data-name="Trazado 157708" d="M11.207,44.607c.067.113,1.938,3.22,4.116,3.909l.009-.013-.186-2.288a7.84,7.84,0,0,1-3.939-1.608" transform="translate(25.491 0)" fill="#36251f"/>
          <path id="Trazado_157709" data-name="Trazado 157709" d="M5.9,36.831s3.534-6.393,7.32-2.26c3.12,3.405-.483,13.872-6.1,11.217Z" transform="translate(31.759 0)" fill="#b5591d"/>
          <path id="Trazado_157710" data-name="Trazado 157710" d="M9.194,43.959l-.049,0a.448.448,0,0,1-.46-.437,8.4,8.4,0,0,1,3.959-7.38.449.449,0,0,1,.442.782,7.5,7.5,0,0,0-3.5,6.575.449.449,0,0,1-.388.456" transform="translate(30.034 0)" fill="#36251f"/>
          <path id="Trazado_157711" data-name="Trazado 157711" d="M11.987,40.7a.456.456,0,0,1-.294-.061,3.516,3.516,0,0,0-2.446-.572.449.449,0,0,1-.338-.832c1.289-.523,3.055.517,3.252.637a.449.449,0,0,1-.174.828" transform="translate(31.025 0)" fill="#36251f"/>
        </g>
      </g>
    </g>
  </g>
</svg>
