<svg xmlns="http://www.w3.org/2000/svg" width="437.597" height="432.001" viewBox="0 0 437.597 432.001">
  <g id="Grupo_169454" data-name="Grupo 169454" transform="translate(-938.389 -124.522)">
    <g id="Grupo_81064" data-name="Grupo 81064" transform="matrix(-0.208, 0.978, -0.978, -0.208, 1040.583, 252.005)">
      <g id="Grupo_81059" data-name="Grupo 81059" transform="translate(0 0)">
        <g id="Grupo_81053" data-name="Grupo 81053" transform="translate(1.85 0)" style="mix-blend-mode: overlay;isolation: isolate">
          <path id="Trazado_114995" data-name="Trazado 114995" d="M39.977,41.98l6.4-26.093L0,0Z" transform="translate(0.78 0.78)" fill="#3c384f"/>
          <path id="Trazado_114996" data-name="Trazado 114996" d="M.781,0A.78.78,0,0,0,.216,1.318L40.192,43.3a.78.78,0,0,0,1.323-.352l6.4-26.094a.78.78,0,0,0-.5-.924L1.033.042A.77.77,0,0,0,.781,0ZM40.339,41.19,3.545,2.552,46.227,17.175Z" transform="translate(0 0)" fill="#3c384f"/>
          <path id="Trazado_114997" data-name="Trazado 114997" d="M44.779,38.059,0,0,62.043,25.413Z" transform="translate(0.78 0.78)" fill="#3c384f"/>
          <path id="Trazado_114998" data-name="Trazado 114998" d="M.781,0A.78.78,0,0,0,.275,1.375L45.053,39.433a.781.781,0,0,0,.967.035L63.284,26.822a.781.781,0,0,0-.165-1.351L1.076.059A.774.774,0,0,0,.781,0ZM45.595,37.845,5.02,3.361,61.237,26.387Z" transform="translate(0 0)" fill="#3c384f"/>
          <path id="Trazado_114999" data-name="Trazado 114999" d="M39.977,41.98,0,0,26.313,52.09Z" transform="translate(0.78 0.78)" fill="#3c384f"/>
          <path id="Trazado_115000" data-name="Trazado 115000" d="M.78,0a.78.78,0,0,0-.7,1.132L26.4,53.222a.781.781,0,0,0,1.161.275l13.664-10.11a.78.78,0,0,0,.1-1.165L1.345.242A.779.779,0,0,0,.78,0ZM27.373,51.692,3.859,5.145,39.582,42.659Z" transform="translate(0 0)" fill="#3c384f"/>
          <path id="Trazado_115001" data-name="Trazado 115001" d="M7.033,14.588Q3.748,7.788.1,1.172C-.381.292.966-.5,1.451.385Q5.094,7,8.38,13.8C8.816,14.7,7.471,15.492,7.033,14.588Z" transform="translate(16.934 27.912)" fill="#3c384f"/>
          <path id="Trazado_115002" data-name="Trazado 115002" d="M2.326,2.652a.794.794,0,0,1-.359.467.786.786,0,0,1-.6.079A.77.77,0,0,1,.9,2.839l-.8-1.663a.835.835,0,0,1-.079-.6A.794.794,0,0,1,.385.109.786.786,0,0,1,.986.03a.767.767,0,0,1,.467.359l.8,1.663A.835.835,0,0,1,2.326,2.652Z" transform="translate(20.234 29.039)" fill="#3c384f"/>
          <path id="Trazado_115003" data-name="Trazado 115003" d="M15.546,8.154Q7.941,4.867.4,1.426C-.508,1.009.284-.336,1.192.078Q8.728,3.52,16.333,6.806C17.253,7.2,16.459,8.549,15.546,8.154Z" transform="translate(35.448 17.765)" fill="#3c384f"/>
        </g>
        <g id="Grupo_81058" data-name="Grupo 81058" transform="translate(0 1.85)">
          <g id="Grupo_81057" data-name="Grupo 81057" transform="translate(0 0)">
            <g id="Grupo_81054" data-name="Grupo 81054" transform="translate(0 0)">
              <path id="Trazado_115004" data-name="Trazado 115004" d="M39.977,41.98l6.4-26.093L0,0Z" transform="translate(0.78 0.78)" fill="#fff"/>
              <path id="Trazado_115005" data-name="Trazado 115005" d="M.78,0A.781.781,0,0,0,.215,1.319L40.192,43.3a.78.78,0,0,0,1.323-.352l6.4-26.093a.78.78,0,0,0-.5-.924L1.034.042A.793.793,0,0,0,.78,0ZM40.339,41.19,3.545,2.552,46.227,17.175Z" transform="translate(0 0)"/>
            </g>
            <g id="Grupo_81055" data-name="Grupo 81055" transform="translate(0 0)">
              <path id="Trazado_115006" data-name="Trazado 115006" d="M44.779,38.059,0,0,62.043,25.413Z" transform="translate(0.78 0.78)" fill="#fff"/>
              <path id="Trazado_115007" data-name="Trazado 115007" d="M.781,0A.78.78,0,0,0,.275,1.375L45.054,39.434a.781.781,0,0,0,.966.034L63.283,26.823a.78.78,0,0,0-.165-1.351L1.076.059A.771.771,0,0,0,.781,0ZM45.594,37.845,5.021,3.361,61.237,26.388Z" transform="translate(0 0)"/>
            </g>
            <g id="Grupo_81056" data-name="Grupo 81056" transform="translate(0 0)">
              <path id="Trazado_115008" data-name="Trazado 115008" d="M39.977,41.98,0,0,26.313,52.09Z" transform="translate(0.78 0.78)" fill="#fff"/>
              <path id="Trazado_115009" data-name="Trazado 115009" d="M.78,0a.78.78,0,0,0-.7,1.132L26.4,53.222a.779.779,0,0,0,1.16.275L41.221,43.388a.781.781,0,0,0,.1-1.166L1.346.243A.78.78,0,0,0,.78,0ZM27.372,51.693,3.86,5.145,39.583,42.659Z" transform="translate(0 0)"/>
            </g>
            <path id="Trazado_115010" data-name="Trazado 115010" d="M7.033,14.588Q3.748,7.789.1,1.172C-.381.292.966-.5,1.451.385Q5.095,7,8.381,13.8C8.815,14.7,7.47,15.493,7.033,14.588Z" transform="translate(16.934 27.912)"/>
            <path id="Trazado_115011" data-name="Trazado 115011" d="M2.326,2.653a.8.8,0,0,1-.359.466.788.788,0,0,1-.6.079A.767.767,0,0,1,.9,2.839q-.4-.832-.8-1.663a.834.834,0,0,1-.079-.6A.8.8,0,0,1,.384.109.788.788,0,0,1,.986.03a.771.771,0,0,1,.466.359l.8,1.663A.841.841,0,0,1,2.326,2.653Z" transform="translate(20.234 29.039)"/>
            <path id="Trazado_115012" data-name="Trazado 115012" d="M15.546,8.153Q7.941,4.868.4,1.425C-.508,1.009.285-.336,1.192.079Q8.728,3.519,16.333,6.807C17.252,7.2,16.459,8.548,15.546,8.153Z" transform="translate(35.448 17.765)"/>
          </g>
        </g>
      </g>
      <g id="Grupo_81063" data-name="Grupo 81063" transform="translate(45.49 43.974)">
        <g id="Grupo_81060" data-name="Grupo 81060" transform="translate(0 0)">
          <path id="Trazado_115013" data-name="Trazado 115013" d="M.78,0A.781.781,0,0,0,.193,1.295,78.907,78.907,0,0,0,6.831,8.021a.78.78,0,1,0,1.043-1.16A77.286,77.286,0,0,1,1.368.267.78.78,0,0,0,.78,0ZM13.4,11.584a.78.78,0,0,0-.463,1.408c1.685,1.241,3.438,2.43,5.214,3.536a.78.78,0,1,0,.825-1.325c-1.741-1.085-3.463-2.251-5.115-3.467A.778.778,0,0,0,13.4,11.584Zm89.667,3.443a.773.773,0,0,0-.414.119q-.709.444-1.426.873a.78.78,0,0,0,.8,1.34q.732-.438,1.455-.891a.78.78,0,0,0-.416-1.441ZM26.78,19.569a.78.78,0,0,0-.334,1.485c2.369,1.121,4.816,2.138,7.273,3.021a.78.78,0,0,0,.528-1.468c-2.41-.868-4.81-1.865-7.133-2.963A.771.771,0,0,0,26.78,19.569Zm67.962,0a.782.782,0,0,0-.331.074,79.47,79.47,0,0,1-8.605,3.438.781.781,0,0,0,.494,1.481,81.026,81.026,0,0,0,8.775-3.506.781.781,0,0,0-.332-1.487ZM39.933,24.443a.78.78,0,0,0-.205,1.532,78.69,78.69,0,0,0,9.249,1.944.78.78,0,0,0,.228-1.544,77.255,77.255,0,0,1-9.066-1.9A.753.753,0,0,0,39.933,24.443Zm40.129.344a.752.752,0,0,0-.19.023c-2.491.622-5.04,1.13-7.575,1.509a.78.78,0,0,0,.231,1.543c2.584-.387,5.182-.9,7.722-1.539a.78.78,0,0,0-.188-1.537Zm-23.21,2.33a.78.78,0,0,0-.035,1.56c2.086.1,4.205.111,6.3.042a.78.78,0,1,0-.051-1.56c-2.056.067-4.133.053-6.179-.041Z" transform="translate(0 0)"/>
        </g>
      </g>
    </g>
    <g id="Grupo_88079" data-name="Grupo 88079" transform="translate(-132.892 49.053)">
      <path id="Trazado_120188" data-name="Trazado 120188" d="M1128.211,173.93a12.8,12.8,0,0,1-10.145-5.068.423.423,0,0,0-.562-.1,10.518,10.518,0,0,1-5.682,1.564,15.059,15.059,0,0,1-7.935-2.391,12.712,12.712,0,0,1-5.211-6.1,12.068,12.068,0,0,1,1.528-11.071,11.477,11.477,0,0,1,9.317-5.1c.3,0,.6.013.9.038h.035a.423.423,0,0,0,.414-.506,9.52,9.52,0,0,1,2.209-7.969,11.523,11.523,0,0,1,8.607-4.309,9.038,9.038,0,0,1,6.718,3.042.423.423,0,0,0,.309.134h.032a.422.422,0,0,0,.317-.184,12.759,12.759,0,0,1,10.406-5.535,11.23,11.23,0,0,1,9.324,4.82c4.042,5.626,3.834,12.812-.495,17.087a.423.423,0,0,0,.018.618,8.364,8.364,0,0,1,2.364,9.542,8.656,8.656,0,0,1-7.885,5.794,8.906,8.906,0,0,1-3.563-.779.423.423,0,0,0-.539.184,11.967,11.967,0,0,1-4.468,4.745A12.494,12.494,0,0,1,1128.211,173.93Z" transform="translate(-2.444 -2.412)" fill="#fff"/>
      <path id="Trazado_120189" data-name="Trazado 120189" d="M1146.149,150.172c4.554-4.5,4.639-11.932.542-17.634-5.26-7.32-15.724-6.183-20.423.725-7.458-8-20.083.58-18.258,9.608-8.553-.716-15.22,8.517-12.176,16.7,2.63,7.065,12.983,11.27,19.453,7.14a13.08,13.08,0,0,0,16.692,3.638,12.386,12.386,0,0,0,4.637-4.914C1146.151,169.585,1153.743,156.848,1146.149,150.172Zm-8.755,13.609c1.4-3.539,1.3-7.52-1.779-9.889-4.761-3.665-12.194-1.21-10.307,5.568,1.335,4.795,7.879,2.553,6.865-2.15-.249-1.157-2.018-.666-1.769.487q.239,3.52-2.787,2a3.9,3.9,0,0,1,.1-4.924c1.364-1.63,4.191-.984,5.764-.229,4.692,2.252,2.67,7.862.622,11.16-4.148,6.679-13.89,5.057-17.815-.817a.992.992,0,0,0-.179-.2.726.726,0,0,0-1.076-.13c-5.4,4.125-13.02.864-16.616-4.129-5.006-6.953,2.2-17.149,10.213-15.741a11.541,11.541,0,0,0,2.418,3.482c4.424,4.457,12.628.863,11.491-5.5-.955-5.338-8.082-3.992-8.5.891-.1,1.18,1.734,1.17,1.835,0,.292-3.372,3.906-3.139,4.9-.4,1.453,4-4.277,5.866-7.082,4.633-3.964-1.743-4.907-7.254-3.213-10.811,2.833-5.952,11.192-7.1,15.123-1.8a.966.966,0,0,0,.325.282,1,1,0,0,0,1.392-.493,10.674,10.674,0,0,1,18.255-.962c4.253,5.92,2.721,14.4-4.31,17.116-1.092.422-.617,2.2.487,1.77a13.348,13.348,0,0,0,3-1.619C1151.257,156.583,1145.072,167.14,1137.394,163.781Z" transform="translate(0 0)"/>
    </g>
    <g id="Grupo_89341" data-name="Grupo 89341" transform="translate(826.456 -817.806) rotate(-30)">
      <path id="Trazado_121566" data-name="Trazado 121566" d="M-295.9,1267.822c-4.962-4.442-14.5-3.9-20.67-4.054-7.973-.2-18.219-1.334-25.648,1.959-2.546,1.129-5.423,2.667-5.737,5.774-.339,3.347-.307,7.3,3.007,8.891-1.028,12.34,3.212,21.353,13.138,28.443,6.575,4.7-.206,9.616-4.041,12.652a29.647,29.647,0,0,0-5.425,5.951c-3.865,5.311-4.9,11.941-3.882,18.291-4.385,3.865-4.988,11.614.959,14.172,6.388,2.75,14.528,2.575,21.293,2.7,7.133.129,18.548,1.121,24.66-3.419,3.632-2.7,2.366-9.429-.638-12.383a29.808,29.808,0,0,0-2.626-18.379,25.007,25.007,0,0,0-5.1-6.814c-3.5-3.436-10.919-7.657-4.081-12.767,9.6-7.179,13.981-15.528,13.192-27.628C-292.665,1279.434-292.05,1271.266-295.9,1267.822Z" transform="translate(0 -0.351)" fill="#fff"/>
      <g id="Grupo_89340" data-name="Grupo 89340" transform="translate(-348.549 1262.914)">
        <path id="Trazado_121567" data-name="Trazado 121567" d="M-316.566,1263.769c-7.973-.2-18.219-1.334-25.648,1.959-2.546,1.129-5.423,2.667-5.737,5.774-.339,3.347-.307,7.3,3.007,8.891-1.028,12.34,3.212,21.353,13.138,28.443,6.575,4.7-.206,9.616-4.041,12.652a29.667,29.667,0,0,0-5.425,5.951c-3.865,5.311-4.9,11.941-3.882,18.291-4.385,3.865-4.988,11.614.959,14.172,6.388,2.75,14.528,2.575,21.293,2.7,7.133.129,18.548,1.121,24.66-3.419,3.632-2.7,2.366-9.429-.638-12.383a29.808,29.808,0,0,0-2.626-18.379,25.009,25.009,0,0,0-5.1-6.814c-3.5-3.435-10.919-7.657-4.081-12.767,9.6-7.179,13.981-15.528,13.192-27.628,4.832-1.774,5.447-9.942,1.6-13.386C-300.858,1263.38-310.395,1263.921-316.566,1263.769Zm15.96,93.847c-1.887,1.4-5.981,1.531-8.18,1.784a120.969,120.969,0,0,1-15.659.52,92.058,92.058,0,0,1-12.315-.791c-1.672-.253-3.345-.729-4.994-1.1-2.763-.619-3.884-2.081-4.113-3.847l.565.2a8.71,8.71,0,0,0,2.91.617.215.215,0,0,0,.108-.4,8.487,8.487,0,0,0-2.392-1.143c-.407-.138-.816-.308-1.227-.468a8.9,8.9,0,0,1,.228-1.417,15.649,15.649,0,0,0,9.36,2.318.243.243,0,0,0,.064-.476c-1.72-.522-3.5-.758-5.241-1.211-1.359-.354-2.616-1.078-3.936-1.518.167-.521.366-1.037.585-1.543,4.6,3.585,12.759,4.168,18.067,3.57.217-.025.313-.381.056-.418-6.329-.934-12.007-1.243-17.756-3.954q.2-.419.41-.817c12.9,5.589,29.62,3.838,43.146.963C-298.447,1350.45-297.965,1355.655-300.606,1357.616ZM-316.57,1311.7c-2.042,5.074,5.059,9.284,8.014,11.849,6.48,5.623,7.99,14.544,7.167,22.645-14.074,1.829-27.16,3.141-41.153-.08-1.046-8.66,1.4-15.963,7.792-21.944,3.869-3.619,9.3-6,8.875-12.1-.317-4.522-7.472-7.6-10.283-10.328-5.877-5.7-5.707-13.914-6.532-21.469,6.035-.241,12.1-1.223,18.15-1.461,7.516-.3,17.635-1.311,24.672,2.067-.74,7.148-.8,14.265-5.7,20.041C-308.942,1304.9-314.555,1306.694-316.57,1311.7Zm18.175-32.969a1.348,1.348,0,0,0-.2.132c-6.695-3.343-15.768-2.691-22.975-2.572-6.45.1-16.108-.559-22.315,2.339a7.2,7.2,0,0,1-.641-.749,32.361,32.361,0,0,1,7.655-2.7c3.165-.617,6.395-.511,9.585-.867.28-.03.4-.477.072-.534-5.1-.894-13.471-.359-17.755,3.436a5.3,5.3,0,0,1-.493-1.263,13.017,13.017,0,0,1,5.038-2.841c1.91-.565,3.906-.67,5.829-1.138a.225.225,0,0,0,0-.43c-3.008-.669-8.438.328-11.035,2.966a5.8,5.8,0,0,1,.478-2.074c3.457-2.183,8.106-2.834,11.972-3.25.234-.025.334-.4.061-.447a17.828,17.828,0,0,0-11.291,2.373,9.651,9.651,0,0,1,4.718-3.524c3.066-1.025,6.487-1.051,9.69-1.144,4.005-.116,8.033-.141,12.04-.1a87.8,87.8,0,0,1,14.165,1.166,18.574,18.574,0,0,1,5,1.534C-296.085,1270.37-295.4,1277.524-298.395,1278.734Z" transform="translate(348.549 -1263.265)"/>
        <path id="Trazado_121568" data-name="Trazado 121568" d="M-290.237,1352.8c-4.617-1.4-9.9-1.342-14.67-1.287-3.7.04-9.876-.218-12.945,2.355-4.8,4.022,4.323,9.687,8.507,12.679a10.367,10.367,0,0,1,3.85,5.177c1.492,5.2-2.795,9.084-6.436,11.827-4.878,3.677-8.989,9.587-9.848,15.72-.236,1.684-.037,4.151,1.193,5.488,1.774,1.931,4.58,1.97,7.033,2.209a125.741,125.741,0,0,0,19.655.075c4.357-.262,8.165-.305,8.967-5.469,1.029-6.615-3.671-13.415-8.588-17.2-4.365-3.355-7.792-7.772-5.164-13.535,1.444-3.168,5.437-5.155,7.874-7.516C-287.618,1360.235-284.046,1354.673-290.237,1352.8Zm-.963,9.06c-4.213,4.47-10.586,7.094-9.6,14.355.479,3.525,2.228,5.916,4.955,8.1,3.97,3.177,6.749,5.683,8.549,10.592,1.138,3.1,2.461,9.446-2.176,10.236a70.378,70.378,0,0,1-7.991.673c-6.548.352-13.362.592-19.855-.483-5.342-.886-3.028-8.15-1.584-11.229a26.352,26.352,0,0,1,6.989-9.018c4.132-3.42,7.585-6.007,7.735-11.756.073-2.8-1.43-4.8-3.346-6.5-2.763-3.213-6.931-4.978-9.471-8.494-3.911-5.413,11.166-5.385,13.745-5.423a63.952,63.952,0,0,1,9.847.564,21.9,21.9,0,0,1,3.265.719C-285.4,1355.631-289.6,1360.163-291.2,1361.857Z" transform="translate(330.057 -1324.297)"/>
        <path id="Trazado_121569" data-name="Trazado 121569" d="M-273.489,1552.85a.243.243,0,0,0,0,.417,1.18,1.18,0,0,0,1.181-.037.2.2,0,0,0,0-.342A1.182,1.182,0,0,0-273.489,1552.85Z" transform="translate(296.614 -1463.745)"/>
        <path id="Trazado_121570" data-name="Trazado 121570" d="M-304.688,1557.4a.307.307,0,0,0,0,.614,1.058,1.058,0,0,0,.664-.1.152.152,0,0,0,.054-.2C-304.146,1557.414-304.354,1557.4-304.688,1557.4Z" transform="translate(318.358 -1466.995)"/>
        <path id="Trazado_121571" data-name="Trazado 121571" d="M-274.229,1297.435a.279.279,0,0,0,0,.534,1.764,1.764,0,0,0,1.222.007.234.234,0,0,0,.047-.365A1.245,1.245,0,0,0-274.229,1297.435Z" transform="translate(297.182 -1286.776)"/>
        <path id="Trazado_121572" data-name="Trazado 121572" d="M-171.042,1266.449c-.774-1.811-2.985-4.65-5.194-3.077a.189.189,0,0,0,0,.324,18.415,18.415,0,0,1,2.225.993,5.628,5.628,0,0,1,1.882,3.118c.594,1.855.328,3.74.637,5.613a.268.268,0,0,0,.446.118C-169.587,1271.764-170.224,1268.367-171.042,1266.449Z" transform="translate(229.199 -1262.914)"/>
        <path id="Trazado_121573" data-name="Trazado 121573" d="M-335.441,1448.62a30.53,30.53,0,0,1,3.548-5.906c1.416-1.671,3.381-2.444,4.937-3.873a.246.246,0,0,0-.172-.415c-2.19-.13-4.256,1.937-5.638,3.415a10.717,10.717,0,0,0-3.183,6.643A.274.274,0,0,0-335.441,1448.62Z" transform="translate(339.817 -1384.54)"/>
        <path id="Trazado_121574" data-name="Trazado 121574" d="M-192.351,1455.022a.392.392,0,0,0-.474.613c1.963,2.485,3.463,4.529,4.268,7.657a32.249,32.249,0,0,1,.515,9.006.244.244,0,0,0,.476.064C-185.785,1466.986-186.805,1457.989-192.351,1455.022Z" transform="translate(240.698 -1396.009)"/>
      </g>
    </g>
    <g id="Grupo_89334" data-name="Grupo 89334" transform="translate(1135.444 61.332)">
      <g id="Grupo_81065" data-name="Grupo 81065" style="mix-blend-mode: overlay;isolation: isolate">
        <path id="Trazado_115015" data-name="Trazado 115015" d="M201.459,222.3c-4.818,4.93-9.8,9.679-14.871,14.344,2.194-4.96,4.559-9.841,6.642-14.853,2.361-5.682,5.106-13.427,2.129-19.387-6.784-13.585-23.933-.255-30.244,6.583-.672.729-1.314,1.49-1.964,2.242,2.255-5.522,4.285-11.2,3.749-17.162-.737-8.2-8.257-10.171-14.731-6.359-6.952,4.092-12.536,11.173-17.2,17.6-3.96,5.462,5.1,10.662,9.03,5.278a71.032,71.032,0,0,1,7.059-8.257q-.562,1.03-1.137,2.057a153.28,153.28,0,0,0-7.1,13.831c-3.952,9.119-9.8,21.744-4.825,31.336,2.506,4.834,8.382,5.325,12.806,3.358,5.947-2.644,10.066-8.481,14.037-13.421,4.145-5.158,7.8-10.635,11.633-16.017a77.947,77.947,0,0,1,5.041-6.6c.042-.048.086-.092.128-.139l-.046.145c-1.019,3.168-2.329,6.208-3.656,9.256-2.468,5.671-5.652,11.64-6.556,17.81-.8,5.456,1.41,11.571,7.972,11.175,6.169-.372,11.113-6.314,15.237-10.282,4.994-4.806,9.9-9.707,14.8-14.6C214.523,225.134,206.52,217.128,201.459,222.3Z" fill="#3c384f"/>
        <path id="Trazado_115016" data-name="Trazado 115016" d="M178.771,256.149a7.839,7.839,0,0,1-5.971-2.478c-2.078-2.263-2.976-5.949-2.4-9.86.747-5.1,2.971-9.983,5.121-14.705.515-1.131,1.025-2.251,1.507-3.359.457-1.051.938-2.155,1.415-3.3q-.438.61-.867,1.214l-.284.4c-1,1.4-1.981,2.8-2.964,4.206-2.761,3.94-5.616,8.015-8.7,11.857-.451.561-.9,1.134-1.362,1.713-3.541,4.478-7.554,9.553-13.048,11.995-4.9,2.175-11.313,1.566-14.1-3.811-5.007-9.659.4-22.088,4.347-31.163l.448-1.032c1.161-2.681,2.463-5.3,3.844-7.9q-.48.625-.942,1.26a6.656,6.656,0,0,1-9.394,1.306,5.277,5.277,0,0,1-1.254-7.761c4.977-6.865,10.542-13.783,17.5-17.879,3.862-2.273,8.089-2.642,11.31-.987,2.836,1.457,4.585,4.34,4.924,8.119A30.627,30.627,0,0,1,165.95,206.7c5.135-5.017,14.632-12.132,22.251-11.054,3.5.5,6.209,2.621,8.052,6.312,3.032,6.07.64,13.627-2.1,20.218-1.3,3.138-2.738,6.268-4.125,9.3l-.491,1.071c4.127-3.87,7.819-7.475,11.207-10.941h0a6.009,6.009,0,0,1,5.986-1.778,7.368,7.368,0,0,1,5.1,5.061,6.063,6.063,0,0,1-1.722,6.064l-.558.556c-4.645,4.636-9.448,9.43-14.26,14.059-.593.571-1.2,1.182-1.83,1.812-3.736,3.745-8.385,8.407-14.04,8.748C179.2,256.143,178.984,256.149,178.771,256.149Zm2.869-40.361a.944.944,0,0,1,.484.129.973.973,0,0,1,.472,1.135l-.047.146c-1.068,3.322-2.461,6.523-3.69,9.347-.487,1.119-1,2.249-1.521,3.389-2.092,4.6-4.256,9.348-4.962,14.167-.479,3.272.248,6.421,1.9,8.217a6,6,0,0,0,5.024,1.815c4.9-.3,9.066-4.476,12.745-8.165.638-.639,1.257-1.26,1.859-1.84,4.8-4.617,9.6-9.4,14.235-14.034l.557-.556a4.067,4.067,0,0,0,1.205-4.124,5.383,5.383,0,0,0-3.671-3.649A4.007,4.007,0,0,0,202.175,223h0c-4.377,4.477-9.254,9.181-14.911,14.38a1,1,0,0,1-1.591-1.141c.829-1.875,1.683-3.738,2.537-5.6,1.379-3.012,2.806-6.126,4.1-9.231,2.567-6.174,4.83-13.207,2.158-18.556-1.553-3.112-3.694-4.821-6.545-5.225-7.1-1.006-17.092,6.646-22.069,12.04-.531.574-1.042,1.17-1.554,1.766l-.387.451a1,1,0,0,1-1.683-1.031c2.147-5.26,4.2-10.882,3.678-16.7-.28-3.115-1.61-5.369-3.846-6.518-2.608-1.34-6.115-.991-9.382.931-6.642,3.911-12.046,10.64-16.9,17.33a3.316,3.316,0,0,0,.811,4.97,4.627,4.627,0,0,0,6.6-.868,72.419,72.419,0,0,1,7.158-8.374,1,1,0,0,1,1.587,1.185q-.565,1.035-1.143,2.066a152.988,152.988,0,0,0-7.053,13.74l-.449,1.034c-3.788,8.707-8.974,20.632-4.406,29.445,2.219,4.281,7.471,4.7,11.512,2.9,5.043-2.241,8.728-6.9,12.291-11.408.461-.582.918-1.16,1.373-1.725,3.046-3.791,5.881-7.838,8.624-11.752q1.479-2.112,2.973-4.219l.284-.4a74.4,74.4,0,0,1,4.824-6.284l.089-.1A1.092,1.092,0,0,1,181.64,215.788Zm19.82,6.517h0Z" fill="#3c384f"/>
        <path id="Trazado_115017" data-name="Trazado 115017" d="M142.792,223.274c-3.684,7.4-5.763,16.084-2.526,24.042.478,1.177,2.413.662,1.928-.532-3.038-7.472-1.14-15.537,2.325-22.5C145.091,223.135,143.366,222.12,142.792,223.274Z" fill="#3c384f"/>
        <path id="Trazado_115018" data-name="Trazado 115018" d="M145.829,244.381c-.017,0-.033-.007-.049-.01-.028-.054-.053-.113-.062-.129l-.005-.006c0-.008,0,0,0-.014-.129-.447-.221-.9-.319-1.354q-.339-1.582-.679-3.165a1.007,1.007,0,0,0-1.23-.7,1.023,1.023,0,0,0-.7,1.23q.384,1.789.769,3.58c.213.993.554,2.3,1.744,2.495a1.024,1.024,0,0,0,1.23-.7A1.011,1.011,0,0,0,145.829,244.381Z" fill="#3c384f"/>
        <path id="Trazado_115019" data-name="Trazado 115019" d="M189.856,201.723c-1.135-.606-2.146,1.12-1.009,1.727,1.57.838,2.049,2.544,2.111,4.22a28.922,28.922,0,0,1-.451,5.733,38.049,38.049,0,0,1-3.471,10.742c-.571,1.149,1.153,2.163,1.727,1.009a40.021,40.021,0,0,0,3.882-12.651C193.116,208.9,193.68,203.764,189.856,201.723Z" fill="#3c384f"/>
      </g>
      <g id="Grupo_81068" data-name="Grupo 81068">
        <g id="Grupo_81067" data-name="Grupo 81067">
          <g id="Grupo_81066" data-name="Grupo 81066">
            <path id="Trazado_115020" data-name="Trazado 115020" d="M199.088,219.934c-4.818,4.93-9.8,9.679-14.872,14.343,2.194-4.959,4.56-9.841,6.643-14.852,2.361-5.682,5.105-13.427,2.129-19.387-6.784-13.585-23.933-.256-30.244,6.583-.673.728-1.314,1.489-1.964,2.242,2.254-5.522,4.284-11.2,3.749-17.162-.737-8.2-8.257-10.171-14.731-6.36-6.953,4.093-12.536,11.174-17.2,17.6-3.96,5.462,5.1,10.662,9.031,5.278a71.117,71.117,0,0,1,7.058-8.258q-.562,1.03-1.136,2.058a153.4,153.4,0,0,0-7.1,13.83c-3.953,9.12-9.8,21.744-4.825,31.337,2.506,4.834,8.381,5.325,12.806,3.358,5.947-2.644,10.066-8.481,14.037-13.421,4.145-5.158,7.8-10.635,11.632-16.017a78.554,78.554,0,0,1,5.041-6.6c.042-.047.087-.091.129-.139l-.046.146c-1.019,3.168-2.33,6.208-3.656,9.256-2.469,5.67-5.652,11.639-6.556,17.81-.8,5.456,1.41,11.571,7.972,11.175,6.168-.372,11.112-6.314,15.236-10.282,4.995-4.806,9.9-9.708,14.806-14.6C212.151,222.763,204.148,214.757,199.088,219.934Z" fill="#6b8dff"/>
            <path id="Trazado_115021" data-name="Trazado 115021" d="M176.4,253.777a7.836,7.836,0,0,1-5.97-2.477c-2.078-2.263-2.976-5.949-2.4-9.861.746-5.1,2.97-9.982,5.121-14.705.514-1.131,1.024-2.25,1.507-3.358.457-1.051.938-2.155,1.415-3.3-.292.406-.581.812-.867,1.214l-.284.4c-1,1.4-1.981,2.8-2.965,4.206-2.76,3.941-5.615,8.016-8.7,11.857q-.677.843-1.362,1.714c-3.541,4.477-7.554,9.552-13.048,11.995-4.9,2.175-11.313,1.565-14.1-3.812-5.007-9.658.4-22.087,4.346-31.163l.449-1.031c1.161-2.681,2.463-5.3,3.843-7.9q-.479.625-.942,1.259a6.654,6.654,0,0,1-9.393,1.307,5.277,5.277,0,0,1-1.254-7.761c4.977-6.865,10.542-13.783,17.5-17.88,3.863-2.272,8.089-2.641,11.311-.986,2.836,1.457,4.584,4.339,4.924,8.118a30.609,30.609,0,0,1-1.947,12.721c5.136-5.016,14.632-12.131,22.251-11.053,3.5.5,6.21,2.621,8.053,6.312,3.031,6.07.639,13.626-2.1,20.218-1.3,3.137-2.738,6.268-4.125,9.295l-.491,1.071c4.127-3.869,7.819-7.474,11.207-10.94h0a6.008,6.008,0,0,1,5.986-1.777,7.365,7.365,0,0,1,5.1,5.061,6.058,6.058,0,0,1-1.721,6.063l-.558.557c-4.645,4.636-9.448,9.429-14.26,14.059-.593.571-1.2,1.182-1.831,1.812-3.735,3.745-8.384,8.407-14.039,8.748C176.828,253.771,176.613,253.777,176.4,253.777Zm2.869-40.361a.943.943,0,0,1,.484.13.972.972,0,0,1,.473,1.135l-.047.146c-1.068,3.321-2.461,6.523-3.69,9.347-.487,1.118-1,2.248-1.521,3.389-2.093,4.6-4.257,9.348-4.963,14.166-.479,3.272.248,6.421,1.9,8.218a6.005,6.005,0,0,0,5.024,1.815c4.9-.3,9.066-4.476,12.744-8.165.638-.64,1.258-1.261,1.86-1.84,4.8-4.617,9.6-9.4,14.235-14.034l.557-.557a4.065,4.065,0,0,0,1.2-4.124,5.38,5.38,0,0,0-3.671-3.648,4.005,4.005,0,0,0-4.051,1.239h0c-4.377,4.477-9.254,9.181-14.911,14.381a1,1,0,0,1-1.591-1.141c.829-1.875,1.683-3.738,2.536-5.6,1.38-3.011,2.806-6.125,4.1-9.23,2.566-6.174,4.83-13.207,2.158-18.557-1.554-3.111-3.7-4.82-6.545-5.225-7.1-1.005-17.093,6.647-22.07,12.04-.53.575-1.041,1.171-1.553,1.766l-.388.452a1,1,0,0,1-1.683-1.032c2.148-5.259,4.2-10.882,3.679-16.7-.28-3.116-1.61-5.37-3.846-6.519-2.609-1.339-6.115-.99-9.382.932-6.643,3.91-12.046,10.64-16.9,17.33a3.314,3.314,0,0,0,.811,4.969,4.626,4.626,0,0,0,6.6-.867,72.237,72.237,0,0,1,7.158-8.374,1,1,0,0,1,1.586,1.184q-.565,1.036-1.142,2.067a153,153,0,0,0-7.054,13.74l-.449,1.034c-3.787,8.707-8.973,20.632-4.4,29.444,2.219,4.282,7.471,4.7,11.512,2.9,5.043-2.241,8.728-6.9,12.291-11.408q.691-.875,1.372-1.726c3.047-3.79,5.882-7.837,8.625-11.751.986-1.408,1.973-2.817,2.973-4.22l.284-.4a74.44,74.44,0,0,1,4.823-6.284l.09-.1A1.091,1.091,0,0,1,179.268,213.416Zm19.82,6.518h0Z"/>
          </g>
          <path id="Trazado_115022" data-name="Trazado 115022" d="M140.421,220.9c-3.685,7.4-5.763,16.083-2.527,24.042.479,1.176,2.414.662,1.929-.532-3.039-7.473-1.141-15.537,2.325-22.5C142.719,220.763,140.995,219.749,140.421,220.9Z"/>
          <path id="Trazado_115023" data-name="Trazado 115023" d="M143.458,242.01c-.017,0-.033-.007-.049-.01-.028-.055-.054-.113-.063-.129l0-.006c0-.008,0,0,0-.015-.129-.446-.222-.9-.319-1.353q-.34-1.582-.679-3.165a1.008,1.008,0,0,0-1.231-.7,1.023,1.023,0,0,0-.7,1.23l.768,3.579c.214.994.555,2.3,1.745,2.5a1.025,1.025,0,0,0,1.23-.7A1.012,1.012,0,0,0,143.458,242.01Z"/>
          <path id="Trazado_115024" data-name="Trazado 115024" d="M187.485,199.352c-1.135-.606-2.147,1.12-1.009,1.727,1.57.838,2.048,2.544,2.111,4.219a28.932,28.932,0,0,1-.451,5.734,38.049,38.049,0,0,1-3.471,10.742c-.572,1.149,1.153,2.163,1.727,1.009a40.062,40.062,0,0,0,3.882-12.651C190.745,206.527,191.309,201.392,187.485,199.352Z"/>
        </g>
      </g>
    </g>
    <g id="Grupo_89343" data-name="Grupo 89343" transform="translate(-925.216 -649.684) rotate(9)">
      <path id="Trazado_121575" data-name="Trazado 121575" d="M2138,835.654c-.459-.9-.931-1.795-1.4-2.69.465-.015.93-.019,1.395-.041.015,0,.026-.009.041-.01a1.026,1.026,0,0,0,1.017-1.354,424.273,424.273,0,0,0-21.892-45.043,2.107,2.107,0,0,0-.188-.274,1.114,1.114,0,0,0-.451-.669,28.926,28.926,0,0,0-28.069-3.1,35.42,35.42,0,0,0-5.171,2.111c-5.374,2.72-12.256,10.352-11.962,17.019-17.137-2.749-36.68,6.1-40.943,23.922a1.156,1.156,0,0,0,.54,1.227c.312.6.628,1.205.94,1.81a24.967,24.967,0,0,0-1.913,3.856,1.034,1.034,0,0,0-.253,1.253c7.936,16.421,17.875,31.843,25.8,48.259,0,0,0,0,0,.005l.017.022a.829.829,0,0,0,1.279.3,1.028,1.028,0,0,0,.5-.562c5.788-14.966,24.184-27.162,40.521-22.853a1.2,1.2,0,0,0,1.506-1.387c4.959-15.931,23.68-21.387,38.406-17.787a1.09,1.09,0,0,0,1.2-1.639A9.172,9.172,0,0,0,2138,835.654Z" transform="translate(0 0)" fill="#fff"/>
      <g id="Grupo_89342" data-name="Grupo 89342" transform="translate(2029.58 780.191)">
        <path id="Trazado_121576" data-name="Trazado 121576" d="M2056.344,873.168c4.395-11.825,14.008-14.845,25.724-13.919,1.134.09,1.356-1.713.267-1.966-12.558-2.916-23.715,3.271-27.821,15.38C2054.116,873.835,2055.923,874.3,2056.344,873.168Z" transform="translate(-2044.488 -825.962)"/>
        <path id="Trazado_121577" data-name="Trazado 121577" d="M2068.555,890.224a.976.976,0,0,0,1.684.985c4.968-7.979,15.514-12.993,24.571-13.468,1.115-.058,1.484-1.825.276-2.042C2085.727,874.022,2072.74,881.862,2068.555,890.224Z" transform="translate(-2052.865 -837.289)"/>
        <path id="Trazado_121578" data-name="Trazado 121578" d="M2079.076,909.566c-.538,1.139,1.132,2.144,1.706,1,4.6-9.182,15.263-11.993,24.711-12.3,1.083-.034,1.422-1.78.267-1.966C2095.763,894.685,2083.5,900.2,2079.076,909.566Z" transform="translate(-2059.178 -849.603)"/>
        <path id="Trazado_121579" data-name="Trazado 121579" d="M2087.631,928.1a1.047,1.047,0,0,0,1.807,1.056c5.214-8.975,13.8-11.645,23.529-12.888a1.021,1.021,0,0,0,0-2.041A27.086,27.086,0,0,0,2087.631,928.1Z" transform="translate(-2064.284 -860.47)"/>
        <path id="Trazado_121580" data-name="Trazado 121580" d="M2119.62,938.576a53.233,53.233,0,0,1,13.42-6.861.989.989,0,0,0-.524-1.9c-5.151.714-9.839,4-13.88,7.082C2117.657,937.638,2118.587,939.32,2119.62,938.576Z" transform="translate(-2082.699 -869.845)"/>
        <path id="Trazado_121581" data-name="Trazado 121581" d="M2155.788,818.323c3.99-11.965,16.968-14.559,27.8-11.506a1.031,1.031,0,0,0,.791-1.877c-10.808-6.932-27.3,1.445-30.585,12.834A1.034,1.034,0,0,0,2155.788,818.323Z" transform="translate(-2103.99 -793.512)"/>
        <path id="Trazado_121582" data-name="Trazado 121582" d="M2165.565,835.9c-.7,1.141,1.037,2.118,1.772,1.036,5.582-8.208,14.942-10.408,24.3-9.524,1.262.12,1.415-1.785.288-2.131C2182.168,822.289,2170.753,827.415,2165.565,835.9Z" transform="translate(-2110.973 -806.696)"/>
        <path id="Trazado_121583" data-name="Trazado 121583" d="M2176.253,857.031c-.835,1.16,1.061,2.217,1.9,1.107,5.507-7.317,15.125-10.106,23.905-9.443,1.165.088,1.308-1.646.266-1.967C2193.1,843.895,2181.644,849.534,2176.253,857.031Z" transform="translate(-2117.351 -819.618)"/>
        <path id="Trazado_121584" data-name="Trazado 121584" d="M2185.6,876.247c-.837,1.056.617,2.572,1.506,1.506,6.212-7.437,16.076-9.589,25.244-10.6a1.054,1.054,0,0,0,0-2.106C2202.962,864.171,2191.473,868.831,2185.6,876.247Z" transform="translate(-2122.928 -830.979)"/>
        <path id="Trazado_121585" data-name="Trazado 121585" d="M2193.619,894.534a1.04,1.04,0,0,0,1.8,1.049c4.9-8.46,15.918-10.993,24.907-11.229,1.125-.03,1.442-1.775.272-2.018C2211.151,880.381,2198.221,885.9,2193.619,894.534Z" transform="translate(-2127.802 -841.167)"/>
        <path id="Trazado_121586" data-name="Trazado 121586" d="M2138,835.654c-.459-.9-.931-1.795-1.4-2.69.465-.015.93-.019,1.395-.041.015,0,.026-.009.041-.01a1.026,1.026,0,0,0,1.017-1.354,424.273,424.273,0,0,0-21.892-45.043,2.107,2.107,0,0,0-.188-.274,1.114,1.114,0,0,0-.451-.669,28.926,28.926,0,0,0-28.069-3.1,35.42,35.42,0,0,0-5.171,2.111c-5.374,2.72-12.256,10.352-11.962,17.019-17.137-2.749-36.68,6.1-40.943,23.922a1.156,1.156,0,0,0,.54,1.227c.312.6.628,1.205.94,1.81a24.967,24.967,0,0,0-1.913,3.856,1.034,1.034,0,0,0-.253,1.253c7.936,16.421,17.875,31.843,25.8,48.259,0,0,0,0,0,.005l.017.022a.829.829,0,0,0,1.279.3,1.03,1.03,0,0,0,.5-.562c5.788-14.966,24.184-27.162,40.521-22.853a1.2,1.2,0,0,0,1.506-1.387c4.959-15.931,23.68-21.387,38.406-17.787a1.09,1.09,0,0,0,1.2-1.639A9.172,9.172,0,0,0,2138,835.654Zm-53.051-48.22c8.732-5.554,19.643-3.545,28.534.38a2.1,2.1,0,0,0,.232.717c7.49,13.864,14.624,27.921,22.18,41.745-15.655-3.143-35.115,1.793-40.339,17.708-7.38-14.816-14.155-29.925-21.529-44.743,0-.014.007-.024.006-.038C2073.712,796.688,2079.885,790.655,2084.949,787.434Zm-13.742,17.731c7.005,15.155,14.068,30.315,21.586,45.224-13.955-3.949-31.1,4.359-36.331,17.887-7.534-14.522-14.963-29.115-22.908-43.416a1.532,1.532,0,0,0-.225-.265C2040.6,809.658,2055.019,803.853,2071.207,805.166Zm26.177,50.934c-15.473-4.506-35.745,7.849-41.2,22.607-7.053-15.564-16.408-30.215-24.317-45.35a16.118,16.118,0,0,0,1.381-2.126c7.062,13.633,14.192,27.23,21.28,40.85a1.528,1.528,0,0,0,.941.809.972.972,0,0,0,1.7.011c8.8-15.227,20.587-21.471,38.076-18.521a1.659,1.659,0,0,0,1.862-1.733c3.843-8.015,8.037-14.257,16.894-17.465,6.439-2.331,13.18-2.1,19.882-2.16.576,1.215,1.158,2.423,1.784,3.614.012.022.023.044.034.065C2121.5,833.151,2100.756,840.775,2097.384,856.1Z" transform="translate(-2029.579 -780.191)"/>
      </g>
    </g>
    <g id="Grupo_169382" data-name="Grupo 169382" transform="translate(2360.39 -934.778)">
      <path id="Trazado_120414" data-name="Trazado 120414" d="M-986.247,1308.266c-1.713-2.895-4.541-5.068-8.643-6.641a60.62,60.62,0,0,0-7.8-2.216c-.545-.129-1.084-.255-1.608-.382-3.659-.889-7.393-1.717-11-2.516-5.075-1.124-10.322-2.285-15.428-3.637-9.655-2.551-20.888-5.173-31.007-5.289-6.713-.075-11.779,3.879-15.052,11.756-2.723,6.553-3.794,14.577-4.656,21.024-.255,1.906-.495,3.706-.746,5.208-.159.934-.361,1.99-.572,3.108a76.454,76.454,0,0,0-1.682,13.028c-.068,5.638,1.219,9.6,3.938,12.112a18.908,18.908,0,0,0,6.2,3.686,39.025,39.025,0,0,0,4.051,1.274c1.376.36,2.763.669,4.128.974,1.708.383,3.32.742,4.86,1.184a169.248,169.248,0,0,0,21.645,4.273,70.843,70.843,0,0,1,13.295,3.866c6.184,2.239,12.578,4.555,19.322,4.29,10.659-.42,13.128-7.991,14.9-16.388,1.32-6.273,2.715-12.608,4.064-18.736q.988-4.495,1.976-9.013C-984.538,1322.2-983.173,1313.455-986.247,1308.266Z" transform="translate(0 0)" fill="#fff"/>
      <g id="Grupo_88489" data-name="Grupo 88489" transform="translate(-1084.448 1287.583)">
        <g id="Grupo_88488" data-name="Grupo 88488" transform="translate(0)">
          <path id="Trazado_120415" data-name="Trazado 120415" d="M-992.112,1356.978c-1.768,8.4-4.237,15.968-14.9,16.388-6.744.265-13.138-2.051-19.322-4.29a70.837,70.837,0,0,0-13.295-3.866,169.235,169.235,0,0,1-21.645-4.273c-1.541-.442-3.153-.8-4.86-1.184-1.365-.305-2.753-.615-4.128-.974a39.066,39.066,0,0,1-4.051-1.274,18.9,18.9,0,0,1-6.2-3.686c-2.719-2.513-4.007-6.474-3.938-12.112a76.4,76.4,0,0,1,1.682-13.028c.211-1.117.412-2.174.572-3.108.251-1.5.492-3.3.746-5.208.862-6.447,1.932-14.472,4.655-21.024,3.273-7.876,8.339-11.831,15.052-11.756,10.12.115,21.353,2.738,31.007,5.289,5.106,1.352,10.353,2.513,15.428,3.637,3.611.8,7.345,1.627,11,2.516.525.127,1.063.253,1.608.382a60.656,60.656,0,0,1,7.8,2.216c4.1,1.573,6.93,3.746,8.643,6.641,3.073,5.189,1.709,13.931.175,20.963q-.984,4.522-1.976,9.013C-989.4,1344.369-990.791,1350.7-992.112,1356.978Zm-14.966,14.62c9.418-.37,11.5-6.719,13.236-14.985,1.323-6.28,2.719-12.619,4.068-18.751q.988-4.495,1.974-9.009c.943-4.318,3.145-14.428.033-19.685-1.526-2.574-3.99-4.447-7.756-5.891a59.1,59.1,0,0,0-7.574-2.146c-.549-.13-1.09-.257-1.619-.384-3.642-.885-7.367-1.712-10.968-2.51-5.092-1.128-10.357-2.294-15.5-3.652-9.549-2.524-20.65-5.12-30.574-5.231-13.742-.154-16.265,18.742-17.935,31.245-.256,1.922-.5,3.736-.755,5.268-.162.952-.364,2.018-.579,3.146a75.377,75.377,0,0,0-1.651,12.718c-.062,5.108,1.041,8.637,3.37,10.791a14.569,14.569,0,0,0,2.492,1.838,20.505,20.505,0,0,0,3.14,1.5,57.217,57.217,0,0,0,7.931,2.174c1.658.37,3.373.753,4.964,1.209a164.888,164.888,0,0,0,21.42,4.222,72.388,72.388,0,0,1,13.633,3.953C-1019.7,1369.595-1013.474,1371.851-1007.078,1371.6Z" transform="translate(1084.448 -1287.583)"/>
          <path id="Trazado_120416" data-name="Trazado 120416" d="M-809.128,1510.64a.885.885,0,0,1-1.081.632,19.376,19.376,0,0,0-2.35-.416,21.944,21.944,0,0,1-2.459-.429.985.985,0,0,1-.1-.035.883.883,0,0,1-.539-1.04.885.885,0,0,1,1.073-.643,20.291,20.291,0,0,0,2.267.393,21.505,21.505,0,0,1,2.56.458A.885.885,0,0,1-809.128,1510.64Z" transform="translate(894.292 -1444.019)"/>
          <path id="Trazado_120417" data-name="Trazado 120417" d="M-816.432,1533.115a.881.881,0,0,1-.939.824,13.734,13.734,0,0,0-1.839,0,.906.906,0,0,1-.381-.056.886.886,0,0,1-.564-.763.884.884,0,0,1,.817-.947,15.586,15.586,0,0,1,2.083,0A.885.885,0,0,1-816.432,1533.115Z" transform="translate(897.454 -1460.615)"/>
          <path id="Trazado_120418" data-name="Trazado 120418" d="M-782.471,1423.489a.886.886,0,0,1-1.054.674.913.913,0,0,1-.127-.039.884.884,0,0,1-.545-1.017l.033-.149a.885.885,0,0,1,1.054-.673.884.884,0,0,1,.673,1.054Z" transform="translate(872.026 -1382.874)"/>
          <path id="Trazado_120419" data-name="Trazado 120419" d="M-854.279,1526.248a.886.886,0,0,1,.3,1.215.886.886,0,0,1-1.216.3,14.66,14.66,0,0,0-4.976-1.363c-.772-.123-1.5-.239-2.18-.391a.878.878,0,0,1-.128-.037.885.885,0,0,1-.546-1.016.886.886,0,0,1,1.054-.674c.631.14,1.333.253,2.078.373A16.066,16.066,0,0,1-854.279,1526.248Z" transform="translate(927.8 -1455.04)"/>
          <path id="Trazado_120420" data-name="Trazado 120420" d="M-833.087,1507.015a.882.882,0,0,1-1.053.671l-1.037-.229a.931.931,0,0,1-.128-.037.884.884,0,0,1-.545-1.017.884.884,0,0,1,1.054-.674l1.039.23A.881.881,0,0,1-833.087,1507.015Z" transform="translate(908.573 -1441.914)"/>
          <path id="Trazado_120421" data-name="Trazado 120421" d="M-792.163,1389.693a.885.885,0,0,1-1.056.673.9.9,0,0,1-.125-.038.882.882,0,0,1-.546-1.017l.031-.149a.886.886,0,0,1,1.056-.672.886.886,0,0,1,.673,1.054Z" transform="translate(878.884 -1358.963)"/>
          <path id="Trazado_120422" data-name="Trazado 120422" d="M-787.752,1369.745a.883.883,0,0,1-1.054.674.884.884,0,0,1-.128-.037.885.885,0,0,1-.546-1.017l.034-.151a.882.882,0,0,1,1.053-.671.884.884,0,0,1,.673,1.054Z" transform="translate(875.763 -1344.85)"/>
          <path id="Trazado_120423" data-name="Trazado 120423" d="M-869.214,1499.123a.884.884,0,0,1,.329,1.206.883.883,0,0,1-1.206.329,10.049,10.049,0,0,0-3.055-.883c-.4-.074-.822-.149-1.221-.238a.869.869,0,0,1-.125-.038.884.884,0,0,1-.545-1.019.884.884,0,0,1,1.057-.67c.364.083.747.152,1.15.225A11.213,11.213,0,0,1-869.214,1499.123Z" transform="translate(936.298 -1436.31)"/>
          <path id="Trazado_120424" data-name="Trazado 120424" d="M-820.017,1358.589a.884.884,0,0,1-.643,1.073.881.881,0,0,1-.531-.031.887.887,0,0,1-.542-.613l-.084-.33a.886.886,0,0,1,.644-1.075.884.884,0,0,1,1.073.644Z" transform="translate(898.647 -1337.113)"/>
          <path id="Trazado_120425" data-name="Trazado 120425" d="M-898.61,1516.56a.882.882,0,0,1-1.054.673c-.277-.061-.565-.115-.854-.169a12.7,12.7,0,0,1-2.256-.564,5.48,5.48,0,0,1-.84-.4.885.885,0,0,1-.309-1.213.886.886,0,0,1,1.213-.309,7.955,7.955,0,0,0,2.519.75c.3.055.607.114.909.18A.884.884,0,0,1-898.61,1516.56Z" transform="translate(956.809 -1448.1)"/>
          <path id="Trazado_120426" data-name="Trazado 120426" d="M-866.949,1356.152a4.653,4.653,0,0,1-.817,4.336,5.514,5.514,0,0,1-4.721,1.905,6.851,6.851,0,0,1-1.953-.434,7.358,7.358,0,0,1-1.907-1.091.886.886,0,0,1-.239-1.105.887.887,0,0,1,1.044-.438,3.142,3.142,0,0,0,3.633-1.167,2.683,2.683,0,0,0-.381-3.329,6.3,6.3,0,0,0-1.341-.689,3.04,3.04,0,0,0-.56-.17.883.883,0,0,1-1-.4.883.883,0,0,1,.308-1.211,0,0,0,0,1,0,0,4.633,4.633,0,0,1,4.1-.258A6.461,6.461,0,0,1-866.949,1356.152Zm-2.189,3.22a2.878,2.878,0,0,0,.489-2.733,4.649,4.649,0,0,0-1.9-2.441,4.332,4.332,0,0,1,.124,4.921,4.6,4.6,0,0,1-1.628,1.521A3.693,3.693,0,0,0-869.138,1359.372Z" transform="translate(937.45 -1332.979)"/>
          <path id="Trazado_120427" data-name="Trazado 120427" d="M-873.935,1400.423l-.033.148a.884.884,0,0,1-1.056.673.88.88,0,0,1-.125-.039.881.881,0,0,1-.546-1.014l.032-.151a.887.887,0,0,1,1.056-.673A.884.884,0,0,1-873.935,1400.423Z" transform="translate(936.764 -1366.659)"/>
          <path id="Trazado_120428" data-name="Trazado 120428" d="M-979.381,1501.145a.886.886,0,0,1-1.056.673c-.508-.114-1.039-.261-1.6-.42a11.094,11.094,0,0,0-3.944-.645.9.9,0,0,1-.435-.051.887.887,0,0,1-.561-.706.884.884,0,0,1,.756-1,12.2,12.2,0,0,1,4.662.693c.538.152,1.045.294,1.506.4A.886.886,0,0,1-979.381,1501.145Z" transform="translate(1015.491 -1437.134)"/>
          <path id="Trazado_120429" data-name="Trazado 120429" d="M-916.8,1354.086a.886.886,0,0,1-1.056.672.881.881,0,0,1-.125-.038.886.886,0,0,1-.547-1.017l.033-.148a.886.886,0,0,1,1.056-.673.881.881,0,0,1,.671,1.053Z" transform="translate(967.07 -1333.769)"/>
          <path id="Trazado_120430" data-name="Trazado 120430" d="M-947.294,1368.264a.887.887,0,0,1-1.056.673.853.853,0,0,1-.125-.039.882.882,0,0,1-.546-1.017l.031-.149a.886.886,0,0,1,1.056-.673.885.885,0,0,1,.673,1.054Z" transform="translate(988.644 -1343.8)"/>
          <path id="Trazado_120431" data-name="Trazado 120431" d="M-997.734,1472.914a.881.881,0,0,1,.453,1.164.884.884,0,0,1-1.165.456,10.793,10.793,0,0,0-2.642-.786,1.038,1.038,0,0,1-.18-.05.885.885,0,0,1-.556-.964.887.887,0,0,1,1.013-.734A12.623,12.623,0,0,1-997.734,1472.914Z" transform="translate(1025.996 -1418.056)"/>
          <path id="Trazado_120432" data-name="Trazado 120432" d="M-1021.127,1489.867a.885.885,0,0,1-1.116.564,14.8,14.8,0,0,0-2.688-.5c-.671-.084-1.365-.173-2.042-.319a.934.934,0,0,1-.13-.038.884.884,0,0,1-.547-1.013.881.881,0,0,1,1.051-.677c.6.129,1.228.208,1.891.292a16.265,16.265,0,0,1,3.016.579A.887.887,0,0,1-1021.127,1489.867Z" transform="translate(1044.276 -1429.285)"/>
          <path id="Trazado_120433" data-name="Trazado 120433" d="M-956.365,1333.708a.886.886,0,0,1-1.056.673.861.861,0,0,1-.128-.037.888.888,0,0,1-.546-1.017l.067-.3a.885.885,0,0,1,1.054-.673.885.885,0,0,1,.673,1.054Z" transform="translate(995.063 -1319.246)"/>
          <path id="Trazado_120434" data-name="Trazado 120434" d="M-1014.38,1336.344a3.5,3.5,0,0,1-1.579,2.476,2.5,2.5,0,0,1-1.955.065,3.144,3.144,0,0,1-1.9-2.443,18.226,18.226,0,0,1-.158-3.669,15.041,15.041,0,0,1-2.331,2.8,4.19,4.19,0,0,1-4.1,1h0c-.05-.019-.1-.039-.151-.062a2.347,2.347,0,0,1-1.29-1.428,2.448,2.448,0,0,0-.085.235c-.254.848.539,1.812.893,2.187a3.749,3.749,0,0,0,2.808,1.046c.319.009.661,0,1.024-.015a8.387,8.387,0,0,1,2.952.263,7.878,7.878,0,0,1,1.879,1.035,5.9,5.9,0,0,0,1.549.859,1.584,1.584,0,0,0,1.64-.583A4.716,4.716,0,0,0-1014.38,1336.344Zm-30.378,7.615a9.366,9.366,0,0,0,2.506.653,2.346,2.346,0,0,0,1.943-.659,2.3,2.3,0,0,0,.581-1.572,2.562,2.562,0,0,1-1.13,1.286c-.355.179-1.606.632-2.809-1.053-.891-1.251-.964-3.211-.821-4.826-.127-.065-.255-.133-.378-.2-.165-.087-.331-.174-.5-.259a3.732,3.732,0,0,0-3.354-.152c-.126.039-.251.081-.378.123-.4.129-.806.262-1.227.365a13.964,13.964,0,0,1-2.31,3.37,3.931,3.931,0,0,1-2.846,1.419,2.231,2.231,0,0,1-1.18-.282,2.293,2.293,0,0,0,.078.3,1.522,1.522,0,0,0,.823.941c1.222.618,3.508.306,5.111-.243a4.873,4.873,0,0,1,.807-.195.3.3,0,0,1,.05-.007,5.477,5.477,0,0,1,.631-.066h.021a6.663,6.663,0,0,1,1.947.216c.13.033.255.069.38.108.55.166,1.087.37,1.606.566.138.053.277.106.414.156l.017,0C-1044.766,1343.954-1044.762,1343.958-1044.758,1343.959Zm-5,3.174c-.1-.02-.2-.042-.3-.059-.028-.006-.053-.016-.079-.023a.293.293,0,0,1-.048-.011l-.025-.009h0a.984.984,0,0,1-.149-.074c-.015-.01-.027-.022-.042-.032a.823.823,0,0,1-.086-.066.589.589,0,0,1-.046-.046c-.022-.023-.042-.047-.061-.07a.305.305,0,0,1-.038-.057.634.634,0,0,1-.048-.078.5.5,0,0,1-.028-.063c-.011-.028-.021-.056-.03-.088s-.012-.042-.018-.066-.011-.059-.013-.088l-.007-.074c0-.029,0-.059,0-.089l.008-.075a.066.066,0,0,0,0-.023c.006-.021.013-.04.018-.06s.01-.043.016-.067c.073-.209.153-.424.233-.645.042-.109.082-.219.122-.33-.963.294-3.743,1-5.8.219-.128-.049-.252-.1-.373-.164a3.32,3.32,0,0,1-1.713-1.981,5.036,5.036,0,0,1-.176-.752c-1.269-.389-2.6-.682-3.893-.969-.6-.131-1.207-.266-1.817-.412-1.722,8.469-1.882,17.06,6.5,20.732.7.306,1.428.6,2.167.888,7.5,2.876,15.885,4.115,23.992,5.315,4.341.641,8.831,1.307,13.078,2.213,1.83.391,4.08,1.119,6.686,1.962,7.614,2.462,18.042,5.837,22.937,1.63,3.555-3.053,4.585-10.063,5.4-15.762q-.932-.155-1.86-.313c-2.236-.374-4.548-.761-6.826-1.158a8.359,8.359,0,0,1-2.508.229,6.613,6.613,0,0,1-3.513-1.33l-.3-.059c-.083.378-.158.759-.22,1.135-.006.028-.016.053-.023.079a.618.618,0,0,1-.023.091.56.56,0,0,1-.039.077c-.012.026-.022.053-.037.078s-.037.047-.056.071-.031.045-.048.064-.046.039-.068.061-.037.036-.06.051a.724.724,0,0,1-.077.046c-.024.012-.044.028-.07.04a.535.535,0,0,1-.083.03c-.027.009-.051.021-.077.028a.869.869,0,0,1-.09.013.772.772,0,0,1-.082.011.531.531,0,0,1-.089,0,.821.821,0,0,1-.086,0l-.524-.08c-.594-.088-1.2-.18-1.811-.287a.15.15,0,0,1-.031-.01.111.111,0,0,1-.029,0,.8.8,0,0,1-.1-.03l0,0a.872.872,0,0,1-.144-.069l-.039-.029c-.03-.021-.058-.041-.087-.064-.014-.012-.026-.029-.042-.044s-.043-.043-.062-.067a.435.435,0,0,1-.036-.054.618.618,0,0,1-.049-.076c-.01-.018-.018-.038-.027-.058s-.024-.054-.035-.082-.011-.044-.017-.066-.014-.055-.018-.083-.005-.049-.007-.074,0-.055,0-.083,0-.051.006-.076,0-.037,0-.055.007-.019.008-.028,0-.022,0-.031c.1-.4.208-.8.317-1.2-.9-.18-1.735-.353-2.545-.521a7.686,7.686,0,0,1-3.619-.326c-.062-.024-.126-.048-.189-.075a5.97,5.97,0,0,1-1.171-.66q-1.1-.24-2.166-.478a3.839,3.839,0,0,1,.524,1.233,6.261,6.261,0,0,1-1.18,4.954c-1.983,2.709-5.42,2.8-7.292,2.62a12.123,12.123,0,0,1-4.769-1.772c-.237,1.212-.4,2.213-.519,3.145a.881.881,0,0,1-.351.6.884.884,0,0,1-.674.163c-.113-.02-.232-.037-.357-.057a10.955,10.955,0,0,1-2.17-.5,3.512,3.512,0,0,1-.745-.38.884.884,0,0,1-.375-.869,33.28,33.28,0,0,1,.787-3.442l-.512.024a12.915,12.915,0,0,1-5.456-.5c-.116-.044-.23-.091-.346-.142a7.568,7.568,0,0,1-3.836-3.083,6.51,6.51,0,0,1-.141-4.975,6.026,6.026,0,0,1,1.4-2.36c-.791-.149-1.578-.3-2.364-.456l-1.137-.227a4.9,4.9,0,0,1-.848.011,10.857,10.857,0,0,1-2.939-.741l-1.056-.211c-.062.41-.123.82-.172,1.225,0,.024-.013.047-.018.071s-.011.06-.02.089a.545.545,0,0,1-.032.078c-.013.028-.021.056-.036.081s-.032.047-.049.072a.535.535,0,0,1-.05.068.444.444,0,0,1-.058.058.592.592,0,0,1-.063.061.566.566,0,0,1-.067.045c-.023.017-.048.034-.073.048s-.051.021-.076.032a.615.615,0,0,1-.083.032.754.754,0,0,1-.081.019c-.031,0-.058.01-.088.013s-.06,0-.088,0-.048,0-.076,0l-.169-.015c-.465-.041-.945-.085-1.433-.154C-1049.339,1347.218-1049.552,1347.175-1049.759,1347.133Zm68.149,10.783c-.856,6.025-1.922,13.524-6.021,17.046-5.647,4.854-16.175,1.448-24.634-1.288-2.559-.83-4.769-1.545-6.511-1.917-4.192-.894-8.654-1.553-12.97-2.193-4.1-.606-8.27-1.222-12.375-2.057a75.283,75.283,0,0,1-11.989-3.355c-.764-.293-1.519-.6-2.243-.919-9.824-4.3-9.294-14.416-7.337-23.591,0-.019.006-.04.009-.062a.07.07,0,0,0,.008-.021c.452-2.1.974-4.147,1.465-6.062l.242-.954c.709-2.788,1.2-5.67,1.667-8.456.416-2.469.846-5.023,1.433-7.523.813-3.461,3.3-11.736,8.883-13.862,4.48-1.7,10.263.125,15.363,1.739,1.839.582,3.577,1.132,5.074,1.455,4.734,1.017,9.581,1.987,14.268,2.927,8.27,1.655,16.82,3.368,25.117,5.407a51.556,51.556,0,0,1,6.165,1.8c4.947,1.9,7.751,4.767,8.574,8.772,1.428,6.942-.691,16.236-2.394,23.706-.371,1.622-.72,3.155-1.017,4.578C-981.122,1354.475-981.358,1356.147-981.61,1357.916Zm-3.345-2.116,1.817.306c.18-1.217.361-2.362.573-3.378.3-1.441.651-2.983,1.023-4.614,1.663-7.3,3.736-16.39,2.386-22.955-.7-3.414-3.077-5.791-7.475-7.477a50.246,50.246,0,0,0-5.953-1.736c-8.26-2.03-16.792-3.738-25.042-5.393-4.693-.94-9.545-1.911-14.292-2.932-1.58-.338-3.356-.9-5.236-1.5-4.825-1.528-10.3-3.259-14.2-1.771-4.922,1.873-7.207,10.126-7.79,12.609-.573,2.447-1,4.973-1.412,7.415-.476,2.823-.97,5.74-1.7,8.6l-.245.955c-.431,1.686-.879,3.443-1.279,5.219.607.145,1.223.281,1.826.414,1.188.263,2.408.532,3.608.881a2.258,2.258,0,0,1,.938-1.3.884.884,0,0,1,.841-.056.885.885,0,0,1,.505.677c.134.923.3.919.558.917a2.214,2.214,0,0,0,1.531-.806,16.535,16.535,0,0,0,1.569-2.06,3.518,3.518,0,0,1-.735-.189,3.468,3.468,0,0,1-1-.6,3.7,3.7,0,0,1-1.245-3.442,3.633,3.633,0,0,1,2.193-2.849.887.887,0,0,1,1.062.318.885.885,0,0,1-.08,1.106c-.2.214-.231.4-.1.577a.521.521,0,0,0,.68.128,5.323,5.323,0,0,0,1.3-1.372c.149-.2.3-.4.459-.587q.206-.251.376-.481c-.076-.024-.151-.046-.227-.075a4.794,4.794,0,0,1-1.538-.974,3.646,3.646,0,0,1-1.13-3.192,3.157,3.157,0,0,1,1.809-2.414,1.8,1.8,0,0,1,1.159-.1c.042.009.093.017.122.021a.885.885,0,0,1,1.076.585.885.885,0,0,1-.575,1.11.46.46,0,0,0-.305.3.59.59,0,0,0,.083.524.92.92,0,0,0,.439.325,1.679,1.679,0,0,0,1.337-.1c1.5-.825,3.189-3.7,3.7-5.716.015-.063.029-.124.045-.184a.882.882,0,0,1,1.061-.647.88.88,0,0,1,.66,1.053c-.013.064-.028.129-.046.194a8.349,8.349,0,0,0,.248,4.788,1.5,1.5,0,0,0,.77.906c.483.186,1-.163,1.356-.906a.887.887,0,0,1,1.006-.481.885.885,0,0,1,.677.885c-.055,2.1-.836,3.75-2.145,4.525a2.773,2.773,0,0,1-2.178.339,3.713,3.713,0,0,0,.549,1.935c.131.2.392.541.68.543.24,0,.645-.214,1.058-.833a.886.886,0,0,1,.894-.38.884.884,0,0,1,.7.67,4.488,4.488,0,0,1-2.518,5.1,3.51,3.51,0,0,1-2.04.2,5.314,5.314,0,0,0,.532,3.14c.314.44.533.524.574.5a1.956,1.956,0,0,0,.392-1.962.887.887,0,0,1,.187-.871.888.888,0,0,1,.85-.266,2.652,2.652,0,0,1,2.214,2.589,4.279,4.279,0,0,1-.928,3.5c1.845.357,3.706.692,5.534,1.013a4.2,4.2,0,0,1-.594-.654,4.26,4.26,0,0,1-.651-3.38,5.09,5.09,0,0,1,2.322-3.462,2.736,2.736,0,0,1,2.347-.218l.015.006a.881.881,0,0,1,.563.812.885.885,0,0,1-.539.826.411.411,0,0,0-.252.287.61.61,0,0,0,.128.52c.468.6,1.729.071,2.462-.425.286-.2.552-.4.807-.6a4.673,4.673,0,0,1-1.53-1.081c-.7-.744-1.8-2.24-1.3-3.908a3.513,3.513,0,0,1,1.709-2.141,2.957,2.957,0,0,1,2.344-.134l.023.009a.886.886,0,0,1,.518,1.12.886.886,0,0,1-.9.588,1.134,1.134,0,0,0-.2.135.193.193,0,0,0-.033.172.585.585,0,0,0,.327.341,2.436,2.436,0,0,0,2.342-.636,23.88,23.88,0,0,0,4.1-5.957.885.885,0,0,1,1.081-.4.884.884,0,0,1,.56,1.01,23.427,23.427,0,0,0-.323,7.236,1.4,1.4,0,0,0,.788,1.089.733.733,0,0,0,.583-.021,2.217,2.217,0,0,0,.59-1.23.879.879,0,0,1-.66-.428.883.883,0,0,1,.032-.954,1.871,1.871,0,0,1,2.3-.767,3.1,3.1,0,0,1,1.775,2.115,6.423,6.423,0,0,1-1.221,5.346,3.749,3.749,0,0,1-1.5,1.033,3.7,3.7,0,0,1,1.836.82,3.71,3.71,0,0,1,.876,2.99,7.1,7.1,0,0,1-.712,2.791,5.014,5.014,0,0,1-.789,1.163c.86.2,1.732.392,2.622.591a4.128,4.128,0,0,1-.186-.7,4.693,4.693,0,0,1,1.662-4.243.886.886,0,0,1,1.182-.008.885.885,0,0,1,.135,1.174c-.433.611-.478,1.11-.133,1.483.851.923,3.037-.372,4.212-1.407a5.566,5.566,0,0,0,1.08-1.352,3.578,3.578,0,0,1-.733-.194,3.744,3.744,0,0,1-.968-.551,3.752,3.752,0,0,1-1.33-4.541,2.733,2.733,0,0,1,.522-.776c.06-.069.146-.169.179-.22a.886.886,0,0,1,1.064-.577.889.889,0,0,1,.632,1.081v0c-.081.3-.042.517.117.628a.864.864,0,0,0,.943-.1,4.783,4.783,0,0,0,1.317-1.662,4.522,4.522,0,0,1-.986-.781,3.025,3.025,0,0,1-.77-2.384,3.931,3.931,0,0,1,1.448-2.775,2.206,2.206,0,0,1,1.76-.433,2.264,2.264,0,0,0,.455.018.886.886,0,0,1,.958.805.884.884,0,0,1-.805.958c-.171.015-.178.05-.187.092a.969.969,0,0,0,.464.872c.022.011.042.021.064.03a.519.519,0,0,0,.282.023c.954-.172,1.891-1.553,2.576-2.562.078-.117.154-.23.228-.337a7.928,7.928,0,0,0,1.321-2.6.886.886,0,0,1,1.009-.662.887.887,0,0,1,.732.958c-.018.171-.044.393-.075.653a27.7,27.7,0,0,0-.256,3.733c.047,1.787.461,2.027.466,2.028.064.025.3,0,.727-.252.221-.131.445-.371.433-1.174a.89.89,0,0,1,.665-.87.885.885,0,0,1,1,.443c.942,1.773.936,3.409-.022,4.6a2.811,2.811,0,0,1-2.645,1.068c0,1.717.221,2.734.679,3.022.271.17.388.111.45.08a2.793,2.793,0,0,0,.935-1.977.882.882,0,0,1,.679-.8.886.886,0,0,1,.966.413,4.523,4.523,0,0,1,.683,3.5,3.4,3.4,0,0,1-1.8,2.079,4.326,4.326,0,0,1-2.755.44c.052.249.1.494.139.731.22,1.24.383,1.97,1.134,2.533.158.12.56.373.855.153a1.081,1.081,0,0,0,.15-1.243.884.884,0,0,1,.305-1.024.884.884,0,0,1,1.067.016c1.962,1.534,2.089,3.83.346,6.294a5.128,5.128,0,0,1-.5.608C-988.092,1355.275-986.506,1355.542-984.955,1355.8Zm-5.664-2.423a4.8,4.8,0,0,0,.848-1.785,2.2,2.2,0,0,1-.21.177,2.414,2.414,0,0,1-2.979-.155,5.159,5.159,0,0,1-1.812-3.636c-.053-.295-.108-.6-.177-.9-.059-.259-.115-.515-.169-.768-.187-.088-.382-.184-.594-.291a5.832,5.832,0,0,0-4.232-.893c-.263.056-.533.124-.8.19s-.528.131-.8.189a8.311,8.311,0,0,1-1.965,2.8c-1.92,1.686-4.712,3.031-6.462,1.494a3.126,3.126,0,0,0,1.96,2.089,6.071,6.071,0,0,0,3.043.26l.013,0q.36-.039.728-.083a11.746,11.746,0,0,1,3.372-.079,5.662,5.662,0,0,1,1.36.4,8.973,8.973,0,0,1,1,.519c.362.217.7.445,1.024.665.069.048.135.092.2.137a.009.009,0,0,1,0,0,5.237,5.237,0,0,0,2.76,1.134,6.387,6.387,0,0,0,2.108-.205.067.067,0,0,0,.016-.005A3.222,3.222,0,0,0-990.619,1353.378Zm-.631-8.44a2.174,2.174,0,0,1-2.023-.238c-1.567-.989-1.535-3.618-1.5-4.963l-.135-.044a8.367,8.367,0,0,0-2.754-.241,12.913,12.913,0,0,1-2.507-.125,6.8,6.8,0,0,1-1.983,2.51,2.611,2.611,0,0,1-2.971.1.208.208,0,0,0-.024-.018,2.121,2.121,0,0,0,.942,1.576,2.22,2.22,0,0,0,1.9.365c.361-.058.736-.153,1.135-.254.277-.069.563-.14.855-.2a7.607,7.607,0,0,1,5.419,1.052c.333.17.623.308.889.417A3.071,3.071,0,0,0-991.25,1344.937Zm-.269-7.316-.019.012a2.586,2.586,0,0,1-2.263.38c-1.249-.479-1.607-2.084-1.6-4.031-.835,1.208-1.938,2.634-3.45,2.907a2.262,2.262,0,0,1-1.231-.112,2.416,2.416,0,0,1-.262-.12,2.767,2.767,0,0,1-1.316-1.688,2.384,2.384,0,0,0-.181.731,1.34,1.34,0,0,0,.28,1.017,2.812,2.812,0,0,0,1.037.686,7.741,7.741,0,0,0,2.832.279,9.791,9.791,0,0,1,3.349.332l.18.062c1.263.43,1.913.563,2.418-.068A1.528,1.528,0,0,0-991.518,1337.621Zm-9.182,17.52c.168.026.334.05.5.075.076-.371.156-.741.239-1.092-.08-.04-.161-.081-.24-.115-.056-.026-.112-.048-.17-.07-.043.161-.086.322-.13.482Q-1000.6,1354.779-1000.7,1355.141Zm-13.416,2.386a4.6,4.6,0,0,0,.886-3.5,2.035,2.035,0,0,0-.364-.786,3.91,3.91,0,0,1-.1,1.27,2.544,2.544,0,0,1-1.4,1.91,2.49,2.49,0,0,1-1.917-.022,4.132,4.132,0,0,1-.505-.239,5.167,5.167,0,0,1-1.814-2.507l-.037-.083c-.478-1.05-.873-2.028-1.2-2.991-.079-.227-.146-.439-.206-.648a.107.107,0,0,1-.008-.022c-.1-.353-.186-.682-.25-1a4.111,4.111,0,0,0-1.678-.762,11.686,11.686,0,0,0-2.334-.125c-.495,0-1,.011-1.509-.017l-.069-.005c-.5-.028-1.145-.065-1.847-.142a17.983,17.983,0,0,1-2.8,2.807l-.3.239c-1.084.875-2.719,2.2-4.252,1.166a2.252,2.252,0,0,1-.919-2.583,3.805,3.805,0,0,1,1.2-1.8,2.576,2.576,0,0,0-.669.2,3.476,3.476,0,0,0-1.564,2.1,4.867,4.867,0,0,0,.024,3.568,5.961,5.961,0,0,0,2.993,2.3,10.76,10.76,0,0,0,4.994.494c.561-.029,1.144-.061,1.729-.067l.079,0h.021a5.911,5.911,0,0,1,2.756.872l.269.153.01,0,.525.3a11.745,11.745,0,0,0,4.561,1.827C-1018.311,1359.579-1015.58,1359.527-1014.117,1357.528Zm-1.685-2.727c.159-.069.3-.325.389-.7a1.752,1.752,0,0,0,.021-.852c-.112-.036-.34-.1-.466-.124a.875.875,0,0,1-.686-.23.881.881,0,0,1-.094-1.187c.009-.011.016-.025.025-.035a.15.15,0,0,0,.02-.028l.067-.064a2.439,2.439,0,0,1,.207-.169l-.515-.12a4.288,4.288,0,0,1-1.7-.329c.233.6.491,1.221.787,1.869l.038.086a4.465,4.465,0,0,0,1.067,1.7A1.091,1.091,0,0,0-1015.8,1354.8Zm.836-6.653a5.349,5.349,0,0,0,.494-1.646,2.575,2.575,0,0,1-1.363,1.064,2.174,2.174,0,0,1-1.825-.262c-1.937-1.209-2.022-3.738-2.081-5.584q-.01-.26-.02-.505c0-.063-.005-.123-.008-.183a4.81,4.81,0,0,0-1.059-.56,7.022,7.022,0,0,0-2.325-.167c-.372.011-.758.024-1.13.014-.143,0-.284-.014-.422-.024a12.965,12.965,0,0,1-1.908,1.568c-1.469,1-3.62,1.61-4.845.056a2.424,2.424,0,0,1-.52-1.38,3.635,3.635,0,0,0-.932,1.831,2.543,2.543,0,0,0,.34,2.027c.6.821,1.887,1.377,3.839,1.647.821.114,1.59.157,2.207.193l.07,0c.445.024.9.02,1.391.015a13.075,13.075,0,0,1,2.7.16,5.9,5.9,0,0,1,2.712,1.333,8.446,8.446,0,0,1,1.059,1.074,2.383,2.383,0,0,0,2.546.531A2.614,2.614,0,0,0-1014.965,1348.147Zm-.867-2.835a1.914,1.914,0,0,0-.142-1.3.885.885,0,0,1-.695-1.005.89.89,0,0,1,.26-.492,3,3,0,0,1-.936-.134,4.589,4.589,0,0,1-.608-.235c.075,1.713.267,3.053,1.232,3.655a.413.413,0,0,0,.363.073A1,1,0,0,0-1015.832,1345.312Zm-11.068,16.127c.128-.865.3-1.81.528-2.922a5.3,5.3,0,0,0-.965-.379c-.27.995-.545,2.014-.743,3.026A7.984,7.984,0,0,0-1026.9,1361.439Zm-4.325-13.167-1.374-.245c.016.113.029.227.038.334a.883.883,0,0,1-.683.936.886.886,0,0,1-.952-.4,1.945,1.945,0,0,0-.842,1.1.479.479,0,0,0,.211.6c.454.3,1.517-.56,2.155-1.075.107-.087.213-.172.315-.251A14.353,14.353,0,0,0-1031.225,1348.271Zm-10.167-11.665a2.48,2.48,0,0,0,1.287-1.28,2.311,2.311,0,0,1-.766.126,2.563,2.563,0,0,1-2.151-1.355,5.8,5.8,0,0,1-.821-3.559c-.063-.019-.127-.039-.184-.051a6.552,6.552,0,0,0-2.336.035c-.38.051-.763.1-1.152.125a9.744,9.744,0,0,1-.989,1.4c-.13.154-.266.336-.412.526a6.4,6.4,0,0,1-1.854,1.852,2.293,2.293,0,0,1-2.868-.52,1.939,1.939,0,0,0,.642,1.779,2.075,2.075,0,0,0,1.873.351,11.923,11.923,0,0,0,1.481-.415l.394-.126a5.445,5.445,0,0,1,4.682.258c.177.089.354.183.529.276.3.159.577.306.854.429A2.084,2.084,0,0,0-1041.392,1336.606Zm.584-7.261a2.065,2.065,0,0,0,.7-.722,2.51,2.51,0,0,1-1.324-.129,3.207,3.207,0,0,1-1.789-1.924,8.708,8.708,0,0,1-.41-1.431,8.547,8.547,0,0,1-2.754,2.859,3.376,3.376,0,0,1-1.393.4,3.371,3.371,0,0,1-1.43-.2,2.7,2.7,0,0,1-1.25-.953,2.26,2.26,0,0,1-.183-.307,1.859,1.859,0,0,0,.586,1.146,3.005,3.005,0,0,0,.973.624,5.007,5.007,0,0,0,2.487.061,8.137,8.137,0,0,1,2.964,0,4.936,4.936,0,0,1,.675.209c.19.073.375.153.555.234.148.064.292.128.438.184A1.137,1.137,0,0,0-1040.808,1329.345Zm-7.387,16.235c.04-.283.081-.563.127-.844-.12-.02-.242-.036-.363-.047-.083.279-.177.555-.275.83C-1048.538,1345.541-1048.369,1345.564-1048.195,1345.58Z" transform="translate(1071.991 -1297.796)"/>
          <path id="Trazado_120435" data-name="Trazado 120435" d="M-1037.575,1464.025a.884.884,0,0,1-1.054.674l-7.058-1.56a.925.925,0,0,1-.125-.039.882.882,0,0,1-.546-1.017.885.885,0,0,1,1.054-.673l7.055,1.561A.884.884,0,0,1-1037.575,1464.025Z" transform="translate(1057.513 -1410.557)"/>
          <path id="Trazado_120436" data-name="Trazado 120436" d="M-987.5,1338.989a.887.887,0,0,1-1.056.673.888.888,0,0,1-.125-.038.886.886,0,0,1-.547-1.018l.033-.148a.886.886,0,0,1,1.056-.673.881.881,0,0,1,.672,1.053Z" transform="translate(1017.089 -1323.088)"/>
          <path id="Trazado_120437" data-name="Trazado 120437" d="M-1011.94,1323.39a.886.886,0,0,1-1.054.673.9.9,0,0,1-.127-.039.882.882,0,0,1-.546-1.017l.031-.149a.886.886,0,0,1,1.056-.673.881.881,0,0,1,.672,1.053Z" transform="translate(1034.384 -1312.051)"/>
          <path id="Trazado_120438" data-name="Trazado 120438" d="M-1029.292,1357.813a.885.885,0,0,1-1.054.673.9.9,0,0,1-.127-.039.883.883,0,0,1-.546-1.017l.067-.3a.885.885,0,0,1,1.054-.673.885.885,0,0,1,.673,1.056Z" transform="translate(1046.66 -1336.3)"/>
        </g>
      </g>
    </g>
    <g id="Grupo_88487" data-name="Grupo 88487" transform="translate(3431.575 -75.998)">
      <path id="Trazado_120381" data-name="Trazado 120381" d="M-2125.333,269.706c-1.236-7.9-2.376-16.085-3.481-24-1.229-8.824-2.5-17.949-3.909-26.712a50.021,50.021,0,0,1-.5-6.1c-.258-6.307-.479-11.754-10.405-12.321a64.875,64.875,0,0,0-13.726,1.179c-2.527.4-5.142.812-7.689,1.031-.866.075-1.8.133-2.779.193a65.858,65.858,0,0,0-7.312.73c-3.9.685-6.73,1.947-8.664,3.858-4,3.954-2.567,10.994-1.619,15.652.056.281.112.554.166.82a104.184,104.184,0,0,1,1.417,11.613c.269,3.208.548,6.523,1.076,9.793l.293,1.8c.979,6.049,1.907,11.762,2.746,17.736.722,5.15,1.818,10.755,2.878,16.057,1.088,5.437,5.14,8.527,10.843,8.263,1.377-.065,2.8-.115,4.177-.165a117.2,117.2,0,0,0,15.867-1.3c.529-.093,1.056-.195,1.562-.3a44.444,44.444,0,0,1,4.749-.6c1.6-.147,3.248-.3,4.849-.579a18.617,18.617,0,0,0,4.013-1.12,10.341,10.341,0,0,0,2.907-1.794C-2124.075,280.064-2124.571,274.581-2125.333,269.706Z" transform="translate(0 0)" fill="#fff"/>
      <g id="Grupo_88486" data-name="Grupo 88486" transform="translate(-2186.468 200.52)">
        <g id="Grupo_88485" data-name="Grupo 88485" transform="translate(0 0)">
          <path id="Trazado_120382" data-name="Trazado 120382" d="M-2143.632,200.574c9.927.567,10.147,6.014,10.405,12.322a50.016,50.016,0,0,0,.5,6.1c1.407,8.763,2.68,17.887,3.909,26.712,1.105,7.915,2.245,16.1,3.481,24,.763,4.875,1.259,10.358-2.546,13.741a10.341,10.341,0,0,1-2.907,1.794,18.619,18.619,0,0,1-4.013,1.12c-1.6.282-3.252.432-4.849.579a44.389,44.389,0,0,0-4.749.6c-.506.1-1.033.205-1.562.3a117.2,117.2,0,0,1-15.867,1.3c-1.377.05-2.8.1-4.177.165-5.7.264-9.755-2.826-10.843-8.263-1.06-5.3-2.155-10.907-2.878-16.057-.839-5.974-1.767-11.687-2.746-17.736l-.293-1.8c-.528-3.27-.807-6.585-1.076-9.793a104.184,104.184,0,0,0-1.417-11.613c-.053-.266-.11-.539-.166-.82-.949-4.657-2.381-11.7,1.619-15.652,1.934-1.911,4.769-3.173,8.664-3.858a65.926,65.926,0,0,1,7.313-.73c.983-.061,1.913-.118,2.779-.193,2.546-.219,5.162-.632,7.689-1.031A64.893,64.893,0,0,1-2143.632,200.574Zm8.708,12.391c-.26-6.371-.415-10.218-8.806-10.695a63.583,63.583,0,0,0-13.363,1.16c-2.556.4-5.2.822-7.807,1.045-.888.076-1.828.134-2.822.2a64.4,64.4,0,0,0-7.122.707c-3.544.623-6.084,1.734-7.765,3.394-3.346,3.307-2.076,9.548-1.147,14.1.056.281.113.558.167.824a105.529,105.529,0,0,1,1.444,11.8c.265,3.176.541,6.46,1.059,9.665l.293,1.8c.981,6.057,1.909,11.778,2.75,17.769.717,5.108,1.807,10.684,2.863,15.961.935,4.677,4.166,7.129,9.1,6.9,1.385-.065,2.812-.115,4.194-.166a115.631,115.631,0,0,0,15.635-1.273c.512-.09,1.021-.186,1.512-.289.2-.042.408-.081.617-.117,1.347-.237,2.791-.37,4.321-.51,1.564-.144,3.178-.291,4.711-.561a11.972,11.972,0,0,0,6.085-2.51c3.166-2.813,2.689-7.778,2-12.209-1.237-7.915-2.38-16.106-3.484-24.028-1.229-8.816-2.5-17.932-3.9-26.676A52.239,52.239,0,0,1-2134.924,212.965Z" transform="translate(2186.468 -200.52)"/>
          <path id="Trazado_120383" data-name="Trazado 120383" d="M-2027.058,223.852a.851.851,0,0,1,.181,1.188.844.844,0,0,1-.536.334.836.836,0,0,1-.65-.153l-.131-.1a.851.851,0,0,1-.181-1.186.849.849,0,0,1,1.188-.181Z" transform="translate(2072.887 -217.113)"/>
          <path id="Trazado_120384" data-name="Trazado 120384" d="M-2026.723,235.785a1.1,1.1,0,0,1,.58.857.849.849,0,0,1-.694.928l-.059.008a.85.85,0,0,1-.849-.467.846.846,0,0,1-.128-.986A.848.848,0,0,1-2026.723,235.785Z" transform="translate(2072.482 -225.808)"/>
          <path id="Trazado_120385" data-name="Trazado 120385" d="M-2025.492,246.832a.85.85,0,0,1,.738.948l-.031.242a.85.85,0,0,1-.695.732.847.847,0,0,1-.253.006.847.847,0,0,1-.738-.946l.03-.245A.85.85,0,0,1-2025.492,246.832Z" transform="translate(2071.403 -233.822)"/>
          <path id="Trazado_120386" data-name="Trazado 120386" d="M-2037.117,225.562a.851.851,0,0,1-.648,1.011l-.046.008a.94.94,0,0,1-.766-.187.946.946,0,0,1-.349-.745.851.851,0,0,1,.846-.852.853.853,0,0,1,.568.217A.849.849,0,0,1-2037.117,225.562Z" transform="translate(2080.356 -217.981)"/>
          <path id="Trazado_120387" data-name="Trazado 120387" d="M-2037.288,236.071a.85.85,0,0,1,.942.746l.025.218a.849.849,0,0,1-.7.933l-.05.009a.852.852,0,0,1-.942-.746l-.025-.218A.849.849,0,0,1-2037.288,236.071Z" transform="translate(2079.72 -226.084)"/>
          <path id="Trazado_120388" data-name="Trazado 120388" d="M-2034.67,248.22a1.173,1.173,0,0,1,.108,1.091.846.846,0,0,1-.644.527.849.849,0,0,1-.454-.043.849.849,0,0,1-.537-.886.851.851,0,0,1,.347-.919A.852.852,0,0,1-2034.67,248.22Z" transform="translate(2078.415 -234.556)"/>
          <path id="Trazado_120389" data-name="Trazado 120389" d="M-2094.011,296.822a.2.2,0,0,1,.013.049c0,.008,0,.017,0,.026,0,.032,0,.062.005.094s0,.049,0,.075-.007.058-.013.086-.008.051-.015.076-.019.053-.029.081-.017.048-.028.072-.028.048-.043.072a.467.467,0,0,1-.044.068.6.6,0,0,1-.05.056.623.623,0,0,1-.064.065.466.466,0,0,1-.051.039.8.8,0,0,1-.088.061.131.131,0,0,1-.018.012c-.018.01-.036.015-.054.024s-.04.018-.062.026a.8.8,0,0,1-.14.038h-.01c-1.119.182-2.26.415-3.362.643-.72.146-1.465.3-2.2.439h-.01a.794.794,0,0,1-.162.011c-.019,0-.037,0-.055-.005a.78.78,0,0,1-.1-.012c-.023,0-.041-.012-.064-.019s-.057-.018-.085-.028-.042-.021-.061-.03a.812.812,0,0,1-.077-.043l-.057-.04c-.022-.018-.045-.037-.066-.057a.443.443,0,0,1-.048-.05.712.712,0,0,1-.055-.068c-.014-.019-.029-.04-.041-.06a.615.615,0,0,1-.039-.077.442.442,0,0,1-.03-.07c0-.01-.01-.02-.014-.032a43.135,43.135,0,0,0-2.819-6.6,27.133,27.133,0,0,0-3.664-5.723,6.088,6.088,0,0,0-4.965-2.177,6.535,6.535,0,0,0-4.868,3.05,28.8,28.8,0,0,0-4.272,13.583c0,.006,0,.011,0,.018a.729.729,0,0,1-.014.1c0,.02-.006.042-.011.062s-.021.064-.032.1-.015.039-.022.058-.036.062-.055.092-.018.031-.029.044a.867.867,0,0,1-.093.107.049.049,0,0,0-.01.013.892.892,0,0,1-.276.171l-.052.013a.892.892,0,0,1-.1.029h0l-.008,0a.275.275,0,0,1-.04,0c-1.475.167-2.981.356-4.436.539q-1.471.184-2.957.367h-.018a.821.821,0,0,1-.146,0,.017.017,0,0,0-.01,0,.805.805,0,0,1-.143-.027.242.242,0,0,1-.044-.014l-.043-.012c-.014-.006-.026-.015-.038-.019-.028-.012-.057-.027-.083-.042a.712.712,0,0,1-.066-.042.727.727,0,0,1-.065-.051.455.455,0,0,1-.06-.058.38.38,0,0,1-.054-.061.793.793,0,0,1-.046-.065c-.015-.023-.03-.047-.043-.072l-.032-.074c-.009-.024-.018-.051-.027-.077s-.014-.058-.02-.087-.007-.029-.01-.044v-.032a.657.657,0,0,1,0-.09.78.78,0,0,1,0-.08c0-.027.01-.054.016-.081a.522.522,0,0,1,.024-.086l.007-.034c.227-.6.439-1.217.644-1.818a27.247,27.247,0,0,1,1.51-3.792c1.082-2.083,2.332-4.572,3.4-7.232a63.441,63.441,0,0,0,2.777-8.651c-.051.015-.1.029-.158.047a.933.933,0,0,1-.107.025.849.849,0,0,1-.956-.582.846.846,0,0,1,.557-1.064c.355-.112.721-.213,1.09-.31.344-1.636.621-3.286.812-4.919q.159-1.324.326-2.668c.27-2.177.545-4.413.756-6.636-.262.1-.517.212-.763.328a.825.825,0,0,1-.217.068.848.848,0,0,1-.913-.473.847.847,0,0,1,.4-1.13,15.421,15.421,0,0,1,1.646-.664c.129-1.754.191-3.336.191-4.819,0-2-.086-4.083-.165-6.1-.034-.893-.069-1.792-.1-2.694-.233.035-.469.067-.712.095a.85.85,0,0,1-.943-.744.848.848,0,0,1,.744-.942c.3-.037.584-.077.867-.12q-.02-.87-.023-1.738l-.088.011a.847.847,0,0,1-.94-.747.85.85,0,0,1,.746-.942c.1-.011.2-.028.3-.043a48.462,48.462,0,0,1,.347-5.159.3.3,0,0,1,.011-.049c.005-.031.013-.06.021-.09s.019-.051.028-.076a.724.724,0,0,1,.034-.075c.013-.024.028-.048.043-.072s.029-.042.047-.064.036-.041.056-.062l.059-.056c.021-.017.044-.033.067-.048s.045-.029.066-.042a.7.7,0,0,1,.088-.041.331.331,0,0,1,.044-.021.1.1,0,0,0,.023-.006.684.684,0,0,1,.091-.021.479.479,0,0,1,.075-.013c.027,0,.053,0,.081,0s.061,0,.089,0l.026,0c.017,0,.036.009.054.012a.566.566,0,0,1,.083.018l.083.031c.021.011.044.02.066.031a.862.862,0,0,1,.08.046c.02.014.039.028.059.044s.043.038.064.058a.7.7,0,0,1,.053.058.668.668,0,0,1,.051.069c.014.021.029.044.042.066s.027.056.041.086c0,.014.016.029.021.046.523,1.5.986,3.023,1.409,4.555a13.431,13.431,0,0,1,1.441-.249.849.849,0,0,1,.938.751.848.848,0,0,1-.752.936,10.917,10.917,0,0,0-1.192.206q.174.674.339,1.354c.359-.167.709-.345,1.051-.543a.851.851,0,0,1,1.161.311.848.848,0,0,1-.311,1.161,15.33,15.33,0,0,1-1.5.758c.447,1.954.857,3.906,1.26,5.831.514,2.46,1.05,4.991,1.652,7.472.232-.032.463-.066.692-.1l.62-.09a.851.851,0,0,1,.962.719.845.845,0,0,1-.719.963l-.622.09-.524.075c.249.958.5,1.853.751,2.715a50.072,50.072,0,0,0,4.294,9.945c.44-.2.869-.427,1.283-.672a.848.848,0,0,1,1.164.3.848.848,0,0,1-.3,1.164q-.644.382-1.319.7c1.024,1.805,2.109,3.606,3.166,5.352.754,1.247,1.533,2.537,2.279,3.811.834,1.42,1.7,2.838,2.531,4.207,1.46,2.392,2.969,4.869,4.344,7.421.009.015.012.032.021.048s.025.054.034.083A.632.632,0,0,1-2094.011,296.822Zm-4.393,0c.739-.151,1.494-.306,2.253-.448-.98-1.761-2.018-3.5-3.048-5.187-.228-.376-.458-.751-.685-1.123-.837-1.375-1.7-2.8-2.546-4.232-.087-.149-.175-.3-.264-.449-.658-1.117-1.339-2.243-2-3.338-1.1-1.816-2.229-3.691-3.3-5.579a43.237,43.237,0,0,1-8.113,1.793c-1.593.248-3.122.487-4.574.811a65.09,65.09,0,0,1-3.057,9.768c-1.094,2.727-2.366,5.262-3.468,7.382a25.845,25.845,0,0,0-1.409,3.559c-.063.184-.129.372-.193.56.527-.067,1.059-.13,1.582-.2,1.229-.156,2.491-.313,3.746-.458a30.79,30.79,0,0,1,4.519-13.737,8.217,8.217,0,0,1,6.154-3.8,7.75,7.75,0,0,1,6.348,2.731,17.787,17.787,0,0,1,1.4,1.776,39.589,39.589,0,0,1,2.511,4.3c.2.377.412.8.637,1.259a44.423,44.423,0,0,1,2.056,4.9C-2099.366,297.018-2098.881,296.92-2098.4,296.823Zm-10.424-21.863a52.151,52.151,0,0,1-4.336-10.1c-.276-.932-.542-1.9-.809-2.942a38.455,38.455,0,0,0-4.489.936c-.217,2.493-.523,5-.824,7.437-.111.89-.222,1.779-.326,2.657-.167,1.428-.4,2.87-.679,4.3,1.3-.26,2.623-.468,3.926-.671A43.3,43.3,0,0,0-2108.827,274.96Zm-5.554-14.694c-.484-2.006-.926-4.036-1.345-6.032-.1-.451-.191-.9-.285-1.349-.385-1.844-.775-3.711-1.2-5.578-.4.126-.805.237-1.226.334.031.988.069,1.975.107,2.954.05,1.291.1,2.61.133,3.921.018.751.031,1.5.031,2.238,0,1.343-.049,2.759-.15,4.3C-2117.036,260.727-2115.7,260.476-2114.382,260.266Zm-3.222-14.619q-.19-.788-.391-1.574c-.167.042-.335.083-.5.123q0,.853.016,1.709C-2118.182,245.828-2117.891,245.74-2117.6,245.647Zm-.829-3.217c-.013-.047-.025-.095-.041-.144,0,.051,0,.1,0,.156Z" transform="translate(2146.514 -226.684)"/>
          <path id="Trazado_120390" data-name="Trazado 120390" d="M-2048.47,226.791a.849.849,0,0,1,.942.746l.012.108a.849.849,0,0,1-.7.933.473.473,0,0,1-.053.007.848.848,0,0,1-.939-.747l-.012-.108A.849.849,0,0,1-2048.47,226.791Z" transform="translate(2087.762 -219.41)"/>
          <path id="Trazado_120391" data-name="Trazado 120391" d="M-2047.211,237.616a.852.852,0,0,1,.942.746l.025.218a.85.85,0,0,1-.7.933l-.05.009a.85.85,0,0,1-.942-.746l-.025-.218A.846.846,0,0,1-2047.211,237.616Z" transform="translate(2086.856 -227.195)"/>
          <path id="Trazado_120392" data-name="Trazado 120392" d="M-2045.357,249.948a.849.849,0,0,1,.941.744l.025.218a.85.85,0,0,1-.7.935.433.433,0,0,1-.051.007.85.85,0,0,1-.942-.746l-.025-.215A.846.846,0,0,1-2045.357,249.948Z" transform="translate(2085.522 -236.064)"/>
          <path id="Trazado_120393" data-name="Trazado 120393" d="M-2017.582,440.659a.982.982,0,0,1,.365.781.849.849,0,0,1-.7.846.832.832,0,0,1-.14.012.844.844,0,0,1-.617-.258.84.84,0,0,1-.393-.541.849.849,0,0,1,.641-1.016A.991.991,0,0,1-2017.582,440.659Z" transform="translate(2066.089 -373.079)"/>
          <path id="Trazado_120394" data-name="Trazado 120394" d="M-2024.291,429.615a.849.849,0,0,1-.246,1.175.835.835,0,0,1-.316.124.848.848,0,0,1-.858-.371l-.192-.294a.829.829,0,0,1-.079-.154.849.849,0,0,1,.325-1.02.848.848,0,0,1,1.175.246Z" transform="translate(2071.09 -364.796)"/>
          <path id="Trazado_120395" data-name="Trazado 120395" d="M-2044.452,470.062a.849.849,0,0,1,.913.779.848.848,0,0,1-.7.9c-.027,0-.055.007-.082.01-3.438.272-6.886.691-10.1,1.1a.849.849,0,0,1-.948-.736.852.852,0,0,1,.734-.948C-2051.4,470.758-2047.926,470.337-2044.452,470.062Z" transform="translate(2092.187 -394.371)"/>
          <path id="Trazado_120396" data-name="Trazado 120396" d="M-2030.682,419.728a.975.975,0,0,1,.365.779.848.848,0,0,1-.7.845.775.775,0,0,1-.14.012.836.836,0,0,1-.617-.258.843.843,0,0,1-.393-.543.849.849,0,0,1,.643-1.014A.982.982,0,0,1-2030.682,419.728Z" transform="translate(2075.511 -358.024)"/>
          <path id="Trazado_120397" data-name="Trazado 120397" d="M-2039.278,483.728a.849.849,0,0,1-.538,1.073,18.039,18.039,0,0,1-2.5.6,31.439,31.439,0,0,1-5.557.475.849.849,0,0,1-.833-.865.848.848,0,0,1,.865-.833,27.375,27.375,0,0,0,7.489-.987A.849.849,0,0,1-2039.278,483.728Z" transform="translate(2087.39 -403.783)"/>
          <path id="Trazado_120398" data-name="Trazado 120398" d="M-2036.273,408.57a.847.847,0,0,1,.01.88.85.85,0,0,1-.584.4.841.841,0,0,1-.579-.105,1.247,1.247,0,0,1-.391-.358,1.2,1.2,0,0,1-.213-.575.85.85,0,0,1,.751-.936.85.85,0,0,1,.883.537A.859.859,0,0,1-2036.273,408.57Z" transform="translate(2079.716 -349.648)"/>
          <path id="Trazado_120399" data-name="Trazado 120399" d="M-2044.409,396.588a.852.852,0,0,1-.246,1.177.841.841,0,0,1-.317.125.85.85,0,0,1-.858-.371l-.192-.294a.848.848,0,0,1,.246-1.175.849.849,0,0,1,1.175.246Z" transform="translate(2085.56 -341.044)"/>
          <path id="Trazado_120400" data-name="Trazado 120400" d="M-2052.032,384.974a.847.847,0,0,1,.132,1.031.845.845,0,0,1-.584.407.846.846,0,0,1-.577-.106,1.2,1.2,0,0,1-.605-.932.849.849,0,0,1,.751-.936A.848.848,0,0,1-2052.032,384.974Z" transform="translate(2090.962 -332.789)"/>
          <path id="Trazado_120401" data-name="Trazado 120401" d="M-2077.607,347.55a.831.831,0,0,1,.205.421.849.849,0,0,1-.689.983h0a8.751,8.751,0,0,1-1.174.105l-.13.006a10.878,10.878,0,0,0-1.377.162c-.207.036-.415.077-.625.121l-.025,0a.855.855,0,0,1-.775-.265c-.344-.373-.267-.662.021-1.734.041-.16.1-.375.115-.449a11.319,11.319,0,0,0,.053-1.169c0-.352.008-.715.037-1.08.013-.159.03-.318.048-.476.028-.255.054-.5.06-.728,0-.089.007-.189.014-.3a2.762,2.762,0,0,0,.01-.459.85.85,0,0,1,.45-1.094.85.85,0,0,1,1.116.441l0,0c.113.262.238.521.368.8.218.455.443.924.627,1.424a12.157,12.157,0,0,0,.661,1.516c.153.292.313.564.484.855.1.162.191.324.287.493.031.055.061.11.09.165C-2077.705,347.386-2077.656,347.479-2077.607,347.55Zm-2.061-.17c-.151-.258-.305-.524-.455-.808-.068-.128-.134-.261-.2-.4a9.418,9.418,0,0,1-.062.957,2.431,2.431,0,0,1-.07.325C-2080.18,347.423-2079.921,347.4-2079.668,347.38Z" transform="translate(2111.645 -301.934)"/>
          <path id="Trazado_120402" data-name="Trazado 120402" d="M-2082.979,297.233c0,.017,0,.034.007.051l.019.156a.85.85,0,0,1-.7.935.371.371,0,0,1-.051.007.849.849,0,0,1-.941-.744l-.019-.156c0-.028-.005-.055-.006-.083a.846.846,0,0,1,.752-.859A.852.852,0,0,1-2082.979,297.233Z" transform="translate(2113.252 -269.572)"/>
          <path id="Trazado_120403" data-name="Trazado 120403" d="M-2081.877,309.214a.849.849,0,0,1,.943.744l.036.313a.849.849,0,0,1-.7.933l-.05.009a.853.853,0,0,1-.941-.746l-.035-.311A.848.848,0,0,1-2081.877,309.214Z" transform="translate(2111.786 -278.688)"/>
          <path id="Trazado_120404" data-name="Trazado 120404" d="M-2068.351,488.276a.85.85,0,0,1,.74.945.852.852,0,0,1-.7.735.86.86,0,0,1-.251.005,9.422,9.422,0,0,0-3.013.295.852.852,0,0,1-1.018-.638.85.85,0,0,1,.638-1.018A11.305,11.305,0,0,1-2068.351,488.276Z" transform="translate(2104.583 -407.441)"/>
          <path id="Trazado_120405" data-name="Trazado 120405" d="M-2096.707,475.766a.85.85,0,0,1,.95.734.85.85,0,0,1-.7.946.214.214,0,0,1-.038,0c-3.526.454-7.288.922-11.122,1.216a.849.849,0,0,1-.912-.782.847.847,0,0,1,.782-.911C-2103.948,476.682-2100.21,476.216-2096.707,475.766Z" transform="translate(2130.413 -398.47)"/>
          <path id="Trazado_120406" data-name="Trazado 120406" d="M-2091.752,391.338a.852.852,0,0,1,.3,1.152.856.856,0,0,1-.6,1.031c-.025.006-.05.013-.074.017a.84.84,0,0,1-.963-.609,1.643,1.643,0,0,1,.173-1.3A.85.85,0,0,1-2091.752,391.338Z" transform="translate(2119.355 -337.669)"/>
          <path id="Trazado_120407" data-name="Trazado 120407" d="M-2095.526,402.843a.846.846,0,0,1,.608,1.033,1.35,1.35,0,0,1-.758.914.825.825,0,0,1-.193.058.849.849,0,0,1-.926-.5.851.851,0,0,1,.273-1.022A.853.853,0,0,1-2095.526,402.843Z" transform="translate(2122.025 -346.009)"/>
          <path id="Trazado_120408" data-name="Trazado 120408" d="M-2097.531,490.72a.847.847,0,0,1,.859.838.85.85,0,0,1-.7.848,1.035,1.035,0,0,1-.138.013,14.476,14.476,0,0,0-2.457.32,20.678,20.678,0,0,1-2.146.322.846.846,0,0,1-.915-.777.85.85,0,0,1,.779-.915,19.286,19.286,0,0,0,1.971-.3A16.016,16.016,0,0,1-2097.531,490.72Z" transform="translate(2126.46 -409.229)"/>
          <path id="Trazado_120409" data-name="Trazado 120409" d="M-2099.736,415.181a.85.85,0,0,1-.3.95.855.855,0,0,1-.634.5.9.9,0,0,1-.223.009.849.849,0,0,1-.77-.921,1.235,1.235,0,0,1,.853-1.079A.849.849,0,0,1-2099.736,415.181Z" transform="translate(2125.479 -354.483)"/>
          <path id="Trazado_120410" data-name="Trazado 120410" d="M-2149.964,243.306a4.335,4.335,0,0,1,.014,4,5.054,5.054,0,0,1-1.454,1.756,4.7,4.7,0,0,1-2.032.909,3.9,3.9,0,0,1-2.772-.526,4.221,4.221,0,0,1-1.864-3.636,5.17,5.17,0,0,1,2.034-4.358,4.035,4.035,0,0,1,1.547-.63A4.341,4.341,0,0,1-2149.964,243.306Zm-1.505,3.244a2.651,2.651,0,0,0-.005-2.469,2.661,2.661,0,0,0-2.723-1.586,2.334,2.334,0,0,0-.9.369,3.548,3.548,0,0,0-1.281,2.918,2.568,2.568,0,0,0,1.061,2.221,2.236,2.236,0,0,0,.759.3,2.311,2.311,0,0,0,.823,0A3.278,3.278,0,0,0-2151.469,246.55Z" transform="translate(2166.046 -229.463)"/>
          <path id="Trazado_120411" data-name="Trazado 120411" d="M-2104.163,427.571a.839.839,0,0,1-.1.664.851.851,0,0,1-.494.658.9.9,0,0,1-.2.061.851.851,0,0,1-.923-.491,1.1,1.1,0,0,1-.012-.94,1.043,1.043,0,0,1,.691-.557A.85.85,0,0,1-2104.163,427.571Z" transform="translate(2128.589 -363.358)"/>
          <path id="Trazado_120412" data-name="Trazado 120412" d="M-2110.116,438.973a.85.85,0,0,1,.139,1.193l-.276.346a.842.842,0,0,1-.519.309.846.846,0,0,1-.675-.17.847.847,0,0,1-.136-1.192l.273-.348A.85.85,0,0,1-2110.116,438.973Z" transform="translate(2132.744 -371.882)"/>
          <path id="Trazado_120413" data-name="Trazado 120413" d="M-2114.957,450.035a1.094,1.094,0,0,1,.012.94,1.038,1.038,0,0,1-.689.555c-.025.006-.048.013-.071.017a.852.852,0,0,1-.969-.619.852.852,0,0,1,.1-.667.847.847,0,0,1,.494-.658A.849.849,0,0,1-2114.957,450.035Z" transform="translate(2136.292 -379.606)"/>
        </g>
      </g>
    </g>
  </g>
</svg>
