<svg xmlns="http://www.w3.org/2000/svg" xmlns:xlink="http://www.w3.org/1999/xlink" width="285" height="305" viewBox="0 0 285 305">
  <defs>
    <clipPath id="clip-path">
      <rect id="Rectángulo_42369" data-name="Rectángulo 42369" width="131.077" height="7.621" fill="none"/>
    </clipPath>
  </defs>
  <g id="_106" data-name="106" transform="translate(-6056 4092)">
    <rect id="Rectángulo_41593" data-name="Rectángulo 41593" width="285" height="305" rx="14" transform="translate(6056 -4092)" fill="#ffd947"/>
    <g id="Grupo_169108" data-name="Grupo 169108" transform="translate(-5.516 -416.172)">
      <rect id="Rectángulo_42364" data-name="Rectángulo 42364" width="235.482" height="8.383" transform="translate(6092.524 -3551.354)" fill="#4c4dbd"/>
      <rect id="Rectángulo_42365" data-name="Rectángulo 42365" width="25.911" height="5.525" transform="translate(6105.479 -3550.083)" fill="#fff"/>
      <rect id="Rectángulo_42366" data-name="Rectángulo 42366" width="25.911" height="5.525" transform="translate(6201.12 -3550.083)" fill="#fff"/>
      <rect id="Rectángulo_42367" data-name="Rectángulo 42367" width="25.911" height="5.525" transform="translate(6293.331 -3550.083)" fill="#fff"/>
      <g id="Grupo_169102" data-name="Grupo 169102" transform="translate(6079.516 -3665.828)">
        <g id="Grupo_169106" data-name="Grupo 169106" transform="translate(0 0)">
          <path id="Trazado_158995" data-name="Trazado 158995" d="M115.539,170.449a.506.506,0,0,0-.3.916l15.965,11.565v1.657a1.1,1.1,0,0,0,1.1,1.1h24.63a1.1,1.1,0,0,0,1.1-1.1V182.93l15.966-11.565a.506.506,0,0,0-.3-.916Z" transform="translate(-92.498 -71.248)" fill="#cf795e"/>
          <path id="Trazado_158996" data-name="Trazado 158996" d="M138.366,186.371a40.777,40.777,0,0,1,5.906-.381,40.241,40.241,0,0,1,5.906.381,40.248,40.248,0,0,1-5.906.381,40.781,40.781,0,0,1-5.906-.381" transform="translate(-98.05 -74.946)" fill="#290920"/>
          <path id="Trazado_158997" data-name="Trazado 158997" d="M137.366,184.705a6,6,0,0,1,4.209,0,6,6,0,0,1-4.209,0" transform="translate(-97.812 -74.549)" fill="#290920"/>
          <path id="Trazado_158998" data-name="Trazado 158998" d="M223.654,165.824h-2.485s-6.968,4.367-6.132,11.335c.676,5.632,3.051,7.076,3.938,7.423a1.514,1.514,0,0,0,.555.1h5.765a1.517,1.517,0,0,0,.555-.1c.886-.347,3.262-1.791,3.937-7.423.837-6.968-6.132-11.335-6.132-11.335" transform="translate(-116.275 -70.148)" fill="#fff"/>
          <path id="Trazado_158999" data-name="Trazado 158999" d="M224.7,187.038a2.781,2.781,0,0,1,1.461-.381,2.746,2.746,0,0,1,1.46.381,2.753,2.753,0,0,1-1.46.381,2.782,2.782,0,0,1-1.461-.381" transform="translate(-118.59 -75.104)" fill="#290920"/>
          <path id="Trazado_159000" data-name="Trazado 159000" d="M267.454,155.875a26.694,26.694,0,0,1-2.183-7.351h-9.92a26.715,26.715,0,0,1-2.184,7.351c-1.819,4-4.4,12.118-2.692,17.613,1.025,3.294,4.166,5.52,5.568,6.376a2.672,2.672,0,0,0,1.394.393h5.748a2.672,2.672,0,0,0,1.394-.393c1.4-.856,4.544-3.082,5.569-6.376,1.71-5.5-.873-13.61-2.693-17.613" transform="translate(-124.589 -66.032)" fill="#fff"/>
          <path id="Trazado_159001" data-name="Trazado 159001" d="M264.7,185.705a4.822,4.822,0,0,1,1.973-.381,4.77,4.77,0,0,1,1.972.381,4.769,4.769,0,0,1-1.972.381,4.823,4.823,0,0,1-1.973-.381" transform="translate(-128.107 -74.787)" fill="#290920"/>
          <path id="Trazado_159002" data-name="Trazado 159002" d="M266.2,184.205a1.551,1.551,0,0,1,2.036,0,1.551,1.551,0,0,1-2.036,0" transform="translate(-128.464 -74.43)" fill="#290920"/>
          <path id="Trazado_159003" data-name="Trazado 159003" d="M351.41,150.733c-2.711-1.175-1.807-8.223-1.807-8.223h-6.326s.9,7.048-1.807,8.223-3.977,2.44-3.977,4.97v21.823a1.581,1.581,0,0,0,1.581,1.581H353.8a1.581,1.581,0,0,0,1.581-1.581V155.7c0-2.53-1.265-3.8-3.976-4.97" transform="translate(-145.427 -64.601)" fill="#cc6c4e"/>
          <path id="Trazado_159004" data-name="Trazado 159004" d="M338.866,186.871a18.917,18.917,0,0,1,4.005-.381,18.721,18.721,0,0,1,4.005.381,18.724,18.724,0,0,1-4.005.381,18.921,18.921,0,0,1-4.005-.381" transform="translate(-145.753 -75.065)" fill="#290920"/>
          <path id="Trazado_159005" data-name="Trazado 159005" d="M339.366,184.705a3.774,3.774,0,0,1,3.305,0,3.44,3.44,0,0,1-1.653.381,3.475,3.475,0,0,1-1.652-.381" transform="translate(-145.872 -74.549)" fill="#290920"/>
          <path id="Trazado_159006" data-name="Trazado 159006" d="M363.96,180.157a.26.26,0,0,0-.153.471l8.216,5.951v.853a.568.568,0,0,0,.568.568h12.673a.568.568,0,0,0,.569-.568v-.853l8.215-5.951a.26.26,0,0,0-.152-.471Z" transform="translate(-151.661 -73.558)" fill="#cc6c4e"/>
          <path id="Trazado_159007" data-name="Trazado 159007" d="M377.7,187.538a28.056,28.056,0,0,1,4.89-.381,27.689,27.689,0,0,1,4.89.381,27.763,27.763,0,0,1-4.89.381,28.056,28.056,0,0,1-4.89-.381" transform="translate(-154.992 -75.223)" fill="#290920"/>
          <path id="Trazado_159008" data-name="Trazado 159008" d="M188.426,113.5l6.609-11.448H170.143l6.61,11.448a6.74,6.74,0,0,0,11.673,0" transform="translate(-105.61 -54.976)" fill="#4c4dbd"/>
          <path id="Trazado_159009" data-name="Trazado 159009" d="M194.619,44.443l-.754.072L182.35,1.4,171.124,44.159l-.754-.068L181.946,0h.8Z" transform="translate(-105.664)" fill="#4c4dbd"/>
          <path id="Trazado_159010" data-name="Trazado 159010" d="M176.094,101.788s-14.67-16.956-30.864-1.143c-9.447,9.224-5.6,11.253-.761,11.341a17.9,17.9,0,0,0,10.834-3.548c4.909-3.58,14.114-9.188,20.791-6.65" transform="translate(-98.303 -53.036)" fill="#5ac8ab"/>
          <path id="Trazado_159011" data-name="Trazado 159011" d="M184.727,101.867s13.956-12.479,26.149-.286,3.239,29.53-2.286,29.149-5.43-29.578-23.863-28.864" transform="translate(-109.08 -53.591)" fill="#5ac8ab"/>
          <path id="Trazado_159012" data-name="Trazado 159012" d="M178.292,94.621s-5.525-30.293-21.338-25.53,16.956,21.529,21.338,25.53" transform="translate(-101.454 -47.012)" fill="#5ac8ab"/>
          <path id="Trazado_159013" data-name="Trazado 159013" d="M184.665,97.48s10.193-23.434,22.577-17.528S184.665,97.48,184.665,97.48" transform="translate(-109.065 -49.49)" fill="#5ac8ab"/>
          <path id="Trazado_159014" data-name="Trazado 159014" d="M180.541,102.563s-22.577,24.148-14.765,47.583c0,0-11.336-24.53,14.765-47.583" transform="translate(-103.988 -55.096)" fill="#5ac8ab"/>
          <path id="Trazado_159015" data-name="Trazado 159015" d="M185.29,102.813s13.146,8.336,11.622,26.435c0,0,7.811-22.243-11.622-26.435" transform="translate(-109.214 -55.156)" fill="#5ac8ab"/>
          <path id="Trazado_159016" data-name="Trazado 159016" d="M143.706,108.885a34.755,34.755,0,0,1,6.827-5.719,32.373,32.373,0,0,1,8.107-3.8,24.867,24.867,0,0,1,4.418-.863,19.405,19.405,0,0,1,4.5,0,20.328,20.328,0,0,1,8.409,2.886,25.229,25.229,0,0,0-4.142-1.549,19.817,19.817,0,0,0-4.32-.753,23.631,23.631,0,0,0-8.65,1.007,34.3,34.3,0,0,0-8.014,3.566,41.845,41.845,0,0,0-3.684,2.439,40.982,40.982,0,0,0-3.451,2.784" transform="translate(-99.32 -54.1)" fill="#290920"/>
          <path id="Trazado_159017" data-name="Trazado 159017" d="M211.616,125.99a37.042,37.042,0,0,0,.024-5.1,33.313,33.313,0,0,0-.632-5.038,20.115,20.115,0,0,0-4.068-9.083,14.141,14.141,0,0,0-3.777-3.214,16.363,16.363,0,0,0-4.672-1.763l-1.236-.251L196,101.4a25.021,25.021,0,0,0-2.533-.127c-.847-.014-1.7.053-2.547.075l-2.545.258c.837-.16,1.678-.32,2.523-.459.851-.08,1.7-.2,2.56-.248a24.483,24.483,0,0,1,2.58.02l1.291.093,1.282.206a15.391,15.391,0,0,1,4.9,1.734,14.83,14.83,0,0,1,4.018,3.329,20.077,20.077,0,0,1,4.057,9.463,32.117,32.117,0,0,1,.035,10.249" transform="translate(-109.947 -54.694)" fill="#290920"/>
          <path id="Trazado_159018" data-name="Trazado 159018" d="M204.989,83c-.8.436-1.609.858-2.393,1.321-.795.44-1.578.9-2.355,1.368-1.547.947-3.079,1.914-4.566,2.945-1.5,1.008-2.94,2.108-4.361,3.229l-1.058.854-1.02.9c-.716.565-1.33,1.235-2.029,1.83a30.392,30.392,0,0,1,3.725-4.028,38.418,38.418,0,0,1,4.312-3.412,44.836,44.836,0,0,1,4.712-2.827A35.426,35.426,0,0,1,204.989,83" transform="translate(-109.67 -50.442)" fill="#290920"/>
          <path id="Trazado_159019" data-name="Trazado 159019" d="M156.873,73.833a39.466,39.466,0,0,1,6.448,3.109,45.943,45.943,0,0,1,5.88,4.119,37.525,37.525,0,0,1,5.1,5.062,30.409,30.409,0,0,1,3.911,6c-.719-.957-1.293-2-2.079-2.894-.368-.464-.716-.943-1.094-1.4l-1.18-1.324a50.315,50.315,0,0,0-5.142-4.861,67.025,67.025,0,0,0-5.7-4.21c-.99-.651-2-1.28-3.022-1.872-1.014-.62-2.061-1.179-3.118-1.732" transform="translate(-102.453 -48.261)" fill="#290920"/>
          <path id="Trazado_159020" data-name="Trazado 159020" d="M226.937,265.3s-27.054,28.219-25.783,59.464h92.211s4.575-35.353-24.512-59.464Z" transform="translate(-112.978 -93.816)" fill="#004b80"/>
          <rect id="Rectángulo_42368" data-name="Rectángulo 42368" width="20.382" height="15.373" transform="translate(125.103 99.349) rotate(-83.919)" fill="#fa9778"/>
          <path id="Trazado_159021" data-name="Trazado 159021" d="M267.2,149.962l-.28,2.625a13.87,13.87,0,0,1-15.285-1.628l.28-2.625a13.872,13.872,0,0,0,15.285,1.627" transform="translate(-124.999 -65.987)" fill="#290920"/>
          <path id="Trazado_159022" data-name="Trazado 159022" d="M243.072,164.038a2.392,2.392,0,0,1,1.8-2.593c4.477-1.027,13.922-3.117,14.7-2.634,1.016.636,2.286,9.4,5.969,10.415s8.891,1.905,13.336,2.921,6.1,18.036,4.319,23.752-9.649,37.679-9.016,44.051H232.263s-.636-16.235-5.335-30.334-4.065-29.848-1.143-33.278,6.859-4.191,11.3-5.588c3.7-1.164,6.263-3.475,5.983-6.712" transform="translate(-118.304 -68.462)" fill="#ffb41b"/>
          <path id="Trazado_159023" data-name="Trazado 159023" d="M206.995,303.126c-.762-33.341,24.767-85.543,24.767-85.543l-.854-43.066,4.854-2.468,2.286,21.91h22.1l.572-22.553,6.287,1.93-.572,45.391s26.292,59.442,24.2,82.3Z" transform="translate(-114.374 -71.476)" fill="#fff"/>
          <path id="Trazado_159024" data-name="Trazado 159024" d="M274.489,120.223a4.313,4.313,0,0,0-2.17-.113l.354-3.328a13.863,13.863,0,1,0-27.57-2.937l-.354,3.329a4.331,4.331,0,0,0-6.053,4.371c.223,2.382,2.524,6.145,4.906,5.922a2.182,2.182,0,0,0,.272-.054,13.847,13.847,0,0,0,27.143,2.891,2.21,2.21,0,0,0,.255.11c2.282.72,5.324-2.474,6.044-4.755a4.332,4.332,0,0,0-2.827-5.435" transform="translate(-121.916 -54.831)" fill="#fa9778"/>
          <path id="Trazado_159025" data-name="Trazado 159025" d="M241.308,125.2a3.363,3.363,0,0,1,1.428.126,3.743,3.743,0,0,1,1.3.681,2.845,2.845,0,0,1,.86,1.228,2.479,2.479,0,0,1,.067,1.448,5.807,5.807,0,0,0-.526-1.236,3.717,3.717,0,0,0-.818-.943,9.79,9.79,0,0,0-2.316-1.3" transform="translate(-122.542 -60.476)" fill="#290920"/>
          <path id="Trazado_159026" data-name="Trazado 159026" d="M242.873,130.429a2.359,2.359,0,0,1-.345-1.065,2.736,2.736,0,0,1,.13-1.145,2.126,2.126,0,0,1,.694-.961,1.74,1.74,0,0,1,1.078-.367,5.024,5.024,0,0,0-.725.729,3.013,3.013,0,0,0-.437.818,10.692,10.692,0,0,0-.395,1.991" transform="translate(-122.829 -60.885)" fill="#290920"/>
          <path id="Trazado_159027" data-name="Trazado 159027" d="M285.966,130.053a9.793,9.793,0,0,0-2.539.786,3.707,3.707,0,0,0-1,.751,5.809,5.809,0,0,0-.774,1.1,2.471,2.471,0,0,1,.37-1.4,2.842,2.842,0,0,1,1.1-1.02,3.733,3.733,0,0,1,1.418-.391,3.357,3.357,0,0,1,1.423.178" transform="translate(-132.141 -61.592)" fill="#290920"/>
          <path id="Trazado_159028" data-name="Trazado 159028" d="M284.1,134.757a10.649,10.649,0,0,0,.034-2.03,3.033,3.033,0,0,0-.255-.891,5.022,5.022,0,0,0-.556-.866,1.737,1.737,0,0,1,.976.587,2.12,2.12,0,0,1,.476,1.085,2.74,2.74,0,0,1-.113,1.147,2.375,2.375,0,0,1-.562.969" transform="translate(-132.538 -61.855)" fill="#290920"/>
          <path id="Trazado_159029" data-name="Trazado 159029" d="M275.266,136.46a3.61,3.61,0,1,1-3.208-3.972,3.61,3.61,0,0,1,3.208,3.972" transform="translate(-128.908 -62.211)" fill="#fa7c55"/>
          <path id="Trazado_159030" data-name="Trazado 159030" d="M256.449,134.457a3.61,3.61,0,1,1-3.208-3.972,3.611,3.611,0,0,1,3.208,3.972" transform="translate(-124.431 -61.735)" fill="#fa7c55"/>
          <path id="Trazado_159031" data-name="Trazado 159031" d="M258.776,135.89a8.664,8.664,0,0,0,3.17,1.428,3.647,3.647,0,0,0,1.63-.074,8.427,8.427,0,0,0,1.657-.667,3.483,3.483,0,0,1-1.44,1.262,3.41,3.41,0,0,1-.961.3,4.075,4.075,0,0,1-1.015-.02,4.368,4.368,0,0,1-3.041-2.229" transform="translate(-126.698 -63.026)" fill="#290920"/>
          <path id="Trazado_159032" data-name="Trazado 159032" d="M263.444,124.55a16.693,16.693,0,0,1,.027,2.1,4.236,4.236,0,0,1-.176,1.09,3.074,3.074,0,0,1-.573.993c-.24.278-.488.521-.706.767a1.327,1.327,0,0,0-.411.725c-.03.53.5,1.11,1.062,1.484a2.286,2.286,0,0,1-.977-.456,1.481,1.481,0,0,1-.59-1.02,1.686,1.686,0,0,1,.446-1.125c.228-.287.474-.534.68-.789a3.2,3.2,0,0,0,.745-1.728,17.414,17.414,0,0,1,.473-2.042" transform="translate(-127.25 -60.328)" fill="#290920"/>
          <path id="Trazado_159033" data-name="Trazado 159033" d="M252.268,120.821a4.825,4.825,0,0,1,1.571-1.081,5.492,5.492,0,0,1,1.855-.479,5.681,5.681,0,0,1,1.92.135,5.4,5.4,0,0,1,1.728.76.684.684,0,0,1-.557,1.232l-.053-.015c-.516-.145-1-.313-1.492-.424a7.4,7.4,0,0,0-1.487-.223,6.011,6.011,0,0,0-2.949.706l-.052.027a.405.405,0,0,1-.484-.638" transform="translate(-125.122 -59.064)" fill="#290920"/>
          <path id="Trazado_159034" data-name="Trazado 159034" d="M258.632,127.184a1.556,1.556,0,1,1-1.382-1.711,1.556,1.556,0,0,1,1.382,1.711" transform="translate(-125.925 -60.545)" fill="#290920"/>
          <path id="Trazado_159035" data-name="Trazado 159035" d="M254.912,125.523a1.153,1.153,0,0,0,.94.3.425.425,0,0,1,.337.781.431.431,0,0,1-.188.034l-.1-.005a1.449,1.449,0,0,1-.795-.3,2.347,2.347,0,0,1-.508-.539.206.206,0,0,1,.3-.28Z" transform="translate(-125.696 -60.546)" fill="#290920"/>
          <path id="Trazado_159036" data-name="Trazado 159036" d="M273.742,123.6a6.157,6.157,0,0,0-1.292-.834,6.232,6.232,0,0,0-1.441-.476,7.374,7.374,0,0,0-1.5-.095c-.505,0-1.014.067-1.549.1l-.055,0a.684.684,0,0,1-.285-1.321,5.384,5.384,0,0,1,1.848-.379,5.678,5.678,0,0,1,1.906.272,5.485,5.485,0,0,1,1.712.859,4.81,4.81,0,0,1,1.309,1.388.4.4,0,0,1-.607.522Z" transform="translate(-128.697 -59.386)" fill="#290920"/>
          <path id="Trazado_159037" data-name="Trazado 159037" d="M268.159,128.2a1.556,1.556,0,1,0,1.712-1.382,1.556,1.556,0,0,0-1.712,1.382" transform="translate(-128.928 -60.865)" fill="#290920"/>
          <path id="Trazado_159038" data-name="Trazado 159038" d="M272.831,127.785a2.336,2.336,0,0,1-.61.419,1.437,1.437,0,0,1-.841.129l-.094-.015a.425.425,0,0,1,.136-.839.436.436,0,0,1,.178.073,1.15,1.15,0,0,0,.982-.094l.017-.008a.206.206,0,0,1,.232.336" transform="translate(-129.59 -61.012)" fill="#290920"/>
          <path id="Trazado_159039" data-name="Trazado 159039" d="M241.954,115.628c10.5,3.438,13.48-8.675,13.48-8.675s6.171,12.183,11.921,11.943c0,0-.7,2.717.137,3.016s2.084-3.572,2.084-3.572,3.7-.163,4.682,2.75-1.042,6.968-6.043,7.6c0,0-1.671,5.754-6.89,8.445l-.833,7.771A6.678,6.678,0,0,0,267,152.326c3.791.04,7.917-.78,9.219-4.238,2.6-6.9.373-19.557,1.986-25.589s-1.8-21.411-9.761-22.9c0,0-24.661-15.545-32.7,7.346-1.709,4.869-.708,10.473-2.289,15.386a21.088,21.088,0,0,1-4.178,7.513,8.9,8.9,0,0,0,.6,12.638,18.371,18.371,0,0,0,14.9,4.506l1.253-11.473s-3.53-2.363-5.018-9.7c0,0-4.985-.781-4.753-7.051a3.644,3.644,0,0,1,1.157-2.6c.829-.736,2.233-1.285,4.527-.533" transform="translate(-119.123 -53.163)" fill="#290920"/>
          <g id="Grupo_169100" data-name="Grupo 169100" transform="translate(69.377 250.954)" opacity="0.6" style="mix-blend-mode: multiply;isolation: isolate">
            <g id="Grupo_169099" data-name="Grupo 169099">
              <g id="Grupo_169098" data-name="Grupo 169098" clip-path="url(#clip-path)">
                <path id="Trazado_159040" data-name="Trazado 159040" d="M307.577,373.39c0,2.1-29.343,3.81-65.539,3.81s-65.539-1.706-65.539-3.81,29.342-3.81,65.539-3.81,65.539,1.706,65.539,3.81" transform="translate(-176.5 -369.58)" fill="#42a3e8"/>
              </g>
            </g>
          </g>
          <path id="Trazado_159041" data-name="Trazado 159041" d="M187.49,323.586v11.741h.039c.821,3.527,24.875,6.357,54.45,6.357s53.629-2.83,54.45-6.357h.039V323.586Z" transform="translate(-109.737 -107.683)" fill="#bddbf2"/>
          <path id="Trazado_159042" data-name="Trazado 159042" d="M296.467,321.543c0,3.614-24.4,6.543-54.489,6.543s-54.488-2.929-54.488-6.543S211.886,315,241.978,315s54.489,2.929,54.489,6.543" transform="translate(-109.737 -105.64)" fill="#fff"/>
          <rect id="Rectángulo_42370" data-name="Rectángulo 42370" width="14.853" height="30.031" transform="translate(124.815 224.093)" fill="#bddbf2"/>
          <path id="Trazado_159043" data-name="Trazado 159043" d="M277.248,372.256H224.156A5.843,5.843,0,0,1,230,366.413H271.4a5.843,5.843,0,0,1,5.843,5.843" transform="translate(-118.461 -117.872)" fill="#bddbf2"/>
          <rect id="Rectángulo_42371" data-name="Rectángulo 42371" width="14.837" height="7.684" transform="translate(124.818 233.937)" fill="#290920"/>
          <path id="Trazado_159044" data-name="Trazado 159044" d="M249.333,366.461A51.905,51.905,0,0,1,256,366.08a51.225,51.225,0,0,1,6.669.381,51.23,51.23,0,0,1-6.669.381,51.916,51.916,0,0,1-6.668-.381" transform="translate(-124.451 -117.793)" fill="#290920"/>
          <path id="Trazado_159045" data-name="Trazado 159045" d="M189.167,337.881a33.4,33.4,0,0,1,5.341-.381,33.057,33.057,0,0,1,5.341.381,33.054,33.054,0,0,1-5.341.381,33.4,33.4,0,0,1-5.341-.381" transform="translate(-110.136 -110.993)" fill="#290920"/>
          <path id="Trazado_159046" data-name="Trazado 159046" d="M189.667,335.881a7.458,7.458,0,0,1,4.707,0,7.457,7.457,0,0,1-4.707,0" transform="translate(-110.255 -110.517)" fill="#290920"/>
          <path id="Trazado_159047" data-name="Trazado 159047" d="M277.688,256.976c-1.51-16.237-14.822-31.342-13.406-36.911a18.212,18.212,0,0,1,2.11-5.538.442.442,0,0,0-.361-.693H235.059a.442.442,0,0,0-.361.693,18.213,18.213,0,0,1,2.11,5.538c1.416,5.569-11.9,20.674-13.406,36.911-1.037,11.148,7.117,26.423,10.747,32.88a10.136,10.136,0,0,0,2.57,2.993l0,.1s.117.057.335.155a9.737,9.737,0,0,0,2.635,1.356,38.124,38.124,0,0,0,21.717,0,9.735,9.735,0,0,0,2.635-1.356c.217-.1.335-.155.335-.155l0-.1a10.135,10.135,0,0,0,2.57-2.993c3.63-6.456,11.784-21.732,10.747-32.88" transform="translate(-118.26 -81.57)" fill="#cf795e"/>
          <path id="Trazado_159048" data-name="Trazado 159048" d="M239.167,312.714a40.86,40.86,0,0,1,5.911-.381,40.312,40.312,0,0,1,5.911.381,40.3,40.3,0,0,1-5.911.381,40.847,40.847,0,0,1-5.911-.381" transform="translate(-122.033 -105.006)" fill="#290920"/>
          <path id="Trazado_159049" data-name="Trazado 159049" d="M238.833,311.381a4.823,4.823,0,0,1,1.973-.381,4.77,4.77,0,0,1,1.972.381,4.77,4.77,0,0,1-1.972.381,4.822,4.822,0,0,1-1.973-.381" transform="translate(-121.953 -104.688)" fill="#290920"/>
          <path id="Trazado_159050" data-name="Trazado 159050" d="M236.526,237.017a5.662,5.662,0,0,1,4.07-1.653,14.987,14.987,0,0,1,4.422.786c2.829.86,5.668,1.644,8.557,2.237a27.207,27.207,0,0,0,8.673.946,9.251,9.251,0,0,0,4.054-1.4,6.752,6.752,0,0,0,2.766-3.3,6.636,6.636,0,0,1-2.554,3.605,9.661,9.661,0,0,1-4.187,1.677,16.171,16.171,0,0,1-4.511-.012c-1.488-.187-2.946-.471-4.4-.771a78.58,78.58,0,0,1-8.573-2.424,14.706,14.706,0,0,0-4.246-.971,5.685,5.685,0,0,0-4.069,1.281" transform="translate(-121.404 -86.519)" fill="#290920"/>
          <path id="Trazado_159051" data-name="Trazado 159051" d="M232.1,249.551a16.45,16.45,0,0,1,5.524-1.26,24.98,24.98,0,0,1,5.689.391,77.042,77.042,0,0,1,10.879,3.251c3.537,1.244,7.164,2.394,10.89,2.34a12.764,12.764,0,0,0,5.376-1.219,9.546,9.546,0,0,0,4.148-3.651,9.362,9.362,0,0,1-3.978,3.984,13.2,13.2,0,0,1-5.527,1.472c-3.871.178-7.594-1.016-11.158-2.206a86.051,86.051,0,0,0-10.742-3.4,24.85,24.85,0,0,0-5.565-.593,17.49,17.49,0,0,0-5.536.889" transform="translate(-120.352 -89.761)" fill="#290920"/>
          <path id="Trazado_159052" data-name="Trazado 159052" d="M225.25,281.381c4.178-.157,8.355-.231,12.532-.292s8.355-.057,12.532-.088c4.178.03,8.355.027,12.532.087l6.267.107c2.089.063,4.178.1,6.266.187-2.088.086-4.177.123-6.266.187l-6.267.107c-4.177.06-8.355.057-12.532.087-4.178-.031-8.355-.026-12.532-.088s-8.355-.135-12.532-.292" transform="translate(-118.721 -97.551)" fill="#290920"/>
          <path id="Trazado_159053" data-name="Trazado 159053" d="M228.5,292.881c3.715-.157,7.431-.231,11.146-.292s7.431-.057,11.146-.088c3.716.03,7.431.027,11.147.087l5.573.107c1.857.063,3.715.1,5.573.187-1.858.086-3.716.123-5.573.187l-5.573.107c-3.716.06-7.431.057-11.147.087-3.715-.031-7.43-.026-11.146-.088s-7.431-.135-11.146-.292" transform="translate(-119.495 -100.287)" fill="#290920"/>
          <path id="Trazado_159054" data-name="Trazado 159054" d="M240.961,225.825l-.009.005c-1.072.152-3.885.545-8.119,1.055V239.61c3.538-1.732,7.087-3.476,10.664-5.174v-.024l-2.055-8.656-.479.069" transform="translate(-120.526 -84.407)" fill="#fa9778"/>
          <path id="Trazado_159055" data-name="Trazado 159055" d="M244.869,232.7s13,.126,16.449-2.144c.769-.506-1.018-.912-3.448-.988,0,0,6.075-1.623,6.665-2.14s-8.65-.039-8.65-.039,9.6-2.073,9.8-2.947-9.157.264-9.157.264,7.706-1.722,7.843-2.583-10.861.623-10.861.623,2.369-3.831,1.156-4.163-4.965,2.369-6.228,3.615-7.892,2.349-7.892,2.349Z" transform="translate(-122.361 -82.694)" fill="#fa9778"/>
          <path id="Trazado_159056" data-name="Trazado 159056" d="M219.5,175.667s-18.036,3.3-33.4,19.941-25.276,23.243-23.5,35.69,61.093-5.716,61.093-5.716L220.9,214.152l-27.18,1.905,25.4-14.988Z" transform="translate(-103.767 -72.49)" fill="#ffb41b"/>
          <path id="Trazado_159057" data-name="Trazado 159057" d="M180.625,230.844a44.074,44.074,0,0,1,8.736-2.1,34.192,34.192,0,0,1,8.983-.19c-2.992.216-5.933.526-8.878.944s-5.875.9-8.84,1.342" transform="translate(-108.104 -85.022)" fill="#290920"/>
          <path id="Trazado_159058" data-name="Trazado 159058" d="M225.438,214.778,231.487,211l-5.081,7.779-.5-1.779c-.05-.18-.094-.361-.131-.543Z" transform="translate(-118.766 -80.896)" fill="#290920"/>
          <path id="Trazado_159059" data-name="Trazado 159059" d="M186.75,226.068a15.923,15.923,0,0,1,2.743-.181,21.3,21.3,0,0,1,2.741.2,16.347,16.347,0,0,1,2.7.592,8.232,8.232,0,0,1,2.489,1.2,34.533,34.533,0,0,0-5.29-1.039c-1.779-.26-3.57-.446-5.38-.771" transform="translate(-109.561 -84.438)" fill="#290920"/>
          <path id="Trazado_159060" data-name="Trazado 159060" d="M347.715,236.026c-2.1,17.147-40.009-4.191-40.009-4.191l.091-.716,1.28-9.93.152-1.166,5.144,2.286-9.313-10.722-1.486-1.715-11.66-13.42-1.166-21.2a38.658,38.658,0,0,1,20.767,9.335c9.145,8.383,38.294,34.293,36.2,51.44" transform="translate(-134.305 -72.39)" fill="#ffb41b"/>
          <path id="Trazado_159061" data-name="Trazado 159061" d="M305.561,229.744c-.165-1.766-4.076-4.91-5.332-4.839a.42.42,0,0,0-.338.194c-.032.078-.068.155-.106.234-.3,1.09.7,3.886.7,3.886s1.259,2.284,2.164,2.093,3.058.008,2.91-1.568" transform="translate(-136.442 -84.204)" fill="#fa9778"/>
          <path id="Trazado_159062" data-name="Trazado 159062" d="M289.833,227.526l29.613-23.9a.163.163,0,0,1,.216.243l-25.3,24.681Z" transform="translate(-134.087 -79.132)" fill="#42a3e8"/>
          <path id="Trazado_159063" data-name="Trazado 159063" d="M281.376,239.336a14.487,14.487,0,0,1-5.207,2.441c-.206.306.239.633.6.726a9.6,9.6,0,0,0,5.907-.114,5.556,5.556,0,0,0,3.6-4.423c.22-2.433-4.35.961-4.9,1.37" transform="translate(-130.824 -87.105)" fill="#4c4dbd"/>
          <path id="Trazado_159064" data-name="Trazado 159064" d="M291.049,232.5l2.572,2.953-5.525,3.588L286,236.5Z" transform="translate(-133.175 -86.011)" fill="#42a3e8"/>
          <path id="Trazado_159065" data-name="Trazado 159065" d="M313.294,235.478l-1.28,9.93a27.493,27.493,0,0,1-3.544-2.248l.015-.023c.282.069.442.1.442.1l3.91-7.926c.13.046.282.107.457.168" transform="translate(-138.521 -86.68)" fill="#fa9778"/>
          <path id="Trazado_159066" data-name="Trazado 159066" d="M312.841,235.246l-3.909,7.926s-.16-.03-.442-.1l3.81-8.032s.107.046.328.122c.015.008.023.008.03.015a.705.705,0,0,1,.1.03.167.167,0,0,1,.038.023.245.245,0,0,1,.046.015" transform="translate(-138.526 -86.616)" fill="#fa9778"/>
          <path id="Trazado_159067" data-name="Trazado 159067" d="M308.26,233.7l-3.909,7.926s-.16-.03-.442-.1a80.615,80.615,0,0,1-11.035-3.14s-1.76-.564-2.827-1.052a2.5,2.5,0,0,1-.762-.45.183.183,0,0,1-.046-.114.168.168,0,0,1,.038-.152c.259-.373,1.562-.671,1.562-.671a2.941,2.941,0,0,1-.785-1.1c-.046-.259.343-.762.686-1.151.259-.3.5-.518.5-.518a2,2,0,0,1-.3-.732c-.008-.053-.023-.114-.03-.175-.023-.122-.046-.259-.061-.411-.091-.968,2.119-1.456,2.119-1.456a3.259,3.259,0,0,1,.876-1.76c.251-.213.884-.069,1.578.191a21.3,21.3,0,0,1,2.561,1.242l.008.008.671.069,4.4.457c.846,1.28,4.123,2.66,4.984,3,.015.008.023.008.03.015.061.023.107.038.137.053a.243.243,0,0,1,.046.015" transform="translate(-133.944 -85.07)" fill="#fa9778"/>
          <path id="Trazado_159068" data-name="Trazado 159068" d="M299.019,210.585l-4.644-5.834,3.168,11.5Z" transform="translate(-135.168 -79.409)" fill="#290920"/>
          <path id="Trazado_159069" data-name="Trazado 159069" d="M321.625,237.128a48.728,48.728,0,0,1,4.871-.36c1.628-.062,3.257-.027,4.886.048a41.363,41.363,0,0,1,4.869.514,18.333,18.333,0,0,1,4.712,1.322c-.4-.082-.8-.17-1.188-.266l-1.2-.19c-.8-.114-1.6-.225-2.4-.285-1.606-.143-3.217-.263-4.832-.335l-4.85-.225-2.43-.1Z" transform="translate(-141.651 -87.019)" fill="#290920"/>
          <path id="Trazado_159070" data-name="Trazado 159070" d="M335.5,232.871c-.993.25-1.977.493-2.962.71s-1.965.44-2.937.688-1.945.485-2.9.78a20.231,20.231,0,0,0-2.824,1.062,9.143,9.143,0,0,1,2.617-1.62,18.137,18.137,0,0,1,2.925-.961,22.574,22.574,0,0,1,6.08-.658" transform="translate(-142.186 -86.096)" fill="#290920"/>
          <path id="Trazado_159071" data-name="Trazado 159071" d="M193.293,362.517h.5v-3.683H176.643v3.683h.5l-2.529,4.954v16.173a3.006,3.006,0,0,0,3.006,3.006h15.2a3.006,3.006,0,0,0,3.006-3.006V367.471Z" transform="translate(-106.673 -116.069)" fill="#4c4dbd"/>
          <rect id="Rectángulo_42372" data-name="Rectángulo 42372" width="14.575" height="9.907" transform="translate(74.426 253.846)" fill="#fff"/>
          <path id="Trazado_159072" data-name="Trazado 159072" d="M179.833,363.214a51.215,51.215,0,0,1,6.624-.381,50.557,50.557,0,0,1,6.625.381,50.546,50.546,0,0,1-6.625.381,51.215,51.215,0,0,1-6.624-.381" transform="translate(-107.916 -117.021)" fill="#290920"/>
          <path id="Trazado_159073" data-name="Trazado 159073" d="M184.5,384.548a10.286,10.286,0,0,1,2.932-.381,10.181,10.181,0,0,1,2.932.381,10.179,10.179,0,0,1-2.932.381,10.282,10.282,0,0,1-2.932-.381" transform="translate(-109.026 -122.096)" fill="#290920"/>
          <path id="Trazado_159074" data-name="Trazado 159074" d="M318.793,387.017h.5v-3.683H302.143v3.683h.5l-2.529,4.953v16.173a3.006,3.006,0,0,0,3.006,3.006h15.2a3.006,3.006,0,0,0,3.006-3.006V391.971Z" transform="translate(-259.496 -132.391)" fill="#ffb41b"/>
          <path id="Trazado_159078" data-name="Trazado 159078" d="M116.809,306.218a1.908,1.908,0,0,0,.954-2.324c-1.956-5.979-10.237-28.4-23.839-26.535-3.95.542-7.257,4.483-8.221,8.352a5.109,5.109,0,0,0,.253,3.8,4.319,4.319,0,0,0,4.01,1.829,12.7,12.7,0,0,0,4.4-1.376A8.671,8.671,0,0,0,107.1,301.513,7.577,7.577,0,0,0,112,306.437a6.365,6.365,0,0,0,4.814-.219" transform="translate(-85.463 -96.658)" fill="#5ac8ab"/>
          <path id="Trazado_159079" data-name="Trazado 159079" d="M123.195,288.172a18.552,18.552,0,0,1,1.414-8.556,11.406,11.406,0,0,1,4.837-5.78,6.524,6.524,0,0,1,7.208.506c1.926,1.69,2.177,5.133.19,6.75a5.836,5.836,0,0,1,6.9,2.663,4.958,4.958,0,0,1-2.516,6.672,5.838,5.838,0,0,1,1.309,6.587,9,9,0,0,1-5.211,4.662c-3.221,1.225-6.831,1.908-9.271-.713-2.837-3.047-4.563-8.742-4.859-12.791" transform="translate(-94.428 -95.646)" fill="#5ac8ab"/>
          <path id="Trazado_159080" data-name="Trazado 159080" d="M148.453,305.548a18.448,18.448,0,0,1,9.524-3.308c3.406-.028,6.976,1.629,8.479,4.684a5.713,5.713,0,0,1,.3,4.619,3.983,3.983,0,0,1-3.7,2.518,2.932,2.932,0,0,1-.223,3.93,5.977,5.977,0,0,1-3.961,1.562,13.121,13.121,0,0,1-7.4-1.661c-.128,2.417-2.827,3.858-5.231,4.128a9.653,9.653,0,0,1-6-1.115,6.339,6.339,0,0,1-3.182-5.037c-.154-4.438,8.153-8.262,11.395-10.321" transform="translate(-97.738 -102.604)" fill="#5ac8ab"/>
          <path id="Trazado_159081" data-name="Trazado 159081" d="M160.076,306.993c-1.274.133-2.542.281-3.8.488-1.261.184-2.516.4-3.762.661a52.492,52.492,0,0,0-7.327,2.021,25.8,25.8,0,0,0-6.683,3.471,13.155,13.155,0,0,0-2.69,2.622,11.943,11.943,0,0,0-1.838,3.311,10.919,10.919,0,0,1,1.536-3.53,13.479,13.479,0,0,1,2.628-2.863,19.923,19.923,0,0,1,3.237-2.159,31.136,31.136,0,0,1,3.549-1.568,40.28,40.28,0,0,1,7.485-1.88,44.67,44.67,0,0,1,7.667-.575" transform="translate(-97.005 -103.733)" fill="#290920"/>
          <path id="Trazado_159082" data-name="Trazado 159082" d="M124.4,275.745c-.024,5.973-.1,11.945-.209,17.916-.077,5.972-.251,11.941-.38,17.912l-.038,1.75-.668-1.628a48.336,48.336,0,0,0-5.526-9.655L115.9,299.8l-1.787-2.157c-.583-.729-1.225-1.41-1.846-2.106s-1.244-1.395-1.9-2.061c-2.544-2.741-5.261-5.322-8.044-7.827s-5.64-4.934-8.6-7.237c3.07,2.157,6,4.51,8.864,6.936,2.84,2.454,5.621,4.986,8.237,7.689.673.658,1.292,1.366,1.93,2.058s1.282,1.377,1.875,2.109l1.815,2.163,1.712,2.25a45.091,45.091,0,0,1,5.628,9.814l-.706.122c.189-5.969.335-11.939.573-17.906.212-5.969.45-11.936.745-17.9" transform="translate(-87.429 -96.3)" fill="#290920"/>
          <path id="Trazado_159083" data-name="Trazado 159083" d="M118.915,322.983h22.471a4.5,4.5,0,0,1,4.309,3.211c2.381,7.929,6.6,28.028-10.61,31.224-20.4,3.789-26.437-12.315-20.462-31.289a4.5,4.5,0,0,1,4.293-3.147" transform="translate(-91.878 -107.539)" fill="#4c4dbd"/>
          <path id="Trazado_159084" data-name="Trazado 159084" d="M117.975,327.876a19.535,19.535,0,0,1,7.679,0,19.538,19.538,0,0,1-7.679,0" transform="translate(-93.198 -108.613)" fill="#290920"/>
          <path id="Trazado_159085" data-name="Trazado 159085" d="M117.225,330.876a3.718,3.718,0,0,1,1.715-.381,3.679,3.679,0,0,1,1.715.381,3.679,3.679,0,0,1-1.715.381,3.716,3.716,0,0,1-1.715-.381" transform="translate(-93.02 -109.327)" fill="#290920"/>
          <path id="Trazado_159086" data-name="Trazado 159086" d="M145.125,403.559l3.62,32.96c0,1.473,8.914,2.667,19.909,2.667s19.909-1.194,19.909-2.667l3.62-32.96Z" transform="translate(-40.339 -154.689)" fill="#ffb41b"/>
          <path id="Trazado_159087" data-name="Trazado 159087" d="M145.183,403.559q.2,2.6.351,5.191c.111,1.729.137,3.5.389,5.072a16.4,16.4,0,0,0,4.2,8.54,15.823,15.823,0,0,0,3.712,2.949,14.523,14.523,0,0,0,4.375,1.725l.572.137.583.084c.389.047.774.133,1.165.153l1.177.052c.383.024.851,0,1.273.006l5.192-.03,5.191.029,1.3.007,1.187-.048a7.177,7.177,0,0,0,1.17-.118c.384-.072.783-.08,1.161-.187a15.992,15.992,0,0,0,8.184-4.5,18.138,18.138,0,0,0,1.558-1.818,20.417,20.417,0,0,0,1.246-2.055,15.2,15.2,0,0,0,1.579-4.57l.123-.6.063-.61c.037-.412.1-.8.118-1.238l.14-2.6q.147-2.595.351-5.191h.762q.2,2.6.352,5.191l.14,2.6c.021.432.005.9.009,1.355l0,.687-.068.683a17.188,17.188,0,0,1-1.376,5.333,18.494,18.494,0,0,1-1.289,2.469,20.686,20.686,0,0,1-1.691,2.225,18.212,18.212,0,0,1-9.511,5.731,11.792,11.792,0,0,1-1.393.264,9.518,9.518,0,0,1-1.408.158c-.467.025-.954.059-1.406.071l-1.3.008-5.191.029-5.192-.03c-.444-.008-.841.008-1.322-.021l-1.416-.079c-.472-.033-.937-.133-1.4-.2-.233-.038-.468-.072-.7-.119l-.685-.186a17.6,17.6,0,0,1-5.168-2.246,18.338,18.338,0,0,1-2.267-1.667L149,425.219c-.337-.324-.622-.7-.933-1.046a17.6,17.6,0,0,1-2.879-4.757,18.394,18.394,0,0,1-1.26-5.363,49.105,49.105,0,0,1,.138-5.3q.147-2.595.351-5.191Z" transform="translate(-40.048 -154.689)" fill="#290920"/>
          <rect id="Rectángulo_42374" data-name="Rectángulo 42374" width="50.551" height="6.224" transform="translate(103.04 245.568)" fill="#ffb41b"/>
          <path id="Trazado_159088" data-name="Trazado 159088" d="M147.014,407.273c2.985-.157,5.969-.231,8.954-.292s5.97-.057,8.954-.088c2.985.03,5.97.027,8.954.087l4.478.107c1.492.063,2.984.1,4.477.187-1.493.086-2.985.123-4.477.187l-4.478.107c-2.984.06-5.969.057-8.954.087-2.984-.031-5.969-.026-8.954-.088s-5.969-.135-8.954-.292" transform="translate(-40.789 -155.482)" fill="#290920"/>
          <g id="Grupo_169107" data-name="Grupo 169107">
            <rect id="Rectángulo_42373" data-name="Rectángulo 42373" width="14.575" height="9.907" transform="translate(179.804 248.28)" fill="#fff"/>
            <path id="Trazado_159076" data-name="Trazado 159076" d="M307.167,388.881a18.6,18.6,0,0,1,3.97-.381,18.4,18.4,0,0,1,3.97.381,18.4,18.4,0,0,1-3.97.381,18.594,18.594,0,0,1-3.97-.381" transform="translate(-128.474 -147.365)" fill="#290920"/>
            <path id="Trazado_159077" data-name="Trazado 159077" d="M314.5,400.214a4.536,4.536,0,0,1,1.91-.381,4.489,4.489,0,0,1,1.909.381,4.488,4.488,0,0,1-1.909.381,4.535,4.535,0,0,1-1.91-.381" transform="translate(-130.219 -150.061)" fill="#290920"/>
            <path id="Trazado_159089" data-name="Trazado 159089" d="M340.087,401.245l-.806.146a1.59,1.59,0,0,1-1.85-1.281L328.3,349.85A1.592,1.592,0,0,1,329.578,348l.8-.146a1.591,1.591,0,0,1,1.85,1.281l9.135,50.26a1.592,1.592,0,0,1-1.281,1.85" transform="translate(-133.495 -137.688)" fill="#ffb41b"/>
            <path id="Trazado_159090" data-name="Trazado 159090" d="M321.756,371.416l3.96-50.146c.034-.428.573-.432.582-.005l1.011,50.9Z" transform="translate(-131.945 -131.292)" fill="#004b80"/>
            <path id="Trazado_159091" data-name="Trazado 159091" d="M318.135,385.972l-4.118,1.3-11.994-38.035,5.99,4.636Z" transform="translate(-127.25 -138.023)" fill="#004b80"/>
            <path id="Trazado_159092" data-name="Trazado 159092" d="M317.9,340.664c-.866-4.119-3.265-7.1-5.358-6.661s-3.089,4.136-2.224,8.255c.6,2.838,1.92,5.133,3.371,6.143a1.413,1.413,0,0,1,.569.876l5.461,25.983a1.46,1.46,0,0,0,2.859-.6l-5.461-25.984a1.416,1.416,0,0,1,.169-1.03c.921-1.509,1.21-4.143.613-6.981" transform="translate(-129.149 -134.389)" fill="#ffb41b"/>
            <path id="Trazado_159093" data-name="Trazado 159093" d="M344.3,348.036c-.7-2.049-2.843-8.794-.969-9.546.874-.351,6.493-2.233,7.372-1.663.325.21.869.562-4.953,11.373l-.671-.361c2.353-4.371,4.771-9.237,5.05-10.389a31.453,31.453,0,0,0-6.516,1.747c-.806.323.078,4.7,1.407,8.592Z" transform="translate(-136.9 -135.046)" fill="#fff"/>
            <path id="Trazado_159094" data-name="Trazado 159094" d="M344.09,351.514c-.043,3.778-.317,7.524-.681,11.257-.166,1.869-.4,3.727-.606,5.591-.252,1.856-.476,3.717-.751,5.57-.55,3.707-1.134,7.408-1.842,11.092s-1.463,7.361-2.445,11.006l-.755-.107c.072-3.775.36-7.518.718-11.252s.816-7.453,1.32-11.166c.253-1.856.556-3.705.831-5.559.322-1.846.614-3.7.975-5.538.69-3.687,1.469-7.36,2.481-11Z" transform="translate(-135.574 -138.54)" fill="#004b80"/>
            <path id="Trazado_159095" data-name="Trazado 159095" d="M343.72,356.123l1.671.239a.278.278,0,0,0,.316-.258l.292-4.787a.278.278,0,0,0-.238-.292l-.953-.135a.276.276,0,0,0-.309.216l-1.011,4.684a.276.276,0,0,0,.232.332" transform="translate(-137.114 -138.416)" fill="#fff"/>
            <path id="Trazado_159096" data-name="Trazado 159096" d="M338.782,417.509H305.64a1.147,1.147,0,0,1-1.147-1.147V374.923a1.147,1.147,0,0,1,1.147-1.147h33.142a1.147,1.147,0,0,1,1.148,1.147v41.439a1.147,1.147,0,0,1-1.148,1.147" transform="translate(-127.838 -143.862)" fill="#fff"/>
          </g>
        </g>
      </g>
    </g>
  </g>
</svg>
