<svg xmlns="http://www.w3.org/2000/svg" xmlns:xlink="http://www.w3.org/1999/xlink" width="105" height="105" viewBox="0 0 105 105">
  <defs>
    <clipPath id="clip-path">
      <rect id="Rectángulo_42395" data-name="Rectángulo 42395" width="66.152" height="66.17" fill="none"/>
    </clipPath>
  </defs>
  <g id="_12" data-name="12" transform="translate(5007 9022)">
    <circle id="Elipse_4891" data-name="Elipse 4891" cx="52.5" cy="52.5" r="52.5" transform="translate(-5007 -9022)" fill="#ffdfe0"/>
    <g id="Grupo_169161" data-name="Grupo 169161" transform="translate(-4988 -9003)">
      <g id="Grupo_169160" data-name="Grupo 169160" transform="translate(0 0)" clip-path="url(#clip-path)">
        <path id="Trazado_159351" data-name="Trazado 159351" d="M51.475,56.1c-1.476,2.58-2.883,5.044-4.292,7.5a11.893,11.893,0,0,1-20.164,1.124c-1.827-2.693-3.581-5.437-5.317-8.19a7.864,7.864,0,0,1-1.035-6.014A2.459,2.459,0,0,0,20.557,49c-.24-.583-.407-1.2-.71-1.788v.708q0,9.267,0,18.535a3.3,3.3,0,0,1-5.781,2.213c-.061-.069-.146-.133-.169-.215-.261-.924-.975-.873-1.722-.861-1.745.028-3.491.019-5.236,0a.689.689,0,0,0-.731.433,3.2,3.2,0,0,1-3.639,1.685,3.253,3.253,0,0,1-2.561-3.24Q0,50.484.01,34.5a4.378,4.378,0,0,1,4.383-4.381c1.286-.017,2.572-.018,3.858,0,.415.008.6-.053.585-.542-.037-1.56-.03-3.123,0-4.685a.685.685,0,0,0-.458-.715,3.219,3.219,0,0,1-1.644-3.721,3.3,3.3,0,0,1,6.388.013,3.21,3.21,0,0,1-1.659,3.712.689.689,0,0,0-.443.725c.022,1.561.026,3.123,0,4.685-.007.424.1.543.528.53,1.1-.034,2.2.007,3.306-.017a5.206,5.206,0,0,1,2.73.58,2.715,2.715,0,0,0,.244-1,6.622,6.622,0,0,1,6.331-5.077c2.25-.029,4.5-.019,6.752,0a3.829,3.829,0,0,1,3.69,2.861,3.768,3.768,0,0,1-1.795,4.3c-.415.235-.461.424-.309.852.538,1.509,1.03,3.035,1.532,4.556.336,1.023.077,1.5-.952,1.786s-1.017.286-1.116,1.389a4.392,4.392,0,0,1-1.5,2.994c-.165.146-.406.216-.507.506,3.256.42,5.339,2.421,6.949,5.255.434-.8.8-1.495,1.189-2.18.13-.229-.053-.336-.135-.483a2.625,2.625,0,0,1-.211-2.19c1.072-3.237,2.134-6.478,3.227-9.708a3.257,3.257,0,0,1,3.157-2.225c1.607-.011,3.215-.006,4.823,0A2.655,2.655,0,0,1,51.618,36c-.842,2.564-1.7,5.121-2.584,7.754a12.192,12.192,0,0,1,2.6-.409,8.186,8.186,0,0,1,8.038,6.272c.99,4.1,1.942,8.2,2.9,12.309a1.284,1.284,0,0,0,.621.92c.535.309,1.042.668,1.545,1.028A3.249,3.249,0,0,1,62.9,69.8c-2.158.015-4.318,0-6.477.009A1.23,1.23,0,0,1,55.1,68.771c-1.185-4.185-2.392-8.364-3.628-12.674" transform="translate(0 -3.638)"/>
        <path id="Trazado_159352" data-name="Trazado 159352" d="M60.791,3.688a11.12,11.12,0,0,1,11.025,0c0-1.084.023-2.1-.01-3.116C71.79.125,71.91,0,72.365,0,74.02.015,74.021,0,74.021,1.669c0,1.078.014,2.158-.008,3.237a1.118,1.118,0,0,0,.342.848,11,11,0,0,1-8.869,18.482,10.5,10.5,0,0,1-9.385-6.9A10.572,10.572,0,0,1,58.2,5.818a1.417,1.417,0,0,0,.4-1.035c-.023-1.423,0-2.847-.017-4.27-.006-.369.067-.5.477-.509,1.736-.022,1.736-.038,1.736,1.721Z" transform="translate(-11.176 0)"/>
        <path id="Trazado_159353" data-name="Trazado 159353" d="M46.6,74.561c.466-1.071.9-2.076,1.338-3.077q1.243-2.833,2.494-5.665a1.716,1.716,0,0,1,.279-.548c1.839-1.791,2.714-4.181,3.925-6.355a18.947,18.947,0,0,0,2.189-4.5c.059-.237.268-.361.448-.5a6.027,6.027,0,0,1,9.709,3.29c.94,3.753,1.771,7.533,2.674,11.3.126.523-.026.6-.506.59-1.216-.031-2.434-.03-3.65,0a.634.634,0,0,1-.755-.558c-.773-2.78-1.589-5.548-2.367-8.326-.159-.565-.421-.974-1.031-1.039a1.186,1.186,0,0,0-1.188.765q-2.738,4.816-5.494,9.621A9.77,9.77,0,0,1,47.1,74.559a4.534,4.534,0,0,1-.5,0" transform="translate(-9.429 -10.63)" fill="#91563a"/>
        <path id="Trazado_159354" data-name="Trazado 159354" d="M20.388,63.667a3.293,3.293,0,0,0-3.239.68,3.217,3.217,0,0,0-1.126,2.491c0,.183,0,.368,0,.551,0,1.812,0,1.806-1.834,1.639-.25-.023-.39-.074-.365-.351.012-.137,0-.276,0-.413q0-15.776-.019-31.552c0-.642.175-.8.791-.775,1.193.049,2.387,0,3.582.017a2.193,2.193,0,0,1,2.254,2.271q.008,12.5,0,25.007c0,.133-.026.266-.042.435" transform="translate(-2.793 -7.271)" fill="#f25244"/>
        <path id="Trazado_159355" data-name="Trazado 159355" d="M2.768,63.7V38.5A2.248,2.248,0,0,1,5.3,35.952c1.125,0,2.252.032,3.375-.014.56-.022.728.111.726.7-.022,7.188-.014,14.376-.015,21.565,0,3.376-.011,6.752.007,10.128,0,.5-.062.72-.651.706C7.182,69,7.182,69.034,7.182,67.458c0-2.19-.877-3.473-2.645-3.878a3.364,3.364,0,0,0-1.768.124" transform="translate(-0.56 -7.271)" fill="#f25244"/>
        <path id="Trazado_159356" data-name="Trazado 159356" d="M27.27,50.68A57.341,57.341,0,0,1,25.221,42.8c-.055-.309.048-.348.321-.314.495.06,1.137.284,1.451-.016s.038-.959.106-1.452c.076-.555-.145-.736-.672-.657a1.759,1.759,0,0,1-.549-.006,1.074,1.074,0,0,1-.969-1.076c-.031-.542.41-1.166.93-1.078,1.331.227,1.815-.706,2.354-1.554a1.407,1.407,0,0,1,1.4-.708c1.65.05,3.3.026,4.956.01.388,0,.61.063.739.494.373,1.249.8,2.484,1.229,3.715.132.374.142.546-.322.665-1.318.336-1.39.468-1.39,1.854,0,.3,0,.6,0,.895a2.207,2.207,0,0,1-2.289,2.3c-1.262.012-2.525.017-3.787-.006-.393-.007-.551.054-.552.511,0,1.7-.026,1.7,1.692,1.7h.7a8.9,8.9,0,0,0-3.3,2.6" transform="translate(-5.04 -7.27)" fill="#fdc8a2"/>
        <path id="Trazado_159357" data-name="Trazado 159357" d="M42.245,65.533a7.553,7.553,0,0,1-5.869-2.594c-.223-.246-.275-.394,0-.657q1.32-1.259,2.58-2.579c.291-.306.451-.239.7.026.633.664,1.291,1.306,1.944,1.951.845.834,1.543.731,2.123-.327q2.41-4.4,4.808-8.8a2.071,2.071,0,0,1,2.085-1.18,1.989,1.989,0,0,1,1.82,1.453,2.034,2.034,0,0,1-.141,1.663c-1.338,2.478-2.625,4.985-4.033,7.423a7.076,7.076,0,0,1-6.02,3.622" transform="translate(-7.322 -10.392)" fill="#fdc8a2"/>
        <path id="Trazado_159358" data-name="Trazado 159358" d="M28.467,61.064c1.559,1.755,3.043,3.433,4.536,5.1a9.339,9.339,0,0,0,10.418,3.007.792.792,0,0,1,.206.019c-.552,1.263-1.094,2.5-1.638,3.746-.376.859-.787,1.705-1.122,2.58-.2.531-.474.584-.983.435a9.268,9.268,0,0,1-5.277-3.739c-1.805-2.679-3.534-5.409-5.276-8.129a5.443,5.443,0,0,1-.865-3.022" transform="translate(-5.76 -12.355)" fill="#feb431"/>
        <path id="Trazado_159359" data-name="Trazado 159359" d="M56.8,48.2c-2.143-1.91-3.825-2.108-6.087-.7-.1-.186.03-.34.077-.483q1.192-3.617,2.4-7.226c.3-.9.547-1.071,1.5-1.073q2.167,0,4.334,0c.836,0,.956.16.7.927q-1.333,4-2.675,8.005c-.063.186-.057.419-.257.545" transform="translate(-10.252 -7.834)" fill="#4db6e4"/>
        <path id="Trazado_159360" data-name="Trazado 159360" d="M32.076,32.353c-1.193,0-2.385.019-3.577-.008a1.493,1.493,0,0,0-1.358.64c-.309.426-.689.8-.975,1.244-.275.424-.705.372-1.089.456-.268.059-.187-.188-.2-.325-.273-3.215,1.66-5.313,4.895-5.313q2.89,0,5.778,0c1.233,0,2.013.655,2,1.671-.012,1-.775,1.633-1.968,1.635-1.169,0-2.339,0-3.508,0" transform="translate(-5.029 -5.876)" fill="#feb431"/>
        <path id="Trazado_159361" data-name="Trazado 159361" d="M74.345,79.343c-.847,0-1.7-.011-2.542.006-.313.006-.52-.061-.609-.395q-.339-1.256-.71-2.5c-.1-.348.011-.424.35-.42,1.488.015,2.977.008,4.466,0a.983.983,0,0,1,.585.151c.605.412,1.224.806,1.821,1.228a.982.982,0,0,1,.435,1.195,1.031,1.031,0,0,1-1.047.734c-.916,0-1.832,0-2.748,0" transform="translate(-14.253 -15.383)" fill="#4d5e77"/>
        <path id="Trazado_159362" data-name="Trazado 159362" d="M30.557,57.7a2.092,2.092,0,0,1,3.47-1.574c.8.723,1.528,1.519,2.3,2.269.215.208.215.348,0,.557q-1.3,1.275-2.577,2.578c-.217.222-.356.2-.549-.018-.735-.849-1.49-1.68-2.219-2.534a1.812,1.812,0,0,1-.427-1.278" transform="translate(-6.182 -11.247)" fill="#feb431"/>
        <path id="Trazado_159363" data-name="Trazado 159363" d="M35.362,53.159A6.072,6.072,0,0,1,41.137,55.8c.495.688.968,1.39,1.449,2.088a1.517,1.517,0,0,1-.341,1.618c-.243.147-.319-.105-.429-.215-1.109-1.094-2.2-2.212-3.315-3.3a16.388,16.388,0,0,0-3.139-2.833" transform="translate(-7.155 -10.75)" fill="#feb431"/>
        <path id="Trazado_159364" data-name="Trazado 159364" d="M2.767,75.962c0-.5-.012-1.008,0-1.512a1.1,1.1,0,0,1,1.081-1.174,1.085,1.085,0,0,1,1.114,1.138q.03,1.614,0,3.229a1.085,1.085,0,0,1-1.114,1.141A1.1,1.1,0,0,1,2.77,77.61c-.015-.549,0-1.1,0-1.649" transform="translate(-0.559 -14.826)" fill="#4d5e77"/>
        <path id="Trazado_159365" data-name="Trazado 159365" d="M21.556,76.127c0,.5.014,1.008,0,1.512a1.1,1.1,0,1,1-2.2-.022q-.024-1.579,0-3.16a1.092,1.092,0,0,1,1.074-1.179,1.1,1.1,0,0,1,1.123,1.2c.013.549,0,1.1,0,1.649" transform="translate(-3.914 -14.826)" fill="#4d5e77"/>
        <path id="Trazado_159366" data-name="Trazado 159366" d="M12.151,22.956a1.1,1.1,0,1,1,1.113-1.074,1.1,1.1,0,0,1-1.113,1.074" transform="translate(-2.238 -4.199)" fill="#4c5d76"/>
        <path id="Trazado_159367" data-name="Trazado 159367" d="M58.054,14.332A8.819,8.819,0,1,1,66.8,23.187a8.826,8.826,0,0,1-8.746-8.856" transform="translate(-11.746 -1.123)" fill="#f25244"/>
        <path id="Trazado_159368" data-name="Trazado 159368" d="M7.734,48.69c0,1.285-.02,2.572.011,3.856.01.44-.136.526-.546.53-1.67.011-1.67.026-1.67-1.666,0-2.181.011-4.362-.01-6.542,0-.444.057-.641.578-.637,1.636.014,1.636-.011,1.636,1.636V48.69" transform="translate(-1.117 -8.949)"/>
        <path id="Trazado_159369" data-name="Trazado 159369" d="M6.605,40.925c-1.074,0-1.074,0-1.074-1.078,0-1.126,0-1.126,1.1-1.126s1.109,0,1.109,1.114c0,1.091,0,1.091-1.131,1.091" transform="translate(-1.119 -7.834)"/>
        <path id="Trazado_159370" data-name="Trazado 159370" d="M32.855,40.925c-1.062,0-1.062,0-1.062-1.074,0-1.131,0-1.131,1.142-1.131C34,38.72,34,38.72,34,39.794c0,1.13,0,1.13-1.143,1.13" transform="translate(-6.433 -7.834)"/>
        <path id="Trazado_159371" data-name="Trazado 159371" d="M67.186,22.366a7.716,7.716,0,1,1,7.682-7.733,7.737,7.737,0,0,1-7.682,7.733" transform="translate(-12.026 -1.403)" fill="#d5d5d3"/>
        <path id="Trazado_159372" data-name="Trazado 159372" d="M72.49,13.634a2.25,2.25,0,0,1,.709,1.92,5.508,5.508,0,0,1-10.744,2.1,5.314,5.314,0,0,1,0-3.3c.075-.235.1-.512.425-.557.346-.094.55.166.777.334,1.052.776,2.092,1.568,3.141,2.348.807.6,1.047.593,1.812-.012,1.079-.853,2.144-1.724,3.23-2.569.187-.147.348-.393.652-.262" transform="translate(-12.583 -2.751)" fill="#dfdfdd"/>
        <path id="Trazado_159373" data-name="Trazado 159373" d="M72.622,12.936q-1.857,1.461-3.713,2.922c-.936.739-1.165.739-2.1.044-1.263-.94-2.533-1.87-3.8-2.8-.061-.128-.261-.222-.105-.408.044-.053.086-.107.125-.164.994-1.461.995-1.461,2.4-.408.642.48,1.3.94,1.918,1.452a.6.6,0,0,0,.921,0c1.322-1.1,2.686-2.149,4.013-3.243.307-.253.468-.242.689.079.31.452.918.874.921,1.312s-.743.7-1.139,1.07a1.851,1.851,0,0,0-.134.15" transform="translate(-12.716 -2.053)"/>
      </g>
    </g>
  </g>
</svg>
