<svg xmlns="http://www.w3.org/2000/svg" xmlns:xlink="http://www.w3.org/1999/xlink" width="105" height="105" viewBox="0 0 105 105">
  <defs>
    <clipPath id="clip-path">
      <rect id="Rectángulo_42399" data-name="Rectángulo 42399" width="74.814" height="77.665" fill="none"/>
    </clipPath>
  </defs>
  <g id="_16" data-name="16" transform="translate(5637 8600)">
    <circle id="Elipse_4889" data-name="Elipse 4889" cx="52.5" cy="52.5" r="52.5" transform="translate(-5637 -8600)" fill="#ffdfe0"/>
    <g id="Grupo_169173" data-name="Grupo 169173" transform="translate(-5622 -8586)">
      <g id="Grupo_169172" data-name="Grupo 169172" clip-path="url(#clip-path)">
        <path id="Trazado_159449" data-name="Trazado 159449" d="M73.638,33.705h0c-.954.285-1.092.478-1.093,1.6q0,15.419,0,30.839V66.9c-.006,2.39-1.029,3.335-3.43,3.169-1.844.011-3.689.031-5.532.033-5.03,0-10.06-.009-15.089.014-.7,0-.972-.015-.83-.9a23.778,23.778,0,0,0,.068-3.632c0-1.188,0-2.376,0-3.564a3.968,3.968,0,0,0-.976-2.719,1.88,1.88,0,0,1-.459-1.37q.013-16.645,0-33.288a5.065,5.065,0,0,0-.068-1.055,1.109,1.109,0,0,0-2.176.1,6.486,6.486,0,0,0-.028.908q0,16.075-.01,32.15c0,.3.2.769-.179.869a3.1,3.1,0,0,1-1.422-.021c-.265-.06-.125-.448-.125-.684-.007-6.521-.023-13.043.007-19.564a4.7,4.7,0,0,0-1.566-3.851,3.5,3.5,0,0,0-1.593-.836c-.467-.09-.535-.314-.533-.723.014-3.21,0-6.42.013-9.63a2.4,2.4,0,0,1,1.947-2.447,1.331,1.331,0,0,1,.879-.132q14.086,0,28.174.011a2.6,2.6,0,0,1,2.915,2.891q.039,3.258,0,6.515a1.186,1.186,0,1,0,2.279,0c-.02-2.2.01-4.4-.011-6.6a4.837,4.837,0,0,0-5.1-5.084c-1.946-.008-3.893-.013-5.838.007-.43,0-.629-.054-.618-.563.033-1.718.019-3.437.007-5.156a.642.642,0,0,1,.345-.669,3.007,3.007,0,0,0,1.586-2.888c-.014-.581,0-1.163-.008-1.745a6.634,6.634,0,0,0-4.432-6.1C60.353.208,59.913.252,59.559,0H51.368c-.189.246-.495.2-.745.285a6.477,6.477,0,0,0-4.169,3.79,9.367,9.367,0,0,0-.4,5.066,2.557,2.557,0,0,0,1.392,1.884.723.723,0,0,1,.429.765c-.014,1.693-.032,3.387.009,5.078.013.542-.194.6-.649.6-1.92-.021-3.84-.014-5.76-.008a4.837,4.837,0,0,0-5.139,5.107c-.007,3.108-.012,6.216.01,9.323,0,.462-.1.6-.58.591-1.743-.029-3.487-.011-5.23-.011-1.5,0-1.5,0-1.5-1.46,0-.177,0-.355-.007-.531a5.158,5.158,0,0,0-4.593-5,5.1,5.1,0,0,0-5.608,4.194,9.989,9.989,0,0,0-.073,2.19c.021.507-.143.624-.631.619-2.7-.023-5.406-.015-8.109-.009a4.361,4.361,0,0,0-4.56,4.51c-.024,4.623-.01,9.248,0,13.871,0,.936.226,1.209,1.163,1.495a1.3,1.3,0,0,0,1.116-1.531c-.038-.959-.015-1.92,0-2.879,0-.178-.113-.573.3-.38a6.469,6.469,0,0,0,2.824.387c.2,0,.53-.1.492.267-.035.336.243.748-.244,1a2.966,2.966,0,0,0-1.523,3.9A2.037,2.037,0,0,0,11.6,54.556c1.919.033,3.84.043,5.759,0A2.1,2.1,0,0,0,19.475,52.5a7.631,7.631,0,0,0,0-1.286,2.059,2.059,0,0,0-1.453-1.929c-.313-.1-.484-.21-.5-.607-.019-.579.132-.758.741-.753,3.739.032,7.478.011,11.216.025.268,0,.715-.221.722.359,0,.41.138.809-.485,1A1.949,1.949,0,0,0,28.3,51.31c-.007.354-.011.708,0,1.061a2.086,2.086,0,0,0,2.13,2.185c1.919.045,3.839.017,5.759.008a2.705,2.705,0,0,0,1.525-.6,3.567,3.567,0,0,0-.166-4.35c-.175-.1-.343-.258-.525-.273-.74-.063-.707-.575-.645-1.078.079-.638.592-.216.891-.32a1.255,1.255,0,0,1,.444.019,5.389,5.389,0,0,0,2.2-.482,1.649,1.649,0,0,1,.1.915c.006,8.026-.041,16.053.032,24.079.022,2.377-1.174,3.138-3.082,2.888-2.93.008-5.859.022-8.79.024q-8.943,0-17.887,0c-1.762,0-2.551-.776-2.553-2.532q-.006-8,0-15.993c0-1.018-.167-1.233-1.11-1.52-.946.26-1.181.535-1.15,1.563.016.552-.084.763-.715.759A4.363,4.363,0,0,0,.023,62.377c-.01,1.92.062,3.844-.017,5.761a4.467,4.467,0,0,0,4.807,4.883c.47-.029.622.1.679.6a4.32,4.32,0,0,0,4.55,4.038q13.8.006,27.6,0a4.315,4.315,0,0,0,4.632-4.182c.036-.372.161-.452.5-.464.39-.013.47.156.458.5a7.708,7.708,0,0,0,.025,1.211,3.107,3.107,0,0,0,6.2-.19,8.377,8.377,0,0,0,0-1.363c-.066-.615.125-.812.772-.8,3.209.035,6.418.013,9.628.018.577,0,1.339-.186,1.681.107.408.348.085,1.138.138,1.732.009.1,0,.2,0,.3a3.117,3.117,0,1,0,6.225-.32c0-.578-.186-1.322.1-1.689.305-.392,1.085-.123,1.656-.129,3.186-.033,5.147-2.011,5.148-5.255q.01-15.883,0-31.767c0-1.164-.133-1.345-1.169-1.661M60.345,17.464c-1.592-.021-3.184-.008-4.776-.008-1.618,0-3.235-.02-4.851.012-.474.009-.589-.12-.581-.586.03-1.718.018-3.436.007-5.155a.626.626,0,0,1,.349-.662A3.05,3.05,0,0,0,52.08,8.248c0-.076,0-.151,0-.228.03-2.129-.313-1.89,1.885-1.9,1.415-.007,2.831.02,4.245-.011.666-.015.912.252.875.9A13.889,13.889,0,0,0,59.1,8.676a2.817,2.817,0,0,0,1.458,2.341.763.763,0,0,1,.433.775c-.015,1.693-.032,3.387.008,5.079.013.545-.205.6-.653.593M48.294,5.863a4.282,4.282,0,0,1,4.258-3.585c1.9-.012,3.792,0,5.688,0a4.324,4.324,0,0,1,4.666,4.606c0,.126,0,.253,0,.379,0,.354,0,.708,0,1.062a.748.748,0,0,1-.753.862c-.538.007-.806-.343-.8-.894.008-.531.011-1.062,0-1.592a2.76,2.76,0,0,0-2.815-2.852c-1.972-.035-3.944-.038-5.915,0a2.7,2.7,0,0,0-2.807,2.9c-.006.505.007,1.011-.009,1.517s-.242.922-.793.924-.81-.383-.8-.909a13.9,13.9,0,0,1,.084-2.419m-37.5,39.806a7.453,7.453,0,0,0-.832-.008,2.072,2.072,0,0,1-2.226-2.155q-.06-3.291,0-6.584a2.1,2.1,0,0,1,2.359-2.181c1.273-.011,1.273-.011,1.273,1.251V40.23c0,1.614-.015,3.23.01,4.844.007.453-.1.655-.583.594m2.833-10.354c-.006-.825.526-.531.913-.571.413-.043.758-.076.746.574-.042,2.221-.016,4.444-.016,6.665,0,2.2-.028,4.394.016,6.589.013.66-.344.608-.749.57-.387-.037-.917.254-.911-.572q.046-6.628,0-13.255M16.791,52.3c-1.535-.011-3.068-.015-4.6,0-.387,0-.445-.173-.457-.5-.015-.382.192-.389.47-.386.78.009,1.559,0,2.339,0,.754,0,1.509.013,2.263-.006.338-.009.426.124.422.442s-.1.448-.434.446m4.238-21.9a2.86,2.86,0,0,1,5.633-.487,12.649,12.649,0,0,1,.106,2.183c.024.4-.217.376-.483.375-.806,0-1.612,0-2.418,0-.781,0-1.562-.018-2.343.007-.377.012-.545-.072-.514-.491.039-.526-.006-1.059.019-1.586m8.58,15.273q-5.723-.022-11.446,0c-.491,0-.632-.125-.629-.625q.035-4.852,0-9.7c0-.516.164-.62.64-.614,1.92.025,3.841.011,5.761.011,1.9,0,3.791.017,5.685-.012.472-.007.6.131.6.592q-.022,4.89.009,9.779c0,.5-.18.574-.618.571M32.637,34.8a3.145,3.145,0,0,1,1.341,0c.223.045.111.4.111.62.007,2.173,0,4.348,0,6.522s-.023,4.348.016,6.522c.01.587-.168.762-.72.688-.427-.057-.94.2-.933-.64.039-4.322.016-8.646.028-12.968,0-.256-.14-.674.151-.747M35.561,52.3c-.755-.019-1.51-.006-2.265-.006s-1.511-.016-2.265.007c-.373.011-.468-.133-.474-.483s.146-.408.449-.406q2.265.016,4.532,0c.3,0,.526,0,.515.422-.009.374-.144.473-.491.465m4.432-8.648a2,2,0,0,1-1.973,2c-.352.018-.706-.011-1.059-.018-.452.109-.607-.037-.6-.529.021-3.273.011-6.546.011-9.82,0-.305-.058-.649.444-.522.4-.007.809-.04,1.211-.015a2.025,2.025,0,0,1,1.972,2.007q.044,3.449,0,6.9M4.77,70.764C3.1,70.721,2.307,69.981,2.295,68.3q-.022-2.956,0-5.913c.011-1.695.844-2.467,2.545-2.478.514,0,.627.164.618.643-.027,1.592-.01,3.184-.01,4.776,0,1.567-.02,3.134.011,4.7.011.53-.083.753-.69.738m40.686-2.486c0,1.7-.8,2.465-2.518,2.483-.546.006-.673-.177-.663-.691.03-1.564.011-3.13.011-4.694,0-1.615.02-3.231-.012-4.846-.011-.509.154-.624.64-.622,1.743.01,2.54.78,2.542,2.54q0,2.915,0,5.83m1.712,6.145a.827.827,0,0,1-1.651.07c-.056-.572-.023-1.152-.025-1.729,0-.292.174-.361.437-.391,1.222-.142,1.249-.12,1.242,1.3,0,.251.011.5,0,.753m18.456-.057a.8.8,0,0,1-.829.877.771.771,0,0,1-.838-.858c-.015-.528.008-1.058-.009-1.586-.011-.34.147-.408.455-.429,1.225-.081,1.225-.092,1.224,1.24,0,.251.008.5,0,.755" transform="translate(0)"/>
        <path id="Trazado_159450" data-name="Trazado 159450" d="M9.392,67.279a5.613,5.613,0,0,1,.047,1.059q0,7.392,0,14.783c0,2.444.551,2.991,2.985,2.993,8.668.006,17.335-.011,26,.007.06,0,.106,0,.163,0a4.768,4.768,0,0,0,.644-2.566q-.023-9.2-.01-18.408a3.327,3.327,0,0,1-2.059.655c-1.566,0-3.134.018-4.7-.007-1.98-.031-2.816-.938-2.878-2.9a2.715,2.715,0,0,1,1.557-2.85c.21-.1.387-.259.315-.536s-.275-.34-.518-.363c-.177-.016-.353-.015-.531-.015H20.333a1.775,1.775,0,0,0-.228,0c-.283.038-.656-.072-.749.337-.09.381.225.515.486.673a3.163,3.163,0,0,1,1.305,3.7,2.534,2.534,0,0,1-2.785,1.959c-1.566.02-3.133.023-4.7,0-1.985-.03-2.815-.931-2.884-2.9a2.747,2.747,0,0,1,1.441-2.844.52.52,0,0,0,.319-.62c-.076-.285-.329-.291-.552-.294a7.428,7.428,0,0,1-2.026-.228c-.424-.126-.535.116-.539.483-.011.91.033,1.82-.02,2.728-.049.858-.49,1.251-1.273,1.194l0,3a1.081,1.081,0,0,1,1.267.969m3.846,4.081a2.7,2.7,0,0,1,2.933-2.919c3.084-.007,6.166,0,9.249,0q4.584,0,9.17,0a2.737,2.737,0,0,1,2.972,2.967q.007,3.942,0,7.884A2.758,2.758,0,0,1,34.58,82.26q-9.171,0-18.343,0a2.729,2.729,0,0,1-3-2.942q-.023-3.979,0-7.959" transform="translate(-1.514 -10.968)" fill="#caa49c"/>
        <path id="Trazado_159451" data-name="Trazado 159451" d="M9.235,69.531q0,8,0,15.993c0,1.756.79,2.532,2.553,2.533q8.944,0,17.888,0c2.93,0,5.86-.015,8.79-.024.049-.07.078-.144.122-.215-.058,0-.1,0-.164,0-8.667-.018-17.334,0-26-.007-2.435,0-2.984-.549-2.985-2.993q0-7.392,0-14.784a5.545,5.545,0,0,0-.046-1.059,1.081,1.081,0,0,0-1.267-.969c.943.287,1.109.5,1.11,1.52" transform="translate(-1.514 -12.67)" fill="#caa49c"/>
        <path id="Trazado_159452" data-name="Trazado 159452" d="M9.4,62.026c.052-.908.009-1.819.02-2.728,0-.366.115-.609.539-.483a7.365,7.365,0,0,0,2.026.228c.222,0,.476.009.552.295a.52.52,0,0,1-.319.62A2.745,2.745,0,0,0,10.78,62.8c.068,1.967.9,2.867,2.883,2.9,1.566.024,3.134.02,4.7,0a2.533,2.533,0,0,0,2.784-1.959,3.16,3.16,0,0,0-1.305-3.7c-.261-.159-.575-.293-.487-.674.094-.408.466-.3.75-.336a1.76,1.76,0,0,1,.227,0H30.415c.177,0,.353,0,.53.015.242.022.45.1.518.362s-.1.435-.316.536a2.715,2.715,0,0,0-1.557,2.85c.062,1.965.9,2.872,2.878,2.9,1.566.024,3.133,0,4.7.007a3.327,3.327,0,0,0,2.059-.655v-.208a2.71,2.71,0,0,1-1.525.6c-1.92.009-3.841.037-5.759-.008a2.086,2.086,0,0,1-2.13-2.185c-.01-.353,0-.707,0-1.061a1.949,1.949,0,0,1,1.422-2.007c.622-.189.49-.587.485-1-.007-.58-.455-.358-.723-.359-3.738-.013-7.477.007-11.215-.024-.61,0-.761.174-.741.753.012.4.184.5.5.607a2.058,2.058,0,0,1,1.452,1.928,7.641,7.641,0,0,1,0,1.287,2.1,2.1,0,0,1-2.117,2.057c-1.919.046-3.84.036-5.759,0a2.038,2.038,0,0,1-2.018-1.444,2.966,2.966,0,0,1,1.523-3.9c.488-.255.209-.666.244-1,.038-.364-.29-.266-.492-.267a6.468,6.468,0,0,1-2.824-.387c-.417-.194-.3.2-.3.379-.013.959-.037,1.921,0,2.88A1.3,1.3,0,0,1,8.129,63.22c.784.057,1.224-.335,1.273-1.195" transform="translate(-1.514 -10.876)" fill="#caa49c"/>
        <path id="Trazado_159453" data-name="Trazado 159453" d="M88.133,34.33a3.963,3.963,0,0,1-.059-.9q0-2.613,0-5.226c0-.3,0-.606-.026-.908-.183-1.96-.923-2.671-2.881-2.78-.253-.014-.505-.014-.758-.014h-.078c.878.174,1.319.758,1.4,1.858.019.251,0,.505,0,.758q0,22.319.016,44.637a4.733,4.733,0,0,1-.79,2.662c.253.011.506-.006.758-.018a2.274,2.274,0,0,0,2.158-1.7,6.777,6.777,0,0,0,.2-1.954q0-15.2,0-30.393a5.72,5.72,0,0,1,.055-1.209.983.983,0,0,1,1.218-.866l.033-3.054a1.056,1.056,0,0,1-1.247-.886" transform="translate(-15.711 -4.564)" fill="#6cc086"/>
        <path id="Trazado_159454" data-name="Trazado 159454" d="M81.822,33.65q.038-3.256,0-6.514a2.6,2.6,0,0,0-2.915-2.892q-14.088-.012-28.174-.011a1.336,1.336,0,0,0-.879.131q7.842.009,15.686.017,5.872,0,11.746,0a3.135,3.135,0,0,1,.622.063h.079c.252,0,.5,0,.757.014,1.959.108,2.7.819,2.882,2.78.028.3.025.6.025.908,0,1.742,0,3.484,0,5.226a3.924,3.924,0,0,0,.059.906,1.055,1.055,0,0,0,1.247.885,1.3,1.3,0,0,1-1.135-1.513" transform="translate(-9.288 -4.513)" fill="#6cc086"/>
        <path id="Trazado_159455" data-name="Trazado 159455" d="M88.242,42.285a5.72,5.72,0,0,0-.055,1.209q0,15.2,0,30.393a6.768,6.768,0,0,1-.2,1.953,2.275,2.275,0,0,1-2.158,1.7c-.252.012-.505.029-.758.018-.048.074-.085.15-.137.222,2.4.167,3.424-.779,3.43-3.168,0-.253,0-.505,0-.758q0-15.418,0-30.838c0-1.124.138-1.317,1.092-1.6a.983.983,0,0,0-1.218.867" transform="translate(-15.823 -7.713)" fill="#6cc086"/>
        <path id="Trazado_159456" data-name="Trazado 159456" d="M78.683,71.217q-.013-21.905-.006-43.811a4.363,4.363,0,0,0-.291-1.93,1.163,1.163,0,0,0-1.175-.777c-.277.011-.556,0-.834,0q-12.771,0-25.542-.006a2.484,2.484,0,0,1-1.142-.1,1.246,1.246,0,0,0-.177.057A2.326,2.326,0,0,0,47.769,27.1c-.016,2.957,0,5.914-.012,8.87a1.105,1.105,0,0,0,.771,1.209A4.368,4.368,0,0,1,51.4,41.575c.019,6.318.007,12.635.007,18.953,0,.278,0,.557.009.834.012.456.266.61.688.6.4-.006.615-.168.631-.581.011-.3.011-.606.011-.91q0-15.5,0-31.008a7.164,7.164,0,0,1,.043-1.211,1.219,1.219,0,0,1,1.156-1.107,1.308,1.308,0,0,1,1.364.871,4.313,4.313,0,0,1,.191,1.571q0,16-.009,31.993a4.218,4.218,0,0,0,.717,2.711,3.683,3.683,0,0,1,.653,2.223c0,2.325.024,4.65-.011,6.975-.014.913-.03.924.907.924q9.779.006,19.559,0c.225,0,.45-.013.675.007a.838.838,0,0,1,.124-.354,5.3,5.3,0,0,0,.569-2.856M62.116,48.423q0,9.667,0,19.333a5.353,5.353,0,0,1-.028.832,1.016,1.016,0,0,1-.955.919,1.064,1.064,0,0,1-1.194-.722,2.464,2.464,0,0,1-.1-.973q0-19.408,0-38.817a2.389,2.389,0,0,1,.1-.972,1.061,1.061,0,0,1,1.207-.7,1.012,1.012,0,0,1,.941.932,5.79,5.79,0,0,1,.023.832q0,9.667,0,19.333M69.055,68.5a1.129,1.129,0,0,1-2.234.093,3.281,3.281,0,0,1-.03-.755q0-9.7,0-19.41t0-19.409a5.285,5.285,0,0,1,.013-.682A1.1,1.1,0,0,1,68,27.318a1.067,1.067,0,0,1,1.061,1.07,4.455,4.455,0,0,1,.006.455V67.966a3.6,3.6,0,0,1-.011.531m6.968-39.5q0,19.41,0,38.82a3.272,3.272,0,0,1-.072.9,1.119,1.119,0,0,1-2.186-.2,6.351,6.351,0,0,1-.014-.758q0-9.667,0-19.334,0-9.856,0-19.713c0-.857.324-1.308.967-1.388a1.106,1.106,0,0,1,1.273.917,4.021,4.021,0,0,1,.033.755" transform="translate(-8.897 -4.581)" fill="#7fe19d"/>
        <path id="Trazado_159457" data-name="Trazado 159457" d="M77.933,74.391c-.225-.02-.45-.007-.675-.007q-9.779,0-19.558,0c-.937,0-.922-.011-.908-.925.035-2.325.014-4.65.011-6.974a3.683,3.683,0,0,0-.653-2.223,4.224,4.224,0,0,1-.718-2.711q.024-16,.01-31.993a4.313,4.313,0,0,0-.191-1.571,1.307,1.307,0,0,0-1.364-.871,1.219,1.219,0,0,0-1.156,1.107,7.164,7.164,0,0,0-.043,1.211q0,15.5,0,31.008c0,.3,0,.606-.011.91-.015.413-.234.575-.63.581-.422.006-.676-.149-.688-.6-.007-.278-.009-.556-.009-.834,0-6.318.011-12.635-.007-18.953a4.369,4.369,0,0,0-2.869-4.394,1.107,1.107,0,0,1-.771-1.209c.016-2.956,0-5.913.013-8.87a2.324,2.324,0,0,1,1.745-2.453,1.214,1.214,0,0,1,.177-.057.908.908,0,0,1-.229-.158,2.4,2.4,0,0,0-1.947,2.448c-.013,3.21,0,6.42-.013,9.63,0,.408.066.633.533.723a3.5,3.5,0,0,1,1.593.836,4.7,4.7,0,0,1,1.566,3.852c-.029,6.521-.014,13.042-.007,19.564,0,.236-.14.624.125.684a3.1,3.1,0,0,0,1.422.022c.379-.1.179-.571.179-.869q.016-16.076.01-32.151a6.494,6.494,0,0,1,.028-.908,1.109,1.109,0,0,1,2.176-.1,5.057,5.057,0,0,1,.068,1.055q0,16.645,0,33.289a1.877,1.877,0,0,0,.459,1.369,3.972,3.972,0,0,1,.976,2.719c0,1.187,0,2.375,0,3.563a23.79,23.79,0,0,1-.068,3.632c-.142.89.132.908.83.9,5.029-.023,10.06-.009,15.089-.014,1.844,0,3.689-.021,5.532-.033a.557.557,0,0,1-.02-.226" transform="translate(-8.839 -4.545)" fill="#7fe19d"/>
        <path id="Trazado_159458" data-name="Trazado 159458" d="M50.136,24.573a2.469,2.469,0,0,0,1.142.1q12.772.012,25.543.007c.277,0,.557.013.833,0a1.165,1.165,0,0,1,1.176.777,4.375,4.375,0,0,1,.291,1.93q0,21.905.006,43.811a5.3,5.3,0,0,1-.569,2.855.838.838,0,0,0-.124.354h.007c.05,0,.1,0,.15,0a4.734,4.734,0,0,0,.79-2.663q-.034-22.318-.015-44.637c0-.253.014-.506,0-.758-.081-1.1-.521-1.684-1.4-1.859q-13.4,0-26.808,0a3.575,3.575,0,0,0-1.016.076" transform="translate(-9.34 -4.563)" fill="#7fe19d"/>
        <path id="Trazado_159459" data-name="Trazado 159459" d="M51.1,24.479H77.907a3.135,3.135,0,0,0-.622-.063q-5.873,0-11.747,0Q57.7,24.409,49.854,24.4a.926.926,0,0,0,.229.157,3.577,3.577,0,0,1,1.016-.076" transform="translate(-9.288 -4.545)" fill="#7fe19d"/>
        <path id="Trazado_159460" data-name="Trazado 159460" d="M84.919,85.837h-.007a.538.538,0,0,0,.02.225c.051-.072.089-.148.136-.222-.05,0-.1,0-.15,0" transform="translate(-15.818 -15.991)" fill="#7fe19d"/>
        <path id="Trazado_159461" data-name="Trazado 159461" d="M33.634,42.68c-1.9.028-3.79.012-5.685.012-1.92,0-3.841.014-5.761-.011-.477-.007-.644.1-.64.614q.035,4.852,0,9.7c0,.5.138.627.628.624q5.723-.029,11.447,0c.437,0,.621-.072.618-.571q-.037-4.89-.009-9.779c0-.461-.125-.6-.6-.592" transform="translate(-4.014 -7.951)" fill="#62a3fa"/>
        <path id="Trazado_159462" data-name="Trazado 159462" d="M46.482,65.945c.007,5.951.02,11.9-.011,17.853a2.9,2.9,0,0,1-.7,2.329c2.014-.035,2.513-.6,2.513-2.751q0-11.664,0-23.328c0-.177-.007-.353,0-.53.012-.459-.166-.662-.645-.523a3.762,3.762,0,0,1-1.2.146c-.072-.006-.145,0-.216,0a3.084,3.084,0,0,1-.076,1.317c.026.02.055.037.08.059a3.541,3.541,0,0,1,.1,4.56,1.508,1.508,0,0,1,.155.871" transform="translate(-8.527 -10.983)" fill="#a2837e"/>
        <path id="Trazado_159463" data-name="Trazado 159463" d="M46.3,60.858c-.026-.023-.054-.039-.081-.059a1.062,1.062,0,0,1-.076.143,3.567,3.567,0,0,1,.166,4.35.659.659,0,0,1,.089.126,3.542,3.542,0,0,0-.1-4.56" transform="translate(-8.596 -11.327)" fill="#a2837e"/>
        <path id="Trazado_159464" data-name="Trazado 159464" d="M46.374,59.029a3.79,3.79,0,0,0,1.2-.145c.478-.139.657.063.644.522,0,.177,0,.353,0,.53q0,11.665,0,23.329c0,2.147-.5,2.715-2.513,2.75a2.135,2.135,0,0,1-.288.218c1.907.251,3.1-.511,3.081-2.888-.072-8.026-.026-16.053-.032-24.079a1.648,1.648,0,0,0-.1-.915,5.373,5.373,0,0,1-2.2.482,1.5,1.5,0,0,0-.013.191c.072,0,.145,0,.216,0" transform="translate(-8.461 -10.871)" fill="#a2837e"/>
        <path id="Trazado_159465" data-name="Trazado 159465" d="M46.432,85.2c.03-5.951.017-11.9.011-17.853a1.5,1.5,0,0,0-.155-.871c-.011.014-.019.03-.03.044s-.04.024-.059.038q0,9.2.01,18.408a4.766,4.766,0,0,1-.644,2.566c.059,0,.111,0,.167,0a2.9,2.9,0,0,0,.7-2.329" transform="translate(-8.489 -12.384)" fill="#a2837e"/>
        <path id="Trazado_159466" data-name="Trazado 159466" d="M46.4,66.491c.011-.014.019-.03.03-.044a.71.71,0,0,0-.089-.126v.208c.019-.015.04-.024.059-.038" transform="translate(-8.634 -12.355)" fill="#a2837e"/>
        <path id="Trazado_159467" data-name="Trazado 159467" d="M45.538,92.353c-.043.071-.073.145-.122.215a1.981,1.981,0,0,0,.288-.219c-.056,0-.107,0-.166,0" transform="translate(-8.461 -17.204)" fill="#a2837e"/>
        <path id="Trazado_159468" data-name="Trazado 159468" d="M13.132,48.184V43.945c0-1.262,0-1.262-1.273-1.251A2.1,2.1,0,0,0,9.5,44.874q-.057,3.292,0,6.584a2.072,2.072,0,0,0,2.226,2.155,7.654,7.654,0,0,1,.832.008c.481.062.59-.141.583-.594-.025-1.614-.01-3.23-.01-4.844" transform="translate(-1.765 -7.953)" fill="#62a3fa"/>
        <path id="Trazado_159469" data-name="Trazado 159469" d="M60.048,9.711c.551,0,.778-.409.793-.924s0-1.011.009-1.517a2.7,2.7,0,0,1,2.807-2.9q2.956-.057,5.915,0a2.76,2.76,0,0,1,2.815,2.853c.014.531.011,1.061,0,1.592-.008.551.26.9.8.893a.747.747,0,0,0,.753-.862c0-.354,0-.708,0-1.062,0-.126,0-.252,0-.379A4.324,4.324,0,0,0,69.275,2.8c-1.9,0-3.792-.01-5.688,0a4.281,4.281,0,0,0-4.258,3.584A13.906,13.906,0,0,0,59.246,8.8c-.007.526.26.911.8.909" transform="translate(-11.035 -0.52)" fill="#7d8a95"/>
        <path id="Trazado_159470" data-name="Trazado 159470" d="M52.591,73.625c-.486,0-.65.112-.64.622.033,1.615.012,3.23.012,4.846,0,1.566.019,3.13-.011,4.7-.01.513.117.7.664.69,1.712-.019,2.514-.779,2.517-2.483q0-2.916,0-5.831c0-1.759-.8-2.53-2.542-2.539" transform="translate(-9.678 -13.716)" fill="#62a3fa"/>
        <path id="Trazado_159471" data-name="Trazado 159471" d="M5.971,79.041c0-1.592-.017-3.184.01-4.776.008-.478-.1-.645-.618-.642-1.7.011-2.535.782-2.545,2.477q-.02,2.957,0,5.914c.012,1.683.8,2.422,2.475,2.466.607.015.7-.208.69-.739-.031-1.566-.011-3.134-.011-4.7" transform="translate(-0.523 -13.716)" fill="#61a3fa"/>
        <path id="Trazado_159472" data-name="Trazado 159472" d="M46.451,42.7c-.4-.025-.807.007-1.212.014a2.726,2.726,0,0,1,.891,2.223c.041,2.134.022,4.27.011,6.405a4.094,4.094,0,0,1-.752,2.243c.352.007.707.037,1.059.018a2,2,0,0,0,1.973-2q.048-3.449,0-6.9A2.024,2.024,0,0,0,46.451,42.7" transform="translate(-8.428 -7.954)" fill="#5391f8"/>
        <path id="Trazado_159473" data-name="Trazado 159473" d="M17.656,57.092c.4.038.762.091.749-.569-.044-2.2-.017-4.393-.017-6.589,0-2.222-.026-4.444.016-6.666.012-.651-.333-.618-.746-.574-.387.04-.919-.254-.913.571q.045,6.628,0,13.255c-.006.826.525.535.911.572" transform="translate(-3.12 -7.95)" fill="#e7a32d"/>
        <path id="Trazado_159474" data-name="Trazado 159474" d="M39.887,56.463c-.007.841.505.583.932.64.553.075.731-.1.72-.688-.039-2.173-.015-4.348-.015-6.522s0-4.348,0-6.522c0-.216.111-.575-.111-.62a3.135,3.135,0,0,0-1.342,0c-.29.072-.15.491-.151.746-.012,4.322.011,8.646-.028,12.968" transform="translate(-7.43 -7.95)" fill="#e6a32c"/>
        <path id="Trazado_159475" data-name="Trazado 159475" d="M45.292,53.221a6.959,6.959,0,0,0,.529-3.464c-.011-1.132-.047-2.266.009-3.4a7.349,7.349,0,0,0-.694-3.642c-.5-.127-.445.217-.444.522,0,3.273.011,6.547-.011,9.82,0,.491.152.638.6.527a.444.444,0,0,1,.007-.367" transform="translate(-8.324 -7.953)" fill="#61a2f9"/>
        <path id="Trazado_159476" data-name="Trazado 159476" d="M46.131,44.946a2.724,2.724,0,0,0-.891-2.222,7.35,7.35,0,0,1,.694,3.643c-.056,1.13-.02,2.264-.009,3.4a6.962,6.962,0,0,1-.529,3.464.443.443,0,0,0-.007.367,4.076,4.076,0,0,0,.752-2.243c.011-2.135.031-4.271-.01-6.405" transform="translate(-8.428 -7.959)" fill="#61a2f9"/>
        <path id="Trazado_159477" data-name="Trazado 159477" d="M19.488,63.185c-.754.019-1.509.006-2.263.006-.78,0-1.559.006-2.339,0-.277,0-.485,0-.47.386.013.33.071.506.458.5,1.534-.016,3.068-.013,4.6,0,.331,0,.43-.129.435-.447s-.085-.45-.422-.442" transform="translate(-2.685 -11.771)" fill="#f0e135"/>
        <path id="Trazado_159478" data-name="Trazado 159478" d="M42.533,63.188q-2.265.011-4.531,0c-.3,0-.456.05-.45.406s.1.495.474.483c.754-.024,1.51-.007,2.265-.007s1.51-.013,2.265.006c.347.008.483-.09.491-.465.011-.424-.212-.423-.515-.422" transform="translate(-6.996 -11.771)" fill="#f1e235"/>
        <path id="Trazado_159479" data-name="Trazado 159479" d="M56.342,88.929c-.263.03-.438.1-.437.391,0,.577-.031,1.157.025,1.729a.827.827,0,0,0,1.651-.07c.014-.25,0-.5,0-.753.007-1.417-.02-1.439-1.242-1.3" transform="translate(-10.414 -16.557)" fill="#7a8791"/>
        <path id="Trazado_159480" data-name="Trazado 159480" d="M79.042,88.934c-.307.02-.466.089-.455.428.017.529-.006,1.058.009,1.587a.772.772,0,0,0,.838.858.8.8,0,0,0,.829-.877c.011-.251,0-.5,0-.756,0-1.331,0-1.32-1.224-1.239" transform="translate(-14.64 -16.563)" fill="#7d8a95"/>
        <path id="Trazado_159481" data-name="Trazado 159481" d="M45.979,59.174c-.171-.006-.342-.016-.513-.01-.237.009-.458.058-.5.342a.509.509,0,0,0,.268.569c.222.124.465.212.678.352a2.472,2.472,0,0,1,.072-1.252" transform="translate(-8.374 -11.022)" fill="#c6a199"/>
        <path id="Trazado_159482" data-name="Trazado 159482" d="M45.176,60.02a.509.509,0,0,1-.269-.569c.047-.285.269-.334.505-.343.172-.006.343,0,.513.011a1.217,1.217,0,0,1,.1-.19,1.255,1.255,0,0,0-.444-.019c-.3.1-.812-.318-.89.32-.062.5-.1,1.016.644,1.078.181.015.351.178.525.273,0-.07-.007-.141-.012-.211-.213-.14-.456-.228-.678-.352" transform="translate(-8.321 -10.967)" fill="#c6a199"/>
        <path id="Trazado_159483" data-name="Trazado 159483" d="M46.279,59.179c-.031,0-.062,0-.092,0a2.472,2.472,0,0,0-.072,1.252c.031.02.059.044.089.067a3.084,3.084,0,0,0,.076-1.317" transform="translate(-8.583 -11.024)" fill="#c6a199"/>
        <path id="Trazado_159484" data-name="Trazado 159484" d="M46.125,60.716c.006.07.011.141.012.211a.985.985,0,0,0,.076-.144c-.029-.023-.058-.046-.089-.067" transform="translate(-8.593 -11.311)" fill="#c6a199"/>
        <path id="Trazado_159485" data-name="Trazado 159485" d="M46.306,59.135a1.488,1.488,0,0,1,.013-.19,1.21,1.21,0,0,0-.1.189c.03,0,.061,0,.092,0" transform="translate(-8.61 -10.981)" fill="#c6a199"/>
        <path id="Trazado_159486" data-name="Trazado 159486" d="M17.405,84.449q9.171,0,18.343,0a2.757,2.757,0,0,0,2.981-2.969q.007-3.941,0-7.883a2.736,2.736,0,0,0-2.971-2.967q-4.586-.009-9.171,0c-3.082,0-6.165,0-9.248,0a2.7,2.7,0,0,0-2.933,2.919q-.024,3.98,0,7.96a2.731,2.731,0,0,0,3,2.941m.165-11.561c3.007.036,6.013.015,9.02.015,2.981,0,5.964.016,8.944-.012.681-.007.943.186.933.9-.034,2.5-.028,5,0,7.5.007.649-.2.893-.871.89q-9.021-.028-18.041,0c-.659,0-.9-.212-.892-.871q.034-3.752,0-7.5c-.007-.674.192-.932.91-.924" transform="translate(-2.681 -13.158)"/>
        <path id="Trazado_159487" data-name="Trazado 159487" d="M64.859,28.881a1.013,1.013,0,0,0-.941-.933,1.06,1.06,0,0,0-1.206.7,2.376,2.376,0,0,0-.1.972q0,19.408,0,38.817a2.465,2.465,0,0,0,.1.973,1.062,1.062,0,0,0,1.194.721,1.014,1.014,0,0,0,.955-.919,5.339,5.339,0,0,0,.028-.832q0-9.667,0-19.333t0-19.333a5.787,5.787,0,0,0-.024-.832" transform="translate(-11.663 -5.204)"/>
        <path id="Trazado_159488" data-name="Trazado 159488" d="M73.422,29.465a4.458,4.458,0,0,0-.006-.455,1.066,1.066,0,0,0-1.061-1.069,1.1,1.1,0,0,0-1.195,1.014,5.286,5.286,0,0,0-.013.682q0,9.7,0,19.41t0,19.409a3.235,3.235,0,0,0,.029.755,1.129,1.129,0,0,0,2.234-.093,3.6,3.6,0,0,0,.011-.531V29.465" transform="translate(-13.253 -5.205)"/>
        <path id="Trazado_159489" data-name="Trazado 159489" d="M80.667,27.944c-.644.081-.966.532-.967,1.388q0,9.857,0,19.714,0,9.667,0,19.334a6.335,6.335,0,0,0,.014.757,1.118,1.118,0,0,0,2.185.2,3.236,3.236,0,0,0,.073-.9q0-19.409,0-38.82a4.023,4.023,0,0,0-.033-.755,1.107,1.107,0,0,0-1.273-.917" transform="translate(-14.847 -5.204)"/>
        <path id="Trazado_159490" data-name="Trazado 159490" d="M18.073,82.7q9.02-.029,18.041,0c.67,0,.878-.242.871-.89-.026-2.5-.032-5,0-7.5.01-.714-.252-.906-.933-.9-2.981.028-5.963.012-8.945.012-3.007,0-6.013.02-9.02-.015-.717-.009-.916.25-.91.924q.038,3.751,0,7.5c-.006.658.233.873.892.871" transform="translate(-3.201 -13.675)" fill="#f3e1c0"/>
      </g>
    </g>
  </g>
</svg>
