<svg xmlns="http://www.w3.org/2000/svg" xmlns:xlink="http://www.w3.org/1999/xlink" width="105" height="105" viewBox="0 0 105 105">
  <defs>
    <clipPath id="clip-path">
      <rect id="Rectángulo_42404" data-name="Rectángulo 42404" width="63.13" height="83.769" fill="none"/>
    </clipPath>
  </defs>
  <g id="_21" data-name="21" transform="translate(4055 8600)">
    <circle id="Elipse_4891" data-name="Elipse 4891" cx="52.5" cy="52.5" r="52.5" transform="translate(-4055 -8600)" fill="#ffdfe0"/>
    <g id="Grupo_169188" data-name="Grupo 169188" transform="translate(-4034 -8589)">
      <g id="Grupo_169187" data-name="Grupo 169187" clip-path="url(#clip-path)">
        <path id="Trazado_159620" data-name="Trazado 159620" d="M28.783,83.769a9.529,9.529,0,0,0-2.6-.463A31.686,31.686,0,0,1,.36,56.937,32.616,32.616,0,0,1,0,52.051C.009,45.29-.011,38.529.008,31.768a31.557,31.557,0,1,1,63.114-.006c0,6.734.016,13.468,0,20.2A31.589,31.589,0,0,1,38.3,83.039a22.076,22.076,0,0,1-3.954.582c-.13.006-.278-.026-.334.147Z" transform="translate(0 0)"/>
        <path id="Trazado_159621" data-name="Trazado 159621" d="M61.284,42.52c0,3.407.06,6.817-.011,10.223-.223,10.649-4.758,19-13.719,24.745C30.944,88.136,8.241,78.742,3.863,59.51a30.979,30.979,0,0,1-.791-6.882c0-6.761-.02-13.522,0-20.283A29.122,29.122,0,0,1,22.12,4.877C38.261-1.245,56.661,8.647,60.491,25.5a31.327,31.327,0,0,1,.793,6.964q0,5.029,0,10.059" transform="translate(-0.613 -0.611)" fill="#cfe1e6"/>
        <path id="Trazado_159622" data-name="Trazado 159622" d="M22.174,9.751c-.111-1.2.029-1.419,1.2-1.866A26.676,26.676,0,0,1,58.92,27.568a25.652,25.652,0,0,1,.512,4.869c.006,7.115.068,14.231-.012,21.346a26.632,26.632,0,0,1-52.83,4.461,28.1,28.1,0,0,1-.455-5.038c0-6.761-.062-13.523.015-20.282a26.3,26.3,0,0,1,11.128-21.76c.867-.648,1.246-.625,2.084.072a1.172,1.172,0,0,1-.259,1.876c-.961.72-1.872,1.5-2.771,2.288a19.5,19.5,0,0,0-2.476,2.778c.214.255.449.178.654.178,2.615,0,5.231-.012,7.846.014a1.5,1.5,0,0,0,1.516-.862c.3-.579.63-1.146.979-1.7a3,3,0,0,1,2.766-1.552q5.19.061,10.381,0a2.983,2.983,0,0,1,2.7,1.512,17.309,17.309,0,0,0,1.514,2.416.946.946,0,0,0,.691.184c2.831,0,5.662.006,8.493-.009.081,0,.163-.012.361-.161A23.242,23.242,0,0,0,44.3,11.843,23.751,23.751,0,0,0,35.35,9a23.5,23.5,0,0,0-10.665,1.272,3.829,3.829,0,0,1-1.257.326c-.593,0-1.169-.071-1.254-.845" transform="translate(-1.223 -1.232)"/>
        <path id="Trazado_159623" data-name="Trazado 159623" d="M24.007,10.363c.566.784,1.257.737,2.089.43a23.791,23.791,0,0,1,19.242.969c.315.151.6.355.907.534a18.635,18.635,0,0,1,4.506,5.931c.366.683.235.893-.51.885-2.12-.022-4.242.069-6.362-.046-.529-.885-1.064-1.765-1.586-2.654a2.52,2.52,0,0,0-2.345-1.345q-5.352.024-10.7,0a2.462,2.462,0,0,0-2.279,1.314c-.454.775-.91,1.548-1.337,2.337a.771.771,0,0,1-.777.449c-3.184-.013-6.368-.007-9.548-.007-.123-.3.114-.422.234-.576a23.2,23.2,0,0,1,5.048-4.848,1.407,1.407,0,0,0,.61-1.889,15.37,15.37,0,0,1,2.813-1.485" transform="translate(-3.056 -1.844)" fill="#9ab8c0"/>
        <path id="Trazado_159624" data-name="Trazado 159624" d="M52.674,42.255c0,.054,0,.108,0,.162a2.216,2.216,0,0,0-.2,1.416c-.014,3.824-.007,7.648-.008,11.472a4.981,4.981,0,0,1-.086,1.3c-.079.294-.072.676-.516.719q-5.482-3.136-10.962-6.274c-2.4-1.381-4.793-2.787-7.2-4.154a1.718,1.718,0,0,1-.913-1.144c-1.525-5.78-3.079-11.552-4.621-17.328-.462-1.732-.891-2.07-2.676-2.071-1.934,0-3.868-.006-5.8,0-1.52.006-2.195.671-2.2,2.2q-.012,8.7,0,17.41a2.661,2.661,0,0,1-.186,1.193,1.447,1.447,0,0,0,.161,1.4c.4.678.783,1.369,1.189,2.044.5.841.846.961,1.833.682.407.141.469.553.669.857a11.042,11.042,0,0,0,1.293,1.912c-1.041.636-1.16,1.115-.529,2.211,1.789,3.107,3.557,6.228,5.4,9.307.422.706.28.963-.383,1.313-1.415.749-2.792,1.572-4.172,2.387a4.819,4.819,0,0,0-2.5,3.8A3.531,3.531,0,0,0,23.8,77.125c3.131.041,6.262.032,9.392,0,.651-.006,1.025.2,1.184.813.171.559-.315.567-.6.649a21.027,21.027,0,0,1-5.287.883c-1,.022-2.011-.027-3.014.014a6.417,6.417,0,0,1-2.214-.419,23,23,0,0,1-9.324-7.578A23.658,23.658,0,0,1,9.212,57.173q-.038-10.5.006-21a23.716,23.716,0,0,1,2.757-10.89.851.851,0,0,1,.853-.578q18.916.024,37.833.018a1.573,1.573,0,0,1,.242.036,3.57,3.57,0,0,1,.654,2.616,7.344,7.344,0,0,0-3-.094,5.78,5.78,0,0,0-3.8,2.611,1.506,1.506,0,0,1-1.333.764,6.433,6.433,0,0,0,.1,12.863c1.443.042,2.888.014,4.333.006,1.011-.006,1.322-.263,1.589-1.267.857-.465,1.777-.179,2.67-.222a.783.783,0,0,1,.553.221" transform="translate(-1.84 -4.945)" fill="#b8e3ee"/>
        <path id="Trazado_159625" data-name="Trazado 159625" d="M25.259,60.03a.615.615,0,0,1-.619-.4c-.433-.8-.893-1.579-1.343-2.367,1.017-.854.418-1.7-.07-2.543.215-.178.438-.106.633-.106,3.378-.006,6.756,0,10.134-.013a2.322,2.322,0,0,1,1.225.342Q44.353,60.23,53.5,65.505c.3.174.578.393.866.59a10.237,10.237,0,0,1-1.154,3.86,25.812,25.812,0,0,1-11.794,12.71,2.665,2.665,0,0,1-.821.353c-.2.031-.455.09-.454-.26a15.7,15.7,0,0,1,1.991-2.022c1.384-1.229,1.514-1.965.6-3.541-2.379-4.117-4.776-8.225-7.126-12.358a2.4,2.4,0,0,0-2.37-1.374c-1.443.046-2.887-.006-4.331.022a.9.9,0,0,1-.958-.54c-.356-.7-.8-1.358-1.171-2.053a1.44,1.44,0,0,0-1.518-.861" transform="translate(-4.649 -10.929)" fill="#f0f3f5"/>
        <path id="Trazado_159626" data-name="Trazado 159626" d="M22.638,38.5c0-2.615.026-5.23-.018-7.844-.011-.7.214-.865.875-.842,1.414.05,2.832.03,4.248.007.472-.008.711.093.848.614q2.115,8.042,4.3,16.065c.149.547.081.709-.517.7q-4.534-.037-9.068,0c-.548,0-.685-.171-.68-.7.023-2.669.01-5.339.01-8.008" transform="translate(-4.528 -5.968)" fill="#cf6161"/>
        <path id="Trazado_159627" data-name="Trazado 159627" d="M44.278,85.636c.258.311.5.074.725-.041A25.829,25.829,0,0,0,56.18,74.777a32.489,32.489,0,0,0,2.322-5.8c1.752.8,3.333,1.9,5.023,2.8.382.2.194.5.114.781A24.052,24.052,0,0,1,53.319,86.43a23.519,23.519,0,0,1-6.983,3.038c-.389.1-.581.052-.773-.306-.475-.884-.964-1.764-1.508-2.607-.289-.447-.134-.682.224-.919" transform="translate(-8.788 -13.806)" fill="#dee9ee"/>
        <path id="Trazado_159628" data-name="Trazado 159628" d="M59.823,43.477l-2.758,0a1.363,1.363,0,0,0-1.57-1.193c-1.36.032-2.72.016-4.081.006a3.989,3.989,0,1,1-.146-7.973,3.772,3.772,0,0,0,3.163-1.845,3.392,3.392,0,0,1,5.385-.583,2.98,2.98,0,0,1,.276,1.425c0,2.971,0,5.941,0,8.912a1.71,1.71,0,0,1-.266,1.247" transform="translate(-9.453 -6.17)" fill="#f0f3f5"/>
        <path id="Trazado_159629" data-name="Trazado 159629" d="M62.551,61.753a2.624,2.624,0,0,0,.343-1.544q0-6.266.009-12.533c0-.332-.2-.826.453-.825a1.39,1.39,0,0,0,1.572,1.113c.953-.019,1.907.012,2.859-.011.394-.01.512.122.5.511-.093,5.228.158,10.458-.143,15.684-.044.769-.238.78-.832.415-1.571-.965-3.175-1.876-4.766-2.809" transform="translate(-12.521 -9.378)" fill="#92d7e3"/>
        <path id="Trazado_159630" data-name="Trazado 159630" d="M40.036,83.9,31.3,68.762c1.215,0,2.29.015,3.364-.008.354-.008.457.211.593.447q3.419,5.932,6.85,11.856c.182.311.2.508-.07.77-.658.649-1.289,1.326-2.005,2.068" transform="translate(-6.266 -13.762)" fill="#dee9ee"/>
        <path id="Trazado_159631" data-name="Trazado 159631" d="M35.923,85.673H32.178c-1.6,0-3.209.012-4.813-.006-1-.012-1.451-.628-1.245-1.62a2.345,2.345,0,0,1,1.149-1.608c1.545-.909,3.1-1.793,4.653-2.7.27-.157.458-.233.655.114,1.072,1.884,2.161,3.759,3.347,5.817" transform="translate(-5.219 -15.936)" fill="#cf6161"/>
        <path id="Trazado_159632" data-name="Trazado 159632" d="M62.974,43.745q0-5.792-.006-11.584a3.049,3.049,0,0,1,1.017,1.964c.334,2.243,1.427,3.2,3.725,3.211.539,0,.683.153.669.678-.036,1.3-.043,2.607,0,3.909.021.577-.206.669-.7.651-.922-.032-1.846.006-2.769-.012a1.3,1.3,0,0,0-1.474,1.186l-.465,0" transform="translate(-12.604 -6.438)" fill="#dee9ee"/>
        <path id="Trazado_159633" data-name="Trazado 159633" d="M62,27.373l-.655-2.616c1.06-.014,2.119-.014,3.178-.049a.676.676,0,0,1,.681.452,23.76,23.76,0,0,1,2.486,7.37c.042.258.4.71-.181.869a1.012,1.012,0,0,1-1.357-.684c-.075-.315-.082-.647-.158-.963A6.114,6.114,0,0,0,62,27.373" transform="translate(-12.279 -4.946)" fill="#92d7e3"/>
        <path id="Trazado_159634" data-name="Trazado 159634" d="M26.784,92.388a31,31,0,0,0,5.261.15,21.157,21.157,0,0,0,5.4-.906c.2-.054.446-.075.46-.37L39.834,94.5a23.45,23.45,0,0,1-13.05-2.109" transform="translate(-5.361 -18.268)" fill="#92d7e3"/>
        <path id="Trazado_159635" data-name="Trazado 159635" d="M31.608,21.164a1.928,1.928,0,0,1,2.318-1.6c2.639.117,5.289.116,7.929,0a1.929,1.929,0,0,1,2.32,1.6Z" transform="translate(-6.327 -3.914)" fill="#849ead"/>
        <path id="Trazado_159636" data-name="Trazado 159636" d="M51.041,19.838c2.068-.013,4.136-.034,6.2-.033.607,0,.861-.021.465-.749a25.743,25.743,0,0,0-4.145-5.71,1.315,1.315,0,0,1-.16-.278,23.013,23.013,0,0,1,7.752,6.659c-.042.212-.152.206-.259.206q-4.657.006-9.314.012c-.186,0-.385.039-.544-.108" transform="translate(-10.217 -2.616)" fill="#859fae"/>
      </g>
    </g>
  </g>
</svg>
