<svg xmlns="http://www.w3.org/2000/svg" xmlns:xlink="http://www.w3.org/1999/xlink" width="105" height="105" viewBox="0 0 105 105">
  <defs>
    <clipPath id="clip-path">
      <rect id="Rectángulo_42406" data-name="Rectángulo 42406" width="71.671" height="71.687" fill="none"/>
    </clipPath>
  </defs>
  <g id="_23" data-name="23" transform="translate(5322 8178)">
    <circle id="Elipse_4903" data-name="Elipse 4903" cx="52.5" cy="52.5" r="52.5" transform="translate(-5322 -8178)" fill="#ffdfe0"/>
    <g id="Grupo_169195" data-name="Grupo 169195" transform="translate(-5305 -8161)">
      <g id="Grupo_169194" data-name="Grupo 169194" transform="translate(0 0)" clip-path="url(#clip-path)">
        <path id="Trazado_159658" data-name="Trazado 159658" d="M58.7,73.755a6.293,6.293,0,0,0,.074-1.255q0-7.526,0-15.051a3.768,3.768,0,0,1,.069-1.044,1.166,1.166,0,0,1,1.127-.882,1.085,1.085,0,0,1,.156.026,34.4,34.4,0,0,0-.387-6.449,8.906,8.906,0,0,1-.1-2.7,19.853,19.853,0,0,1-5.422.092A19.694,19.694,0,0,1,38.539,34.738a1.44,1.44,0,0,0-1.564-.975c-1.516.04-3.033.013-4.55.011a4.739,4.739,0,0,1-.769-.031,1.162,1.162,0,0,1-.029-2.318,3.858,3.858,0,0,1,.7-.035c1.214,0,2.427,0,3.641,0,1.356,0,1.426-.081,1.215-1.387a18.549,18.549,0,0,1,.131-6.817,28.913,28.913,0,0,1,.8-2.9c.268-.837.108-1.04-.785-1.071-.07,0-.14,0-.21,0q-4.165,0-8.33,0c-1.125,0-1.232.11-1.234,1.25,0,2.917,0,5.834,0,8.75,0,2.963-1.585,4.557-4.528,4.559q-4.235,0-8.47,0c-1.551,0-1.562.011-1.562,1.554v37.1a9.753,9.753,0,0,0,.023.979,2.967,2.967,0,0,0,2.776,2.762c.3.029.606.021.909.021q19.181,0,38.362,0a6.393,6.393,0,0,0,1.256-.071A2.934,2.934,0,0,0,58.7,73.755" transform="translate(-4.8 -7.098)" fill="#fefefe"/>
        <path id="Trazado_159659" data-name="Trazado 159659" d="M0,7.142c.213-.047.18-.256.233-.391A4.188,4.188,0,0,1,4.383,3.923q17.358,0,34.717.009a2.547,2.547,0,0,0,1.542-.474,19.876,19.876,0,1,1-7.165,24.083.893.893,0,0,0-1.005-.673c-1.749.041-3.5.018-5.249.014-1.049,0-1.719-.573-1.7-1.431.022-.834.673-1.364,1.69-1.367,1.7,0,3.4,0,5.146,0A21.155,21.155,0,0,1,32,18.126a21.878,21.878,0,0,1,1.4-5.8h-.627c-3.057,0-6.113.013-9.169-.012-.5,0-.661.09-.656.633.032,3.126.016,6.253.015,9.38a4.234,4.234,0,0,1-4.587,4.561c-3.126,0-6.253.012-9.379-.013-.493,0-.607.12-.607.61q.022,19.214.013,38.427a2.8,2.8,0,0,0,2.977,2.978q19.7,0,39.406,0a2.8,2.8,0,0,0,2.977-2.979q.008-7.91,0-15.819c0-.187-.009-.374,0-.56a1.4,1.4,0,0,1,2.794.026c.009.139,0,.28,0,.42q0,7.91,0,15.819a5.528,5.528,0,0,1-4.7,5.787c-.027.006-.042.071-.062.108H10.081A5.488,5.488,0,0,1,5.507,66.96c-.123-.622-.433-.707-.962-.7a4.423,4.423,0,0,1-4.12-2.153A9.814,9.814,0,0,1,0,62.867Z" transform="translate(0 0)"/>
        <path id="Trazado_159660" data-name="Trazado 159660" d="M40.695,72.971H28.025c-.187,0-.375.009-.56-.005a1.4,1.4,0,0,1-.028-2.789c.162-.014.327-.006.49-.006H53.548c.117,0,.234,0,.35,0a1.4,1.4,0,1,1,.028,2.8c-.209.01-.42,0-.63,0h-12.6" transform="translate(-9.652 -25.926)"/>
        <path id="Trazado_159661" data-name="Trazado 159661" d="M46.911,86.156q5.034,0,10.069,0a1.7,1.7,0,0,1,1.18.33,1.4,1.4,0,0,1-.687,2.455,2.514,2.514,0,0,1-.488.018H36.777c-.093,0-.187,0-.279,0a1.411,1.411,0,0,1-1.408-1.431,1.391,1.391,0,0,1,1.4-1.362c.815-.024,1.631-.006,2.447-.006h7.972" transform="translate(-12.965 -31.83)"/>
        <path id="Trazado_159662" data-name="Trazado 159662" d="M35.555,56.984q-3.881,0-7.764,0c-1.039,0-1.652-.511-1.668-1.371-.016-.89.609-1.426,1.682-1.427q7.764,0,15.527,0c1.028,0,1.632.53,1.629,1.405s-.607,1.384-1.643,1.393c-.14,0-.28,0-.42,0H35.555" transform="translate(-9.652 -20.019)"/>
        <path id="Trazado_159663" data-name="Trazado 159663" d="M88.068,68.916a1.4,1.4,0,1,1-1.354-1.407,1.417,1.417,0,0,1,1.354,1.407" transform="translate(-31.507 -24.943)" fill="#010101"/>
        <path id="Trazado_159664" data-name="Trazado 159664" d="M27.578,86.163a1.4,1.4,0,1,1-1.371,1.388,1.415,1.415,0,0,1,1.371-1.388" transform="translate(-9.683 -31.835)" fill="#010101"/>
        <path id="Trazado_159665" data-name="Trazado 159665" d="M55.071,21.523a17.081,17.081,0,1,1,17.08,17.082,17.108,17.108,0,0,1-17.08-17.082" transform="translate(-20.347 -1.642)" fill="#92e6f7"/>
        <path id="Trazado_159666" data-name="Trazado 159666" d="M38.538,10.661a20.132,20.132,0,0,0-1.873,2.533c-.209.356-.509.264-.794.264-4.083,0-8.165.015-12.247-.008a2.258,2.258,0,0,0-1.731.727Q14.93,21.169,7.937,28.131a2.266,2.266,0,0,0-.706,1.739q.021,18.266.026,36.532c0,.648-.11.871-.813.844-1.614-.062-2-.411-2-2.054V12.563c0-1.475.431-1.9,1.924-1.9H38.538Z" transform="translate(-1.641 -3.939)" fill="#febd52"/>
        <path id="Trazado_159667" data-name="Trazado 159667" d="M16.776,32.559,26.333,23c.107.124.022.339.023.532q.01,3.668,0,7.335c0,1.2-.507,1.709-1.69,1.71q-3.738.006-7.475,0c-.149,0-.319.069-.418-.02" transform="translate(-6.198 -8.5)" fill="#fee5be"/>
        <path id="Trazado_159668" data-name="Trazado 159668" d="M71.674,17.615a1.714,1.714,0,0,1,1.294.61c1.45,1.451,2.914,2.889,4.344,4.359.366.376.569.427.97.019,2.634-2.674,5.3-5.318,7.95-7.973a1.853,1.853,0,0,1,.98-.633,1.342,1.342,0,0,1,1.406.573,1.3,1.3,0,0,1,.049,1.51,3.55,3.55,0,0,1-.548.631q-4.472,4.479-8.949,8.952c-1.056,1.055-1.67,1.061-2.708.025Q73.668,22.9,70.875,20.1a1.385,1.385,0,0,1-.378-1.65,1.283,1.283,0,0,1,1.178-.835" transform="translate(-25.998 -5.163)"/>
        <path id="Trazado_159669" data-name="Trazado 159669" d="M82.741,10.654c0,.186.009.373,0,.558a1.389,1.389,0,0,1-2.769.142,6.793,6.793,0,0,1,0-1.463,1.39,1.39,0,0,1,2.771.135c.013.209,0,.419,0,.628" transform="translate(-29.532 -3.201)"/>
        <path id="Trazado_159670" data-name="Trazado 159670" d="M61.247,29.3c1.314-.008,1.984.48,1.962,1.422-.022.91-.68,1.371-1.959,1.371a5.841,5.841,0,0,1-.7-.012,1.413,1.413,0,0,1-1.262-1.426,1.383,1.383,0,0,1,1.329-1.352c.208-.016.419,0,.628,0" transform="translate(-21.906 -10.826)"/>
        <path id="Trazado_159671" data-name="Trazado 159671" d="M100.784,32.119c-1.317.009-1.986-.475-1.967-1.416.018-.911.678-1.376,1.953-1.376a5.976,5.976,0,0,1,.7.01,1.407,1.407,0,0,1,1.269,1.421,1.382,1.382,0,0,1-1.323,1.358c-.208.016-.419,0-.628,0" transform="translate(-36.51 -10.834)"/>
        <path id="Trazado_159672" data-name="Trazado 159672" d="M79.928,50.129q0-1.922,1.379-1.939c.933-.011,1.422.671,1.421,1.98,0,.139,0,.279,0,.419a1.429,1.429,0,0,1-1.391,1.52,1.411,1.411,0,0,1-1.407-1.561c0-.139,0-.279,0-.419" transform="translate(-29.531 -17.805)"/>
      </g>
    </g>
  </g>
</svg>
