<svg xmlns="http://www.w3.org/2000/svg" xmlns:xlink="http://www.w3.org/1999/xlink" width="105" height="105" viewBox="0 0 105 105">
  <defs>
    <clipPath id="clip-path">
      <rect id="Rectángulo_42407" data-name="Rectángulo 42407" width="62.454" height="63.662" fill="none"/>
    </clipPath>
  </defs>
  <g id="_24" data-name="24" transform="translate(5007 8178)">
    <circle id="Elipse_4904" data-name="Elipse 4904" cx="52.5" cy="52.5" r="52.5" transform="translate(-5007 -8178)" fill="#ffdfe0"/>
    <g id="Grupo_169198" data-name="Grupo 169198" transform="translate(-4986 -8157)">
      <g id="Grupo_169197" data-name="Grupo 169197" transform="translate(0 0)" clip-path="url(#clip-path)">
        <path id="Trazado_159673" data-name="Trazado 159673" d="M40.4,0c1.047.262,2.122.392,3.153.744a14,14,0,1,1-6.511-.61c.13-.019.3.052.375-.134Z" transform="translate(-7.803 0)"/>
        <path id="Trazado_159674" data-name="Trazado 159674" d="M4.431,67.613c-.2.741-.405.91-1.168.919-.5.007-1,.019-1.491-.009A1.793,1.793,0,0,1,.013,66.718c-.019-.952-.016-1.906,0-2.859a1.7,1.7,0,0,1,1.209-1.7c.353-.122.413-.29.412-.62-.008-3.252-.037-6.506.016-9.758a6.979,6.979,0,0,1,6.542-6.667c1.862-.07,3.728-.016,5.592-.014a5.532,5.532,0,0,1,1.466.239,7.019,7.019,0,0,1,5.17,6.671q.043,4.724-.01,9.448c-.008.585.317.763.7.767s.723-.16.716-.754c-.041-3.045-.034-6.091-.014-9.137A7.037,7.037,0,0,1,27.9,45.162a47.9,47.9,0,0,1,6.023-.064,5.632,5.632,0,0,1,1.409.207,7.091,7.091,0,0,1,5.307,6.9c.021,3.087.025,6.175-.012,9.261-.007.58.307.769.706.761a.651.651,0,0,0,.71-.758c-.035-3.252-.052-6.506.008-9.758a6.969,6.969,0,0,1,6.423-6.585c1.963-.085,3.934-.02,5.9-.012a3.484,3.484,0,0,1,.736.1,9.309,9.309,0,0,1,.955.26c.827.279.961.5.863,1.378-.29.627-.615.8-1.334.573a6.409,6.409,0,0,0-2.31-.255c-1.47.006-2.94-.006-4.41.006a4.919,4.919,0,0,0-4.767,4.656c-.051,3.105-.018,6.211-.01,9.317,0,.627.077.684.813.685q5.186.007,10.373,0c.228,0,.456,0,.683.009.7-.025,1.408-.018,2.111-.007.466.008.677-.165.676-.649-.007-3.147.011-6.294-.013-9.442a6.5,6.5,0,0,0-.49-1.918c-.224-.7-.095-1.047.456-1.339.805-.2,1.132-.055,1.473.7a7.265,7.265,0,0,1,.646,3.07c-.01,3.045,0,6.09-.01,9.135,0,.4.039.644.506.807a1.645,1.645,0,0,1,1.115,1.635c.017.869.009,1.74.006,2.61a1.869,1.869,0,0,1-2.113,2.087c-1.947,0-3.895.021-5.842-.012-.514-.008-.669.118-.648.64.043,1.076.028,2.154,0,3.231-.008.361.108.456.456.445.724-.024,1.45-.019,2.175,0a2.426,2.426,0,0,1-.021,4.851q-5.034.025-10.067,0a2.426,2.426,0,0,1-.02-4.851c.745-.019,1.491-.018,2.237,0,.29.006.4-.074.394-.381-.016-1.18-.023-2.361,0-3.542.01-.446-.258-.378-.522-.378-1.968,0-3.936.023-5.9-.006-2.777-.041-5.555.058-8.331,0-.462-.01-.608.1-.59.58.037,1.055.041,2.113,0,3.169-.02.493.153.588.6.566.681-.036,1.367-.023,2.05,0a2.424,2.424,0,0,1,0,4.847q-5.065.034-10.13,0a2.425,2.425,0,0,1,.012-4.85c.7-.019,1.409-.026,2.112,0,.374.014.505-.082.5-.476q-.039-1.678,0-3.356c.009-.4-.133-.482-.5-.478-1.719.017-3.439.036-5.158,0-3.047-.061-6.093.062-9.139,0-.434-.01-.563.109-.55.547.032,1.076.034,2.155,0,3.231-.015.456.14.554.56.534.7-.032,1.409-.021,2.112,0a2.424,2.424,0,0,1,.031,4.843q-5.126.042-10.254,0a2.423,2.423,0,0,1,.053-4.842c.745-.021,1.492-.023,2.237,0,.329.01.424-.091.419-.418-.019-1.139-.026-2.279,0-3.418.01-.4-.123-.511-.493-.469a1.036,1.036,0,0,1-1.246-.918c-.184-.486.151-.723.476-.94a1.76,1.76,0,0,1,1.011-.236c2.97,0,5.939-.022,8.908.009.683-.018,1.365-.016,2.048,0,.461.009.7-.146.668-.644a10.994,10.994,0,0,1,0-1.117c.016-.419-.162-.6-.586-.6-.7,0-1.407.014-2.111-.007-4.656.031-9.313.006-13.969.014-1.226,0-1.226,0-1.225,1.225v.125c0,.955,0,.957.945,1a1.945,1.945,0,0,1,.958.217c.352.217.637.482.443.959" transform="translate(0 -14.041)"/>
        <path id="Trazado_159675" data-name="Trazado 159675" d="M77.529,47.806a4.384,4.384,0,0,1,2.118.256,1.1,1.1,0,0,0,1.458-.383,6.678,6.678,0,0,1,1.78,1.639,1.1,1.1,0,0,0-.24,1.451,5.013,5.013,0,0,1,.493,2.279c-.008,3.082-.014,6.164.01,9.245,0,.482-.143.593-.593.57-.8-.04-1.612-.021-2.418-.027a1.307,1.307,0,0,1-.178-.952q-.008-4.5,0-9.007a5.765,5.765,0,0,0-1.974-4.391c-.2-.189-.509-.317-.455-.68" transform="translate(-24.171 -14.866)" fill="#028fce"/>
        <path id="Trazado_159676" data-name="Trazado 159676" d="M5.252,76.158c-.187-.723-.431-.914-1.16-.948-.447-.021-1.027.2-1.308-.1S2.7,74.242,2.7,73.792c-.012-1.354,0-1.356,1.328-1.354l14.1.021a4.042,4.042,0,0,1,0,2.72l-8.574.034c-.207,0-.415.01-.621,0a1.075,1.075,0,0,0-1.242.946H5.252" transform="translate(-0.821 -22.585)" fill="#01bff9"/>
        <path id="Trazado_159677" data-name="Trazado 159677" d="M42.117,26.7a11.142,11.142,0,0,1-6.917-.7A12.121,12.121,0,0,1,37.932,2.856a9.911,9.911,0,0,1,4.187.1A10.75,10.75,0,0,1,45.9,5.478c.172.156.515.414.022.643-.73-.244-1.339-.727-2.055-1.01a10.5,10.5,0,1,0-5.16,20.148,10.274,10.274,0,0,0,6.557-1.422,2.425,2.425,0,0,1,.88-.444c.482.226.089.435-.046.576a14.055,14.055,0,0,1-2.379,1.961,7.924,7.924,0,0,1-1.6.774" transform="translate(-8.652 -0.835)" fill="#ea5569"/>
        <path id="Trazado_159678" data-name="Trazado 159678" d="M48.626,26.827c.759-.529,1.631-.88,2.343-1.487a17.138,17.138,0,0,0,1.665-1.478c.069-.076.24-.144.077-.289-.022-.253.18-.357.332-.487a10.443,10.443,0,0,0,3.843-7.656,10.146,10.146,0,0,0-2.711-7.506,9.394,9.394,0,0,0-1.359-1.27c-.151-.111-.381-.2-.321-.473.111-.5-.359-.609-.608-.846a17.072,17.072,0,0,0-3.26-2.259,8.589,8.589,0,0,1,2.769.839,12.122,12.122,0,0,1-2.341,22.873,3.172,3.172,0,0,1-.429.04" transform="translate(-15.161 -0.959)" fill="#e43950"/>
        <path id="Trazado_159679" data-name="Trazado 159679" d="M17.264,62.862q-5.895.011-11.789.03c-.339,0-.409-.118-.408-.429.013-3.268-.023-6.537.029-9.8a5.11,5.11,0,0,1,4.6-4.813,47.229,47.229,0,0,1,4.836-.008,5.214,5.214,0,0,1,2.754,4.241c.386,3.389.105,6.806.16,10.21a.728.728,0,0,1-.182.573" transform="translate(-1.58 -14.897)" fill="#08a8f0"/>
        <path id="Trazado_159680" data-name="Trazado 159680" d="M46.543,62.876q-5.867.01-11.734.026c-.321,0-.427-.092-.425-.42.013-3.208-.047-6.418.032-9.623a5.123,5.123,0,0,1,5.177-5.035c1.406-.024,2.813.014,4.22.023A5.256,5.256,0,0,1,46.4,51.033a6.453,6.453,0,0,1,.339,2.137c-.01,2.919,0,5.839-.007,8.758,0,.324.066.67-.186.948" transform="translate(-10.717 -14.908)" fill="#08a8f0"/>
        <path id="Trazado_159681" data-name="Trazado 159681" d="M73.241,47.837a10.212,10.212,0,0,1,1.7,1.859,5.973,5.973,0,0,1,.915,3.04c-.011,3.377-.006,6.754-.008,10.131q-5.835.008-11.669.024c-.338,0-.412-.116-.41-.428.014-3.269-.023-6.539.032-9.806a5.091,5.091,0,0,1,4.539-4.805,44.919,44.919,0,0,1,4.9-.014" transform="translate(-19.883 -14.896)" fill="#08a8f0"/>
        <path id="Trazado_159682" data-name="Trazado 159682" d="M50.819,62.883c0-3.27.012-6.541,0-9.811a6.013,6.013,0,0,0-2.529-4.992,1.518,1.518,0,0,1-.2-.226,5.141,5.141,0,0,1,5.667,5.012c.082,3.2.019,6.412.032,9.618,0,.326-.1.434-.425.425-.847-.024-1.7-.019-2.543-.026" transform="translate(-14.993 -14.916)" fill="#028fce"/>
        <path id="Trazado_159683" data-name="Trazado 159683" d="M47.428,75.175c-1.178.011-2.356.03-3.534.031-3.744,0-7.487-.009-11.232.014-.524,0-.683-.15-.639-.66a9.552,9.552,0,0,0,0-1.55c-.036-.456.094-.594.572-.589,2.585.025,5.171.01,7.756.013q3.537,0,7.073.019a4.048,4.048,0,0,1,0,2.722" transform="translate(-9.982 -22.58)" fill="#01bff9"/>
        <path id="Trazado_159684" data-name="Trazado 159684" d="M76.853,75.175c-.206.012-.412.033-.618.033-4.722,0-9.444-.01-14.165.017-.571,0-.71-.162-.665-.691a14.046,14.046,0,0,0,0-1.676c-.012-.312.067-.431.407-.429q7.517.026,15.034.029a4.03,4.03,0,0,1,0,2.718" transform="translate(-19.143 -22.582)" fill="#01bff9"/>
        <path id="Trazado_159685" data-name="Trazado 159685" d="M21.553,62.881c0-3.036.013-6.072,0-9.108a6.542,6.542,0,0,0-2.588-5.716.761.761,0,0,1-.141-.2,5.129,5.129,0,0,1,5.6,5.067c.039,3.162.006,6.325.019,9.488,0,.357-.063.52-.47.5-.8-.039-1.61-.025-2.416-.032" transform="translate(-5.869 -14.916)" fill="#028fce"/>
        <path id="Trazado_159686" data-name="Trazado 159686" d="M42.92,88.133c1.571,0,3.142.006,4.714,0,.418,0,.789.085.786.567s-.374.572-.791.571q-4.775-.008-9.551,0c-.418,0-.786-.1-.786-.576s.375-.565.791-.562c1.612.009,3.225,0,4.837,0" transform="translate(-11.627 -27.478)" fill="#828282"/>
        <path id="Trazado_159687" data-name="Trazado 159687" d="M13.448,89.266c-1.553,0-3.105,0-4.658,0-.427,0-.829-.036-.823-.588.006-.52.4-.548.8-.547q4.751,0,9.5,0c.4,0,.79.035.793.552,0,.551-.4.586-.829.584-1.594-.005-3.188,0-4.782,0" transform="translate(-2.484 -27.479)" fill="#828282"/>
        <path id="Trazado_159688" data-name="Trazado 159688" d="M72.239,89.266c-1.594,0-3.188,0-4.782,0-.409,0-.78-.055-.789-.562s.364-.575.772-.574q4.751,0,9.5,0c.421,0,.836.029.819.588-.016.507-.4.549-.8.547-1.573-.006-3.146,0-4.72,0" transform="translate(-20.787 -27.479)" fill="#828282"/>
        <path id="Trazado_159689" data-name="Trazado 159689" d="M54.409,75.178q0-1.361,0-2.722c.843-.007,1.687-.006,2.53-.025.3-.007.455.045.442.4-.025.657-.017,1.317,0,1.974.006.278-.067.418-.376.409-.862-.022-1.726-.025-2.589-.035" transform="translate(-16.963 -22.583)" fill="#08a8f0"/>
        <path id="Trazado_159690" data-name="Trazado 159690" d="M25.145,75.177l0-2.72c.826-.007,1.652-.007,2.478-.025.268-.006.42.038.41.363-.021.681-.014,1.364,0,2.046,0,.253-.063.379-.345.372-.846-.023-1.692-.025-2.537-.036" transform="translate(-7.839 -22.584)" fill="#08a8f0"/>
        <path id="Trazado_159691" data-name="Trazado 159691" d="M83.854,75.176l0-2.718c.825-.008,1.651-.008,2.476-.026.27-.006.418.041.408.364-.021.681-.013,1.363,0,2.045,0,.251-.059.381-.343.373-.845-.023-1.691-.026-2.537-.037" transform="translate(-26.144 -22.583)" fill="#08a8f0"/>
        <path id="Trazado_159692" data-name="Trazado 159692" d="M45.71,81.372c0,.557-.023,1.117.006,1.673.025.509-.31.438-.615.434s-.636.092-.625-.424c.025-1.156.019-2.314.011-3.471,0-.425.255-.454.573-.445s.651-.054.643.435c-.009.6,0,1.2,0,1.8Z" transform="translate(-13.867 -24.675)" fill="#444"/>
        <path id="Trazado_159693" data-name="Trazado 159693" d="M15.224,81.37c-.007-.6.008-1.191-.026-1.785-.029-.493.281-.44.6-.449s.56.022.536.449c-.032.593-.019,1.189-.025,1.785a.9.9,0,0,1-1.082,0" transform="translate(-4.738 -24.673)" fill="#434343"/>
        <path id="Trazado_159694" data-name="Trazado 159694" d="M73.933,81.37c-.006-.595.009-1.191-.025-1.785-.029-.493.282-.44.6-.449s.56.022.536.449c-.032.594-.019,1.19-.026,1.785a.9.9,0,0,1-1.082,0" transform="translate(-23.043 -24.673)" fill="#434343"/>
        <path id="Trazado_159695" data-name="Trazado 159695" d="M15.226,82.383h1.082c.006.574,0,1.149.023,1.723.017.489-.333.361-.6.372s-.552.06-.534-.372c.025-.574.018-1.149.024-1.723" transform="translate(-4.739 -25.686)" fill="#595959"/>
        <path id="Trazado_159696" data-name="Trazado 159696" d="M73.934,82.382h1.083c.006.575,0,1.15.023,1.724.019.432-.27.383-.534.372s-.613.116-.6-.373c.021-.574.017-1.149.023-1.723" transform="translate(-23.044 -25.686)" fill="#585858"/>
        <path id="Trazado_159697" data-name="Trazado 159697" d="M46.657,6.726a11.032,11.032,0,0,1,4.066,5.56,10.655,10.655,0,0,1-3.58,11.585c-.1.076-.181.165-.27.248a11.09,11.09,0,0,1-6.894,2.025A10.666,10.666,0,1,1,46.657,6.726" transform="translate(-9.322 -1.504)"/>
        <path id="Trazado_159698" data-name="Trazado 159698" d="M45.644,83.39c0,.185-.013.371,0,.555.034.4-.21.412-.507.418-.32.006-.512-.066-.487-.441a9.054,9.054,0,0,0,0-.986c-.015-.347.018-.577.478-.582.481-.006.551.223.516.6-.012.143,0,.288,0,.432" transform="translate(-13.921 -25.677)" fill="#595959"/>
        <path id="Trazado_159699" data-name="Trazado 159699" d="M40.2,7.682c.221-.067.275.045.278.217,0,.187-.008.374.014.559a.937.937,0,0,0,.937.892.927.927,0,0,0,.91-.915c.085-.844.085-.844.907-.663a8.872,8.872,0,0,1,6.846,7.051c.08.426.051.64-.484.612-.745-.039-1.166.314-1.185.874-.021.582.434,1,1.184.962.514-.025.575.154.5.6a8.89,8.89,0,0,1-7.336,7.212c-.368.053-.438-.05-.416-.365a2.545,2.545,0,0,0-.014-.5.923.923,0,0,0-1.842,0c-.039.284.125.694-.085.824-.282.175-.672-.019-1-.108a8.718,8.718,0,0,1-6.643-6.945c-.1-.454-.144-.778.535-.722a.949.949,0,0,0,1.122-.957c-.018-.547-.434-.915-1.121-.876-.569.032-.639-.167-.536-.672a8.828,8.828,0,0,1,7.2-7.042c.082-.012.163-.027.227-.038" transform="translate(-10.2 -2.389)" fill="#fcd0d4"/>
        <path id="Trazado_159700" data-name="Trazado 159700" d="M44.02,15.176c0-.785-.012-1.571,0-2.356.014-.692.364-1.08.932-1.077s.916.39.926,1.084c.015,1.116.024,2.233,0,3.347-.011.418.08.579.532.555.742-.039,1.488-.018,2.231-.008.674.009,1.076.365,1.076.933s-.4.923-1.074.927q-1.767.012-3.534,0c-.732-.006-1.065-.322-1.084-1.05-.019-.785,0-1.57,0-2.356" transform="translate(-13.723 -3.661)" fill="#010101"/>
      </g>
    </g>
  </g>
</svg>
