<svg xmlns="http://www.w3.org/2000/svg" xmlns:xlink="http://www.w3.org/1999/xlink" width="193.66" height="546.49" viewBox="0 0 193.66 546.49">
  <defs>
    <clipPath id="clip-path">
      <rect id="Rectángulo_41885" data-name="Rectángulo 41885" width="151.6" height="536.845" fill="none"/>
    </clipPath>
    <clipPath id="clip-path-3">
      <rect id="Rectángulo_41881" data-name="Rectángulo 41881" width="99.92" height="298.514" fill="none"/>
    </clipPath>
    <clipPath id="clip-path-4">
      <rect id="Rectángulo_41882" data-name="Rectángulo 41882" width="3.659" height="2.953" fill="none"/>
    </clipPath>
    <clipPath id="clip-path-5">
      <rect id="Rectángulo_41883" data-name="Rectángulo 41883" width="9.318" height="3.071" fill="none"/>
    </clipPath>
    <clipPath id="clip-path-6">
      <rect id="Rectángulo_42445" data-name="Rectángulo 42445" width="110.836" height="258.382" fill="none"/>
    </clipPath>
  </defs>
  <g id="Grupo_169246" data-name="Grupo 169246" transform="translate(-1184.96 -3290.51)">
    <g id="Grupo_167595" data-name="Grupo 167595" transform="translate(1184.96 3320.26)">
      <g id="Grupo_157493" data-name="Grupo 157493" transform="translate(0 -66)">
        <path id="Trazado_114544" data-name="Trazado 114544" d="M163.649,424.5c26.877-12.193,54.751-28.645,65.575-56.159,12.013-30.535-.561-64.731-.259-97.554.24-26,8.643-51.113,15.255-76.256s11.468-51.859,4.646-76.946c-4.567-16.794-14.267-31.99-26.79-44.047C200.024,52.3,168.252,40.814,138.064,45.67S80.451,72.652,71.625,102c-12.5,41.583,11.921,85.972,6.73,129.09-2.031,16.872-8.532,32.827-12.94,49.237A202.218,202.218,0,0,0,58.508,333.9c.165,27.678,7.161,57.209,27.755,75.64C107.035,428.131,137.948,436.158,163.649,424.5Z" transform="translate(-58.504 -8.315)" fill="#fc5f65"/>
        <g id="Grupo_167822" data-name="Grupo 167822" transform="translate(35.099 45.896)">
          <g id="Grupo_167833" data-name="Grupo 167833" transform="translate(0)" clip-path="url(#clip-path)">
            <g id="Grupo_167832" data-name="Grupo 167832" transform="translate(0)">
              <g id="Grupo_167831" data-name="Grupo 167831" clip-path="url(#clip-path)">
                <path id="Trazado_156670" data-name="Trazado 156670" d="M30.509,8.372c16.854-12.765,41.04-11.49,49.953,7.682a25.764,25.764,0,0,1,1.613,4.486C85.8,35.1,74.878,36.079,87.25,44.664S105.693,56.474,107,64.45c2.314,14.088-14.468,10.587,2.778,22.719s20.712,23.913,15.672,33.806c-8.869,17.412-20.715-1.708-26.634,20.149-.036.132-.072.262-.108.392a13.931,13.931,0,0,1-25.445,3.29c-5.009-8.574-10.086-16.7-19.976-11.062C35.015,144.166,29.8,163.028,16.521,149.068s-1.736-23.231-11.852-31.452S2.638,92.9,13.324,86.581,37.729,79.2,31.364,71.415,22.357,58.536,25.77,52.456s-.568-5.465-1.995-14.7c-.831-5.379-3.535-21.609,6.734-29.386" transform="translate(23.98 0)" fill="#181709"/>
                <path id="Trazado_156671" data-name="Trazado 156671" d="M118.443,165.732q-3.741-4.163-7.245-8.5-4.171-5.162-7.976-10.559c-2.532-3.594-4.941-7.254-7.185-10.966-1.123-1.855-2.2-3.727-3.225-5.594l-.2-.357c.266-.56.554-1.144.861-1.737,1.1-2.126,2.447-4.372,3.863-6.617,2.864-4.5,6.085-9.027,9.426-13.5s6.839-8.92,10.407-13.315q2.676-3.3,5.41-6.554l2.741-3.242,1.377-1.6,1.35-1.552.1-.115a11.916,11.916,0,0,0-18-15.625l-1.5,1.728-1.453,1.7-2.87,3.393q-2.856,3.4-5.656,6.851c-3.734,4.6-7.4,9.27-11,14.071s-7.1,9.726-10.457,15c-1.677,2.657-3.317,5.383-4.889,8.4-.783,1.513-1.552,3.095-2.284,4.852a36.474,36.474,0,0,0-2,6.213,11.6,11.6,0,0,0,1.2,8.2l.048.085c.094.159.13.208.19.3l.156.233.294.435.569.818c.378.533.753,1.05,1.131,1.56.749,1.023,1.506,2.014,2.269,2.989,1.526,1.954,3.078,3.85,4.659,5.71q4.742,5.568,9.806,10.72t10.414,9.954q5.342,4.783,10.94,9.2Z" transform="translate(-67.767 18.72)" fill="#c9614d"/>
                <path id="Trazado_156672" data-name="Trazado 156672" d="M97.355,111.486a13.757,13.757,0,0,1,8.54,3.742c.422.4,1.059-.238.636-.637a14.756,14.756,0,0,0-9.176-4.005c-.579-.04-.576.86,0,.9" transform="translate(-81.358 33.506)" fill="#722324"/>
                <path id="Trazado_156673" data-name="Trazado 156673" d="M98.561,108.984l3.22,4.788c.321.478,1.1.027.777-.455l-3.22-4.789c-.321-.478-1.1-.027-.777.455" transform="translate(-79.358 32.822)" fill="#722324"/>
                <path id="Trazado_156674" data-name="Trazado 156674" d="M21.925,203.274s13,.665,32.729-4.919q.408-.113.818-.235a160.88,160.88,0,0,0,22.249-8.286c.25-.116.5-.232.754-.348a177.2,177.2,0,0,0,18.656-10.066,59.3,59.3,0,0,1-3.364-7.861q-.154-.43-.3-.878A62.047,62.047,0,0,1,90.321,156c-.022-.268-.04-.538-.057-.808a44.685,44.685,0,0,1,.073-6.954,33.079,33.079,0,0,1,.7-4.23c.06-.263.121-.529.189-.8.169-.706.364-1.424.576-2.159A119.86,119.86,0,0,1,98.787,123.6c.121-.25.242-.5.364-.757,2.344-4.856,4.921-9.748,7.424-14.333.136-.242.267-.485.4-.724,1.911-3.478,3.77-6.768,5.444-9.719l.525-.917,1.122-1.979q.575-1.01,1.118-1.939c.142-.245.285-.487.422-.721,1.917-3.267,3.406-5.689,3.621-7.032.176-1.109.331-2.257.4-3.422.02-.283.033-.568.04-.851a17.483,17.483,0,0,0-.068-2.1c-.031-.356-.077-.708-.139-1.063a12.2,12.2,0,0,0-.552-2.124,9.38,9.38,0,0,0-.438-1.061,14.881,14.881,0,0,0-6.206-6.376q-.348-.209-.722-.414c-.328-.184-.672-.364-1.028-.541s-.753-.366-1.152-.547c-.907-.407-1.888-.8-2.951-1.177A52.517,52.517,0,0,1,97.174,61.6c-.323-.185-.627-.374-.92-.563a27.167,27.167,0,0,1-2.863-2.061c-.218-.179-.422-.356-.616-.528a10.406,10.406,0,0,1-2.821-3.459l-15.64,1.822-1.018.119L64.4,57.97a42.77,42.77,0,0,1-7.66,3.661q-.633.217-1.276.4c-.536.152-1.071.291-1.6.4-.318.066-.633.124-.946.167-.362.056-.723.1-1.079.119-3.727.236-6.906.255-9.083,2.145a6.358,6.358,0,0,0-.775.808,9.268,9.268,0,0,0-1.651,3.53c-.086.326-.156.652-.215.982-.02.1-.035.194-.051.291-.03.169-.055.343-.078.512-.025.185-.047.371-.065.556a51.11,51.11,0,0,0,.232,8.274,22.055,22.055,0,0,1,.005,3.422c-.027.278-.063.546-.111.808a5.379,5.379,0,0,1-.942,2.326c-1.386,1.839-3.929,4.081-5.966,7.1-.083.125-.167.249-.248.378-.137.212-.268.427-.4.649-.053.086-.1.172-.158.263a16.45,16.45,0,0,0-2.108,6.065c-.02.138-.035.275-.048.414-.022.192-.038.383-.052.58-.005.077-.01.155-.01.236a14.35,14.35,0,0,0-.008,1.608,23.048,23.048,0,0,0,.869,5.144c.086.337.189.668.288,1.007.328,1.061.706,2.116,1.11,3.171.152.4.309.805.468,1.207.482,1.2.985,2.4,1.478,3.591.108.258.214.517.318.775.126.3.25.608.371.912v0q.26.637.5,1.276v0c.5,1.323.955,2.639,1.316,3.952.094.339.177.679.258,1.02a21.038,21.038,0,0,1,.429,2.386,42.453,42.453,0,0,1-.523,10.467c-.033.212-.065.425-.1.638-.009.056-.02.112-.027.169-.3,1.876-.659,3.833-1.074,5.815-.093.447-.189.891-.285,1.341v0c-.633,2.884-1.358,5.793-2.113,8.571-.086.31-.171.615-.253.919-.693,2.5-1.409,4.871-2.1,7q-.682,2.121-1.3,4.133v.01c-.3.969-.581,1.906-.856,2.835-.022.069-.04.139-.059.207v.013c-.065.207-.126.407-.184.611-6.26,21.413-6.72,32.422-6.72,32.422" transform="translate(3.358 16.662)" fill="#fff"/>
                <path id="Trazado_156675" data-name="Trazado 156675" d="M25.05,77.56q2.314-.137,4.628-.22c.018,0,.038,0,.056,0,.27-.008.536-.018.805-.023q7.277-.238,14.56.035l.856.033h0q7.724.319,15.41,1.2c.281.03.568.063.852.1h0q9.159,1.083,18.2,2.959c.4.083.808.169,1.212.255.279.06.556.119.834.181q8.961,1.951,17.723,4.674c.142-.245.285-.487.422-.722q-8.742-2.723-17.7-4.679c-.28-.065-.558-.124-.837-.182Q72.418,79.084,62.6,77.913h0c-.285-.038-.568-.07-.853-.1q-4.912-.569-9.845-.909-2.811-.193-5.625-.31c-.288-.016-.573-.026-.859-.035q-7.292-.281-14.591-.053c-.27.008-.538.016-.81.027q-2.427.08-4.848.223c-.027.278-.063.547-.111.808" transform="translate(18.349 23.148)" fill="#e2cec3"/>
                <path id="Trazado_156676" data-name="Trazado 156676" d="M31.674,91.861Q36.314,91,41,90.442c.04-.005.083-.01.124-.013.262-.033.525-.063.787-.091q7.091-.788,14.233-.873c.28-.005.563-.008.843-.01,4.851-.03,9.706.177,14.537.627.275.025.55.052.825.078A147.158,147.158,0,0,1,90.262,93.05l.8.181a145.678,145.678,0,0,1,17.081,5.076c.136-.241.267-.483.4-.723q-2.291-.848-4.609-1.608-6.178-2.035-12.517-3.505c-.266-.063-.53-.121-.8-.18a147.084,147.084,0,0,0-17.971-2.916q-.412-.041-.823-.078-7.269-.682-14.582-.641c-.283,0-.563,0-.844.008-4.76.055-9.52.337-14.253.856-.261.027-.522.057-.783.09q-4.833.553-9.621,1.435c-.022.192-.038.382-.052.579-.005.078-.01.156-.01.237" transform="translate(1.793 26.862)" fill="#e2cec3"/>
                <path id="Trazado_156677" data-name="Trazado 156677" d="M37.677,103.4c.108.258.212.517.318.775.194-.022.384-.04.579-.059.258-.027.517-.052.775-.073q6.886-.643,13.805-.757h.02c.275-.005.551-.008.826-.01q6.9-.08,13.792.369c.272.016.546.035.818.053q8.51.594,16.934,1.979c.272.046.545.089.816.137q7.965,1.345,15.79,3.4c.122-.25.242-.5.364-.757-.026-.008-.056-.013-.083-.021q-7.83-2.052-15.818-3.4-.408-.072-.817-.137-8.436-1.39-16.977-1.982L68,102.859q-6.9-.45-13.816-.378c-.275,0-.552.007-.827.012h0q-6.925.1-13.83.73-.387.035-.775.074c-.357.033-.713.068-1.071.106" transform="translate(-0.005 31.048)" fill="#e2cec3"/>
                <path id="Trazado_156678" data-name="Trazado 156678" d="M43.786,120c-.008.056-.018.113-.027.169.694-.086,1.393-.164,2.09-.237q3.416-.354,6.849-.536l.821-.04a133.878,133.878,0,0,1,13.393.057c.272.016.542.029.813.048a133.642,133.642,0,0,1,16.463,2.018c.267.047.53.1.795.149a133.245,133.245,0,0,1,12.952,3.164c.059-.265.121-.53.188-.8a133.028,133.028,0,0,0-13.008-3.169c-.264-.051-.53-.1-.795-.147a134.137,134.137,0,0,0-16.457-2.007q-.408-.027-.81-.048-6.7-.367-13.405-.061l-.821.04q-4.482.229-8.944.761c-.031.214-.064.426-.1.638" transform="translate(-3.54 35.881)" fill="#e2cec3"/>
                <path id="Trazado_156679" data-name="Trazado 156679" d="M44.706,132.347c-.086.31-.169.614-.253.919q5.17-.76,10.414-1.3.407-.045.816-.083,6.7-.663,13.466-.891l.816-.025a166.211,166.211,0,0,1,17.116.386c.265.021.528.04.792.064a135.924,135.924,0,0,1,13.765,1.815c-.021-.27-.04-.538-.056-.808-3.4-.611-6.822-1.078-10.26-1.422q-1.7-.17-3.4-.3c-.263-.021-.528-.039-.791-.061Q78.627,130,70.058,130.2c-.272,0-.543.009-.816.017q-6.731.17-13.453.805c-.274.023-.546.051-.818.077q-5.148.5-10.265,1.247" transform="translate(-7.959 39.436)" fill="#e2cec3"/>
                <path id="Trazado_156680" data-name="Trazado 156680" d="M41.808,144.545l.164-.016.81-.076c4.093-.371,8.187-.717,12.287-1.007l.813-.056c4.528-.313,9.06-.552,13.593-.676.272-.01.541-.016.813-.021,4.682-.116,9.363-.108,14.048.074q2.177.086,4.351.224c.267.016.53.033.8.051a144.626,144.626,0,0,1,17.446,2.21c-.1-.285-.2-.579-.3-.877a146.341,146.341,0,0,0-17.166-2.138c-.266-.018-.533-.038-.8-.053-6.09-.382-12.2-.444-18.31-.3-.27.005-.542.013-.81.021q-4.935.139-9.857.437-1.865.109-3.725.24c-.272.016-.541.035-.813.053-4.119.288-8.23.633-12.341,1-.254.023-.5.046-.757.07a.339.339,0,0,0-.053.005c0,.066-.005.134-.005.2v.013c-.065.207-.128.407-.184.611" transform="translate(-9.805 42.969)" fill="#e2cec3"/>
                <path id="Trazado_156681" data-name="Trazado 156681" d="M21.93,67.576q2.312-.178,4.63-.293,2.508-.125,5.017-.189l.855-.016q7.65-.154,15.3.318c.294.016.588.035.882.056q8.217.537,16.363,1.788c.292.043.585.089.877.134a190.191,190.191,0,0,1,20.31,4.353c.28.076.559.151.839.229h0Q94.382,76,101.579,78.643c.018-.283.031-.568.04-.851q-4.806-1.765-9.706-3.26-2.185-.666-4.383-1.276h0c-.284-.083-.564-.159-.842-.237a190.639,190.639,0,0,0-20.385-4.4c-.293-.046-.586-.091-.878-.134q-8.174-1.265-16.433-1.815c-.3-.022-.589-.04-.885-.057q-7.664-.475-15.353-.339c-.284.005-.569.01-.857.02q-4.923.107-9.835.476c-.018.1-.035.194-.051.292-.03.169-.053.341-.079.511" transform="translate(21.406 20.073)" fill="#e2cec3"/>
                <path id="Trazado_156682" data-name="Trazado 156682" d="M27.682,165.451c.005.27.016.538.023.808A146.1,146.1,0,0,0,29.9,186.8l.754-.348A145.37,145.37,0,0,1,28.5,166.31c-.008-.27-.018-.536-.023-.805q-.192-5.981.115-11.964c.04-.8.09-1.594.143-2.39q.023-.36.051-.719.461-6.344,1.478-12.621c.043-.27.087-.537.133-.805a144.66,144.66,0,0,1,4.781-19.842c.081-.261.164-.522.25-.783a142.5,142.5,0,0,1,6.247-15.989c.116-.253.235-.506.353-.76Q43.1,97.347,44.252,95.1q2.512-4.894,5.388-9.582c.147-.242.3-.485.45-.726q3.338-5.389,7.139-10.463h0c.172-.233.351-.468.528-.7h0q3.186-4.216,6.684-8.189c-.231-.139-.473-.278-.721-.414q-3.559,4.054-6.809,8.367c-.121.159-.238.318-.357.477-.057.078-.116.154-.171.232q-3.8,5.1-7.136,10.507c-.151.242-.3.485-.447.73a145.262,145.262,0,0,0-7.573,14.115c-.119.253-.237.506-.353.76a144.1,144.1,0,0,0-6.265,16.032l-.25.783q-1.462,4.6-2.606,9.3-1.272,5.226-2.154,10.53c-.046.267-.089.536-.132.805Q28.454,143.983,28,150.369c-.02.237-.038.477-.052.717q-.485,7.171-.263,14.365" transform="translate(51.176 19.702)" fill="#e2cec3"/>
                <path id="Trazado_156683" data-name="Trazado 156683" d="M42.1,197.55c.272-.076.543-.154.818-.235.377-9.716.861-19.429,1.653-29.121.018-.27.04-.537.064-.805q.235-2.856.509-5.711.42-4.372.947-8.743c.03-.254.06-.509.094-.765Q47.06,145,48.27,137.877c.046-.263.089-.528.137-.791,1.161-6.661,2.566-13.272,4.283-19.8.068-.261.138-.522.208-.786,1.526-5.719,3.289-11.373,5.333-16.943q.145-.391.291-.783c.059-.159.119-.318.177-.476q2.666-7.093,5.955-13.938h0c.122-.255.244-.508.37-.762h0q2.9-5.944,6.31-11.614c.147-.25.3-.5.452-.752a135.626,135.626,0,0,1,9.043-13.053c-.218-.179-.422-.356-.616-.528a134.949,134.949,0,0,0-9.3,13.447q-.229.375-.452.752-.651,1.081-1.281,2.18-2.674,4.648-5.007,9.466c-.126.255-.251.511-.371.767q-3.389,7.069-6.1,14.432c-.1.262-.193.523-.291.784-2.035,5.566-3.8,11.234-5.328,16.964-.069.263-.139.524-.207.788q-1.865,7.091-3.26,14.285-.537,2.758-1.015,5.525c-.048.263-.094.528-.139.791q-1.22,7.155-2.09,14.358c-.031.258-.061.515-.094.773q-.864,7.208-1.452,14.451-.035.4-.066.805c-.792,9.762-1.28,19.554-1.659,29.334" transform="translate(15.916 17.467)" fill="#e2cec3"/>
                <path id="Trazado_156684" data-name="Trazado 156684" d="M56.943,57.463a.4.4,0,0,1,0-.808.4.4,0,0,1,0,.808" transform="translate(20.58 17.166)" fill="#e2cec3"/>
                <path id="Trazado_156685" data-name="Trazado 156685" d="M56.739,195.535c-.043.52.765.515.808,0,.7-8.757,1.419-17.519,2.28-26.263.025-.268.051-.536.078-.8q.379-3.833.8-7.656.362-3.291.764-6.58c.035-.285.07-.571.108-.859q.946-7.624,2.149-15.219.061-.4.129-.8c1.093-6.744,2.369-13.459,3.888-20.116.059-.267.12-.53.182-.8q1.749-7.564,3.944-15.022c.218-.732.437-1.462.662-2.192.081-.266.164-.53.248-.8q2.359-7.587,5.272-14.99h0c.1-.263.2-.528.313-.788q2.482-6.2,5.394-12.216c.126-.261.253-.519.383-.778q3.114-6.334,6.751-12.4c.1-.173.208-.348.315-.52.068-.116.141-.235.21-.351L90.4,56.51q-3.868,6.381-7.142,13.1-.193.387-.379.778-1.843,3.8-3.5,7.694-.964,2.261-1.871,4.542c-.107.263-.212.528-.311.791q-2.92,7.415-5.26,15.031c-.083.266-.165.533-.246.8q-2.6,8.518-4.589,17.214h0c-.06.267-.121.533-.181.8h0q-1.833,8.064-3.225,16.218-.34,1.962-.654,3.927c-.046.267-.086.53-.129.8Q61.7,145.8,60.761,153.451q-.057.432-.106.864-.868,7.095-1.564,14.207c-.027.27-.051.538-.078.808-.859,8.727-1.575,17.469-2.275,26.206" transform="translate(-13.749 17.086)" fill="#e2cec3"/>
                <path id="Trazado_156686" data-name="Trazado 156686" d="M72.438,117.745v0q.258.637.5,1.276.235-1.163.482-2.323c.057-.275.116-.549.175-.824q1.843-8.59,4.189-17.071.109-.408.227-.817,2.25-8.031,4.954-15.921.137-.4.28-.81,2.183-6.307,4.667-12.5c.106-.267.212-.533.323-.8q1.474-3.649,3.056-7.255-.475.1-.945.167-1.538,3.53-2.97,7.108c-.108.266-.212.533-.318.8q-2.265,5.7-4.275,11.5c-.116.336-.235.676-.349,1.012q-.139.4-.275.808-2.689,7.923-4.932,15.986c-.078.271-.154.546-.229.818q-2.334,8.463-4.179,17.055c-.059.275-.119.546-.175.821-.07.323-.139.649-.207.972" transform="translate(-34.077 18.393)" fill="#e2cec3"/>
                <path id="Trazado_156687" data-name="Trazado 156687" d="M90.944,148.467a.4.4,0,0,0,.808,0q.023-1.9.078-3.8c.005-.27.013-.542.023-.81.027-.921.06-1.845.1-2.765-.3.969-.582,1.906-.856,2.834a.351.351,0,0,0-.055.007c0,.066-.005.134-.005.2v.013c-.008.2-.013.4-.018.6q-.053,1.857-.076,3.72" transform="translate(-58.853 42.751)" fill="#e2cec3"/>
                <path id="Trazado_156688" data-name="Trazado 156688" d="M55.75,84.233C40.934,103.4,29.179,126.45,30.765,151.324a62.318,62.318,0,0,0,4.678,20.2c.242.573-.7.825-.934.257C24.633,148.293,31,121.9,43.378,100.691A160.2,160.2,0,0,1,55.065,83.547c.38-.493,1.062.2.685.685" transform="translate(57.087 25.263)" fill="#110e0a"/>
                <path id="Trazado_156689" data-name="Trazado 156689" d="M58.544,374.451s5.628,2.293,5.836,10.213,0,28.347,0,28.347H61.508l-1.557-7.2s-.99,7.828-4.95,12.831-12.506,5.211-18.134,4.377-1.459-11.255.834-17.091,7.088-19.8,7.088-19.8Z" transform="translate(42.757 113.456)" fill="#fca133"/>
                <path id="Trazado_156690" data-name="Trazado 156690" d="M54.236,365.759s-.179,9.659,1.488,11.326,3.961,7.087,2.293,13.757-2.779,16.4-6.67,20.565-14.035,4.308-14.868.973,5.142-15.7,5.419-22.095,1.39-23.622,1.39-23.622Z" transform="translate(45.576 110.822)" fill="#c9614d"/>
                <path id="Trazado_156691" data-name="Trazado 156691" d="M25.582,198.489c.01.391.018.783.03,1.179.013.45.023.9.038,1.359.01.351.018.7.029,1.055s.022.741.033,1.115c.21,7.166.49,14.939.79,22.393.016.4.029.8.046,1.192l.023.59c.017.369.033.737.046,1.1.383,9.307.787,17.908,1.1,23.928.031.644.066,1.255.1,1.836.013.291.03.576.046.851.356,6.325.889,13.62,1.611,21.743.033.349.064.7.1,1.052q.154,1.7.318,3.457c.04.423.081.846.121,1.272v.01q.776,8.053,1.785,17.017s-.06.407-.143,1.195c-.035.35-.078.777-.121,1.274-.134,1.543-.291,3.79-.382,6.677-.01.364-.022.738-.03,1.119-.107,4.451-.051,10.252.437,17.211q.031.454.068.919c0,.051.008.1.01.154q.285,3.792.751,8.015c.048.43.1.864.151,1.3l0,0q.371,3.186.872,6.6c.27,1.826.58,3.985.926,6.413.046.331.1.667.141,1.009.616,4.348,1.329,9.479,2.1,15.047.06.442.121.883.181,1.33q.379,2.746.77,5.611c.043.334.089.672.137,1.01.972,7.144,1.992,14.7,2.977,22.057.073.536.146,1.071.215,1.607,1.029,7.673,2.009,15.074,2.855,21.506.046.341.089.682.134,1.018.293,2.245.571,4.361.823,6.321.06.45.116.891.172,1.325.474,3.669.863,6.712,1.131,8.892,1.025.509,3.573.671,6.27.1.192-.039.383-.085.576-.132.073-.018.149-.04.224-.059.266-.07.533-.149.8-.235.09-.03.179-.059.267-.091s.175-.063.265-.094a11.334,11.334,0,0,0,3.717-2.176c.073-.679.156-1.4.25-2.159.01-.081.02-.159.03-.24.043-.339.089-.687.134-1.042l.005-.036c.485-3.7,1.177-8.211,1.969-13.276.051-.328.1-.659.155-.993.739-4.712,1.557-9.87,2.375-15.265.069-.45.137-.9.2-1.355q.379-2.511.753-5.083c.05-.334.1-.667.146-1,.3-2.081.594-4.186.881-6.3.616-4.553,1.289-9.972,1.911-15.946.059-.568.117-1.139.175-1.717.7-6.984,1.329-14.664,1.712-22.577.016-.366.035-.732.051-1.1q.072-1.624.132-3.255c.017-.4.03-.791.04-1.19.224-6.828.245-13.744-.04-20.458-.016-.4-.031-.8-.053-1.2-.048-1.042-.106-2.076-.172-3.108q-.033-.541-.07-1.079c-.306-4.424-.762-8.724-1.4-12.807-.224-4.364-.293-7.457-.237-9.918l.008-.258c0-.141.008-.28.013-.414.007-.168.012-.33.02-.49s.01-.292.018-.434c.007-.1.012-.2.017-.3a64.9,64.9,0,0,1,1.359-9.176q1.147-6.069,2.083-11.59c.055-.331.111-.659.164-.985q.7-4.228,1.234-8.123l0,0c.059-.447.119-.889.177-1.326q.4-3.082.687-5.951c.172-1.755.53-3.947.956-6.576,0-.022.008-.04.01-.063.04-.242.078-.49.119-.743.01-.063.018-.124.029-.186.661-4.091,1.433-9.167,1.921-15.237.01-.116.018-.232.029-.348.017-.2.033-.412.046-.619.009-.091.017-.185.022-.28q.215-2.955.321-6.21c.013-.371.021-.744.03-1.121a154.5,154.5,0,0,0-.588-17.467c-.03-.348-.061-.7-.094-1.053q-.379-3.946-.99-8.184c-.065-.45-.133-.9-.2-1.354l0,0c-.588-3.836-1.333-7.848-2.265-12.033q-.1-.469-.21-.939c-1.075-4.719-2.383-9.66-3.966-14.824l-7.632,1.386-1.4.257-9.04,1.642-.972.177-20.582,3.74-1.574.285-.741.136c-.236-.5-.407-.009-.519,1.265-.033.349-.06.761-.081,1.23-.043.843-.07,1.866-.087,3.048-.061,4.326.035,10.765.227,18.156" transform="translate(42.241 50.651)" fill="#009580"/>
                <path id="Trazado_156692" data-name="Trazado 156692" d="M61.953,270.826a22.494,22.494,0,0,1-13.449.666.4.4,0,0,1,.215-.779,21.723,21.723,0,0,0,13.019-.666c.489-.18.7.6.215.779" transform="translate(26.548 81.814)" fill="#110e0a"/>
                <path id="Trazado_156693" data-name="Trazado 156693" d="M120.462,192.888s-3.934-30.279-18.086-50.1c0,0-36.63,16.032-65.719,7.329,0,0-10.076,31.908-7.5,78.749,0,0,80.315,16,91.308-35.976" transform="translate(-6.3 43.263)" fill="#009580"/>
                <path id="Trazado_156694" data-name="Trazado 156694" d="M92.473,404.471c2.764-4.457,27.535-28.216,27.535-28.216s5.063,3.969,4.818,8.34c-.233,4.162-.059,26.068-.12,28.375h-3l-1.694-9.994s-6.849,10.957-11.99,14.708-22.516,3.078-26.684,2.521,8.376-11.277,11.139-15.735" transform="translate(-78.117 114.003)" fill="#fca133"/>
                <path id="Trazado_156695" data-name="Trazado 156695" d="M113.013,367.473l-.4,10.722a12.431,12.431,0,0,1,0,7.921c-1.39,4.723-6.65,12.222-11.672,17.786-4.332,4.8-13.618,9.587-16.4,8.337s5.28-10.838,7.642-15.84a85.839,85.839,0,0,0,5.118-14.081c1.3-4.773,1.475-16,1.475-16Z" transform="translate(-71.047 110.992)" fill="#c9614d"/>
                <path id="Trazado_156696" data-name="Trazado 156696" d="M65.081,302.994c.01.113.025.229.035.341.021.179.04.356.061.533.007.055.014.106.02.159.059.545.124,1.08.194,1.613q.137,1.057.271,2.218c.05.423.1.857.149,1.3.543,4.908,1.063,10.963,1.556,17.736.025.356.051.714.076,1.072.194,2.708.382,5.523.565,8.424q.041.61.078,1.227c.283,4.488.551,9.161.81,13.926.018.364.04.727.059,1.093.2,3.785.4,7.624.588,11.469.021.4.04.808.061,1.212.181,3.738.356,7.48.522,11.18.016.369.033.735.051,1.1.21,4.752.412,9.423.6,13.925.016.4.035.8.048,1.2.129,3.063.248,6.042.361,8.9.005.1.008.21.013.313.009.212.017.425.025.635l.008.156c.235,5.966.442,11.409.616,16.048.009.2.017.4.022.6s.016.4.021.593c.1,2.581.186,4.889.262,6.871.008.188.013.377.021.559.005.128.012.254.017.378,0,.056,0,.109.005.167.081,2.086.145,3.75.2,4.91,3.33,2.575,9.061,3.191,13.507,1.126l.005,0c.1-.043.194-.089.288-.139.059-.027.119-.057.177-.09.1-.051.194-.1.291-.158a10.309,10.309,0,0,0,1.161-.736c.517-2.134,2.068-10,3.74-19.4q.088-.485.172-.977c.285-1.611.573-3.263.859-4.936q.117-.686.235-1.38c.869-5.145,1.712-10.42,2.394-15.233.048-.339.094-.675.139-1.01.073-.521.146-1.039.212-1.548.472-3.505.937-7.318,1.373-11.363l0-.018c.04-.391.083-.787.124-1.183.005-.029.008-.056.012-.086.279-2.682.549-5.46.8-8.316.03-.35.06-.7.089-1.061.474-5.648.868-11.588,1.121-17.661.016-.4.033-.8.048-1.2q.094-2.41.156-4.846c.01-.374.018-.748.027-1.122.142-6.348.121-12.777-.13-19.118,0-.03,0-.06,0-.089-.013-.34-.026-.676-.043-1.015-.023-.56-.051-1.121-.078-1.681q.283-1.456.56-2.824.023-.129.051-.258c.046-.237.1-.472.141-.7,1.715-8.424,3.228-14.492,4.609-20.423.073-.309.146-.621.218-.93.366-1.583.722-3.164,1.07-4.785q.156-.723.309-1.457c.407-1.952.805-3.979,1.194-6.151.457-2.56,1.036-5.409,1.637-8.434.064-.318.126-.638.188-.959.937-4.747,1.9-9.894,2.523-15.033.055-.434.1-.868.151-1.3q.207-1.915.343-3.81c.038-.554.074-1.144.112-1.766.022-.35.043-.711.068-1.083.288-5.083.56-12.042.783-19.683q.018-.588.033-1.182c.03-1.076.06-2.167.089-3.265.008-.371.017-.745.027-1.119.172-7,.3-14.315.344-21.11,0-.386.007-.773.009-1.156,0-.366.005-.73.005-1.089,0-.442.005-.881.005-1.317,0-.384,0-.767,0-1.147.016-7.428-.073-13.919-.3-18.231-.059-1.058-.124-1.984-.2-2.762-.03-.315-.063-.6-.1-.866l-.152-.035L92.5,171.991l-.932-.218-6.389-1.495,0,0-1.5-.349-12.4-2.9-.36-.086h0s0,.022-.009.065c0,.018-.005.046-.01.076-.01.089-.027.212-.046.374-.21,1.642-.878,7.015-1.5,13.173-.038.344-.073.692-.108,1.041-.455,4.55-.872,9.428-1.063,13.494a.143.143,0,0,1,0,.033c-.008.193-.016.384-.025.576s-.018.4-.023.594c-.038,1.01-.057,1.954-.057,2.82,0,.8-.081,2.985-.215,6.132-.016.356-.033.719-.048,1.1-.189,4.211-.457,9.851-.765,16.067-.018.4-.04.805-.059,1.209-.108,2.154-.219,4.366-.328,6.606-.02.364-.038.73-.055,1.1-.317,6.308-.649,12.782-.95,18.663-.022.407-.04.813-.063,1.214q-.1,2.031-.2,3.944c-.02.369-.038.73-.057,1.089v0c-.409,7.965-.719,13.988-.786,15.536-.083,1.9-.154,3.8-.2,5.708,0,.04,0,.078,0,.119-.012.352-.02.708-.027,1.061-.013.519-.025,1.036-.033,1.556-.005.379-.013.756-.016,1.136a186.058,186.058,0,0,0,.821,21.57" transform="translate(-45.636 50.582)" fill="#009580"/>
                <g id="Grupo_167824" data-name="Grupo 167824" transform="translate(18.624 189.489)" opacity="0.5">
                  <g id="Grupo_167823" data-name="Grupo 167823">
                    <g id="Grupo_167822-2" data-name="Grupo 167822" clip-path="url(#clip-path-3)">
                      <path id="Trazado_156697" data-name="Trazado 156697" d="M72.686,229.375l1.594,1.6c-.01.374-.018.749-.027,1.121l-2.589-2.59c.339-.038.681-.081,1.023-.126M93.655,433.626l8.944,8.944,4.894-4.894-.005.036c-.046.356-.091.7-.134,1.044-.01.079-.018.158-.03.24l-4.151,4.15.184.182c-.089.034-.176.065-.265.1l-.266.093q-.4.127-.8.233c-.076.02-.151.042-.223.06-.194.044-.386.09-.576.132l.794-.795-8.195-8.195c-.057-.433-.113-.876-.173-1.325M72.686,229.375l1.594,1.6c-.01.374-.018.749-.027,1.121l-2.589-2.59c.339-.038.681-.081,1.023-.126M25.37,287.943c0-.379.01-.756.017-1.136L37.14,298.564l12.517-12.518L37.14,273.529,25.418,285.251c.008-.352.017-.708.027-1.061,0-.04,0-.078,0-.119l11.118-11.118L26.438,262.828v0c.02-.361.038-.722.057-1.091L37.14,272.38l12.517-12.517L37.14,247.346,26.7,257.791c.021-.4.04-.808.061-1.214l9.808-9.8-8.856-8.858c.016-.366.035-.732.053-1.1L37.14,246.2,49.656,233.68,37.14,221.163l-9.048,9.049c.018-.4.04-.808.059-1.209l8.416-8.416L29.18,213.2l-.265-.267c.017-.379.033-.743.048-1.1l8.176,8.176L49.656,207.5,37.14,194.98l-7.78,7.783-.124.124c.005-.2.017-.4.025-.6s.016-.382.023-.576a.132.132,0,0,0,0-.033l.119-.119,7.161-7.159-6.215-6.215-.07-.068c.035-.353.068-.7.1-1.053l6.76,6.76,12.517-12.515L37.14,168.8l-5.187,5.189c.018-.13.038-.259.056-.386.005-.029.008-.056.012-.076l.008-.064h0q.061-.416.121-.825l4.415-4.415-3.136-3.136c.06-.328.121-.649.181-.968l3.529,3.53,12.517-12.518-3.949-3.949c.442.065.883.124,1.328.177l3.2,3.2,2.722-2.722c.369.017.74.03,1.109.04l-3.257,3.255,12.519,12.518,12.517-12.518-4.418-4.417.993-.154,4,4,6.005-6.007c.515-.124,1.023-.246,1.525-.374l-6.954,6.954,12.515,12.518,12.517-12.518L92.6,145.707l.87-.28,9.129,9.129,4.946-4.945c.137.248.268.5.4.745l-4.774,4.773,11.679,11.679c.24.719.472,1.429.692,2.136l-6.2,6.2-6.171,6.171,12.519,12.515,5.25-5.25q.109.473.21.939l-.546.55-4.34,4.336,3.153,3.153,4,3.995,0,0c.07.455.137.9.2,1.355l-4.5-4.5-3.429-3.429L103.172,207.5l6.239,6.239,6.28,6.278,8.919-8.919c.033.352.065.7.1,1.053l-8.441,8.439,9.027,9.027c-.008.377-.016.748-.03,1.119l-9.57-9.57L103.172,233.68,115.691,246.2l9.25-9.25c-.005.094-.013.189-.021.28-.014.207-.03.414-.046.619-.012.116-.02.232-.03.348l-8.58,8.58,6.661,6.657c-.012.063-.02.124-.03.186-.04.253-.078.5-.119.743,0,.021-.008.04-.01.061l-7.075-7.074-12.519,12.518,12.519,12.517,5.432-5.434c-.059.439-.119.881-.177,1.328l0,0-4.679,4.676,3.446,3.446c-.055.326-.111.654-.164.985l-3.856-3.856-12.519,12.517,12.519,12.518.412-.414-.016.3c-.008.142-.014.285-.02.433s-.013.323-.018.489c-.005.139-.012.276-.014.416l-.008.259-.336-.336L103.172,312.23l12.519,12.517,1.97-1.97c.025.357.05.718.07,1.079l-1.467,1.467,1.639,1.638c.022.4.038.8.055,1.2l-2.267-2.267-12.519,12.515,12.519,12.519L118,348.62c-.012.4-.025.794-.04,1.191l-1.694,1.691,1.561,1.564c-.016.366-.034.731-.051,1.1l-2.083-2.085L103.172,364.6l12.519,12.517.371-.373c-.056.58-.116,1.151-.175,1.719l-.2-.2-12.519,12.518L113.1,400.7q-.072.5-.145,1L102.6,391.354,90.083,403.868l12.515,12.52,9.6-9.6c-.068.455-.134.9-.2,1.354l-8.82,8.82,6.446,6.445c-.055.335-.106.666-.156.994l-6.863-6.863L92.831,427.3c-.046-.337-.089-.675-.134-1.018l9.326-9.325L89.843,404.783q-.106-.805-.216-1.609l12.4-12.4L89.506,378.26l-2.856,2.857c-.048-.337-.094-.675-.137-1.01l2.42-2.421-3.19-3.19c-.06-.447-.121-.887-.181-1.329l3.944,3.944L102.022,364.6,89.506,352.079l-6.041,6.041c-.046-.341-.094-.678-.141-1.01l5.608-5.608-7.406-7.4,0,0c-.051-.437-.1-.872-.151-1.3l8.133,8.137,12.517-12.519L89.506,325.9l-8.884,8.883c0-.05-.008-.1-.01-.151-.025-.31-.046-.616-.068-.92l8.389-8.385L80.107,316.5q.014-.573.03-1.121l9.368,9.37,12.517-12.517L89.506,299.714,80.519,308.7c.044-.5.087-.924.121-1.274l8.292-8.29L79,289.2c-.04-.425-.081-.847-.121-1.27l10.629,10.631,12.517-12.518L89.506,273.529,78.559,284.476q-.047-.528-.1-1.053l10.47-10.467L76.807,260.83c-.031-.581-.066-1.192-.1-1.836l12.225-12.222L76.415,234.256l-.81.81c-.014-.366-.03-.735-.046-1.1l.283-.283-.308-.307c-.016-.4-.03-.794-.046-1.192l.926.926,12.518-12.519L76.415,208.071,63.9,220.588l8.787,8.787,1.594,1.6c-.01.374-.018.749-.027,1.121L63.325,221.163l-9.207,9.2-3.312,3.312L63.325,246.2l10.838-10.838c-.01.4-.021.788-.033,1.182L63.9,246.772l9.449,9.449q-.035.557-.066,1.081l-9.956-9.957L50.806,259.864,63.325,272.38l9.5-9.5c-.048.431-.1.865-.15,1.3l-8.777,8.78,6.254,6.254c-.063.321-.124.64-.189.958l-6.639-6.639L50.806,286.046l12.519,12.518,3.81-3.809c-.1.49-.2.975-.31,1.455L63.9,299.137,65.756,301l-.219.932-2.212-2.212L50.806,312.23l10.123,10.12c-.046.232-.094.465-.139.7-.02.087-.035.173-.052.261L50.232,312.8,37.717,325.322l12.515,12.515,10.023-10.023c.017.339.03.676.044,1.015,0,.029,0,.06,0,.089l-9.5,9.492,9.625,9.625q-.012.561-.027,1.123L50.232,338.988,37.717,351.5l12.515,12.517L60.247,354c-.016.4-.031.8-.048,1.2L50.806,364.6l8.274,8.271c-.03.354-.06.709-.09,1.061l-8.757-8.759L37.717,377.687,50.232,390.2l7.961-7.963c0,.031-.005.056-.01.087-.04.4-.085.792-.124,1.181l0,.02-7.25,7.249,5.664,5.664c-.046.332-.091.668-.139,1.009l-6.1-6.1L37.717,403.868l12.515,12.52,3.7-3.706q-.117.694-.233,1.381l-2.9,2.9L52.844,419c-.056.331-.112.657-.172.977l-2.439-2.438L37.717,430.054l10.055,10.055c-.1.053-.194.107-.292.158a1.731,1.731,0,0,1-.177.09c-.094.051-.19.1-.288.141l-.005,0-9.87-9.874L33.3,434.462c0-.056-.005-.109-.005-.166l-.016-.377c-.009-.182-.014-.373-.022-.562l3.306-3.3L33,426.489c-.007-.193-.014-.392-.022-.592s-.013-.4-.021-.6l4.183,4.185,12.517-12.516L37.14,404.445l-4.8,4.8-.008-.155c-.008-.21-.016-.423-.023-.637-.005-.1-.009-.206-.014-.311l4.273-4.274-4.633-4.628c-.013-.4-.031-.8-.048-1.2l5.255,5.254,12.517-12.517L37.14,378.26l-5.852,5.857c-.02-.367-.035-.734-.052-1.1l5.331-5.329-5.853-5.852c-.021-.4-.039-.809-.061-1.212l6.488,6.489L49.656,364.6,37.14,352.079l-7.075,7.075c-.018-.366-.039-.728-.059-1.092l6.561-6.561L29.2,344.133c-.023-.41-.051-.82-.078-1.226l8.023,8.023,12.517-12.519L37.14,325.9l-8.588,8.588c-.023-.36-.051-.717-.074-1.071l8.089-8.09-9.646-9.646c-.048-.443-.1-.876-.147-1.3L37.14,324.746,49.656,312.23,37.14,299.714,26.307,310.547c-.005-.053-.013-.106-.018-.159-.022-.177-.04-.356-.063-.533-.01-.113-.023-.229-.035-.341l10.376-10.377Zm12.347-93.538,12.515,12.517,12.517-12.517L50.232,181.89Zm12.515-38.7L37.717,168.222l8.571,8.575,0,0,3.942,3.942,2.447-2.448,10.07-10.071Zm3.379,22.806-2.805,2.8,12.519,12.515,12.517-12.515L63.325,168.8Zm22.8-22.806L63.9,168.222l12.517,12.519,12.518-12.519Zm.932,25.253-.356.356,12.515,12.515,12.517-12.515-4.1-4.1L89.506,168.8Zm30.593-5.56,7.176-7.177L102.6,155.705,90.083,168.222,98.9,177.04l3.7,3.7Zm7.176,19.007L102.6,181.89,90.083,194.405,102.6,206.922Zm0,26.182-6.287-6.286-6.23-6.231L90.083,220.588l3.448,3.449,9.068,9.07Zm0,26.185L102.6,234.256,90.083,246.772,102.6,259.288ZM90.083,377.687,102.6,390.2l12.517-12.518L102.6,365.169Zm0-26.185L102.6,364.018,115.115,351.5,102.6,338.988Zm0-26.18L102.6,337.837l12.517-12.515L102.6,312.8Zm0-26.185L102.6,311.654l12.517-12.517L102.6,286.622ZM102.6,285.473l12.517-12.519L102.6,260.437,90.083,272.956ZM76.991,259.864,89.506,272.38l12.517-12.517L89.506,247.346ZM83.274,227.4l-6.283,6.284L89.506,246.2l12.517-12.515L89.506,221.163Zm6.232-7.381L102.022,207.5,89.506,194.98,76.991,207.5Zm-.573-25.609L76.415,181.89,63.9,194.405,74.57,205.078l.076.076,1.769,1.768ZM75.841,207.5l-1.242-1.24L63.325,194.98,50.806,207.5l12.519,12.517ZM52.99,230.35l9.759-9.762L50.232,208.071,37.717,220.588l9.527,9.527,2.988,2.992Zm9.759,16.423L50.232,234.256,37.717,246.772l12.515,12.515Zm0,26.184L50.232,260.437,37.717,272.954l12.515,12.519Zm-12.517,38.7,12.517-12.517L50.232,286.622,37.717,299.137Zm22.453-82.279,1.594,1.6c-.01.374-.018.749-.027,1.121l-2.589-2.59c.339-.038.681-.081,1.023-.126" transform="translate(-25.371 -145.426)" fill="#13ccae"/>
                    </g>
                  </g>
                </g>
                <path id="Trazado_156698" data-name="Trazado 156698" d="M99.694,168a63.642,63.642,0,0,1-7.852,9.836c-.437.448-1.122-.237-.685-.685a62.349,62.349,0,0,0,7.7-9.64c.337-.522,1.177-.036.837.489" transform="translate(-66.767 50.688)" fill="#110e0a"/>
                <path id="Trazado_156699" data-name="Trazado 156699" d="M74.273,198.873a14.465,14.465,0,0,1-5.5-3.816,24.386,24.386,0,0,1-5.393-7.774c-.24-.568.594-1.062.837-.489a23.618,23.618,0,0,0,4.971,7.3c1.475,1.5,3.274,3.208,5.34,3.84.594.181.34,1.118-.258.934" transform="translate(-5.803 56.52)" fill="#110e0a"/>
                <path id="Trazado_156700" data-name="Trazado 156700" d="M103.523,276.095a12.874,12.874,0,0,1-12.286-.73c-.44-.275-.035-.973.408-.7a12.037,12.037,0,0,0,11.47.73c.469-.218.88.478.408.7" transform="translate(-70.766 83.203)" fill="#110e0a"/>
                <path id="Trazado_156701" data-name="Trazado 156701" d="M32.067,151.834a172.009,172.009,0,0,1,13.741,53.935c1.29,15.857.147,31.741-1.909,47.481-.963,7.365-2.1,14.7-3.162,22.053-1.425,9.827-2.958,19.722-3.149,29.665-.206,10.661,1.54,21.239,2.353,31.844q1.177,15.345,1,30.752a405.015,405.015,0,0,1-5.559,59.508q-.641,3.956-1.333,7.905c-.107.614-1.041.354-.934-.257a433.576,433.576,0,0,0,6.7-60.386q.489-14.932-.34-29.87c-.58-10.511-2.077-20.938-2.688-31.441-.608-10.476.641-20.84,2.059-31.2C39.863,274.4,41.013,267,42.065,259.58c2.18-15.383,3.8-30.877,3.212-46.435A167.184,167.184,0,0,0,34.3,159.878q-1.452-3.809-3.067-7.553c-.244-.568.59-1.062.837-.49" transform="translate(64.611 45.928)" fill="#110e0a"/>
                <path id="Trazado_156702" data-name="Trazado 156702" d="M92.014,194.988c-1.035,28.641-4.357,57.253-11.111,85.134-1.921,7.929-4.529,15.7-6.27,23.666-1.81,8.283-1.342,16.657-.939,25.059a293.272,293.272,0,0,1-1.511,48.779c-.9,7.529-2.271,14.987-3.044,22.533-.645,6.28-1.334,12.532-2.323,18.771-.1.614-1.031.353-.934-.258.912-5.757,1.591-11.528,2.168-17.326.6-6.065,1.547-12.067,2.421-18.1a288.6,288.6,0,0,0,2.463-49.063c-.22-8.309-1.2-16.7-.206-24.99.926-7.729,3.577-15.145,5.552-22.642a377.915,377.915,0,0,0,9.087-46.605c1.977-14.913,3.136-29.926,3.678-44.958.022-.622.992-.624.969,0" transform="translate(-26.249 58.938)" fill="#110e0a"/>
                <path id="Trazado_156703" data-name="Trazado 156703" d="M107.394,140.907s5.358,4.13,4.822,12.48c.434.783-29.4,17.894-72.947,6.179,0,0-.968-6.773,4.106-14.13,0,0,38.36,9.875,64.019-4.529" transform="translate(-11.726 42.694)" fill="#005f53"/>
                <path id="Trazado_156704" data-name="Trazado 156704" d="M38.443,163.51a52.01,52.01,0,0,0,14.068,20.668c.466.417-.222,1.1-.685.685a53.033,53.033,0,0,1-14.317-21.1c-.218-.586.719-.839.934-.258" transform="translate(50.101 49.442)" fill="#110e0a"/>
                <path id="Trazado_156705" data-name="Trazado 156705" d="M74.838,35.459l3.085,16.889s-2.31,2.162-8.221.515l4.245-17.394Z" transform="translate(-17.146 10.744)" fill="#fff"/>
                <path id="Trazado_156706" data-name="Trazado 156706" d="M75.172,27.884s-2.771.254-3.29,3.794,1.286,9.438,4.864,8.7-1.574-12.493-1.574-12.493" transform="translate(-19.956 8.449)" fill="#722324"/>
                <line id="Línea_537" data-name="Línea 537" y2="0.003" transform="translate(65.129 63.767)" fill="#c9614d"/>
                <path id="Trazado_156707" data-name="Trazado 156707" d="M73.65,61.967A28.833,28.833,0,0,1,58.508,72.656c-12.992,3.73-14.682-3.694-14.682-3.694A24.941,24.941,0,0,0,44.844,63.5c.055-.719.086-1.458.091-2.222a60.332,60.332,0,0,0-.421-6.992c-.066-.616-.141-1.256-.223-1.915l-.008-.078c9.1-2.209,16.538-6.292,21.6-13.044l1.363-.823.919-.558.172.53-.165,1.7c-.8,7.968,1.033,14.554,5.474,21.871" transform="translate(20.845 11.475)" fill="#c9614d"/>
                <path id="Trazado_156708" data-name="Trazado 156708" d="M77.377,55.531c-3.8,8.617-7.923,17.871-16,23.335-3.453,2.336-8.213,4.36-12.39,2.915-3.5-1.21-5.628-4.725-6.385-8.187-1.171-5.363.835-10.755,2.713-15.7.219-.579,1.156-.327.934.257-1.6,4.21-3.3,8.645-2.99,13.231.24,3.6,1.983,7.663,5.435,9.246,4.116,1.888,9.133-.442,12.539-2.833a32.544,32.544,0,0,0,8.446-9.16A97.69,97.69,0,0,0,76.54,55.043c.251-.569,1.087-.077.837.489" transform="translate(19.12 16.601)" fill="#110e0a"/>
                <path id="Trazado_156709" data-name="Trazado 156709" d="M69.92,44.333c-1.9,4.362-6.326,12.08-14.677,14.991a60.387,60.387,0,0,0-.421-6.993c-.066-.614-.141-1.255-.223-1.913.18.02.365.034.549.043,4.967.3,10.348-2.287,14.772-6.128" transform="translate(10.539 13.433)" fill="#181709"/>
                <path id="Trazado_156710" data-name="Trazado 156710" d="M87.931,34.046c.339,4.938-3.426,11.271-9.871,11.892l-.034,0h0l-.137.016c-.085.291-.186.577-.293.87-.044.126-.093.255-.142.382a.139.139,0,0,1-.016.035c-3.446,8.665-15.06,14.42-21.512,15.039a14.822,14.822,0,0,1-4.4-.266C44.572,61,42.654,51.83,43.243,44.679a27.173,27.173,0,0,1,.409-2.953l.039-.19s-2.976-9.741-3.81-14.023c-1.613-8.3,2.6-17.133,20.845-20.066s23.424,8.158,25.128,14.114c.287.992.5,7.006-.442,8.042,1.8.767,2.4,2.783,2.517,4.442" transform="translate(12.095 2.11)" fill="#c9614d"/>
                <path id="Trazado_156711" data-name="Trazado 156711" d="M69.531,31.052c.185,1.208.843,2.111,1.471,2.014s.988-1.153.8-2.362-.843-2.111-1.471-2.014-.988,1.153-.8,2.362" transform="translate(-10.789 8.691)" fill="#181709"/>
                <path id="Trazado_156712" data-name="Trazado 156712" d="M74.307,29.783a.324.324,0,0,0,.035-.576c-.129-.076-3.183-1.835-5.63.165a.324.324,0,0,0,.41.5c2.1-1.719,4.864-.125,4.891-.109a.321.321,0,0,0,.293.018" transform="translate(-12.277 8.611)" fill="#181709"/>
                <path id="Trazado_156713" data-name="Trazado 156713" d="M61.426,29.954c.185,1.208.843,2.111,1.471,2.014s.988-1.153.8-2.362-.844-2.111-1.472-2.014-.986,1.153-.8,2.362" transform="translate(7.877 8.358)" fill="#181709"/>
                <path id="Trazado_156714" data-name="Trazado 156714" d="M65.688,29.061a.323.323,0,0,0,.107-.567c-.117-.091-2.924-2.223-5.6-.547a.323.323,0,1,0,.343.549c2.3-1.44,4.841.491,4.865.511a.328.328,0,0,0,.289.055" transform="translate(7.45 8.274)" fill="#181709"/>
                <path id="Trazado_156715" data-name="Trazado 156715" d="M72.975,36.833s-.009,5.8-4.85,6.348S62.512,39,62.512,39Z" transform="translate(-2.827 11.16)" fill="#fff"/>
                <path id="Trazado_156716" data-name="Trazado 156716" d="M65.962,43.723a2.605,2.605,0,0,0,1.432-.973.438.438,0,0,0-.727-.489,1.773,1.773,0,0,1-1.888.608.438.438,0,0,0-.2.853,2.844,2.844,0,0,0,1.381,0" transform="translate(0.427 12.746)" fill="#722324"/>
                <path id="Trazado_156717" data-name="Trazado 156717" d="M86.816,29.928a10.738,10.738,0,0,0-1.475.276,10.91,10.91,0,0,0-6.26,4.8c-.259-1.677-2.057-9.374-13.3-10.639-.16-.017-.334-.034-.513-.048a9.583,9.583,0,0,1-1.238-4.822c1.119-4.568-20.878-2.249-21.617,4.764-.309,2.938-.474,4.852-.563,6.094v0a12.074,12.074,0,0,0-.078,2.282s-1.941,2.022-2.1-7.636a13.113,13.113,0,0,1,3.261-8.615c4.39-5.336,12.725-9.161,21.942-10.342C78.524,4.3,88.469,18.635,89.122,23.868s-2.306,6.06-2.306,6.06" transform="translate(10.691 1.787)" fill="#181709"/>
                <g id="Grupo_167827" data-name="Grupo 167827" transform="translate(55.337 43.835)" opacity="0.5">
                  <g id="Grupo_167826" data-name="Grupo 167826" transform="translate(0)">
                    <g id="Grupo_167825" data-name="Grupo 167825" clip-path="url(#clip-path-4)">
                      <path id="Trazado_156718" data-name="Trazado 156718" d="M74.729,34.92c.036.735-1.535,1.427-3.659,1.674a27.252,27.252,0,0,1,.41-2.953c1.854.108,3.216.609,3.248,1.278" transform="translate(-71.071 -33.642)" fill="#722324"/>
                    </g>
                  </g>
                </g>
                <path id="Trazado_156719" data-name="Trazado 156719" d="M69.721,38.2a.572.572,0,0,1-.309-.055L66.8,36.85a.561.561,0,0,1-.069-.964,8.07,8.07,0,0,0,3.379-5.929.56.56,0,0,1,1.109.164A9.336,9.336,0,0,1,68.1,36.247l1.81.9a.561.561,0,0,1-.19,1.059" transform="translate(-6.249 8.932)" fill="#722324"/>
                <path id="Trazado_156720" data-name="Trazado 156720" d="M59.334,26.548a1.362,1.362,0,0,1-2.012-1.762,3.957,3.957,0,0,1,2.2-1.681,9.879,9.879,0,0,1,8.694,1.289s-5.242.175-7.591,1.343a7.724,7.724,0,0,0-1.294.81" transform="translate(8.956 6.848)" fill="#181709"/>
                <path id="Trazado_156721" data-name="Trazado 156721" d="M76.353,27.142a1.361,1.361,0,0,0,1.492-2.218,3.948,3.948,0,0,0-2.56-1.061c-5.122-.354-6.412,3.013-6.412,3.013a18.079,18.079,0,0,1,6.022-.185,7.544,7.544,0,0,1,1.458.451" transform="translate(-16.401 7.223)" fill="#181709"/>
                <g id="Grupo_167830" data-name="Grupo 167830" transform="translate(70.408 42.653)" opacity="0.5">
                  <g id="Grupo_167829" data-name="Grupo 167829" transform="translate(0)">
                    <g id="Grupo_167828" data-name="Grupo 167828" clip-path="url(#clip-path-5)">
                      <path id="Trazado_156722" data-name="Trazado 156722" d="M55.161,34.507c.042.838,2.163,1.411,4.735,1.281s4.624-.916,4.583-1.754-2.163-1.41-4.736-1.28-4.624.915-4.581,1.753" transform="translate(-55.16 -32.735)" fill="#722324"/>
                    </g>
                  </g>
                </g>
                <path id="Trazado_156723" data-name="Trazado 156723" d="M51.88,37.316l-.034,0h0l-.137.014c-.083.292-.185.579-.292.872-.046.126-.094.255-.143.382a.139.139,0,0,1-.016.035,5.933,5.933,0,0,1-2.562-.816,4.7,4.7,0,0,1-1.414-1.336.669.669,0,0,1,1.1-.766,3.6,3.6,0,0,0,1.685,1.282,4.889,4.889,0,0,0,1.188.284,6.061,6.061,0,0,0,.631.044" transform="translate(38.273 10.732)" fill="#722324"/>
                <path id="Trazado_156724" data-name="Trazado 156724" d="M43.324,36.038a.667.667,0,0,0,.509-.569c.571-4.706,5.976-7.1,6.029-7.122a.668.668,0,0,0-.528-1.227c-.251.108-6.164,2.713-6.826,8.188a.667.667,0,0,0,.816.731" transform="translate(45.953 8.2)" fill="#722324"/>
                <path id="Trazado_156725" data-name="Trazado 156725" d="M47.489,32.3a.649.649,0,0,0,.233-.106.668.668,0,0,0,.158-.932,4.588,4.588,0,0,0-4.16-1.713.669.669,0,0,0,.146,1.329,3.244,3.244,0,0,1,2.925,1.158.67.67,0,0,0,.7.263" transform="translate(47.405 8.945)" fill="#722324"/>
                <path id="Trazado_156726" data-name="Trazado 156726" d="M55.222,50.93c-3.638,2.688-7.354,4.106-11.371.582-.423-5.8.9-12.423,2.847-16.243,3.2-6.277-2.387-14.014-2.387-14.014,3.561,1.474,7.5,1.432,9.62,5.6C50.4,30.929,52.6,41.994,55.222,50.93" transform="translate(39.343 6.44)" fill="#181709"/>
                <path id="Trazado_156727" data-name="Trazado 156727" d="M42.023,33.979l5.938,16.11s-1.9,2.525-8.011,1.917l1.2-17.864Z" transform="translate(51.585 10.295)" fill="#fff"/>
                <path id="Trazado_156728" data-name="Trazado 156728" d="M1.761,173.456c-.919-2.12-.248-6.164-1.762-8.17,2.569-1.962,3.677-2.886,6.146-4.955q5.088-4.263,9.861-8.825c3.175-3.039,6.245-6.167,9.163-9.376q2.189-2.408,4.243-4.868l.259-.313c-.152-.6-.322-1.23-.509-1.871-.675-2.3-1.558-4.76-2.516-7.236-1.943-4.967-4.232-10.03-6.648-15.067S15,102.705,12.35,97.705q-1.99-3.753-4.046-7.474l-2.065-3.71L5.2,84.683,4.171,82.9l-.072-.13A11.917,11.917,0,1,1,24.769,70.9l1.141,1.986,1.1,1.943,2.162,3.883Q31.318,82.6,33.4,86.526c2.778,5.234,5.48,10.524,8.081,15.926s5.089,10.911,7.37,16.736c1.134,2.929,2.218,5.921,3.178,9.182.478,1.635.928,3.336,1.307,5.2a36.494,36.494,0,0,1,.765,6.481,11.6,11.6,0,0,1-2.755,7.811l-.063.074c-.122.138-.168.18-.246.263l-.2.2-.373.37-.717.693q-.709.674-1.41,1.312c-.933.86-1.866,1.687-2.8,2.5q-2.811,2.433-5.672,4.7c-3.816,3.035-7.718,5.9-11.688,8.63s-8.019,5.315-12.136,7.761q-5.457,3.244-11.058,6.164c-1.132-2.331-2.194-4.7-3.225-7.075" transform="translate(97.494 19.669)" fill="#c9614d"/>
                <path id="Trazado_156729" data-name="Trazado 156729" d="M20.971,119.122a13.756,13.756,0,0,0-9.1,2.027c-.491.307-.994-.439-.5-.748a14.752,14.752,0,0,1,9.775-2.163c.575.072.4.955-.173.883" transform="translate(115.553 35.79)" fill="#722324"/>
                <path id="Trazado_156730" data-name="Trazado 156730" d="M18.3,116.186l-4.081,4.078c-.408.408-1.087-.185-.675-.6l4.081-4.078c.408-.408,1.087.185.675.6" transform="translate(115.69 34.982)" fill="#722324"/>
                <path id="Trazado_156731" data-name="Trazado 156731" d="M93.879,137.977s-5.3-.211-6.055,3.608,5.336,10.7,7.639,12.97,1.582-5.314-.366-8.08-1.62-4.829-1.62-4.829Z" transform="translate(-59.649 41.806)" fill="#c9614d"/>
                <path id="Trazado_156732" data-name="Trazado 156732" d="M96.944,147.57s-5.7-.353-6.456,3.465,5.336,10.7,7.638,12.97,1.582-5.314-.365-8.079-1.364-4.494-1.364-4.494Z" transform="translate(-65.781 44.71)" fill="#c9614d"/>
                <path id="Trazado_156733" data-name="Trazado 156733" d="M98.436,151.97s-5.033-.313-5.7,3.061,4.713,9.452,6.747,11.457,1.4-4.693-.322-7.137-1.205-3.97-1.205-3.97Z" transform="translate(-69.905 46.043)" fill="#c9614d"/>
                <path id="Trazado_156734" data-name="Trazado 156734" d="M95.248,142.884s-5.7-.354-6.458,3.465,5.337,10.7,7.641,12.97,1.581-5.314-.366-8.079-1.364-4.494-1.364-4.494Z" transform="translate(-61.876 43.29)" fill="#c9614d"/>
                <path id="Trazado_156735" data-name="Trazado 156735" d="M38.154,141.393s5.847-.614,6.928,3.126-4.407,11.116-6.51,13.572-2.027-5.159-.322-8.081,1.2-4.949,1.2-4.949Z" transform="translate(58.192 42.83)" fill="#c9614d"/>
                <path id="Trazado_156736" data-name="Trazado 156736" d="M34.893,150.793s5.647-.837,6.729,2.9-4.407,11.115-6.508,13.573-2.029-5.16-.323-8.081.976-4.594.976-4.594Z" transform="translate(66.161 45.665)" fill="#c9614d"/>
                <path id="Trazado_156737" data-name="Trazado 156737" d="M32.963,155s4.988-.739,5.943,2.564-3.892,9.818-5.749,11.989-1.792-4.557-.285-7.138.863-4.058.863-4.058Z" transform="translate(71.198 46.944)" fill="#c9614d"/>
                <path id="Trazado_156738" data-name="Trazado 156738" d="M36.982,146.269s5.647-.838,6.729,2.9S39.3,160.286,37.2,162.744s-2.029-5.159-.323-8.08.976-4.594.976-4.594Z" transform="translate(61.349 44.294)" fill="#c9614d"/>
                <path id="Trazado_156739" data-name="Trazado 156739" d="M51.642,368.687a17.161,17.161,0,0,1-12.418,1.7c-.606-.145-.349-1.08.258-.934a16.143,16.143,0,0,0,11.67-1.605c.546-.3,1.036.533.49.837" transform="translate(49.061 111.436)" fill="#110e0a"/>
                <path id="Trazado_156740" data-name="Trazado 156740" d="M99.535,366.117a16.138,16.138,0,0,1-16.583-.208c-.529-.33-.043-1.169.489-.837a15.159,15.159,0,0,0,15.606.208.485.485,0,0,1,.489.837" transform="translate(-55.957 110.591)" fill="#110e0a"/>
              </g>
            </g>
          </g>
        </g>
      </g>
    </g>
    <g id="Grupo_169245" data-name="Grupo 169245" transform="translate(1240.917 3578.618)">
      <g id="Grupo_169244" data-name="Grupo 169244" clip-path="url(#clip-path-6)">
        <path id="Trazado_160314" data-name="Trazado 160314" d="M72.654,56.975H31.324A.972.972,0,0,1,30.351,56V4.194a.972.972,0,0,1,.973-.973h41.33a.972.972,0,0,1,.973.973V56a.972.972,0,0,1-.973.973M32.3,55.029H71.681V5.167H32.3Z" transform="translate(3.43 0.364)" fill="#2f3f4f"/>
        <path id="Trazado_160315" data-name="Trazado 160315" d="M110.836,236.177H0V95.468A55.418,55.418,0,0,1,55.418,40.049h0a55.418,55.418,0,0,1,55.418,55.419Z" transform="translate(0 4.526)" fill="#4663ab"/>
        <path id="Trazado_160316" data-name="Trazado 160316" d="M19.928,225.1a8.84,8.84,0,1,0-8.839,8.839,8.84,8.84,0,0,0,8.839-8.839" transform="translate(0.254 24.438)" fill="#2f3f4f"/>
        <path id="Trazado_160317" data-name="Trazado 160317" d="M81.45,225.1a8.84,8.84,0,1,1,8.839,8.839A8.84,8.84,0,0,1,81.45,225.1" transform="translate(9.204 24.438)" fill="#2f3f4f"/>
        <path id="Trazado_160318" data-name="Trazado 160318" d="M66.976,9.116H36.615a4.558,4.558,0,1,1,0-9.115H66.976a4.558,4.558,0,1,1,0,9.115" transform="translate(3.622 0)" fill="#2f3f4f"/>
        <path id="Trazado_160319" data-name="Trazado 160319" d="M80.515,105.09H25.832a5.977,5.977,0,0,1-5.97-5.97V76.7a5.976,5.976,0,0,1,5.97-5.969H80.515a5.976,5.976,0,0,1,5.97,5.969V99.12a5.976,5.976,0,0,1-5.97,5.97M25.832,72.675A4.031,4.031,0,0,0,21.806,76.7V99.12a4.031,4.031,0,0,0,4.026,4.025H80.515a4.031,4.031,0,0,0,4.026-4.025V76.7a4.031,4.031,0,0,0-4.026-4.025Z" transform="translate(2.244 7.993)" fill="#2f3f4f"/>
      </g>
    </g>
  </g>
</svg>
