<svg xmlns="http://www.w3.org/2000/svg" xmlns:xlink="http://www.w3.org/1999/xlink" width="105" height="105" viewBox="0 0 105 105">
  <defs>
    <clipPath id="clip-path">
      <rect id="Rectángulo_42481" data-name="Rectángulo 42481" width="73.666" height="73.667" fill="none"/>
    </clipPath>
  </defs>
  <g id="_39" data-name="39" transform="translate(5311 6518)">
    <circle id="Elipse_4910" data-name="Elipse 4910" cx="52.5" cy="52.5" r="52.5" transform="translate(-5311 -6518)" fill="#a6bbff"/>
    <g id="Grupo_169269" data-name="Grupo 169269" transform="translate(-5296 -6502)">
      <g id="Grupo_169268" data-name="Grupo 169268" transform="translate(0 0)" clip-path="url(#clip-path)">
        <path id="Trazado_160693" data-name="Trazado 160693" d="M37.258,0a3.03,3.03,0,0,1,1.1,1.173c.754,1.3,1.529,2.6,2.313,3.883A6.218,6.218,0,0,0,49.368,7.4c1.4-.768,2.794-1.566,4.2-2.34,1.343-.74,2.377-.121,2.4,1.422.032,1.8.026,3.6.123,5.39a6.09,6.09,0,0,0,5.661,5.685c1.817.1,3.641.091,5.462.128,1.493.03,2.107,1.068,1.389,2.378-.759,1.383-1.537,2.755-2.3,4.136a6.23,6.23,0,0,0,2.391,8.843c1.333.8,2.676,1.582,4.007,2.385,1.3.782,1.285,2.024-.021,2.809-1.332.8-2.673,1.586-4.007,2.385a6.234,6.234,0,0,0-2.36,8.852c.766,1.379,1.545,2.752,2.3,4.135a1.46,1.46,0,0,1-1.353,2.355c-1.821.039-3.644.03-5.462.125A6.089,6.089,0,0,0,56.091,61.8C56,63.6,56,65.4,55.968,67.194c-.028,1.529-1.074,2.134-2.426,1.388-1.381-.763-2.752-1.545-4.134-2.3a6.2,6.2,0,0,0-8.746,2.339c-.831,1.369-1.639,2.754-2.471,4.123a1.463,1.463,0,0,1-2.718.015c-.845-1.389-1.665-2.794-2.511-4.183a6.214,6.214,0,0,0-8.7-2.3c-1.4.776-2.794,1.567-4.2,2.338-1.308.718-2.349.1-2.377-1.392-.034-1.8-.027-3.6-.122-5.391A6.08,6.08,0,0,0,11.8,56.087c-1.794-.093-3.593-.084-5.39-.121-1.447-.03-2.072-1.074-1.381-2.337C5.81,52.2,6.623,50.795,7.4,49.368a6.22,6.22,0,0,0-2.345-8.694c-1.287-.784-2.578-1.559-3.882-2.314A3.02,3.02,0,0,1,0,37.258V36.4a1.745,1.745,0,0,1,1-1.22c1.284-.749,2.548-1.529,3.827-2.287A6.191,6.191,0,0,0,8.08,28a5.641,5.641,0,0,0-.608-3.13c-.62-1.245-1.337-2.437-2.005-3.655C5.236,20.792,5,20.375,4.8,19.94a1.609,1.609,0,0,1,1.474-2.425c.79-.041,1.583-.039,2.372,0a31.118,31.118,0,0,0,3.585-.184A5.993,5.993,0,0,0,17.38,11.8c.084-1.819.09-3.638.134-5.457A1.613,1.613,0,0,1,20,4.834c1.355.666,2.665,1.42,3.967,2.182a6.236,6.236,0,0,0,5.9.589,5.964,5.964,0,0,0,2.7-2.3c.911-1.41,1.745-2.866,2.6-4.308A1.761,1.761,0,0,1,36.4,0Z" transform="translate(0 0)"/>
        <path id="Trazado_160694" data-name="Trazado 160694" d="M67.936,56.024c-1.115,0-2.1-.061-3.069.01a9.126,9.126,0,0,0-8.824,9.256c-.022.813,0,1.627,0,2.5a4.932,4.932,0,0,1-1.383-.669A11.034,11.034,0,0,0,49.987,65.4a8.955,8.955,0,0,0-8.4,3.842c-.536.731-.964,1.542-1.437,2.318-.421.691-.411.689-.851-.029a24.542,24.542,0,0,0-1.821-2.837,9.127,9.127,0,0,0-11.242-2.341c-.87.452-1.721.941-2.582,1.41-.036.019-.092,0-.275,0,0-1.027.07-2.057-.011-3.075A9.1,9.1,0,0,0,14.147,56c-.814-.021-1.627,0-2.595,0,.439-.8.807-1.5,1.206-2.19a9.076,9.076,0,0,0,1.331-4.713A9.017,9.017,0,0,0,9.85,41.3a22.078,22.078,0,0,0-2.036-1.212c-.632-.328-.465-.506.028-.8a17.113,17.113,0,0,0,3.548-2.423A9.137,9.137,0,0,0,13.162,26.39c-.475-.963-1.013-1.894-1.607-2.994.869,0,1.64.008,2.41,0a9.4,9.4,0,0,0,4.815-1.223,9.131,9.131,0,0,0,4.651-8.148c.018-.789,0-1.579,0-2.533.852.476,1.586.891,2.326,1.3a9.14,9.14,0,0,0,10.65-.978,10.337,10.337,0,0,0,2-2.43A10.9,10.9,0,0,1,39.753,7.3a14.981,14.981,0,0,1,1.329,2.107,9.308,9.308,0,0,0,2.809,3.031,9,9,0,0,0,9.469.53c.87-.435,1.709-.928,2.678-1.457,0,.913-.015,1.7,0,2.486a9.2,9.2,0,0,0,9.441,9.395c.765.014,1.531,0,2.453,0l-1.3,2.329a9.195,9.195,0,0,0,3.24,12.529c.614.372,1.222.756,1.85,1.1.421.232.561.379.026.669-.777.422-1.534.887-2.271,1.377a9.1,9.1,0,0,0-3.119,11.729c.467.933.995,1.837,1.571,2.893" transform="translate(-2.91 -2.87)" fill="#fe8649"/>
        <path id="Trazado_160695" data-name="Trazado 160695" d="M22.228,45.526a23.331,23.331,0,1,1,23.4,23.366,23.306,23.306,0,0,1-23.4-23.366" transform="translate(-8.738 -8.736)"/>
        <path id="Trazado_160696" data-name="Trazado 160696" d="M47.482,26.993A20.44,20.44,0,1,1,26.995,47.3a20.448,20.448,0,0,1,20.487-20.3" transform="translate(-10.612 -10.611)" fill="#fec265"/>
        <path id="Trazado_160697" data-name="Trazado 160697" d="M85.832,53.483a13.766,13.766,0,0,1-.16,2.371,1.494,1.494,0,0,1-1.586,1.5,1.438,1.438,0,0,1-1.282-1.8,15,15,0,0,0-2.33-10.339c-.169-.261-.364-.5-.53-.768A1.441,1.441,0,1,1,82.3,42.784a17.549,17.549,0,0,1,3.24,7.424,15.541,15.541,0,0,1,.29,3.275" transform="translate(-31.315 -16.565)"/>
        <path id="Trazado_160698" data-name="Trazado 160698" d="M74.665,39.448a1.409,1.409,0,0,1-1.433-1.4,1.455,1.455,0,0,1,1.439-1.483,1.471,1.471,0,0,1,1.44,1.416,1.423,1.423,0,0,1-1.446,1.462" transform="translate(-28.787 -14.376)" fill="#010100"/>
      </g>
    </g>
  </g>
</svg>
