<svg xmlns="http://www.w3.org/2000/svg" xmlns:xlink="http://www.w3.org/1999/xlink" width="105" height="105" viewBox="0 0 105 105">
  <defs>
    <clipPath id="clip-path">
      <rect id="Rectángulo_42482" data-name="Rectángulo 42482" width="70.507" height="57.328" fill="none"/>
    </clipPath>
  </defs>
  <g id="_41" data-name="41" transform="translate(4688 6518)">
    <circle id="Elipse_4912" data-name="Elipse 4912" cx="52.5" cy="52.5" r="52.5" transform="translate(-4688 -6518)" fill="#a6bbff"/>
    <g id="Grupo_169272" data-name="Grupo 169272" transform="translate(-4671 -6494)">
      <g id="Grupo_169271" data-name="Grupo 169271" clip-path="url(#clip-path)">
        <path id="Trazado_160699" data-name="Trazado 160699" d="M73.963,17.246a1.246,1.246,0,0,1,1.265.748A19.783,19.783,0,0,1,77.5,24.852c.063.469.238.532.644.538a28.832,28.832,0,0,1,5.344.221,11.663,11.663,0,0,1,9.2,9.727c.013.092.018.18.123.215v1.515a1.057,1.057,0,0,0,0,.827v.413a4.276,4.276,0,0,0-.328,1.3,11.374,11.374,0,0,1-10.869,8.7c-9.284.08-18.57.025-27.854.032a1.247,1.247,0,0,1-1.184-.67c-.209-1.217.1-1.568,1.434-1.57q9.707-.012,19.415,0c2.57,0,5.141.04,7.711-.01a9.2,9.2,0,0,0,5.093-16.97,9.706,9.706,0,0,0-5.222-1.487c-1.308-.005-2.616.009-3.925,0-1.194-.013-1.563-.4-1.694-1.595A18.887,18.887,0,0,0,73.42,19.4c-.073-.143-.16-.279-.228-.424a1.107,1.107,0,0,1,.771-1.732" transform="translate(-22.305 -7.323)"/>
        <path id="Trazado_160700" data-name="Trazado 160700" d="M3.733,20.257a1.078,1.078,0,0,1-.2-1.582,14.5,14.5,0,0,1,13.642-6.993.792.792,0,0,0,.9-.485A20.237,20.237,0,0,1,33.221.236c.269-.046.6.041.807-.236h.689c.076.085.178.067.276.071s.2.014.275-.071h2.2a.179.179,0,0,0,.276,0h.413c.927.178,1.86.331,2.781.538a20.05,20.05,0,0,1,9.44,5.051c.584.547.6.926.131,1.691a1.157,1.157,0,0,1-1.7-.081c-.635-.526-1.234-1.1-1.912-1.571a17.869,17.869,0,0,0-8.993-3.3,16.126,16.126,0,0,0-6.192.515,18.021,18.021,0,0,0-11.189,8.514c-.353.591-.631,1.221-.943,1.834a1.328,1.328,0,0,1-1.65.814,2.656,2.656,0,0,0-.536-.048,12.23,12.23,0,0,0-11.681,5.5,4.144,4.144,0,0,1-.583.761.986.986,0,0,1-1.4.039" transform="translate(-1.392)"/>
        <path id="Trazado_160701" data-name="Trazado 160701" d="M.123,41.343c.063-.71.085-1.446.983-1.663.888-.1,1.315.278,1.313,1.194,0,.71-.166,1.407-.165,2.123A12.762,12.762,0,0,0,12.645,55.4a20.254,20.254,0,0,0,3.562.237c3.577,0,7.153-.023,10.73.009.741.249.94.505.885,1.139-.264.878-.512,1.074-1.412,1.075-3.877,0-7.755.024-11.632,0A14.938,14.938,0,0,1,.155,45.213C.13,45.069.209,44.878,0,44.8V42.735C.146,42.5.037,42.241.071,42a1.825,1.825,0,0,1,.051-.654" transform="translate(0 -16.846)"/>
        <path id="Trazado_160702" data-name="Trazado 160702" d="M58.195.116c-.111.013-.227.035-.267-.116H58.2c.047.029.061.056.043.081a.069.069,0,0,1-.052.035" transform="translate(-24.603)" fill="#616161"/>
        <path id="Trazado_160703" data-name="Trazado 160703" d="M58.392.116Q58.4.058,58.4,0h.276a.226.226,0,0,1-.284.116" transform="translate(-24.8)" fill="#444"/>
        <path id="Trazado_160704" data-name="Trazado 160704" d="M62.992,0c-.092.182-.184.144-.276,0Z" transform="translate(-26.637)" fill="#525252"/>
        <path id="Trazado_160705" data-name="Trazado 160705" d="M33.548,41.5a1.251,1.251,0,0,0-.835-.991,2.163,2.163,0,0,0-.75-.043q-4.813-.005-9.628,0a2.837,2.837,0,0,1-1.39-.307A13.213,13.213,0,0,1,13.6,29.668c-.664-5.81,1.565-10.434,6.535-13.648a4.823,4.823,0,0,1,1.568-.67,2.381,2.381,0,0,1,.542.025A1.2,1.2,0,0,0,23.8,14.65a4.825,4.825,0,0,1,2.505-.575,10.677,10.677,0,0,1,2.671.067c.512.1.684-.251.858-.611a19.554,19.554,0,0,1,3.948-5.495A19.15,19.15,0,0,1,40.049,3.9a4.558,4.558,0,0,1,2.232-.152A17.544,17.544,0,0,1,53.027,8.424c.555.5,1.079.858,1.821.422a10.473,10.473,0,0,1,1.856,2.2c.179.249.328.486.681.445-.851.513-1,.914-.548,1.742a18.451,18.451,0,0,1,2.193,7.383c.06.749.439,1.054,1.234,1.075,1.9.049,3.81-.121,5.708.1a9.534,9.534,0,0,1,8.194,9.4,9.392,9.392,0,0,1-8.273,9.222,16.28,16.28,0,0,1-1.715.093q-13.425.009-26.85,0c-1.091,0-1.415.347-1.329,1.4a.624.624,0,0,0-.674-.421c-.59.04-1.184.011-1.776.011" transform="translate(-5.726 -1.565)" fill="#ebf5fd"/>
        <path id="Trazado_160706" data-name="Trazado 160706" d="M27.6,89.9a4.964,4.964,0,0,1-4.8-6.208,15.223,15.223,0,0,1,3.184-5.551,10.828,10.828,0,0,1,.858-.983A.947.947,0,0,1,28.3,77.1c1.837,2,3.559,4.1,4.169,6.827A4.925,4.925,0,0,1,27.6,89.9" transform="translate(-9.613 -32.608)"/>
        <path id="Trazado_160707" data-name="Trazado 160707" d="M62.574,84.936a4.835,4.835,0,0,1-2.885,4.475,4.685,4.685,0,0,1-5.22-.638,4.638,4.638,0,0,1-1.708-5.028c.664-2.632,2.333-4.68,4.1-6.642a.9.9,0,0,1,1.41-.02,16.43,16.43,0,0,1,4.153,6.692,4.5,4.5,0,0,1,.146,1.161" transform="translate(-22.335 -32.599)"/>
        <path id="Trazado_160708" data-name="Trazado 160708" d="M87.583,89.893A4.96,4.96,0,0,1,82.8,83.509a16.684,16.684,0,0,1,4.034-6.383.931.931,0,0,1,1.463-.011,16.188,16.188,0,0,1,4.088,6.578,4.947,4.947,0,0,1-4.806,6.2" transform="translate(-35.079 -32.603)"/>
        <path id="Trazado_160709" data-name="Trazado 160709" d="M16.79,23.907a15.685,15.685,0,0,0-4.5,3.317A13.177,13.177,0,0,0,8.944,34.15a13.6,13.6,0,0,0,7.763,14.7,1.815,1.815,0,0,0,.809.1q4.781,0,9.563,0c.243,0,.509-.083.724.113-4.085,0-8.171.032-12.255-.006A12.844,12.844,0,0,1,2.9,35.671c.02-.434.092-.866.139-1.3.105-.964-.158-1.3-1.115-1.416a.923.923,0,0,0,.565-.675c.175-.647.442-1.268.671-1.9.914.256,1.1.158,1.679-.694a12.5,12.5,0,0,1,11.685-5.829,1.988,1.988,0,0,1,.269.051" transform="translate(-0.816 -10.122)" fill="#daeafa"/>
        <path id="Trazado_160710" data-name="Trazado 160710" d="M49.9,3.693c-2.6-.091-4.526,1.419-6.467,2.8a18.22,18.22,0,0,0-5.812,7.079c-.3.619-.594.747-1.309.66a11.609,11.609,0,0,0-4.554.3,2.99,2.99,0,0,1-.338.054A18.062,18.062,0,0,1,44.391,4,14.347,14.347,0,0,1,49.9,3.693" transform="translate(-13.345 -1.508)" fill="#daeafa"/>
        <path id="Trazado_160711" data-name="Trazado 160711" d="M31.1,83.263a10.261,10.261,0,0,1,1.988,3.7,2.863,2.863,0,0,1-2.794,3.586,3.551,3.551,0,0,1-1.332-3.736,9.664,9.664,0,0,1,1.458-3.147c.158-.224.285-.555.681-.4" transform="translate(-12.257 -35.346)" fill="#8bc9fb"/>
        <path id="Trazado_160712" data-name="Trazado 160712" d="M29.98,82.484c-.413.062-.485.454-.673.721A7.877,7.877,0,0,0,28,86.139a3.875,3.875,0,0,0,1.17,3.629,2.878,2.878,0,0,1-2.807-3.81,14.294,14.294,0,0,1,2.75-4.568,5.345,5.345,0,0,1,.863,1.095" transform="translate(-11.137 -34.567)" fill="#64b7fb"/>
        <path id="Trazado_160713" data-name="Trazado 160713" d="M61.083,83.244a10.167,10.167,0,0,1,1.986,3.64,2.871,2.871,0,0,1-2.814,3.646,3.241,3.241,0,0,1-1.38-3.106,7.97,7.97,0,0,1,1.686-4.007c.118-.175.281-.316.521-.173" transform="translate(-25.003 -35.33)" fill="#8bc9fb"/>
        <path id="Trazado_160714" data-name="Trazado 160714" d="M59.94,82.53c-.686.285-.845,1-1.143,1.547-1.157,2.133-1.386,3.719.316,5.739A2.863,2.863,0,0,1,56.26,86.3a12.549,12.549,0,0,1,2.672-4.672c.146-.186.249-.15.368.016.212.3.427.59.64.884" transform="translate(-23.86 -34.617)" fill="#64b7fb"/>
        <path id="Trazado_160715" data-name="Trazado 160715" d="M90.926,82.988a10.4,10.4,0,0,1,2.107,3.719,2.867,2.867,0,0,1-2.817,3.738,2.945,2.945,0,0,1-1.338-2.627,7.005,7.005,0,0,1,2.048-4.831" transform="translate(-37.748 -35.246)" fill="#8bc9fb"/>
        <path id="Trazado_160716" data-name="Trazado 160716" d="M89.776,82.279c-.383.675-.775,1.345-1.148,2.026a4.348,4.348,0,0,0,.438,5.431,2.86,2.86,0,0,1-2.8-3.592A13.661,13.661,0,0,1,89.1,81.318l.674.961" transform="translate(-36.598 -34.537)" fill="#64b7fb"/>
      </g>
    </g>
  </g>
</svg>
