<svg xmlns="http://www.w3.org/2000/svg" xmlns:xlink="http://www.w3.org/1999/xlink" width="105" height="105" viewBox="0 0 105 105">
  <defs>
    <clipPath id="clip-path">
      <rect id="Rectángulo_42484" data-name="Rectángulo 42484" width="80.541" height="79.92" fill="none"/>
    </clipPath>
  </defs>
  <g id="_42" data-name="42" transform="translate(4373 6518)">
    <circle id="Elipse_4913" data-name="Elipse 4913" cx="52.5" cy="52.5" r="52.5" transform="translate(-4373 -6518)" fill="#a6bbff"/>
    <g id="Grupo_169278" data-name="Grupo 169278" transform="translate(-4361 -6505)">
      <g id="Grupo_169277" data-name="Grupo 169277" clip-path="url(#clip-path)">
        <path id="Trazado_160725" data-name="Trazado 160725" d="M29.93,0a2.438,2.438,0,0,1,.886.943c.606,1.047,1.228,2.085,1.858,3.119a5,5,0,0,0,6.984,1.884c1.129-.617,2.244-1.259,3.371-1.88,1.079-.595,1.91-.1,1.932,1.142.026,1.443.021,2.889.1,4.33a4.892,4.892,0,0,0,4.547,4.567c1.46.08,2.925.073,4.388.1,1.2.024,1.692.858,1.115,1.911-.61,1.111-1.235,2.213-1.849,3.322a5,5,0,0,0,1.921,7.1c1.071.641,2.15,1.271,3.219,1.916a1.2,1.2,0,0,1-.016,2.256c-1.07.643-2.147,1.274-3.218,1.915a5.009,5.009,0,0,0-1.9,7.111c.615,1.107,1.241,2.21,1.85,3.322a1.173,1.173,0,0,1-1.087,1.892c-1.463.031-2.927.024-4.387.1a4.892,4.892,0,0,0-4.586,4.589c-.076,1.441-.071,2.887-.1,4.331-.023,1.229-.863,1.715-1.949,1.115-1.109-.613-2.21-1.241-3.321-1.851a4.983,4.983,0,0,0-7.025,1.879c-.668,1.1-1.317,2.212-1.986,3.311a1.175,1.175,0,0,1-2.183.012c-.679-1.116-1.337-2.244-2.017-3.36a4.992,4.992,0,0,0-6.991-1.85c-1.125.624-2.244,1.259-3.372,1.878-1.051.577-1.888.08-1.91-1.118-.027-1.444-.022-2.89-.1-4.331A4.884,4.884,0,0,0,9.48,45.055c-1.441-.075-2.886-.067-4.33-.1-1.162-.024-1.665-.863-1.11-1.877.627-1.145,1.279-2.277,1.9-3.423a5,5,0,0,0-1.884-6.984C3.028,32.044,1.99,31.421.943,30.815A2.42,2.42,0,0,1,0,29.93v-.693a1.4,1.4,0,0,1,.806-.98c1.031-.6,2.047-1.229,3.074-1.837a4.974,4.974,0,0,0,2.612-3.927A4.528,4.528,0,0,0,6,19.977c-.5-1-1.073-1.957-1.611-2.936-.185-.338-.374-.674-.536-1.023a1.293,1.293,0,0,1,1.184-1.949c.634-.033,1.272-.031,1.906,0a24.775,24.775,0,0,0,2.879-.148,4.814,4.814,0,0,0,4.136-4.437c.067-1.462.073-2.923.108-4.383a1.3,1.3,0,0,1,2-1.214c1.089.535,2.14,1.141,3.187,1.753A5.007,5.007,0,0,0,24,6.11a4.789,4.789,0,0,0,2.167-1.844c.732-1.132,1.4-2.3,2.091-3.461a1.413,1.413,0,0,1,.981-.8Z"/>
        <path id="Trazado_160726" data-name="Trazado 160726" d="M55,45.424c-.9,0-1.684-.049-2.465.008a7.331,7.331,0,0,0-7.088,7.436c-.018.653,0,1.307,0,2.01a3.954,3.954,0,0,1-1.11-.538,8.868,8.868,0,0,0-3.752-1.385,7.192,7.192,0,0,0-6.745,3.087c-.431.587-.775,1.238-1.155,1.862-.338.555-.33.553-.683-.023a19.8,19.8,0,0,0-1.464-2.28A7.332,7.332,0,0,0,21.5,53.72c-.7.363-1.382.756-2.074,1.132-.028.016-.073,0-.22,0,0-.826.056-1.653-.009-2.47a7.308,7.308,0,0,0-7.411-6.98c-.653-.018-1.307,0-2.084,0,.353-.643.649-1.208.969-1.759a7.287,7.287,0,0,0,1.069-3.786,7.243,7.243,0,0,0-3.406-6.263A17.8,17.8,0,0,0,6.7,32.621c-.508-.263-.374-.407.022-.64a13.756,13.756,0,0,0,2.851-1.946A7.341,7.341,0,0,0,11,21.618c-.381-.773-.814-1.521-1.29-2.405.7,0,1.317.006,1.935,0a7.562,7.562,0,0,0,3.869-.982,7.334,7.334,0,0,0,3.735-6.545c.015-.634,0-1.268,0-2.035.684.382,1.275.715,1.868,1.043a7.342,7.342,0,0,0,8.555-.786A8.332,8.332,0,0,0,31.28,7.955a8.724,8.724,0,0,1,1.079-1.671,12.1,12.1,0,0,1,1.068,1.692,7.464,7.464,0,0,0,2.256,2.435,7.227,7.227,0,0,0,7.606.426c.7-.349,1.373-.745,2.152-1.17,0,.734-.012,1.366,0,2a7.394,7.394,0,0,0,7.584,7.547c.615.011,1.23,0,1.971,0-.38.683-.71,1.276-1.04,1.871a7.387,7.387,0,0,0,2.6,10.065c.494.3.982.607,1.486.885.339.187.451.3.022.538-.625.339-1.233.713-1.824,1.107A7.308,7.308,0,0,0,53.737,43.1c.375.75.8,1.476,1.262,2.324" transform="translate(-2.762 -2.724)" fill="#fe8649"/>
        <path id="Trazado_160727" data-name="Trazado 160727" d="M19.129,37.845a18.742,18.742,0,1,1,18.8,18.77,18.722,18.722,0,0,1-18.8-18.77" transform="translate(-8.293 -8.292)"/>
        <path id="Trazado_160728" data-name="Trazado 160728" d="M39.69,23.231a16.42,16.42,0,1,1-16.457,16.31A16.426,16.426,0,0,1,39.69,23.231" transform="translate(-10.072 -10.071)" fill="#fec265"/>
        <path id="Trazado_160729" data-name="Trazado 160729" d="M73.515,45.379a11.1,11.1,0,0,1-.128,1.9,1.2,1.2,0,0,1-1.274,1.2,1.155,1.155,0,0,1-1.03-1.449,12.05,12.05,0,0,0-1.872-8.305c-.135-.21-.292-.406-.425-.617a1.158,1.158,0,1,1,1.894-1.332,14.093,14.093,0,0,1,2.6,5.963,12.491,12.491,0,0,1,.233,2.631" transform="translate(-29.721 -15.722)"/>
        <path id="Trazado_160730" data-name="Trazado 160730" d="M64.175,33.785a1.132,1.132,0,0,1-1.152-1.121,1.169,1.169,0,0,1,1.156-1.191,1.182,1.182,0,0,1,1.157,1.138,1.143,1.143,0,0,1-1.161,1.174" transform="translate(-27.322 -13.644)" fill="#010100"/>
        <path id="Trazado_160731" data-name="Trazado 160731" d="M93.251,58.675a1.227,1.227,0,0,1,1.246.737,19.481,19.481,0,0,1,2.24,6.752c.062.462.235.524.634.53a28.39,28.39,0,0,1,5.263.218,11.485,11.485,0,0,1,9.056,9.579c.013.091.018.177.121.212v1.492a1.041,1.041,0,0,0,0,.814v.407a4.211,4.211,0,0,0-.323,1.276,11.2,11.2,0,0,1-10.7,8.57c-9.143.079-18.286.025-27.428.032a1.228,1.228,0,0,1-1.166-.659c-.206-1.2.1-1.544,1.412-1.546q9.559-.012,19.118,0c2.531,0,5.063.039,7.593-.01a9.061,9.061,0,0,0,5.015-16.71,9.557,9.557,0,0,0-5.142-1.464c-1.288-.005-2.576.009-3.865,0-1.176-.013-1.539-.39-1.668-1.57A18.6,18.6,0,0,0,92.717,60.8c-.072-.141-.158-.275-.225-.418a1.09,1.09,0,0,1,.759-1.705" transform="translate(-31.271 -25.435)"/>
        <path id="Trazado_160732" data-name="Trazado 160732" d="M23.342,61.377a1.062,1.062,0,0,1-.2-1.558,14.28,14.28,0,0,1,13.433-6.886.78.78,0,0,0,.882-.478A19.928,19.928,0,0,1,52.38,41.661c.265-.045.589.041.795-.232h.678c.075.083.176.066.271.07s.2.014.271-.07h2.17a.176.176,0,0,0,.271,0h.407c.913.175,1.832.326,2.739.53a19.743,19.743,0,0,1,9.3,4.974c.575.538.595.912.129,1.665a1.14,1.14,0,0,1-1.677-.08c-.625-.518-1.215-1.079-1.883-1.547a17.6,17.6,0,0,0-8.856-3.249,15.879,15.879,0,0,0-6.1.508,17.745,17.745,0,0,0-11.018,8.384c-.348.582-.621,1.2-.929,1.806a1.308,1.308,0,0,1-1.625.8,2.616,2.616,0,0,0-.528-.048,12.043,12.043,0,0,0-11.5,5.415,4.081,4.081,0,0,1-.574.749.971.971,0,0,1-1.375.039" transform="translate(-9.924 -17.96)"/>
        <path id="Trazado_160733" data-name="Trazado 160733" d="M19.737,82.746c.062-.7.083-1.424.968-1.638.874-.1,1.295.274,1.293,1.176,0,.7-.163,1.385-.162,2.09A12.567,12.567,0,0,0,32.067,96.586a19.944,19.944,0,0,0,3.508.233c3.522,0,7.044-.023,10.566.008.73.245.926.5.871,1.122-.26.865-.5,1.058-1.39,1.058-3.818,0-7.636.023-11.454,0a14.71,14.71,0,0,1-14.4-12.447c-.024-.141.054-.33-.152-.406V84.117c.143-.231.037-.486.07-.727a1.8,1.8,0,0,1,.05-.644" transform="translate(-8.504 -35.155)"/>
        <path id="Trazado_160734" data-name="Trazado 160734" d="M77.808,41.543c-.109.012-.223.035-.263-.114h.271c.046.029.06.056.042.079a.068.068,0,0,1-.051.035" transform="translate(-33.617 -17.96)" fill="#616161"/>
        <path id="Trazado_160735" data-name="Trazado 160735" d="M78.009,41.543q.007-.057.008-.114h.271a.222.222,0,0,1-.28.114" transform="translate(-33.818 -17.96)" fill="#444"/>
        <path id="Trazado_160736" data-name="Trazado 160736" d="M82.6,41.429c-.091.179-.181.142-.272,0Z" transform="translate(-35.692 -17.96)" fill="#525252"/>
        <path id="Trazado_160737" data-name="Trazado 160737" d="M52.857,82.352a1.231,1.231,0,0,0-.822-.975,2.13,2.13,0,0,0-.738-.042q-4.74-.005-9.481,0a2.793,2.793,0,0,1-1.369-.3A13.011,13.011,0,0,1,33.212,70.7c-.654-5.721,1.541-10.275,6.435-13.439a4.75,4.75,0,0,1,1.544-.66,2.344,2.344,0,0,1,.534.025,1.178,1.178,0,0,0,1.537-.714,4.751,4.751,0,0,1,2.467-.566,10.514,10.514,0,0,1,2.63.066c.5.1.674-.247.845-.6A19.255,19.255,0,0,1,53.091,49.4a18.857,18.857,0,0,1,6.168-4.07,4.489,4.489,0,0,1,2.2-.15,17.276,17.276,0,0,1,10.581,4.6c.546.491,1.062.845,1.793.416a10.313,10.313,0,0,1,1.828,2.163c.177.245.323.479.67.438-.838.505-.981.9-.539,1.715a18.169,18.169,0,0,1,2.159,7.27c.059.738.432,1.038,1.215,1.059,1.873.048,3.751-.12,5.621.1A9.388,9.388,0,0,1,92.854,72.2a9.249,9.249,0,0,1-8.147,9.081,16.033,16.033,0,0,1-1.689.091q-13.219.008-26.439,0c-1.074,0-1.394.342-1.309,1.377a.614.614,0,0,0-.663-.414c-.581.04-1.166.011-1.749.011" transform="translate(-14.349 -19.558)" fill="#ebf5fd"/>
        <path id="Trazado_160738" data-name="Trazado 160738" d="M47.143,131.127a4.888,4.888,0,0,1-4.731-6.113,14.99,14.99,0,0,1,3.135-5.467,10.66,10.66,0,0,1,.845-.968.933.933,0,0,1,1.441-.06c1.809,1.967,3.5,4.037,4.105,6.723a4.85,4.85,0,0,1-4.8,5.885" transform="translate(-18.317 -51.244)"/>
        <path id="Trazado_160739" data-name="Trazado 160739" d="M82.039,126.24a4.761,4.761,0,0,1-2.841,4.407,4.614,4.614,0,0,1-5.14-.628,4.567,4.567,0,0,1-1.682-4.951,15.7,15.7,0,0,1,4.041-6.541.889.889,0,0,1,1.388-.02A16.179,16.179,0,0,1,81.9,125.1a4.429,4.429,0,0,1,.143,1.143" transform="translate(-31.302 -51.234)"/>
        <path id="Trazado_160740" data-name="Trazado 160740" d="M107.123,131.121a4.884,4.884,0,0,1-4.706-6.286,16.429,16.429,0,0,1,3.973-6.286.916.916,0,0,1,1.441-.011,15.94,15.94,0,0,1,4.025,6.478,4.871,4.871,0,0,1-4.732,6.106" transform="translate(-44.309 -51.238)"/>
        <path id="Trazado_160741" data-name="Trazado 160741" d="M36.179,65.335a15.446,15.446,0,0,0-4.43,3.266,12.975,12.975,0,0,0-3.3,6.821A13.395,13.395,0,0,0,36.1,89.892a1.788,1.788,0,0,0,.8.1q4.708,0,9.417,0c.24,0,.5-.082.713.112-4.023,0-8.046.032-12.068-.006A12.648,12.648,0,0,1,22.5,76.919c.019-.428.091-.853.137-1.28.1-.949-.156-1.278-1.1-1.394a.909.909,0,0,0,.556-.665c.172-.637.435-1.249.661-1.872.9.252,1.083.156,1.653-.683a12.309,12.309,0,0,1,11.506-5.74,1.957,1.957,0,0,1,.265.05" transform="translate(-9.337 -28.292)" fill="#daeafa"/>
        <path id="Trazado_160742" data-name="Trazado 160742" d="M69.234,45.12c-2.559-.09-4.457,1.4-6.368,2.76a17.941,17.941,0,0,0-5.723,6.971c-.294.61-.585.736-1.289.65a11.431,11.431,0,0,0-4.484.3,2.946,2.946,0,0,1-.333.053A17.786,17.786,0,0,1,63.809,45.421a14.127,14.127,0,0,1,5.425-.3" transform="translate(-22.125 -19.499)" fill="#daeafa"/>
        <path id="Trazado_160743" data-name="Trazado 160743" d="M50.682,124.691a10.112,10.112,0,0,1,1.958,3.642,2.82,2.82,0,0,1-2.752,3.531,3.5,3.5,0,0,1-1.312-3.679,9.514,9.514,0,0,1,1.436-3.1c.156-.221.281-.547.67-.394" transform="translate(-21.014 -54.038)" fill="#8bc9fb"/>
        <path id="Trazado_160744" data-name="Trazado 160744" d="M49.539,123.9c-.407.061-.478.447-.663.71a7.756,7.756,0,0,0-1.283,2.889,3.817,3.817,0,0,0,1.152,3.574,2.834,2.834,0,0,1-2.764-3.752,14.075,14.075,0,0,1,2.708-4.5,5.263,5.263,0,0,1,.85,1.078" transform="translate(-19.872 -53.243)" fill="#64b7fb"/>
        <path id="Trazado_160745" data-name="Trazado 160745" d="M80.666,124.672a10.011,10.011,0,0,1,1.956,3.584,2.827,2.827,0,0,1-2.771,3.59,3.191,3.191,0,0,1-1.358-3.058,7.848,7.848,0,0,1,1.66-3.946c.116-.172.276-.312.513-.171" transform="translate(-34.025 -54.022)" fill="#8bc9fb"/>
        <path id="Trazado_160746" data-name="Trazado 160746" d="M79.5,123.943c-.676.281-.832.981-1.126,1.523-1.14,2.1-1.365,3.662.311,5.651a2.819,2.819,0,0,1-2.809-3.461,12.357,12.357,0,0,1,2.631-4.6c.144-.184.245-.148.362.016.208.292.42.581.631.871" transform="translate(-32.859 -53.293)" fill="#64b7fb"/>
        <path id="Trazado_160747" data-name="Trazado 160747" d="M110.511,124.417a10.243,10.243,0,0,1,2.074,3.662,2.824,2.824,0,0,1-2.774,3.681,2.9,2.9,0,0,1-1.318-2.587,6.9,6.9,0,0,1,2.017-4.757" transform="translate(-47.034 -53.936)" fill="#8bc9fb"/>
        <path id="Trazado_160748" data-name="Trazado 160748" d="M109.338,123.693c-.377.664-.764,1.324-1.13,2a4.282,4.282,0,0,0,.431,5.348,2.816,2.816,0,0,1-2.755-3.537,13.452,13.452,0,0,1,2.791-4.752l.663.946" transform="translate(-45.86 -53.212)" fill="#64b7fb"/>
      </g>
    </g>
  </g>
</svg>
