<svg xmlns="http://www.w3.org/2000/svg" xmlns:xlink="http://www.w3.org/1999/xlink" width="105" height="105" viewBox="0 0 105 105">
  <defs>
    <clipPath id="clip-path">
      <rect id="Rectángulo_42489" data-name="Rectángulo 42489" width="68.955" height="61.592" fill="none"/>
    </clipPath>
  </defs>
  <g id="_44" data-name="44" transform="translate(5626 6084)">
    <circle id="Elipse_4920" data-name="Elipse 4920" cx="52.5" cy="52.5" r="52.5" transform="translate(-5626 -6084)" fill="#a6bbff"/>
    <g id="Grupo_169292" data-name="Grupo 169292" transform="translate(-5608 -6062)">
      <g id="Grupo_169291" data-name="Grupo 169291" transform="translate(0 0)" clip-path="url(#clip-path)">
        <path id="Trazado_160940" data-name="Trazado 160940" d="M0,29.124a13.29,13.29,0,0,1,7.678-3.908c3.352-.481,6.488.4,9.571,1.569,3.032,1.15,5.927,2.628,8.975,3.739A17.654,17.654,0,0,0,33.5,31.846a11.438,11.438,0,0,0,6.533-2.7c.175-.141.339-.3.522-.424a.979.979,0,0,1,1.388.113,1.008,1.008,0,0,1-.122,1.443A13.822,13.822,0,0,1,35.015,33.7a18.247,18.247,0,0,1-9.536-1.3c-3.172-1.163-6.185-2.706-9.353-3.879a19.353,19.353,0,0,0-6.462-1.411,11.423,11.423,0,0,0-7.736,2.933c-.826.7-1.311.63-1.929-.245Z" transform="translate(0 -6.417)"/>
        <path id="Trazado_160941" data-name="Trazado 160941" d="M0,43.518a19.763,19.763,0,0,1,3.582-2.968c.629-.406,1.179-.345,1.532.157a1.041,1.041,0,0,1-.433,1.532,19.991,19.991,0,0,0-2.622,2.076c-.855.807-1.25.807-2.058.011Z" transform="translate(0 -10.306)"/>
        <path id="Trazado_160942" data-name="Trazado 160942" d="M41.749,63.526a11.773,11.773,0,0,1,.586-3.828.717.717,0,0,0-.223-.874c-.744-.715-1.47-1.45-2.195-2.186-.554-.562-.589-1.143-.118-1.586.449-.422,1-.373,1.539.159.737.725,1.47,1.451,2.185,2.2a.731.731,0,0,0,.871.227A12.176,12.176,0,0,1,60.16,67.427a12.026,12.026,0,0,1-.514,5.772,2.7,2.7,0,0,1-1.8,1.764,12.222,12.222,0,0,1-15.406-7.539,12.574,12.574,0,0,1-.692-3.9" transform="translate(-10.099 -14.012)"/>
        <path id="Trazado_160943" data-name="Trazado 160943" d="M75.663,1.561C75.688.68,75.929.387,76.755.23a12.367,12.367,0,0,1,6.235.387,2.751,2.751,0,0,1,1.873,1.851A12.188,12.188,0,0,1,74.91,18.427a11.9,11.9,0,0,1-5.309-.461.718.718,0,0,0-.87.221c-.714.744-1.448,1.47-2.186,2.192-.559.548-1.15.586-1.588.125-.422-.444-.374-1.006.154-1.544.707-.72,1.411-1.444,2.146-2.135a.816.816,0,0,0,.261-.982,12.186,12.186,0,0,1,4.07-13.218c.718-.569,1.043-.562,1.762.043.388.554.345.931-.174,1.457a22.2,22.2,0,0,0-1.686,1.632,9.909,9.909,0,0,0-2.22,7.965c.025.167,0,.4.2.46.17.053.267-.135.374-.241Q75.41,8.381,80.97,2.817a.534.534,0,0,0,.207-.41,9.7,9.7,0,0,0-2.568-.217,16.985,16.985,0,0,1-1.868.207.946.946,0,0,1-1.078-.836" transform="translate(-16.546 0)"/>
        <path id="Trazado_160944" data-name="Trazado 160944" d="M40.839,47.734a24.973,24.973,0,0,1-11.675-3.269,58.313,58.313,0,0,0-8.276-3.977,16.361,16.361,0,0,0-9.37-.87.983.983,0,0,1-1.266-.786,1.009,1.009,0,0,1,.892-1.2,16.975,16.975,0,0,1,8.444.335,47.649,47.649,0,0,1,10.269,4.583,24.531,24.531,0,0,0,8.97,3.047,16.882,16.882,0,0,0,11.808-3.131,24.5,24.5,0,0,0,3.311-2.745c.112-.11.22-.225.339-.327a1.018,1.018,0,0,1,1.448-.016.975.975,0,0,1-.031,1.443c-4.136,4.136-8.915,6.89-14.865,6.915" transform="translate(-2.618 -9.528)"/>
        <path id="Trazado_160945" data-name="Trazado 160945" d="M12.609,45.345a19.1,19.1,0,0,1,8.127,2.321.942.942,0,0,1,.414,1.323.971.971,0,0,1-1.375.429,29.647,29.647,0,0,0-4.059-1.576,10.5,10.5,0,0,0-11.346,3.7,5.441,5.441,0,0,0-1,5.307A4.048,4.048,0,0,0,9.154,58.9,2.715,2.715,0,0,0,10.372,56a2.046,2.046,0,0,0-2.8-1.38c-.755.333-1.27.216-1.555-.356s-.03-1.153.72-1.491a3.9,3.9,0,0,1,4.012.424,3.826,3.826,0,0,1,1.69,3.728c-.344,3.533-4.038,5.526-7.532,4.1a6.383,6.383,0,0,1-3.477-8.224,10.884,10.884,0,0,1,5.526-5.968,11.275,11.275,0,0,1,5.65-1.493" transform="translate(-0.262 -11.601)"/>
        <path id="Trazado_160946" data-name="Trazado 160946" d="M40.879,19.272a16.669,16.669,0,0,1-6.7-1.485c-.516-.214-1.024-.448-1.529-.689-.728-.349-.972-.857-.705-1.429s.822-.732,1.539-.4a24.685,24.685,0,0,0,4.655,1.7,10.542,10.542,0,0,0,10.814-4.184,5.259,5.259,0,0,0,.814-4.906,4.032,4.032,0,0,0-5.362-2.4,2.764,2.764,0,0,0-1.7,2.975,2.031,2.031,0,0,0,2.919,1.508,1,1,0,0,1,1.476.411,1.024,1.024,0,0,1-.622,1.418,3.837,3.837,0,0,1-4.072-.342,3.827,3.827,0,0,1-1.726-3.838c.4-3.4,3.889-5.349,7.293-4.112a6.421,6.421,0,0,1,3.586,8.651c-1.184,2.966-3.518,4.792-6.324,6.089a11.015,11.015,0,0,1-4.352,1.033" transform="translate(-8.146 -0.799)"/>
        <path id="Trazado_160947" data-name="Trazado 160947" d="M77.149,2.1c.349.726.942.781,1.643.636a9.5,9.5,0,0,1,4.247.117c.062.258-.143.336-.254.447q-5.746,5.758-11.5,11.5c-.133.133-.243.394-.462.318s-.153-.353-.182-.539a10.012,10.012,0,0,1,3.621-9.766c.535-.452.852-.906.579-1.612A8.172,8.172,0,0,1,77.149,2.1" transform="translate(-18.032 -0.537)" fill="#70c5da"/>
        <path id="Trazado_160948" data-name="Trazado 160948" d="M48.009,60.819A10.1,10.1,0,0,1,60.186,72.994L48.009,60.819" transform="translate(-12.283 -15.483)" fill="#70c5da"/>
        <path id="Trazado_160949" data-name="Trazado 160949" d="M47.674,65.067l8.646,8.6,2.128,2.119c-.217.243-.447.194-.662.207a9.7,9.7,0,0,1-5.937-2.163,11.1,11.1,0,0,1-4.464-7.892c-.038-.3-.231-.727.289-.876" transform="translate(-12.106 -16.647)" fill="#70c5da"/>
        <path id="Trazado_160950" data-name="Trazado 160950" d="M47.155,64.517c-.263.236-.169.553-.135.821A11.3,11.3,0,0,0,50.5,72.38,11.161,11.161,0,0,0,56.616,75.3c.22.033.434.1.651.145a9.487,9.487,0,0,1-7.977-1.879c-3.447-2.686-4.555-6.282-3.748-10.65l1.613,1.6" transform="translate(-11.587 -16.097)" fill="#64afca"/>
        <path id="Trazado_160951" data-name="Trazado 160951" d="M74.935,15.985Q80.263,10.64,85.592,5.3a.927.927,0,0,1,.2-.109c.022.172.041.324.06.476a8.213,8.213,0,0,1-1.47,5.136,11.162,11.162,0,0,1-8.457,5.426c-.33.042-.761.236-.991-.243" transform="translate(-19.172 -1.327)" fill="#70c5da"/>
        <path id="Trazado_160952" data-name="Trazado 160952" d="M74.406,16.148a5.16,5.16,0,0,0,3.121-.4,10.929,10.929,0,0,0,7.645-8.925c.058-.328.1-.659.152-.989a9.7,9.7,0,0,1-1.762,8.07,10.1,10.1,0,0,1-10.7,3.766l1.54-1.517" transform="translate(-18.642 -1.491)" fill="#64afca"/>
      </g>
    </g>
  </g>
</svg>
