<svg xmlns="http://www.w3.org/2000/svg" xmlns:xlink="http://www.w3.org/1999/xlink" width="105" height="105" viewBox="0 0 105 105">
  <defs>
    <clipPath id="clip-path">
      <rect id="Rectángulo_42492" data-name="Rectángulo 42492" width="61.888" height="75.415" fill="none"/>
    </clipPath>
  </defs>
  <g id="_45" data-name="45" transform="translate(5302 6084)">
    <circle id="Elipse_4921" data-name="Elipse 4921" cx="52.5" cy="52.5" r="52.5" transform="translate(-5302 -6084)" fill="#a6bbff"/>
    <g id="Grupo_169301" data-name="Grupo 169301" transform="translate(-5280 -6069)">
      <g id="Grupo_169300" data-name="Grupo 169300" clip-path="url(#clip-path)">
        <path id="Trazado_160981" data-name="Trazado 160981" d="M14.283,10.3a1.526,1.526,0,0,1,1.94-1.384,6.694,6.694,0,0,1,1.521.242c.779.3,1.073-.05,1.457-.673A17.315,17.315,0,0,1,31.906.148c.135-.021.3.04.372-.149h3.536c.944.194,1.907.322,2.829.592C45.566,2.617,49.8,7.19,51.4,14.206c.1.46.235.623.713.705a11.781,11.781,0,0,1,.056,23.21,12.28,12.28,0,0,1-2.123.183q-17.6-.009-35.191-.008A14.7,14.7,0,0,1,.211,25.931,14.3,14.3,0,0,1,2.736,15.05a1.517,1.517,0,0,1,2.154-.618,1.308,1.308,0,0,1,.787,1.661,3.073,3.073,0,0,1-.456.919A11.52,11.52,0,0,0,6.435,31.636a10.75,10.75,0,0,0,7.877,3.49c12.025.06,24.05.081,36.074-.01a8.029,8.029,0,0,0,7.629-5.232,8.159,8.159,0,0,0-1.572-9.17,8.44,8.44,0,0,0-6.032-2.839c-1.181-.074-1.7-.492-1.875-1.671a14.97,14.97,0,0,0-1.554-5.189C44.06,5.767,39.586,2.96,33.571,3.2c-5.461.22-9.551,2.951-12.164,7.8-.152.28-.275.576-.445.847a1.69,1.69,0,0,1-2.123.861,32.406,32.406,0,0,0-3.372-.757A1.292,1.292,0,0,1,14.283,10.3" transform="translate(0 0)"/>
        <path id="Trazado_160982" data-name="Trazado 160982" d="M16.452,12.452c.161,1.011.512,1.379,1.487,1.513a15.1,15.1,0,0,1,2.866.626c1.194.41,1.753.166,2.3-.982A14.4,14.4,0,0,1,31.923,5.8a14.6,14.6,0,0,1,18.9,12.063c.182,1.586.485,1.876,2.057,1.974a8.839,8.839,0,0,1,.873,17.534,10.411,10.411,0,0,1-1.684.132q-17.487,0-34.973,0A11.767,11.767,0,0,1,5.155,25.063,11.443,11.443,0,0,1,7.3,18.9a1.508,1.508,0,0,0-.245-2.323c.564-.08.814-.594,1.184-.917.578-.5,1.336-.789,1.771-1.46.23-.009.336.176.466.312a1.164,1.164,0,0,0,1.331.328,1.276,1.276,0,0,0,.858-1.164c.017-.212-.065-.444.116-.625a20.489,20.489,0,0,1,3.666-.6" transform="translate(-2.169 -2.148)" fill="#fff"/>
        <path id="Trazado_160983" data-name="Trazado 160983" d="M62.891,104.954c2.7,0,5.4-.032,8.1.008a7.357,7.357,0,0,1,2.065,14.376,7.013,7.013,0,0,1-1.875.334c-1.052.033-1.763-.512-1.815-1.392s.615-1.473,1.672-1.552a4.263,4.263,0,0,0,3.807-2.587,4.189,4.189,0,0,0-.509-4.5A4.31,4.31,0,0,0,70.7,107.9q-7.95,0-15.9,0a2.5,2.5,0,0,1-.873-.078,1.447,1.447,0,0,1-.983-1.612,1.406,1.406,0,0,1,1.412-1.245c1.4-.026,2.8-.009,4.2-.01h4.343Z" transform="translate(-22.32 -44.257)"/>
        <path id="Trazado_160984" data-name="Trazado 160984" d="M11.414,87.6c-3.263,0-6.526.006-9.789,0a1.475,1.475,0,1,1,0-2.942c.2-.005.392,0,.589,0q9.273,0,18.547,0a3.37,3.37,0,0,0,.274-6.735c-1.14-.124-1.728-.727-1.615-1.649s.863-1.392,1.972-1.272a6.313,6.313,0,0,1-.628,12.6c-3.116.017-6.231,0-9.347,0" transform="translate(-0.014 -31.619)"/>
        <path id="Trazado_160985" data-name="Trazado 160985" d="M85.479,80.922c-1.571,0-3.142,0-4.713,0-1.087,0-1.746-.548-1.76-1.442s.683-1.5,1.793-1.5c2.994,0,5.989,0,8.983,0a2.23,2.23,0,0,0,2.475-2.067,2.258,2.258,0,0,0-2.234-2.334,1.475,1.475,0,0,1-1.432-1.546,1.517,1.517,0,0,1,1.684-1.38,5.135,5.135,0,0,1-.084,10.265c-1.571.027-3.142.005-4.713.005Z" transform="translate(-33.32 -29.794)"/>
        <path id="Trazado_160986" data-name="Trazado 160986" d="M21.4,107.9c-1.4,0-2.794.006-4.19,0-1.03-.006-1.658-.559-1.669-1.449-.012-.922.625-1.492,1.7-1.494q4.153-.007,8.307,0c1.033,0,1.658.556,1.669,1.448.011.923-.625,1.49-1.7,1.494-1.372.006-2.744,0-4.117,0" transform="translate(-6.552 -44.262)"/>
        <path id="Trazado_160987" data-name="Trazado 160987" d="M58.558,86.259c-.76,0-1.52.013-2.28,0a1.467,1.467,0,1,1-.047-2.932q2.352-.043,4.707,0a1.467,1.467,0,1,1-.027,2.931c-.784.016-1.569,0-2.353,0" transform="translate(-23.092 -35.131)"/>
        <path id="Trazado_160988" data-name="Trazado 160988" d="M16.315,18.221a1.536,1.536,0,0,1-.566,1.816,1.418,1.418,0,0,1-1.525.068,1.969,1.969,0,0,1-.679-.734c-.128-1.059.128-1.619.874-1.912.71-.278,1.3-.043,1.9.763" transform="translate(-5.699 -7.316)" fill="#010101"/>
      </g>
    </g>
  </g>
</svg>
