<svg xmlns="http://www.w3.org/2000/svg" xmlns:xlink="http://www.w3.org/1999/xlink" width="105" height="105" viewBox="0 0 105 105">
  <defs>
    <clipPath id="clip-path">
      <rect id="Rectángulo_42485" data-name="Rectángulo 42485" width="67.931" height="68.306" fill="none"/>
    </clipPath>
  </defs>
  <g id="_48" data-name="48" transform="translate(4373 6084)">
    <circle id="Elipse_4918" data-name="Elipse 4918" cx="52.5" cy="52.5" r="52.5" transform="translate(-4373 -6084)" fill="#a6bbff"/>
    <g id="Grupo_169281" data-name="Grupo 169281" transform="translate(-4355 -6066)">
      <g id="Grupo_169280" data-name="Grupo 169280" clip-path="url(#clip-path)">
        <path id="Trazado_160749" data-name="Trazado 160749" d="M61.813,65.642c0-1.276-.012-2.552.007-3.827.006-.378-.031-.558-.5-.551-1.868.031-3.737.026-5.6,0-.4-.005-.479.131-.476.5.018,1.822-.006,3.645.019,5.467.006.446-.059.625-.572.618-1.626-.023-1.626,0-1.626-1.6,0-1.458-.018-2.916.01-4.374.009-.452-.068-.624-.575-.614-1.822.035-3.645.025-5.468.005-.392,0-.622.053-.531.505a.342.342,0,0,1,0,.068c-.017,1.819-.016,1.809-1.867,1.632-.288-.027-.331-.133-.324-.374.013-.455-.015-.912.01-1.367.018-.338-.059-.471-.44-.467q-2.836.031-5.673,0c-.426-.006-.465.162-.463.514.015,1.845-.005,3.691.016,5.536.005.406-.076.535-.515.535-1.682,0-1.682.018-1.682-1.682,0-1.412-.025-2.826.013-4.237.014-.523-.11-.7-.658-.668a5.381,5.381,0,0,1-4.7-2.031,5.448,5.448,0,0,1,2.953-8.726.742.742,0,0,0,.621-.587,8.713,8.713,0,0,1,11.629-5.475.546.546,0,0,0,.807-.246A10.92,10.92,0,0,1,66,48.343c.145.638-.042,1.4.244,1.941s1.136.5,1.689.846a5.47,5.47,0,0,1-2.7,10.144C64,61.305,64,61.305,64,62.513c0,2.324-.014,4.648.011,6.971.005.459-.134.554-.566.551-1.633-.009-1.633.007-1.633-1.592v-2.8" transform="translate(-15.772 -21.42)"/>
        <path id="Trazado_160750" data-name="Trazado 160750" d="M117.381,107.867c.84,0,1.565.018,2.287-.008.363-.013.5.059.508.47.022,1.725.039,1.725-1.706,1.725h-1.129c.425.424.747.777,1.1,1.092.274.242.235.394-.006.646-1.2,1.263-1.2,1.271-2.427.032l-.1-.1c-1.772-1.778-1.772-1.779-4.306-1.67-.165.007-.385-.088-.459.167-.066.224.126.321.248.444.884.888,1.763,1.78,2.66,2.655.24.234.286.371.025.648-1.206,1.277-1.2,1.287-2.429.057q-.919-.917-1.838-1.834c-.125-.125-.235-.3-.456-.2-.2.087-.127.272-.129.419-.007.774.013,1.549-.011,2.323a.809.809,0,0,0,.31.639c.777.769,1.537,1.556,2.329,2.309.283.27.29.439,0,.694-.412.357-.76,1.012-1.19,1.061-.453.051-.776-.672-1.186-1.024-.049-.042-.1-.082-.249-.2,0,.816-.018,1.552.008,2.286.013.366-.065.5-.473.506-1.723.022-1.723.038-1.723-1.708v-1.115c-.4.4-.743.705-1.047,1.043-.237.262-.413.368-.691.036-.361-.431-1.029-.8-1.071-1.243-.034-.357.665-.783,1.04-1.178a.3.3,0,0,1,.049-.048,3.909,3.909,0,0,0,1.718-4.219c-.036-.2.137-.485-.172-.59-.25-.085-.355.161-.49.3-.875.864-1.748,1.73-2.606,2.612-.236.242-.374.275-.646.016-1.27-1.209-1.28-1.2-.052-2.427l1.835-1.837c.126-.126.3-.238.2-.457-.089-.194-.275-.123-.421-.125-.774-.007-1.55.013-2.324-.011a.809.809,0,0,0-.639.313c-.754.759-1.523,1.506-2.263,2.278-.263.274-.44.4-.741.036-.345-.42-1.015-.764-1.059-1.19-.046-.447.675-.776,1.029-1.186.042-.048.08-.1.194-.244-.837,0-1.6-.014-2.356.007-.316.008-.416-.07-.43-.408-.073-1.786-.084-1.786,1.712-1.786h1.124c-.425-.425-.748-.78-1.105-1.1-.273-.242-.234-.393.007-.645,1.2-1.257,1.195-1.264,2.427-.032l.1.1c1.781,1.781,1.781,1.782,4.3,1.673.165-.007.385.086.459-.168.065-.224-.124-.322-.247-.445-.884-.888-1.763-1.78-2.659-2.655-.238-.232-.287-.367-.024-.645,1.213-1.275,1.2-1.285,2.429-.057q.918.918,1.838,1.834c.125.125.234.3.455.2.2-.088.125-.274.126-.42.007-.774-.012-1.549.011-2.323a.811.811,0,0,0-.31-.64c-.776-.77-1.536-1.556-2.328-2.309-.284-.27-.288-.438.005-.692.412-.357.761-1.013,1.19-1.061.453-.051.777.671,1.186,1.024.049.042.1.082.248.2,0-.839.013-1.6-.007-2.355-.008-.314.066-.418.406-.432,1.788-.073,1.788-.085,1.788,1.71v1.121c.44-.437.807-.78,1.146-1.147.2-.222.329-.192.547,0,1.353,1.206,1.359,1.2.081,2.477l-.1.1c-1.78,1.78-1.782,1.78-1.674,4.3.007.165-.087.385.166.46.223.066.322-.123.445-.246.889-.884,1.781-1.762,2.655-2.659.234-.24.37-.286.647-.027,1.286,1.2,1.3,1.193.059,2.43q-.918.918-1.834,1.838c-.125.125-.3.233-.206.454.086.2.272.128.418.13.774.007,1.549-.012,2.324.011a.81.81,0,0,0,.641-.307c.769-.777,1.556-1.537,2.31-2.328.265-.278.436-.3.694,0,.356.413,1.009.76,1.061,1.192.055.457-.67.776-1.02,1.186-.043.05-.085.1-.21.252" transform="translate(-52.25 -52.7)"/>
        <path id="Trazado_160751" data-name="Trazado 160751" d="M15.741,109.064c1.251,2.528,2.56,4.943,3.66,7.45a6.349,6.349,0,0,1-5.731,8.829c-2.368.047-4.737.04-7.106,0a6.38,6.38,0,0,1-5.7-9.135c1.129-2.378,2.342-4.716,3.552-7.142l3.17,4.209,2.488-4.333,2.489,4.331,3.178-4.212" transform="translate(-0.127 -59.252)"/>
        <path id="Trazado_160752" data-name="Trazado 160752" d="M115.328,14.364a13.755,13.755,0,0,1,1.53-5.374A39.033,39.033,0,0,1,122.7.228c.155-.179.257-.37.507-.071,3.037,3.628,5.795,7.43,7.075,12.072a7.68,7.68,0,1,1-14.957,2.136" transform="translate(-62.724 0)"/>
        <path id="Trazado_160753" data-name="Trazado 160753" d="M25.555,20.955a5.467,5.467,0,1,1-5.437-5.5,5.481,5.481,0,0,1,5.437,5.5" transform="translate(-7.952 -8.408)"/>
        <path id="Trazado_160754" data-name="Trazado 160754" d="M63.907,5.876a30.963,30.963,0,0,1,15.156,4.572c.452.27.554.477.213.9-.312.386-.506,1.064-.869,1.156s-.849-.405-1.284-.643A29.168,29.168,0,0,0,53.908,9.4c-.658.2-.873.059-1.06-.573-.394-1.33-.434-1.324.837-1.685A34.865,34.865,0,0,1,63.907,5.876" transform="translate(-28.61 -3.196)"/>
        <path id="Trazado_160755" data-name="Trazado 160755" d="M59.293,139.583a31.632,31.632,0,0,1-11.467-2.335c-.366-.147-.512-.273-.3-.667.257-.476.338-1.177.722-1.416.367-.228.933.281,1.416.45a29.456,29.456,0,0,0,21.248-.395c.35-.139.517-.154.7.262.688,1.6.709,1.593-.932,2.187a32.652,32.652,0,0,1-11.385,1.914" transform="translate(-25.795 -73.481)"/>
        <path id="Trazado_160756" data-name="Trazado 160756" d="M5.029,62.522a31.132,31.132,0,0,1,1.476-8.769c.142-.446.267-.668.776-.42.444.217,1.113.216,1.349.548.255.359-.182.918-.309,1.391A29.4,29.4,0,0,0,9.384,74.4c.178.442.092.607-.334.788-1.527.646-1.52.663-2.075-.867a33.369,33.369,0,0,1-1.946-11.8" transform="translate(-2.735 -28.951)"/>
        <path id="Trazado_160757" data-name="Trazado 160757" d="M138.768,63.1a32.832,32.832,0,0,1-2.33,12.351c-.177.443-.359.463-.728.273-.462-.238-1.152-.317-1.36-.684-.219-.385.276-.937.447-1.42a29.47,29.47,0,0,0,.4-19.023c-.146-.468-.115-.656.388-.816,1.547-.489,1.527-.508,1.979,1.068a31.46,31.46,0,0,1,1.2,8.25" transform="translate(-73.039 -29.091)"/>
        <path id="Trazado_160758" data-name="Trazado 160758" d="M62.561,104.544c0-2.346.012-4.692-.011-7.038,0-.445.111-.563.558-.56,1.64.01,1.64-.008,1.64,1.653,0,4.351-.01,8.7.013,13.052,0,.509-.115.641-.629.631-1.571-.031-1.572-.007-1.572-1.588v-6.15" transform="translate(-34.019 -52.726)"/>
        <path id="Trazado_160759" data-name="Trazado 160759" d="M9.536,11.988c-1.02-1.029-1.924-1.962-2.853-2.867-.26-.253-.24-.4.013-.625.424-.377.812-1.08,1.232-1.093.4-.013.82.683,1.222,1.076.521.509,1.015,1.049,1.555,1.536.3.27.26.423-.009.683-.408.394-.763.841-1.162,1.29" transform="translate(-3.534 -4.026)" fill="#010101"/>
        <path id="Trazado_160760" data-name="Trazado 160760" d="M39.93,7.16c.54.522,1.338.949,1.458,1.519.1.455-.808.92-1.246,1.4-.153.168-.321.323-.482.484-1.295,1.3-1.289,1.29-2.51-.079-.2-.221-.2-.326.012-.532.94-.927,1.861-1.873,2.768-2.793" transform="translate(-20.125 -3.894)" fill="#010101"/>
        <path id="Trazado_160761" data-name="Trazado 160761" d="M6.122,40.845C7.125,39.857,8.071,38.936,9,38c.2-.206.309-.214.533-.015,1.373,1.225,1.379,1.217.083,2.512-.532.531-1.072,1.054-1.588,1.6-.218.231-.357.244-.584.007-.409-.426-.854-.816-1.322-1.258" transform="translate(-3.33 -20.579)" fill="#010101"/>
        <path id="Trazado_160762" data-name="Trazado 160762" d="M36.6,39.224c.478-.433.951-.827,1.382-1.263.234-.236.35-.146.534.041.83.845,1.662,1.689,2.516,2.508.271.26.222.411-.026.633-.423.378-.788,1.034-1.242,1.1-.336.046-.777-.665-1.165-1.045-.635-.621-1.265-1.246-2-1.969" transform="translate(-19.906 -20.569)" fill="#010101"/>
        <path id="Trazado_160763" data-name="Trazado 160763" d="M24.2,3.17c0-.592.017-1.185-.007-1.776-.012-.309.1-.365.389-.38C26.387.92,26.387.913,26.387,2.7c0,.751-.021,1.5.009,2.254.015.37-.113.442-.459.449C24.2,5.441,24.2,5.452,24.2,3.716V3.17" transform="translate(-13.157 -0.534)"/>
        <path id="Trazado_160764" data-name="Trazado 160764" d="M2.234,27.224H1.688c-1.723,0-1.834-.142-1.591-1.9.035-.254.135-.286.342-.285,1.23.005,2.459.014,3.689-.005.331-.005.346.146.359.408.084,1.787.089,1.787-1.705,1.787Z" transform="translate(0 -13.613)"/>
        <path id="Trazado_160765" data-name="Trazado 160765" d="M45.575,25.037c.569,0,1.139.017,1.708-.006.338-.014.459.063.468.44.04,1.754.055,1.754-1.676,1.754-.751,0-1.5-.015-2.254.007-.338.01-.459-.063-.468-.44-.041-1.754-.055-1.754,1.676-1.754h.546" transform="translate(-23.573 -13.612)"/>
        <path id="Trazado_160766" data-name="Trazado 160766" d="M26.39,46.376v.546c0,1.807,0,1.8-1.844,1.651-.259-.021-.352-.079-.349-.348q.018-1.844,0-3.689c0-.263.075-.384.345-.345a.381.381,0,0,0,.068,0C26.39,44.1,26.39,44.1,26.39,45.9Z" transform="translate(-13.16 -24.018)"/>
        <path id="Trazado_160767" data-name="Trazado 160767" d="M43.382,108.66c0-.592.017-1.185-.007-1.776-.012-.309.1-.365.389-.38,1.806-.094,1.805-.1,1.805,1.689,0,.751-.021,1.5.009,2.254.015.37-.113.442-.459.449-1.738.036-1.737.047-1.737-1.689v-.546" transform="translate(-23.59 -57.907)"/>
        <path id="Trazado_160768" data-name="Trazado 160768" d="M81.747,113.455c0-.592.017-1.185-.007-1.776-.012-.309.1-.365.389-.38,1.806-.094,1.805-.1,1.805,1.689,0,.751-.021,1.5.009,2.254.015.37-.113.442-.459.449-1.738.036-1.737.047-1.737-1.689v-.546" transform="translate(-44.456 -60.515)"/>
        <path id="Trazado_160769" data-name="Trazado 160769" d="M52.341,61.707c-5.058,0-10.115.009-15.172,0a3.274,3.274,0,1,1,.1-6.541c.6.017.868-.053.979-.778a6.543,6.543,0,0,1,10.006-4.777c.38.234.76.746,1.14.625.288-.092.413-.7.606-1.083A8.741,8.741,0,0,1,66.543,54c0,.022-.008.045-.011.068-.149,1.085-.149,1.085.944,1.083a3.284,3.284,0,1,1,.038,6.555q-7.586.008-15.172,0" transform="translate(-18.38 -24.037)" fill="#e5e8ec"/>
        <path id="Trazado_160770" data-name="Trazado 160770" d="M122.307,122.056a1.09,1.09,0,1,1-1.06-1.1,1.1,1.1,0,0,1,1.06,1.1" transform="translate(-65.334 -65.783)" fill="#f8d46e"/>
        <path id="Trazado_160771" data-name="Trazado 160771" d="M17.874,118.554c1.051,1.858,2.071,3.55,2.978,5.3a3.1,3.1,0,0,1-.952,3.853,3.314,3.314,0,0,1-4.054,0,3.1,3.1,0,0,1-.95-3.854c.908-1.751,1.928-3.443,2.978-5.3" transform="translate(-7.925 -64.478)" fill="#ec5565"/>
        <path id="Trazado_160772" data-name="Trazado 160772" d="M7.384,118.289c.521.695.971,1.321,1.452,1.923.2.251.05.414-.056.608a17.667,17.667,0,0,0-1.248,2.345,5.323,5.323,0,0,0,.224,4.242c.094.2.282.361.26.613a4.081,4.081,0,0,1-2.792-5.233,45.108,45.108,0,0,1,2.16-4.5" transform="translate(-2.719 -64.334)" fill="#ee7284"/>
        <path id="Trazado_160773" data-name="Trazado 160773" d="M31.017,127.981a5.586,5.586,0,0,0-.34-6.464,1.364,1.364,0,0,1,.124-2.039,10.582,10.582,0,0,0,.91-1.17c.768,1.767,1.917,3.271,2.3,5.11a4.006,4.006,0,0,1-2.994,4.564" transform="translate(-16.469 -64.344)" fill="#ee7284"/>
        <path id="Trazado_160774" data-name="Trazado 160774" d="M131.062,18.77a5.473,5.473,0,1,1-10.854-.966,13.3,13.3,0,0,1,.931-3.123,33.639,33.639,0,0,1,4.16-6.858c.137-.182.242-.49.525-.1,2.109,2.889,4.133,5.822,5.016,9.365a6.533,6.533,0,0,1,.221,1.684" transform="translate(-65.336 -4.097)" fill="#69d5f3"/>
        <path id="Trazado_160775" data-name="Trazado 160775" d="M25.976,23.521a3.279,3.279,0,1,1-3.258-3.265,3.294,3.294,0,0,1,3.258,3.265" transform="translate(-10.561 -11.017)" fill="#fbd670"/>
      </g>
    </g>
  </g>
</svg>
