<svg xmlns="http://www.w3.org/2000/svg" xmlns:xlink="http://www.w3.org/1999/xlink" width="105" height="105" viewBox="0 0 105 105">
  <defs>
    <clipPath id="clip-path">
      <rect id="Rectángulo_42487" data-name="Rectángulo 42487" width="71.555" height="72.219" fill="none"/>
    </clipPath>
  </defs>
  <g id="_51" data-name="51" transform="translate(3407 6552)">
    <circle id="Elipse_4924" data-name="Elipse 4924" cx="52.5" cy="52.5" r="52.5" transform="translate(-3407 -6552)" fill="#a6bbff"/>
    <g id="Grupo_169287" data-name="Grupo 169287" transform="translate(-3390 -6536)">
      <g id="Grupo_169286" data-name="Grupo 169286" clip-path="url(#clip-path)">
        <path id="Trazado_160800" data-name="Trazado 160800" d="M33.8,0V4.627c.975-.975,1.851-1.8,2.665-2.687.394-.428.616-.441,1.022-.008.98,1.044,1,1.021-.03,2.055-1.1,1.1-2.186,2.2-3.3,3.286a1.091,1.091,0,0,0-.353.863c.015,2.233-.007,4.466.019,6.7.006.5-.07.693-.637.678-1.5-.038-1.5-.005-1.5-1.492,0-1.952-.012-3.9.009-5.853a1.232,1.232,0,0,0-.414-.979c-1.295-1.264-2.554-2.565-3.852-3.826-.332-.322-.332-.5,0-.821,1.111-1.09,1.1-1.107,2.207.007.642.647,1.274,1.3,2.046,2.1V0Z" transform="translate(-9.225)"/>
        <path id="Trazado_160801" data-name="Trazado 160801" d="M89.8,28.146q0,10.049-.01,20.1a1.407,1.407,0,0,0,.515,1.141c4.041,3.784,5.468,8.423,3.832,13.692a12.453,12.453,0,0,1-10.82,9.12A13.065,13.065,0,0,1,68.507,59.213a12.808,12.808,0,0,1,4.446-9.824,1.437,1.437,0,0,0,.536-1.2q-.022-19.675-.013-39.35a7.966,7.966,0,0,1,4.81-7.777A8.087,8.087,0,0,1,89.736,7.909c.15,3.473.057,6.956.064,10.435.007,3.268,0,6.534,0,9.8" transform="translate(-23.248 -0.105)"/>
        <path id="Trazado_160802" data-name="Trazado 160802" d="M24.353,35.365c0-1.268.013-2.537-.009-3.8a.7.7,0,0,1,.416-.713q3.328-1.9,6.633-3.83a.7.7,0,0,1,.817,0q3.306,1.931,6.634,3.828a.716.716,0,0,1,.424.715c-.017,2.559-.013,5.119,0,7.679a.66.66,0,0,1-.363.676q-3.388,1.931-6.752,3.905a.608.608,0,0,1-.7,0q-3.366-1.967-6.752-3.9a.652.652,0,0,1-.345-.682c.011-1.292,0-2.583,0-3.875" transform="translate(-8.261 -9.124)"/>
        <path id="Trazado_160803" data-name="Trazado 160803" d="M11.9,87.176c0,1.6,0,1.571-1.466,1.615-.58.017-.732-.176-.664-.7.032-.254-.032-.523.012-.774a1.641,1.641,0,0,0-1.124-2c-.5-.219-.872-.34-1.307.032a2.351,2.351,0,0,1-.365.211c-1.5.863-1.491.859-2.282-.7-.137-.272-.114-.4.157-.538.538-.284,1.043-.635,1.59-.9.4-.194.464-.467.51-.879a1.855,1.855,0,0,0-1.21-2.178c-1.268-.579-1.187-.65-.541-1.893.3-.577.557-.62,1.035-.26.3.223.677.344.961.579.564.468,1.027.309,1.629.005a1.4,1.4,0,0,0,.942-1.687.714.714,0,0,1,0-.141c0-1.728.04-1.753,1.783-1.559.293.032.345.149.341.4-.008.61.026,1.224-.012,1.832a.939.939,0,0,0,.493.887,1.874,1.874,0,0,0,2.553.018c1.1-.774,1.112-.674,1.831.443.367.569.348.884-.3,1.112-.153.053-.278.183-.43.237a1.8,1.8,0,0,0-1.317,2.244c.063.375.091.665.48.824a3.956,3.956,0,0,1,.671.383c.4.267,1.18.426,1.155.784-.038.548-.522,1.064-.811,1.6-.147.272-.307.094-.451.013-.531-.3-1.07-.587-1.577-.923a.73.73,0,0,0-1,0,.427.427,0,0,1-.12.072c-.938.36-1.462.957-1.163,1.854" transform="translate(-1.57 -25.561)"/>
        <path id="Trazado_160804" data-name="Trazado 160804" d="M52.686,99.83c0-.047,0-.094,0-.141-.033-.394.18-.91-.088-1.159a8.064,8.064,0,0,0-1.549-.949c-.2-.114-.355.041-.515.131-.569.326-1.146.64-1.7.986-.26.162-.367.121-.537-.139-.961-1.463-.967-1.45.539-2.337.337-.2.873-.285.953-.654a8.436,8.436,0,0,0,.05-1.821c0-.194-.187-.252-.326-.333-.263-.153-.533-.3-.789-.46-.408-.263-1.183-.427-1.159-.782.036-.547.517-1.064.8-1.6.145-.269.308-.108.456-.024a16.771,16.771,0,0,1,1.453.854c.439.309.768.207,1.257.035,1.222-.431,1.212-1.323,1.168-2.341-.05-1.137-.011-1.139,1.112-1.139a3.954,3.954,0,0,0,.493,0c.385-.049.566.074.518.494a7.573,7.573,0,0,1-.016.842c-.32,1.325.5,1.876,1.51,2.335a.6.6,0,0,0,.634-.084c.564-.335,1.142-.647,1.7-.99.248-.152.368-.13.535.129.96,1.484.967,1.477-.517,2.341-.341.2-.883.3-.965.643a8.737,8.737,0,0,0-.053,1.821c0,.254.219.285.365.374.562.339,1.126.676,1.705.982.266.14.3.25.161.524-.806,1.576-.8,1.576-2.29.722-.342-.195-.692-.612-1.038-.509a8.231,8.231,0,0,0-1.606.851c-.211.119-.128.334-.131.509-.009.587-.04,1.178.008,1.761.041.517-.163.614-.635.61-1.5-.015-1.5,0-1.5-1.481" transform="translate(-16.14 -29.844)"/>
        <path id="Trazado_160805" data-name="Trazado 160805" d="M4.262,21.409C3,20.683,1.881,20.013.735,19.385c-.381-.209-.413-.367-.194-.743.8-1.382.788-1.392,2.171-.6l2.623,1.512c-.355-1.314-.65-2.508-1.007-3.684-.152-.5-.042-.677.463-.8,1.442-.355,1.439-.379,1.831,1.056s.809,2.889,1.161,4.347a1.356,1.356,0,0,0,.739.936c1.936,1.1,3.854,2.234,5.8,3.326.381.214.4.357.19.727-.805,1.389-.789,1.4-2.167.6-1.665-.961-3.336-1.913-4.992-2.89a1.148,1.148,0,0,0-.989-.127c-1.759.5-3.531.947-5.292,1.44-.423.118-.6.029-.713-.406-.4-1.519-.415-1.518,1.08-1.922.9-.243,1.8-.48,2.829-.755" transform="translate(-0.042 -5.046)"/>
        <path id="Trazado_160806" data-name="Trazado 160806" d="M5.288,53.924c-1.255.719-2.421,1.358-3.554,2.053-.366.225-.488.133-.678-.184-.848-1.409-.856-1.4.574-2.229.825-.476,1.649-.955,2.583-1.5C2.86,51.7,1.655,51.342.434,51.055c-.45-.106-.488-.281-.388-.672.392-1.539.382-1.539,1.944-1.117,1.426.384,2.857.749,4.277,1.155a1.311,1.311,0,0,0,1.115-.165c1.921-1.127,3.859-2.226,5.779-3.357.365-.215.545-.225.777.187.782,1.386.8,1.375-.581,2.171-1.646.949-3.283,1.912-4.94,2.842A1.291,1.291,0,0,0,7.743,53c-.434,1.728-.922,3.441-1.369,5.166-.107.412-.187.624-.721.47-1.5-.432-1.51-.4-1.114-1.9.237-.9.48-1.8.749-2.812" transform="translate(0 -15.866)"/>
        <path id="Trazado_160807" data-name="Trazado 160807" d="M58.537,19.515c1.241-.715,2.382-1.354,3.5-2.03.357-.216.519-.213.745.182.8,1.4.817,1.385-.561,2.183-.83.48-1.66.963-2.613,1.517,1.28.348,2.435.709,3.614.963.591.127.666.344.511.874-.4,1.366-.38,1.372-1.8,1-1.473-.389-2.952-.76-4.414-1.184a1.206,1.206,0,0,0-1.05.153c-1.921,1.127-3.864,2.218-5.779,3.355-.431.257-.6.193-.838-.234-.743-1.334-.762-1.322.543-2.073,1.687-.971,3.369-1.951,5.061-2.911a1.153,1.153,0,0,0,.606-.79c.449-1.772.955-3.529,1.4-5.3.115-.456.275-.533.719-.409,1.485.417,1.488.4,1.091,1.893-.235.883-.462,1.767-.736,2.816" transform="translate(-16.744 -5.006)"/>
        <path id="Trazado_160808" data-name="Trazado 160808" d="M26.808,68.706c1.507-1.492,2.9-2.892,4.319-4.261a1.371,1.371,0,0,0,.445-1.105c-.02-2.21,0-4.42-.018-6.63,0-.441.087-.6.567-.592,1.572.011,1.572-.011,1.572,1.552,0,1.928.01,3.856-.009,5.783a1.16,1.16,0,0,0,.385.917c1.326,1.3,2.623,2.629,3.951,3.928.281.274.311.427.008.7-.4.361-.743.783-1.209,1.284l-3.127-3.25c0,1.435-.018,2.738.01,4.041.009.431-.109.553-.548.555-1.591.008-1.591.026-1.591-1.544q0-1.374,0-2.75a2.24,2.24,0,0,0-.054-.266c-.766.765-1.481,1.48-2.2,2.195-.9.895-.891.891-1.792,0a8.317,8.317,0,0,0-.711-.56" transform="translate(-9.097 -19.044)"/>
        <path id="Trazado_160809" data-name="Trazado 160809" d="M59.548,52.127c1.18.681,2.255,1.335,3.364,1.927.507.27.575.495.266.995-.745,1.205-.717,1.221-1.938.517-.89-.513-1.781-1.023-2.757-1.583.351,1.335.658,2.582,1.016,3.816.114.392.064.546-.351.61-.526.081-1.136.534-1.522.3-.323-.2-.329-.924-.464-1.418-.388-1.424-.786-2.847-1.144-4.28a1.226,1.226,0,0,0-.653-.838c-1.938-1.1-3.854-2.236-5.8-3.329-.413-.233-.5-.406-.244-.833.788-1.324.77-1.334,2.137-.545,1.625.938,3.26,1.859,4.867,2.826a1.447,1.447,0,0,0,1.245.169c1.739-.486,3.49-.926,5.226-1.42.388-.11.519-.059.628.34.433,1.575.449,1.57-1.12,2-.877.238-1.752.479-2.76.755" transform="translate(-16.69 -15.925)"/>
        <path id="Trazado_160810" data-name="Trazado 160810" d="M40.394,93.44c0,1.056,0,1.056-1.293,1.056-.834,0-.834,0-.833-1.372,0-.774,0-.774,1.36-.773.766,0,.766,0,.766,1.089" transform="translate(-12.986 -31.339)" fill="#040404"/>
        <path id="Trazado_160811" data-name="Trazado 160811" d="M55.248,71.322c0,1.034,0,1.034-1.32,1.033-.833,0-.833,0-.832-1.309,0-.821,0-.821,1.319-.821.833,0,.833,0,.833,1.1" transform="translate(-18.018 -23.831)" fill="#040404"/>
        <path id="Trazado_160812" data-name="Trazado 160812" d="M22.555,69.99c0,1.08,0,1.08-1.272,1.079-.875,0-.875,0-.875-1.336,0-.8,0-.805,1.342-.793.943.009.789-.166.8,1.05" transform="translate(-6.926 -23.393)" fill="#050505"/>
        <path id="Trazado_160813" data-name="Trazado 160813" d="M54.6,58.8c0,1.057,0,1.057-1.231,1.057-.92,0-.92,0-.92-1.3,0-.846,0-.853,1.3-.844,1,.007.834-.149.85,1.083" transform="translate(-17.8 -19.584)" fill="#080808"/>
        <path id="Trazado_160814" data-name="Trazado 160814" d="M24.711,57.081c0,1.054,0,1.054-1.231,1.053-.914,0-.914,0-.913-1.3,0-.842,0-.85,1.3-.839.992.009.828-.16.845,1.085" transform="translate(-7.658 -19.001)" fill="#040404"/>
        <path id="Trazado_160815" data-name="Trazado 160815" d="M7.068,72.212c0,1,0,1-1.316,1-.807,0-.807,0-.806-1.373,0-.754,0-.754,1.352-.753.77,0,.77,0,.77,1.124" transform="translate(-1.678 -24.124)" fill="#010101"/>
        <path id="Trazado_160816" data-name="Trazado 160816" d="M62.781,75.409c0,1.023,0,1.023-1.3,1.023-.829,0-.829,0-.828-1.348,0-.78,0-.78,1.329-.779.8,0,.8,0,.8,1.1" transform="translate(-20.582 -25.215)" fill="#010101"/>
        <path id="Trazado_160817" data-name="Trazado 160817" d="M3.718,40.766c1,0,1,0,1,1.32,0,.807,0,.807-1.374.806-.752,0-.752,0-.752-1.358,0-.768,0-.768,1.13-.768" transform="translate(-0.878 -13.834)"/>
        <path id="Trazado_160818" data-name="Trazado 160818" d="M51.79,80.528c0,1.049,0,1.049-1.274,1.048-.865,0-.865,0-.865-1.259,0-.872,0-.872,1.391-.871.748,0,.748,0,.748,1.081" transform="translate(-16.849 -26.96)" fill="#020202"/>
        <path id="Trazado_160819" data-name="Trazado 160819" d="M57.373,39.673c-1.025,0-1.025,0-1.025-1.251,0-.885,0-.885,1.313-.883.824,0,.824,0,.823,1.316,0,.819,0,.819-1.111.819" transform="translate(-19.122 -12.738)" fill="#030303"/>
        <path id="Trazado_160820" data-name="Trazado 160820" d="M32.035,88.239c-1.058,0-1.058,0-1.058-1.279,0-.859,0-.859,1.278-.858.851,0,.769.007.877,1.356.084,1.054-.574.749-1.1.782" transform="translate(-10.512 -29.219)" fill="#020202"/>
        <path id="Trazado_160821" data-name="Trazado 160821" d="M46.623,64.8c0,1.1,0,1.1-1.252,1.1-.881,0-.881,0-.88-1.333,0-.813,0-.813,1.329-.813.8,0,.8,0,.8,1.046" transform="translate(-15.098 -21.637)" fill="#030303"/>
        <path id="Trazado_160822" data-name="Trazado 160822" d="M13.935,36.707c0,1.031,0,1.031-1.247,1.03-.883,0-.883,0-.882-1.326,0-.812,0-.812,1.323-.811.806,0,.806,0,.806,1.107" transform="translate(-4.006 -12.081)" fill="#020202"/>
        <path id="Trazado_160823" data-name="Trazado 160823" d="M69.43,36.249c0,1.057,0,1.057-1.287,1.057-.836,0-.836,0-.835-1.369,0-.765,0-.765,1.358-.764.764,0,.764,0,.764,1.076" transform="translate(-22.841 -11.936)" fill="#010101"/>
        <path id="Trazado_160824" data-name="Trazado 160824" d="M65.78,44.775c0,1.112,0,1.112-1.136,1.112a4.948,4.948,0,0,0-.56,0c-.327.036-.486-.073-.431-.42a1.393,1.393,0,0,0,0-.21c-.008-1.5-.008-1.479,1.448-1.511.532-.012.784.11.681.675a1.926,1.926,0,0,0,0,.349" transform="translate(-21.597 -14.847)"/>
        <path id="Trazado_160825" data-name="Trazado 160825" d="M5.309,101.174c-1.009,0-1.009,0-1.009-1.319,0-.817,0-.817,1.364-.816.762,0,.762,0,.762,1.346,0,.789,0,.789-1.116.789" transform="translate(-1.459 -33.609)" fill="#010101"/>
        <path id="Trazado_160826" data-name="Trazado 160826" d="M32.65,103.75c-1.032,0-1.032,0-1.032-1.292,0-.837,0-.837,1.271-.836.86,0,.86,0,.859,1.321,0,.807,0,.807-1.1.807" transform="translate(-10.73 -34.485)" fill="#010101"/>
        <path id="Trazado_160827" data-name="Trazado 160827" d="M16.354,103.127c1.024,0,1.024,0,1.023,1.17,0,.957,0,.957-1.31.957-.823,0-.823,0-.823-1.313,0-.814,0-.814,1.109-.814" transform="translate(-5.173 -34.996)" fill="#020202"/>
        <path id="Trazado_160828" data-name="Trazado 160828" d="M42.174,105.486c1.009,0,1.009,0,1.009,1.239,0,.888,0,.888-1.36.887-.767,0-.767,0-.767-1.344,0-.783,0-.783,1.118-.783" transform="translate(-13.932 -35.797)" fill="#010101"/>
        <path id="Trazado_160829" data-name="Trazado 160829" d="M27.5,96.866c-1.046,0-1.046,0-1.046-1.234,0-.907,0-.907,1.293-.906.842,0,.85,0,.839,1.3-.008.99.16.824-1.086.841" transform="translate(-8.978 -32.145)" fill="#040404"/>
        <path id="Trazado_160830" data-name="Trazado 160830" d="M72.312,63.732a10.669,10.669,0,0,1,1.451-9.774,9.77,9.77,0,0,1,2.4-2.457,1.2,1.2,0,0,0,.538-1.109q-.021-20.136-.019-40.272A6.57,6.57,0,0,1,78.25,5.574,6,6,0,0,1,88.7,9.053q.043.668.044,1.338,0,19.959-.009,39.918a1.394,1.394,0,0,0,.589,1.237,10.928,10.928,0,0,1,3.9,12,2.951,2.951,0,0,1-.145.316,11.526,11.526,0,0,1-10.328,5.827,11.868,11.868,0,0,1-9.572-4.531,8.19,8.19,0,0,1-.869-1.424" transform="translate(-24.338 -1.222)" fill="#2189f1"/>
        <path id="Trazado_160831" data-name="Trazado 160831" d="M72.617,94.619a26.2,26.2,0,0,0,2.377,2.733,12.121,12.121,0,0,0,15.1.8,12.222,12.222,0,0,0,3-3.114,2.435,2.435,0,0,1,.289-.3,10.351,10.351,0,0,1-4.911,6.011,11,11,0,0,1-15.758-5.732c-.046-.131-.067-.271-.1-.407" transform="translate(-24.643 -32.109)" fill="#0a57df"/>
        <path id="Trazado_160832" data-name="Trazado 160832" d="M27.6,38.18c-.009-1.407-.009-2.814-.034-4.221a.6.6,0,0,1,.378-.593q2.287-1.306,4.56-2.639a.664.664,0,0,1,.768,0q2.269,1.338,4.561,2.638a.6.6,0,0,1,.377.6c-.026,1.407-.03,2.813-.042,4.22a4.6,4.6,0,0,1-1.545,1.079c-1.007.6-2.045,1.155-3.053,1.758a1.178,1.178,0,0,1-1.323.042c-1.426-.865-2.887-1.671-4.323-2.518a.8.8,0,0,1-.325-.359" transform="translate(-9.354 -10.386)" fill="#52cbe7"/>
        <path id="Trazado_160833" data-name="Trazado 160833" d="M27.586,42.071c1.5.862,3.011,1.7,4.484,2.6a1.34,1.34,0,0,0,1.6-.009c1.475-.9,2.989-1.732,4.488-2.592a1.8,1.8,0,0,1-1.181,2.305,38.608,38.608,0,0,0-3.657,2.089.744.744,0,0,1-.883,0c-1.347-.8-2.693-1.613-4.078-2.347a1.212,1.212,0,0,1-.8-1.416,4.542,4.542,0,0,0,.031-.63" transform="translate(-9.341 -14.276)" fill="#16bcd7"/>
        <path id="Trazado_160834" data-name="Trazado 160834" d="M14.842,84.771a2.042,2.042,0,0,1,.024.209,1.923,1.923,0,0,1-1.6,2.271.4.4,0,0,1-.388-.042,1.331,1.331,0,0,0-.305-.172,1.7,1.7,0,0,1-1.217-2.267c.57-.124.93.308,1.346.548a.669.669,0,0,0,.8,0c.416-.239.775-.675,1.346-.546" transform="translate(-3.827 -28.759)" fill="#bee0e7"/>
        <path id="Trazado_160835" data-name="Trazado 160835" d="M14.866,84.094c-.593.3-1.184.838-1.78.844-.567.005-1.14-.541-1.71-.845-.073-.3-.036-.556.3-.682a1.725,1.725,0,0,0,.243-.14c1.276-.74,1.58-.706,2.771.205.251.192.194.39.173.617" transform="translate(-3.85 -28.082)" fill="#daf0f7"/>
        <path id="Trazado_160836" data-name="Trazado 160836" d="M57.643,96.485a4,4,0,0,1,.086,1.909c-.022.391-.539.46-.848.638s-.623.575-.982.439a3.822,3.822,0,0,1-1.555-.908c-.346-.4-.117-1.071-.1-1.623.368-.081.61.194.889.338a1.675,1.675,0,0,0,2.3-.518c.069-.092.1-.212.209-.275" transform="translate(-18.377 -32.742)" fill="#bedfe6"/>
        <path id="Trazado_160837" data-name="Trazado 160837" d="M57.676,96.046a1.713,1.713,0,0,1-2.25,1.124c-.377-.232-.764-.447-1.146-.669a.493.493,0,0,1,.272-.622c1.454-.939,1.489-.947,3.125.166" transform="translate(-18.41 -32.304)" fill="#dbf0f7"/>
        <path id="Trazado_160838" data-name="Trazado 160838" d="M87.724,68.167c0,1.269.024,2.54-.012,3.808a1.054,1.054,0,0,0,.585,1.062,8.523,8.523,0,0,1,4.338,8.335,8.827,8.827,0,0,1-14.008,6.441,8.844,8.844,0,0,1,.706-14.756,1.044,1.044,0,0,0,.6-1.044c-.025-2.586,0-5.172-.022-7.757,0-.521.087-.731.678-.721,2.162.039,4.326.035,6.488,0,.549-.008.665.174.653.682-.033,1.315-.011,2.632-.011,3.949" transform="translate(-25.444 -21.56)"/>
        <path id="Trazado_160839" data-name="Trazado 160839" d="M88.427,28.252c.8,0,1.593.009,2.39,0,.321-.005.494.1.453.443a.362.362,0,0,0,0,.071c.075,1.646.075,1.646-1.566,1.646-1.172,0-2.345-.014-3.516.007-.441.008-.611-.112-.615-.591-.013-1.574-.032-1.574,1.516-1.574h1.337" transform="translate(-29.039 -9.586)" fill="#010305"/>
        <path id="Trazado_160840" data-name="Trazado 160840" d="M88.474,15.373c.774,0,1.549.016,2.323-.007.365-.011.471.106.484.476.055,1.654.069,1.654-1.555,1.654-1.2,0-2.394-.018-3.59.009-.429.01-.552-.121-.556-.552-.019-1.58-.036-1.58,1.558-1.58h1.337" transform="translate(-29.04 -5.214)"/>
        <path id="Trazado_160841" data-name="Trazado 160841" d="M88.388,56.19c-.773,0-1.547-.013-2.32.006-.353.009-.482-.092-.5-.471-.077-1.669-.091-1.668,1.551-1.668,1.218,0,2.436.011,3.655-.006.356,0,.48.1.495.473.069,1.667.083,1.666-1.546,1.666H88.388" transform="translate(-29.029 -18.342)" fill="#000101"/>
        <path id="Trazado_160842" data-name="Trazado 160842" d="M88.45,43.316c-.8,0-1.6-.016-2.392.007-.367.011-.47-.117-.486-.479-.073-1.654-.085-1.654,1.556-1.654,1.2,0,2.393.017,3.589-.009.429-.009.552.12.556.552.014,1.583.031,1.583-1.556,1.583H88.45" transform="translate(-29.03 -13.975)"/>
        <path id="Trazado_160843" data-name="Trazado 160843" d="M91.273,23.925c-1.385,0-1.356,0-1.391-1.405-.015-.581.146-.821.737-.731a4.293,4.293,0,0,0,.632,0c1.506,0,1.485,0,1.5,1.511,0,.49-.134.684-.63.627a7.318,7.318,0,0,0-.843-.006" transform="translate(-30.501 -7.388)" fill="#fdfdfe"/>
        <path id="Trazado_160844" data-name="Trazado 160844" d="M91.291,36.872c-1.4,0-1.365,0-1.416-1.385-.024-.649.2-.827.791-.752a7.233,7.233,0,0,0,.912.007c1.153,0,1.153,0,1.152,1.14,0,.991,0,.991-1.44.991" transform="translate(-30.499 -11.782)" fill="#fcfdfe"/>
        <path id="Trazado_160845" data-name="Trazado 160845" d="M91.268,49.738c-1.381,0-1.35,0-1.389-1.407-.017-.592.154-.816.739-.723a3.626,3.626,0,0,0,.562,0c1.6,0,1.578,0,1.562,1.581,0,.435-.131.591-.56.55-.3-.029-.61-.005-.915-.005" transform="translate(-30.5 -16.149)" fill="#fdfefe"/>
        <path id="Trazado_160846" data-name="Trazado 160846" d="M37.523,37.515c0,1.848,0,1.837-1.642,1.767-.358-.015-.519-.11-.486-.483.022-.256.006-.516,0-.774a1,1,0,0,0-1.562-.914c-1.072.619-1.072.619-1.692-.438-.464-.79-.383-.69.34-1.276,1.318-1.066,2.431-.91,3.788.008.918.62,1.562,1.13,1.251,2.109" transform="translate(-10.81 -11.761)" fill="#fefefe"/>
        <path id="Trazado_160847" data-name="Trazado 160847" d="M78.416,83.483a6.757,6.757,0,0,1,4.208-8.063.717.717,0,0,0,.525-.826c-.022-2.349.019-4.7-.03-7.048-.014-.679.21-.828.821-.782a13.089,13.089,0,0,0,1.971,0c.591-.044.8.093.787.749-.048,2.349-.005,4.7-.03,7.048a.781.781,0,0,0,.572.874,6.728,6.728,0,0,1,4.366,7.057,6.872,6.872,0,0,1-.168.824c-1.728,3.337-7.182,4.923-11.082,2.148a8.1,8.1,0,0,1-1.942-1.98" transform="translate(-26.533 -22.654)" fill="#52cbe7"/>
        <path id="Trazado_160848" data-name="Trazado 160848" d="M78.534,91.989c.729.365,1.081,1.121,1.722,1.607a7.884,7.884,0,0,0,9.009.371,15.374,15.374,0,0,0,2.292-2.145,6.387,6.387,0,0,1-4.707,4.913A6.481,6.481,0,0,1,80.157,94.9a6.191,6.191,0,0,1-1.623-2.909" transform="translate(-26.651 -31.16)" fill="#16bcd7"/>
        <path id="Trazado_160849" data-name="Trazado 160849" d="M86.566,87.5c0-1.1.013-2.2-.007-3.3-.007-.394.124-.519.523-.532,1.61-.055,1.61-.069,1.61,1.549,0,1.875-.016,3.749.01,5.624.007.493-.143.634-.633.632-1.5-.006-1.5.015-1.5-1.509V87.5" transform="translate(-29.374 -28.385)" fill="#fefefe"/>
        <path id="Trazado_160850" data-name="Trazado 160850" d="M92.319,88.793c0-1.436,0-1.407,1.444-1.435.577-.011.755.19.688.724a5.174,5.174,0,0,0,0,.632c0,1.531,0,1.509-1.517,1.507-.511,0-.665-.183-.615-.655a7.354,7.354,0,0,0,0-.773" transform="translate(-31.324 -29.645)" fill="#fbfdfe"/>
        <path id="Trazado_160851" data-name="Trazado 160851" d="M83.309,88.916c0,1.226,0,1.226-1.218,1.225-.905,0-.905,0-.906-.906v-.141c0-1.531,0-1.51,1.5-1.517.494,0,.687.143.626.636a5.808,5.808,0,0,0,0,.7" transform="translate(-27.551 -29.719)" fill="#fdfefe"/>
      </g>
    </g>
  </g>
</svg>
