<svg id="Grupo_169370" data-name="Grupo 169370" xmlns="http://www.w3.org/2000/svg" xmlns:xlink="http://www.w3.org/1999/xlink" width="190" height="164.491" viewBox="0 0 190 164.491">
  <defs>
    <clipPath id="clip-path">
      <rect id="Rectángulo_42510" data-name="Rectángulo 42510" width="190" height="164.491" fill="none"/>
    </clipPath>
  </defs>
  <g id="Grupo_169369" data-name="Grupo 169369" transform="translate(0 0)" clip-path="url(#clip-path)">
    <path id="Trazado_161170" data-name="Trazado 161170" d="M190,122.706c-.81,1.543-.713,3.291-1.083,4.932a47.083,47.083,0,0,1-9.114,19.184c-1.352,1.7-2.218,1.877-4.334.959-1.522-.689-1.585-1.915-1.128-3.256a11.032,11.032,0,0,1,1.734-2.841,40.419,40.419,0,0,0-1.148-49.446,39.5,39.5,0,0,0-26.866-14.931c-19-2.235-36.762,8.7-42.945,26.241-5.652,16.041-2.479,30.471,9.279,42.8,6.991,7.331,15.736,11.077,25.83,11.9a40.262,40.262,0,0,0,25.825-6.813,8.118,8.118,0,0,1,1.924-1.107c1.423-.441,2.709-.389,3.443,1.2.841,2.216.586,3.109-1.269,4.424a46.615,46.615,0,0,1-56.314-1.924,6.307,6.307,0,0,0-4.323-1.552c-31.661.05-63.321.011-94.98.061-5.9.009-10.427-2.134-13.183-7.494a13.148,13.148,0,0,1-1.33-6.1q-.006-47.3-.02-94.6c0-2.055.817-3.285,2.839-3.686,1.974-.072,3.013.828,3.228,2.905a41.381,41.381,0,0,1,.061,4.82c-.015,1.238.468,1.857,1.746,1.785.494-.026.99,0,1.484,0H160.179c3.664,0,3.664,0,3.664-3.664,0-4.391-.007-8.781.005-13.17a15.033,15.033,0,0,0-.612-4.394,6.534,6.534,0,0,0-6-4.725c-1.421-.073-2.845,0-4.266-.024-1.267-.024-1.776.571-1.754,1.805q.039,2.226-.006,4.451A11.7,11.7,0,0,1,140.2,41.871c-5.6.428-10.851-3.81-11.916-9.562a27.233,27.233,0,0,1-.426-6.091c.055-1.364-.4-2.064-1.9-2.038-3.091.053-6.185.044-9.275,0-1.361-.017-1.869.556-1.846,1.888a29.818,29.818,0,0,1-.281,5.731c-1.05,5.981-6.1,10.374-11.7,10.109a11.91,11.91,0,0,1-11.339-11.4c-.1-1.544-.04-3.092-.035-4.637,0-1.162-.507-1.684-1.677-1.682q-5.008.008-10.017,0c-1.17,0-1.68.516-1.669,1.68q.019,2.319-.006,4.637a11.48,11.48,0,0,1-11.35,11.378,11.611,11.611,0,0,1-11.63-11.137c-.05-1.544-.039-3.092-.009-4.637.024-1.295-.461-1.941-1.836-1.928-3.278.029-6.556.013-9.832.006-1.155,0-1.7.483-1.7,1.66.006,1.544.022,3.091-.013,4.637a11.539,11.539,0,0,1-11.044,11.35,11.405,11.405,0,0,1-11.942-9.948,43.676,43.676,0,0,1-.38-5.913c.033-1.236-.5-1.827-1.768-1.79-1.111.033-2.226-.006-3.338.007-4.057.046-6.7,2.492-7.1,6.57a11.592,11.592,0,0,1-.272,2.389,2.639,2.639,0,0,1-3.164,2.048C.836,34.9.044,33.733.006,31.847A13.121,13.121,0,0,1,12.524,18.021a28.99,28.99,0,0,1,4.446-.059c1.631.13,2.314-.283,2.178-2.082a37.112,37.112,0,0,1,.127-5.922A10.972,10.972,0,0,1,30.269,0,11.085,11.085,0,0,1,41.147,10.128a64.784,64.784,0,0,1,.051,6.488c-.033,1.087.347,1.348,1.37,1.335,3.9-.051,7.793-.068,11.688.007,1.229.026,1.425-.461,1.388-1.524-.066-1.913-.062-3.834.02-5.748a10.983,10.983,0,0,1,21.941-.365c.145,2.033.13,4.079.086,6.117-.024,1.067.2,1.543,1.41,1.521q5.842-.11,11.688,0c1.128.02,1.331-.422,1.293-1.4-.064-1.667-.042-3.338-.013-5.008C92.183,4.968,96.912.039,103.122,0c6.076-.033,10.853,4.806,11.108,11.3.07,1.79.059,3.588-.006,5.379-.037.97.274,1.278,1.254,1.265,3.895-.05,7.792-.07,11.687.009,1.23.024,1.416-.463,1.4-1.524a64.082,64.082,0,0,1,.16-6.48A10.965,10.965,0,0,1,139.724,0a11.1,11.1,0,0,1,10.893,10.318c.13,2.093.11,4.205.037,6.3-.039,1.091.354,1.341,1.372,1.33,2.529-.026,5.094-.275,7.571.349,6.569,1.656,10.192,6.666,10.2,14.017q.022,22.447-.024,44.893a3.535,3.535,0,0,0,1.524,3.254,46,46,0,0,1,17.052,25.094c.727,2.573,1.109,5.245,1.651,7.871Z" transform="translate(0 0)"/>
    <path id="Trazado_161171" data-name="Trazado 161171" d="M1.493,24.521c2.182-.54,2.764-1.245,2.837-3.443.182-5.436,3.054-8.22,8.528-8.26,4.967-.039,5.021-.039,4.96,4.988-.059,4.991,1.4,9.132,6.084,11.595a11,11,0,0,0,16.02-9.086c.116-2.033.088-4.08.033-6.119-.028-1.025.264-1.414,1.344-1.4,3.895.055,7.793.062,11.688,0,1.208-.02,1.445.477,1.41,1.541-.061,1.853-.057,3.711.013,5.564a10.985,10.985,0,0,0,21.955.358c.121-1.972.108-3.957.062-5.933-.026-1.078.248-1.548,1.438-1.528,3.895.062,7.792.048,11.688.007.951-.009,1.309.279,1.28,1.262-.057,1.913-.084,3.836.015,5.748C91.16,25.8,95.219,30,101.262,30.645c4.835.522,9.881-3.092,11.255-8.113.713-2.6.509-5.281.454-7.931-.028-1.293.2-1.869,1.691-1.822,3.583.116,7.173.1,10.757.009,1.407-.035,1.974.294,1.9,1.822a39.214,39.214,0,0,0,.14,6.3,11,11,0,0,0,21.9-.36,59.131,59.131,0,0,0,.048-6.3c-.042-1.173.371-1.506,1.484-1.445,1.6.088,3.217-.02,4.82.07a7.163,7.163,0,0,1,7.136,6.7c.454,5.052.121,10.131.158,15.2.011,1.655.714,3.794-.3,4.841-1.1,1.137-3.28.364-4.978.365q-75.6.036-151.2.061c-1.759,0-2.452-.362-2.226-2.2.165-1.339-.022-2.72.046-4.077a3.263,3.263,0,0,0-2.751-3.779l-.1-5.456" transform="translate(1.249 10.686)" fill="#ed534f"/>
    <path id="Trazado_161172" data-name="Trazado 161172" d="M125,116.693c-1.554-1.438-3.034-1.126-4.662,0a39.634,39.634,0,0,1-26.614,7.233c-15.073-1.328-26.454-8.7-33.414-22.027-9.819-18.8-4.194-40.655,13.056-52.94,20.027-14.261,49.416-6.846,60.174,15.4,7.351,15.2,5.8,29.795-4,43.516-1.8,2.514-1.89,3.059-.487,5.074q-2.027,1.876-4.049,3.75" transform="translate(46.417 34.837)" fill="#4fc1f7"/>
    <path id="Trazado_161173" data-name="Trazado 161173" d="M16.709,48.089c4.016,0,8.032.04,12.046-.026,1.168-.018,1.612.25,1.6,1.513q-.08,11.861,0,23.72c.007,1.179-.389,1.425-1.491,1.42Q16.635,74.65,4.4,74.723c-1.24.009-1.379-.455-1.375-1.5q.055-11.858-.006-23.72c-.007-1.148.316-1.46,1.454-1.442,4.077.07,8.155.028,12.232.028" transform="translate(2.528 40.196)" fill="#cbcbcb"/>
    <path id="Trazado_161174" data-name="Trazado 161174" d="M34.443,74.691c-4.016,0-8.032-.039-12.046.026-1.109.017-1.5-.248-1.489-1.423q.072-11.861,0-23.72c-.007-1.269.446-1.517,1.609-1.509q12.139.069,24.278,0c1.14-.007,1.458.3,1.451,1.443q-.072,11.861.006,23.72c.011,1.278-.424,1.508-1.574,1.489-4.077-.062-8.155-.024-12.232-.024" transform="translate(17.484 40.197)" fill="#cbcbcb"/>
    <path id="Trazado_161175" data-name="Trazado 161175" d="M16.64,57.131c-4.016,0-8.032-.039-12.046.024-1.15.018-1.585-.208-1.574-1.487q.1-11.767,0-23.537c-.009-1.229.343-1.524,1.537-1.517q12.139.077,24.28,0c1.278-.011,1.524.417,1.519,1.577-.042,7.782-.055,15.567.009,23.349.009,1.339-.422,1.645-1.682,1.622-4.014-.075-8.03-.028-12.046-.028" transform="translate(2.526 25.601)" fill="#cbcbcb"/>
    <path id="Trazado_161176" data-name="Trazado 161176" d="M34.67,57.133c-4.077,0-8.155-.053-12.232.031-1.271.026-1.537-.409-1.532-1.581q.066-11.674.006-23.351c0-1.087.112-1.636,1.471-1.625q12.23.11,24.464.006c1.216-.009,1.4.4,1.39,1.478q-.063,11.767.006,23.535c.007,1.2-.3,1.561-1.526,1.537-4.014-.077-8.03-.029-12.046-.029" transform="translate(17.486 25.599)" fill="#cbcbcb"/>
    <path id="Trazado_161177" data-name="Trazado 161177" d="M52.551,57.131c-4.141,0-8.28-.033-12.419.024-1.058.017-1.341-.3-1.335-1.344q.061-11.955-.006-23.911c-.006-1.137.424-1.282,1.4-1.276,8.155.033,16.312.055,24.469-.017,1.35-.009,1.478.531,1.475,1.625q-.05,11.676.006,23.355c.007,1.184-.281,1.6-1.541,1.577-4.014-.084-8.032-.033-12.048-.033" transform="translate(32.443 25.599)" fill="#cbcbcb"/>
    <path id="Trazado_161178" data-name="Trazado 161178" d="M34.591,92.114c-4.016,0-8.034-.029-12.05.018-1.107.013-1.649-.145-1.638-1.486.064-7.907.05-15.818.009-23.728-.006-1.071.342-1.341,1.372-1.335q12.329.055,24.657,0c1.1-.007,1.3.375,1.3,1.372-.035,7.909-.057,15.818.017,23.727.011,1.35-.527,1.465-1.614,1.453-4.016-.048-8.034-.018-12.05-.018" transform="translate(17.482 54.849)" fill="#cbcbcb"/>
    <path id="Trazado_161179" data-name="Trazado 161179" d="M16.593,65.609c4.077,0,8.153.051,12.228-.031,1.241-.024,1.548.354,1.539,1.552q-.072,11.671,0,23.344c.009,1.271-.316,1.691-1.638,1.675-5.8-.07-11.613,0-17.418-.04-5.241-.04-8.236-3.089-8.251-8.328-.018-5.559.031-11.117-.033-16.674-.015-1.214.316-1.548,1.528-1.526,4.012.077,8.029.029,12.043.029" transform="translate(2.527 54.845)" fill="#cbcbcb"/>
    <path id="Trazado_161180" data-name="Trazado 161180" d="M63.68,92.016c-7.968.033-15.934.055-23.9.118-.9.006-.977-.419-.975-1.133q.022-12.139-.009-24.28c0-.9.274-1.148,1.153-1.137,5.311.062,10.623.072,15.934.1.984,1.563.5,3.362.762,5.037a55.764,55.764,0,0,0,6.48,18.949c.4.714,1.137,1.385.556,2.347" transform="translate(32.445 54.851)" fill="#c8c8c8"/>
    <path id="Trazado_161181" data-name="Trazado 161181" d="M38.841,74.29q.014-12.974.026-25.951c.5-.345,1.078-.182,1.62-.182q10.927-.019,21.853-.009c2.018,0,2.16.23,1.126,2.071a56.914,56.914,0,0,0-6.842,20.218c-.566,4.049-.623,4.042-4.677,4.042-3.766,0-7.531.011-11.3-.007a3.2,3.2,0,0,1-1.807-.182" transform="translate(32.485 40.244)" fill="#cbcbcb"/>
    <path id="Trazado_161182" data-name="Trazado 161182" d="M56.891,30.8a42.593,42.593,0,0,1,6.44-.14c6.4-.035,12.807.013,19.21-.037,1.089-.007,1.528.2,1.462,1.4-.125,2.147-.075,4.3-.1,6.458-1.765,1.256-3.95,1.3-5.913,2A58.574,58.574,0,0,0,58.749,52.01a6.456,6.456,0,0,1-.861.7c-.825.516-1.206.358-1.2-.687.028-6.969-.018-13.94.031-20.909a.578.578,0,0,1,.173-.318" transform="translate(47.41 25.596)" fill="#cbcbcb"/>
    <path id="Trazado_161183" data-name="Trazado 161183" d="M53.165,18.181c0-3.024-.02-6.051.006-9.075.028-3.513,2.475-6.154,5.6-6.089,3.083.062,5.447,2.633,5.463,6.053q.047,9.076,0,18.152c-.018,3.491-2.507,6.15-5.616,6.091-3.076-.059-5.419-2.639-5.45-6.056-.028-3.024-.006-6.051-.006-9.075" transform="translate(44.458 2.522)" fill="#666"/>
    <path id="Trazado_161184" data-name="Trazado 161184" d="M24.46,18.154c0,3.089.024,6.176,0,9.263-.031,3.324-2.114,5.638-5.217,5.858-2.789.2-5.138-1.853-5.68-4.986a9.789,9.789,0,0,1-.152-1.651c-.011-5.742-.046-11.485.006-17.225.04-4.453,3.122-7.136,6.952-6.165a5.262,5.262,0,0,1,4.082,5.276c.046,3.21.011,6.422.013,9.63" transform="translate(11.195 2.551)" fill="#666"/>
    <path id="Trazado_161185" data-name="Trazado 161185" d="M84.064,18.283c0,3.087.028,6.174-.007,9.259a5.524,5.524,0,0,1-5.134,5.751c-2.775.252-5.186-1.8-5.748-4.9a8.407,8.407,0,0,1-.165-1.465c-.011-5.863-.031-11.729,0-17.592.015-2.5.845-4.635,3.272-5.766a5.149,5.149,0,0,1,5.573.615,5.306,5.306,0,0,1,2.205,4.466q-.008,4.815,0,9.63" transform="translate(61.048 2.529)" fill="#666"/>
    <path id="Trazado_161186" data-name="Trazado 161186" d="M44.214,18.156c0,3.148.031,6.293-.009,9.441a5.434,5.434,0,1,1-10.855.022q-.055-9.44,0-18.881a5.435,5.435,0,1,1,10.857-.022c.042,3.148.009,6.293.009,9.441" transform="translate(27.87 2.518)" fill="#666"/>
    <path id="Trazado_161187" data-name="Trazado 161187" d="M56.92,30.709V52.727c2.485-1.981,4.681-3.926,7.066-5.6,6.053-4.236,12.564-7.5,19.945-8.737.026,2.466.026,4.934.086,7.4a1.112,1.112,0,0,1-.975,1.274,46.956,46.956,0,0,0-17.607,9.461,1.965,1.965,0,0,1-1.339.52q-3.146-.025-6.3,0c-.619,0-1.067-.077-1.071-.874-.039-8.445-.185-16.889.062-25.331,0-.046.081-.088.127-.132" transform="translate(47.381 25.684)" fill="#b6b6b6"/>
    <path id="Trazado_161188" data-name="Trazado 161188" d="M101.666,30.7c.522.443.259,1.038.259,1.554.015,5.362-.04,10.726.011,16.088.013,1.416-.154,1.912-1.686,1.192a45.251,45.251,0,0,0-23.926-4.031c-1.363.129-1.862-.092-1.763-1.572.151-2.209.075-4.433.1-6.651,3.058-1.337,6.262-.935,9.433-.746a53.954,53.954,0,0,1,15.5,3.148c1.2.439,1.559-.029,1.543-1.172q-.036-2.771,0-5.54a2.973,2.973,0,0,1,.523-2.27" transform="translate(62.35 25.679)" fill="#b6b6b6"/>
    <path id="Trazado_161189" data-name="Trazado 161189" d="M55.9,92.006c-1.006-2.029-2.07-4.034-3.012-6.095-2.938-6.424-4.857-13.1-4.787-20.238,2.347-.022,4.692-.031,7.039-.077.694-.013,1.107.059,1.181.948a46.453,46.453,0,0,0,9.646,25.015c.061.077.029.224.051.448Z" transform="translate(40.227 54.86)" fill="#bfbfbf"/>
    <path id="Trazado_161190" data-name="Trazado 161190" d="M38.841,74.358c5.125,0,10.251-.02,15.374.028,1.139.007,1.592-.253,1.667-1.522a49.609,49.609,0,0,1,4.172-16.905,35.466,35.466,0,0,1,4.005-7.551H38.867c.237-.569.744-.312,1.12-.312,8.089-.011,16.18.031,24.269-.028,1.451-.011,1.9.376,1.86,1.855-.1,4.069-.031,8.148-.04,12.225a6.847,6.847,0,0,1-.13,1.651,62.182,62.182,0,0,0-1.855,9.99c-.061.694-.312.938-1.025.937q-11.855-.019-23.713,0c-.263,0-.477-.059-.512-.369" transform="translate(32.485 40.176)" fill="#b6b6b6"/>
    <path id="Trazado_161191" data-name="Trazado 161191" d="M101.649,30.776c-.009,2.9-.046,5.8-.011,8.7.013,1.159-.015,1.649-1.484,1.1A55.732,55.732,0,0,0,85.3,37.266a74.709,74.709,0,0,0-10.655.09c-.022-1.9-.028-3.81-.072-5.717-.015-.648.1-1.023.889-1.014,8.73.1,17.462-.167,26.19.151" transform="translate(62.366 25.606)" fill="#cbcbcb"/>
    <path id="Trazado_161192" data-name="Trazado 161192" d="M56.689,51.5c-.107-3.623-.107-3.623,2.485-3.294A8.436,8.436,0,0,1,56.689,51.5" transform="translate(47.384 40.204)" fill="#9a9a9a"/>
    <path id="Trazado_161193" data-name="Trazado 161193" d="M71.92,56.622c-.885-2.336-.63-3.138,1.489-4.688a34.569,34.569,0,1,1-9.184,10.012c1.036-1.761,2.013-2.038,4.249-1.306,1.583,1.093,1.886,2.011,1.115,3.932-.8,2-2.06,3.785-2.718,5.876-3.4,10.836-1.4,20.462,6.278,28.888a27.54,27.54,0,0,0,11.413,7.342,28.435,28.435,0,0,0,37.07-21.741C124.72,68.967,112.945,53.1,96.8,51.592a27.805,27.805,0,0,0-19.559,5.044,5.83,5.83,0,0,1-2.786,1.337,2.189,2.189,0,0,1-2.534-1.352" transform="translate(49.52 37.922)"/>
    <path id="Trazado_161194" data-name="Trazado 161194" d="M81.948,103.916A27.03,27.03,0,0,1,65.459,89.762c-4.521-8.98-4.3-18.035.419-26.937.946-1.781,2-3.509.1-5.318Q67.7,55.5,69.42,53.486c1.568,1.368,3.059,1.1,4.631-.075A24.178,24.178,0,0,1,82.69,49.09c.028.953-.812,1.159-1.39,1.555a31.317,31.317,0,0,0-.894,51.422c.646.468,1.651.718,1.543,1.849" transform="translate(52.02 41.057)" fill="#e4e4e4"/>
    <path id="Trazado_161195" data-name="Trazado 161195" d="M79.775,104.563c-1.392-1.1-2.861-2.11-4.165-3.3-6.346-5.814-10.109-12.877-10.728-21.6a31.426,31.426,0,0,1,2.488-14.893A30.409,30.409,0,0,1,79.847,50.345a4.632,4.632,0,0,0,.67-.608c13.5-4.793,29.894,2.977,35.269,16.713a28.87,28.87,0,0,1-22.938,39.494,24.48,24.48,0,0,1-13.073-1.381" transform="translate(54.192 40.41)" fill="#fefefe"/>
    <path id="Trazado_161196" data-name="Trazado 161196" d="M90.143,80.266c-3.337,0-6.673.013-10.01,0-2.707-.013-3.664-.949-3.673-3.686q-.033-10.007,0-20.018c.009-2.351,1.047-3.57,2.859-3.533,1.713.033,2.666,1.144,2.677,3.285.026,5.56.055,11.121-.026,16.681-.018,1.37.3,1.778,1.721,1.754,5.313-.092,10.629-.04,15.941-.031a9.167,9.167,0,0,1,1.84.123,2.556,2.556,0,0,1,2.292,2.881,2.527,2.527,0,0,1-2.687,2.512c-3.645.05-7.292.015-10.937.015v.02" transform="translate(63.934 44.348)"/>
  </g>
</svg>
