<svg xmlns="http://www.w3.org/2000/svg" xmlns:xlink="http://www.w3.org/1999/xlink" width="123" height="123" viewBox="0 0 123 123">
  <defs>
    <clipPath id="clip-path">
      <rect id="Rectángulo_42383" data-name="Rectángulo 42383" width="77.598" height="77.525" fill="none"/>
    </clipPath>
  </defs>
  <g id="Grupo_159218" data-name="Grupo 159218" transform="translate(-420 -1641.58)">
    <circle id="Elipse_4854" data-name="Elipse 4854" cx="61.5" cy="61.5" r="61.5" transform="translate(420 1641.58)" fill="#6b8dfc"/>
    <g id="Grupo_169131" data-name="Grupo 169131" transform="translate(443 1664.58)">
      <g id="Grupo_169131-2" data-name="Grupo 169131" transform="translate(0 0)" clip-path="url(#clip-path)">
        <path id="Trazado_159188" data-name="Trazado 159188" d="M0,73.2V4.235A4.846,4.846,0,0,1,4.234,0H56.708c3.034.524,4.6,2.407,4.606,5.536q0,10.247,0,20.492a2.183,2.183,0,0,0,.06.814c.34-.062.479-.324.666-.51,1.948-1.937,3.881-3.889,5.833-5.823a5.7,5.7,0,0,1,8.716,7.281,10.181,10.181,0,0,1-1.282,1.487Q68.731,35.851,62.146,42.42a2.669,2.669,0,0,0-.846,2.069q.032,13.8.015,27.6a5.415,5.415,0,0,1-2.451,4.68,4.633,4.633,0,0,1-2.795.743q-13.835-.006-27.671,0c-7.788,0-15.574-.02-23.362.015A5.106,5.106,0,0,1,.562,75.054,5.234,5.234,0,0,1,0,73.2" transform="translate(0 0)"/>
        <path id="Trazado_159189" data-name="Trazado 159189" d="M28.72,72.561c-.252-1.145-.7-1.508-1.884-1.509-4.788,0-9.575-.013-14.363.015-.6,0-.725-.168-.725-.742q.023-28.918,0-57.836c0-.575.122-.751.726-.741,2.418.039,4.838.025,7.256.008.443,0,.632.055.67.587a4.606,4.606,0,0,0,4.446,4.24q8.389.067,16.781,0a4.614,4.614,0,0,0,4.444-4.245c.036-.447.126-.59.6-.585q3.741.038,7.484,0c.489-.006.567.148.566.592q-.02,13.232,0,26.461a1.063,1.063,0,0,1-.408.909,8.692,8.692,0,0,0-2.452,3.551c-1.141,2.708-2.362,5.381-3.569,8.061a1.644,1.644,0,0,0,.161,2.023,1.61,1.61,0,0,0,2.016.184c1.381-.642,2.783-1.239,4.243-1.885v1.593c0,5.721-.008,11.442.013,17.162,0,.52-.111.666-.651.663-4.812-.024-9.625-.015-14.438-.013-1.186,0-1.635.366-1.883,1.509a5.52,5.52,0,0,1-2.828.157c-.328-.113-.383-.434-.516-.693a1.289,1.289,0,0,0-2.329-.019c-.136.258-.188.579-.511.7a5.442,5.442,0,0,1-2.845-.15" transform="translate(-2.688 -2.688)" fill="#fefefe"/>
        <path id="Trazado_159190" data-name="Trazado 159190" d="M32.978,70.766h2.98a1.6,1.6,0,0,0,1.882,1.514q8.09,0,16.178,0c1.4,0,1.922-.521,1.922-1.91,0-7.032.009-14.064-.014-21.095a.959.959,0,0,1,.72-1.105c.772-.271,1.5-.659,2.32-1.027v.813q0,12.362,0,24.725c0,1.852-.764,2.624-2.6,2.624H6.547c-1.853,0-2.625-.763-2.625-2.6q0-33.079,0-66.158c0-1.857.761-2.628,2.594-2.629,3.78,0,7.56.015,11.34-.016.613-.005.788.177.726.755-.079.742.313,1.74-.163,2.164-.413.368-1.388.117-2.115.12-2.495.005-4.99,0-7.485,0-1.351,0-1.872.524-1.872,1.88q0,30.773,0,61.546c0,1.388.524,1.909,1.922,1.909q8.09,0,16.178,0a1.6,1.6,0,0,0,1.883-1.514h2.98c.217.123.258.361.359.557a1.3,1.3,0,0,0,2.351,0c.1-.2.143-.435.359-.558" transform="translate(-0.897 -0.893)" fill="#79b1fe"/>
        <path id="Trazado_159191" data-name="Trazado 159191" d="M36.686,3.92c3.047,0,6.093.012,9.14-.012.528,0,.737.074.72.678-.048,1.761-.009,3.525-.019,5.287a1.71,1.71,0,0,1-1.913,1.909q-7.931.008-15.862,0a1.708,1.708,0,0,1-1.909-1.913c-.009-1.788.022-3.576-.017-5.363-.011-.537.194-.6.646-.6,3.072.016,6.143.008,9.215.008" transform="translate(-6.137 -0.894)" fill="#bcd8fe"/>
        <path id="Trazado_159192" data-name="Trazado 159192" d="M67.92,34.529V9.219c0-1.886-.382-2.274-2.236-2.274-2.923,0-5.845-.01-8.768.011-.479,0-.673-.1-.635-.617a17.546,17.546,0,0,0,0-1.889c-.012-.36.047-.54.48-.538,4.031.017,8.062,0,12.093.022A2.084,2.084,0,0,1,70.94,6c.011.2.005.4.005.6q0,12.056.013,24.114a1.628,1.628,0,0,1-.556,1.309c-.8.759-1.558,1.565-2.482,2.5" transform="translate(-12.876 -0.895)" fill="#79b1fe"/>
        <path id="Trazado_159193" data-name="Trazado 159193" d="M86.534,36.975c-.119.126-.217.239-.323.344Q79.75,43.782,73.295,50.25c-.283.284-.446.281-.72,0-.928-.959-1.876-1.9-2.828-2.832-.228-.224-.324-.354-.035-.642Q76.217,40.3,82.7,33.806c.17-.17.305-.416.6-.116,1,1.025,2.027,2.031,3.042,3.047.066.066.12.147.2.238" transform="translate(-15.909 -7.676)" fill="#fec05a"/>
        <path id="Trazado_159194" data-name="Trazado 159194" d="M94.968,30.624a3.483,3.483,0,0,1-1.435,2.907c-.2.194-.316,0-.43-.116q-1.5-1.488-2.989-2.985c-.1-.1-.214-.174-.125-.374a2.86,2.86,0,0,1,3.668-1.185,2.337,2.337,0,0,1,1.312,1.753" transform="translate(-20.582 -6.545)" fill="#fe6876"/>
        <path id="Trazado_159195" data-name="Trazado 159195" d="M64.6,59.126c.671-1.505,1.276-2.848,1.864-4.2.149-.341.292-.26.487-.062.639.644,1.277,1.289,1.926,1.923.22.214.238.347-.071.482-1.349.588-2.693,1.186-4.207,1.855" transform="translate(-14.78 -12.514)" fill="#97a0b2"/>
        <path id="Trazado_159196" data-name="Trazado 159196" d="M23.641,23.534c1.511,0,3.022,0,4.532,0,1.2,0,1.779.563,1.781,1.739q.01,4.609,0,9.217c0,1.182-.576,1.742-1.777,1.744q-4.569.009-9.14,0c-1.23,0-1.78-.565-1.781-1.815q-.007-4.532,0-9.066c0-1.286.545-1.817,1.852-1.82,1.511,0,3.022,0,4.532,0" transform="translate(-3.947 -5.384)"/>
        <path id="Trazado_159197" data-name="Trazado 159197" d="M29.958,51.494c0,1.511.005,3.022,0,4.533-.005,1.2-.565,1.778-1.741,1.781q-4.609.01-9.216,0c-1.179,0-1.741-.579-1.743-1.778q-.008-4.571,0-9.142c0-1.23.563-1.778,1.815-1.781q4.532-.006,9.065,0c1.286,0,1.816.546,1.82,1.854,0,1.511,0,3.022,0,4.533" transform="translate(-3.947 -10.32)"/>
        <path id="Trazado_159198" data-name="Trazado 159198" d="M17.255,72.954c0-1.511-.007-3.022,0-4.533a1.531,1.531,0,0,1,1.705-1.738q4.646-.013,9.291,0a1.529,1.529,0,0,1,1.7,1.741q.01,4.609,0,9.217c0,1.178-.579,1.738-1.78,1.741q-4.571.008-9.14,0c-1.227,0-1.774-.567-1.778-1.819-.005-1.536,0-3.072,0-4.609" transform="translate(-3.947 -15.255)"/>
        <path id="Trazado_159199" data-name="Trazado 159199" d="M44.584,68.537a1.7,1.7,0,0,1,1.2.584c.616.63,1.254,1.239,1.861,1.876.25.263.412.263.663,0,.6-.641,1.232-1.259,1.864-1.873a1.522,1.522,0,1,1,2.144,2.129c-.576.6-1.155,1.2-1.765,1.758-.345.319-.421.527-.022.881.639.566,1.229,1.191,1.82,1.809a1.514,1.514,0,0,1,.118,2.221,1.532,1.532,0,0,1-2.276-.107c-.615-.595-1.234-1.189-1.808-1.822-.324-.358-.517-.324-.826.014-.578.631-1.2,1.225-1.812,1.818a1.518,1.518,0,1,1-2.138-2.133c.595-.616,1.182-1.242,1.823-1.806.415-.365.288-.572-.039-.881-.659-.622-1.3-1.266-1.92-1.923a1.437,1.437,0,0,1-.266-1.679,1.463,1.463,0,0,1,1.379-.861" transform="translate(-9.849 -15.681)"/>
        <path id="Trazado_159200" data-name="Trazado 159200" d="M54.089,26.892a1.839,1.839,0,0,1-.573,1.2c-2.194,2.189-4.377,4.388-6.578,6.571a1.524,1.524,0,0,1-2.385,0q-1.566-1.534-3.1-3.1a1.522,1.522,0,1,1,2.138-2.136c.6.578,1.205,1.15,1.757,1.77.332.372.511.29.817-.022,1.731-1.761,3.487-3.5,5.23-5.247a1.528,1.528,0,0,1,1.788-.41,1.507,1.507,0,0,1,.909,1.367" transform="translate(-9.35 -5.809)"/>
        <path id="Trazado_159201" data-name="Trazado 159201" d="M54.09,48.459a1.794,1.794,0,0,1-.529,1.164c-2.228,2.226-4.447,4.462-6.687,6.676a1.492,1.492,0,0,1-2.276-.012q-1.624-1.581-3.207-3.207a1.514,1.514,0,1,1,2.152-2.116c.584.557,1.17,1.114,1.705,1.715.36.4.57.447.982.021,1.7-1.757,3.445-3.467,5.17-5.2a1.538,1.538,0,0,1,1.65-.451,1.46,1.46,0,0,1,1,1.135c.023.1.032.2.044.274" transform="translate(-9.349 -10.746)"/>
        <path id="Trazado_159202" data-name="Trazado 159202" d="M40.688,90.156c-.227,1.023-.757,1.532-1.572,1.511-.789-.021-1.276-.513-1.5-1.511.219-.991.71-1.486,1.5-1.506.817-.021,1.345.484,1.572,1.506" transform="translate(-8.607 -20.283)" fill="#010101"/>
        <path id="Trazado_159203" data-name="Trazado 159203" d="M24.5,34.11c-.956,0-1.912-.015-2.867.008-.361.008-.472-.1-.469-.467q.024-2.868,0-5.735c0-.36.1-.471.467-.468q2.867.023,5.734,0c.36,0,.471.1.468.466q-.024,2.868,0,5.735c0,.36-.1.477-.467.469-.955-.022-1.911-.008-2.867-.008" transform="translate(-4.843 -6.28)" fill="#cae458"/>
        <path id="Trazado_159204" data-name="Trazado 159204" d="M24.425,55.682c-.931,0-1.862-.015-2.792.008-.362.008-.469-.107-.467-.468q.024-2.868,0-5.735c0-.362.107-.47.468-.467q2.867.023,5.734,0c.362,0,.47.107.467.467q-.023,2.868,0,5.735c0,.362-.106.474-.468.467-.98-.022-1.961-.008-2.942-.008" transform="translate(-4.843 -11.216)" fill="#cae458"/>
        <path id="Trazado_159205" data-name="Trazado 159205" d="M27.829,73.941c0,.93-.013,1.861.007,2.791.008.362-.053.537-.483.531-1.91-.022-3.821-.019-5.732,0-.38,0-.455-.141-.453-.484.013-1.911.016-3.822,0-5.732,0-.381.142-.455.484-.453q2.865.02,5.732,0c.381,0,.46.14.453.483-.019.956-.006,1.911-.006,2.867" transform="translate(-4.843 -16.151)" fill="#fe6977"/>
      </g>
    </g>
  </g>
</svg>
