<svg id="Grupo_166763" data-name="Grupo 166763" xmlns="http://www.w3.org/2000/svg" xmlns:xlink="http://www.w3.org/1999/xlink" width="400" height="462.594" viewBox="0 0 400 462.594">
  <defs>
    <clipPath id="clip-path">
      <rect id="Rectángulo_40910" data-name="Rectángulo 40910" width="400" height="328.594" fill="none"/>
    </clipPath>
  </defs>
  <path id="Trazado_141266" data-name="Trazado 141266" d="M429.008,205.942c-3.264,50.515-42.012,98.746-94.49,101.738-60.274,4.617-115.6-28.436-175.638-28.786-30.615-2.625-59.327,9.1-89.163,12.883C2.332,294.25-7.935,215.062,4.632,164.02,57.633-76.614,432.677-43.874,429.008,205.942Z" transform="translate(357.667 0) rotate(90)" fill="#ffd947"/>
  <path id="Trazado_114646" data-name="Trazado 114646" d="M394.563,211.439c-2.462,38.1-31.684,74.472-71.261,76.728-45.457,3.482-87.181-21.446-132.461-21.71-23.089-1.979-44.743,6.861-67.244,9.716-50.82,1.865-58.563-57.856-49.085-96.351C114.484-1.656,397.331,23.035,394.563,211.439Z" transform="translate(-54.068 -19.934)" fill="#fff7da"/>
  <g id="Grupo_165562" data-name="Grupo 165562" transform="translate(0 133.999)">
    <g id="Grupo_165562-2" data-name="Grupo 165562" transform="translate(0 0)" clip-path="url(#clip-path)">
      <path id="Trazado_150188" data-name="Trazado 150188" d="M169.379,24.953c-.416-.1-2.451,1.472-2.854,1.734-3.024,1.962-6.222,4.489-7.021,8.206-.3,1.383-.382,2.808-.707,4.186-.816,3.453-3.989,6.225-3.787,9.837a6.381,6.381,0,0,0,2.865,4.753c3.852,2.815,9.252,3.506,13.865,3.977,2.257.23,4.522.349,6.787.426,2.735.091,7.99.537,9.892-2.027,3.237-4.362-3.387-22.082-7.453-25.4s-11.586-5.7-11.587-5.7" transform="translate(-10.797 10.706)" fill="#2b244a"/>
      <path id="Trazado_150189" data-name="Trazado 150189" d="M177.468,34.754a8.736,8.736,0,0,1-1.658,8.535,32.612,32.612,0,0,1-3.874,3.136,8.294,8.294,0,0,0-2.647,4.632c-.219.893-1.6.516-1.379-.38a10.177,10.177,0,0,1,2.012-4.277,26.8,26.8,0,0,1,3.783-3.081,7.352,7.352,0,0,0,2.385-8.183c-.3-.87,1.076-1.245,1.378-.38" transform="translate(-17.872 14.704)" fill="#8c75b5"/>
      <path id="Trazado_150190" data-name="Trazado 150190" d="M162.352,26.392l7.737,27.983s-9.137,6.505-25.323,1.908l-3.789-15.721Z" transform="translate(28.433 11.326)" fill="#ffa58f"/>
      <path id="Trazado_150191" data-name="Trazado 150191" d="M.474,189.589a35.126,35.126,0,0,1,11.7-20.7c6.44-5.7,14.481-9.545,22.685-12.525a174.235,174.235,0,0,1,28.964-7.6c19.988-3.557,40.4-4.25,60.7-4.412,20.677-.164,41.382.237,62.026-1.108.983-.064.976,1.366,0,1.429-.362.024-1.472,1.612-3.094,4.269h32.974c-1.621-2.657-2.732-4.245-3.094-4.269-.976-.063-.983-1.493,0-1.429,20.644,1.345,41.349.943,62.026,1.108,20.3.161,40.712.855,60.7,4.412a174.215,174.215,0,0,1,28.966,7.6c8.2,2.98,16.245,6.828,22.685,12.525a35.124,35.124,0,0,1,11.7,20.7c1.26,7.8.6,19.215-2.963,26.362-7.22,14.471-25.985,20.5-45.522,21.611-2.115.12-98.193-.7-100.72-.75H149.678c-2.527.05-103,.266-105.116.154-16.714-.887-33.289-9.871-40.509-24.342a38.113,38.113,0,0,1-3.58-23.035" transform="translate(-0.001 61.469)" fill="#2b244a"/>
      <path id="Trazado_150192" data-name="Trazado 150192" d="M152.726,171.422a372.234,372.234,0,0,1,2.358,41.6q.021,5.647-.154,11.292c-.03.918-1.459.922-1.429,0a372.032,372.032,0,0,0-1.112-41.654q-.448-5.629-1.092-11.24c-.106-.912,1.323-.9,1.429,0" transform="translate(28.697 73.271)" fill="#8c75b5"/>
      <path id="Trazado_150193" data-name="Trazado 150193" d="M142.362,171.606a206.956,206.956,0,0,0-10.929,33.828c-.207.9-1.585.517-1.378-.379a206.927,206.927,0,0,1,10.929-33.829c.352-.835,1.735-.467,1.378.38" transform="translate(71.743 73.277)" fill="#8c75b5"/>
      <path id="Trazado_150194" data-name="Trazado 150194" d="M131.039,170.316a206.954,206.954,0,0,0-10.929,33.828c-.207.9-1.585.517-1.379-.38a207.1,207.1,0,0,1,10.93-33.828c.352-.835,1.735-.467,1.378.38" transform="translate(99.25 72.724)" fill="#8c75b5"/>
      <path id="Trazado_150195" data-name="Trazado 150195" d="M167.382,161.058l-47.722,6.2q-23.686,3.076-47.369,6.155l-26.866,3.491c-.909.119-.9-1.312,0-1.429l47.722-6.2q23.686-3.076,47.369-6.155l26.866-3.491c.909-.119.9,1.312,0,1.429" transform="translate(167.991 68.5)" fill="#8c75b5"/>
      <path id="Trazado_150196" data-name="Trazado 150196" d="M49.336,150.426a141.728,141.728,0,0,1,4.142-13.638q2.433-6.753,5.382-13.374A208.368,208.368,0,0,1,72.111,98.4,211.822,211.822,0,0,1,89.038,74.789c5.564-6.711,11.8-13.162,19.453-18.153a52.818,52.818,0,0,1,12.151-5.922,64.675,64.675,0,0,1,15.828-2.81c11.52-.822,23.1-1.02,34.624-1.432,11.362-.406,22.909-1.175,34.192-.36a71.637,71.637,0,0,1,27.329,7.409c16.529,8.353,28.869,21.646,40.485,34.545q10.1,11.218,19.369,23c6.077,7.72,12.128,15.563,17.368,23.764,4.622,7.233,8.012,15.226,6.7,23.858a32.932,32.932,0,0,1-12.083,20.305c-7.109,5.725-16.575,8.7-25.929,9.1-9.715.409-25.449-1.545-37.426-3.711-12.322-2.228-24.608-5.2-38.67-4.546q-23.433,1.085-46.867,2.328-11.756.624-23.511,1.292a146.832,146.832,0,0,1-57.964,13.287c-18.234.273-34.091-8.945-24.746-46.308" transform="translate(16.627 19.634)" fill="#ffeae0"/>
      <path id="Trazado_150197" data-name="Trazado 150197" d="M122.352,46.626c4.215,4.152,3.187,10.533,3.23,15.885.021,2.91.31,5.9,1.866,8.428,1.824,2.97,4.532,5.182,5.438,8.681.846,3.27.309,6.693-.236,9.965-.6,3.619-1.233,7.223-.51,10.874.7,3.557,2.194,6.894,3.015,10.42a19.22,19.22,0,0,1,.559,5.162,28.852,28.852,0,0,1-.887,5.426,35.82,35.82,0,0,0-1.2,6.463,20.635,20.635,0,0,0,.795,6.157c1,3.883,2.478,7.724,2.2,11.8-.061.912-1.492.919-1.429,0,.247-3.636-.963-7.079-1.912-10.534a22.636,22.636,0,0,1-.693-10.483c.69-3.657,1.994-7.2,1.638-10.979-.339-3.589-1.805-6.961-2.8-10.394a24.385,24.385,0,0,1-.8-10.193c.449-3.454,1.355-6.9,1.265-10.4a11.509,11.509,0,0,0-1.186-5.031,27.028,27.028,0,0,0-3.033-4.189,15.105,15.105,0,0,1-3.333-7.842c-.392-3.223-.054-6.474-.129-9.708-.07-3.093-.576-6.242-2.87-8.5-.656-.646.354-1.656,1.01-1.01" transform="translate(90.232 19.92)" fill="#dec6bd"/>
      <path id="Trazado_150198" data-name="Trazado 150198" d="M84.47,50.628c9.4,5.644,4.706,19.463,12.148,26.566,2.377,2.269,5.336,3.856,7.294,6.558a16.981,16.981,0,0,1,2.783,8.126c.367,3.168.269,6.365.5,9.544a23.855,23.855,0,0,0,2.38,9.1c1.625,3.266,3.76,6.25,5.366,9.527a22.588,22.588,0,0,1,1.791,4.818,25.525,25.525,0,0,1,.486,6.454.715.715,0,0,1-1.429,0,21.722,21.722,0,0,0-1.961-10.3c-1.353-2.828-3.123-5.429-4.639-8.169a25.457,25.457,0,0,1-3.126-8.662,90.433,90.433,0,0,1-.553-9.079,22.1,22.1,0,0,0-1.756-8.849c-1.442-2.923-4.046-4.68-6.521-6.655A15.973,15.973,0,0,1,92.3,73.366a34.32,34.32,0,0,1-2-7.223c-.976-5.122-1.628-11.327-6.545-14.281a.715.715,0,0,1,.722-1.233" transform="translate(163.567 21.68)" fill="#dec6bd"/>
      <path id="Trazado_150199" data-name="Trazado 150199" d="M68.756,77.5c3.38,4.267,2.734,9.8,3.01,14.894a19.526,19.526,0,0,0,1.958,7.8c1.226,2.47,2.791,4.755,4.01,7.229a19.142,19.142,0,0,1,1.912,9.548c-.036.916-1.465.922-1.429,0a17.489,17.489,0,0,0-1.536-8.453c-1.14-2.408-2.638-4.623-3.873-6.981a20.539,20.539,0,0,1-2.3-7.1c-.317-2.591-.212-5.206-.339-7.809-.139-2.861-.6-5.807-2.425-8.116-.565-.713.44-1.732,1.01-1.01" transform="translate(223.756 33.15)" fill="#dec6bd"/>
      <path id="Trazado_150200" data-name="Trazado 150200" d="M123.129,131.677c-3.377,2.948-7.86,2.815-12.068,2.427-4.61-.424-9.4-1.129-13.555,1.416-2.2,1.35-4.159,3.078-6.661,3.873a15.937,15.937,0,0,1-7.5.22c-2.637-.45-5.2-1.235-7.82-1.771a21.856,21.856,0,0,0-8.448-.159c-3.116.567-6.14,1.569-9.278,2.021a21.15,21.15,0,0,1-9.415-.882c-.879-.267-.5-1.648.379-1.379a19.734,19.734,0,0,0,8.382.92c2.764-.347,5.441-1.185,8.158-1.776a23.7,23.7,0,0,1,7.885-.569,67.165,67.165,0,0,1,7.607,1.6,22.509,22.509,0,0,0,7.622.833c2.667-.293,4.763-1.724,6.911-3.206a15.226,15.226,0,0,1,6.245-2.771,26.6,26.6,0,0,1,6.518-.079c4.579.386,10.21,1.6,14.024-1.731.69-.6,1.7.4,1.01,1.01" transform="translate(208.201 55.994)" fill="#dec6bd"/>
      <path id="Trazado_150201" data-name="Trazado 150201" d="M124.568,112.9c-3.378,2.948-7.86,2.815-12.068,2.427-4.61-.426-9.4-1.129-13.555,1.416-2.2,1.351-4.159,3.078-6.661,3.873a15.937,15.937,0,0,1-7.5.22c-2.637-.45-5.2-1.235-7.82-1.771a21.856,21.856,0,0,0-8.448-.159c-3.116.567-6.14,1.569-9.278,2.021a21.158,21.158,0,0,1-9.417-.882c-.877-.267-.5-1.646.38-1.379a19.732,19.732,0,0,0,8.382.92c2.764-.347,5.441-1.185,8.158-1.776a23.7,23.7,0,0,1,7.885-.569,66.855,66.855,0,0,1,7.607,1.6,22.51,22.51,0,0,0,7.622.833c2.667-.293,4.763-1.724,6.911-3.206a15.226,15.226,0,0,1,6.245-2.771,26.667,26.667,0,0,1,6.518-.08c4.579.387,10.21,1.6,14.024-1.729.69-.6,1.7.4,1.01,1.01" transform="translate(204.705 47.938)" fill="#dec6bd"/>
      <path id="Trazado_150202" data-name="Trazado 150202" d="M184.079,134.545c3.35,2.924,8.132,2.292,12.215,1.9,4.4-.424,8.916-.769,12.871,1.572,2.185,1.293,4.109,3.1,6.567,3.877a15.309,15.309,0,0,0,7.613.059c2.58-.509,5.1-1.276,7.689-1.754a22.645,22.645,0,0,1,7.686-.144c3.081.477,6.057,1.461,9.125,2a19.953,19.953,0,0,0,9.587-.733c.882-.267,1.258,1.112.379,1.379a20.794,20.794,0,0,1-8.451,1.006,69.926,69.926,0,0,1-8.073-1.688,23.617,23.617,0,0,0-8.481-.666c-2.68.349-5.278,1.136-7.909,1.726a21.363,21.363,0,0,1-7.59.622,15.975,15.975,0,0,1-6.921-3.177,14.575,14.575,0,0,0-6.538-2.848,31.278,31.278,0,0,0-6.907.134c-4.738.45-9.994,1.13-13.871-2.255-.695-.606.32-1.613,1.01-1.01" transform="translate(-119.608 57.659)" fill="#dec6bd"/>
      <path id="Trazado_150203" data-name="Trazado 150203" d="M181.3,115.77c3.35,2.925,8.132,2.292,12.216,1.9,4.4-.424,8.915-.769,12.869,1.572,2.185,1.293,4.109,3.1,6.567,3.879a15.326,15.326,0,0,0,7.613.057c2.58-.509,5.1-1.276,7.689-1.754a22.645,22.645,0,0,1,7.686-.144c3.081.477,6.057,1.461,9.125,2a19.988,19.988,0,0,0,9.587-.733c.882-.269,1.258,1.11.379,1.378a20.794,20.794,0,0,1-8.451,1.006,69.929,69.929,0,0,1-8.073-1.688,23.617,23.617,0,0,0-8.48-.666c-2.68.349-5.278,1.136-7.909,1.726a21.364,21.364,0,0,1-7.59.622,15.975,15.975,0,0,1-6.921-3.177,14.575,14.575,0,0,0-6.538-2.848,31.366,31.366,0,0,0-6.907.134c-4.738.45-9.994,1.13-13.871-2.255-.695-.606.32-1.613,1.01-1.01" transform="translate(-112.855 49.601)" fill="#dec6bd"/>
      <path id="Trazado_150204" data-name="Trazado 150204" d="M108.972,47.616c4.315,4.219,3.14,10.751,3.234,16.188.053,3.094.522,6.082,2.338,8.663,1,1.418,2.207,2.677,3.193,4.1a11.975,11.975,0,0,1,2,4.863c.7,4.246-.51,8.516-1.08,12.705-.124.907-1.5.522-1.379-.38.5-3.661,1.508-7.354,1.188-11.077a10.913,10.913,0,0,0-1.795-5.152c-.906-1.366-2.035-2.565-3.015-3.877-3.671-4.913-2.684-10.876-2.818-16.614-.071-3.068-.586-6.18-2.87-8.413-.659-.645.352-1.654,1.01-1.01" transform="translate(126.07 20.345)" fill="#dec6bd"/>
      <path id="Trazado_150205" data-name="Trazado 150205" d="M137.856,58.5c4.087,4.429,2.672,10.826,2.49,16.268-.1,3.043.134,6.092,1.748,8.753,1.755,2.894,4.163,5.245,4.795,8.7,1.276,6.983-2.857,13.674-1.755,20.7.563,3.591,1.908,7,2.53,10.581a18.736,18.736,0,0,1,.253,5.255,30.883,30.883,0,0,1-1.153,5.251,34.9,34.9,0,0,0-1.465,6.242,20.142,20.142,0,0,0,.453,5.967c.812,3.994,2.169,7.97,1.692,12.1-.1.9-1.535.913-1.429,0,.42-3.636-.625-7.14-1.411-10.65a22.556,22.556,0,0,1-.227-10.386c.837-3.55,2.307-6.981,2.2-10.691-.11-3.62-1.4-7.07-2.252-10.554a24.507,24.507,0,0,1-.459-10.051c.566-3.436,1.656-6.81,1.818-10.3a12.418,12.418,0,0,0-.7-5.012,18.657,18.657,0,0,0-2.634-4.277,18.543,18.543,0,0,1-2.43-4.047,14.662,14.662,0,0,1-.926-4.145c-.3-3.288.2-6.58.3-9.865.093-3.14-.209-6.411-2.435-8.825-.623-.675.384-1.688,1.01-1.01" transform="translate(56.705 25.009)" fill="#dec6bd"/>
      <path id="Trazado_150206" data-name="Trazado 150206" d="M163.886,56.6c3.3,5.062.743,11.259-.332,16.6-.612,3.044-.8,6.1.427,9.024,1.326,3.16,3.2,5.894,3.161,9.458-.036,3.281-1.291,6.39-2.494,9.389-1.325,3.3-2.607,6.6-2.681,10.2-.077,3.763.732,7.479.73,11.239a22.74,22.74,0,0,1-2.685,10.057,37.216,37.216,0,0,0-2.341,5.492,19.465,19.465,0,0,0-.65,6.148c.119,4.155.822,8.355-.36,12.428a.715.715,0,0,1-1.378-.38c1.052-3.626.522-7.391.346-11.094a22.012,22.012,0,0,1,1.613-10.04c1.4-3.271,3.358-6.361,3.86-9.948.512-3.661-.219-7.363-.476-11.013a24.59,24.59,0,0,1,1.425-10.34c1.108-3.063,2.577-6.022,3.3-9.214a12.306,12.306,0,0,0,.207-4.925,18.7,18.7,0,0,0-1.949-4.923,15.643,15.643,0,0,1-1.924-8.606c.276-3.316,1.3-6.5,1.952-9.742.616-3.1.813-6.337-.982-9.091-.5-.773.732-1.491,1.233-.722" transform="translate(10.979 24.146)" fill="#dec6bd"/>
      <path id="Trazado_150207" data-name="Trazado 150207" d="M178.044,47.988c3.408,4.982.979,11.247.024,16.6-.547,3.074-.66,6.164.66,9.064,1.411,3.1,3.3,5.8,3.34,9.335.037,3.278-1.155,6.418-2.289,9.441-1.252,3.336-2.457,6.653-2.45,10.261.006,3.766.9,7.462.978,11.222a22.729,22.729,0,0,1-2.47,10.111,37.321,37.321,0,0,0-2.215,5.545,19.5,19.5,0,0,0-.51,6.161c.212,4.153,1,8.332-.089,12.432a.715.715,0,0,1-1.378-.38c.97-3.644.353-7.4.1-11.1a21.915,21.915,0,0,1,1.441-10.178c1.356-3.293,3.223-6.447,3.6-10.051.386-3.637-.4-7.267-.733-10.874a24.59,24.59,0,0,1,1.2-10.368c1.039-3.087,2.442-6.078,3.091-9.285A12.281,12.281,0,0,0,180.432,81a18.78,18.78,0,0,0-2.061-4.878,15.645,15.645,0,0,1-2.107-8.563c.2-3.32,1.165-6.523,1.741-9.782.549-3.113.66-6.353-1.2-9.065-.52-.762.717-1.476,1.235-.722" transform="translate(-27.336 20.456)" fill="#dec6bd"/>
      <path id="Trazado_150208" data-name="Trazado 150208" d="M210.582,51.252c1.946,4.758-.553,9.628-2.5,13.937a25.644,25.644,0,0,0-2.451,7.407c-.366,3.133.95,5.917,1.516,8.928,1.043,5.555-2.091,10.143-4.932,14.6a26.566,26.566,0,0,0-3.669,7.624c-.792,3.114-.837,6.345-1.222,9.521A22.1,22.1,0,0,1,194,122.927c-1.885,2.911-4.206,5.566-5.637,8.755-.376.837-1.608.111-1.233-.722a49.7,49.7,0,0,1,4.883-7.634,20.828,20.828,0,0,0,3.644-8.408c.536-3.068.569-6.2,1.055-9.275a22.884,22.884,0,0,1,2.881-7.967c2.531-4.382,6.554-8.795,6.363-14.17-.11-3.08-1.662-5.905-1.816-8.988a17.367,17.367,0,0,1,1.486-7.2c1.918-4.829,5.769-10.336,3.58-15.686-.349-.85,1.033-1.222,1.378-.38" transform="translate(-78.618 21.79)" fill="#dec6bd"/>
      <path id="Trazado_150209" data-name="Trazado 150209" d="M243.266,61.613a10.363,10.363,0,0,1-2.39,5.889,52.213,52.213,0,0,1-4.446,4.245,11.8,11.8,0,0,0-3.48,5.5c-.849,3.264.116,6.686-.677,9.965-1.226,5.072-5.729,8.362-9.278,11.809a22.756,22.756,0,0,0-4.86,6.461c-1.318,2.745-2.121,5.7-3.28,8.512a21.441,21.441,0,0,1-5.462,7.9c-2.527,2.307-5.394,4.28-7.544,6.971-.575.719-1.579-.3-1.01-1.01a48.7,48.7,0,0,1,6.574-6.112,20.765,20.765,0,0,0,5.455-6.768c1.3-2.7,2.094-5.607,3.226-8.375a22.984,22.984,0,0,1,4.176-6.823c3.293-3.657,7.929-6.518,10.008-11.132,1.388-3.08.663-6.357.938-9.6a11.975,11.975,0,0,1,2.537-6.49,51.159,51.159,0,0,1,4.889-4.75,9.6,9.6,0,0,0,3.2-6.2c.074-.91,1.5-.919,1.429,0" transform="translate(-130.053 26.146)" fill="#dec6bd"/>
      <path id="Trazado_150210" data-name="Trazado 150210" d="M166.547,46.958s-1.621,9.491-13.212,9.491c-10.56,0-12.358-8.609-12.358-8.609l11.1-4.165Z" transform="translate(31.977 18.743)" fill="#ffa58f"/>
      <path id="Trazado_150211" data-name="Trazado 150211" d="M121.686,105.972a347.137,347.137,0,0,0-44.638,7.283c-3.8.869-7.58,1.814-11.32,2.907a.715.715,0,0,1-.38-1.378c7.017-2.052,14.174-3.621,21.346-5.023q11.63-2.274,23.381-3.864c3.862-.522,7.732-.988,11.612-1.353.915-.086.909,1.343,0,1.429" transform="translate(184.955 44.862)" fill="#2b244a"/>
      <path id="Trazado_150212" data-name="Trazado 150212" d="M177.808,106.143a252.928,252.928,0,0,1,37.168,4.495q5.316,1.046,10.586,2.322c.893.214.516,1.593-.38,1.378a251.548,251.548,0,0,0-36.8-6.057q-5.28-.467-10.577-.709c-.916-.043-.92-1.472,0-1.429" transform="translate(-79.199 45.55)" fill="#2b244a"/>
      <path id="Trazado_150213" data-name="Trazado 150213" d="M190.169,81.872q-2.682,19.525-4.226,39.181c-.071.91-1.5.919-1.429,0q1.563-19.838,4.277-39.561c.124-.908,1.5-.52,1.378.38" transform="translate(-53.869 34.749)" fill="#2b244a"/>
      <path id="Trazado_150214" data-name="Trazado 150214" d="M106.592,80q2.707,19.716,4.276,39.561c.073.916-1.358.912-1.429,0q-1.548-19.647-4.225-39.181c-.124-.9,1.253-1.289,1.378-.38" transform="translate(138.776 34.108)" fill="#2b244a"/>
      <path id="Trazado_150215" data-name="Trazado 150215" d="M239.8,103.178l-6.986,98.875H95.074L88.11,103.166a1.653,1.653,0,0,1,1.649-1.769H238.148a1.653,1.653,0,0,1,1.648,1.781" transform="translate(34.285 43.513)" fill="#d9a389"/>
      <path id="Trazado_150216" data-name="Trazado 150216" d="M145.512,151.137c7.81,0,14.166-5.012,14.166-11.17s-6.355-11.17-14.166-11.17-14.166,5.011-14.166,11.17,6.355,11.17,14.166,11.17m0-20.911c7.023,0,12.736,4.37,12.736,9.741s-5.714,9.741-12.736,9.741-12.736-4.37-12.736-9.741,5.714-9.741,12.736-9.741" transform="translate(52.611 55.272)" fill="#2b244a"/>
      <path id="Trazado_150217" data-name="Trazado 150217" d="M100.216,184.388c3.543-.067,18.642-.13,22.147.219a12.724,12.724,0,0,1,7.383,3.241c5.458,4.83,19.672,19.9,24.793,25.076,4.563,4.615,9.161,9.217,13.284,14.237,3.929,4.783,8.832,10.211,7.449,16.881-.553,2.668-2.331,5.092-5.195,5.406-2.059.226-4.157-.59-6.1-1.169-2.028-.6-43.257-24.161-52.459-28.946-3.331-.049-7.146-.079-10.734-.157,0,0,.23-11.359.192-16.386-.027-3.67-.76-18.4-.76-18.4" transform="translate(81.268 79.105)" fill="#ffeae0"/>
      <path id="Trazado_150218" data-name="Trazado 150218" d="M137,184.61a12.661,12.661,0,0,1,7.389,3.244c2.315,2.058,6.217,5.959,10.333,10.161a23.132,23.132,0,0,1-28.168-10.4,22.8,22.8,0,0,1-1.543-3.273c4.945.014,10.118.086,11.99.272" transform="translate(66.631 79.106)" fill="#dec6bd"/>
      <path id="Trazado_150219" data-name="Trazado 150219" d="M101.247,226.058a28.206,28.206,0,0,1,11.5-14.134c.272-.171.543-.343.829-.486,1.2,1.329,2.387,2.7,3.53,4.087,3.93,4.788,8.832,10.218,7.446,16.892-.543,2.658-2.329,5.088-5.188,5.4-2.058.229-4.159-.6-6.1-1.172-.7-.2-6-3.116-13.048-7.031V229.6a25.734,25.734,0,0,1,1.029-3.544" transform="translate(131.978 90.736)" fill="#dec6bd"/>
      <path id="Trazado_150220" data-name="Trazado 150220" d="M163.578,169.964a394.011,394.011,0,0,1,2.475,43.814c.017,3.953-.026,7.906-.156,11.858-.03.918-1.459.922-1.429,0a394.2,394.2,0,0,0-1.178-43.869c-.313-3.942-.685-7.877-1.142-11.8-.106-.912,1.323-.9,1.429,0" transform="translate(2.217 72.645)" fill="#8c75b5"/>
      <path id="Trazado_150221" data-name="Trazado 150221" d="M153.647,159.629l47.722,6.2q23.686,3.076,47.369,6.155l26.866,3.491c.9.117.91,1.548,0,1.429l-47.722-6.2q-23.686-3.076-47.369-6.155l-26.866-3.491c-.9-.117-.91-1.548,0-1.429" transform="translate(-94.895 68.5)" fill="#8c75b5"/>
      <path id="Trazado_150222" data-name="Trazado 150222" d="M188.722,21.38C190.212,6.017,178.166.152,163.7.595S144.524,6.181,140.057,17.74s-8.713,25.462-9.211,29.372c-.619,4.856,2.251,13.182,13.452,12.1a54.555,54.555,0,0,0,26.025-9.822c4.373-3.023,16.908-12.648,18.4-28.011" transform="translate(24.27 0.245)" fill="#ffa58f"/>
      <path id="Trazado_150223" data-name="Trazado 150223" d="M129.949,16.05s.121-7.586,8.729-12.551c6.534-3.769,21.3-5.149,31.714.316s12.245,21.6,1.748,34.172c-7.86,9.414-8.625,10.27-8.625,10.27s-11.788-4.119-9.174-19.072c-3.481-.35-6.977-2.915-7.687-6.431-1.248-6.177-2.352-10.287-6.064-11.493-2.574-.836-4.933-.972-6.721.446a29.253,29.253,0,0,0-3.92,4.343" transform="translate(35.121 0.079)" fill="#2b244a"/>
      <path id="Trazado_150224" data-name="Trazado 150224" d="M152.4,22.619c-1.032-2.417-4.21-2.587-6.282-3.687a12.2,12.2,0,0,1-4.978-4.976c-.639-1.183-1.123-2.444-1.829-3.59a15.74,15.74,0,0,0-2.381-2.938,18.352,18.352,0,0,0-6.39-4.119c-.855-.319-.484-1.7.38-1.379a20.056,20.056,0,0,1,6.6,4.086,20.332,20.332,0,0,1,4.419,6.358,11.4,11.4,0,0,0,5.4,5.575c2.261,1.058,5.191,1.358,6.3,3.949.357.836-.873,1.566-1.233.722" transform="translate(60.429 0.807)" fill="#8c75b5"/>
      <path id="Trazado_150225" data-name="Trazado 150225" d="M135.957,21.387s-8.561,19.576,8.868,23.075c0,0,11.06-8.436,10.34-10.11s-9.67-16-9.67-16Z" transform="translate(53.506 7.877)" fill="#2b244a"/>
      <path id="Trazado_150226" data-name="Trazado 150226" d="M162.744,53.613a6.781,6.781,0,0,1-4.549,5.945,15.311,15.311,0,0,1-6.277.487c-3.387-.263-6.624-.767-9.913.323-2.955.98-5.787,2.671-8.981,2.688a8.916,8.916,0,0,1-8.565-7.147c-.777-4.513,2.149-8.785,2.288-13.27.117-3.766-.367-8.355,3.41-10.584,0,0,14.927-11.82,16.659-9.024,1.083,1.752.952,3.943,2.3,5.569,1.856,2.249,4.459,3.216,5.735,6.007,1.215,2.66,1.429,5.662,2.705,8.3,1.7,3.521,5.536,6.438,5.191,10.7" transform="translate(59.552 9.7)" fill="#2b244a"/>
      <path id="Trazado_150227" data-name="Trazado 150227" d="M148.42,59.36c-3.694-3.413-3.943-8.866-4.087-13.553a31.834,31.834,0,0,0-1.082-8.419c-.775-2.538-1.775-5.022-1.682-7.722.031-.918,1.462-.922,1.429,0-.089,2.567.9,4.929,1.631,7.341a30.041,30.041,0,0,1,1.1,7.8c.16,4.586.037,10.16,3.7,13.545.677.626-.336,1.634-1.01,1.01" transform="translate(48.034 12.435)" fill="#8c75b5"/>
      <path id="Trazado_150228" data-name="Trazado 150228" d="M162.842,35.325c-2.389-1.491-4.806-3.261-6.128-5.822-1.439-2.79-1.3-6.1-2.968-8.8a9.289,9.289,0,0,0-3.117-3.108,26.915,26.915,0,0,0-4.513-1.818,24.091,24.091,0,0,1-5.824-3.208A19.555,19.555,0,0,1,134.361,6c-.423-.815.81-1.538,1.233-.72,2.2,4.235,6.608,7.55,11.046,9.176,2.741,1,5.4,1.835,7.343,4.157a11.746,11.746,0,0,1,1.979,3.394,48.022,48.022,0,0,1,1.208,4.653c.933,3.466,3.451,5.6,6.394,7.432.779.486.061,1.724-.722,1.235" transform="translate(44.204 2.111)" fill="#8c75b5"/>
      <path id="Trazado_150229" data-name="Trazado 150229" d="M149.49,58.176a27.985,27.985,0,0,0-1.688-8.643,15.005,15.005,0,0,0-5.092-5.941,55.064,55.064,0,0,1-6.025-4.712,22.809,22.809,0,0,1-4.029-6.075c-1.27-2.512-2.531-5.206-4.849-6.933-.729-.543-.017-1.784.722-1.233,4.335,3.227,5.162,8.908,8.708,12.755,3.657,3.969,9.2,5.908,11.617,11.017,1.443,3.05,1.772,6.448,2.065,9.765.081.916-1.349.91-1.429,0" transform="translate(66.86 10.514)" fill="#8c75b5"/>
      <path id="Trazado_150230" data-name="Trazado 150230" d="M142.142,27.517a8.129,8.129,0,1,0,9.066-7.067,8.128,8.128,0,0,0-9.066,7.067" transform="translate(38.61 8.749)" fill="#ffa58f"/>
      <path id="Trazado_150231" data-name="Trazado 150231" d="M132.911.39a11.342,11.342,0,0,1,8.032,8.165c1.3,5.738-2.471,10.516-5.6,12.286-3.842,2.178-8.994,2.031-13.428.173a9.207,9.207,0,0,1-5.232-7.106,11.712,11.712,0,0,1,1.608-8.37c1.712-2.532,4.25-3.746,6.728-4.625A13.12,13.12,0,0,1,132.911.39" transform="translate(92.286 0)" fill="#2b244a"/>
      <path id="Trazado_150232" data-name="Trazado 150232" d="M133.47,18.427a16.131,16.131,0,0,0-4.2-12.449c-.635-.666.374-1.678,1.01-1.01a17.516,17.516,0,0,1,4.623,13.46c-.069.912-1.5.919-1.429,0" transform="translate(80.598 2.038)" fill="#8c75b5"/>
      <path id="Trazado_150233" data-name="Trazado 150233" d="M162.6,18.717a6.407,6.407,0,0,0,.73.063c2.572.107,3.8,2.238,5.216.374,1.025-1.366.6-2.908-2.3-3.863a7.835,7.835,0,0,0-2.235-.412h-.013a2.761,2.761,0,0,0-1.4,3.837" transform="translate(-0.943 6.386)" fill="#2b244a"/>
      <path id="Trazado_150234" data-name="Trazado 150234" d="M152.9,19.547c-.127,2.335,2.179,1.506,4.223,3.083,1.881,1.448,3.384,1.815,3.849.622.56-1.441-.815-3.953-3.829-5.173-2.824-1.143-4.15-.234-4.243,1.469" transform="translate(20.407 7.539)" fill="#2b244a"/>
      <path id="Trazado_150235" data-name="Trazado 150235" d="M162.875,40.7a23.079,23.079,0,0,1-4.069,1.882,31.593,31.593,0,0,1-4.473,1.088.734.734,0,0,1-.879-.5.722.722,0,0,1,.5-.879,31.868,31.868,0,0,0,4.357-1.05,21.028,21.028,0,0,0,3.842-1.775.715.715,0,0,1,.722,1.233" transform="translate(17.502 16.895)" fill="#2b244a"/>
      <path id="Trazado_150236" data-name="Trazado 150236" d="M144.992,31.222a4.259,4.259,0,0,0,2.339-3.489,3.526,3.526,0,0,0-1.9-3.523.737.737,0,0,1-.5-.879.718.718,0,0,1,.879-.5,4.929,4.929,0,0,1,2.961,4.785,5.709,5.709,0,0,1-3.055,4.838c-.82.412-1.545-.82-.722-1.233" transform="translate(44.531 9.782)" fill="#2b244a"/>
      <path id="Trazado_150237" data-name="Trazado 150237" d="M176.86,46.177c-.9,7.716-5.308,14.856-12.4,18.309A19.826,19.826,0,0,1,142.079,61a29.336,29.336,0,0,1-7.217-12.761.716.716,0,0,1,1.379-.38,28.579,28.579,0,0,0,5.684,10.889,17.882,17.882,0,0,0,10.1,5.947,19.222,19.222,0,0,0,18.63-6.944,22.342,22.342,0,0,0,4.779-11.577c.106-.9,1.535-.913,1.429,0" transform="translate(30.444 19.524)" fill="#2b244a"/>
      <path id="Trazado_150238" data-name="Trazado 150238" d="M165.161,29.512a4.358,4.358,0,0,1-2.9-1.475,1.84,1.84,0,0,1-.489-1.714,3.084,3.084,0,0,1,1.082-1.349,27.29,27.29,0,0,0,3.843-3.757.737.737,0,0,1,.978-.257.719.719,0,0,1,.256.978,18.759,18.759,0,0,1-1.645,1.916c-.5.5-1.042.949-1.578,1.4q-.521.444-1.033.893c-.2.174-.642.443-.489.742a2.681,2.681,0,0,0,1.976,1.189.738.738,0,0,1,.715.715.718.718,0,0,1-.715.715" transform="translate(0.858 8.953)" fill="#2b244a"/>
      <path id="Trazado_150239" data-name="Trazado 150239" d="M97.472,175.759H235.331l11.366-10.11a1.688,1.688,0,0,0-1.085-2.981H86.312a1.688,1.688,0,0,0-1.075,2.99Z" transform="translate(31.762 69.807)" fill="#d9a389"/>
      <path id="Trazado_150240" data-name="Trazado 150240" d="M190.917,163.117q.375,6.015.753,12.032c.057.917-1.372.915-1.429,0q-.377-6.017-.753-12.032c-.057-.919,1.372-.915,1.429,0" transform="translate(-62.473 69.705)" fill="#2b244a"/>
      <path id="Trazado_150241" data-name="Trazado 150241" d="M93.5,163.117q-.377,6.015-.753,12.032c-.056.913-1.486.919-1.429,0q.377-6.017.753-12.032c.057-.913,1.486-.92,1.429,0" transform="translate(175.991 69.705)" fill="#2b244a"/>
      <path id="Trazado_150242" data-name="Trazado 150242" d="M169.674,31.446a6.672,6.672,0,0,1-7.5-2.377.721.721,0,0,1,.256-.978.73.73,0,0,1,.978.257,5.24,5.24,0,0,0,5.889,1.719.72.72,0,0,1,.879.5.729.729,0,0,1-.5.879" transform="translate(-1.816 12.014)" fill="#2b244a"/>
      <path id="Trazado_150243" data-name="Trazado 150243" d="M158.367,22.435a1.715,1.715,0,0,1,1.618-.283,1.622,1.622,0,0,1,.9,1.571,5.634,5.634,0,0,1-.454,1.954,3.591,3.591,0,0,1-1.393,1.858c-1.159.627-2.129-.3-2.207-1.426a4.97,4.97,0,0,1,1.536-3.673" transform="translate(14.991 9.465)" fill="#2b244a"/>
      <path id="Trazado_150244" data-name="Trazado 150244" d="M166.425,19.625a1.715,1.715,0,0,1,1.618-.283,1.621,1.621,0,0,1,.9,1.571,5.635,5.635,0,0,1-.454,1.954,3.591,3.591,0,0,1-1.393,1.858c-1.159.627-2.129-.3-2.207-1.426a4.97,4.97,0,0,1,1.536-3.673" transform="translate(-4.583 8.259)" fill="#2b244a"/>
      <path id="Trazado_150245" data-name="Trazado 150245" d="M166.06,2.5a71.9,71.9,0,0,0-14.331,2.157c-4,1.1-8.066,2.758-10.953,5.842-.63.673-1.639-.339-1.01-1.01,2.985-3.191,7.179-4.973,11.314-6.135a73.058,73.058,0,0,1,14.98-2.282c.919-.06.915,1.369,0,1.429" transform="translate(33.792 0.461)" fill="#8c75b5"/>
    </g>
  </g>
</svg>
