<svg xmlns="http://www.w3.org/2000/svg" xmlns:xlink="http://www.w3.org/1999/xlink" width="276" height="224" viewBox="0 0 276 224">
  <defs>
    <clipPath id="clip-path">
      <rect id="Rectángulo_40829" data-name="Rectángulo 40829" width="276" height="224" rx="10" transform="translate(1125 966)" fill="#c6b3ae"/>
    </clipPath>
    <clipPath id="clip-path-2">
      <rect id="Rectángulo_41937" data-name="Rectángulo 41937" width="309.655" height="297.375" fill="none"/>
    </clipPath>
    <clipPath id="clip-path-3">
      <rect id="Rectángulo_41925" data-name="Rectángulo 41925" width="296.743" height="296.743" fill="none"/>
    </clipPath>
    <clipPath id="clip-path-4">
      <rect id="Rectángulo_41923" data-name="Rectángulo 41923" width="309.655" height="168.725" fill="none"/>
    </clipPath>
    <clipPath id="clip-path-5">
      <rect id="Rectángulo_41924" data-name="Rectángulo 41924" width="154.817" height="122.11" fill="none"/>
    </clipPath>
    <clipPath id="clip-path-7">
      <rect id="Rectángulo_41926" data-name="Rectángulo 41926" width="211.875" height="222.812" fill="none"/>
    </clipPath>
    <clipPath id="clip-path-9">
      <rect id="Rectángulo_41933" data-name="Rectángulo 41933" width="152.402" height="105.598" fill="none"/>
    </clipPath>
    <clipPath id="clip-path-10">
      <rect id="Rectángulo_41934" data-name="Rectángulo 41934" width="54.646" height="54.646" fill="none"/>
    </clipPath>
    <clipPath id="clip-path-11">
      <rect id="Rectángulo_41935" data-name="Rectángulo 41935" width="156.816" height="134.877" fill="none"/>
    </clipPath>
  </defs>
  <g id="Enmascarar_grupo_214" data-name="Enmascarar grupo 214" transform="translate(-1125 -966)" clip-path="url(#clip-path)">
    <g id="Grupo_167898" data-name="Grupo 167898" transform="translate(1110.345 957)">
      <g id="Grupo_167923" data-name="Grupo 167923" clip-path="url(#clip-path-2)">
        <path id="Trazado_156906" data-name="Trazado 156906" d="M0,0H296.743V296.743H0Z" transform="translate(0.586 0.539)" fill="#c4d1ff"/>
        <g id="Grupo_167905" data-name="Grupo 167905" transform="translate(0.586 0.539)">
          <g id="Grupo_167904" data-name="Grupo 167904" clip-path="url(#clip-path-3)">
            <g id="Grupo_167900" data-name="Grupo 167900" transform="translate(-0.586 128.112)" style="mix-blend-mode: multiply;isolation: isolate">
              <g id="Grupo_167899" data-name="Grupo 167899">
                <g id="Grupo_167898-2" data-name="Grupo 167898" clip-path="url(#clip-path-4)">
                  <path id="Trazado_156859" data-name="Trazado 156859" d="M.987,385.565S10.5,326.4,80.813,329.348s51.587-57.66,91.444-86.393,74.994,3.814,100.233,2.415,37.022-28.2,37.022-28.2" transform="translate(-0.401 -216.934)" fill="none" stroke="#e7cce3" stroke-miterlimit="10" stroke-width="2"/>
                </g>
              </g>
            </g>
            <g id="Grupo_167903" data-name="Grupo 167903" transform="translate(-0.055 -0.539)" style="mix-blend-mode: multiply;isolation: isolate">
              <g id="Grupo_167902" data-name="Grupo 167902">
                <g id="Grupo_167901" data-name="Grupo 167901" clip-path="url(#clip-path-5)">
                  <path id="Trazado_156860" data-name="Trazado 156860" d="M.987,121.5s44.838,4.16,50.882-33.655,27.2-45.067,53.265-37.664S165.915,45.009,151.958.3" transform="translate(-0.932 -0.121)" fill="none" stroke="#e7cce3" stroke-miterlimit="10" stroke-width="2"/>
                </g>
              </g>
            </g>
            <path id="Trazado_156861" data-name="Trazado 156861" d="M393.636,39.967s-4.231,7.63-8.864,9.184c0,0,6.186,2.653,7.534,9.153,0,0,4.507-6.468,7.9-8.87,0,0-5.852-5.228-6.568-9.467" transform="translate(-157.001 -16.786)" fill="#f7f7f8"/>
            <path id="Trazado_156862" data-name="Trazado 156862" d="M374.767,71.583s-2.936,5.294-6.15,6.372a9.587,9.587,0,0,1,5.227,6.35s3.127-4.487,5.48-6.154c0,0-4.061-3.627-4.557-6.569" transform="translate(-150.434 -29.638)" fill="#f7f7f8"/>
            <path id="Trazado_156863" data-name="Trazado 156863" d="M414.833,32.243s-2.116,3.815-4.432,4.592a6.911,6.911,0,0,1,3.767,4.576,23.6,23.6,0,0,1,3.949-4.435s-2.926-2.614-3.284-4.734" transform="translate(-167.42 -13.646)" fill="#f7f7f8"/>
            <path id="Trazado_156864" data-name="Trazado 156864" d="M416.91,71.583s-2.116,3.815-4.432,4.592a6.909,6.909,0,0,1,3.767,4.576,23.582,23.582,0,0,1,3.949-4.435s-2.926-2.614-3.284-4.734" transform="translate(-168.264 -29.638)" fill="#f7f7f8"/>
            <path id="Trazado_156865" data-name="Trazado 156865" d="M379.537,21.177s-2.116,3.815-4.432,4.592a6.911,6.911,0,0,1,3.767,4.576,23.6,23.6,0,0,1,3.949-4.435s-2.927-2.614-3.284-4.734" transform="translate(-153.071 -9.148)" fill="#f7f7f8"/>
            <path id="Trazado_156866" data-name="Trazado 156866" d="M84.069,233.794s-5.306,9.568-11.116,11.518c0,0,7.757,3.326,9.447,11.477,0,0,5.652-8.111,9.9-11.123,0,0-7.339-6.556-8.236-11.872" transform="translate(-30.242 -95.58)" fill="#f7f7f8"/>
            <path id="Trazado_156867" data-name="Trazado 156867" d="M60.407,273.441s-3.681,6.639-7.712,7.991c0,0,5.382,2.308,6.554,7.963,0,0,3.921-5.627,6.872-7.717,0,0-5.092-4.549-5.714-8.237" transform="translate(-22.007 -111.697)" fill="#f7f7f8"/>
            <path id="Trazado_156868" data-name="Trazado 156868" d="M110.65,224.107s-2.653,4.784-5.558,5.759a8.666,8.666,0,0,1,4.724,5.739s2.826-4.055,4.952-5.562c0,0-3.67-3.278-4.118-5.936" transform="translate(-43.307 -91.642)" fill="#f7f7f8"/>
            <path id="Trazado_156869" data-name="Trazado 156869" d="M113.254,273.441s-2.653,4.784-5.558,5.759a8.666,8.666,0,0,1,4.724,5.739s2.826-4.055,4.952-5.562c0,0-3.67-3.278-4.118-5.936" transform="translate(-44.366 -111.697)" fill="#f7f7f8"/>
            <path id="Trazado_156870" data-name="Trazado 156870" d="M66.388,210.231s-2.653,4.784-5.558,5.759a8.666,8.666,0,0,1,4.724,5.739s2.826-4.055,4.952-5.562c0,0-3.67-3.278-4.118-5.936" transform="translate(-25.314 -86.001)" fill="#f7f7f8"/>
            <path id="Trazado_156871" data-name="Trazado 156871" d="M378.206,427.616s-4.231,7.63-8.864,9.185c0,0,6.186,2.652,7.534,9.152,0,0,4.507-6.468,7.9-8.87,0,0-5.852-5.228-6.568-9.467" transform="translate(-150.729 -174.371)" fill="#f7f7f8"/>
            <path id="Trazado_156872" data-name="Trazado 156872" d="M359.338,459.232s-2.936,5.294-6.15,6.372a9.587,9.587,0,0,1,5.227,6.35s3.127-4.487,5.48-6.154c0,0-4.061-3.627-4.557-6.569" transform="translate(-144.162 -187.223)" fill="#f7f7f8"/>
            <path id="Trazado_156873" data-name="Trazado 156873" d="M399.4,419.892s-2.116,3.815-4.432,4.592a6.911,6.911,0,0,1,3.767,4.576,23.6,23.6,0,0,1,3.949-4.434s-2.926-2.614-3.284-4.734" transform="translate(-161.147 -171.231)" fill="#f7f7f8"/>
            <path id="Trazado_156874" data-name="Trazado 156874" d="M401.48,459.232s-2.116,3.815-4.432,4.592a6.911,6.911,0,0,1,3.767,4.576,23.6,23.6,0,0,1,3.949-4.435s-2.926-2.614-3.284-4.734" transform="translate(-161.992 -187.223)" fill="#f7f7f8"/>
            <path id="Trazado_156875" data-name="Trazado 156875" d="M364.108,408.827s-2.116,3.815-4.432,4.592A6.909,6.909,0,0,1,363.443,418a23.6,23.6,0,0,1,3.949-4.435s-2.926-2.614-3.284-4.734" transform="translate(-146.799 -166.733)" fill="#f7f7f8"/>
          </g>
        </g>
        <g id="Grupo_167911" data-name="Grupo 167911">
          <g id="Grupo_167910" data-name="Grupo 167910" clip-path="url(#clip-path-2)">
            <g id="Grupo_167909" data-name="Grupo 167909" transform="translate(56.572 29.917)" style="mix-blend-mode: multiply;isolation: isolate">
              <g id="Grupo_167908" data-name="Grupo 167908">
                <g id="Grupo_167907" data-name="Grupo 167907" clip-path="url(#clip-path-7)">
                  <path id="Trazado_156876" data-name="Trazado 156876" d="M307.2,114.06a9.215,9.215,0,0,0-3.071-6.9,9.215,9.215,0,0,0-5.41-11.849,9.215,9.215,0,0,0-9.349-9.071c-.072-.176-.157-.347-.24-.519l.282-3.218,1.45-16.543-16.543-1.45L113.824,50.436l-.3-.027-18.2,207.558.3.026,177.063,15.227,7.865-89.691,11.273,7.115.457-47.3c.092-.244.181-.489.252-.739a9.213,9.213,0,0,0,8.274-10.06,9.213,9.213,0,0,0,4.049-12.38,9.2,9.2,0,0,0,2.341-6.1" transform="translate(-95.322 -50.409)" fill="#ffe4ca"/>
                </g>
              </g>
            </g>
          </g>
        </g>
        <rect id="Rectángulo_41928" data-name="Rectángulo 41928" width="177.693" height="144.805" transform="matrix(0.087, -0.996, 0.996, 0.087, 68.382, 215.111)" fill="#3398d9"/>
        <rect id="Rectángulo_41929" data-name="Rectángulo 41929" width="208.355" height="16.606" transform="translate(50.384 230.264) rotate(-84.989)" fill="#fff"/>
        <rect id="Rectángulo_41930" data-name="Rectángulo 41930" width="208.355" height="16.606" transform="translate(211.179 244.365) rotate(-84.989)" fill="#fff"/>
        <rect id="Rectángulo_41931" data-name="Rectángulo 41931" width="16.606" height="177.716" transform="translate(67.434 39.276) rotate(-84.989)" fill="#fff"/>
        <path id="Trazado_156877" data-name="Trazado 156877" d="M124.994,108.063l47.763,4.188,4.716,15.077L139.3,123.981Z" transform="translate(-50.812 -43.929)" fill="#fff"/>
        <path id="Trazado_156878" data-name="Trazado 156878" d="M160.03,152.7l33.811,2.965,6.856,15.264-27.563-2.417Z" transform="translate(-65.055 -62.075)" fill="#fff"/>
        <path id="Trazado_156879" data-name="Trazado 156879" d="M360.911,129.188,313.148,125l-7.268,14.026,38.177,3.348Z" transform="translate(-124.345 -50.814)" fill="#fff"/>
        <path id="Trazado_156880" data-name="Trazado 156880" d="M326.732,167.885l-33.811-2.965-9.408,13.838,27.563,2.417Z" transform="translate(-115.252 -67.042)" fill="#fff"/>
        <g id="Grupo_167922" data-name="Grupo 167922">
          <g id="Grupo_167921" data-name="Grupo 167921" clip-path="url(#clip-path-2)">
            <g id="Grupo_167914" data-name="Grupo 167914" transform="translate(68.65 119.11)" opacity="0.47">
              <g id="Grupo_167913" data-name="Grupo 167913">
                <g id="Grupo_167912" data-name="Grupo 167912" clip-path="url(#clip-path-9)">
                  <rect id="Rectángulo_41932" data-name="Rectángulo 41932" width="93.305" height="144.806" transform="translate(0 92.948) rotate(-84.989)" fill="#9cd1f1"/>
                </g>
              </g>
            </g>
            <path id="Trazado_156881" data-name="Trazado 156881" d="M183.749,251.76s-19.263,10.613-32.767,50.916l-3.572,15.059L257.2,327.363s-9.965-55.353-39.073-79.036Z" transform="translate(-59.924 -100.949)" fill="#d6dfe0"/>
            <path id="Trazado_156882" data-name="Trazado 156882" d="M245.344,139.649c1.827-.577,10.376,6.5,10.946,9.6a19.59,19.59,0,0,1-.834,9.517c-.918,2.117-7.524,10.09-7.524,10.09l-20.509-13.708-.339-1.976s2.237-11.242,4.893-12.7,13.368-.83,13.368-.83" transform="translate(-92.313 -56.715)" fill="#f9bda1"/>
            <path id="Trazado_156883" data-name="Trazado 156883" d="M230.956,149.879s-6.312.941-10.827,15.5,6.39,23.732,6.39,23.732l-5.833,20.667s6.645,15.533,28.382,3.486l-3.849-29.988s4.594-18.284,4.211-25.294-12.568-12.958-18.475-8.1" transform="translate(-89.04 -60.208)" fill="#f9bda1"/>
            <path id="Trazado_156884" data-name="Trazado 156884" d="M264.9,178.2s4.471-3.967,7.365.646-1.556,8.812-4.988,8.516c-4.725-.408-2.562-7.057-2.47-8.109Z" transform="translate(-107.416 -71.795)" fill="#f9bda1"/>
            <path id="Trazado_156885" data-name="Trazado 156885" d="M229.06,216.629s4.413,3.624,11.594-.818l-15.37,14.2Z" transform="translate(-91.581 -87.73)" fill="#f27f5e"/>
            <path id="Trazado_156886" data-name="Trazado 156886" d="M249.711,163.2s.121-.156.331-.422a74.562,74.562,0,0,1,5-5.819c2-1.952,8.375-10.042.682-14.39,0,0,3.065-6.105-2.947-10.017s-11.647,1.511-14.276.025-6.245-.318-8.3,5.589a90.575,90.575,0,0,0-3.115,11.59c.106-.641,4.25-9.279,6.925-9.693s3.391,4.229,7.016,4.864,14.012-3.2,14.341,1.906-5.311,12.578-5.654,16.367" transform="translate(-92.313 -53.295)" fill="#1a1a1a"/>
            <path id="Trazado_156887" data-name="Trazado 156887" d="M233.33,165.875c-.473,1.267-1.458,2.069-2.2,1.792s-.959-1.529-.485-2.8,1.458-2.069,2.2-1.792.958,1.528.485,2.8" transform="translate(-93.659 -66.272)" fill="#1a1a1a"/>
            <path id="Trazado_156888" data-name="Trazado 156888" d="M248.992,171.293c-.473,1.267-1.458,2.069-2.2,1.792s-.959-1.528-.485-2.8,1.458-2.069,2.2-1.792.958,1.528.485,2.8" transform="translate(-100.026 -68.474)" fill="#1a1a1a"/>
            <path id="Trazado_156889" data-name="Trazado 156889" d="M226.517,168.444s3.055-1.463,5.557-.378-1.672,4.808-3.506,2.716-2.051-2.338-2.051-2.338" transform="translate(-92.082 -68.158)" fill="#f9bda1"/>
            <path id="Trazado_156890" data-name="Trazado 156890" d="M247.76,175.315s-1.094-3.206-3.62-4.233-2.264,4.56.513,4.405,3.106-.172,3.106-.172" transform="translate(-98.538 -69.496)" fill="#f9bda1"/>
            <path id="Trazado_156891" data-name="Trazado 156891" d="M237.513,163.83l-8.388,11.14s4.931,2.951,5.737,3.022,3.005-.752,1.99-2.69-1.9-1.121-1.9-1.121" transform="translate(-93.143 -66.599)" fill="none" stroke="#1a1a1a" stroke-miterlimit="10" stroke-width="1"/>
            <path id="Trazado_156892" data-name="Trazado 156892" d="M225.706,191.593a8.8,8.8,0,0,0,10.049.881c5.487-3.191,5.648,5.327-.019,7.471s-9.343-.755-11.307-2.6-1.465-7.308,1.277-5.751" transform="translate(-90.75 -77.773)" fill="#f4f4f4"/>
            <path id="Trazado_156893" data-name="Trazado 156893" d="M248.7,162.616a3.136,3.136,0,0,1,2.016-2.434c1.693-.449,3.615,3.4,4.268,5.8s-6.359-1.761-6.284-3.369" transform="translate(-101.102 -65.101)" fill="#1a1a1a"/>
            <path id="Trazado_156894" data-name="Trazado 156894" d="M237.148,157.7a3.135,3.135,0,0,0,.2-3.154c-.926-1.486-4.962.006-7.083,1.312s5.842,3.065,6.887,1.842" transform="translate(-93.459 -62.575)" fill="#1a1a1a"/>
            <path id="Trazado_156895" data-name="Trazado 156895" d="M272.82,182.981s-1.145-3.63-3.63-1.848.921.941-.645,3.529,1.151,3.243,2.88,1.513" transform="translate(-108.977 -73.433)" fill="none" stroke="#1a1a1a" stroke-miterlimit="10" stroke-width="1"/>
            <path id="Trazado_156896" data-name="Trazado 156896" d="M218.484,239.73s-4.11,14.042,10.607,15.333L222.8,265.227s-15.213-5.316-14.191-16.962Z" transform="translate(-84.781 -97.454)" fill="#f4f4f4"/>
            <path id="Trazado_156897" data-name="Trazado 156897" d="M257.624,241.468s.173,14.571-14.468,14.3l4.43,11.105s15.9-2.588,16.927-14.234Z" transform="translate(-98.846 -98.16)" fill="#f4f4f4"/>
            <path id="Trazado_156898" data-name="Trazado 156898" d="M240.262,265.566l-4.224,6.822s2.113,3.446,7.087.356Z" transform="translate(-95.953 -107.956)" fill="#1a1a1a"/>
            <path id="Trazado_156899" data-name="Trazado 156899" d="M231.6,274.96l-11.9,57.364,11.879.213L234.3,275.2Z" transform="translate(-89.309 -111.775)" fill="#1a1a1a"/>
            <line id="Línea_539" data-name="Línea 539" y1="34.204" x2="7.157" transform="translate(105.52 184.164)" fill="none" stroke="#1a1a1a" stroke-miterlimit="10" stroke-width="1"/>
            <line id="Línea_540" data-name="Línea 540" x1="1.095" y1="34.928" transform="translate(172.836 189.439)" fill="none" stroke="#1a1a1a" stroke-miterlimit="10" stroke-width="1"/>
            <path id="Trazado_156900" data-name="Trazado 156900" d="M263.955,370.434l-1.723,19.657L84.894,374.54l2.024-19.63Z" transform="translate(-34.51 -144.276)" fill="#fff"/>
            <path id="Trazado_156901" data-name="Trazado 156901" d="M348.793,179.23l.417,55.691,19.7-12.653,19.764,12.473.561-58.118Z" transform="translate(-141.789 -71.8)" fill="#ea2f2f"/>
            <path id="Trazado_156902" data-name="Trazado 156902" d="M391.064,121.069a9.214,9.214,0,0,0-3.071-6.9,9.215,9.215,0,0,0-5.41-11.849,9.214,9.214,0,0,0-9.348-9.071A9.21,9.21,0,0,0,362.1,87.9a9.211,9.211,0,0,0-12.356-.249A9.216,9.216,0,0,0,337.3,91.525a9.215,9.215,0,0,0-10.174,8.134,9.213,9.213,0,0,0-6.519,11.276,9.215,9.215,0,0,0-1.972,12.876,9.215,9.215,0,0,0,2.845,12.711,9.214,9.214,0,0,0,7.273,10.806,9.215,9.215,0,0,0,10.7,7.422,9.214,9.214,0,0,0,12.67,3.021,9.214,9.214,0,0,0,12.9-1.794,9.214,9.214,0,0,0,11.366-6.363,9.213,9.213,0,0,0,8.274-10.06,9.213,9.213,0,0,0,4.049-12.38,9.2,9.2,0,0,0,2.341-6.1" transform="translate(-128.806 -34.712)" fill="#feee00"/>
            <g id="Grupo_167917" data-name="Grupo 167917" transform="translate(198.721 60.517)" opacity="0.46">
              <g id="Grupo_167916" data-name="Grupo 167916">
                <g id="Grupo_167915" data-name="Grupo 167915" clip-path="url(#clip-path-10)">
                  <path id="Trazado_156903" data-name="Trazado 156903" d="M389.379,131.679a27.322,27.322,0,1,1-24.831-29.6,27.323,27.323,0,0,1,24.831,29.6" transform="translate(-334.838 -101.969)" fill="#d3a31c"/>
                </g>
              </g>
            </g>
            <path id="Trazado_156904" data-name="Trazado 156904" d="M375.558,117.654,363.8,130.094l6.111,3.293,4.693-4.861-2.7,19.195-7.376-.119.422,5.436,17.921.432,1.47-6.5-6.417-.563,2.018-27.106Z" transform="translate(-147.89 -47.828)" fill="#fff"/>
            <g id="Grupo_167920" data-name="Grupo 167920" transform="translate(56.754 22.732)" opacity="0.16">
              <g id="Grupo_167919" data-name="Grupo 167919">
                <g id="Grupo_167918" data-name="Grupo 167918" clip-path="url(#clip-path-11)">
                  <path id="Trazado_156905" data-name="Trazado 156905" d="M252.444,50.99,95.629,173.18,107.759,38.3Z" transform="translate(-95.629 -38.303)" fill="#fff"/>
                </g>
              </g>
            </g>
          </g>
        </g>
      </g>
    </g>
  </g>
</svg>
