<svg xmlns="http://www.w3.org/2000/svg" xmlns:xlink="http://www.w3.org/1999/xlink" width="144" height="138" viewBox="0 0 144 138">
  <defs>
    <clipPath id="clip-path">
      <rect id="Rect치ngulo_41939" data-name="Rect치ngulo 41939" width="116.41" height="116.419" fill="none"/>
    </clipPath>
  </defs>
  <g id="_80" data-name="80" transform="translate(-537 -1288)">
    <g id="Grupo_165391" data-name="Grupo 165391">
      <rect id="Rect치ngulo_40797" data-name="Rect치ngulo 40797" width="144" height="138" transform="translate(537 1288)" fill="#c4d1ff"/>
    </g>
    <g id="Grupo_167927" data-name="Grupo 167927" transform="translate(551 1299)">
      <g id="Grupo_167926" data-name="Grupo 167926" clip-path="url(#clip-path)">
        <path id="Trazado_156954" data-name="Trazado 156954" d="M108.608,34.755C99.934,29.282,91.3,23.744,82.529,18.428a70.215,70.215,0,0,1-15.621-12.4C62.1.8,55.533.924,50.492,5.953a18.35,18.35,0,0,0-1.543,1.569c-.588.749-.95.675-1.673.042-8.441-7.379-18.1-9.5-28.651-5.739A28.04,28.04,0,0,0,7.394,47.234c.722.8.785,1.257-.066,1.9A14.273,14.273,0,0,0,5.945,50.5C.752,55.7.828,62.129,6.158,67.2a59.066,59.066,0,0,1,10.25,12.235C22.348,89.286,28.6,98.954,34.714,108.7a15.5,15.5,0,0,0,12.931,7.72,16.2,16.2,0,0,0,12.1-4.818q25.875-25.865,51.735-51.743c7.609-7.633,6.239-19.358-2.867-25.1M3.639,31.987h0a1.874,1.874,0,0,1-.2-1.4,14.749,14.749,0,0,1,0-4.677,1.863,1.863,0,0,1,.2-1.389,22.119,22.119,0,0,1,5.2-11.939A24.3,24.3,0,0,1,25.477,3.522h0a20.134,20.134,0,0,1,4.087-.1,2.4,2.4,0,0,1,1.623.2,20.958,20.958,0,0,1,6.654,1.748A35.321,35.321,0,0,1,43.89,8.937a10.787,10.787,0,0,1,1.591,1.65c.144.151.165.282.025.435-.116.128-.236.252-.352.379-1.589,1.728-1.578,1.712-3.51.387A21.638,21.638,0,0,0,30.853,8l-3.615.01a21.519,21.519,0,0,0-13,6.024A20.41,20.41,0,0,0,8.072,26.763c-.134,1.323-.165,2.656-.243,3.985h0a2.709,2.709,0,0,1,.2,1.642c.6,2.841,1.227,5.674,2.894,8.135a13.693,13.693,0,0,0,1.6,2.252c.425.415.487.762,0,1.279-1.894,2.022-1.905,2.073-3.668-.1A22.4,22.4,0,0,1,3.639,31.987M41.05,15.4c-8.457,8.454-16.792,16.771-25.1,25.117-.657.66-.866.263-1.235-.221C6.85,29.969,12.587,14.423,25.3,11.67A18.242,18.242,0,0,1,41.05,15.4M6.22,62.12a6.245,6.245,0,0,1-.755-3.359A6.9,6.9,0,0,1,7.6,53.451Q25.917,35.137,44.237,16.825C47.26,13.8,50.262,10.761,53.3,7.76A7.276,7.276,0,0,1,61.847,6.2c1.6.768,1.636.939.459,2.116L8.179,62.442c-1.17,1.17-1.147,1.157-1.958-.323m5.642,6.152a11.071,11.071,0,0,0-1.736-1.737c-.736-.6-.57-.98.042-1.591q27.362-27.3,54.665-54.665c.758-.76,1.168-.691,1.8.048s1.394,1.412,2.091,2.119c.176.178.33.379.632.729a9.657,9.657,0,0,0-.96.743Q55.433,26.866,42.48,39.826q-14.239,14.238-28.453,28.5c-.916.924-1.418.9-2.164-.055m4.319,4.276c-.643-.637-.853-1-.067-1.788q27.288-27.2,54.5-54.485c.794-.795,1.227-.717,1.945.009,4.525,4.571,9.09,9.1,13.624,13.665a6.972,6.972,0,0,1,2.231,5.211,7.531,7.531,0,0,1-2.487,5.748Q72.372,54.372,58.842,67.855c-5.986,5.979-11.918,12.014-17.887,18.008-3.565,3.581-7.841,3.588-11.391.045-4.461-4.453-8.905-8.922-13.382-13.36m58.136-7.516a6.381,6.381,0,0,1,.921,7.123c-.885,2-3.7,4.034-6.024,3.765a6.044,6.044,0,0,1-4.405-1.665c-1.111-1.024-2.13-2.145-3.236-3.172-.532-.494-.408-.79.047-1.241q4.148-4.095,8.242-8.242c.428-.434.7-.487,1.135-.019,1.089,1.168,2.3,2.226,3.32,3.452m36.007-8.7a15.913,15.913,0,0,1-1.9,1.718q-25.3,25.33-50.588,50.668c-2.624,2.644-5.537,4.391-9.23,4.45a11.618,11.618,0,0,1-10.473-5.287c-4.688-7.218-9.182-14.563-13.756-21.854l-.757-1.041a1.374,1.374,0,0,1,1.09.744c2.416,3.048,5.3,5.376,9.276,6.023H36.3a12.427,12.427,0,0,0,7.433-4.036C48.6,82.7,53.536,77.75,58.513,72.7c2.567,2.916,5.1,5.533,8.884,6.351a2.9,2.9,0,0,1,1.638.2,13.814,13.814,0,0,0,4.939-1.289,10.22,10.22,0,0,0,5.11-7.5q0-1.159,0-2.319c-.406-3.361-2.527-5.647-4.848-7.834-1.584-1.493-1.544-1.529-.031-3.046,4.571-4.584,9.12-9.19,13.721-13.744a11.587,11.587,0,0,0,3.732-7.295,10.126,10.126,0,0,0-2.738-8.05c-1.248-1.343-2.634-2.557-4.165-4.028a2.621,2.621,0,0,1,1.958.714c3.6,2.294,7.179,4.606,10.834,6.809,2.855,1.722,5.6,3.619,8.447,5.362a16.785,16.785,0,0,1,4.476,3.714,11.722,11.722,0,0,1,2.478,5.555,13.1,13.1,0,0,1-2.621,10.027" transform="translate(0 0)"/>
        <path id="Trazado_156955" data-name="Trazado 156955" d="M103.761,34.826c-2.843-1.742-5.592-3.64-8.447-5.362-3.654-2.2-7.239-4.515-10.835-6.809a2.617,2.617,0,0,0-1.957-.714c1.531,1.471,2.916,2.685,4.164,4.027a10.121,10.121,0,0,1,2.738,8.051,11.586,11.586,0,0,1-3.73,7.295c-4.6,4.554-9.151,9.159-13.722,13.743C70.458,56.574,70.419,56.61,72,58.1c2.321,2.187,4.443,4.472,4.849,7.834a2.692,2.692,0,0,1,0,2.319,10.222,10.222,0,0,1-5.109,7.5A13.812,13.812,0,0,1,66.8,77.047c-.55-.03-1.135.216-1.638-.2-3.785-.819-6.317-3.437-8.885-6.351-4.976,5.046-9.91,10-14.782,15.012a12.427,12.427,0,0,1-7.433,4.036,2.688,2.688,0,0,1-2.31,0h0C27.78,88.9,24.9,86.568,22.48,83.52l-.334.3c4.575,7.292,9.068,14.637,13.757,21.855a11.617,11.617,0,0,0,10.471,5.287c3.694-.059,6.606-1.806,9.23-4.45Q80.825,81.1,106.194,55.841a16,16,0,0,0,1.9-1.718A13.1,13.1,0,0,0,110.715,44.1a11.734,11.734,0,0,0-2.479-5.555,16.738,16.738,0,0,0-4.475-3.714" transform="translate(2.231 2.21)" fill="#73aaff"/>
        <path id="Trazado_156956" data-name="Trazado 156956" d="M39.525,84.425c5.97-6,11.9-12.029,17.887-18.008Q70.927,52.916,84.5,39.469a7.534,7.534,0,0,0,2.488-5.748,6.974,6.974,0,0,0-2.231-5.21c-4.534-4.563-9.1-9.094-13.624-13.666-.718-.724-1.152-.8-1.945-.008q-27.209,27.282-54.5,54.485c-.786.784-.576,1.149.067,1.788,4.477,4.437,8.922,8.907,13.382,13.36,3.55,3.543,7.826,3.535,11.391-.045M51.469,42.678a8.763,8.763,0,0,1-.11,17.525,8.763,8.763,0,1,1,.11-17.525" transform="translate(1.428 1.438)" fill="#73aaff"/>
        <path id="Trazado_156957" data-name="Trazado 156957" d="M61.347,5.7A7.281,7.281,0,0,0,52.8,7.261c-3.042,3-6.044,6.043-9.067,9.065Q25.42,34.64,7.1,52.952a6.906,6.906,0,0,0-2.135,5.31A6.239,6.239,0,0,0,5.72,61.62c.811,1.481.789,1.493,1.959.324Q34.743,34.882,61.806,7.821c1.177-1.178,1.139-1.347-.459-2.117" transform="translate(0.499 0.498)" fill="#73aaff"/>
        <path id="Trazado_156958" data-name="Trazado 156958" d="M41.6,38.935Q54.554,25.978,67.515,13.026a9.824,9.824,0,0,1,.96-.743c-.3-.35-.456-.55-.632-.729-.7-.706-1.449-1.366-2.091-2.119s-1.04-.808-1.8-.048Q36.653,36.755,9.286,64.053c-.612.611-.778.99-.042,1.591a11.221,11.221,0,0,1,1.737,1.737c.745.954,1.247.979,2.163.055q14.178-14.3,28.453-28.5" transform="translate(0.882 0.892)" fill="#f9f9fa"/>
        <path id="Trazado_156959" data-name="Trazado 156959" d="M12.231,43.733c.483-.517.422-.864,0-1.279a13.665,13.665,0,0,1-1.6-2.251c-1.668-2.46-2.294-5.294-2.894-8.136-.413-.505-.165-1.091-.2-1.642h0c.078-1.329.11-2.662.243-3.985a20.407,20.407,0,0,1,6.162-12.725,21.522,21.522,0,0,1,13-6.024,6.3,6.3,0,0,1,3.615-.011,21.64,21.64,0,0,1,10.791,3.787c1.933,1.323,1.921,1.34,3.511-.389.117-.127.236-.251.351-.379.14-.153.119-.284-.025-.435a10.784,10.784,0,0,0-1.591-1.65,35.5,35.5,0,0,0-6.05-3.568A20.973,20.973,0,0,0,30.889,3.3h0l-1.613.015a26.8,26.8,0,0,1-4.1-.114A24.3,24.3,0,0,0,8.541,12.262,22.112,22.112,0,0,0,3.341,24.2c-.025.469.186.972-.2,1.39a14.742,14.742,0,0,0,0,4.676c.384.42.173.925.2,1.4h0A22.417,22.417,0,0,0,8.563,43.635c1.763,2.171,1.773,2.121,3.668.1" transform="translate(0.298 0.322)" fill="#73aaff"/>
        <path id="Trazado_156960" data-name="Trazado 156960" d="M64.259,55.992q-4.095,4.148-8.242,8.244c-.456.45-.579.745-.047,1.241,1.107,1.026,2.126,2.149,3.236,3.172a6.046,6.046,0,0,0,4.406,1.665c2.327.269,5.138-1.77,6.023-3.766a6.379,6.379,0,0,0-.921-7.122c-1.015-1.227-2.23-2.284-3.319-3.452-.436-.467-.708-.415-1.136.018" transform="translate(5.604 5.606)" fill="#feb200"/>
        <path id="Trazado_156961" data-name="Trazado 156961" d="M27.231,3.113a20.132,20.132,0,0,0-4.087.1h0c1.363-.011,2.727,0,4.09,0Z" transform="translate(2.332 0.308)" fill="#f55e82"/>
        <path id="Trazado_156962" data-name="Trazado 156962" d="M27.242,3.315c0-.04,0-.079-.006-.119-1.365,0-2.728-.007-4.091,0a26.8,26.8,0,0,0,4.1.114" transform="translate(2.332 0.322)" fill="#f55e82"/>
        <path id="Trazado_156963" data-name="Trazado 156963" d="M24.745,7.29l3.615-.011a14.14,14.14,0,0,0-3.615.011" transform="translate(2.493 0.722)" fill="#db6d8a"/>
        <path id="Trazado_156964" data-name="Trazado 156964" d="M24.745,7.3a14.14,14.14,0,0,1,3.615-.011,6.3,6.3,0,0,0-3.615.011" transform="translate(2.493 0.709)" fill="#db6d8a"/>
        <path id="Trazado_156965" data-name="Trazado 156965" d="M71.844,61.909v2.319a5.835,5.835,0,0,0,0-2.319" transform="translate(7.238 6.237)" fill="#e06b89"/>
        <path id="Trazado_156966" data-name="Trazado 156966" d="M71.844,61.909a5.835,5.835,0,0,1,0,2.319,2.692,2.692,0,0,0,0-2.319" transform="translate(7.238 6.237)" fill="#e06b89"/>
        <path id="Trazado_156967" data-name="Trazado 156967" d="M33.185,83.355H30.876a5.93,5.93,0,0,0,2.309,0" transform="translate(3.111 8.398)" fill="#e96888"/>
        <path id="Trazado_156968" data-name="Trazado 156968" d="M33.185,83.355a5.93,5.93,0,0,1-2.309,0,2.69,2.69,0,0,0,2.309,0" transform="translate(3.111 8.398)" fill="#e96888"/>
        <path id="Trazado_156969" data-name="Trazado 156969" d="M22.549,77.951a1.374,1.374,0,0,0-1.09-.744c.331.456.544.749.757,1.04-.058-.287.059-.378.332-.3" transform="translate(2.162 7.779)" fill="#d35e7e"/>
        <path id="Trazado_156970" data-name="Trazado 156970" d="M22.148,78.182c.111-.1.221-.2.332-.3-.272-.083-.391.009-.332.3" transform="translate(2.23 7.844)" fill="#d35e7e"/>
        <path id="Trazado_156971" data-name="Trazado 156971" d="M26.946,3.209a4.726,4.726,0,0,1,1.533.1,2.407,2.407,0,0,0-1.623-.2c.062.031.084.064.089.1" transform="translate(2.706 0.309)" fill="#da6a88"/>
        <path id="Trazado_156972" data-name="Trazado 156972" d="M26.945,3.2c0,.014.01.028,0,.043-.025.05-.053.076-.08.076L28.48,3.3h0a4.726,4.726,0,0,0-1.533-.1" transform="translate(2.707 0.321)" fill="#da6a88"/>
        <path id="Trazado_156973" data-name="Trazado 156973" d="M26.881,3.2c.022,0,.043,0,.065,0-.006-.034-.029-.066-.089-.1l0,.1Z" transform="translate(2.706 0.313)" fill="#da6a88"/>
        <path id="Trazado_156974" data-name="Trazado 156974" d="M26.946,3.2c-.022,0-.043,0-.065,0h-.019c0,.04,0,.08.006.12.028,0,.055-.026.08-.076.008-.015,0-.029,0-.043" transform="translate(2.706 0.322)" fill="#da6a88"/>
        <path id="Trazado_156975" data-name="Trazado 156975" d="M7.112,27.934c.241.526-.037,1.115.2,1.642a2.718,2.718,0,0,0-.2-1.642" transform="translate(0.717 2.814)" fill="#e26a89"/>
        <path id="Trazado_156976" data-name="Trazado 156976" d="M7.315,29.575c-.238-.526.041-1.116-.2-1.642.036.551-.212,1.137.2,1.642" transform="translate(0.713 2.814)" fill="#e26a89"/>
        <path id="Trazado_156977" data-name="Trazado 156977" d="M61.228,71.822c.525.242,1.114-.04,1.638.2a2.9,2.9,0,0,0-1.638-.2" transform="translate(6.169 7.234)" fill="#de6987"/>
        <path id="Trazado_156978" data-name="Trazado 156978" d="M62.866,72.02c-.525-.239-1.114.043-1.638-.2.5.416,1.088.17,1.638.2" transform="translate(6.169 7.236)" fill="#de6987"/>
        <path id="Trazado_156979" data-name="Trazado 156979" d="M3.129,23.668h0c.217-.441-.022-.949.2-1.389a1.863,1.863,0,0,0-.2,1.389" transform="translate(0.311 2.245)" fill="#eb6385"/>
        <path id="Trazado_156980" data-name="Trazado 156980" d="M3.323,22.278c-.221.441.019.948-.2,1.389.385-.417.175-.92.2-1.389" transform="translate(0.315 2.245)" fill="#eb6385"/>
        <path id="Trazado_156981" data-name="Trazado 156981" d="M3.327,29.186c-.218-.444.017-.952-.2-1.4a1.882,1.882,0,0,0,.2,1.4" transform="translate(0.311 2.8)" fill="#ec6384"/>
        <path id="Trazado_156982" data-name="Trazado 156982" d="M3.125,27.789c.215.445-.02.952.2,1.4-.025-.472.187-.976-.2-1.4" transform="translate(0.315 2.8)" fill="#ec6384"/>
        <path id="Trazado_156983" data-name="Trazado 156983" d="M48.755,57.6a8.763,8.763,0,0,0,.109-17.525A8.763,8.763,0,1,0,48.755,57.6m.1-14.238a5.633,5.633,0,0,1,5.424,5.544,5.48,5.48,0,0,1-5.617,5.367,5.347,5.347,0,0,1-5.345-5.47,5.446,5.446,0,0,1,5.538-5.442" transform="translate(4.034 4.038)"/>
        <path id="Trazado_156984" data-name="Trazado 156984" d="M48.365,53.976a5.48,5.48,0,0,0,5.617-5.366,5.634,5.634,0,0,0-5.424-5.546,5.446,5.446,0,0,0-5.538,5.442,5.347,5.347,0,0,0,5.345,5.47" transform="translate(4.334 4.339)" fill="#feb200"/>
      </g>
    </g>
  </g>
</svg>
