<svg xmlns="http://www.w3.org/2000/svg" xmlns:xlink="http://www.w3.org/1999/xlink" width="252" height="238" viewBox="0 0 252 238">
  <defs>
    <clipPath id="clip-path">
      <rect id="Rect치ngulo_41940" data-name="Rect치ngulo 41940" width="215.995" height="178.123" fill="none"/>
    </clipPath>
  </defs>
  <g id="Grupo_167933" data-name="Grupo 167933" transform="translate(-333 -3559)">
    <rect id="Rect치ngulo_41568" data-name="Rect치ngulo 41568" width="252" height="238" transform="translate(333 3559)" fill="#ffd947"/>
    <g id="Grupo_167932" data-name="Grupo 167932" transform="translate(351 3589)">
      <g id="Grupo_167931" data-name="Grupo 167931" clip-path="url(#clip-path)">
        <path id="Trazado_156985" data-name="Trazado 156985" d="M20.189,172.874a8.329,8.329,0,0,1-3.311-3.236c-.612-1.4-1.126-.88-1.906-.231-3.022,2.509-6.42,3.444-10.182,1.992-3.912-1.51-5.54-4.924-4.466-9a29.348,29.348,0,0,1,4.215-8.317c3.484-5.385,6.723-10.856,8.1-17.251,1.148-5.34.767-10.648.133-15.981-.158-1.328-.253-2.663-.378-4-1.486-14.433.934-28.1,8.753-40.437C29.25,63.63,41.083,58.2,56.166,59.792c5.318.563,10.412,1.7,15.055,4.517a23.259,23.259,0,0,1,8.451,8.128c2.284,3.98,5.322,7.333,8.087,10.925,5.02,6.524,8.247,13.777,8.1,22.224a5.463,5.463,0,0,1-.543,2.813,10.1,10.1,0,0,1-3.017,5.609c-.4.353-.806.7-.648,1.311,1.084,4.182.275,8.468.712,12.694A32.518,32.518,0,0,0,96.2,140.056c2.307,4.338,4.6,8.684,6.843,13.055A29.2,29.2,0,0,1,105.6,160c.764,3.377.7,6.667-2.057,9.1-2.914,2.578-6.433,2.848-10.09,1.682a15.905,15.905,0,0,1-5.388-3.437A11.607,11.607,0,0,1,85,173.814c-1.093.04-1.481-.92-2.019-1.548a38.581,38.581,0,0,0-15.275-10.5,8.029,8.029,0,0,1-2.855-1.68c-.3-.7.1-1.99-1.415-1.679-3.526-2.658-4.609-6.334-4.4-10.549.415-1.11,1.434-1.466,2.4-1.84A28.588,28.588,0,0,0,75.843,133.5a5.483,5.483,0,0,1,4.529-3.008c5.122-.589,8.741-6.452,7.288-11.388-.349-1.187-.836-2.294-2.263-2.464-5.224-.625-8.731-3.936-11.883-7.7a5.931,5.931,0,0,0-3.758-2.312c-2.524-.493-4.919-1.618-7.533-1.964a10.666,10.666,0,0,0-3.316-.157,25.734,25.734,0,0,1-14.058-1.328c-.668-.257-1.285-.424-1.74.362a3.064,3.064,0,0,1-2.864,1.425c-2.654.039-4.8,2.069-7.532,1.882-.73-.05-.936.876-1.219,1.466a17.217,17.217,0,0,1-3.9,5.674c-1.988,1.761-4.215,2.819-6.949,2.185-1.95-.452-2.857.748-3.241,2.273-1.681,6.681,2.349,11.507,7.366,12.068a4.911,4.911,0,0,1,4.135,2.838,27.55,27.55,0,0,0,14.5,12.681,3.536,3.536,0,0,1,2.012,1.33A13.2,13.2,0,0,1,42,158.047c-.6.383-1.64.1-1.773,1.194-.361,1.316-1.483,1.828-2.569,2.254a39.792,39.792,0,0,0-15.944,10.893c-.387.446-.838.881-1.522.487" transform="translate(0 -9.065)"/>
        <path id="Trazado_156986" data-name="Trazado 156986" d="M148.882,105.555c-6.66-.628-11.348-6.051-11.7-13.568a21.518,21.518,0,0,1,6.949-17.471,54.466,54.466,0,0,0,11.08-14.211c5.573-10.489,14.728-15.354,26.165-16.619,4.059-.448,8.1-.66,12.25.8-.587-1.453-1.11-2.656-1.561-3.886a2.416,2.416,0,0,1,.951-2.953,2.448,2.448,0,0,1,3.1.03,14.645,14.645,0,0,1,4.845,6.136c2.047-1.57,4.175-2.52,6.681-1.469,1.343.563,2.612,1.249,2.6,2.98-.013,1.673-1.06,2.524-2.53,3-.4.131-.791.317-1.224.493.375,1.177,1.439,1.564,2.189,2.231a52.313,52.313,0,0,1,8.368,10.155,20.8,20.8,0,0,0,6.776,6.35c9.209,5.481,14.6,16.7,12.68,26.367a14.122,14.122,0,0,1-10.748,11.608c-1.2.2-2.438.045-3.632.331-5.557-1.484-8.753-5.633-11.5-10.261-.835-1.407-1.428-2.949-2.251-4.366a4.773,4.773,0,0,0-5.386-2.473,20.433,20.433,0,0,1,4.3,1.956c1.155.779,1.89,1.806,1.118,3.2a2.247,2.247,0,0,1-3.285.859,15.25,15.25,0,0,0-6.614-1.82c-1.377-.027-2.035-1.092-2.822-1.964a7.446,7.446,0,0,0-2.191-.253c-5.846-.957-10.015-4.274-13.045-9.223-1.434-2.34-3.087-4.345-6.16-4.606a7.5,7.5,0,0,0-7.728,4.186,31.648,31.648,0,0,0-3.331,10.369c-.766,4.475-2.508,8.445-6.014,11.414-2.361,2-4.963,3.63-8.33,2.669" transform="translate(-20.889 -5.652)"/>
        <path id="Trazado_156987" data-name="Trazado 156987" d="M150.629,112.561c7.572-.147,12.731-6.9,13.793-14.245a31.14,31.14,0,0,1,3.37-10.527c3.263-5.994,10.722-6.314,14.263-.47,3.127,5.159,7.231,8.783,13.26,9.967a5.438,5.438,0,0,0,2.615.073,3.043,3.043,0,0,0,3.348,2.151,10.39,10.39,0,0,1,5.483,1.668c1.175.668,2.329.871,3.026-.559.659-1.35-.326-2.026-1.352-2.618a20.155,20.155,0,0,0-5.015-1.909c2.743-1.926,5.832-1.066,7.316,2.064a41.058,41.058,0,0,0,5.122,8.6,18.9,18.9,0,0,0,7.6,5.644c.406.385,1.144.272,1.378.916,3.707,3.477,2.911,11.216-1.533,14.589a9.411,9.411,0,0,1-7,2.285c-.932-.122-1.151.373-1.466.976a30.286,30.286,0,0,1-18.525,15.312,5.941,5.941,0,0,1-3.887,1.372,44.233,44.233,0,0,1-9.276-.064c-1.659-.223-2.936-.326-3.206,1.759a.6.6,0,0,1-.668.454c.536-2.743-.743-3.943-3.292-4.934A28.522,28.522,0,0,1,161.123,131.6a2.184,2.184,0,0,0-2.509-1.4c-4.568.318-9.558-4.261-9.848-8.876-.185-2.928-.628-6.014,2.3-8.127.281-.2-.351-.37-.439-.636" transform="translate(-22.637 -12.658)" fill="#feb28c"/>
        <path id="Trazado_156988" data-name="Trazado 156988" d="M44.676,173.888a17.63,17.63,0,0,0,3.575-10.828c1.036-.455,1.991.105,2.981.229.782.092,1.568.053,2.351.077a13.849,13.849,0,0,0,3.988-.005,18.085,18.085,0,0,0,1.976-.06c.973.018,2.028-1.311,2.915.168a16.194,16.194,0,0,0,2.773,8.882c.45.675.864,1.373,1.733,1.583.16,1.107-.733,1.518-1.393,2.059a23.065,23.065,0,0,1-6.342,3.81,12.8,12.8,0,0,0,6.025-2.945c.8-.6,1.471-1.5,2.665-1.319,5.7,2.648,11.646,4.906,16.147,9.575,1.387,1.439,2.7,2.949,4.046,4.427.558.956,1.144,1.9,1.669,2.871,1.819,3.376.647,6.633-3.046,7.684a74.465,74.465,0,0,1-8.044,1.414c-.91-.6-.971-1.623-1.263-2.53-1.745-5.419-6.41-7.732-11.788-5.818a16.7,16.7,0,0,0-5.982,3.786c-3.374,3.228-6.579,3.187-9.954-.1a14.309,14.309,0,0,0-6.574-4.015c-5.32-1.291-9.676,1.229-11.142,6.526-.392,1.418-.82,2.409-2.529,1.786-1.6-.292-3.242-.459-4.8-.9-3.987-1.123-5.231-4.308-3.355-7.978.635-1.243,1.909-2.135,2-3.665,2.142-1.588,3.711-3.776,5.827-5.418A43.063,43.063,0,0,1,39.3,177.252c1.37-.559,3.12-.727,3.726-2.5,1.08-.173,1.564.705,2.179,1.288a16.89,16.89,0,0,0,7.058,3.91c-1.613-1.1-3.485-1.762-5.031-2.956-1.077-.831-2.457-1.459-2.559-3.11" transform="translate(-3.114 -24.791)" fill="#fba680"/>
        <path id="Trazado_156989" data-name="Trazado 156989" d="M95.877,107.335C96.54,96.47,92.442,87.428,85.23,79.586a26.524,26.524,0,0,1-3.94-5.406c-4.95-9.252-13.1-13.454-23.123-14.733-7.145-.913-14.128-.481-20.775,2.577-9.648,4.439-15.5,12.3-19.444,21.809a68.276,68.276,0,0,0-4.975,28.391c.034,1.189-.009,2.381-.017,3.571-.744-1.941-.314-3.96-.333-5.939a3.228,3.228,0,0,0-1.572-3.132,15.272,15.272,0,0,1-6.915-9.476c-1.408-5.795.81-10.632,4.3-15.03,5-6.309,10.854-11.816,16.54-17.479.679-.676,1.286-1.427,1.926-2.143,4.775-4.917,10.322-8.514,17.136-9.867a10.686,10.686,0,0,1,4.666.147,20.664,20.664,0,0,0,9.749.114,17.079,17.079,0,0,1,11.3,1.535,46.594,46.594,0,0,1,10.192,6.822,4.571,4.571,0,0,1,1.566,2.134c7.011,6.653,14.237,13.161,19.6,21.268,5.531,8.359,3.405,17.042-5.233,22.587" transform="translate(-0.564 -8.002)" fill="#fed2b5"/>
        <path id="Trazado_156990" data-name="Trazado 156990" d="M107.076,12.705C107.1,4.194,114.331-1.608,122.36.435a10.016,10.016,0,0,1,3.228,1.485c2.132,1.467,2.858,1.471,5.1-.093C136.274-2.079,145.1.568,147.811,7.009c2.776,6.588.759,12.264-3.653,17.294-3.973,4.529-9.108,7.363-14.74,9.35a3.188,3.188,0,0,1-2.186.143c-7.539-2.685-14.218-6.526-18.247-13.826a14.851,14.851,0,0,1-1.909-7.265" transform="translate(-16.308 0)" fill="#fe8778"/>
        <path id="Trazado_156991" data-name="Trazado 156991" d="M190.172,176.251l2.045.027a6.278,6.278,0,0,1,1.759,1.962c1.609,2.079,3.55,3.815,6.35,3.174,2.992-.687,4.316-3.142,5.007-5.931.246-.993.19-2.075,1-2.869,4.353,1.024,3.892,4.728,4,7.778.227,6.393.365,12.819-.029,19.2-.281,4.536.413,4.755-4.763,4.767-9.528.022-19.057.006-28.585.006-.447,0-.894.014-1.34-.007-3.377-.152-3.468-.471-3.733-3.748-.389-4.823-.4-9.641-.385-14.466.01-2.742.608-5.45.47-8.211-.153-3.093,2.156-4.229,4.454-5.328a4.137,4.137,0,0,1,.865,2.235c.149.572.209,1.166.378,1.735,1.575,5.3,6.593,6.522,10.424,2.544.832-.864,1.287-1.988,2.088-2.866" transform="translate(-26.119 -26.289)" fill="#fbefd6"/>
        <path id="Trazado_156992" data-name="Trazado 156992" d="M84.139,62.073a76.131,76.131,0,0,0-9.214-6.908c-4.636-2.84-9.462-4.134-14.83-2.865a15.933,15.933,0,0,1-7.692-.052c-5.381-1.367-10.1.411-14.562,3.137A37.793,37.793,0,0,0,30.7,60.651a3.818,3.818,0,0,1-1.176.537c-4.448.263-9.265-5.468-8.464-10.357A4.756,4.756,0,0,1,24.3,46.909c5.962-2.123,12.033-3.889,18.436-3.578,5.09.248,9.886,1.446,12.89,6.172.59.928.927.844,1.554,0,4.6-6.193,11.043-6.705,17.98-5.886a76.665,76.665,0,0,1,12.085,2.775c5.729,1.639,5.786,6.665,3.2,10.826A8.014,8.014,0,0,1,84.9,61.329c-.285.045-.507.487-.758.744" transform="translate(-3.195 -6.594)" fill="#fbe9c9"/>
        <path id="Trazado_156993" data-name="Trazado 156993" d="M166.69,176.658a146.82,146.82,0,0,0-.559,18.606c.076,2.6.237,5.206.465,7.8.106,1.216-.272,1.547-1.464,1.449a134.8,134.8,0,0,1-14.825-1.9c-3.643-.715-6.548-4.378-4.082-8.863a35.791,35.791,0,0,1,19.415-16.9,6.928,6.928,0,0,1,1.05-.189" transform="translate(-22.132 -26.906)" fill="#1b8782"/>
        <path id="Trazado_156994" data-name="Trazado 156994" d="M221.416,177.337a27.062,27.062,0,0,1,7.268,3.709,34.335,34.335,0,0,1,11.5,13.131c1.8,3.575.52,7.077-3.272,8.206-4.8,1.428-9.819,1.621-14.772,2.157-.838.091-1.038-.316-.963-1.049a155,155,0,0,0,.071-25.864c0-.057.064-.119.164-.29" transform="translate(-33.685 -27.01)" fill="#26908d"/>
        <path id="Trazado_156995" data-name="Trazado 156995" d="M31.084,206.356c1.105.058,1.59-.284,1.874-1.552,1.539-6.871,8.481-9.819,14.611-6.324a20.382,20.382,0,0,1,4.408,3.386c2.873,2.9,5.92,2.9,8.782.025a16.558,16.558,0,0,1,6.3-4.105c6.031-2.107,11.273.772,12.784,6.988.159.649.314,1.3.47,1.949l-1.384.443a4.844,4.844,0,0,0-3.094.008l-2.268.445a7.865,7.865,0,0,0-4,0c-1.52-.03-2.963.73-4.508.442a124.051,124.051,0,0,0-16.065,0c-1.4.27-2.686-.538-4.069-.446a7.978,7.978,0,0,0-3.987,0l-2.275-.446a4.886,4.886,0,0,0-3.091-.007c-1.419-.706-3.092-.006-4.494-.807" transform="translate(-4.734 -30.005)" fill="#fbefd6"/>
        <path id="Trazado_156996" data-name="Trazado 156996" d="M184.557,161.381c.972-.935-.456-2.828.993-3.264,1-.3,2.283.538,3.445.559,4.216.076,8.457.353,12.6-.816a11.3,11.3,0,0,0,.9,5.657,2.085,2.085,0,0,1-.365,2.431,11.637,11.637,0,0,1-16.839,1.779c-1.472-1.24-2.818-2.532-1.3-4.663a6.16,6.16,0,0,0,.568-1.683" transform="translate(-27.921 -24.043)" fill="#fba681"/>
        <path id="Trazado_156997" data-name="Trazado 156997" d="M210.053,172.231c-.272,2.509-.587,5-2.263,7.066-2.39,2.942-5.639,3.353-8.553.963a9.572,9.572,0,0,1-3.295-4.364,13.453,13.453,0,0,0,9.741-4.6c1.3-1.466,2.093-1.678,3.28-.144a11.134,11.134,0,0,0,1.091,1.081" transform="translate(-29.843 -25.907)" fill="#fe746a"/>
        <path id="Trazado_156998" data-name="Trazado 156998" d="M191.058,175.9c-.393,2.591-3.3,5.356-6.163,5.852-2.438.423-4.915-1.1-6.323-3.91a15.318,15.318,0,0,1-1.27-5.59,14.777,14.777,0,0,0,1.424-1.366c.8-.987,1.346-.615,2.057.148a13.989,13.989,0,0,0,10.274,4.866" transform="translate(-27.004 -25.936)" fill="#fe746a"/>
        <path id="Trazado_156999" data-name="Trazado 156999" d="M52.219,209.965c.6-.669,1.391-.41,2.106-.415q5.928-.036,11.856,0c.715,0,1.511-.254,2.1.418l-16.065,0" transform="translate(-7.953 -31.909)" fill="#fbdfc8"/>
        <path id="Trazado_157000" data-name="Trazado 157000" d="M238.283,118.577c-.5-.246-1.1-.339-1.378-.916l4.038.143c-.724.816-1.945-.081-2.659.772" transform="translate(-36.082 -17.921)" fill="#f3ddd9"/>
        <path id="Trazado_157001" data-name="Trazado 157001" d="M42.715,209.429a4.126,4.126,0,0,1,3.988,0H42.715" transform="translate(-6.506 -31.819)" fill="#fce2ca"/>
        <path id="Trazado_157002" data-name="Trazado 157002" d="M76.489,209.435a4.1,4.1,0,0,1,4,0l-4,0" transform="translate(-11.65 -31.819)" fill="#fce2cb"/>
        <path id="Trazado_157003" data-name="Trazado 157003" d="M36.386,208.9a2.623,2.623,0,0,1,3.091.007l-3.091-.007" transform="translate(-5.542 -31.741)" fill="#fbe2cb"/>
        <path id="Trazado_157004" data-name="Trazado 157004" d="M83.879,208.908a2.618,2.618,0,0,1,3.095-.008l-3.095.008" transform="translate(-12.775 -31.741)" fill="#fce2ca"/>
        <path id="Trazado_157005" data-name="Trazado 157005" d="M57.455,155.808c-1.348.008-2.7.426-4.043,0a3.478,3.478,0,0,0-2.658-.005l-2.7-.872A29.468,29.468,0,0,1,30.572,139.9a1.878,1.878,0,0,0-1.921-1.108A9.849,9.849,0,0,1,19.6,126.007c.773-2.454,1.957-3.18,4.456-2.719a6.769,6.769,0,0,0,5.9-1.945,18.339,18.339,0,0,0,4.452-6.886c.33-.769.537-1.383,1.525-.718a1.981,1.981,0,0,0,2.121-.185,12.891,12.891,0,0,1,5.969-1.623c1.52-.022,1.866-1.173,1.988-2.552,5.572,2.795,11.243,2.691,17.137,2.095a14.921,14.921,0,0,1,8.089,1.747c.916.475,1.833,1.074,2.936.481,1.005-.54,1.081.473,1.416.916a25.672,25.672,0,0,0,8.5,7.767,8.514,8.514,0,0,0,4.235,1.261,2.417,2.417,0,0,1,2.486,1.817c2.491,5.851-2.057,13.111-8.387,13.347-.989.036-1.8.007-2.379,1.133A29.173,29.173,0,0,1,63.57,154.533a7.434,7.434,0,0,0-1.306.8c-1.03-.766-1.742.213-2.585.47a2.432,2.432,0,0,0-2.223,0" transform="translate(-2.915 -16.659)" fill="#feb28c"/>
        <path id="Trazado_157006" data-name="Trazado 157006" d="M41.1,99.62a26.344,26.344,0,0,0,6.414,7.216A18.805,18.805,0,0,0,39,109.016c.58-3.271,1.617-6.219,2.1-9.4" transform="translate(-5.941 -15.173)" fill="#fdb18c"/>
        <path id="Trazado_157007" data-name="Trazado 157007" d="M48.714,175.793c1.871,2.547,4.57,3.9,7.369,5.106.624.27,1.716.3,1.28,1.333-.424,1-1.33.294-1.937.08a21.543,21.543,0,0,1-8.36-5.652c-.487-2.256.8-1.136,1.648-.867" transform="translate(-7.152 -26.696)" fill="#fdfaf9"/>
        <path id="Trazado_157008" data-name="Trazado 157008" d="M74.689,177.449c-2.52,1.82-4.844,3.971-7.919,4.87-.616.18-1.536.862-1.859-.287-.264-.943.731-.963,1.3-1.171a19.5,19.5,0,0,0,7.52-5.017c.4-.281.8-.823,1.321-.323.8.77-.253,1.279-.367,1.928" transform="translate(-9.88 -26.702)" fill="#fefbfa"/>
        <path id="Trazado_157009" data-name="Trazado 157009" d="M81.949,109.327l-2.747-.893a6.012,6.012,0,0,1,1.88-2.207c.281,1,.509,1.816.867,3.1" transform="translate(-12.063 -16.179)" fill="#f1a487"/>
        <path id="Trazado_157010" data-name="Trazado 157010" d="M206.319,99.907a2.323,2.323,0,0,1-2.615-.074l2.615.074" transform="translate(-31.026 -15.205)" fill="#f4b8a0"/>
        <path id="Trazado_157011" data-name="Trazado 157011" d="M193.443,125.881c-3.367-.012-5.177-2.53-4.065-5.583a32.771,32.771,0,0,1,1.8-3.838,1.583,1.583,0,0,1,2.4-.823c.945.54,1.429,1.287.81,2.407-.4.716-.716,1.475-1.088,2.2-.561,1.1-.873,2.068.853,2.369a1.558,1.558,0,0,1,1.368,1.951c-.205,1.225-1.15,1.422-2.076,1.313" transform="translate(-28.794 -17.57)" fill="#ee6865"/>
        <path id="Trazado_157012" data-name="Trazado 157012" d="M179.909,113.315a5.723,5.723,0,0,1-.013,1.16,2.9,2.9,0,0,1-2.58,2.645,2.7,2.7,0,0,1-2.727-1.545c-.782-1.361-.6-4.876.273-5.966a2.658,2.658,0,0,1,3.016-.842c2.094.626,2.1,2.407,2.03,4.549" transform="translate(-26.516 -16.543)"/>
        <path id="Trazado_157013" data-name="Trazado 157013" d="M177.2,98.153c1.362-.061,2.7.079,2.679,1.829-.019,1.58-1.274,1.739-2.553,1.773a12.294,12.294,0,0,0-6.1,1.8c-1.063.641-2.034.616-2.687-.465-.672-1.111-.128-2,.89-2.59a16.5,16.5,0,0,1,7.772-2.346" transform="translate(-25.624 -14.948)"/>
        <path id="Trazado_157014" data-name="Trazado 157014" d="M208.249,112.8a9.58,9.58,0,0,1,.275-2.411,2.534,2.534,0,0,1,2.817-1.7,2.463,2.463,0,0,1,2.421,2.2,25.35,25.35,0,0,1,.076,3.332,2.577,2.577,0,0,1-2.687,2.9c-1.806.031-2.854-1.062-2.833-2.977.005-.445,0-.89,0-1.336l-.07-.006" transform="translate(-31.718 -16.551)"/>
        <path id="Trazado_157015" data-name="Trazado 157015" d="M194.316,138.032c-2.319-.081-3.773-.707-4.828-2.1a1.43,1.43,0,0,1-.038-2.018,1.4,1.4,0,0,1,2.016-.154c1.723,1.617,3.237,1.4,4.841-.146a1.215,1.215,0,0,1,1.8.115,1.3,1.3,0,0,1,.075,1.821c-1.106,1.486-2.424,2.63-3.866,2.48" transform="translate(-28.793 -20.298)" fill="#ee6965"/>
        <path id="Trazado_157016" data-name="Trazado 157016" d="M156.868,128.987a18,18,0,0,1-4.271-1.9,1.237,1.237,0,0,1-.376-1.773,1.781,1.781,0,0,1,1.959-1.15A13.38,13.38,0,0,1,158.454,126a1.642,1.642,0,0,1,.58,1.99c-.228.905-.966,1.025-2.167.993" transform="translate(-23.152 -18.906)" fill="#ee6965"/>
        <path id="Trazado_157017" data-name="Trazado 157017" d="M230.959,128.977c-1.089.056-1.641-.19-1.994-.884a1.575,1.575,0,0,1,.459-2c1.3-1.216,3.024-1.546,4.67-1.936.686-.163,1.253.465,1.482,1.13.248.722.331,1.647-.416,2.018-1.449.717-3.008,1.213-4.2,1.676" transform="translate(-34.844 -18.906)" fill="#ee6865"/>
        <path id="Trazado_157018" data-name="Trazado 157018" d="M61.763,184.249c.859.2,1.517.668,1.443,1.643a1.4,1.4,0,0,1-1.483,1.366,1.419,1.419,0,0,1-1.468-1.6,1.556,1.556,0,0,1,1.509-1.409" transform="translate(-9.176 -28.062)" fill="#fef9f7"/>
        <path id="Trazado_157019" data-name="Trazado 157019" d="M56.436,164.051a2.011,2.011,0,0,1,2.657.005l-2.657-.005" transform="translate(-8.596 -24.91)" fill="#fdbd9f"/>
        <path id="Trazado_157020" data-name="Trazado 157020" d="M64.339,164.061a1.5,1.5,0,0,1,2.223,0l-2.223,0" transform="translate(-9.799 -24.912)" fill="#fdbd9e"/>
        <path id="Trazado_157021" data-name="Trazado 157021" d="M66.315,130.061c0,2.478-3.368,4.649-5.417,3.658-1.118-.541-1.247-2.651-.035-3.075,2.043-.717,1.556-1.789.742-3a3.515,3.515,0,0,1-.636-2.3,1.558,1.558,0,0,1,1.177-1.448,1.33,1.33,0,0,1,1.591.483,17.153,17.153,0,0,1,2.578,5.683" transform="translate(-9.139 -18.856)" fill="#ee6865"/>
        <path id="Trazado_157022" data-name="Trazado 157022" d="M49.511,122.047c.114,1.908-.365,3.472-2.385,4.019a2.477,2.477,0,0,1-2.674-1.185c-.9-1.193-.91-4.551-.024-5.757a2.49,2.49,0,0,1,2.663-1.216c2.155.559,2.548,2.24,2.419,4.138" transform="translate(-6.667 -17.947)"/>
        <path id="Trazado_157023" data-name="Trazado 157023" d="M73.75,121.978c-.017-1.422-.158-2.937,1.428-3.683a2.639,2.639,0,0,1,3.4.811c.94,1.144.874,4.817-.089,5.916a2.593,2.593,0,0,1-3.4.682c-1.105-.559-1.336-1.253-1.329-3.726" transform="translate(-11.231 -17.97)"/>
        <path id="Trazado_157024" data-name="Trazado 157024" d="M26.028,130.931a11.854,11.854,0,0,1,3.62,1.3,1.494,1.494,0,0,1,.631,1.945,1.618,1.618,0,0,1-1.925,1.147,34,34,0,0,1-3.568-1.2,1.445,1.445,0,0,1-.973-1.956c.285-.836.926-1.327,2.216-1.238" transform="translate(-3.611 -19.94)" fill="#ee6965"/>
        <path id="Trazado_157025" data-name="Trazado 157025" d="M61.209,144.462a3.973,3.973,0,0,1-3.272-1.591,1.2,1.2,0,0,1-.018-1.783c.541-.6,1.1-.713,1.7-.1a2.192,2.192,0,0,0,3.339.092,1.212,1.212,0,0,1,1.8-.047c.624.682.328,1.366-.216,1.97a3.926,3.926,0,0,1-3.335,1.455" transform="translate(-8.762 -21.411)" fill="#ee6965"/>
        <path id="Trazado_157026" data-name="Trazado 157026" d="M99.712,132.385c.051,1.622-1.409,1.7-2.357,2.29a2.693,2.693,0,0,1-2.914.387.557.557,0,0,1-.162-.15,1.7,1.7,0,0,1-.076-2.251,5.211,5.211,0,0,1,4.208-2.09c.836.051,1.328.873,1.3,1.815" transform="translate(-14.288 -19.886)" fill="#ee6966"/>
      </g>
    </g>
  </g>
</svg>
