<svg xmlns="http://www.w3.org/2000/svg" xmlns:xlink="http://www.w3.org/1999/xlink" width="252" height="238" viewBox="0 0 252 238">
  <defs>
    <clipPath id="clip-path">
      <rect id="Rect치ngulo_41941" data-name="Rect치ngulo 41941" width="192.899" height="199.925" fill="none"/>
    </clipPath>
  </defs>
  <g id="_87" data-name="87" transform="translate(-6001 8142)">
    <rect id="Rect치ngulo_41569" data-name="Rect치ngulo 41569" width="252" height="238" transform="translate(6001 -8142)" fill="#ffd947"/>
    <g id="Grupo_167939" data-name="Grupo 167939" transform="translate(6031 -8123)">
      <g id="Grupo_167938" data-name="Grupo 167938" clip-path="url(#clip-path)">
        <path id="Trazado_157065" data-name="Trazado 157065" d="M134.358,187.581H47.686c-.458-.363-1.064-.111-1.547-.372A8.512,8.512,0,0,1,40.5,179c-.064-4.778-.026-9.557-.018-14.339q-.141-11.14-.008-22.276c-.008-4.038-.174-8.079.091-12.114a59.345,59.345,0,0,1,5.025-18.295A72.547,72.547,0,0,1,53.665,100.3a51.51,51.51,0,0,1,8.995-7.7c.584-.379,1.154-1.148,2.029-.508a5.413,5.413,0,0,1-.6,3.756c-1.41,1.438-2.732,2.955-4.016,4.508-1.915,2.314-1.756,4.285.5,6.274,1.847,1.627,3.993,2.923,5.475,4.957a49.154,49.154,0,0,1,1.889,9.327,77.866,77.866,0,0,1-4.328,7.332,15.324,15.324,0,0,0-1.475,2.725,3.672,3.672,0,0,0,.758,4.138c1.357,1.307,2.459,2.83,3.739,4.2,1.108,2.585,2.6,4.821,5.4,5.836,5.793,6.49,11.739,12.843,17.541,19.325a.954.954,0,0,0,.849.362,1.442,1.442,0,0,0,2.025.007.685.685,0,0,0,.832-.279c5.4-6.314,11.2-12.277,16.71-18.5.5-.566,1.032-1.291,1.939-.545a13.463,13.463,0,0,0,1.015,2.1,3.524,3.524,0,0,0,4.33,1.23c1.6-.685,2.784-2.507,2.1-4.128-1.189-2.824-.237-5.343.475-7.961.836-3.071,1.791-6.114.977-9.38a11.544,11.544,0,0,0-3.888-6.365c-2.813-2.3-2.862-2.357-1.668-5.911,2.228-2.8,4.946-5.138,7.268-7.86,2.339-2.743,2.523-3.766.306-6.568-1.651-2.087-3.63-3.9-5.185-6.068a3.051,3.051,0,0,1-.284-2.544c.978-.588,1.571.25,2.206.675a47.7,47.7,0,0,1,12.787,12.717,47.069,47.069,0,0,1,5.343,9.651,49.409,49.409,0,0,1,3.841,20.783c.077,2.171.06,4.341.015,6.513q.124,11.309,0,22.614c-.016,4.656.043,9.313-.024,13.97a8.525,8.525,0,0,1-5.638,8.23c-.483.26-1.091.009-1.552.372" transform="translate(5.431 12.344)" fill="#3cd8ce"/>
        <path id="Trazado_157066" data-name="Trazado 157066" d="M123.227,176.362c.27-.462.731-.378,1.154-.406a11.648,11.648,0,0,1,4-.631q22.077.02,44.152.019c1.142,0,2.358-.239,3.356.615l.041.4Z" transform="translate(16.562 23.563)" fill="#90a6ec"/>
        <path id="Trazado_157067" data-name="Trazado 157067" d="M51.914,175.954c.423.026.883-.051,1.154.406H.362c.015-.134.028-.268.041-.4a3.44,3.44,0,0,1,2.577-.616q22.759-.024,45.513-.012a10.628,10.628,0,0,1,3.42.625" transform="translate(0.049 23.565)" fill="#90a6ec"/>
        <path id="Trazado_157068" data-name="Trazado 157068" d="M59.229,10.741c4.872-3.6,9.923-6.9,15.806-8.633C85.908-1.1,96.566-.852,106.861,4.3,111.023,6.385,114.043,9.8,117,13.266c3.82,4.413,4.912,9.806,5.219,15.365.445,8.045-.462,16.086-.368,24.136a2.176,2.176,0,0,1-.647,1.953c-1.12-.361-.8-1.341-.822-2.1-.061-2.727-.058-5.456-.01-8.182a4.929,4.929,0,0,0-1.429-3.674c-2.255-2.42-4.474-4.878-6.631-7.388-1.089-1.268-2.088-1.251-3.551-.467a54.359,54.359,0,0,1-25.129,6.75,55.871,55.871,0,0,1-21.741-3.623,5.8,5.8,0,0,0-1.713-.328c-2.5-1.892-5.615-2.765-8-4.843-1.361-1.349-3.154-2.016-4.753-2.983-3.348-2.025-3.6-5.362-.526-7.739,2.927-2.263,5.868-4.508,8.8-6.761a6.013,6.013,0,0,1,3.534-2.643" transform="translate(6.013 0)" fill="#804f67"/>
        <path id="Trazado_157069" data-name="Trazado 157069" d="M59.455,106.5a85.524,85.524,0,0,0-7.9,11.282c-1.471.077-2.531-.9-3.679-1.546-11.04-6.2-22.155-12.256-33.193-18.456C9.38,94.8,4.05,96.434,1.134,101.813c-.254.469-.287,1.2-1.109,1.136q0-19.688,0-39.375C.031,56.345,6.9,48.9,14.034,47.833c4.989-.748,9.244.634,13.48,3.01,5.247,2.943,10.634,5.637,15.966,8.427,4.126,2.159,8.273,4.273,12.374,6.479a4.021,4.021,0,0,0,2.023.5q4.678-.026,9.355-.035a9.586,9.586,0,0,1,2.736,5.97A2.737,2.737,0,0,1,68.1,72.6c-5.726.014-10.051,2.632-13.355,7.16A5.192,5.192,0,0,1,53.5,81.245a10.542,10.542,0,0,1-5.017-1.084,3.048,3.048,0,0,1-.9-1.452,9.192,9.192,0,0,0-6.462-6.092,1.862,1.862,0,0,1-1.136-.676c-.631-1.545-1.6-2.613-3.447-2.465a10.773,10.773,0,0,1-3.246-.645c-4.6-1.58-10.248.819-13.142,5.638A12.341,12.341,0,0,0,21.44,88.674a11.6,11.6,0,0,0,6,3.807,5.035,5.035,0,0,1,2.332.927c1.427,3.633,4.016,5.453,7.988,5.112a2.524,2.524,0,0,0,.956-.152,4.039,4.039,0,0,1,4.971.5c1,.832,2.678.18,3.575-1.012a3.65,3.65,0,0,0-.264-4.5,5.528,5.528,0,0,0-1.429-1c-1.556-1.143-1.459-1.576.585-2.627a10.135,10.135,0,0,1,4.69,1.335,7.989,7.989,0,0,1,.8,2.971,17.366,17.366,0,0,0,6.582,10.86c.532.411,1.282.715,1.233,1.6" transform="translate(0.002 6.402)" fill="#f0f0f0"/>
        <path id="Trazado_157070" data-name="Trazado 157070" d="M128.242,118.776a64.8,64.8,0,0,0-5.228-9.4c.36-1.09,1.334-.943,2.115-.92,4.869.138,9.734.353,14.6.526,5.646.2,11.287.573,16.938.565,2.772,0,4.008-1.278,4.049-3.9.127-8.185.634-16.364.408-24.555-.018-.649.016-1.3-.058-1.949-.271-2.386-1.511-3.551-3.9-3.838-4.588-.549-9.21-.584-13.809-.738-10.838-.364-21.659-1.159-32.506-1.282a11.775,11.775,0,0,1-3.259-.535.857.857,0,0,1-.469-1.393c1.362-2.268,2.4-4.7,3.646-7.023.093-.176.31-.21.5-.231q12.959.015,25.919.034a3.333,3.333,0,0,0,1.871-.406c2.987-.4,6.01.053,9-.385.189,1.084,1.054.769,1.705.774,3.316.025,6.633.035,9.949.006,6.268-.054,11.616,2.01,15.462,7.079a14.794,14.794,0,0,1,3.336,8.966q.015,23.215,0,46.43c-1-.078-1.107-.984-1.459-1.622-2.015-3.658-4.962-5.633-9.265-5.614-12.123.056-24.247.024-36.371.012-1.088,0-2.225.167-3.174-.6" transform="translate(14.372 8.514)" fill="#f1f1f1"/>
        <path id="Trazado_157071" data-name="Trazado 157071" d="M117.8,66.121a49.858,49.858,0,0,1-4.245,8.232c-1.162,2.872-3.727,4.5-5.835,6.527-1.5,1.433-3.42,2.276-5.159,3.377a30.548,30.548,0,0,1-27.884-.01,33.657,33.657,0,0,1-11.436-9.892,3.772,3.772,0,0,1-1.171-2.367q-1.341-2.935-2.681-5.871-.465-1.969-.928-3.938c-.278-.833.347-1.129.891-1.427.881-.484,1.769-.96,2.63-1.482a18.965,18.965,0,0,0,2.856-1.326c5.175-2.719,10.52-5.087,15.767-7.657a17.5,17.5,0,0,1,15.794-.1c5.522,2.6,11.05,5.183,16.46,8.009.921.5,1.854.98,2.809,1.416.971.826,2.684.6,3.118,2.193l-.987,4.319" transform="translate(7.848 6.499)" fill="#00a89d"/>
        <path id="Trazado_157072" data-name="Trazado 157072" d="M129.124,159.4q0-11.5-.006-23a3.357,3.357,0,0,1,2.568-.636q20.418-.026,40.835,0a3.467,3.467,0,0,1,2.58.607q.007,11.535.012,23.07a3.489,3.489,0,0,1-2.581.613q-20.424.022-40.848,0a3.3,3.3,0,0,1-2.561-.657" transform="translate(17.354 18.245)" fill="#a3b5f6"/>
        <path id="Trazado_157073" data-name="Trazado 157073" d="M46.381,136.4q0,11.324.006,22.647a3.462,3.462,0,0,1-2.589.615q-20.4.022-40.8,0a3.466,3.466,0,0,1-2.592-.6L.4,136.369a3.476,3.476,0,0,1,2.581-.606q20.418-.022,40.835,0a3.363,3.363,0,0,1,2.568.638" transform="translate(0.053 18.245)" fill="#a3b5f6"/>
        <path id="Trazado_157074" data-name="Trazado 157074" d="M.411,156.3l45.975-.016c.014,4.018.208,8.045-.007,12.05-.247,4.631,1.37,8.042,5.53,10.177l-51.511,0Q.4,167.41.411,156.3" transform="translate(0.054 21.005)" fill="#748fe7"/>
        <path id="Trazado_157075" data-name="Trazado 157075" d="M129.779,156.594l45.99.044q-.007,10.919-.012,21.837l-51.512,0c4.177-2.135,5.781-5.564,5.53-10.2-.21-3.882-.012-7.785,0-11.68" transform="translate(16.699 21.047)" fill="#748fe7"/>
        <path id="Trazado_157076" data-name="Trazado 157076" d="M.026,97.23a30.624,30.624,0,0,1,2.306-3.767C5.655,89.393,11.3,89.4,15.587,91.912c6.432,3.767,13,7.3,19.506,10.941q8.234,4.6,16.464,9.208c-1.5,4.1-3.327,8.094-4.068,12.443q-.483,2.842-.973,5.682c-1.512.295-2.588-.719-3.747-1.345-5.147-2.785-10.359-5.445-15.5-8.249-7.133-3.728-14.185-7.61-21.334-11.309-2.565-1.327-4.905-2.976-5.487-6.134-.717-1.932-.345-3.942-.425-5.919" transform="translate(0 12.121)" fill="#dfdfdf"/>
        <path id="Trazado_157077" data-name="Trazado 157077" d="M125.717,112.211c13.17,0,26.34.069,39.509-.017,4.974-.033,8.155,2.335,10.168,6.656.187.4.395.792.592,1.188a24.7,24.7,0,0,1-.383,6.227c-1.541,4.682-5.13,7.206-10.528,7.236-9.284.052-18.569.014-27.854.016-1.754,0-3.506.015-5.259-.008a3.143,3.143,0,0,1-2.383-.613,53.786,53.786,0,0,0-3.86-20.685" transform="translate(16.897 15.079)" fill="#dfdfdf"/>
        <path id="Trazado_157078" data-name="Trazado 157078" d="M27.312,116.745q8.523,4.47,17.047,8.938c.69.36,1.4.676,2.1,1.013q-.039,6.172-.079,12.341L.4,139.006q0-11.106,0-22.212a3.357,3.357,0,0,1,2.559-.647c6.981-.018,13.961-.006,20.941-.011a11.1,11.1,0,0,1,3.416.609" transform="translate(0.053 15.609)" fill="#748fe7"/>
        <path id="Trazado_157079" data-name="Trazado 157079" d="M37.02,17.084c.429.381.841.783,1.288,1.141a11.022,11.022,0,0,1,3.4,12.961c-.838,2.029-1.4,4.861-2.97,5.7-1.45.778-3.749-1.358-5.663-2.227-4.659-2.115-9.265-4.346-13.929-6.449-1.074-.484-1.383-.936-.734-1.981a14.249,14.249,0,0,0,1.079-2.284c2.135-5.383,5.68-9.184,13.651-8.376a4.9,4.9,0,0,1,3.883,1.514" transform="translate(2.429 2.078)" fill="#feb200"/>
        <path id="Trazado_157080" data-name="Trazado 157080" d="M129.119,131.23c12.021.007,24.043.052,36.063,0a10,10,0,0,0,8.8-4.865c.378-.592.774-1.174,1.16-1.762q-.022,6.635-.043,13.27l-45.984.032q0-3.335,0-6.67" transform="translate(17.354 16.746)" fill="#748fe7"/>
        <path id="Trazado_157081" data-name="Trazado 157081" d="M137.36,57.677c.087-1.16-.668-1.19-1.521-1.184-2.8.019-5.591-.034-8.386.025-1.351.028-1.876-.5-1.829-1.843.065-1.818.042-3.64.007-5.46-.02-1.107.356-1.7,1.563-1.7q15.212.024,30.425,0c1.024,0,1.6.364,1.594,1.466-.015,2.015-.019,4.031,0,6.045.014,1.256-.725,1.491-1.778,1.483-2.99-.025-5.983.056-8.97-.043a2.022,2.022,0,0,0-2.127,1.214,14.351,14.351,0,0,0-8.981,0" transform="translate(16.884 6.386)" fill="#f0f0f0"/>
        <path id="Trazado_157082" data-name="Trazado 157082" d="M109.054,64.8l-2.769-1.291c-.022-.061-.077-.14-.058-.183a38.67,38.67,0,0,1,6.492-10.186,1.491,1.491,0,0,0,.337-1.271c-.152-8.314.676-16.618.328-24.931a29.224,29.224,0,0,0-4.122-14.02,2.23,2.23,0,0,1-.53-1.223c8.6,5.986,12.363,14.375,12.289,24.682a42.214,42.214,0,0,1-2.1,11.63c-.3,2.72-1.924,4.858-3.192,7.14-.783,1.409-1.775,2.7-2.664,4.049-.968,1.457-1.845,2.972-2.818,4.426-.316.473-.506,1.078-1.192,1.176" transform="translate(14.277 1.572)" fill="#5a2c42"/>
        <path id="Trazado_157083" data-name="Trazado 157083" d="M27.312,118.7.4,118.746q0-8.568,0-17.133a13.269,13.269,0,0,0,6.092,5.942c6.978,3.643,13.886,7.419,20.822,11.142" transform="translate(0.053 13.657)" fill="#a3b5f6"/>
        <path id="Trazado_157084" data-name="Trazado 157084" d="M65.882,61.183a7.129,7.129,0,0,1-2.667,1.3c-1.121-.3-1.5-1.332-2.039-2.16-.735-1.121-1.63-2.117-2.394-3.211-1.944-2.963-4.1-5.8-5.4-9.144a3.005,3.005,0,0,1-.416-1.663c-.915-3.557-2.044-7.067-2.133-10.795a33.455,33.455,0,0,1,.527-8.3c2.571.9,4.75,2.581,7.242,3.639.472.2.54.693.644,1.136a2.65,2.65,0,0,1,.4,2.221c-.647,4.969-.17,9.958-.305,14.936a5.24,5.24,0,0,0,1.134,3.239c1.47,2.052,2.888,4.141,4.346,6.2.547.773,1.293,1.5,1.058,2.6" transform="translate(6.827 3.657)" fill="#5a2c42"/>
        <path id="Trazado_157085" data-name="Trazado 157085" d="M35.235,18.435l-3.883-1.514a18.818,18.818,0,0,1,29.677-6.907,20.084,20.084,0,0,1-3.535,2.642c-6.516-5.029-17.4-4.062-22.259,5.78" transform="translate(4.214 0.727)" fill="#fe8f00"/>
        <path id="Trazado_157086" data-name="Trazado 157086" d="M112.015,54.711A77.072,77.072,0,0,0,118.221,43.7a8.678,8.678,0,0,1,4.193,9.386,9.024,9.024,0,0,1-7.772,7.046c-.9.054-1.806-.007-2.71-.016-1.182-1.821.061-3.605.083-5.408" transform="translate(14.976 5.874)" fill="#ed9f9f"/>
        <path id="Trazado_157087" data-name="Trazado 157087" d="M53.175,44.041a91.312,91.312,0,0,0,6.148,10.621c-.01,1.814,1.255,3.613.06,5.441a8.945,8.945,0,0,1-10.12-9.369c.288-2.769,1.167-5.306,3.911-6.693" transform="translate(6.616 5.919)" fill="#ed9f9f"/>
        <path id="Trazado_157088" data-name="Trazado 157088" d="M136.065,56.617a1.951,1.951,0,0,1,2.1-1.209c1.855.118,3.723.06,5.586.022.871-.018,1.361.252,1.3,1.19q-.4,3.9-.8,7.8c-.231.219-.455.619-.693.628-2.771.107-5.557.559-8.3-.243l.81-8.185" transform="translate(18.179 7.446)" fill="#dfdfdf"/>
        <path id="Trazado_157089" data-name="Trazado 157089" d="M58.224,58.845c.341-1.817-.937-3.618-.06-5.441a50.6,50.6,0,0,1,4.1,5.557c-1.039,1.149-3.04.885-3.736,2.541-.574-.833-.183-1.775-.306-2.658" transform="translate(7.775 7.178)" fill="#fad7c8"/>
        <path id="Trazado_157090" data-name="Trazado 157090" d="M112.379,53.407c.827,1.816-.414,3.6-.083,5.408-.1.769.219,1.587-.277,2.309l-3.3-1.932,3.66-5.784" transform="translate(14.612 7.178)" fill="#fbd7c7"/>
        <path id="Trazado_157091" data-name="Trazado 157091" d="M97.517,80.637a37.777,37.777,0,0,0,10.871-9.364c9.521.531,19.052.868,28.581,1.242,5.7.223,11.4.63,17.107.742,1.747.035,3.5.184,5.234.382a4.222,4.222,0,0,1,3.74,4.3c.192,9.231-.188,18.456-.366,27.682a3.759,3.759,0,0,1-3.773,3.494c-6.038.084-12.06-.34-18.083-.672-.261-.015-.521-.062-.779-.053-4.552.166-9.081-.381-13.628-.413-.689-.006-1.442-.237-2.048.337a49.368,49.368,0,0,0-14.411-13.572c-2.073-.225-3.534-1.771-5.383-2.481a43.973,43.973,0,0,0-5.587-2.206c-.725-.23-1.533-.386-1.873-1.231-.2-2.748-.746-5.51.4-8.189" transform="translate(13.012 9.579)" fill="#a3b5f6"/>
        <path id="Trazado_157092" data-name="Trazado 157092" d="M87.116,165.554c-.143.65-.406.719-.86.213q-8.8-9.817-17.616-19.625c.577-.7,1.42-.524,2.167-.641a6.192,6.192,0,0,0,5.251-5.041,5.621,5.621,0,0,0-3.073-6.17,5.706,5.706,0,0,1-3.3-4.619c-1.543-8.1-3.011-16.215-4.755-24.274a24.629,24.629,0,0,1,.72-13.807A8.682,8.682,0,0,0,66.1,89.9c.2-.706.841-.9,1.391-1.2a25.945,25.945,0,0,1,4.331-1.638c.728-.217,1.493-.534,2.16.177,1.362,4.559,1.728,9.306,2.63,13.952.531,2.74.982,5.494,1.461,8.244,2.937,17.329,5.965,34.642,8.949,51.964.233,1.353.934,2.754.1,4.155" transform="translate(8.639 11.666)" fill="#00a89d"/>
        <path id="Trazado_157093" data-name="Trazado 157093" d="M70.127,91.549l-1.048.608a9.345,9.345,0,0,1-5.165,2.872A52.379,52.379,0,0,0,53.437,103.6a18.769,18.769,0,0,1-8.654-15.227c.132-.154.322-.3.5-.253,3.011.9,5.142-1.191,7.574-2.234.878-.377.885-1.04.351-1.735-.989-1.284-1.887-2.634-2.768-3.989-.728-1.121-2.361-.779-2.979-1.992a16.131,16.131,0,0,1,13.915-8.989c.836-.062,1.682,0,2.523.006A36.143,36.143,0,0,0,76.36,80.913a2.923,2.923,0,0,1,.284,2.938c-.461.674-1.139.43-1.763.406-2.841-.11-4.279,1.149-4.574,4.018a22.892,22.892,0,0,1-.18,3.274" transform="translate(6.019 9.295)" fill="#a3b5f6"/>
        <path id="Trazado_157094" data-name="Trazado 157094" d="M85.543,162.981q-2.278-13.334-4.553-26.666-2.513-14.78-5.007-29.565c.628-.885,1.149-.11,1.579.184q9.029,6.179,17.773-.358c.465-.347.944-1.012,1.665-.368.556,1.5-.045,2.959-.245,4.409-.407,2.959-.946,5.9-1.449,8.843-2.408,4.152-3.477,8.778-4.7,13.35a4.077,4.077,0,0,1-1.411,2.045c-3.033,2.608-2.606,5.361,1.069,7.013a1.7,1.7,0,0,1,.931.663,3.5,3.5,0,0,1,.056,2.1c-.917,5.286-1.652,10.6-2.58,15.887-.152.87-.145,1.83-.94,2.467-.478.335-.083,1.315-1.1,1.316s-.608-.987-1.088-1.318" transform="translate(10.212 14.238)" fill="#fefefe"/>
        <path id="Trazado_157095" data-name="Trazado 157095" d="M86.337,161.369q1.484-9.3,2.968-18.6c.1-.639.177-1.282.265-1.923a1.364,1.364,0,0,1,.731-.6c2.885-1.476,3.449-2.828,2.337-5.8a4.292,4.292,0,0,1-.146-2.855c.718-2.366,1.207-4.794,1.936-7.158,1.371-4.449,5-6.837,9.859-6.442,3.62.295,6.832,3.605,7.476,7.69a5.818,5.818,0,0,1-.056,1.938c-.529,3.019-1.56,5.91-2.252,8.887a2.309,2.309,0,0,1-.733,1.357,15.078,15.078,0,0,0-3.293,4.006c-1.949,1.314-3.274,3.257-4.86,4.926-3.913,4.12-7.682,8.381-11.5,12.593-.649.717-1.255,1.474-1.88,2.213-.44.518-.719.421-.853-.223" transform="translate(11.604 15.852)" fill="#00a89d"/>
        <path id="Trazado_157096" data-name="Trazado 157096" d="M105.559,145.7a3.78,3.78,0,0,1,1.767-3.291,4.01,4.01,0,0,0,1.986-3.1c.6-2.516,1.382-4.99,1.892-7.522a8.2,8.2,0,0,0-5.982-9.385,8.383,8.383,0,0,0-10.047,5.569c-.8,2.665-1.434,5.376-2.193,8.053a2.613,2.613,0,0,0,.208,2.032c1.646,3.331.233,5.969-3.492,6.626a4.325,4.325,0,0,1-4.205-3.405c-.463-1.761.339-3.461,2.311-4.671a2.441,2.441,0,0,0,1.087-1.7c.631-2.375,1.319-4.736,1.9-7.123a17.237,17.237,0,0,1,2.779-5.717c1.775-3.188,4.848-4.137,8.137-4.532,2.547-.306,2.565-.187,3.066-2.713.67-3.373,1.291-6.758,2.042-10.112a23.51,23.51,0,0,0-.649-13.042c-.247-.721-.828-1.57.142-2.261l5.192,2.91q.252,1.346.5,2.691c1.3,2.079.963,4.373.735,6.6-.394,3.859-1.359,7.625-2.073,11.434a12.27,12.27,0,0,1-.99,2.295,7.19,7.19,0,0,1-.231.943c-.744,1.891-.358,3.1,1.437,4.462,4.272,3.244,5.532,7.793,4.344,13-.432,1.89-.937,3.766-1.494,5.623-.522,1.744-.868,3.293.058,5.174,1.113,2.261-.672,4.966-3.148,5.46-2.567.51-4.658-1.252-5.08-4.285" transform="translate(11.473 12.015)" fill="#5a2c42"/>
        <path id="Trazado_157097" data-name="Trazado 157097" d="M61.8,92.3l5.164-2.871c.164,2.1-1,3.9-1.371,5.9-.8,4.295.163,8.387.959,12.509,1.484,7.689,3.057,15.36,4.544,23.049a2.12,2.12,0,0,0,1.344,1.887c3.653,1.521,5.3,4.271,4.643,7.519q-1.1,5.44-7.352,5.458c-.194,0-.389.023-.583.034a7.634,7.634,0,0,1-5.386-5.891c-.954-2.209.152-3.975,1.487-5.456a3.823,3.823,0,0,0,.935-3.711c-.586-3.048-1.545-6.05-1.362-9.212l-1.919-9.78a34.275,34.275,0,0,1-2.42-14.217,2.7,2.7,0,0,1,.532-1.442L61.8,92.3" transform="translate(8.128 12.02)" fill="#5a2c42"/>
        <path id="Trazado_157098" data-name="Trazado 157098" d="M122.033,154.258a40.268,40.268,0,0,1-2.3,10.755,2.434,2.434,0,0,1-2.48,1.808c-1.324-.043-1.908-.98-2.124-2.161-.29-1.593-.526-3.2-.8-4.792-.154-.917-.575-1.61-1.619-1.614s-1.45.668-1.651,1.586c-.347,1.583-.754,3.151-1.1,4.734-.254,1.175-.784,2.1-2.076,2.247a2.382,2.382,0,0,1-2.542-1.708,23.986,23.986,0,0,1-2.027-13.654,4.728,4.728,0,0,1,6.549-3.812,6.721,6.721,0,0,0,4.555.213c4.219-1.42,6.569-.007,7.376,4.413.128.7.166,1.412.229,1.984" transform="translate(13.849 19.799)" fill="#fefefe"/>
        <path id="Trazado_157099" data-name="Trazado 157099" d="M65.057,117.716c.749,3.66,1.482,7.324,2.26,10.976a1.11,1.11,0,0,1-.514,1.3c-2.042,1.516-2.719,3.68-2.805,6.105-1.5-1.586-3.123-3.079-4.467-4.789a3.885,3.885,0,0,1-.079-4.564c1.822-3.037,3.732-6.02,5.606-9.026" transform="translate(7.896 15.821)" fill="#00a89d"/>
        <path id="Trazado_157100" data-name="Trazado 157100" d="M106.794,114.661c.786-4.325,1.556-8.655,2.366-12.976a25.217,25.217,0,0,0-.039-7.351,69.735,69.735,0,0,1,6.188,6.935c1.18,1.48.969,3.4-.466,4.98a109.642,109.642,0,0,1-8.05,8.413" transform="translate(14.353 12.679)" fill="#00a89d"/>
        <path id="Trazado_157101" data-name="Trazado 157101" d="M61.605,95.291c-.412,5.345,1.054,10.465,1.888,15.659-1.79-1.47-3.6-2.91-5.362-4.416-2.585-2.214-2.686-4.648-.345-7.169,1.266-1.365,2.237-3.006,3.82-4.074" transform="translate(7.541 12.807)" fill="#00a89d"/>
        <path id="Trazado_157102" data-name="Trazado 157102" d="M64.92,61.112c-2.02-2.936-4.032-5.877-6.068-8.8A3.814,3.814,0,0,1,57.971,50c.121-6.029-.27-12.068.312-18.089.419-.851.995-.495,1.605-.248A54.731,54.731,0,0,0,85.3,35.29a52.476,52.476,0,0,0,22.265-7.073c1.184-.694,1.845-.676,2.753.375,2.634,3.048,5.354,6.023,8.092,8.979a3.065,3.065,0,0,1,.8,2.293c-.022,3.7-.009,7.411-.009,11.116l-6.434,10.37c-5.141-2.481-10.317-4.892-15.413-7.462a18.224,18.224,0,0,0-17.536.09c-4.9,2.514-9.931,4.766-14.9,7.134" transform="translate(7.789 3.729)" fill="#fdd8c8"/>
        <path id="Trazado_157103" data-name="Trazado 157103" d="M42.973,87.324c-.363.577-2.4.779-.423,1.883-2.539,1.2-5.016,2.658-8.018,1.909-.111-.067-.272-.143-.285-.247-.4-3.236-2.627-4.324-5.45-5.168-2.016-.6-4.2-1.537-4.7-4.109.617-.7,1.318-.191,1.984-.126s1.337.5,2.17.056c-1.661-1.753-3.736-3.037-4.944-5.13.087-.782.748-1.02,1.31-1.276a17.3,17.3,0,0,0,7.618-6.6,1.57,1.57,0,0,1,.741-.6A5.474,5.474,0,0,1,37.06,68.95c2.67.969,5.312,1.96,6.8,4.67A12.331,12.331,0,0,1,45.3,77.193a2.757,2.757,0,0,1,.689.909c.813,2.264-.982,7.768-3.015,9.223" transform="translate(3.133 9.12)" fill="#fdd8c8"/>
        <path id="Trazado_157104" data-name="Trazado 157104" d="M25.183,81.7c1.324,2.572,3.675,3.692,6.29,4.409,3.092.85,3.943,1.911,3.95,5.042-.856.835-1.944.529-2.955.606a19.85,19.85,0,0,0-3.56.053,2.069,2.069,0,0,1-1.437-.609c-2.883-.792-5.784-1.514-7.937-3.844a12.511,12.511,0,0,1-2.921-13.338,12.117,12.117,0,0,1,10.423-8.5c2.592-.374,4.969.8,7.462,1.15.733.923-.1,1.362-.59,1.9a16.339,16.339,0,0,1-7.574,7.036c-.621.31-1.394.393-1.791,1.081-.937.929-.674,1.922-.214,2.97.3.675,1.019,1.178.855,2.043" transform="translate(2.125 8.796)" fill="#804f67"/>
        <path id="Trazado_157105" data-name="Trazado 157105" d="M40.643,86.218C42.7,83.136,43.8,79.833,42.97,76.087l5.044,1.157c3.945.5,4.671,4.3,6.785,6.667.515.579-.053.925-.533,1.167-1.851.939-3.694,1.894-5.564,2.791-1.181.565-2.223-.4-3.361-.423l-4.7-1.227" transform="translate(5.463 10.226)" fill="#fec4b6"/>
        <path id="Trazado_157106" data-name="Trazado 157106" d="M26.09,88.347l1.265.369c1.138-.15,2.339.285,3.42-.373l3.267-.045a8.545,8.545,0,0,0,5.37-1.028,5.213,5.213,0,0,1,2.765-.591c2.316,1.094,3.185,2.588,2.754,4.734A3.648,3.648,0,0,1,38.76,93.37c-.785-.765-1.214-.7-2.085-.255A7.366,7.366,0,0,1,26.09,88.347" transform="translate(3.507 11.649)" fill="#5a2c42"/>
        <path id="Trazado_157107" data-name="Trazado 157107" d="M31.764,68.43q.3-.953.59-1.9c2.022-.267,3.133.711,3.571,2.61-1.436.053-2.709-.853-4.161-.706" transform="translate(4.269 8.935)" fill="#eba0a1"/>
        <path id="Trazado_157108" data-name="Trazado 157108" d="M97.344,109.542c-3.243,2.884-6.869,4.637-11.377,4.4a15.515,15.515,0,0,1-8.34-3.192c-.329-.234-.533-.821-1.112-.445Q74.371,99.266,72.7,88.152a6.033,6.033,0,0,1-.01-5.535q0-1.548.006-3.1a31.319,31.319,0,0,0,28.149.009q.024,4.3.045,8.6a2.586,2.586,0,0,1,.261,2.23c-.984,5.665-1.749,11.367-2.778,17.024-.145.8-.093,1.725-1.032,2.158" transform="translate(9.68 10.688)" fill="#fec4b6"/>
        <path id="Trazado_157109" data-name="Trazado 157109" d="M94.579,108.522c.9-5.284,1.813-10.566,2.7-15.852.311-1.848.567-3.706.849-5.56a26.89,26.89,0,0,1,7.208,2.6c-.436,1.1.347,1.969.641,2.9a23.214,23.214,0,0,1,.571,11.69c-.841,4.246-1.739,8.481-2.558,12.73-.153.8-.293,1.327-1.282,1.251-4.035-.307-7.273,1.4-10.111,4.086q.883-5.859,1.761-11.721c.1-.7.149-1.415.221-2.122" transform="translate(12.445 11.708)" fill="#00a89d"/>
        <path id="Trazado_157110" data-name="Trazado 157110" d="M73.407,82.3l.01,5.535c-2.248.141-4.149,1.366-6.237,2A7.081,7.081,0,0,1,67.7,83.7c1.352-2.313,3.557-1.93,5.709-1.406" transform="translate(8.967 11.007)" fill="#fdd8c8"/>
        <path id="Trazado_157111" data-name="Trazado 157111" d="M69.781,136.711a3.029,3.029,0,0,1-3.319-3.018,3.152,3.152,0,0,1,3.345-3.23,3.382,3.382,0,0,1,3.247,3.183,3.023,3.023,0,0,1-3.273,3.064" transform="translate(8.932 17.535)" fill="#693b51"/>
        <path id="Trazado_157112" data-name="Trazado 157112" d="M99.986,37.551a10.422,10.422,0,0,1,5.594,1.629c.856.541,1.428,1.277.849,2.264a1.535,1.535,0,0,1-2.364.457,6.718,6.718,0,0,0-7.85-.025,1.593,1.593,0,0,1-2.4-.352c-.63-.951-.128-1.7.743-2.272a10.235,10.235,0,0,1,5.432-1.7" transform="translate(12.571 5.047)" fill="#5b2d43"/>
        <path id="Trazado_157113" data-name="Trazado 157113" d="M71.389,37.551a10.4,10.4,0,0,1,5.584,1.632c.851.538,1.44,1.258.842,2.256a1.538,1.538,0,0,1-2.365.462,6.723,6.723,0,0,0-7.852-.025,1.582,1.582,0,0,1-2.4-.349c-.625-.956-.123-1.708.745-2.278a10.216,10.216,0,0,1,5.445-1.7" transform="translate(8.725 5.047)" fill="#5b2d43"/>
        <path id="Trazado_157114" data-name="Trazado 157114" d="M102.16,50.7c0,1.784-1.053,3.114-2.483,3.137s-2.56-1.308-2.6-3.053c-.042-1.779,1.174-3.3,2.611-3.261,1.378.035,2.475,1.443,2.474,3.177" transform="translate(13.047 6.387)" fill="#5b2d43"/>
        <path id="Trazado_157115" data-name="Trazado 157115" d="M73.579,50.692a2.9,2.9,0,0,1-2.523,2.976,2.846,2.846,0,0,1-2.563-3.1,2.636,2.636,0,0,1,2.588-2.816,2.748,2.748,0,0,1,2.5,2.942" transform="translate(9.206 6.418)" fill="#5b2e43"/>
        <path id="Trazado_157116" data-name="Trazado 157116" d="M24.3,80.367A6.98,6.98,0,0,1,22.46,77c-.228-.988-.012-1.69,1.2-1.647l5.877,5.56c-2.057.782-3.618-.151-5.236-.547" transform="translate(3.008 10.128)" fill="#6b3c53"/>
        <path id="Trazado_157117" data-name="Trazado 157117" d="M30.626,88.153c-1.026,1.17-2.211.883-3.42.374,1.064-.821,2.284-.22,3.42-.374" transform="translate(3.657 11.839)" fill="#e49899"/>
      </g>
    </g>
  </g>
</svg>
