<svg xmlns="http://www.w3.org/2000/svg" xmlns:xlink="http://www.w3.org/1999/xlink" width="105" height="105" viewBox="0 0 105 105">
  <defs>
    <clipPath id="clip-path">
      <rect id="Rectángulo_41946" data-name="Rectángulo 41946" width="82.587" height="73.269" fill="none"/>
    </clipPath>
  </defs>
  <g id="_94" data-name="94" transform="translate(-5008 4883)">
    <g id="Grupo_167977" data-name="Grupo 167977" transform="translate(4250 -11701)">
      <circle id="Elipse_4894" data-name="Elipse 4894" cx="52.5" cy="52.5" r="52.5" transform="translate(758 6818)" fill="#a6bbff"/>
      <g id="Grupo_167952" data-name="Grupo 167952" transform="translate(769 6834)">
        <g id="Grupo_167951" data-name="Grupo 167951" clip-path="url(#clip-path)">
          <path id="Trazado_157380" data-name="Trazado 157380" d="M34.645,1.483A1.644,1.644,0,0,1,36.53.022q2.781-.007,5.562,0a5.155,5.155,0,0,1,3.05,9.394,8.522,8.522,0,0,0-1.356,1.134,5.193,5.193,0,0,0,.14,7.21c1.752,1.782,3.6,3.47,5.322,5.279,7.717,8.112,10.33,17.63,7.756,28.547-.024.1-.038.207-.068.378h.9c7.524,0,15.047.013,22.571-.017a2.172,2.172,0,0,1,2.18,1.146V61.16a5.944,5.944,0,0,0-.369,1.526A13.794,13.794,0,0,1,68.867,73.253q-7.742.038-15.483,0A13.241,13.241,0,0,1,45.095,70.4c-.452-.351-.665-.306-1.011.093-.615.71-1.3,1.364-1.931,2.057a2.075,2.075,0,0,1-1.632.715q-11.532-.017-23.064,0A1.858,1.858,0,0,1,16,72.721c-3.131-3.363-6.471-6.538-9.4-10.08a29.585,29.585,0,0,1,1.494-38.95c1.788-1.859,3.663-3.635,5.5-5.447,2.892-2.852,2.621-6.381-.676-8.771a5.2,5.2,0,0,1-2.183-5.416A5.018,5.018,0,0,1,15.074.086,41.76,41.76,0,0,1,19.263.021c.672,0,1.344,0,2.016,0,1.335,0,1.757.327,2.106,1.611A1.593,1.593,0,0,1,22.076,3.42a4.141,4.141,0,0,1-.963.07c-1.558,0-3.116,0-4.674,0a3.642,3.642,0,0,0-1.116.124,1.626,1.626,0,0,0,.022,3.142,4.254,4.254,0,0,0,1.279.116q12.41,0,24.82,0a4.471,4.471,0,0,0,1.122-.08,1.736,1.736,0,0,0,1.3-1.648,1.74,1.74,0,0,0-1.292-1.571,4.1,4.1,0,0,0-1.041-.083c-1.612,0-3.224,0-4.835,0A2.456,2.456,0,0,1,35.1,3.023a1.147,1.147,0,0,1-.459-1.54" transform="translate(0 0)"/>
          <path id="Trazado_157381" data-name="Trazado 157381" d="M45.729,2.667c.1,1.247.645,1.759,1.912,1.763,1.8.006,3.6,0,5.4,0a1.985,1.985,0,0,1,2.2,1.948A1.992,1.992,0,0,1,53.015,8.3q-12.945,0-25.891,0a1.949,1.949,0,1,1,0-3.868c1.747-.007,3.5,0,5.243,0,1.329,0,1.758-.333,2.105-1.615q1.582,0,3.164,0a1.242,1.242,0,0,0,.836-.153c.21.126.209.357.27.554a1.376,1.376,0,0,0,1.234.979,1.328,1.328,0,0,0,1.268-.673c.173-.229.206-.555.488-.709q1.573,0,3.145,0a1.3,1.3,0,0,0,.855-.151" transform="translate(-11.084 -1.184)" fill="#dcb8a2"/>
          <path id="Trazado_157382" data-name="Trazado 157382" d="M52.567,1.649c-.37,1.359-1.272,1.932-2.3,1.461A1.6,1.6,0,0,1,49.307,1.5C49.574.517,50.136.02,50.95.041s1.317.507,1.617,1.608" transform="translate(-21.922 -0.018)" fill="#010101"/>
          <path id="Trazado_157383" data-name="Trazado 157383" d="M31.651,82.184c8.28,0,16.56.011,24.839-.019.746,0,.92.208.825.9A36.4,36.4,0,0,1,56.4,87.8a.79.79,0,0,1-.924.709c-3.709-.03-7.419-.017-11.129-.014-1.476,0-2.053.563-2.026,2.054.044,2.389-.143,4.783.122,7.168a12.946,12.946,0,0,0,2.19,5.9.716.716,0,0,1-.051,1.022,4.679,4.679,0,0,1-4.289,1.978c-6.287-.151-12.579-.066-18.87-.043a1.864,1.864,0,0,1-1.526-.665c-2.656-2.887-5.505-5.6-8.022-8.612A25.673,25.673,0,0,1,5.964,82.931c-.072-.755.216-.754.767-.754q12.46.016,24.92.007" transform="translate(-2.647 -36.531)" fill="#c58965"/>
          <path id="Trazado_157384" data-name="Trazado 157384" d="M31.591,68.632q-12.417,0-24.834.014c-.648,0-.856-.087-.783-.816a28.077,28.077,0,0,1,2.161-8.3.826.826,0,0,1,.891-.593q22.618.022,45.235,0a.819.819,0,0,1,.878.595,28.39,28.39,0,0,1,2.174,8.212c.078.673-.038.908-.806.9-8.3-.033-16.61-.021-24.915-.021" transform="translate(-2.649 -26.205)" fill="#fecc69"/>
          <path id="Trazado_157385" data-name="Trazado 157385" d="M56.546,45.984H13.9a2.461,2.461,0,0,1,.623-1.066c2.075-2.841,4.781-5.085,7.212-7.59a.919.919,0,0,1,.743-.22H47.882a.922.922,0,0,1,.741.227C51.075,39.857,53.8,42.119,55.877,45c.213.3.409.6.669.988" transform="translate(-6.179 -16.498)" fill="#6d91ab"/>
          <path id="Trazado_157386" data-name="Trazado 157386" d="M113.479,115.714c-2.034,3.546-4.955,5.616-8.94,5.72q-8.173.212-16.355,0c-3.975-.111-6.892-2.183-8.909-5.717Z" transform="translate(-35.247 -51.447)" fill="#fecc69"/>
          <path id="Trazado_157387" data-name="Trazado 157387" d="M53.467,26.255H41.085c.088-.369.388-.53.6-.746,1.7-1.717,3.421-3.421,5.125-5.139.267-.269.434-.47.813-.082,1.859,1.9,3.753,3.772,5.632,5.656a2.377,2.377,0,0,1,.21.311" transform="translate(-18.267 -8.924)" fill="#fd7a78"/>
          <path id="Trazado_157388" data-name="Trazado 157388" d="M111.063,99.453c-1.659,1.66-3.228,3.223-4.787,4.8-.219.221-.372.224-.594,0-1.563-1.569-3.137-3.129-4.813-4.8Z" transform="translate(-44.847 -44.217)" fill="#fe7b79"/>
          <path id="Trazado_157389" data-name="Trazado 157389" d="M94.979,105.8H84.921c-.066-.24.154-.318.268-.433,1.4-1.41,2.808-2.808,4.206-4.218.265-.267.447-.479.826-.091,1.521,1.552,3.075,3.071,4.756,4.742" transform="translate(-37.751 -44.836)" fill="#cae458"/>
          <path id="Trazado_157390" data-name="Trazado 157390" d="M117.156,105.774c1.677-1.676,3.25-3.245,4.817-4.819.181-.182.323-.24.533-.029,1.576,1.59,3.159,3.172,4.83,4.847Z" transform="translate(-52.088 -44.813)" fill="#cae458"/>
          <path id="Trazado_157391" data-name="Trazado 157391" d="M59.652,18.7h6.81a9.077,9.077,0,0,0-.345,6.466L59.652,18.7" transform="translate(-26.522 -8.312)" fill="#7fb5fe"/>
          <path id="Trazado_157392" data-name="Trazado 157392" d="M32.761,25.094a8.54,8.54,0,0,0-.405-6.361h6.765l-6.359,6.361" transform="translate(-14.386 -8.329)" fill="#7fb5fe"/>
          <path id="Trazado_157393" data-name="Trazado 157393" d="M82.364,99.372l-5.121,5.1v-3.485c0-1.616,0-1.616,1.616-1.616Z" transform="translate(-34.343 -44.181)" fill="#fe7b79"/>
          <path id="Trazado_157394" data-name="Trazado 157394" d="M134.155,99.366c1.313,0,2.859.009,4.405-.007.357,0,.456.118.453.462-.015,1.525-.007,3.051-.007,4.406l-4.851-4.861" transform="translate(-59.646 -44.175)" fill="#fe7a79"/>
          <path id="Trazado_157395" data-name="Trazado 157395" d="M67.182,64.784a1.608,1.608,0,0,1,1.642,1.607A1.661,1.661,0,0,1,67.237,68a1.63,1.63,0,0,1-1.625-1.549,1.579,1.579,0,0,1,1.57-1.662" transform="translate(-29.171 -28.803)" fill="#010101"/>
          <path id="Trazado_157396" data-name="Trazado 157396" d="M85.106,66.388a1.608,1.608,0,1,1-3.216-.022,1.608,1.608,0,0,1,3.216.022" transform="translate(-36.409 -28.802)" fill="#010100"/>
          <path id="Trazado_157397" data-name="Trazado 157397" d="M34.65,64.784a1.617,1.617,0,0,1,1.6,1.572A1.666,1.666,0,0,1,34.618,68a1.613,1.613,0,0,1-1.575-1.673,1.56,1.56,0,0,1,1.606-1.539" transform="translate(-14.691 -28.803)" fill="#010101"/>
          <path id="Trazado_157398" data-name="Trazado 157398" d="M50.89,64.784a1.614,1.614,0,0,1,1.649,1.6,1.67,1.67,0,0,1-1.582,1.608,1.622,1.622,0,0,1-1.627-1.623,1.567,1.567,0,0,1,1.561-1.587" transform="translate(-21.932 -28.803)" fill="#010101"/>
          <path id="Trazado_157399" data-name="Trazado 157399" d="M16.752,66.372a1.559,1.559,0,0,1,1.555-1.59,1.6,1.6,0,0,1,1.642,1.6,1.643,1.643,0,0,1-1.653,1.61,1.6,1.6,0,0,1-1.544-1.622" transform="translate(-7.448 -28.802)" fill="#010100"/>
        </g>
      </g>
    </g>
  </g>
</svg>
