<svg xmlns="http://www.w3.org/2000/svg" xmlns:xlink="http://www.w3.org/1999/xlink" width="105" height="105" viewBox="0 0 105 105">
  <defs>
    <clipPath id="clip-path">
      <rect id="Rectángulo_41949" data-name="Rectángulo 41949" width="68.854" height="68.789" fill="none"/>
    </clipPath>
  </defs>
  <g id="_95" data-name="95" transform="translate(-5322 4880)">
    <g id="Grupo_167978" data-name="Grupo 167978" transform="translate(4250 -11701)">
      <circle id="Elipse_4895" data-name="Elipse 4895" cx="52.5" cy="52.5" r="52.5" transform="translate(1072 6821)" fill="#a6bbff"/>
      <g id="Grupo_167955" data-name="Grupo 167955" transform="translate(1090 6839)">
        <g id="Grupo_167954" data-name="Grupo 167954" transform="translate(0 0)" clip-path="url(#clip-path)">
          <path id="Trazado_157400" data-name="Trazado 157400" d="M0,64.954V3.757A4.3,4.3,0,0,1,3.757,0H50.318A4.5,4.5,0,0,1,54.4,4.913q0,9.092,0,18.183a1.937,1.937,0,0,0,.053.723c.3-.055.425-.287.591-.452,1.729-1.719,3.444-3.451,5.175-5.167a5.061,5.061,0,0,1,7.734,6.46,9.034,9.034,0,0,1-1.137,1.319q-5.837,5.832-11.68,11.661a2.368,2.368,0,0,0-.751,1.836q.029,12.245.013,24.49a4.8,4.8,0,0,1-2.175,4.153,4.111,4.111,0,0,1-2.48.659q-12.276-.005-24.553,0c-6.91,0-13.819-.018-20.729.013A4.531,4.531,0,0,1,.5,66.6,4.644,4.644,0,0,1,0,64.954" transform="translate(0 0)"/>
          <path id="Trazado_157401" data-name="Trazado 157401" d="M26.807,65.708c-.224-1.016-.621-1.338-1.672-1.339-4.248,0-8.5-.012-12.744.013-.536,0-.643-.149-.643-.658q.021-25.659,0-51.319c0-.51.108-.667.645-.658,2.146.034,4.293.023,6.439.007.393,0,.56.049.595.521a4.087,4.087,0,0,0,3.945,3.762q7.444.06,14.89,0A4.094,4.094,0,0,0,42.2,12.27c.032-.4.112-.523.529-.519q3.32.034,6.64,0c.434-.005.5.131.5.526q-.017,11.741,0,23.48a.943.943,0,0,1-.362.807,7.712,7.712,0,0,0-2.176,3.151c-1.013,2.4-2.1,4.775-3.167,7.152a1.459,1.459,0,0,0,.143,1.795,1.428,1.428,0,0,0,1.789.164c1.226-.569,2.47-1.1,3.765-1.672v1.413c0,5.076-.007,10.152.012,15.228,0,.461-.1.591-.578.588-4.27-.021-8.54-.013-12.811-.012-1.052,0-1.451.324-1.671,1.339a4.9,4.9,0,0,1-2.509.14c-.291-.1-.339-.385-.458-.614a1.144,1.144,0,0,0-2.067-.016c-.12.229-.167.514-.454.624a4.829,4.829,0,0,1-2.524-.133" transform="translate(-3.709 -3.708)" fill="#fefefe"/>
          <path id="Trazado_157402" data-name="Trazado 157402" d="M29.7,63.232h2.644a1.415,1.415,0,0,0,1.67,1.343q7.178,0,14.355,0c1.239,0,1.705-.463,1.705-1.694,0-6.239.008-12.479-.012-18.718a.851.851,0,0,1,.638-.981c.685-.24,1.333-.584,2.058-.911v.721q0,10.969,0,21.939c0,1.643-.678,2.329-2.307,2.329H6.251c-1.644,0-2.329-.677-2.329-2.306q0-29.351,0-58.7c0-1.648.675-2.332,2.3-2.333,3.354,0,6.708.013,10.062-.014.544,0,.7.157.644.67-.07.658.278,1.544-.144,1.92-.366.326-1.232.1-1.876.106-2.214,0-4.427,0-6.641,0-1.2,0-1.661.465-1.661,1.668q0,27.306,0,54.611c0,1.232.465,1.694,1.705,1.694q7.178,0,14.355,0a1.416,1.416,0,0,0,1.67-1.343h2.644c.193.109.229.32.319.494a1.156,1.156,0,0,0,2.086,0c.089-.174.127-.386.319-.495" transform="translate(-1.238 -1.232)" fill="#79b1fe"/>
          <path id="Trazado_157403" data-name="Trazado 157403" d="M35.575,3.918c2.7,0,5.407.011,8.11-.01.469,0,.654.066.639.6-.042,1.563-.008,3.128-.017,4.692a1.517,1.517,0,0,1-1.7,1.694q-7.037.007-14.075,0A1.516,1.516,0,0,1,26.84,9.2c-.008-1.586.019-3.173-.015-4.759-.01-.476.172-.53.573-.528,2.726.014,5.451.008,8.177.008" transform="translate(-8.469 -1.234)" fill="#bcd8fe"/>
          <path id="Trazado_157404" data-name="Trazado 157404" d="M66.608,31.079V8.621c0-1.673-.339-2.018-1.984-2.018-2.593,0-5.186-.009-7.78.01-.425,0-.6-.09-.564-.547a15.571,15.571,0,0,0,0-1.677c-.011-.32.042-.479.426-.478,3.577.015,7.154,0,10.73.019a1.849,1.849,0,0,1,1.846,1.834c.01.179,0,.358,0,.536q0,10.7.012,21.4a1.445,1.445,0,0,1-.493,1.162c-.711.673-1.382,1.388-2.2,2.22" transform="translate(-17.766 -1.235)" fill="#79b1fe"/>
          <path id="Trazado_157405" data-name="Trazado 157405" d="M84.618,36.589c-.105.112-.193.212-.287.305Q78.6,42.629,72.871,48.368c-.251.252-.4.249-.638,0-.823-.851-1.665-1.684-2.509-2.513-.2-.2-.287-.314-.031-.569q5.772-5.742,11.522-11.507c.151-.151.271-.37.532-.1.891.909,1.8,1.8,2.7,2.7.059.059.107.13.173.211" transform="translate(-21.952 -10.591)" fill="#fec05a"/>
          <path id="Trazado_157406" data-name="Trazado 157406" d="M94.4,30.4a3.09,3.09,0,0,1-1.273,2.579c-.18.172-.281,0-.382-.1q-1.33-1.32-2.652-2.648c-.089-.089-.19-.154-.111-.332a2.538,2.538,0,0,1,3.255-1.052A2.074,2.074,0,0,1,94.4,30.4" transform="translate(-28.399 -9.03)" fill="#fe6876"/>
          <path id="Trazado_157407" data-name="Trazado 157407" d="M64.6,58.626c.6-1.336,1.133-2.527,1.654-3.725.132-.3.259-.231.432-.055.567.571,1.133,1.143,1.709,1.706.2.19.211.308-.063.428-1.2.521-2.39,1.052-3.733,1.646" transform="translate(-20.394 -17.267)" fill="#97a0b2"/>
          <path id="Trazado_157408" data-name="Trazado 157408" d="M22.921,23.533c1.341,0,2.681,0,4.022,0,1.065,0,1.579.5,1.581,1.543q.009,4.089,0,8.179c0,1.049-.511,1.546-1.577,1.548q-4.054.008-8.11,0c-1.091,0-1.579-.5-1.581-1.611q-.006-4.022,0-8.045c0-1.141.484-1.612,1.644-1.615,1.341,0,2.681,0,4.022,0" transform="translate(-5.447 -7.429)"/>
          <path id="Trazado_157409" data-name="Trazado 157409" d="M28.526,50.774c0,1.341,0,2.682,0,4.022,0,1.065-.5,1.578-1.544,1.58q-4.089.009-8.177,0c-1.046,0-1.544-.514-1.547-1.578q-.007-4.056,0-8.112c0-1.091.5-1.578,1.611-1.58q4.022-.005,8.043,0c1.141,0,1.612.484,1.615,1.645,0,1.341,0,2.682,0,4.022" transform="translate(-5.447 -14.239)"/>
          <path id="Trazado_157410" data-name="Trazado 157410" d="M17.255,72.246c0-1.341-.006-2.682,0-4.022a1.358,1.358,0,0,1,1.513-1.542q4.122-.011,8.244,0a1.356,1.356,0,0,1,1.51,1.545q.009,4.089,0,8.179c0,1.046-.514,1.542-1.579,1.544q-4.056.007-8.11,0c-1.089,0-1.574-.5-1.578-1.614,0-1.363,0-2.726,0-4.089" transform="translate(-5.447 -21.05)"/>
          <path id="Trazado_157411" data-name="Trazado 157411" d="M44.411,68.537a1.509,1.509,0,0,1,1.065.518c.547.559,1.113,1.1,1.651,1.665.222.233.365.233.588,0,.536-.569,1.094-1.117,1.654-1.662a1.351,1.351,0,1,1,1.9,1.889c-.511.531-1.025,1.061-1.566,1.56-.306.283-.374.467-.019.781.567.5,1.091,1.057,1.615,1.605a1.343,1.343,0,0,1,.1,1.971,1.359,1.359,0,0,1-2.019-.1c-.546-.528-1.095-1.055-1.6-1.617-.287-.318-.458-.287-.733.012-.513.56-1.061,1.087-1.608,1.613a1.347,1.347,0,1,1-1.9-1.893c.528-.547,1.049-1.1,1.618-1.6.368-.324.256-.508-.034-.781-.584-.552-1.15-1.124-1.7-1.707a1.275,1.275,0,0,1-.236-1.49,1.3,1.3,0,0,1,1.224-.764" transform="translate(-13.59 -21.637)"/>
          <path id="Trazado_157412" data-name="Trazado 157412" d="M52.6,26.722a1.632,1.632,0,0,1-.508,1.067c-1.947,1.943-3.884,3.894-5.837,5.83a1.352,1.352,0,0,1-2.116,0q-1.39-1.361-2.753-2.749a1.351,1.351,0,1,1,1.9-1.9c.53.513,1.07,1.02,1.559,1.57.294.331.453.257.725-.019,1.536-1.562,3.094-3.1,4.64-4.656a1.356,1.356,0,0,1,1.587-.364,1.337,1.337,0,0,1,.807,1.213" transform="translate(-12.901 -8.016)"/>
          <path id="Trazado_157413" data-name="Trazado 157413" d="M52.6,48.291a1.592,1.592,0,0,1-.469,1.033c-1.977,1.976-3.946,3.959-5.934,5.923a1.324,1.324,0,0,1-2.019-.01q-1.441-1.4-2.846-2.845a1.343,1.343,0,1,1,1.909-1.878c.518.494,1.038.989,1.513,1.522.32.359.506.4.871.018,1.507-1.559,3.057-3.077,4.588-4.613a1.364,1.364,0,0,1,1.464-.4,1.3,1.3,0,0,1,.884,1.007c.021.086.029.176.039.243" transform="translate(-12.9 -14.828)"/>
          <path id="Trazado_157414" data-name="Trazado 157414" d="M40.343,89.986c-.2.907-.671,1.359-1.4,1.341-.7-.018-1.133-.455-1.328-1.341.194-.879.63-1.319,1.328-1.336.725-.018,1.193.43,1.4,1.336" transform="translate(-11.876 -27.987)" fill="#010101"/>
          <path id="Trazado_157415" data-name="Trazado 157415" d="M24.127,33.359c-.848,0-1.7-.013-2.544.007-.32.007-.419-.092-.416-.414q.022-2.545,0-5.088c0-.32.092-.418.414-.415q2.544.021,5.088,0c.32,0,.418.092.415.413q-.022,2.545,0,5.088c0,.32-.091.424-.414.416-.847-.02-1.7-.007-2.544-.007" transform="translate(-6.682 -8.665)" fill="#cae458"/>
          <path id="Trazado_157416" data-name="Trazado 157416" d="M24.058,54.931c-.826,0-1.652-.014-2.477.007-.322.008-.416-.1-.414-.415q.022-2.545,0-5.088c0-.322.1-.417.415-.414q2.544.021,5.088,0c.322,0,.417.1.414.415q-.021,2.545,0,5.089c0,.322-.094.421-.415.414-.87-.02-1.74-.007-2.611-.007" transform="translate(-6.682 -15.476)" fill="#cae458"/>
          <path id="Trazado_157417" data-name="Trazado 157417" d="M27.078,73.564c0,.825-.012,1.651.006,2.476.007.322-.047.476-.428.471-1.7-.02-3.39-.017-5.086,0-.337,0-.4-.125-.4-.429.012-1.7.014-3.391,0-5.086,0-.338.126-.4.429-.4q2.543.017,5.086,0c.338,0,.408.125.4.428-.016.848-.005,1.7-.005,2.544" transform="translate(-6.682 -22.286)" fill="#fe6977"/>
        </g>
      </g>
    </g>
  </g>
</svg>
