<svg xmlns="http://www.w3.org/2000/svg" xmlns:xlink="http://www.w3.org/1999/xlink" width="105" height="105" viewBox="0 0 105 105">
  <defs>
    <clipPath id="clip-path">
      <rect id="Rectángulo_41958" data-name="Rectángulo 41958" width="65.116" height="73.846" fill="none"/>
    </clipPath>
  </defs>
  <g id="_96" data-name="96" transform="translate(-5657 4900)">
    <g id="Grupo_167979" data-name="Grupo 167979" transform="translate(993)">
      <circle id="Elipse_4896" data-name="Elipse 4896" cx="52.5" cy="52.5" r="52.5" transform="translate(4664 -4900)" fill="#a6bbff"/>
      <g id="Grupo_167960" data-name="Grupo 167960" transform="translate(4684 -4884)">
        <g id="Grupo_167959" data-name="Grupo 167959" clip-path="url(#clip-path)">
          <path id="Trazado_157418" data-name="Trazado 157418" d="M34.43,1.011c.579-.807.907-.9,1.818-.517a8.381,8.381,0,0,1,4.558,4.459c.177.4.331.491.787.391a10.837,10.837,0,0,1,6.14.618,14.846,14.846,0,0,1,10.157,12.61,26.01,26.01,0,0,1,.1,3.667,1.084,1.084,0,0,1-1.053,1.148c-.558.227-.857-.107-1.09-.528a3.119,3.119,0,0,1-.263-1.686A12.748,12.748,0,0,0,44.171,7.563a12.122,12.122,0,0,0-1.509-.022c-.814.117-.839.148-.833.934.013,1.85.02,3.7,0,5.549-.008.607.14.9.814.971a11.035,11.035,0,0,1,5.421,1.973,10.679,10.679,0,0,1,4.676,7.55A4.639,4.639,0,0,0,54.448,27.9a9.7,9.7,0,0,1,1.126,1.137c.022-.4-.007-.754,0-1.11a7.2,7.2,0,0,1,.07-1.5,1.168,1.168,0,0,1,1.284-1.05c1,.422,1.072.524,1.073,1.656,0,1.394.015,2.789-.008,4.183a1.194,1.194,0,0,0,.4.945Q61.255,35,64.1,37.868a2.553,2.553,0,0,1,.007,4.074c-1.391,1.4-2.792,2.782-4.179,4.184a2.491,2.491,0,0,1-1.47.841c-.449.048-.462.258-.463.606-.006,2.26.016,4.52-.056,6.778A15.084,15.084,0,0,1,48.354,67.5a15.513,15.513,0,0,1-5.56,1.008c-.192,0-.384-.032-.576-.035-.4-.007-.837-.4-1.155-.161-.29.219-.363.709-.569,1.058a8.519,8.519,0,0,1-6.278,4.341c-.1.015-.187.021-.218.134H31.546a9.3,9.3,0,0,0-1.863-.64,8.555,8.555,0,0,1-4.605-4.421c-.2-.444-.363-.564-.89-.452a11.815,11.815,0,0,1-6.283-.7,14.492,14.492,0,0,1-4.21-2.29,1.184,1.184,0,0,1-.453-1.62,1.047,1.047,0,0,1,1.492-.468,5.209,5.209,0,0,1,.907.575,12.335,12.335,0,0,0,7.4,2.308c.991-.114,1-.15.972-1.084-.049-1.609-.01-3.218-.018-4.828,0-.922,0-.922-.9-.9A11.329,11.329,0,0,1,11.789,49.94a10.181,10.181,0,0,1,.179-4.423c.153-.557.063-.906-.5-1.14a3.069,3.069,0,0,1-1.207-1.061c-.017.423.016.874.006,1.325.023,3.046-.007,6.091.015,9.136a11.818,11.818,0,0,0,1.528,5.7,8.076,8.076,0,0,1,.641,1.285,1.028,1.028,0,0,1-.516,1.382,1.2,1.2,0,0,1-1.695-.588A15.225,15.225,0,0,1,7.848,53.1c.021-3.894,0-7.789.016-11.683a1.513,1.513,0,0,0-.5-1.189C5.243,38.134,3.141,36.02,1.037,33.91c-1.382-1.385-1.384-2.735,0-4.123,2.087-2.094,4.167-4.194,6.276-6.266a1.69,1.69,0,0,0,.553-1.389,17.066,17.066,0,0,1,1.041-7.426A14.857,14.857,0,0,1,20.738,5.325a7.917,7.917,0,0,1,3.778.08c.433.138.414-.243.5-.439A8.562,8.562,0,0,1,30.677.128c.969-.275,1.25-.145,1.729.756a.461.461,0,0,1,.122.373c-.114.737-.672,1.006-1.288,1.2a6.668,6.668,0,0,0-3,1.9A7.308,7.308,0,0,0,26.58,9.087c-.009.144,0,.289,0,.433q0,27.329,0,54.658a7.177,7.177,0,0,0,1.445,4.875,6.238,6.238,0,0,0,11.052-2.847,13.971,13.971,0,0,0,.186-2.657q-.012-26.934,0-53.868a10.831,10.831,0,0,0-.323-2.928,6.359,6.359,0,0,0-3.675-4.106,2.073,2.073,0,0,1-.787-.611c-.18-.334-.32-.671-.043-1.024" transform="translate(0 0)"/>
          <path id="Trazado_157419" data-name="Trazado 157419" d="M116.831,35.762c-.923.314-1.091.552-1.107,1.543-.005.353-.024.705-.036,1.058-.317.087-.485-.152-.671-.325-.369-.343-.713-.713-1.074-1.065a1.638,1.638,0,0,1-.482-1.16,11.856,11.856,0,0,0-9.769-10.96c-.071-.012-.143-.02-.214-.033-1.071-.188-1.116-.239-1.118-1.355q0-2.413,0-4.826a1.154,1.154,0,0,1,.2-.888,12.418,12.418,0,0,1,10.388,4.9,12.44,12.44,0,0,1,2.777,8.134c0,.552-.005,1.1,0,1.656a1.176,1.176,0,0,0,1.112,1.332q0,.995-.008,1.99" transform="translate(-59.906 -10.386)" fill="#d7ac8e"/>
          <path id="Trazado_157420" data-name="Trazado 157420" d="M37.167,129.206a12.531,12.531,0,0,1-7.9-2.605c-.827-.616-1.2-.606-1.895.009a6.638,6.638,0,0,0-1.312-1.577,1.244,1.244,0,0,0,.152-1.743,13.9,13.9,0,0,1-2.065-8.08c.06-2.587.032-5.176.043-7.765.956.158,1.242.52,1.085,1.452a11.888,11.888,0,0,0,11.247,13.928c.834.038.976.151.984.968.016,1.537.012,3.074,0,4.61,0,.306.024.642-.338.8" transform="translate(-14.129 -62.883)" fill="#d7ac8e"/>
          <path id="Trazado_157421" data-name="Trazado 157421" d="M80.158,2.22a1.949,1.949,0,0,0,.167.992,3.324,3.324,0,0,1-2.179-.856l-.012-.264a8.6,8.6,0,0,1,2.024.127" transform="translate(-45.728 -1.209)" fill="#e32020"/>
          <path id="Trazado_157422" data-name="Trazado 157422" d="M69.664,2.768l2.179.856.557.424a6.734,6.734,0,0,1,3.106,6.058q0,28.449-.008,56.9a6.554,6.554,0,0,1-3.1,5.842,6.433,6.433,0,0,1-8.674-5.454c-.059-.672-.079-1.342-.079-2.014q0-27.329,0-54.658a6.812,6.812,0,0,1,2.868-5.964,6.049,6.049,0,0,1,2.017-.919,1.422,1.422,0,0,0,1.138-1.068" transform="translate(-37.246 -1.62)" fill="#fa4239"/>
          <path id="Trazado_157423" data-name="Trazado 157423" d="M15.362,56.37Q11.3,52.33,7.236,48.29c-.528-.525-1.04-1.069-1.585-1.576-.37-.345-.351-.613.01-.952.613-.576,1.194-1.185,1.789-1.78L26.212,25.214a5.124,5.124,0,0,1,.463-.453c.357-.277.659-.231.694.259.045.622.007,1.249.015,1.874,0,.228-.14.338-.3.452a9.462,9.462,0,0,0-4.058,8.091,9.026,9.026,0,0,0-.877,3.081c.06,1.326-.677,1.992-1.6,2.722a9.509,9.509,0,0,0-3.408,5.924c-.083.437-.027.92-.363,1.287-.212.047-.365-.088-.528-.18a.862.862,0,0,0-1.174.118.75.75,0,0,0-.1.991c.28.4.605.756,1.188.586.236-.069.474-.28.736-.053a8.971,8.971,0,0,1,.541,2.352c-.012.02-.019.05-.036.06-1.385.764-1.407.856-.515,2.171a4.989,4.989,0,0,1-1.269,1.9c-.064.076-.178.018-.263-.031" transform="translate(-3.149 -14.392)" fill="#fdbf07"/>
          <path id="Trazado_157424" data-name="Trazado 157424" d="M41.647,87.987A8.827,8.827,0,0,1,37.7,71.9c.89-.642.966-1.131.34-2.063a7.111,7.111,0,0,1,2.982-10.7c.971-.447,1.106-.75.889-1.813a4.64,4.64,0,0,1,.95-4.117c.323.054.306.328.34.554a5.884,5.884,0,0,1,.024.864q0,15.936,0,31.872v.144c0,1.481-.039,1.511-1.574,1.343" transform="translate(-19.802 -31.142)" fill="#8acb3f"/>
          <path id="Trazado_157425" data-name="Trazado 157425" d="M111.959,72.542c1.163,1.145,2.33,2.285,3.486,3.436,1.957,1.949,3.9,3.911,5.865,5.855.342.338.486.595.069,1-1.41,1.375-2.8,2.774-4.18,4.176a.826.826,0,0,1-.835.247,5.726,5.726,0,0,0-6.9,6.89.842.842,0,0,1-.232.843c-2.911,2.894-5.809,5.8-8.821,8.814V98.7a1.754,1.754,0,0,1,.614-.592,7.719,7.719,0,0,0,3.364-6.224,1.6,1.6,0,0,1,.725-1.374,10,10,0,0,0,3.623-12.061,1.287,1.287,0,0,1,.323-1.6,10.776,10.776,0,0,0,2.386-3.569c.119-.282.179-.61.517-.741" transform="translate(-58.764 -42.456)" fill="#fdbf07"/>
          <path id="Trazado_157426" data-name="Trazado 157426" d="M102.5,42.033c3.35.121,6.675,2.954,7.6,6.477a8.825,8.825,0,0,1-3.466,9.515c-1.053.746-1.126,1.168-.387,2.255A7.117,7.117,0,0,1,103.342,70.8c-.282.13-.558.272-.837.409a1.2,1.2,0,0,1-.236-.948q-.01-13.638,0-27.276a1.215,1.215,0,0,1,.233-.95" transform="translate(-59.85 -24.6)" fill="#8acb3f"/>
          <path id="Trazado_157427" data-name="Trazado 157427" d="M84.755,74.652a10.532,10.532,0,0,0,2.209-2.807,7.6,7.6,0,0,0,.684-2.908q-.015-28.8-.016-57.6a6.389,6.389,0,0,0-1.666-4.184c-.383-.451-.8-.869-1.209-1.3a6.5,6.5,0,0,1,4.29,6.5q.012,8.76,0,17.52,0,19.07,0,38.14a6.781,6.781,0,0,1-2.657,5.781,4.5,4.5,0,0,1-1.64.858" transform="translate(-49.603 -3.426)" fill="#e01717"/>
          <path id="Trazado_157428" data-name="Trazado 157428" d="M115.7,115.625c-.033,2.964.321,5.943-.437,8.876a12.984,12.984,0,0,1-10.548,9.3,9.434,9.434,0,0,1-2,.122,1.3,1.3,0,0,1-.089-1.622,5.306,5.306,0,0,1,.592-.63q4.508-4.512,9.018-9.023a4.182,4.182,0,0,0,1.473-2.721,8.139,8.139,0,0,0-.15-1.572,2.735,2.735,0,0,1,1.343-2.67c.253-.128.516-.292.8-.063" transform="translate(-59.918 -67.603)" fill="#d7ac8e"/>
          <path id="Trazado_157429" data-name="Trazado 157429" d="M52.67,86.633c1.338-.082,1.338-.082,1.338-1.484q0-16.234,0-32.467c0-.276.105-.579-.122-.826a2.848,2.848,0,0,1,1.05-.96c.214.174.115.406.115.6q.009,17.2.02,34.4c0,.6-.2.825-.758.826a4.444,4.444,0,0,1-1.637-.094" transform="translate(-30.825 -29.788)" fill="#75ab35"/>
          <path id="Trazado_157430" data-name="Trazado 157430" d="M24.461,28.883a11.966,11.966,0,0,1,3.471-7.162,12.1,12.1,0,0,1,7.607-3.8c.161-.047.355-.126.461.039s-.051.311-.153.441a4.9,4.9,0,0,1-.4.417L25.361,28.912c-.1.1-.2.209-.309.3-.161.136-.333.378-.545.255s-.116-.38-.045-.586" transform="translate(-14.269 -10.453)" fill="#d7ac8e"/>
          <path id="Trazado_157431" data-name="Trazado 157431" d="M101.374,41.852q0,14.587,0,29.174a1.585,1.585,0,0,0-.215,1.431,4.269,4.269,0,0,1-.794,3.8c-.01-.223-.03-.445-.03-.668q0-16.494,0-32.988c0-.975.011-.982,1.036-.745" transform="translate(-58.723 -24.419)" fill="#75ab35"/>
          <path id="Trazado_157432" data-name="Trazado 157432" d="M111.889,71.456a12.43,12.43,0,0,1-3.1,4.782c-.328.3-.141.583-.029.845a9.71,9.71,0,0,1,.81,4.121,10,10,0,0,1-4.464,8.4,1.245,1.245,0,0,0-.608,1.1,7.8,7.8,0,0,1-4.162,6.911,1.71,1.71,0,0,1,.713-1.838,6.431,6.431,0,0,0,2.344-5.6.96.96,0,0,1,.527-1.086A9.218,9.218,0,0,0,107.5,76.906a.8.8,0,0,1,.241-1.185,10.159,10.159,0,0,0,2.98-4.415c.278-.795.287-.793.891-.175.1.1.184.217.276.326" transform="translate(-58.694 -41.369)" fill="#fd9600"/>
          <path id="Trazado_157433" data-name="Trazado 157433" d="M37.235,126.97a1.217,1.217,0,0,0,.145-.763c0-1.562-.021-3.125.01-4.686.011-.548-.124-.737-.715-.748a11.436,11.436,0,0,1-8.825-4.233,12.155,12.155,0,0,1-2.868-8.918,2.7,2.7,0,0,1,.079-.421c.271-1.253.271-1.253-.8-1.991v-1.585a5.57,5.57,0,0,0,2.149,1.537c.333.087.086.409.034.62a10.765,10.765,0,0,0,3.325,11.187,10.451,10.451,0,0,0,8.084,2.74c.445-.031.587.045.586.508,0,2.042.02,4.084.052,6.125a.421.421,0,0,1-.341.468,2.044,2.044,0,0,1-.913.16" transform="translate(-14.197 -60.646)" fill="#c09376"/>
          <path id="Trazado_157434" data-name="Trazado 157434" d="M101.327,17.757c0,2.043,0,4.087-.008,6.131,0,.382.047.59.516.658a12.237,12.237,0,0,1,4.961,1.767,12.03,12.03,0,0,1,5.495,8.229,6.521,6.521,0,0,1,.136,1.5.712.712,0,0,0,.212.588c.608.579,1.211,1.161,1.817,1.742v1.6l-2.94-2.981c-.176-.179-.112-.408-.118-.617a11.031,11.031,0,0,0-10.406-10.783c-.623-.037-.727-.241-.721-.8.023-2.113,0-4.226-.018-6.34,0-.808.63-.594,1.075-.687" transform="translate(-58.673 -10.392)" fill="#c09376"/>
          <path id="Trazado_157435" data-name="Trazado 157435" d="M114.427,114.182a2.372,2.372,0,0,0-1.941,2.775,4.222,4.222,0,0,1-1.236,4.229c-3.16,3.127-6.28,6.293-9.444,9.416a1.574,1.574,0,0,0-.368,1.881c-.45-.02-1.132,0-1.17-.431a1.99,1.99,0,0,1,.373-1.864c3.374-3.31,6.7-6.673,10.046-10.009a2.867,2.867,0,0,0,.772-2.77,3.6,3.6,0,0,1,2.146-4.172c.817-.329.867-.3.856.589,0,.119-.022.238-.033.356" transform="translate(-58.644 -66.16)" fill="#c09376"/>
          <path id="Trazado_157436" data-name="Trazado 157436" d="M30.8,63.731a18.634,18.634,0,0,1,.893-3.512,9.8,9.8,0,0,1,3.647-4.479,1.264,1.264,0,0,0,.621-1.163,6.547,6.547,0,0,1,1.145-3.833,5.408,5.408,0,0,1,.038,2.829,1.575,1.575,0,0,0-.073.854c.272,1.184-.388,1.719-1.28,2.344A9.174,9.174,0,0,0,32.978,68.44c.257.5.239.764-.208,1.119a9.133,9.133,0,0,0-1.809,2.04.87.87,0,0,1-1.516.075A8.173,8.173,0,0,0,30.9,69.821c.112-.124.261-.089.4-.083a.885.885,0,0,0,.946-.6.9.9,0,0,0-.368-1.061c-.158-.135-.364-.235-.4-.473a13.2,13.2,0,0,1-.591-2.478,6.98,6.98,0,0,1-.076-1.4" transform="translate(-17.233 -29.698)" fill="#fd9600"/>
          <path id="Trazado_157437" data-name="Trazado 157437" d="M24.348,28.748l.049.486c.226,0,.31-.168.423-.281Q30.148,23.631,35.464,18.3c.118-.119.734-.4-.038-.51a5.331,5.331,0,0,1,2.552,0c.2.047.482.073.44.368-.038.26-.292.193-.474.191a2.75,2.75,0,0,0-2,.993Q30.418,24.871,24.884,30.4c-.182.182-.373.357-.7.665a8.215,8.215,0,0,1,.161-2.316" transform="translate(-14.156 -10.318)" fill="#c09376"/>
          <path id="Trazado_157438" data-name="Trazado 157438" d="M53.5,41.835a6.209,6.209,0,0,1,2.04-4.17c0,.939,0,1.81,0,2.682a.384.384,0,0,1-.266.38A8.063,8.063,0,0,0,53.5,41.835" transform="translate(-31.311 -22.044)" fill="#bf9275"/>
          <path id="Trazado_157439" data-name="Trazado 157439" d="M78.236,42.264a4.794,4.794,0,0,1-1.429,3.411c-.425.425-.864.837-1.265,1.284a2.315,2.315,0,0,0,.044,3.36c.493.525,1.03,1.012,1.495,1.561a4.427,4.427,0,0,1-.053,6.029c-.425.489-.905.929-1.355,1.4a2.36,2.36,0,0,0-.021,3.573c.465.486.967.939,1.406,1.448A4.427,4.427,0,0,1,77.1,70.3c-.464.549-1,1.036-1.494,1.561a2.324,2.324,0,0,0-.177,3.254c.516.7.525,1.307.024,1.721-.545.451-1.141.316-1.726-.39a4.509,4.509,0,0,1,.357-6.142c.412-.437.857-.843,1.268-1.281a2.323,2.323,0,0,0,.008-3.362c-.507-.545-1.068-1.042-1.549-1.608a4.425,4.425,0,0,1,.01-5.919c.451-.529.973-1,1.452-1.5a2.358,2.358,0,0,0-.033-3.572,13.533,13.533,0,0,1-1.843-2.02,4.531,4.531,0,0,1,.67-5.685c.428-.455.9-.873,1.316-1.334a2.317,2.317,0,0,0-.007-3.31c-.374-.406-.78-.783-1.168-1.177a4.547,4.547,0,0,1-.022-6.782c.4-.412.831-.8,1.214-1.232a2.31,2.31,0,0,0-.044-3.307c-.539-.581-1.129-1.118-1.637-1.724a4.468,4.468,0,0,1,.088-5.813c.523-.6,1.133-.7,1.635-.284a1.091,1.091,0,0,1,.074,1.6,2.388,2.388,0,0,0,.284,3.578,11.618,11.618,0,0,1,1.734,1.922,4.505,4.505,0,0,1-.66,5.626c-.409.44-.854.846-1.266,1.282a2.345,2.345,0,0,0,0,3.471c.542.578,1.121,1.123,1.639,1.722a4.333,4.333,0,0,1,.983,2.67" transform="translate(-42.537 -11.786)"/>
          <path id="Trazado_157440" data-name="Trazado 157440" d="M32.507,91.4a4.027,4.027,0,0,1,.432.243,1.125,1.125,0,0,1,.5,1.472,1.064,1.064,0,0,1-1.506.5,1.54,1.54,0,0,1-.717-1.1c-.027-.65.434-1.046,1.29-1.115" transform="translate(-18.269 -53.49)" fill="#020100"/>
          <path id="Trazado_157441" data-name="Trazado 157441" d="M29.789,81.3a1.262,1.262,0,0,1,.076,1.4c-.747.543-1.3.522-1.815-.069a1.055,1.055,0,0,1-.06-1.486,1.028,1.028,0,0,1,1.476-.122,3.911,3.911,0,0,1,.323.282" transform="translate(-16.218 -47.266)" fill="#020200"/>
          <path id="Trazado_157442" data-name="Trazado 157442" d="M37.438,57.79a1.434,1.434,0,0,1-1.3-1.229,1.106,1.106,0,0,1,1.015-1.1,1.346,1.346,0,0,1,1.316,1.253,1.085,1.085,0,0,1-1.034,1.079" transform="translate(-21.151 -32.457)" fill="#010100"/>
          <path id="Trazado_157443" data-name="Trazado 157443" d="M131.925,87.869a1.386,1.386,0,0,1-1.273,1.237,1.1,1.1,0,0,1-1.045-1.149,1.38,1.38,0,0,1,1.317-1.187,1.054,1.054,0,0,1,1,1.1" transform="translate(-75.852 -50.782)" fill="#020100"/>
          <path id="Trazado_157444" data-name="Trazado 157444" d="M113.878,120.474a1.384,1.384,0,0,1-1.207,1.3,1.124,1.124,0,0,1-1.119-1.08,1.408,1.408,0,0,1,1.261-1.26,1.058,1.058,0,0,1,1.065,1.038" transform="translate(-65.286 -69.9)" fill="#020200"/>
        </g>
      </g>
    </g>
  </g>
</svg>
