<svg xmlns="http://www.w3.org/2000/svg" xmlns:xlink="http://www.w3.org/1999/xlink" width="105" height="105" viewBox="0 0 105 105">
  <defs>
    <clipPath id="clip-path">
      <rect id="Rectángulo_41959" data-name="Rectángulo 41959" width="65.469" height="72.127" fill="none"/>
    </clipPath>
  </defs>
  <g id="_97" data-name="97" transform="translate(-5971 4890)">
    <g id="Grupo_167980" data-name="Grupo 167980" transform="translate(993)">
      <circle id="Elipse_4897" data-name="Elipse 4897" cx="52.5" cy="52.5" r="52.5" transform="translate(4978 -4890)" fill="#a6bbff"/>
      <g id="Grupo_167963" data-name="Grupo 167963" transform="translate(4998 -4874)" clip-path="url(#clip-path)">
        <path id="Trazado_157445" data-name="Trazado 157445" d="M6.831,72.127A2.529,2.529,0,0,1,5.279,69.37c.063-.864,0-1.737.017-2.6a2,2,0,0,1,1.593-2.048c.457-.1.471-.305.469-.658-.008-2.347,0-4.694,0-7.042V34.427c-.309-.024-.4.206-.535.336a3.972,3.972,0,1,1-5.55-5.68q8.815-8.61,17.658-17.189l10.8-10.507a3.966,3.966,0,0,1,6.025,0q5.354,5.2,10.7,10.4c.215-.043.141-.216.142-.337.006-1.15,0-2.3.008-3.45,0-.321-.041-.48-.433-.542A1.968,1.968,0,0,1,44.345,5.4c-.04-1.1-.041-2.207,0-3.309a2.068,2.068,0,0,1,2.2-2.074q5-.014,10,0A2.1,2.1,0,0,1,58.776,2.2q.024,1.548,0,3.1A2.01,2.01,0,0,1,56.91,7.462c-.36.057-.4.2-.393.492.013.633.01,1.267,0,1.9a1.055,1.055,0,0,1-.813,1.156c-.88.215-1.171.045-1.454-.847-.033-.632-.021-1.264-.013-1.9.005-.4-.125-.6-.564-.6-1.382.009-2.764.017-4.147.013-.474,0-.674.222-.673.687,0,1.64,0,3.28,0,4.921a1.514,1.514,0,0,0,.566,1.086c1.559,1.555,3.086,3.141,4.795,4.6.039-1.4,0-2.788.033-4.175.285-.9.568-1.065,1.46-.859a1.086,1.086,0,0,1,.811,1.228c0,1.924.013,3.848-.009,5.772a1.356,1.356,0,0,0,.455,1.1c2.4,2.307,4.779,4.641,7.173,6.957a3.949,3.949,0,0,1,1.32,3.2,3.964,3.964,0,0,1-6.494,2.83c-.252-.2-.478-.431-.722-.652-.2.206-.11.427-.11.622q-.009,14.465-.014,28.929c0,.473.056.723.608.85A1.907,1.907,0,0,1,60.185,66.7c.024,1.126.019,2.253,0,3.379a2.317,2.317,0,0,1-1.535,2.05Z" transform="translate(0 0)"/>
        <path id="Trazado_157446" data-name="Trazado 157446" d="M81.542,17.726c-.663-.057-1.156.145-1.305.865a21.331,21.331,0,0,0-.054,2.173c-.009.172.1.411-.13.493-.189.068-.359-.08-.5-.208A24.21,24.21,0,0,1,77.73,19.2a2.058,2.058,0,0,1-.493-1.362c-.012-1.9-.015-3.8,0-5.7.007-.741.087-.8.806-.8.492,0,.987.033,1.476-.009.511-.044.709.1.681.649a8.87,8.87,0,0,0,.037,1.961c.15.714.642.914,1.3.86a.507.507,0,0,0-.282.5c.021.645.023,1.291,0,1.935a.526.526,0,0,0,.287.494" transform="translate(-25.832 -3.787)" fill="#695d67"/>
        <path id="Trazado_157447" data-name="Trazado 157447" d="M42.922,18.77c1.909,1.837,3.826,3.666,5.727,5.512q7.044,6.844,14.082,13.693a1.46,1.46,0,0,1,.5,1.155q-.022,15.527.006,31.052c0,.645-.184.755-.78.754q-11.545-.031-23.09,0c-.651,0-.754-.193-.753-.783q.028-13.766.013-27.532c0-1.913-.6-2.512-2.526-2.512-1.314,0-2.628,0-3.942,0-.868,0-1.123.208-1.386,1.079a3.249,3.249,0,0,1-2.78-.088,1.134,1.134,0,0,0-1.3-.994c-1.683.011-3.366.012-5.05.017-.306-.466.069-.773.313-1.034a41.711,41.711,0,0,1,3.092-3.064c.177-.154.365-.295.528-.463,2.949-3.047,6.044-5.944,9.08-8.9,2.6-2.532,5.151-5.111,7.815-7.575a1.233,1.233,0,0,1,.455-.319" transform="translate(-7.2 -6.279)" fill="#deeaf9"/>
        <path id="Trazado_157448" data-name="Trazado 157448" d="M40.474,17.352a13.054,13.054,0,0,1-2.047,2.112c-.6.528-1.166,1.08-1.733,1.636-2.792,2.738-5.536,5.528-8.385,8.2-1.758,1.653-3.393,3.43-5.18,5.048-1.129,1.023-2.192,2.108-3.278,3.173a1.613,1.613,0,0,0-.661,1.183,2.089,2.089,0,0,0-1.465,2.269c.021,9.248,0,18.5.028,27.744,0,.661-.183.842-.816.8a20.823,20.823,0,0,0-2.251-.005c-.377.013-.513-.122-.471-.483a2.946,2.946,0,0,0,0-.351q0-15.457-.011-30.913a1.54,1.54,0,0,1,.511-1.222q11.191-10.86,22.355-21.749c.3-.3.481-.392.823-.029.833.887,1.716,1.728,2.579,2.587" transform="translate(-4.752 -4.86)" fill="#b0dafb"/>
        <path id="Trazado_157449" data-name="Trazado 157449" d="M28.975,61.786c3.286-.029,6.571-.077,9.856.024a1.248,1.248,0,0,1,.069.688q0,10.975,0,21.95c0,.8,0,.8-.795.8q-4.255,0-8.51,0c-.726,0-.8-.073-.844-.785-.011-.187-.007-.375-.007-.562q0-10.412,0-20.824a1.869,1.869,0,0,1,.226-1.286" transform="translate(-9.613 -20.655)" fill="#aa6b51"/>
        <path id="Trazado_157450" data-name="Trazado 157450" d="M34.784,8.553c-.885-.673-1.232-.646-2.049.149Q19.691,21.393,6.65,34.084a2.423,2.423,0,0,1-1.3.791,1.848,1.848,0,0,1-1.586-3.161c1.481-1.472,2.983-2.924,4.479-4.38L32.114,4.114c1.278-1.244,2.123-1.242,3.413.023.669.656,1.325,1.325,1.987,1.988a23.576,23.576,0,0,0-1.892,1.6,3.676,3.676,0,0,1-.839.827" transform="translate(-1.067 -1.065)" fill="#fe4756"/>
        <path id="Trazado_157451" data-name="Trazado 157451" d="M19.026,100.335c.234-.01.468-.029.7-.029q21.916,0,43.831-.015c.63,0,.869.139.809.8a16.683,16.683,0,0,0-.008,2.04c.011.343-.118.471-.447.432a2.483,2.483,0,0,0-.282,0H19.659c-.21,0-.421-.015-.632-.024a4.772,4.772,0,0,1,0-3.2" transform="translate(-6.272 -33.548)" fill="#43ca8d"/>
        <path id="Trazado_157452" data-name="Trazado 157452" d="M50.663,10.03A6.065,6.065,0,0,1,53.394,7.6c2.194,2.114,4.4,4.22,6.58,6.344q9.711,9.44,19.413,18.89a2.3,2.3,0,0,1,.908,1.6A1.845,1.845,0,0,1,77.111,35.8c-1.137-1.084-2.257-2.187-3.383-3.283q-11.4-11.088-22.791-22.177c-.1-.1-.183-.209-.274-.314" transform="translate(-16.947 -2.543)" fill="#fe656f"/>
        <path id="Trazado_157453" data-name="Trazado 157453" d="M26.951,61.787c0,7.512.009,15.024-.013,22.535,0,.665.155.88.847.87q4.083-.06,8.167,0c.664.009.871-.152.868-.845-.024-7.512-.013-15.024-.013-22.535.216.188.116.44.116.66.006,7.369,0,14.739.017,22.108,0,.58-.147.751-.739.747q-6.406-.042-12.812-.009c-.565,0-.7-.168-.7-.713q.024-11.055,0-22.109c0-.588.16-.768.746-.743,1.171.049,2.345.027,3.518.035" transform="translate(-7.589 -20.655)" fill="#955a44"/>
        <path id="Trazado_157454" data-name="Trazado 157454" d="M30.407,52.331a19.364,19.364,0,0,0,2.778.089,1.216,1.216,0,0,0,1.423,1.039c1.265-.032,2.532-.011,3.8-.007.224,0,.526-.064.518.3a12.384,12.384,0,0,1-.085,2.645.953.953,0,0,1-.547.065q-4.348,0-8.695,0c-.716,0-.8-.079-.837-.788-.023-.443,0-.888-.007-1.332-.007-.542.156-.918.787-.884a1.125,1.125,0,0,0,.865-1.123" transform="translate(-9.617 -17.505)" fill="#bb7b62"/>
        <path id="Trazado_157455" data-name="Trazado 157455" d="M78.868,13.907a5.046,5.046,0,0,1-.106-1.933c-.011-.451-.136-.636-.6-.6a10.262,10.262,0,0,1-1.473,0c-.514-.04-.628.185-.623.654.021,1.943.017,3.885,0,5.827a1.72,1.72,0,0,0,.458,1.215c.666.72,1.367,1.407,2.128,2.184.251-.96-.094-1.854.214-2.687v4.661c-.708-.657-1.33-1.211-1.927-1.79-1.126-1.093-2.229-2.208-3.36-3.3a1.308,1.308,0,0,1-.449-1.042c.023-1.709.027-3.419,0-5.128-.009-.543.144-.743.714-.73,1.475.033,2.951.026,4.425-.007.5-.011.654.161.626.644-.039.677-.021,1.357-.028,2.036" transform="translate(-24.462 -3.756)" fill="#544e55"/>
        <path id="Trazado_157456" data-name="Trazado 157456" d="M73.969,3.215c2.275-.007,4.549-.005,6.823-.031.428,0,.506.172.5.543-.021.727-.02,1.455,0,2.182.01.366-.063.554-.493.55-2.321-.026-4.643-.027-6.964-.037a5.663,5.663,0,0,1-.1-2.976c.015-.117.14-.176.243-.23" transform="translate(-24.612 -1.065)" fill="#7a6b78"/>
        <path id="Trazado_157457" data-name="Trazado 157457" d="M16.47,100.341l0,3.2c-1.636.008-3.274.01-4.91.029-.325,0-.459-.093-.451-.436q.029-1.193,0-2.386c-.007-.339.121-.445.449-.441,1.636.02,3.273.023,4.909.032" transform="translate(-3.716 -33.553)" fill="#00b966"/>
        <path id="Trazado_157458" data-name="Trazado 157458" d="M27.509,54.011a.677.677,0,0,0-.571.846c.094.663-.283,1.52.163,1.958.413.406,1.252.117,1.9.121,2.6.017,5.2.011,7.8.014-.194.2-.443.107-.665.108-4.239,0-8.477-.013-12.716.009-.576,0-.8-.138-.747-.737a13.554,13.554,0,0,0,0-1.756c-.017-.406.087-.586.54-.577,1.428.027,2.856.013,4.284.015" transform="translate(-7.584 -18.062)" fill="#aa6a51"/>
        <path id="Trazado_157459" data-name="Trazado 157459" d="M72.69,3.216a15.16,15.16,0,0,0-.138,3.206c-.768.009-1.536.007-2.3.031-.357.011-.5-.114-.492-.482.018-.768.019-1.537,0-2.306-.009-.369.134-.488.491-.478.814.025,1.629.021,2.444.029" transform="translate(-23.333 -1.066)" fill="#685c66"/>
        <path id="Trazado_157460" data-name="Trazado 157460" d="M69.615,64.687q0,5.737,0,11.474c0,1.67-.62,2.284-2.3,2.285q-6.933,0-13.864,0c-1.605,0-2.276-.658-2.277-2.251q0-11.544,0-23.089c0-1.584.691-2.265,2.277-2.265q6.968,0,13.935,0c1.543,0,2.222.679,2.223,2.231q.006,5.808,0,11.615" transform="translate(-17.118 -17.006)"/>
        <path id="Trazado_157461" data-name="Trazado 157461" d="M38.624,75.587a3.117,3.117,0,0,1-3.156,3.17A3.175,3.175,0,0,1,32.3,75.582a3.217,3.217,0,0,1,3.142-3.154,3.161,3.161,0,0,1,3.186,3.159" transform="translate(-10.803 -24.227)"/>
        <path id="Trazado_157462" data-name="Trazado 157462" d="M72.663,65.811c0,1.149-.013,2.3.007,3.445.007.4-.053.582-.524.573-1.686-.031-3.374-.021-5.06,0-.365,0-.484-.1-.481-.475q.021-3.55,0-7.1c0-.415.152-.511.534-.508q2.531.024,5.06,0c.375,0,.479.123.473.485-.019,1.2-.007,2.39-.007,3.586" transform="translate(-22.279 -20.652)" fill="#60b7fd"/>
        <path id="Trazado_157463" data-name="Trazado 157463" d="M72.663,81.06c0,1.147-.016,2.3.009,3.442.009.428-.068.616-.562.606-1.662-.033-3.324-.023-4.986,0-.394,0-.523-.109-.52-.513q.025-3.512,0-7.024c0-.38.081-.535.5-.53q2.528.034,5.056,0c.4,0,.52.11.512.51-.025,1.17-.009,2.341-.009,3.512" transform="translate(-22.279 -25.769)" fill="#60b7fd"/>
        <path id="Trazado_157464" data-name="Trazado 157464" d="M58.531,69.792c-1.24.009-2.481,0-3.721.033-.378.009-.473-.129-.471-.486q.018-3.548,0-7.1c0-.349.088-.508.47-.5,1.239.029,2.48.031,3.719.043a1.236,1.236,0,0,1,.218.86q.009,3.144,0,6.289a1.119,1.119,0,0,1-.214.857" transform="translate(-18.176 -20.653)" fill="#23a7fd"/>
        <path id="Trazado_157465" data-name="Trazado 157465" d="M58.53,85.068c-1.239.01-2.479.009-3.718.037-.375.009-.476-.128-.475-.487q.019-3.546,0-7.092c0-.362.1-.491.475-.483,1.239.027,2.479.024,3.719.032a1.14,1.14,0,0,1,.214.864q.012,3.133,0,6.265a1.174,1.174,0,0,1-.216.865" transform="translate(-18.176 -25.77)" fill="#23a7fd"/>
        <path id="Trazado_157466" data-name="Trazado 157466" d="M70.475,54.151a13.25,13.25,0,0,1-.022,2.832,1.035,1.035,0,0,1-.552.06q-4.4,0-8.791,0c-.723,0-.8-.079-.847-.785-.136-2.168-.136-2.168,1.994-2.168q3.727,0,7.456,0a1.742,1.742,0,0,1,.763.057" transform="translate(-20.142 -18.09)" fill="#23a6fc"/>
        <path id="Trazado_157467" data-name="Trazado 157467" d="M68.5,54.108c-3.093,0-6.187.016-9.28,0-.544,0-.775.136-.715.707a5.772,5.772,0,0,1,0,1.264c-.077.662.138.884.835.874,2.788-.039,5.578-.017,8.366-.016.258,0,.516,0,.773.007-.176.18-.4.091-.6.091-4.286,0-8.573-.009-12.859.013-.567,0-.741-.166-.7-.715a10.791,10.791,0,0,0,0-1.685c-.043-.533.146-.666.669-.664,3.958.021,7.917,0,11.876.019a3.351,3.351,0,0,1,1.631.109" transform="translate(-18.17 -18.047)" fill="#0192f9"/>
        <path id="Trazado_157468" data-name="Trazado 157468" d="M60.637,69.78q0-4,0-8.006c1.868-.163,1.868-.163,1.868,1.639,0,1.948-.011,3.9.009,5.844,0,.415-.086.6-.539.556s-.89-.025-1.335-.033" transform="translate(-20.282 -20.641)" fill="#5fb7fd"/>
        <path id="Trazado_157469" data-name="Trazado 157469" d="M60.637,85.065q0-4,0-7.994c1.866-.108,1.866-.108,1.866,1.713,0,1.922-.012,3.844.009,5.766,0,.423-.1.6-.543.552s-.888-.027-1.332-.037" transform="translate(-20.283 -25.767)" fill="#5fb7fd"/>
        <path id="Trazado_157470" data-name="Trazado 157470" d="M37.578,76.693a1.03,1.03,0,0,1-1.088,1.018,1.059,1.059,0,0,1-1.016-1.036,1.091,1.091,0,0,1,1.069-1.068,1.059,1.059,0,0,1,1.035,1.086" transform="translate(-11.866 -25.29)" fill="#dce8f7"/>
      </g>
    </g>
  </g>
</svg>
