<svg xmlns="http://www.w3.org/2000/svg" xmlns:xlink="http://www.w3.org/1999/xlink" width="105" height="105" viewBox="0 0 105 105">
  <defs>
    <clipPath id="clip-path">
      <rect id="Rectángulo_41960" data-name="Rectángulo 41960" width="80.369" height="56.363" fill="none"/>
    </clipPath>
  </defs>
  <g id="_98" data-name="98" transform="translate(-6285 4890)">
    <g id="Grupo_167981" data-name="Grupo 167981" transform="translate(993)">
      <circle id="Elipse_4898" data-name="Elipse 4898" cx="52.5" cy="52.5" r="52.5" transform="translate(5292 -4890)" fill="#a6bbff"/>
      <g id="Grupo_167966" data-name="Grupo 167966" transform="translate(5304.087 -4862.463)" clip-path="url(#clip-path)">
        <path id="Trazado_157471" data-name="Trazado 157471" d="M0,34.074a15.733,15.733,0,0,0,.506-2.407,10.137,10.137,0,0,1,1.887-4.086c.218-.254.152-.428.029-.687a11.013,11.013,0,0,1,.118-10.31.861.861,0,0,0-.072-.929,11.254,11.254,0,0,1-.409-9.479A3.691,3.691,0,0,1,5.4,3.551c6.494-.7,12.975-1.526,19.46-2.306C27.927.878,30.99.528,34.048.133a28.487,28.487,0,0,1,7.033.251q7.084.837,14.169,1.671,7.668.905,15.336,1.815c2.777.329,5.552.672,8.332.976.743.081,1.281.367,1.387,1.124a1.2,1.2,0,0,1-.995,1.387,1.189,1.189,0,0,0-.761.834,9.484,9.484,0,0,0-.007,7.178,1.318,1.318,0,0,0,.986.9,1.075,1.075,0,0,1,.839,1.1,1.093,1.093,0,0,1-.808,1.2,1.532,1.532,0,0,0-1.091,1.111,9.578,9.578,0,0,0,0,6.817,1.492,1.492,0,0,0,1.1,1.094,1.06,1.06,0,0,1,.8,1.127,1.084,1.084,0,0,1-.847,1.175,2.472,2.472,0,0,0-1.792,1.694,15.091,15.091,0,0,0-1.051,7.6,11.931,11.931,0,0,0,1.195,4.595,2.114,2.114,0,0,0,1.585,1.355,1.092,1.092,0,0,1,.9,1.29,1.223,1.223,0,0,1-1.191,1.145q-3.853.468-7.7.933c-1.012.121-2.023.256-3.038.338-.51.042-.631.262-.619.743.033,1.281-.008,2.564.019,3.845.016.747-.138,1.378-.925,1.619-.764.233-1.211-.248-1.619-.806-.754-1.03-1.53-2.044-2.367-3.16-.806,1.338-1.565,2.6-2.324,3.859-.148.246-.3.493-.449.736a1.211,1.211,0,0,1-1.463.621,1.234,1.234,0,0,1-.908-1.31c0-1.413-.018-2.826.013-4.237.01-.482-.088-.607-.6-.541-2.877.368-5.763.667-8.638,1.046a16.141,16.141,0,0,1-3.972-.286c-6.621-.748-13.238-1.536-19.855-2.318C18.28,47.9,11.852,47.069,5.406,46.4a4.665,4.665,0,0,1-3.955-2.869,14.25,14.25,0,0,1-1.3-4.733c-.015-.127,0-.265-.154-.326Z" transform="translate(0 0)"/>
        <path id="Trazado_157472" data-name="Trazado 157472" d="M23.542,62.489a18.6,18.6,0,0,1-.559-7.054,14.074,14.074,0,0,1,1.443-5.17.678.678,0,0,1,.843-.435c4.768.575,9.538,1.125,14.308,1.682.6.07,1.191.148,1.788.218.329.039.451.173.326.519a22.962,22.962,0,0,0-.758,12.119.921.921,0,0,1-.812.159c-5.162-.557-10.319-1.149-15.484-1.675a1.792,1.792,0,0,1-1.1-.362" transform="translate(-9.089 -19.781)" fill="#fec93a"/>
        <path id="Trazado_157473" data-name="Trazado 157473" d="M106.119,34.076a12.45,12.45,0,0,0,.807,7.047l-5.122.617q-6.886.828-13.771,1.656c-3.112.375-6.225.746-9.335,1.136-.567.071-.733-.327-.9-.695a8.991,8.991,0,0,1-.652-4.905,4.528,4.528,0,0,1,.409-1.741,1.312,1.312,0,0,1,.978-.415c4.17-.526,8.344-1.019,12.518-1.513,4.64-.55,9.278-1.12,13.92-1.66a2.4,2.4,0,0,1,.778-.042c.273.057.526.144.373.516" transform="translate(-30.599 -13.318)" fill="#e9e9e9"/>
        <path id="Trazado_157474" data-name="Trazado 157474" d="M106.119,15.33a12.667,12.667,0,0,0,.776,7.045c-1.7.212-3.329.421-4.958.616q-6.919.828-13.84,1.647-4.7.563-9.4,1.147c-.568.071-.731-.333-.9-.7a9.006,9.006,0,0,1-.649-4.9,4.555,4.555,0,0,1,.409-1.74,1.312,1.312,0,0,1,.978-.415c4.17-.526,8.344-1.019,12.518-1.513,4.64-.55,9.278-1.12,13.92-1.66a2.4,2.4,0,0,1,.778-.042c.272.057.527.143.373.515" transform="translate(-30.599 -5.874)" fill="#e9e9e9"/>
        <path id="Trazado_157475" data-name="Trazado 157475" d="M26.809,12.365q5.75.675,11.5,1.35c3.782.449,7.562.909,11.345,1.358,1.528.181,3.059.345,4.588.525.383.045.763.116,1.206.184a12.456,12.456,0,0,0-.635,7.5,1.082,1.082,0,0,1-.962.183c-5.462-.665-10.93-1.288-16.395-1.939-2.823-.336-5.645-.682-8.47-.994a2.056,2.056,0,0,1-1.173-.376,12.514,12.514,0,0,1-.185-4.624c.133-1.122,0-1.463-.911-1.984a1.37,1.37,0,0,1,.093-1.184" transform="translate(-10.567 -4.91)" fill="#5e5ee9"/>
        <path id="Trazado_157476" data-name="Trazado 157476" d="M6.556,35.707a9.218,9.218,0,0,1,.41-6.048c.236-.568.581-.714,1.222-.633,4.635.582,9.278,1.108,13.918,1.654q6.3.742,12.6,1.489c.072.235.2.486-.187.572-1.047-.024-1.4.244-1.635,1.234a14.268,14.268,0,0,0-.153,4.7.959.959,0,0,1-.882.192c-4.176-.5-8.355-.966-12.533-1.451q-5.8-.674-11.6-1.32a1.7,1.7,0,0,1-1.157-.392" transform="translate(-2.473 -11.518)" fill="#98dfd3"/>
        <path id="Trazado_157477" data-name="Trazado 157477" d="M97.6,65.864c-.008-1.331.014-2.664-.04-3.993-.024-.59.149-.816.747-.874a1.2,1.2,0,0,0,1.144-1.4,1.272,1.272,0,0,0-1.478-1.076q-5.323.632-10.643,1.3c-.932.117-1.345.515-1.382,1.207-.038.719.3,1.122,1.24,1.317.34.071.344.224.342.471q-.017,2.232-.026,4.464c-.119.286-.371.337-.638.368-3,.348-6,.721-9,1.074a2.594,2.594,0,0,1-2.485-1.418,16.153,16.153,0,0,1,.041-7.566,2.365,2.365,0,0,1,2.13-1.472c4.354-.546,8.714-1.05,13.071-1.572,1.894-.227,3.789-.437,5.68-.688a4.392,4.392,0,0,1,5.229,5.125,5.948,5.948,0,0,1-2.858,4.55c-.319.2-.659.471-1.076.182" transform="translate(-29.763 -22.218)" fill="#e9e9e9"/>
        <path id="Trazado_157478" data-name="Trazado 157478" d="M27.112,6.441c1.954-.239,3.8-.47,5.654-.692,4.147-.5,8.295-.98,12.441-1.484a21.858,21.858,0,0,1,5.236.128q4.976.592,9.951,1.187,5.754.682,11.509,1.355c2.022.237,4.045.464,6.068.7a1.091,1.091,0,0,1,.614.224c-.973.127-1.943.263-2.917.38-5.182.628-10.37,1.214-15.546,1.893a25.826,25.826,0,0,1-6.071-.371C50.7,9.416,47.363,8.972,44.02,8.574Q38.228,7.884,32.435,7.2c-1.53-.18-3.06-.345-4.591-.519a.977.977,0,0,1-.731-.241" transform="translate(-10.766 -1.651)" fill="#7070f1"/>
        <path id="Trazado_157479" data-name="Trazado 157479" d="M97.912,63.721a4.5,4.5,0,0,0,3.042-2.593,5.175,5.175,0,0,0,.159-5.086,4.243,4.243,0,0,0-4.254-2.011c-1.505.255-3.03.4-4.547.587q-3.085.382-6.171.753c-1.905.227-3.812.441-5.717.661-.979.113-1.967.175-2.933.353A3.251,3.251,0,0,0,75.735,57.6,7.388,7.388,0,0,1,76.8,54.683a1.767,1.767,0,0,1,1.446-.9q13.416-1.582,26.823-3.223a4.208,4.208,0,0,1,.443,0,18.88,18.88,0,0,0-1.248,4.961,17.133,17.133,0,0,0,1.4,9.322c.291.6.176.712-.45.775-2.259.229-4.513.508-6.766.8-.449.058-.6-.036-.572-.5.043-.729.027-1.461.035-2.193" transform="translate(-30.073 -20.075)" fill="#d9d3d3"/>
        <path id="Trazado_157480" data-name="Trazado 157480" d="M6.768,40.121c2.806.314,5.613.616,8.417.945,2.932.345,5.859.732,8.792,1.072,2.5.29,5,.532,7.5.813a6.323,6.323,0,0,0,1.468.141c.1.511.19,1.026.316,1.53.113.451-.062.548-.475.5q-4.85-.589-9.7-1.161-5.047-.594-10.1-1.177c-1.476-.172-2.948-.393-4.429-.494A1.594,1.594,0,0,1,7,41.022a2.239,2.239,0,0,1-.229-.9" transform="translate(-2.686 -15.931)" fill="#5bd2c6"/>
        <path id="Trazado_157481" data-name="Trazado 157481" d="M65.191,67.083a18.364,18.364,0,0,1-.563-7.293,15.107,15.107,0,0,1,1.126-4.624c.166-.41.356-.57.8-.509,1.035.141,2.076.241,3.115.351.3.032.438.119.277.446-1.9,3.856-1.982,7.889-1.161,12.009a.343.343,0,0,1,0,.078c-.246.218-.532.117-.81.109-.694-.021-1.373-.188-2.069-.2a.754.754,0,0,1-.717-.365" transform="translate(-25.619 -21.699)" fill="#fec93a"/>
        <path id="Trazado_157482" data-name="Trazado 157482" d="M4.973,60.391A16.25,16.25,0,0,1,5.157,49.5a6.677,6.677,0,0,1,.55-1.034,1.346,1.346,0,0,1,1.638-.713,19.749,19.749,0,0,0,2.132.274,21.933,21.933,0,0,0-1.416,5.48,27.785,27.785,0,0,0,.2,6.867c.114.357-.125.509-.391.508a5.01,5.01,0,0,1-2.9-.492" transform="translate(-1.637 -18.94)" fill="#fec93a"/>
        <path id="Trazado_157483" data-name="Trazado 157483" d="M63.158,42.251a11.547,11.547,0,0,1,.529-6.158c.119-.309.227-.529.66-.473,1.808.236,3.622.427,5.541.646a12.47,12.47,0,0,0-.811,6.608.986.986,0,0,1-.879.206c-1.4-.15-2.79-.347-4.189-.481a1.339,1.339,0,0,1-.851-.348" transform="translate(-25.004 -14.141)" fill="#98dfd3"/>
        <path id="Trazado_157484" data-name="Trazado 157484" d="M23.971,70.835q2.626.289,5.254.578c1.624.177,3.248.344,4.872.522,1.726.189,3.45.388,5.176.576.7.075,1.393.135,2.09.2.173.628.311,1.269.531,1.881.174.485-.011.538-.416.491-1.556-.18-3.113-.344-4.668-.528-3.784-.449-7.565-.925-11.352-1.338-.593-.065-.9-.254-1.045-.81a7.873,7.873,0,0,1-.441-1.575" transform="translate(-9.518 -28.127)" fill="#f6921e"/>
        <path id="Trazado_157485" data-name="Trazado 157485" d="M6.848,17.875a9.055,9.055,0,0,1,.192-7.14.731.731,0,0,1,.839-.536c1.187.169,2.378.318,3.571.44.39.04.516.174.4.542a16.655,16.655,0,0,0-.42,6.981.239.239,0,0,1-.27.3,17.5,17.5,0,0,1-4.313-.582" transform="translate(-2.464 -4.045)" fill="#5e5ee9"/>
        <path id="Trazado_157486" data-name="Trazado 157486" d="M106.442,33.366c-.069-.421-.395-.363-.669-.329-3.21.4-6.417.832-9.628,1.223-2.391.292-4.788.525-7.179.81-2.416.289-4.826.626-7.242.912a38.786,38.786,0,0,0-3.849.5A1.654,1.654,0,0,1,79.5,34.94c4.624-.492,9.24-1.064,13.859-1.617,4.1-.491,8.2-1,12.294-1.494a3.462,3.462,0,0,1,1.219-.033l-.434,1.571" transform="translate(-30.923 -12.608)" fill="#d9d3d3"/>
        <path id="Trazado_157487" data-name="Trazado 157487" d="M106.442,14.622c-.069-.422-.4-.362-.67-.328-3.209.4-6.416.832-9.627,1.223-2.391.292-4.788.525-7.179.81-2.416.289-4.826.626-7.242.912a38.811,38.811,0,0,0-3.849.5A1.658,1.658,0,0,1,79.5,16.2c5.013-.543,10.018-1.165,15.024-1.764q5.525-.661,11.049-1.334a4.074,4.074,0,0,1,1.3-.049l-.434,1.574" transform="translate(-30.923 -5.167)" fill="#d9d3d3"/>
        <path id="Trazado_157488" data-name="Trazado 157488" d="M15.209,61.6a18.042,18.042,0,0,1,.806-12.246c.2-.437.421-.687.948-.5a4.037,4.037,0,0,0,.778.075c.257.034.512.094.839.156-.343,1.15-.791,2.249-1.036,3.408a22.828,22.828,0,0,0-.2,8.253c.036.232.041.468.06.7.113.314-.08.478-.33.459a3.443,3.443,0,0,1-1.866-.3" transform="translate(-5.763 -19.373)" fill="#f6921e"/>
        <path id="Trazado_157489" data-name="Trazado 157489" d="M56.855,66.21A18.964,18.964,0,0,1,57.476,54.1c.158-.4.4-.464.782-.432,1.725.143,1.728.134,1.26,1.784a23.893,23.893,0,0,0-.363,10.916,2.391,2.391,0,0,1-2.3-.157" transform="translate(-22.297 -21.307)" fill="#f6921e"/>
        <path id="Trazado_157490" data-name="Trazado 157490" d="M28.6,25.289q2.312.278,4.624.556c1.516.18,3.034.353,4.551.533,1.568.186,3.135.378,4.7.563,1.543.182,3.087.354,4.629.537,2.108.25,4.214.511,6.322.754.721.083,1.446.124,2.17.183l.348,1.125a39.069,39.069,0,0,1-4.042-.406c-2.956-.324-5.907-.684-8.86-1.03Q38.773,27.6,34.5,27.1c-1.554-.184-3.105-.392-4.661-.553-1.123-.116-1.146-.11-1.235-1.255" transform="translate(-11.357 -10.042)" fill="#5b52d6"/>
        <path id="Trazado_157491" data-name="Trazado 157491" d="M75.667,74.766c.318.046.467.318.668.514a2.244,2.244,0,0,0,2.129.64c1.5-.263,3.036-.366,4.554-.554,1.592-.2,3.18-.415,4.77-.625.008.652-.014,1.305.034,1.953.036.474-.142.64-.593.69-2.3.258-4.605.538-6.907.81a17.947,17.947,0,0,0-1.937.245A1.311,1.311,0,0,1,76.86,77.8a8.227,8.227,0,0,1-1.193-3.031" transform="translate(-30.046 -29.678)" fill="#d9d3d3"/>
        <path id="Trazado_157492" data-name="Trazado 157492" d="M23.673,12.077c.253.417-.128.784-.092,1.184-1.13.054-1.437.383-1.575,1.507a22.342,22.342,0,0,0,0,4.772,3.926,3.926,0,0,1-2.9-.316,12.9,12.9,0,0,1,.174-6.932c.148-.486.312-.73.907-.629,1.152.194,2.322.282,3.485.415" transform="translate(-7.432 -4.622)" fill="#98dfd3"/>
        <path id="Trazado_157493" data-name="Trazado 157493" d="M103.764,65.234c1.172-.348,1.253-.291,1.253.893v9.592a7.41,7.41,0,0,1-1.363-1.624,1.288,1.288,0,0,0-2.362.154,13.122,13.122,0,0,1-1.276,1.859V72.919a2.206,2.206,0,0,1,.692-.73,7.581,7.581,0,0,0,2.851-5.912c.009-.356-.075-.737.2-1.042" transform="translate(-39.714 -25.829)" fill="#c0272d"/>
        <path id="Trazado_157494" data-name="Trazado 157494" d="M103.747,65.357a8.407,8.407,0,0,1-1.9,6.162A7.039,7.039,0,0,1,100,73.041c-.008-2.263-.012-4.527-.025-6.79,0-.321.04-.54.443-.572,1.112-.089,2.22-.213,3.33-.323" transform="translate(-39.698 -25.952)" fill="#ec1c24"/>
        <path id="Trazado_157495" data-name="Trazado 157495" d="M53.148,34.824c.179-.153.121-.382.186-.572,1.164.132,2.326.279,3.492.387.4.037.555.1.409.556a16.922,16.922,0,0,0-.634,6.029.215.215,0,0,1-.116.254,3.17,3.17,0,0,1-2.547-.549,10.578,10.578,0,0,1,.019-4.316,1.448,1.448,0,0,0-.809-1.789" transform="translate(-21.104 -13.601)" fill="#706ff1"/>
        <path id="Trazado_157496" data-name="Trazado 157496" d="M63.282,46.623c1.975.192,3.932.552,5.919.623.157.678.315,1.357.5,2.134-1.917-.23-3.772-.458-5.628-.672a.505.505,0,0,1-.5-.477,7.364,7.364,0,0,1-.283-1.609" transform="translate(-25.128 -18.513)" fill="#5bd2c6"/>
        <path id="Trazado_157497" data-name="Trazado 157497" d="M65.634,75.275a9.87,9.87,0,0,0,2.064.268c.488.109,1.019.128,1.531.191l.876,2.526c-1.146-.124-2.216-.239-3.286-.358-.252-.028-.316-.251-.4-.437a10.426,10.426,0,0,1-.789-2.19" transform="translate(-26.062 -29.89)" fill="#f5921e"/>
        <path id="Trazado_157498" data-name="Trazado 157498" d="M5.532,68.74c.87.1,1.739.22,2.611.309.272.028.6.084.678-.325.189.728.377,1.456.57,2.183.081.309,0,.39-.342.388-2.167-.012-2.817-.471-3.517-2.556" transform="translate(-2.197 -27.289)" fill="#f5921e"/>
        <path id="Trazado_157499" data-name="Trazado 157499" d="M57.319,74.475a21.1,21.1,0,0,0,2.3.157q.285,1.012.569,2.024c.046.164.179.34-.055.473a2.67,2.67,0,0,1-2.112-.679,8.655,8.655,0,0,1-.7-1.975" transform="translate(-22.76 -29.572)" fill="#ef5a24"/>
        <path id="Trazado_157500" data-name="Trazado 157500" d="M54.457,45.325a4.149,4.149,0,0,0,2.663.295c.1.608.2,1.215.289,1.824.038.252-.053.4-.339.364-.077-.011-.154-.025-.23-.036-1.951-.277-1.951-.277-2.383-2.447" transform="translate(-21.624 -17.998)" fill="#5857db"/>
        <path id="Trazado_157501" data-name="Trazado 157501" d="M7.27,22.934a34.739,34.739,0,0,1,4.1.4c.191.016.356.071.484-.115.368,1.273.368,1.274-.857,1.138-.8-.089-1.6-.235-2.408-.26A1.265,1.265,0,0,1,7.27,22.934" transform="translate(-2.887 -9.105)" fill="#5b52d7"/>
        <path id="Trazado_157502" data-name="Trazado 157502" d="M15.666,69.933a6.385,6.385,0,0,1,1.681.13.345.345,0,0,0,.515-.285c.181.7.35,1.4.549,2.1.115.4-.085.42-.4.429-1.4.039-1.657-.128-2.1-1.478-.1-.294-.166-.6-.248-.895" transform="translate(-6.221 -27.707)" fill="#ef5924"/>
        <path id="Trazado_157503" data-name="Trazado 157503" d="M19.365,24.219l2.9.316c.019.1.037.206.058.308.179.856.157.879-.732.756a3.685,3.685,0,0,0-.775-.1,1.176,1.176,0,0,1-1.449-1.275" transform="translate(-7.689 -9.617)" fill="#5bd1c5"/>
      </g>
    </g>
  </g>
</svg>
