<svg xmlns="http://www.w3.org/2000/svg" xmlns:xlink="http://www.w3.org/1999/xlink" width="105" height="105" viewBox="0 0 105 105">
  <defs>
    <clipPath id="clip-path">
      <rect id="Rectángulo_41961" data-name="Rectángulo 41961" width="75.675" height="65.515" fill="none"/>
    </clipPath>
  </defs>
  <g id="_99" data-name="99" transform="translate(-6599 4890)">
    <g id="Grupo_167982" data-name="Grupo 167982" transform="translate(993)">
      <circle id="Elipse_4899" data-name="Elipse 4899" cx="52.5" cy="52.5" r="52.5" transform="translate(5606 -4890)" fill="#a6bbff"/>
      <g id="Grupo_167969" data-name="Grupo 167969" transform="translate(5621 -4870)" clip-path="url(#clip-path)">
        <path id="Trazado_157504" data-name="Trazado 157504" d="M75.675,48.872a7.559,7.559,0,0,0-.432,1.965,18.753,18.753,0,0,1-3.63,7.641c-.538.677-.884.747-1.726.382-.606-.274-.631-.763-.449-1.3a4.394,4.394,0,0,1,.69-1.131,16.1,16.1,0,0,0-.457-19.694,15.732,15.732,0,0,0-10.7-5.947,16.031,16.031,0,0,0-17.1,10.452c-2.251,6.389-.987,12.136,3.7,17.048A15.436,15.436,0,0,0,55.85,63.03a16.036,16.036,0,0,0,10.286-2.713,3.234,3.234,0,0,1,.767-.441c.567-.176,1.079-.155,1.371.477.335.883.233,1.238-.505,1.762a18.566,18.566,0,0,1-22.429-.767,2.512,2.512,0,0,0-1.722-.618c-12.61.02-25.22,0-37.829.024A5.37,5.37,0,0,1,.538,57.769a5.237,5.237,0,0,1-.53-2.428Q.006,36.5,0,17.662a1.3,1.3,0,0,1,1.131-1.468,1.11,1.11,0,0,1,1.286,1.157,16.482,16.482,0,0,1,.024,1.92c-.006.493.187.739.7.711.2-.01.394,0,.591,0H63.8c1.459,0,1.459,0,1.459-1.459,0-1.749,0-3.5,0-5.246a5.988,5.988,0,0,0-.244-1.75,2.6,2.6,0,0,0-2.389-1.882c-.566-.029-1.133,0-1.7-.01-.5-.01-.707.227-.7.719q.015.886,0,1.773a4.6,4.6,0,0,1-9.132.739,10.846,10.846,0,0,1-.17-2.426c.022-.543-.16-.822-.755-.812-1.231.021-2.463.018-3.694,0-.542-.007-.745.222-.735.752a11.877,11.877,0,0,1-.112,2.283,4.694,4.694,0,0,1-4.66,4.026,4.744,4.744,0,0,1-4.516-4.539c-.039-.615-.016-1.232-.014-1.847,0-.463-.2-.671-.668-.67q-1.995,0-3.99,0c-.466,0-.669.206-.665.669q.008.924,0,1.847a4.572,4.572,0,0,1-4.521,4.532,4.625,4.625,0,0,1-4.632-4.436c-.02-.615-.015-1.232,0-1.847.01-.516-.184-.773-.731-.768-1.306.012-2.611.005-3.916,0-.46,0-.678.192-.677.661,0,.615.009,1.231-.005,1.847a4.6,4.6,0,0,1-4.4,4.521A4.543,4.543,0,0,1,7.473,12.7a17.4,17.4,0,0,1-.151-2.355c.013-.492-.2-.728-.7-.713-.442.013-.886,0-1.33,0A2.69,2.69,0,0,0,2.46,12.254a4.617,4.617,0,0,1-.108.952,1.051,1.051,0,0,1-1.26.816A1.2,1.2,0,0,1,0,12.684,5.226,5.226,0,0,1,4.988,7.177a11.546,11.546,0,0,1,1.771-.023c.649.052.922-.113.867-.829a14.781,14.781,0,0,1,.05-2.359A4.37,4.37,0,0,1,12.056,0a4.415,4.415,0,0,1,4.333,4.033,25.8,25.8,0,0,1,.02,2.584c-.013.433.138.537.546.532,1.552-.02,3.1-.027,4.655,0,.489.01.568-.184.553-.607-.026-.762-.025-1.527.008-2.289A4.374,4.374,0,0,1,30.91,4.11c.058.81.052,1.624.034,2.436-.01.425.078.614.562.606q2.327-.044,4.655,0c.449.008.53-.168.515-.56-.026-.664-.017-1.33-.005-1.995A4.415,4.415,0,1,1,45.5,4.5c.028.713.023,1.429,0,2.142-.015.386.109.509.5.5,1.551-.02,3.1-.028,4.655,0,.49.01.564-.184.56-.607a25.523,25.523,0,0,1,.064-2.581A4.367,4.367,0,0,1,55.651,0a4.423,4.423,0,0,1,4.339,4.11c.052.834.044,1.675.015,2.511-.015.434.141.534.546.53a11.751,11.751,0,0,1,3.016.139c2.616.66,4.059,2.655,4.062,5.583q.009,8.94-.01,17.881a1.408,1.408,0,0,0,.607,1.3,18.321,18.321,0,0,1,6.792,9.995c.29,1.025.442,2.089.658,3.135Z" transform="translate(0 0)"/>
        <path id="Trazado_157505" data-name="Trazado 157505" d="M1.493,17.454c.869-.215,1.1-.5,1.13-1.371a3.041,3.041,0,0,1,3.4-3.29c1.978-.015,2-.015,1.976,1.986s.56,3.637,2.423,4.618A4.381,4.381,0,0,0,16.8,15.779c.046-.81.035-1.625.013-2.437-.011-.408.105-.563.535-.557,1.551.022,3.1.025,4.655,0,.481-.008.576.19.562.614-.024.738-.023,1.478.005,2.216a4.375,4.375,0,0,0,8.745.143c.048-.786.043-1.576.025-2.363-.01-.429.1-.617.573-.609,1.551.025,3.1.019,4.655,0,.379,0,.521.111.51.5-.023.762-.034,1.528.006,2.289a4.392,4.392,0,0,0,8.63,1.084,10.952,10.952,0,0,0,.181-3.159c-.011-.515.08-.745.674-.726,1.427.046,2.857.039,4.285,0,.56-.014.786.117.757.726a15.618,15.618,0,0,0,.056,2.507,4.381,4.381,0,0,0,8.722-.143,23.551,23.551,0,0,0,.019-2.51c-.017-.467.148-.6.591-.576.639.035,1.281-.008,1.92.028a2.853,2.853,0,0,1,2.842,2.67c.181,2.012.048,4.035.063,6.053,0,.659.285,1.511-.121,1.928-.44.453-1.306.145-1.983.146q-30.111.014-60.221.024c-.7,0-.976-.144-.886-.877.066-.533-.009-1.083.018-1.624a1.3,1.3,0,0,0-1.1-1.505l-.039-2.173" transform="translate(-0.401 -3.432)" fill="#ed534f"/>
        <path id="Trazado_157506" data-name="Trazado 157506" d="M83.182,71.541a1.318,1.318,0,0,0-1.857,0,16.414,16.414,0,0,1-23.909-5.892A16.389,16.389,0,1,1,86.583,50.695c2.928,6.052,2.308,11.867-1.594,17.332-.715,1-.753,1.219-.194,2.021l-1.613,1.494" transform="translate(-14.907 -11.188)" fill="#4fc1f7"/>
        <path id="Trazado_157507" data-name="Trazado 157507" d="M8.474,48.072c1.6,0,3.2.016,4.8-.01.465-.007.642.1.639.6q-.032,4.724,0,9.447c0,.47-.155.568-.594.565q-4.872-.026-9.744,0c-.494,0-.549-.181-.548-.6q.022-4.723,0-9.447c0-.457.126-.581.579-.574,1.624.028,3.248.011,4.872.011" transform="translate(-0.812 -12.909)" fill="#cbcbcb"/>
        <path id="Trazado_157508" data-name="Trazado 157508" d="M26.3,58.668c-1.6,0-3.2-.015-4.8.01-.442.007-.6-.1-.593-.567q.029-4.724,0-9.447c0-.505.178-.6.641-.6q4.835.027,9.67,0c.454,0,.581.119.578.575q-.029,4.724,0,9.447c0,.509-.169.6-.627.593-1.624-.025-3.248-.01-4.872-.01" transform="translate(-5.615 -12.909)" fill="#cbcbcb"/>
        <path id="Trazado_157509" data-name="Trazado 157509" d="M8.445,41.173c-1.6,0-3.2-.015-4.8.01-.458.007-.631-.083-.627-.592q.038-4.687,0-9.374c0-.489.137-.607.612-.6q4.835.031,9.671,0c.509,0,.607.166.6.628-.017,3.1-.022,6.2,0,9.3,0,.533-.168.655-.67.646-1.6-.03-3.2-.011-4.8-.011" transform="translate(-0.811 -8.222)" fill="#cbcbcb"/>
        <path id="Trazado_157510" data-name="Trazado 157510" d="M26.389,41.172c-1.624,0-3.248-.021-4.872.012-.506.01-.612-.163-.61-.63q.026-4.65,0-9.3c0-.433.045-.652.586-.647q4.871.044,9.744,0c.484,0,.556.16.554.589q-.025,4.687,0,9.374c0,.479-.121.622-.608.612-1.6-.031-3.2-.012-4.8-.012" transform="translate(-5.616 -8.221)" fill="#cbcbcb"/>
        <path id="Trazado_157511" data-name="Trazado 157511" d="M44.271,41.171c-1.649,0-3.3-.013-4.946.01-.421.007-.534-.121-.532-.535q.024-4.761,0-9.524c0-.453.169-.511.557-.508,3.248.013,6.5.022,9.746-.007.538,0,.589.211.587.647q-.02,4.651,0,9.3c0,.472-.112.639-.614.628-1.6-.034-3.2-.013-4.8-.013" transform="translate(-10.419 -8.221)" fill="#cbcbcb"/>
        <path id="Trazado_157512" data-name="Trazado 157512" d="M26.355,76.149c-1.6,0-3.2-.012-4.8.007-.441.005-.657-.058-.652-.592.026-3.149.02-6.3,0-9.45,0-.426.136-.534.546-.532q4.911.022,9.82,0c.438,0,.519.149.517.546-.014,3.15-.023,6.3.007,9.45,0,.538-.21.584-.643.579-1.6-.019-3.2-.007-4.8-.007" transform="translate(-5.615 -17.615)" fill="#cbcbcb"/>
        <path id="Trazado_157513" data-name="Trazado 157513" d="M8.427,65.589c1.624,0,3.247.02,4.87-.012.494-.01.617.141.613.618q-.029,4.648,0,9.3c0,.506-.126.674-.652.667-2.312-.028-4.625,0-6.937-.016a3.026,3.026,0,0,1-3.286-3.317c-.007-2.214.012-4.428-.013-6.641-.006-.483.126-.617.609-.608,1.6.031,3.2.012,4.8.012" transform="translate(-0.812 -17.614)" fill="#cbcbcb"/>
        <path id="Trazado_157514" data-name="Trazado 157514" d="M48.706,76.111c-3.174.013-6.346.022-9.52.047-.358,0-.389-.167-.388-.451q.009-4.835,0-9.671c0-.358.109-.457.459-.453,2.115.025,4.231.029,6.346.039.392.622.2,1.339.3,2.006a22.21,22.21,0,0,0,2.581,7.547c.159.285.453.551.222.935" transform="translate(-10.42 -17.615)" fill="#c8c8c8"/>
        <path id="Trazado_157515" data-name="Trazado 157515" d="M38.841,58.542q.005-5.167.01-10.336c.2-.138.429-.072.645-.072q4.352-.008,8.7,0c.8,0,.86.091.448.825a22.668,22.668,0,0,0-2.725,8.053c-.225,1.613-.248,1.61-1.863,1.61-1.5,0-3,0-4.5,0a1.276,1.276,0,0,1-.72-.072" transform="translate(-10.433 -12.924)" fill="#cbcbcb"/>
        <path id="Trazado_157516" data-name="Trazado 157516" d="M56.768,30.681a16.965,16.965,0,0,1,2.565-.056c2.55-.014,5.1.005,7.651-.015.434,0,.609.081.582.558-.05.855-.03,1.714-.04,2.572a8.8,8.8,0,0,1-2.355.8,23.329,23.329,0,0,0-7.663,4.592,2.571,2.571,0,0,1-.343.279c-.328.206-.481.143-.478-.274.011-2.776-.007-5.552.012-8.328a.23.23,0,0,1,.069-.127" transform="translate(-15.226 -8.22)" fill="#cbcbcb"/>
        <path id="Trazado_157517" data-name="Trazado 157517" d="M53.16,9.056c0-1.2-.008-2.41,0-3.615a2.213,2.213,0,1,1,4.407-.015q.019,3.615,0,7.23a2.213,2.213,0,1,1-4.407.014c-.011-1.2,0-2.41,0-3.615" transform="translate(-14.278 -0.81)" fill="#666"/>
        <path id="Trazado_157518" data-name="Trazado 157518" d="M17.8,9.066c0,1.23.01,2.46,0,3.689a2.177,2.177,0,0,1-4.34.347,3.9,3.9,0,0,1-.061-.658c0-2.287-.018-4.574,0-6.861.016-1.774,1.243-2.842,2.769-2.455a2.1,2.1,0,0,1,1.626,2.1c.018,1.278,0,2.558.005,3.835" transform="translate(-3.595 -0.819)" fill="#666"/>
        <path id="Trazado_157519" data-name="Trazado 157519" d="M77.4,9.1c0,1.229.011,2.459,0,3.688a2.174,2.174,0,0,1-4.334.34A3.348,3.348,0,0,1,73,12.545c0-2.335-.012-4.671,0-7.007a2.31,2.31,0,0,1,1.3-2.3,2.051,2.051,0,0,1,2.22.245A2.113,2.113,0,0,1,77.4,5.265q0,1.918,0,3.835" transform="translate(-19.606 -0.812)" fill="#666"/>
        <path id="Trazado_157520" data-name="Trazado 157520" d="M37.661,9.043c0,1.254.012,2.507,0,3.76a2.164,2.164,0,1,1-4.323.009q-.022-3.76,0-7.52a2.165,2.165,0,1,1,4.324-.009c.017,1.254,0,2.507,0,3.76" transform="translate(-8.951 -0.808)" fill="#666"/>
        <path id="Trazado_157521" data-name="Trazado 157521" d="M56.759,30.709v8.769c.99-.789,1.864-1.564,2.814-2.229a19.449,19.449,0,0,1,7.944-3.48c.01.982.01,1.965.034,2.948a.443.443,0,0,1-.388.508,18.7,18.7,0,0,0-7.013,3.768.783.783,0,0,1-.533.207q-1.253-.01-2.507,0c-.246,0-.425-.031-.426-.348-.015-3.364-.074-6.727.025-10.089,0-.018.032-.035.05-.053" transform="translate(-15.217 -8.248)" fill="#b6b6b6"/>
        <path id="Trazado_157522" data-name="Trazado 157522" d="M85.35,30.7c.208.176.1.413.1.619.006,2.136-.016,4.272,0,6.408.005.564-.061.761-.671.475A18.023,18.023,0,0,0,75.256,36.6c-.543.051-.742-.037-.7-.626.06-.88.03-1.766.039-2.649a7.883,7.883,0,0,1,3.757-.3,21.489,21.489,0,0,1,6.175,1.254c.476.175.621-.012.614-.467q-.014-1.1,0-2.207a1.184,1.184,0,0,1,.208-.9" transform="translate(-20.024 -8.247)" fill="#b6b6b6"/>
        <path id="Trazado_157523" data-name="Trazado 157523" d="M51.2,76.114c-.4-.808-.824-1.607-1.2-2.428A18.8,18.8,0,0,1,48.1,65.626c.935-.009,1.869-.012,2.8-.031.276-.005.441.023.47.377a18.5,18.5,0,0,0,3.842,9.963c.024.031.012.089.02.178Z" transform="translate(-12.919 -17.619)" fill="#bfbfbf"/>
        <path id="Trazado_157524" data-name="Trazado 157524" d="M38.841,58.52c2.041,0,4.083-.008,6.123.011.453,0,.634-.1.664-.606a19.759,19.759,0,0,1,1.662-6.733,14.125,14.125,0,0,1,1.6-3.008H38.851c.094-.227.3-.124.446-.124,3.222,0,6.444.012,9.666-.011.578,0,.756.15.741.739-.04,1.621-.012,3.245-.016,4.869a2.728,2.728,0,0,1-.052.658,24.766,24.766,0,0,0-.739,3.979c-.024.276-.124.374-.408.373q-4.722-.008-9.445,0c-.1,0-.19-.023-.2-.147" transform="translate(-10.433 -12.902)" fill="#b6b6b6"/>
        <path id="Trazado_157525" data-name="Trazado 157525" d="M85.355,30.68c0,1.155-.018,2.31,0,3.465.005.462-.006.657-.591.437a22.2,22.2,0,0,0-5.918-1.317A29.756,29.756,0,0,0,74.6,33.3c-.009-.758-.011-1.518-.029-2.277-.006-.258.041-.407.354-.4,3.477.041,6.955-.067,10.431.06" transform="translate(-20.029 -8.223)" fill="#cbcbcb"/>
        <path id="Trazado_157526" data-name="Trazado 157526" d="M56.669,49.436c-.042-1.443-.042-1.443.99-1.312a3.36,3.36,0,0,1-.99,1.312" transform="translate(-15.218 -12.912)" fill="#9a9a9a"/>
        <path id="Trazado_157527" data-name="Trazado 157527" d="M64.272,49.834c-.353-.93-.251-1.25.593-1.867a13.769,13.769,0,1,1-3.658,3.988c.413-.7.8-.812,1.692-.52A1.076,1.076,0,0,1,63.344,53c-.32.8-.821,1.507-1.082,2.34a11.358,11.358,0,0,0,7.046,14.43,11.305,11.305,0,1,0,4.873-21.94,11.074,11.074,0,0,0-7.79,2.009,2.322,2.322,0,0,1-1.11.532.872.872,0,0,1-1.009-.538" transform="translate(-15.904 -12.179)"/>
        <path id="Trazado_157528" data-name="Trazado 157528" d="M70.064,70.927A10.766,10.766,0,0,1,63.5,65.289a11.116,11.116,0,0,1,.167-10.729c.377-.709.8-1.4.039-2.118l1.372-1.6a1.309,1.309,0,0,0,1.845-.03A9.63,9.63,0,0,1,70.36,49.09c.011.38-.323.462-.554.619A12.473,12.473,0,0,0,69.45,70.19c.257.187.658.286.614.737" transform="translate(-16.707 -13.185)" fill="#e4e4e4"/>
        <path id="Trazado_157529" data-name="Trazado 157529" d="M70.762,70.719c-.554-.437-1.14-.84-1.659-1.316a12.71,12.71,0,0,1-3.282-14.537,12.112,12.112,0,0,1,4.969-5.742,1.846,1.846,0,0,0,.267-.242c5.377-1.909,11.906,1.186,14.047,6.656a11.5,11.5,0,0,1-9.136,15.73,9.75,9.75,0,0,1-5.207-.55" transform="translate(-17.404 -12.978)" fill="#fefefe"/>
        <path id="Trazado_157530" data-name="Trazado 157530" d="M81.9,63.874c-1.329,0-2.658.005-3.987,0-1.078-.005-1.459-.378-1.463-1.468q-.013-3.986,0-7.973c0-.936.417-1.422,1.139-1.407.682.013,1.062.456,1.066,1.308.01,2.215.022,4.429-.01,6.644-.007.546.119.708.685.7,2.116-.037,4.233-.016,6.349-.012a3.651,3.651,0,0,1,.733.049,1.018,1.018,0,0,1,.913,1.148,1.006,1.006,0,0,1-1.07,1c-1.452.02-2.9.006-4.356.006v.008" transform="translate(-20.533 -14.242)"/>
      </g>
    </g>
  </g>
</svg>
