<svg xmlns="http://www.w3.org/2000/svg" xmlns:xlink="http://www.w3.org/1999/xlink" width="936.425" height="206" viewBox="0 0 936.425 206">
  <defs>
    <clipPath id="clip-path">
      <path id="Trazado_159924" data-name="Trazado 159924" d="M0,0H936.425V206H0Z" transform="translate(346.788 5561)" fill="#fff7da"/>
    </clipPath>
    <clipPath id="clip-path-2">
      <rect id="Rectángulo_42427" data-name="Rectángulo 42427" width="1000.63" height="260.247" fill="none"/>
    </clipPath>
    <clipPath id="clip-path-3">
      <rect id="Rectángulo_42413" data-name="Rectángulo 42413" width="1000.633" height="260.247" fill="none"/>
    </clipPath>
    <clipPath id="clip-path-4">
      <rect id="Rectángulo_42411" data-name="Rectángulo 42411" width="267.051" height="175.26" transform="translate(7.889 25.687)" fill="none"/>
    </clipPath>
    <clipPath id="clip-path-5">
      <rect id="Rectángulo_42412" data-name="Rectángulo 42412" width="324.34" height="212.858" transform="translate(632.853)" fill="none"/>
    </clipPath>
    <clipPath id="clip-path-7">
      <rect id="Rectángulo_42421" data-name="Rectángulo 42421" width="33.123" height="9.669" transform="translate(141.415 78.403)" fill="none"/>
    </clipPath>
    <clipPath id="clip-path-8">
      <rect id="Rectángulo_42422" data-name="Rectángulo 42422" width="33.124" height="9.669" transform="translate(671.938 107.592)" fill="none"/>
    </clipPath>
    <clipPath id="clip-path-9">
      <rect id="Rectángulo_42423" data-name="Rectángulo 42423" width="18.874" height="5.51" transform="translate(647.262 95.597)" fill="none"/>
    </clipPath>
    <clipPath id="clip-path-10">
      <rect id="Rectángulo_42424" data-name="Rectángulo 42424" width="18.874" height="5.509" transform="translate(869.199 134.651)" fill="none"/>
    </clipPath>
    <clipPath id="clip-path-11">
      <rect id="Rectángulo_42425" data-name="Rectángulo 42425" width="17.935" height="5.235" transform="translate(136.537 130.727)" fill="none"/>
    </clipPath>
  </defs>
  <g id="Enmascarar_grupo_217" data-name="Enmascarar grupo 217" transform="translate(-346.788 -5561)" clip-path="url(#clip-path)">
    <g id="Grupo_169230" data-name="Grupo 169230" transform="translate(336 5511.753)">
      <g id="Grupo_169229" data-name="Grupo 169229" clip-path="url(#clip-path-2)">
        <rect id="Rectángulo_42410" data-name="Rectángulo 42410" width="936.425" height="206" transform="translate(9.705 48.893)" fill="#33c5cc"/>
        <g id="Grupo_169211" data-name="Grupo 169211">
          <g id="Grupo_169210" data-name="Grupo 169210" clip-path="url(#clip-path-3)">
            <g id="Grupo_169206" data-name="Grupo 169206" opacity="0.7">
              <g id="Grupo_169205" data-name="Grupo 169205">
                <g id="Grupo_169204" data-name="Grupo 169204" clip-path="url(#clip-path-4)">
                  <path id="Trazado_159925" data-name="Trazado 159925" d="M242.8,136.661a32.037,32.037,0,0,0-12.106,2.366,32.151,32.151,0,0,0-27.933-20.278A6.376,6.376,0,0,0,196.553,111a9.028,9.028,0,0,0-12.4-4.265,32.135,32.135,0,0,0-50.524,9.24,6.375,6.375,0,0,0-7.668-1.25,9.029,9.029,0,0,0-8.116-5.07c-.215,0-.427.01-.638.025A37.369,37.369,0,0,0,69.141,67.2a9.03,9.03,0,0,0-9.007-8.4,9.142,9.142,0,0,0-1.571.139,6.452,6.452,0,0,0-5.972-4.013c-.093,0-.184.01-.277.014A22.062,22.062,0,0,0,31.784,36.4,11.982,11.982,0,0,0,8.022,35.88l-.133-.06V200.947H242.8a32.143,32.143,0,0,0,0-64.286" fill="#bee9f2"/>
                </g>
              </g>
            </g>
            <g id="Grupo_169209" data-name="Grupo 169209" opacity="0.7">
              <g id="Grupo_169208" data-name="Grupo 169208">
                <g id="Grupo_169207" data-name="Grupo 169207" clip-path="url(#clip-path-5)">
                  <path id="Trazado_159926" data-name="Trazado 159926" d="M671.892,134.781a38.9,38.9,0,0,1,14.7,2.874,39.048,39.048,0,0,1,33.926-24.628,7.741,7.741,0,0,1,7.535-9.414,10.965,10.965,0,0,1,15.058-5.18,39.029,39.029,0,0,1,61.362,11.222,7.74,7.74,0,0,1,9.313-1.518,10.966,10.966,0,0,1,9.858-6.157c.26,0,.518.012.775.03A45.382,45.382,0,0,1,882.8,50.416a10.956,10.956,0,0,1,12.847-10.039A7.836,7.836,0,0,1,902.9,35.5c.113,0,.224.013.336.017a26.8,26.8,0,0,1,24.935-22.511,14.552,14.552,0,0,1,28.859-.628l.162-.073V212.858h-285.3a39.038,39.038,0,1,1,0-78.077" fill="#bee9f2"/>
                </g>
              </g>
            </g>
          </g>
        </g>
        <rect id="Rectángulo_42414" data-name="Rectángulo 42414" width="936.425" height="71.423" transform="translate(9.705 168.719)" fill="#2f9bc2"/>
        <g id="Grupo_169228" data-name="Grupo 169228">
          <g id="Grupo_169227" data-name="Grupo 169227" clip-path="url(#clip-path-3)">
            <path id="Trazado_159927" data-name="Trazado 159927" d="M620.174,161.132c-9.418-11.42-28.423-12.153-52.552-17.506-11.9-26.218-41.939-25.689-41.939-25.689s-8.761-6.732-15.564-9.208c-3.206-5.714-20.9-20.895-20.9-20.895s-17.693,15.181-20.9,20.895c-6.8,2.476-15.565,9.208-15.565,9.208s-30.042-.529-41.939,25.689c-24.129,5.353-43.133,6.086-52.552,17.506-19.076-.088-41.729,9.466-41.729,9.466H661.9s-22.653-9.554-41.729-9.466" fill="#295244"/>
            <path id="Trazado_159928" data-name="Trazado 159928" d="M567.622,143.626c-11.9-26.219-41.939-25.689-41.939-25.689s-8.761-6.732-15.565-9.208c-3.205-5.714-20.9-20.895-20.9-20.895s-17.692,15.181-20.9,20.895c-6.8,2.476-15.564,9.208-15.564,9.208s-30.042-.53-41.939,25.689c-24.129,5.353-43.133,6.086-52.552,17.506,0,0,15.677-10.744,26.238-8.446,11.126-5.216,27.216.54,27.216.54s-10.1,5.4-10.683,8.634c7.153-4.317,24.865-7.015,39.436-2.878-1.8-4.856-15.29-9.893-21.226-10.6,1.979-7,17.988-17.462,30.219-15.855,4.677-6.308,21.046-15.457,21.046.649,3.7-9.347,12.55-16.295,18.707-20.209,6.158,3.914,15.012,10.862,18.708,20.209,0-16.106,16.369-6.957,21.045-.649,12.232-1.607,28.241,8.853,30.22,15.855-5.936.706-19.427,5.743-21.226,10.6,14.57-4.137,32.283-1.439,39.436,2.878-.582-3.238-10.683-8.634-10.683-8.634s16.09-5.756,27.216-.54c10.561-2.3,26.238,8.446,26.238,8.446-9.419-11.42-28.423-12.153-52.552-17.506" fill="#4e804b"/>
            <path id="Trazado_159929" data-name="Trazado 159929" d="M9.706,190.162c243.594,0,254.4,49.98,470.891,49.98H9.706Z" fill="#ffa142"/>
            <rect id="Rectángulo_42415" data-name="Rectángulo 42415" width="3.038" height="170.89" transform="translate(384.149 69.179)" fill="#ffe5b8"/>
            <path id="Trazado_159930" data-name="Trazado 159930" d="M384.15,84.751l3.038,3.118V71.08H384.15Z" fill="#2f9bc2"/>
            <path id="Trazado_159931" data-name="Trazado 159931" d="M358.029,78.419h47.728l13.31-12.951-13.31-12.951H358.029Z" fill="#ffe5b8"/>
            <path id="Trazado_159932" data-name="Trazado 159932" d="M360.158,52.517V75.739h45.6l11.934-11.611,1.377,1.34L405.757,78.419H358.029v-25.9Z" fill="#ffc35c"/>
            <path id="Trazado_159933" data-name="Trazado 159933" d="M369.769,60.955a12.337,12.337,0,0,0,1.451-.688,7.085,7.085,0,0,0,1.042-.7,3.225,3.225,0,0,0,.633-.674,1.119,1.119,0,0,0,.214-.6.371.371,0,0,0-.093-.214.865.865,0,0,0-.284-.223,2.018,2.018,0,0,0-.479-.172,2.842,2.842,0,0,0-.67-.07,6.989,6.989,0,0,0-1.9.246,9.323,9.323,0,0,0-1.591.6,9.473,9.473,0,0,0-1.265.739c-.366.258-.673.482-.921.675a4,4,0,0,0-.4.349c-.115.114-.226.217-.335.307a1.542,1.542,0,0,1-.349.218,1.081,1.081,0,0,1-.447.084.912.912,0,0,1-.609-.186.647.647,0,0,1-.219-.521,1.5,1.5,0,0,1,.317-.851,4.459,4.459,0,0,1,.874-.9,8.577,8.577,0,0,1,1.312-.851,11.485,11.485,0,0,1,1.624-.712,12.922,12.922,0,0,1,1.814-.493,9.773,9.773,0,0,1,1.893-.186,7.767,7.767,0,0,1,1.684.158,3.759,3.759,0,0,1,1.159.437,1.891,1.891,0,0,1,.669.661,1.633,1.633,0,0,1,.219.828,1.775,1.775,0,0,1-.3.93,4.317,4.317,0,0,1-.851.968,7.812,7.812,0,0,1-1.349.925,12.445,12.445,0,0,1-1.791.805,8.7,8.7,0,0,1,1.6.684,4.025,4.025,0,0,1,.968.744,2.065,2.065,0,0,1,.469.8,3.01,3.01,0,0,1,.121.852,2.545,2.545,0,0,1-.353,1.265,4.615,4.615,0,0,1-.982,1.177,8.126,8.126,0,0,1-1.488,1.023,11.575,11.575,0,0,1-1.875.81,14.214,14.214,0,0,1-2.14.53,13.629,13.629,0,0,1-2.279.191,7.5,7.5,0,0,1-.828-.047,3.506,3.506,0,0,1-.768-.167,1.569,1.569,0,0,1-.568-.326.694.694,0,0,1-.218-.53.514.514,0,0,1,0-.07c0-.022.008-.048.014-.079.025-.05.053-.11.084-.181a.511.511,0,0,1,.214-.21,1.689,1.689,0,0,1,.526-.172,5.778,5.778,0,0,1,1.028-.07q1.162-2.13,1.921-3.67t1.27-2.535a11.427,11.427,0,0,1,.861-1.47q.348-.475.684-.475a.905.905,0,0,1,.288.047.889.889,0,0,1,.246.125.614.614,0,0,1,.173.2.518.518,0,0,1,.065.256.354.354,0,0,0-.084.19q-.009.1-.009.219m-.512,1.777q-.418.95-.786,1.7t-.693,1.381q-.326.628-.619,1.173t-.572,1.065a9.842,9.842,0,0,0,2.014-.377,7.169,7.169,0,0,0,1.628-.7,3.853,3.853,0,0,0,1.089-.94,1.79,1.79,0,0,0,.4-1.1,1.476,1.476,0,0,0-.116-.549,1.836,1.836,0,0,0-.4-.577,3.561,3.561,0,0,0-.753-.567,6.039,6.039,0,0,0-1.191-.512" fill="#ff4f4f"/>
            <path id="Trazado_159934" data-name="Trazado 159934" d="M378.821,62.779a1.6,1.6,0,0,1,1.154.372,1.378,1.378,0,0,1,.381,1.033,1.9,1.9,0,0,1-.2.819,2.834,2.834,0,0,1-.707.87,7.544,7.544,0,0,1-1.344.9,15.856,15.856,0,0,1-2.107.926.6.6,0,0,0,.288.423,1.187,1.187,0,0,0,.642.154,3.673,3.673,0,0,0,.916-.126,7.567,7.567,0,0,0,.968-.321q.479-.2.935-.423t.823-.433q.367-.2.614-.353c.165-.1.275-.162.331-.187a.39.39,0,0,1,.153-.065,1,1,0,0,1,.126-.009.323.323,0,0,1,.186.051.538.538,0,0,1,.126.121.4.4,0,0,1,.069.149.578.578,0,0,1,.019.135,1.231,1.231,0,0,1-.019.2.6.6,0,0,1-.139.265c-.031.031-.135.115-.312.251s-.4.3-.684.484-.6.383-.972.591a11.477,11.477,0,0,1-1.172.572,9.244,9.244,0,0,1-1.289.433,5.325,5.325,0,0,1-1.321.172,2.2,2.2,0,0,1-.991-.214,2.247,2.247,0,0,1-.735-.577,2.561,2.561,0,0,1-.46-.837,3.116,3.116,0,0,1-.159-1,2.807,2.807,0,0,1,.159-.879,4.6,4.6,0,0,1,.455-.963,5.881,5.881,0,0,1,.731-.944,5.3,5.3,0,0,1,.972-.814,5.053,5.053,0,0,1,1.186-.568,4.363,4.363,0,0,1,1.382-.214m-.335,1.284a.446.446,0,0,0-.084-.009h-.083a1.58,1.58,0,0,0-.661.139,2.231,2.231,0,0,0-.563.368,2.966,2.966,0,0,0-.456.516c-.133.192-.253.383-.358.572a5.1,5.1,0,0,0-.265.545c-.071.173-.126.319-.163.437q.326-.168.675-.382c.232-.142.451-.279.655-.409s.383-.248.535-.354.259-.176.321-.213a1.955,1.955,0,0,0,.577-.489.728.728,0,0,0,.158-.395.3.3,0,0,0-.088-.224.381.381,0,0,0-.2-.1" fill="#ff4f4f"/>
            <path id="Trazado_159935" data-name="Trazado 159935" d="M391.316,66.872q-.168.159-.447.438t-.637.6q-.358.327-.763.656a8.494,8.494,0,0,1-.828.6,5.533,5.533,0,0,1-.833.442,1.991,1.991,0,0,1-.772.172,1.065,1.065,0,0,1-.558-.139,1.231,1.231,0,0,1-.387-.363,1.6,1.6,0,0,1-.227-.507,2.263,2.263,0,0,1-.075-.581,2.624,2.624,0,0,1,.028-.387,1.694,1.694,0,0,1,.093-.358q-.288.392-.656.805a6.465,6.465,0,0,1-.791.754,4.513,4.513,0,0,1-.884.558,2.153,2.153,0,0,1-.935.218,1.961,1.961,0,0,1-.562-.1,1.888,1.888,0,0,1-.61-.321,1.86,1.86,0,0,1-.484-.577,1.77,1.77,0,0,1-.2-.865,4.38,4.38,0,0,1,.116-.912,6.622,6.622,0,0,1,.354-1.1,6.776,6.776,0,0,1,.605-1.13,4.935,4.935,0,0,1,.869-1,4.243,4.243,0,0,1,1.145-.717,3.625,3.625,0,0,1,1.433-.274,2.273,2.273,0,0,1,.716.1,3.012,3.012,0,0,1,.521.224,2.573,2.573,0,0,1,.428.325c.1-.056.214-.108.326-.158a2.748,2.748,0,0,1,.293-.116.856.856,0,0,1,.265-.051.845.845,0,0,1,.577.195.565.565,0,0,1,.223.428.45.45,0,0,1-.009.1q-.047.177-.145.447t-.218.6c-.081.22-.163.45-.247.688s-.159.473-.228.7-.124.445-.167.647a2.463,2.463,0,0,0-.065.516,1,1,0,0,0,.093.46.326.326,0,0,0,.316.182.81.81,0,0,0,.33-.089,2.953,2.953,0,0,0,.414-.237q.223-.148.461-.339c.158-.127.312-.256.46-.386q.522-.466,1.108-1.061a.46.46,0,0,1,.288-.121.37.37,0,0,1,.312.181.7.7,0,0,1,.125.4.594.594,0,0,1-.176.437m-6.448-2.4a1.744,1.744,0,0,0-.847.223,2.641,2.641,0,0,0-.725.586,2.931,2.931,0,0,0-.5.815,2.359,2.359,0,0,0-.186.907,3.464,3.464,0,0,0,.023.386,1.125,1.125,0,0,0,.107.367.753.753,0,0,0,.238.279.685.685,0,0,0,.414.112.909.909,0,0,0,.479-.181,3.928,3.928,0,0,0,.567-.466,7.539,7.539,0,0,0,.573-.623q.279-.339.5-.665a6.45,6.45,0,0,0,.363-.586.954.954,0,0,0,.139-.382.485.485,0,0,0-.121-.321,1.09,1.09,0,0,0-.3-.246,1.459,1.459,0,0,0-.377-.154,1.439,1.439,0,0,0-.349-.051" fill="#ff4f4f"/>
            <path id="Trazado_159936" data-name="Trazado 159936" d="M395.6,63.644a3.528,3.528,0,0,1-.065.637,2.6,2.6,0,0,1-.214.656,1.59,1.59,0,0,1-.382.512.843.843,0,0,1-.576.205.343.343,0,0,1-.238-.056.292.292,0,0,1-.051-.2c0-.055,0-.138.005-.246s0-.213,0-.312a.772.772,0,0,0-.046-.284c-.031-.077-.109-.116-.233-.116a.936.936,0,0,0-.479.163,3.068,3.068,0,0,0-.53.423,5.436,5.436,0,0,0-.516.591,6.909,6.909,0,0,0-.452.67,4.109,4.109,0,0,0-.316.656,1.6,1.6,0,0,0-.116.539.624.624,0,0,0,.228.512.949.949,0,0,0,.618.186,3.181,3.181,0,0,0,.894-.139,7.088,7.088,0,0,0,.944-.354c.313-.142.615-.3.907-.465s.557-.327.8-.479.439-.282.6-.391.266-.175.316-.2a.62.62,0,0,1,.279-.074.347.347,0,0,1,.191.051.426.426,0,0,1,.125.121.439.439,0,0,1,.065.149.564.564,0,0,1,.019.134,1.242,1.242,0,0,1-.019.2.592.592,0,0,1-.139.265c-.031.037-.132.131-.3.283s-.39.331-.66.535-.58.424-.93.656a9.478,9.478,0,0,1-1.126.638,8.367,8.367,0,0,1-1.242.479,4.436,4.436,0,0,1-1.266.191,2.234,2.234,0,0,1-.842-.149,1.8,1.8,0,0,1-.618-.4,1.714,1.714,0,0,1-.382-.6,2.034,2.034,0,0,1-.13-.726,2.907,2.907,0,0,1,.2-.963,6.282,6.282,0,0,1,.54-1.112,8.831,8.831,0,0,1,.809-1.116,6.993,6.993,0,0,1,1.01-.977,5.269,5.269,0,0,1,1.135-.688,2.933,2.933,0,0,1,1.2-.261,1.552,1.552,0,0,1,.386.047.925.925,0,0,1,.316.144.674.674,0,0,1,.214.265.927.927,0,0,1,.079.4" fill="#ff4f4f"/>
            <path id="Trazado_159937" data-name="Trazado 159937" d="M395.456,68.082q.224-.474.512-1.056t.581-1.154q.294-.572.554-1.088c.173-.344.319-.638.437-.879l3.07-6.039a.8.8,0,0,1,.172-.232,1.493,1.493,0,0,1,.582-.34,1.145,1.145,0,0,1,.335-.051.807.807,0,0,1,.567.154.5.5,0,0,1,.159.376,1.062,1.062,0,0,1-.1.433,2.947,2.947,0,0,1-.232.423q-.41.7-.787,1.41t-.753,1.433q-.376.72-.758,1.432t-.8,1.41c.174-.168.359-.341.554-.521a4.778,4.778,0,0,1,.637-.493,3.54,3.54,0,0,1,.754-.368,2.735,2.735,0,0,1,.912-.144,2.81,2.81,0,0,1,.567.056,1.487,1.487,0,0,1,.475.181.915.915,0,0,1,.325.345,1.085,1.085,0,0,1,.121.535,2.264,2.264,0,0,1-.125.767,3.452,3.452,0,0,1-.321.661,5.864,5.864,0,0,1-.428.6c-.155.189-.3.382-.442.577a4.163,4.163,0,0,0-.363.609,2.041,2.041,0,0,0-.191.689.156.156,0,0,1,0,.037.165.165,0,0,0-.005.037c0,.124.042.2.126.233a.933.933,0,0,0,.321.046,1.686,1.686,0,0,0,.539-.1,3.525,3.525,0,0,0,.582-.261,6.866,6.866,0,0,0,.586-.367c.2-.137.381-.276.558-.419s.34-.281.488-.414.277-.25.382-.349a.626.626,0,0,1,.177-.112.492.492,0,0,1,.176-.037.371.371,0,0,1,.284.126.478.478,0,0,1,.117.339.965.965,0,0,1-.135.447,1.647,1.647,0,0,1-.461.5q-.512.447-1.042.856a10.1,10.1,0,0,1-1.07.726,6.163,6.163,0,0,1-1.074.5,3.18,3.18,0,0,1-1.047.186,1.715,1.715,0,0,1-1.061-.3,1.118,1.118,0,0,1-.4-.953,2.468,2.468,0,0,1,.163-.9,5.342,5.342,0,0,1,.4-.819q.237-.4.507-.763a8.028,8.028,0,0,0,.475-.721,1.841,1.841,0,0,0,.172-.293.714.714,0,0,0,.06-.293.345.345,0,0,0-.074-.228.288.288,0,0,0-.233-.088,1.993,1.993,0,0,0-1.014.269,3.751,3.751,0,0,0-.856.689,7.458,7.458,0,0,0-.726.916q-.335.5-.623.954-.131.2-.265.47t-.279.544q-.144.279-.3.554a3.772,3.772,0,0,1-.33.488,1.685,1.685,0,0,1-.363.344.691.691,0,0,1-.395.131.653.653,0,0,1-.5-.191.681.681,0,0,1-.176-.479,1.5,1.5,0,0,1,.074-.452,4.369,4.369,0,0,1,.242-.581" fill="#ff4f4f"/>
            <path id="Trazado_159938" data-name="Trazado 159938" d="M323.683,249.685a69.06,69.06,0,0,1,13.3-5.705,61.9,61.9,0,0,0-9.071-4.7c3.165.088,8.349,2.078,12.31,3.819a36.678,36.678,0,0,1,8.826-1.081,64.539,64.539,0,0,0-19.427-5.788,42.383,42.383,0,0,1,20-6.853,88.991,88.991,0,0,0-9.751-4.254c6.772.487,14.062,2.754,19.113,4.629a22.341,22.341,0,0,1,2.472.533s-17.088-8.6-26.262-10.481a62.163,62.163,0,0,1,30.22,3.755l-13.851-16.739s10.253,2.972,17.088,11.42a167.259,167.259,0,0,1,.54-34.572l7.7,30.43c.889-5.8,3.669-16.548,12.355-23.938-3.156,3.965-6.882,14.769-9.1,21.848,4.511-6.495,14.877-18.284,32.219-21.3-11.512,3.911-25.543,27.22-25.543,27.22L422.076,200.1l-26.622,22.682,15.47-7.508a54.322,54.322,0,0,1-10.613,8.76c.127-.019.249-.031.375-.049,4.167-2.742,12.382-6.644,24.9-6.13a46.734,46.734,0,0,0-16.906,5.682c16,.579,24.011,10.2,24.011,10.2s-12.592-4.537-30.579,0c14.03,0,22.484,7.039,22.484,7.039a86.687,86.687,0,0,0-19.606,2.347,52.173,52.173,0,0,1,9.294.992c3.3-.659,9.211-1.553,14.09-.758a38.131,38.131,0,0,0-10.082,1.672,65.966,65.966,0,0,1,12.6,4.664Z" fill="#295244"/>
            <path id="Trazado_159939" data-name="Trazado 159939" d="M403.826,221.634c.994-1.413,2.12-2.954,3.345-4.543l3.752-1.821a56.518,56.518,0,0,1-7.1,6.364" fill="#4e804b"/>
            <path id="Trazado_159940" data-name="Trazado 159940" d="M418.658,243.4a35.715,35.715,0,0,1,9.713-.05,35.555,35.555,0,0,0-8.608,1.27,41.083,41.083,0,0,0-5.183-.328c1.4-.352,2.752-.643,4.078-.892" fill="#4e804b"/>
            <path id="Trazado_159941" data-name="Trazado 159941" d="M414.927,220.582a52.392,52.392,0,0,0-6.249,2.951c.127,0,.249.015.375.02l-9.762,4.938s1.515-2.513,3.948-6.019a41.279,41.279,0,0,1,16.967-4.56Z" fill="#4e804b"/>
            <path id="Trazado_159942" data-name="Trazado 159942" d="M389.364,224.662l-1.8-7.11,4.2-2.123a47.3,47.3,0,0,0-2.4,9.233" fill="#4e804b"/>
            <path id="Trazado_159943" data-name="Trazado 159943" d="M349.622,229.379a88.91,88.91,0,0,0-9.751-4.254c6.773.487,14.062,2.754,19.114,4.63,1.088.181,1.842.364,2.211.461a65.1,65.1,0,0,0-13.53.153c9.174,1.877,26.262,10.481,26.262,10.481a22.05,22.05,0,0,0-2.472-.533c-5.051-1.876-12.341-4.142-19.113-4.63a89.184,89.184,0,0,1,9.751,4.254,42.383,42.383,0,0,0-20,6.853,65.516,65.516,0,0,1,12.406,2.891H323.682a69.159,69.159,0,0,1,13.3-5.705,62.109,62.109,0,0,0-9.071-4.7c3.164.088,8.348,2.078,12.309,3.819a36.685,36.685,0,0,1,8.826-1.081,64.531,64.531,0,0,0-19.427-5.788,42.382,42.382,0,0,1,20-6.853" fill="#4e804b"/>
            <path id="Trazado_159944" data-name="Trazado 159944" d="M429.116,230.51a23.164,23.164,0,0,1,3.573,3.219,38.533,38.533,0,0,0-7.627-1.6c1.243-.561,2.6-1.114,4.054-1.622" fill="#4e804b"/>
            <path id="Trazado_159945" data-name="Trazado 159945" d="M387.417,216.965l-2.7-10.678a48.691,48.691,0,0,1,27.648-15.578c-10.112,3.435-22.161,21.829-24.945,26.256" fill="#4e804b"/>
            <path id="Trazado_159946" data-name="Trazado 159946" d="M410.284,232.2c-.4.049-.8.1-1.206.163l8.7-7.413a35.792,35.792,0,0,1,4.308,1.522Z" fill="#4e804b"/>
            <path id="Trazado_159947" data-name="Trazado 159947" d="M392.615,222.572c.847-2.7,1.913-5.938,3.082-9.134L422.076,200.1l-3.015,2.57c-13.9,4.3-22.46,14.168-26.446,19.907" fill="#4e804b"/>
            <path id="Trazado_159948" data-name="Trazado 159948" d="M382.614,197.989a32.51,32.51,0,0,1,6.634-7.827c-1.827,2.295-3.845,6.882-5.651,11.71Z" fill="#4e804b"/>
            <path id="Trazado_159949" data-name="Trazado 159949" d="M418.473,231.714c-.506,0-1.026,0-1.553.01a58.41,58.41,0,0,0,5.663-5.041,34.345,34.345,0,0,1,4.558,2.456,40.632,40.632,0,0,0-8.668,2.575" fill="#4e804b"/>
            <path id="Trazado_159950" data-name="Trazado 159950" d="M380.492,210.909c-.12.375-.236.744-.349,1.1.108-.154.221-.314.335-.474a140.572,140.572,0,0,0,.646,17.268c-6.836-8.447-17.089-11.419-17.089-11.419l13.851,16.738a56.762,56.762,0,0,0-16.542-3.892c-1.418-.709-17.387-8.632-26.149-10.425a62.157,62.157,0,0,1,30.219,3.755l-13.85-16.739s10.253,2.973,17.088,11.42a167.178,167.178,0,0,1,.54-34.572l7.7,30.43A45.648,45.648,0,0,1,381,200.908c-.215,2.742-.419,6.174-.509,10" fill="#4e804b"/>
            <path id="Trazado_159951" data-name="Trazado 159951" d="M891.628,241.9a69.058,69.058,0,0,1,13.3-5.705,61.9,61.9,0,0,0-9.071-4.7c3.165.088,8.349,2.078,12.31,3.819a36.68,36.68,0,0,1,8.826-1.081,64.539,64.539,0,0,0-19.427-5.788,42.379,42.379,0,0,1,20-6.853,88.991,88.991,0,0,0-9.751-4.254c6.772.487,14.062,2.754,19.113,4.629a22.339,22.339,0,0,1,2.472.533s-17.088-8.6-26.262-10.481a62.163,62.163,0,0,1,30.22,3.755l-13.851-16.739s10.253,2.972,17.088,11.42a167.259,167.259,0,0,1,.54-34.572l7.7,30.43c.889-5.795,3.669-16.548,12.355-23.938-3.156,3.965-6.882,14.769-9.1,21.848,4.511-6.5,14.877-18.284,32.219-21.3-11.513,3.911-25.543,27.22-25.543,27.22l35.256-17.833L963.4,215l15.47-7.508a54.322,54.322,0,0,1-10.613,8.76c.127-.019.249-.031.375-.049,4.167-2.742,12.382-6.644,24.9-6.13a46.735,46.735,0,0,0-16.906,5.682c16,.579,24.011,10.2,24.011,10.2s-12.592-4.537-30.579,0c14.03,0,22.484,7.039,22.484,7.039a86.687,86.687,0,0,0-19.606,2.347,52.184,52.184,0,0,1,9.294.992c3.3-.659,9.211-1.553,14.09-.758a38.131,38.131,0,0,0-10.082,1.672,65.965,65.965,0,0,1,12.6,4.664Z" fill="#295244"/>
            <path id="Trazado_159952" data-name="Trazado 159952" d="M971.77,213.853c.995-1.413,2.121-2.954,3.346-4.543l3.752-1.821a56.486,56.486,0,0,1-7.1,6.364" fill="#4e804b"/>
            <path id="Trazado_159953" data-name="Trazado 159953" d="M986.6,235.618a35.715,35.715,0,0,1,9.713-.05,35.555,35.555,0,0,0-8.608,1.27,41.083,41.083,0,0,0-5.183-.328c1.395-.352,2.752-.643,4.078-.892" fill="#4e804b"/>
            <path id="Trazado_159954" data-name="Trazado 159954" d="M982.872,212.8a52.392,52.392,0,0,0-6.249,2.951c.127.005.249.015.375.02l-9.762,4.938s1.515-2.513,3.948-6.019a41.28,41.28,0,0,1,16.967-4.56Z" fill="#4e804b"/>
            <path id="Trazado_159955" data-name="Trazado 159955" d="M957.309,216.881l-1.8-7.11,4.2-2.123a47.3,47.3,0,0,0-2.4,9.233" fill="#4e804b"/>
            <path id="Trazado_159956" data-name="Trazado 159956" d="M917.567,221.6a88.905,88.905,0,0,0-9.751-4.254c6.773.487,14.062,2.754,19.114,4.63,1.088.181,1.842.364,2.211.461a65.1,65.1,0,0,0-13.53.153c9.174,1.877,26.262,10.481,26.262,10.481a22.05,22.05,0,0,0-2.472-.533c-5.051-1.876-12.341-4.142-19.113-4.63a89.189,89.189,0,0,1,9.751,4.254,42.382,42.382,0,0,0-20,6.853,65.515,65.515,0,0,1,12.406,2.891H891.627a69.157,69.157,0,0,1,13.3-5.705,62.106,62.106,0,0,0-9.071-4.7c3.164.088,8.348,2.078,12.309,3.819a36.685,36.685,0,0,1,8.826-1.081,64.531,64.531,0,0,0-19.427-5.788,42.382,42.382,0,0,1,20-6.853" fill="#4e804b"/>
            <path id="Trazado_159957" data-name="Trazado 159957" d="M997.061,222.729a23.161,23.161,0,0,1,3.573,3.219,38.532,38.532,0,0,0-7.627-1.6c1.243-.561,2.6-1.114,4.054-1.622" fill="#4e804b"/>
            <path id="Trazado_159958" data-name="Trazado 159958" d="M955.362,209.184l-2.7-10.678a48.687,48.687,0,0,1,27.648-15.578c-10.112,3.435-22.161,21.829-24.945,26.256" fill="#4e804b"/>
            <path id="Trazado_159959" data-name="Trazado 159959" d="M978.229,224.415c-.4.049-.8.105-1.206.163l8.7-7.413a35.794,35.794,0,0,1,4.308,1.522Z" fill="#4e804b"/>
            <path id="Trazado_159960" data-name="Trazado 159960" d="M960.56,214.791c.847-2.7,1.913-5.938,3.082-9.134l26.379-13.343-3.016,2.57c-13.9,4.3-22.459,14.168-26.445,19.907" fill="#4e804b"/>
            <path id="Trazado_159961" data-name="Trazado 159961" d="M950.559,190.208a32.51,32.51,0,0,1,6.634-7.827c-1.827,2.295-3.845,6.882-5.651,11.71Z" fill="#4e804b"/>
            <path id="Trazado_159962" data-name="Trazado 159962" d="M986.417,223.933c-.506,0-1.026,0-1.553.01a58.4,58.4,0,0,0,5.663-5.041,34.346,34.346,0,0,1,4.558,2.456,40.633,40.633,0,0,0-8.668,2.575" fill="#4e804b"/>
            <path id="Trazado_159963" data-name="Trazado 159963" d="M948.437,203.128c-.12.375-.236.744-.349,1.1.108-.154.221-.314.335-.474a140.578,140.578,0,0,0,.646,17.268c-6.836-8.447-17.089-11.419-17.089-11.419l13.851,16.738a56.762,56.762,0,0,0-16.542-3.892c-1.418-.709-17.388-8.632-26.149-10.425a62.157,62.157,0,0,1,30.219,3.755l-13.85-16.739s10.253,2.973,17.088,11.42a167.176,167.176,0,0,1,.54-34.572l7.7,30.43a45.649,45.649,0,0,1,4.108-13.192c-.215,2.742-.419,6.174-.509,10" fill="#4e804b"/>
            <path id="Trazado_159964" data-name="Trazado 159964" d="M116.695,249.685a73.989,73.989,0,0,0-14.236-6.108,66.4,66.4,0,0,1,9.711-5.029c-3.388.094-8.938,2.225-13.179,4.088a39.249,39.249,0,0,0-9.448-1.157,69.088,69.088,0,0,1,20.8-6.2,45.37,45.37,0,0,0-21.414-7.337,95.472,95.472,0,0,1,10.438-4.554c-7.25.522-15.054,2.949-20.462,4.956a23.652,23.652,0,0,0-2.646.571s18.294-9.211,28.115-11.221c-18.679-2.177-32.351,4.02-32.351,4.02L86.847,203.8s-10.976,3.181-18.294,12.225c1.926-18.254-.577-37.011-.577-37.011l-8.245,32.576c-.951-6.2-3.928-17.715-13.227-25.626,3.38,4.245,7.369,15.811,9.748,23.389-4.83-6.953-15.927-19.574-34.492-22.8,12.324,4.187,27.344,29.14,27.344,29.14L11.361,196.6l28.5,24.283L23.3,212.842a58.16,58.16,0,0,0,11.362,9.378c-.136-.021-.267-.033-.4-.053C29.8,219.232,21,215.055,7.606,215.6a50.023,50.023,0,0,1,18.1,6.083C8.573,222.308,0,232.6,0,232.6s13.479-4.856,32.736,0c-15.02,0-24.071,7.536-24.071,7.536a92.824,92.824,0,0,1,20.99,2.512,55.8,55.8,0,0,0-9.95,1.063c-3.534-.706-9.86-1.663-15.084-.812a40.8,40.8,0,0,1,10.793,1.79,70.637,70.637,0,0,0-13.489,4.993Z" fill="#295244"/>
            <path id="Trazado_159965" data-name="Trazado 159965" d="M30.9,219.655c-1.066-1.512-2.271-3.162-3.582-4.864L23.3,212.842a60.468,60.468,0,0,0,7.6,6.813" fill="#4e804b"/>
            <path id="Trazado_159966" data-name="Trazado 159966" d="M15.02,242.956a38.168,38.168,0,0,0-10.4-.053,38.054,38.054,0,0,1,9.215,1.359,43.907,43.907,0,0,1,5.548-.351c-1.492-.377-2.945-.689-4.365-.955" fill="#4e804b"/>
            <path id="Trazado_159967" data-name="Trazado 159967" d="M19.014,218.529a56.188,56.188,0,0,1,6.69,3.159c-.136,0-.267.016-.4.022L35.753,227s-1.622-2.69-4.227-6.444a44.2,44.2,0,0,0-18.164-4.882Z" fill="#4e804b"/>
            <path id="Trazado_159968" data-name="Trazado 159968" d="M46.38,222.9l1.926-7.612-4.493-2.272A50.55,50.55,0,0,1,46.38,222.9" fill="#4e804b"/>
            <path id="Trazado_159969" data-name="Trazado 159969" d="M88.926,227.946a95.276,95.276,0,0,1,10.438-4.554c-7.25.521-15.053,2.948-20.461,4.956-1.165.195-1.973.39-2.367.494a69.75,69.75,0,0,1,14.484.163C81.2,231.015,62.9,240.226,62.9,240.226a23.652,23.652,0,0,1,2.646-.571c5.409-2.007,13.212-4.434,20.462-4.956a95.466,95.466,0,0,0-10.438,4.554,45.37,45.37,0,0,1,21.414,7.337,70.124,70.124,0,0,0-13.281,3.1h32.987a73.954,73.954,0,0,0-14.236-6.108,66.354,66.354,0,0,1,9.711-5.029c-3.388.093-8.938,2.224-13.178,4.088a39.257,39.257,0,0,0-9.449-1.157,69.11,69.11,0,0,1,20.8-6.2,45.371,45.371,0,0,0-21.415-7.336" fill="#4e804b"/>
            <path id="Trazado_159970" data-name="Trazado 159970" d="M3.825,229.157A24.771,24.771,0,0,0,0,232.6a41.222,41.222,0,0,1,8.165-1.709c-1.331-.6-2.785-1.193-4.34-1.737" fill="#4e804b"/>
            <path id="Trazado_159971" data-name="Trazado 159971" d="M48.466,214.657l2.893-11.431a52.128,52.128,0,0,0-29.6-16.677c10.825,3.677,23.726,23.369,26.706,28.108" fill="#4e804b"/>
            <path id="Trazado_159972" data-name="Trazado 159972" d="M23.985,230.962c.425.053.857.112,1.291.174L15.962,223.2a38.334,38.334,0,0,0-4.611,1.628Z" fill="#4e804b"/>
            <path id="Trazado_159973" data-name="Trazado 159973" d="M42.9,220.659c-.907-2.889-2.048-6.357-3.3-9.778L11.362,196.6l3.228,2.75c14.88,4.606,24.044,15.168,28.311,21.312" fill="#4e804b"/>
            <path id="Trazado_159974" data-name="Trazado 159974" d="M53.607,194.342a34.8,34.8,0,0,0-7.1-8.38c1.956,2.458,4.116,7.368,6.05,12.537Z" fill="#4e804b"/>
            <path id="Trazado_159975" data-name="Trazado 159975" d="M15.219,230.446c.541,0,1.1,0,1.663.011a62.376,62.376,0,0,1-6.062-5.4,36.744,36.744,0,0,0-4.881,2.628,43.554,43.554,0,0,1,9.28,2.757" fill="#4e804b"/>
            <path id="Trazado_159976" data-name="Trazado 159976" d="M55.879,208.173c.128.4.253.8.373,1.179-.115-.166-.236-.337-.358-.508a150.447,150.447,0,0,1-.691,18.487C62.52,218.287,73.5,215.1,73.5,215.1l-14.827,17.92a60.75,60.75,0,0,1,17.708-4.167c1.519-.759,18.615-9.241,27.994-11.16-18.679-2.177-32.351,4.019-32.351,4.019L86.848,203.8s-10.976,3.182-18.294,12.225c1.926-18.254-.578-37.01-.578-37.01l-8.244,32.576a48.925,48.925,0,0,0-4.4-14.123c.229,2.936.448,6.61.544,10.707" fill="#4e804b"/>
            <rect id="Rectángulo_42416" data-name="Rectángulo 42416" width="946.107" height="20.105" transform="translate(5.646 240.142)" fill="#ffe5b8"/>
            <path id="Trazado_159977" data-name="Trazado 159977" d="M308.122,71.8h11.543V70.118H308.122a.569.569,0,0,0-.569.569v.541a.569.569,0,0,0,.569.569" fill="#ffe5b8"/>
            <path id="Trazado_159978" data-name="Trazado 159978" d="M330.321,104.875,331.658,91.4c5.034,1.851,11.645,7.293,18.031,20.873H334.576Z" fill="#854b27"/>
            <path id="Trazado_159979" data-name="Trazado 159979" d="M333.852,99.851l-.46,10.359-2.069-3.6Z" fill="#4f2d17"/>
            <path id="Trazado_159980" data-name="Trazado 159980" d="M425.314,136.063C402.645,151.5,371.49,161.556,329.6,161.556S244.721,151.5,222.052,136.063C244.721,120.628,287.71,110.57,329.6,110.57s73.046,10.058,95.715,25.493" fill="#3477d1"/>
            <path id="Trazado_159981" data-name="Trazado 159981" d="M425.314,136.063C402.645,151.5,371.49,161.556,329.6,161.556S244.721,151.5,222.052,136.063C244.721,120.628,287.71,110.57,329.6,110.57s73.046,10.058,95.715,25.493" fill="#2262ba"/>
            <path id="Trazado_159982" data-name="Trazado 159982" d="M329.9,114.254c-40.743,0-82.462,8.622-107.333,22.146-.169-.113-.348-.224-.515-.338,22.669-15.434,65.657-25.492,107.548-25.492s73.045,10.058,95.714,25.492c-.137.094-.279.185-.417.278-23.275-13.489-54.315-22.086-95-22.086" fill="#669be3"/>
            <path id="Trazado_159983" data-name="Trazado 159983" d="M368.712,117.419l.269-3.492q5.207.949,10.114,2.149Z" fill="#1d3b31"/>
            <path id="Trazado_159984" data-name="Trazado 159984" d="M408.585,136.063c-18.937.466-44.964.769-79.959.769s-70.908-.3-89.846-.769c18.938-.466,54.851-.769,89.846-.769s61.022.3,79.959.769" fill="#1d3b31"/>
            <path id="Trazado_159985" data-name="Trazado 159985" d="M343.5,161.164q-6.75.381-13.9.392a275.1,275.1,0,0,1-40.028-2.969l8.042-23.232h1.318l5.787-23.629c8.226-.755,16.574-1.156,24.881-1.156q3.708,0,7.3.107l-4.587,18.652.939,6.026h1.234a10.6,10.6,0,0,1,2.519,9.893s3.237,4.227,4.856,12.681a9.48,9.48,0,0,1,1.639,3.235" fill="#1d3b31"/>
            <path id="Trazado_159986" data-name="Trazado 159986" d="M335.734,158.193l17.745,77.54,11.345,3.679a4.24,4.24,0,0,1,2.538,2.248l.21.454a2.044,2.044,0,0,1-1.854,2.9H344.3a2.549,2.549,0,0,1-2.475-3.159l.929-3.766c-10.463-21.008-17.457-39.8-18.979-55.1l-8.542-24.8Z" fill="#854b27"/>
            <path id="Trazado_159987" data-name="Trazado 159987" d="M319.069,169.347l18.943-1.2-2.166-9.426-20.258.247Z" fill="#1d3b31"/>
            <rect id="Rectángulo_42417" data-name="Rectángulo 42417" width="25.723" height="1.619" transform="translate(341.849 245.019)" fill="#1d3b31"/>
            <path id="Trazado_159988" data-name="Trazado 159988" d="M356.36,245.019H359.7l2.758-6.373-3.337-1.083Z" fill="#1d3b31"/>
            <path id="Trazado_159989" data-name="Trazado 159989" d="M261.252,216.773l-3.687,1.2a2.55,2.55,0,0,0-1.372,3.772l11.336,18.178a2.045,2.045,0,0,0,3.447.037l.273-.42a4.237,4.237,0,0,0,.565-3.342l-2.881-11.574,32.487-37.873a20.7,20.7,0,0,0,4.419-8.655l4.771-19.908H289.385l-3.778,20.092c-7.192,7.03-15.694,22.259-24.355,38.489" fill="#854b27"/>
            <path id="Trazado_159990" data-name="Trazado 159990" d="M309.65,162.2l-1.417,5.911-21.033,1.7,1.8-9.56,17.843,1.3Z" fill="#1d3b31"/>
            <rect id="Rectángulo_42418" data-name="Rectángulo 42418" width="1.619" height="25.723" transform="matrix(0.849, -0.529, 0.529, 0.849, 253.526, 220.531)" fill="#1d3b31"/>
            <path id="Trazado_159991" data-name="Trazado 159991" d="M262.578,231.987l1.769,2.837,6.868-1.031-.848-3.4Z" fill="#1d3b31"/>
            <path id="Trazado_159992" data-name="Trazado 159992" d="M363.082,111.354l-1.339,2.287a1.614,1.614,0,0,0,.841,2.332L367.9,117.9a1.3,1.3,0,0,0,1.515-.492l1.349-2a1.7,1.7,0,0,0-.721-2.511l-4.949-2.2a1.583,1.583,0,0,0-2.01.647" fill="#854b27"/>
            <path id="Trazado_159993" data-name="Trazado 159993" d="M318.4,77.565l-3.9,12.159-4.876.73a7.742,7.742,0,0,0-6.373,5.815L293.7,135.293H328.71l-1.206-7.734,7.434-30.231a5,5,0,0,0-3.562-6.019l-5.206-1.39,1.334-7.33Z" fill="#854b27"/>
            <path id="Trazado_159994" data-name="Trazado 159994" d="M319.239,80.917l4.262-.539,4,2.211-1.079,5.93c-6.311,0-7.186-7.6-7.186-7.6" fill="#4f2d17"/>
            <path id="Trazado_159995" data-name="Trazado 159995" d="M302.4,134.388l3.8-25.543-14.5,27.921Z" fill="#4f2d17"/>
            <line id="Línea_542" data-name="Línea 542" x2="6.775" y2="5.396" transform="translate(312.889 93.382)" fill="none" stroke="#4f2d17" stroke-linecap="round" stroke-linejoin="round" stroke-width="1"/>
            <path id="Trazado_159996" data-name="Trazado 159996" d="M329.678,133.585H292.8l-9.713,28.061v4.947h56.751s-.18-7.375-2.788-10.433c-1.619-8.455-4.857-12.682-4.857-12.682a10.6,10.6,0,0,0-2.518-9.893" fill="#ffe5b8"/>
            <path id="Trazado_159997" data-name="Trazado 159997" d="M285.524,166.592v-2.54h4.69v2.54h.639v-2.54h4.689v2.54h.64v-2.54h4.69v2.54h.64v-2.54H306.2v2.54h.64v-2.54h4.69v2.54h.64v-2.54h4.689v2.54h.64v-2.54h4.69v2.54h.64v-2.54h4.69v2.54h.639v-2.54h4.69v2.54h.639v-2.54h4.69v2.54h.64v-2.54h.823c-.024-.205-.051-.419-.082-.639h-.741v-3.6a14.438,14.438,0,0,0-.64-1.779v.055h-4.69v-4.69h2.942c-.056-.218-.114-.428-.172-.64h-2.77v-4.689h1.161c-.092-.219-.184-.437-.274-.64h-.887V145.6c-.238-.449-.454-.826-.639-1.132v2.953h-4.69v-4.69h4.212c.035-.185.068-.4.1-.64h-4.309v-4.689h3.783c-.074-.212-.158-.425-.248-.64h-3.535v-3.181h-.639v3.181h-4.69v-3.181h-.64v3.181H317.5v-3.181h-.64v3.181h-4.689v-3.181h-.64v3.181h-4.69v-3.181h-.64v3.181h-4.689v-3.181h-.64v3.181h-4.69v-3.181h-.64v3.181H291.7l-.221.64h4.062V142.1h-4.689v-2.878l-.639,1.847V142.1h-.357l-.222.64h.579v4.69h-2.2l-.222.64h2.424v4.689h-4.047l-.221.64h4.268v4.69h-4.69v-3.471l-.64,1.848v1.623h-.562l-.221.64h.783v4.689h-1.8v.639h1.8v2.54Zm47.964-7.868h4.69v4.689h-4.69Zm-5.329,0h4.69v4.689h-4.69Zm0-5.33h4.69v4.69h-4.69Zm0-5.329h4.69v4.69h-4.69Zm-5.329,10.659h4.69v4.689h-4.69Zm0-5.33h4.69v4.69h-4.69Zm0-5.329h4.69v4.69h-4.69Zm0-5.33h4.69v4.69h-4.69Zm0-5.329h4.69v4.69h-4.69Zm-5.33,21.318h4.69v4.689H317.5Zm0-5.33h4.69v4.69H317.5Zm0-5.329h4.69v4.69H317.5Zm0-5.33h4.69v4.69H317.5Zm0-5.329h4.69v4.69H317.5Zm-5.329,21.318h4.69v4.689h-4.69Zm0-5.33h4.69v4.69h-4.69Zm0-5.329h4.69v4.69h-4.69Zm0-5.33h4.69v4.69h-4.69Zm0-5.329h4.69v4.69h-4.69Zm-5.33,21.318h4.69v4.689h-4.69Zm0-5.33h4.69v4.69h-4.69Zm0-5.329h4.69v4.69h-4.69Zm0-5.33h4.69v4.69h-4.69Zm0-5.329h4.69v4.69h-4.69Zm-5.329,21.318h4.69v4.689h-4.69Zm0-5.33h4.69v4.69h-4.69Zm0-5.329h4.69v4.69h-4.69Zm0-5.33h4.69v4.69h-4.69Zm0-5.329h4.69v4.69h-4.69Zm-5.33,21.318h4.69v4.689h-4.69Zm0-5.33h4.69v4.69h-4.69Zm0-5.329h4.69v4.69h-4.69Zm0-5.33h4.69v4.69h-4.69Zm0-5.329h4.69v4.69h-4.69Zm-5.329,21.318h4.689v4.689h-4.689Zm0-5.33h4.689v4.69h-4.689Zm0-5.329h4.689v4.69h-4.689Zm0-5.33h4.689v4.69h-4.689Zm-5.329,15.989h4.69v4.689h-4.69Z" fill="#ffc35c"/>
            <path id="Trazado_159998" data-name="Trazado 159998" d="M283.089,161.646l1.022-2.954,25.42,7.9H283.089Z" fill="#ffc35c"/>
            <path id="Trazado_159999" data-name="Trazado 159999" d="M316.007,147.847s.85,2.617-1.614,6.454c-.664,6.236-3.782,8.514-3.782,8.514l-1.079,3.778h10.193l-3.208-18.969Z" fill="#2262ba"/>
            <line id="Línea_543" data-name="Línea 543" x1="9.758" y2="4.257" transform="translate(312.964 144.917)" fill="none" stroke="#2262ba" stroke-linecap="round" stroke-linejoin="round" stroke-width="1"/>
            <path id="Trazado_160000" data-name="Trazado 160000" d="M265.833,212.831h33.106a3.323,3.323,0,0,0,3.317-3.127L303.7,185.37H261.076l1.44,24.334a3.323,3.323,0,0,0,3.317,3.127" fill="#2262ba"/>
            <path id="Trazado_160001" data-name="Trazado 160001" d="M259,183.679v-2.937A15.256,15.256,0,0,1,274.237,165.5h16.3a15.256,15.256,0,0,1,15.239,15.239v2.937a3.114,3.114,0,0,1-3.11,3.11H262.108a3.113,3.113,0,0,1-3.11-3.11m15.239-16.627a13.705,13.705,0,0,0-13.69,13.69v2.937a1.562,1.562,0,0,0,1.561,1.561h40.556a1.562,1.562,0,0,0,1.561-1.561v-2.937a13.706,13.706,0,0,0-13.69-13.69Z" fill="#ffe5b8"/>
            <path id="Trazado_160002" data-name="Trazado 160002" d="M262.783,189.267H301.99a2.641,2.641,0,0,0,2.642-2.641v-2.513a2.642,2.642,0,0,0-2.642-2.641H262.783a2.641,2.641,0,0,0-2.641,2.641v2.513a2.64,2.64,0,0,0,2.641,2.641" fill="#ffe5b8"/>
            <rect id="Rectángulo_42419" data-name="Rectángulo 42419" width="44.49" height="0.539" transform="translate(260.141 186.328)" fill="#ffc35c"/>
            <path id="Trazado_160003" data-name="Trazado 160003" d="M267.78,195.085h1.507a1.584,1.584,0,0,0,1.585-1.585v-7.263a1.585,1.585,0,0,0-1.585-1.585H267.78a1.585,1.585,0,0,0-1.585,1.585V193.5a1.585,1.585,0,0,0,1.585,1.585" fill="#ffc35c"/>
            <path id="Trazado_160004" data-name="Trazado 160004" d="M269.987,190.648h-2.906a.886.886,0,0,1-.886-.885v-.5h4.677v.5a.885.885,0,0,1-.885.885" fill="#1d3b31"/>
            <path id="Trazado_160005" data-name="Trazado 160005" d="M295.485,195.085h1.507a1.584,1.584,0,0,0,1.585-1.585v-7.263a1.585,1.585,0,0,0-1.585-1.585h-1.507a1.585,1.585,0,0,0-1.585,1.585V193.5a1.585,1.585,0,0,0,1.585,1.585" fill="#ffc35c"/>
            <path id="Trazado_160006" data-name="Trazado 160006" d="M297.692,190.648h-2.906a.886.886,0,0,1-.886-.885v-.5h4.677v.5a.885.885,0,0,1-.885.885" fill="#1d3b31"/>
            <path id="Trazado_160007" data-name="Trazado 160007" d="M310.256,90.361c-1.125.216-2.174.455-3.143.705a15.621,15.621,0,0,0-10.714,9.562l-9.353,24.592c-4.464,2.726-6.8,16.842-9.054,31.419l-1.971,6.2a4.94,4.94,0,0,0,.021,3.056l.511,1.533a2.37,2.37,0,0,0,2.247,1.62h4.318A2.369,2.369,0,0,0,285.466,167l.2-1.487h2.159a16.965,16.965,0,0,0-2.039-7.075L310.61,100.1Z" fill="#854b27"/>
            <line id="Línea_544" data-name="Línea 544" x1="14.07" y1="0.649" transform="translate(316.538 150.737)" fill="none" stroke="#2262ba" stroke-linecap="round" stroke-linejoin="round" stroke-width="1"/>
            <path id="Trazado_160008" data-name="Trazado 160008" d="M332.855,70.118v4.857s2.3,8.377-5.576,9.953a8.385,8.385,0,0,1-8.58-5.092,4.141,4.141,0,0,1-.294-1.56V70.118Z" fill="#854b27"/>
            <path id="Trazado_160009" data-name="Trazado 160009" d="M322.177,78.661a1.654,1.654,0,1,0,1.654-1.654,1.654,1.654,0,0,0-1.654,1.654" fill="#853727"/>
            <path id="Trazado_160010" data-name="Trazado 160010" d="M321.223,70.118A5.263,5.263,0,0,1,318.4,75.6h-2.728a17.785,17.785,0,0,1-.87-5.486Z" fill="#1d3b31"/>
            <path id="Trazado_160011" data-name="Trazado 160011" d="M329.714,75.133a2.1,2.1,0,1,0,2.069-2.432,2.273,2.273,0,0,0-2.069,2.432" fill="#0e1c17"/>
            <path id="Trazado_160012" data-name="Trazado 160012" d="M324.234,75.133A2.1,2.1,0,1,0,326.3,72.7a2.273,2.273,0,0,0-2.069,2.432" fill="#0e1c17"/>
            <rect id="Rectángulo_42420" data-name="Rectángulo 42420" width="3.867" height="0.6" transform="translate(326.776 73.835)" fill="#0e1c17"/>
            <path id="Trazado_160013" data-name="Trazado 160013" d="M317.333,74.135l7.495.3v-.78h-7.495Z" fill="#0e1c17"/>
            <path id="Trazado_160014" data-name="Trazado 160014" d="M316.047,73.887a2.957,2.957,0,1,0,3.724.625,2.692,2.692,0,0,0-3.724-.625" fill="#854b27"/>
            <path id="Trazado_160015" data-name="Trazado 160015" d="M329.228,75.439l.63,2.721h-1.822" fill="none" stroke="#4f2d17" stroke-linecap="round" stroke-linejoin="round" stroke-width="1"/>
            <path id="Trazado_160016" data-name="Trazado 160016" d="M329.453,79.8a5.573,5.573,0,0,1-4.625-.967" fill="none" stroke="#4f2d17" stroke-linecap="round" stroke-linejoin="round" stroke-width="1"/>
            <line id="Línea_545" data-name="Línea 545" x1="3.508" transform="translate(324.671 71.947)" fill="none" stroke="#1d3b31" stroke-miterlimit="10" stroke-width="2"/>
            <line id="Línea_546" data-name="Línea 546" x2="2.189" transform="translate(330.217 71.947)" fill="none" stroke="#1d3b31" stroke-miterlimit="10" stroke-width="2"/>
            <path id="Trazado_160017" data-name="Trazado 160017" d="M332.855,70.118H314.807s.881-8.709,9.427-8.709,8.621,8.709,8.621,8.709" fill="#ffe5b8"/>
            <path id="Trazado_160018" data-name="Trazado 160018" d="M326.171,70.118h4.4V67.712a1.49,1.49,0,0,0-1.491-1.491h-1.418a1.491,1.491,0,0,0-1.491,1.491Z" fill="#1d3b31"/>
            <path id="Trazado_160019" data-name="Trazado 160019" d="M324.132,70.118h7.4V68.169h-7.4a.66.66,0,0,0-.66.661v.628a.66.66,0,0,0,.66.66" fill="#ffc35c"/>
            <path id="Trazado_160020" data-name="Trazado 160020" d="M319.664,77.007a3.015,3.015,0,0,0-2.817-1.874" fill="none" stroke="#4f2d17" stroke-linecap="round" stroke-linejoin="round" stroke-width="1"/>
            <path id="Trazado_160021" data-name="Trazado 160021" d="M308.393,99.851s-2.192,5.456-9.174,5.18" fill="none" stroke="#4f2d17" stroke-linecap="round" stroke-linejoin="round" stroke-width="1"/>
            <path id="Trazado_160022" data-name="Trazado 160022" d="M329.933,112.038a24.843,24.843,0,0,1-7.555,0" fill="none" stroke="#4f2d17" stroke-linecap="round" stroke-linejoin="round" stroke-width="1"/>
            <path id="Trazado_160023" data-name="Trazado 160023" d="M316.93,112.038a24.842,24.842,0,0,1-7.555,0" fill="none" stroke="#4f2d17" stroke-linecap="round" stroke-linejoin="round" stroke-width="1"/>
            <path id="Trazado_160024" data-name="Trazado 160024" d="M327.16,110.254a.809.809,0,1,0,.809-.809.809.809,0,0,0-.809.809" fill="#4f2d17"/>
            <path id="Trazado_160025" data-name="Trazado 160025" d="M313.639,110.254a.809.809,0,1,0,.809-.809.809.809,0,0,0-.809.809" fill="#4f2d17"/>
            <line id="Línea_547" data-name="Línea 547" x1="33.172" transform="translate(296.761 137.406)" fill="none" stroke="#2262ba" stroke-linecap="round" stroke-linejoin="round" stroke-width="1"/>
            <path id="Trazado_160026" data-name="Trazado 160026" d="M224.543,162.932l-3.4,21.54s-33.907,36.336-35.886,38.944c-1.05,1.384-2.3,3.173-3.247,4.548a11.52,11.52,0,0,0-1.708,3.955,9.212,9.212,0,0,1-3.38,5.523,1.5,1.5,0,0,1-2.377-1.26l.662-19.452a2.841,2.841,0,0,1,2.944-2.742l4.408.164s12.251-24.663,21.34-34.772a6.644,6.644,0,0,0,1.69-3.926l.984-12.522Z" fill="#de5f5f"/>
            <path id="Trazado_160027" data-name="Trazado 160027" d="M205.584,175.454l.984-12.522h17.975l-3.4,21.54s-6.958,7.457-14.754,15.856c3.469-4.909-5.87-8.735-5.038-17.853.868-1.132,1.721-2.175,2.548-3.1a6.644,6.644,0,0,0,1.69-3.926" fill="#b83030"/>
            <path id="Trazado_160028" data-name="Trazado 160028" d="M219.629,158.72l13.29,77.587,5.816,3.418a17.577,17.577,0,0,1,7.6,4.371,1.04,1.04,0,0,1-.763,1.745H226a2.09,2.09,0,0,1-2.066-2.408l.949-6.166s-15.113-36.527-14.5-53.613a30.951,30.951,0,0,0-2.879-13.933l-5.026-11Z" fill="#de5f5f"/>
            <path id="Trazado_160029" data-name="Trazado 160029" d="M205.159,164.6l6.536-5.876h7.617l.489,1.009,1.191,6.951Z" fill="#1d3b31"/>
            <path id="Trazado_160030" data-name="Trazado 160030" d="M210.925,83.808c-.349,3.97-3.8,7.812-8.45,9.209S192.151,98,189.444,103.5s-4.191,8.978-11.788,11.125-13.894,6.86-15.28,14.372c-1.048,5.676,3.23,12.661,9.6,14.931s15.019.437,20.345-2.008,11.613-5.85,17.988-5.763l15.77-56.1Z" fill="#1d3b31"/>
            <path id="Trazado_160031" data-name="Trazado 160031" d="M165.518,205.968h21.389a5.419,5.419,0,0,0,5.4-5.872l-2.29-27.315H162.407L160.118,200.1a5.419,5.419,0,0,0,5.4,5.872" fill="#ffe5b8"/>
            <path id="Trazado_160032" data-name="Trazado 160032" d="M184.577,180.785H167.848s-1.079,14.21,8.365,14.21,8.364-14.21,8.364-14.21" fill="#de5f5f"/>
            <path id="Trazado_160033" data-name="Trazado 160033" d="M187.59,174.954H164.835s1.242-14.24,11.378-14.24S187.59,174.954,187.59,174.954Z" fill="none" stroke="#ffe5b8" stroke-miterlimit="10" stroke-width="1.072"/>
            <path id="Trazado_160034" data-name="Trazado 160034" d="M210.255,119.447l-7.78-3.1-22.934,40.832c1.079,4.407-1.349,4.9-1.349,4.9a2.044,2.044,0,0,1-2.008,1.664h-4.065a1.357,1.357,0,0,1-1.346-1.518,10.057,10.057,0,0,1,2.583-5.722,7.476,7.476,0,0,0,1.78-3.149c5.419-20.18,11.285-27.295,11.285-27.295s5.711-11.693,8.544-17.763,7.106-7.915,11.513-9.534c0,0,7.794,14.51,3.777,20.686" fill="#de5f5f"/>
            <path id="Trazado_160035" data-name="Trazado 160035" d="M204.577,112.254l-2.1,4.09,4.362,1.034-.92-4.928a.716.716,0,0,0-1.34-.2" fill="#b83030"/>
            <path id="Trazado_160036" data-name="Trazado 160036" d="M220.262,98.011c2.9,0,6.677,1.514,9.285,7.495s20.283,48.9,20.283,48.9,5.217,8.5,4.272,9.129-2.878-3.1-2.878-3.1-.089,5.666-1.079,5.666-.809-4.811-.809-4.811.045,4.137-1.889,4.092-1.439-4.947-1.439-4.947-.63,3.867-1.3,3.643.18-4,.18-4-1.124-2.788-.315-4.586c0,0-13.043-17.917-12.864-24.527l-7.689-14.788Z" fill="#de5f5f"/>
            <path id="Trazado_160037" data-name="Trazado 160037" d="M208.486,98.011l-2.009.749s4.632,14.256-4,17.584l4.137,10.343-2.7,7.644h19.877v-8.859l1.394-6.16s3.912-1.934,1.708-8.59c-1.457-4.4-3.012-8.54-3.9-10.839a2.925,2.925,0,0,0-2.732-1.872H208.486Z" fill="#de5f5f"/>
            <path id="Trazado_160038" data-name="Trazado 160038" d="M225.184,119.312l-.784,3.463H205.047l-2.573-6.431c8.635-3.328,4-17.583,4-17.583l2.008-.75h11.971a2.644,2.644,0,0,1,2.467,1.69c.873,2.258,2.473,6.5,3.97,11.022,2.2,6.655-1.709,8.589-1.709,8.589" fill="#ffc35c"/>
            <path id="Trazado_160039" data-name="Trazado 160039" d="M223.79,130.239H204.656l-2.032,4.8a2.858,2.858,0,0,1-.369.629c-.984,1.282-4.894,6.878-3.633,13.395a7.952,7.952,0,0,0-.719,7.975s-2.039,4.437-1.619,7.555h29.979s2.758-5.4.6-9.834c1.979-4.916,2.61-7.255.825-10.073,1.377-3.142-1.587-7.487-3.091-9.394a3.74,3.74,0,0,1-.807-2.318Z" fill="#ffe5b8"/>
            <path id="Trazado_160040" data-name="Trazado 160040" d="M226.264,164.6h-29.98a10.078,10.078,0,0,1,.233-3.328h30.871a15.069,15.069,0,0,1-1.124,3.328" fill="#ffc35c"/>
            <line id="Línea_548" data-name="Línea 548" x1="3.298" y1="21.286" transform="translate(218.589 143.31)" fill="none" stroke="#1d3b31" stroke-linecap="round" stroke-linejoin="round" stroke-width="1"/>
            <path id="Trazado_160041" data-name="Trazado 160041" d="M223.326,142.651s-.8,4.85-3.7,7.372" fill="none" stroke="#1d3b31" stroke-linecap="round" stroke-linejoin="round" stroke-width="1"/>
            <line id="Línea_549" data-name="Línea 549" x2="10.193" y2="7.255" transform="translate(203.359 141.512)" fill="none" stroke="#1d3b31" stroke-linecap="round" stroke-linejoin="round" stroke-width="1"/>
            <line id="Línea_550" data-name="Línea 550" x1="10.882" y1="4.077" transform="translate(204.139 148.107)" fill="none" stroke="#1d3b31" stroke-linecap="round" stroke-linejoin="round" stroke-width="1"/>
            <path id="Trazado_160042" data-name="Trazado 160042" d="M236.785,238.579l1.95,1.146a17.57,17.57,0,0,1,7.6,4.371,1.04,1.04,0,0,1-.762,1.745H226a2.09,2.09,0,0,1-2.066-2.408l.072-.47h4.282a4.315,4.315,0,0,0,3.6-1.848,5.1,5.1,0,0,1,4.9-2.536" fill="#1d3b31"/>
            <path id="Trazado_160043" data-name="Trazado 160043" d="M176.867,237.477a1.5,1.5,0,0,1-2.328-1.295l.662-19.451a2.84,2.84,0,0,1,2.944-2.742l.411.015-.825,8.427a2.677,2.677,0,0,0,1.569,2.7,7.772,7.772,0,0,1,2.982,2.435l-.277.4a11.522,11.522,0,0,0-1.709,3.955,9.186,9.186,0,0,1-3.429,5.558" fill="#1d3b31"/>
            <path id="Trazado_160044" data-name="Trazado 160044" d="M221.917,81.223s-.817,7.46-7.627,10.9a3.375,3.375,0,0,0-1.448,1.4,12.284,12.284,0,0,1-2.2,3.109,8.764,8.764,0,0,1-2.159,1.379s8.694,5.336,10.883,11.961a26,26,0,0,0-.03-11.991l2.428-4.5s2.668,1.019,4.587-.45,2.578-6.3,2.578-6.3l-.6-.548a3.39,3.39,0,0,1-1.073-3.016l.472-3.121Z" fill="#de5f5f"/>
            <path id="Trazado_160045" data-name="Trazado 160045" d="M221.5,87.5a1.267,1.267,0,1,0,1.267-1.267A1.267,1.267,0,0,0,221.5,87.5" fill="#d44545"/>
            <path id="Trazado_160046" data-name="Trazado 160046" d="M224.634,84.533a.725.725,0,1,0,.725-.725.726.726,0,0,0-.725.725" fill="#1d3b31"/>
            <path id="Trazado_160047" data-name="Trazado 160047" d="M216.334,88.393a2.148,2.148,0,1,0,.5-3.258,2.35,2.35,0,0,0-.5,3.258" fill="#de5f5f"/>
            <path id="Trazado_160048" data-name="Trazado 160048" d="M226.893,88.688a7.137,7.137,0,0,1-3.6-.9" fill="none" stroke="#b83030" stroke-linecap="round" stroke-linejoin="round" stroke-width="1"/>
            <path id="Trazado_160049" data-name="Trazado 160049" d="M221.767,93.484a10.429,10.429,0,0,1-1.858-1.174.531.531,0,0,0-.842.538l.881,4Z" fill="#b83030"/>
            <path id="Trazado_160050" data-name="Trazado 160050" d="M226.354,82.6a3.9,3.9,0,0,0-2.848.51" fill="none" stroke="#1d3b31" stroke-miterlimit="10" stroke-width="2"/>
            <path id="Trazado_160051" data-name="Trazado 160051" d="M210.883,82.754a9.22,9.22,0,0,1-.256-.954,8.659,8.659,0,1,1,16.956-3.509,8.958,8.958,0,0,1,.144.977Z" fill="#ffe5b8"/>
            <path id="Trazado_160052" data-name="Trazado 160052" d="M210.627,81.8a8.973,8.973,0,0,1-.177-2.039c2.569-.684,5.319-1.337,8.2-1.933s5.661-1.087,8.29-1.479a8.961,8.961,0,0,1,.647,1.941c.035.167.063.333.087.5l-16.925,3.5c-.044-.162-.084-.325-.118-.492" fill="#b83030"/>
            <path id="Trazado_160053" data-name="Trazado 160053" d="M219.024,79.654c10.8-2.236,20.348-3.053,24.965-2.338l-48.807,10.1c3.954-2.489,13.037-5.528,23.842-7.764" fill="#ffe5b8"/>
            <path id="Trazado_160054" data-name="Trazado 160054" d="M217.437,85.993a3.345,3.345,0,0,1,1.8,2.7" fill="none" stroke="#b83030" stroke-linecap="round" stroke-linejoin="round" stroke-width="1"/>
            <line id="Línea_551" data-name="Línea 551" x1="16.517" transform="translate(205.535 133.931)" fill="none" stroke="#ffc35c" stroke-linecap="round" stroke-linejoin="round" stroke-width="1"/>
            <g id="Grupo_169214" data-name="Grupo 169214" style="mix-blend-mode: overlay;isolation: isolate">
              <g id="Grupo_169213" data-name="Grupo 169213">
                <g id="Grupo_169212" data-name="Grupo 169212" clip-path="url(#clip-path-7)">
                  <path id="Trazado_160055" data-name="Trazado 160055" d="M157.977,80.785s8.625-5.364,16.561,0c-6.524-.172-12.417,1.35-16.561,7.282-4.146-5.932-10.039-7.454-16.563-7.282,7.936-5.369,16.563,0,16.563,0" fill="#0d438c"/>
                </g>
              </g>
            </g>
            <g id="Grupo_169217" data-name="Grupo 169217" style="mix-blend-mode: overlay;isolation: isolate">
              <g id="Grupo_169216" data-name="Grupo 169216">
                <g id="Grupo_169215" data-name="Grupo 169215" clip-path="url(#clip-path-8)">
                  <path id="Trazado_160056" data-name="Trazado 160056" d="M688.5,109.974s8.626-5.364,16.562,0c-6.524-.172-12.417,1.35-16.562,7.282-4.145-5.932-10.038-7.454-16.562-7.282,7.936-5.369,16.562,0,16.562,0" fill="#0d438c"/>
                </g>
              </g>
            </g>
            <g id="Grupo_169220" data-name="Grupo 169220" style="mix-blend-mode: overlay;isolation: isolate">
              <g id="Grupo_169219" data-name="Grupo 169219">
                <g id="Grupo_169218" data-name="Grupo 169218" clip-path="url(#clip-path-9)">
                  <path id="Trazado_160057" data-name="Trazado 160057" d="M656.7,96.955s4.915-3.056,9.437,0c-3.717-.1-7.075.769-9.437,4.149-2.362-3.38-5.72-4.247-9.437-4.149,4.522-3.059,9.437,0,9.437,0" fill="#0d438c"/>
                </g>
              </g>
            </g>
            <g id="Grupo_169223" data-name="Grupo 169223" style="mix-blend-mode: overlay;isolation: isolate">
              <g id="Grupo_169222" data-name="Grupo 169222">
                <g id="Grupo_169221" data-name="Grupo 169221" clip-path="url(#clip-path-10)">
                  <path id="Trazado_160058" data-name="Trazado 160058" d="M878.636,136.008s4.915-3.056,9.437,0c-3.717-.1-7.075.769-9.437,4.149-2.362-3.38-5.72-4.247-9.437-4.149,4.522-3.059,9.437,0,9.437,0" fill="#0d438c"/>
                </g>
              </g>
            </g>
            <g id="Grupo_169226" data-name="Grupo 169226" style="mix-blend-mode: overlay;isolation: isolate">
              <g id="Grupo_169225" data-name="Grupo 169225">
                <g id="Grupo_169224" data-name="Grupo 169224" clip-path="url(#clip-path-11)">
                  <path id="Trazado_160059" data-name="Trazado 160059" d="M145.505,132.017s4.669-2.9,8.966,0c-3.532-.094-6.723.73-8.966,3.942-2.245-3.212-5.436-4.036-8.968-3.942,4.3-2.907,8.968,0,8.968,0" fill="#0d438c"/>
                </g>
              </g>
            </g>
          </g>
        </g>
      </g>
    </g>
  </g>
</svg>
